<?xml version="1.0" encoding="utf-8" standalone="no"?>
<!DOCTYPE svg PUBLIC "-//W3C//DTD SVG 1.1//EN"
  "http://www.w3.org/Graphics/SVG/1.1/DTD/svg11.dtd">
<!-- Created with matplotlib (https://matplotlib.org/) -->
<svg height="576pt" version="1.1" viewBox="0 0 720 576" width="720pt" xmlns="http://www.w3.org/2000/svg" xmlns:xlink="http://www.w3.org/1999/xlink">
 <defs>
  <style type="text/css">
*{stroke-linecap:butt;stroke-linejoin:round;}
  </style>
 </defs>
 <g id="figure_1">
  <g id="patch_1">
   <path d="M 0 576 
L 720 576 
L 720 0 
L 0 0 
z
" style="fill:#ffffff;"/>
  </g>
  <g id="axes_1">
   <g id="patch_2">
    <path d="M 90 512.64 
L 648 512.64 
L 648 69.12 
L 90 69.12 
z
" style="fill:#ffffff;"/>
   </g>
   <g id="matplotlib.axis_1">
    <g id="xtick_1">
     <g id="line2d_1">
      <path clip-path="url(#p71638a8e2e)" d="M 115.363636 512.64 
L 115.363636 69.12 
" style="fill:none;stroke:#b0b0b0;stroke-linecap:square;stroke-width:0.8;"/>
     </g>
     <g id="line2d_2">
      <defs>
       <path d="M 0 0 
L 0 3.5 
" id="m0ee9795c67" style="stroke:#000000;stroke-width:0.8;"/>
      </defs>
      <g>
       <use style="stroke:#000000;stroke-width:0.8;" x="115.363636" xlink:href="#m0ee9795c67" y="512.64"/>
      </g>
     </g>
     <g id="text_1">
      <!-- 0.5 -->
      <defs>
       <path d="M 31.78125 66.40625 
Q 24.171875 66.40625 20.328125 58.90625 
Q 16.5 51.421875 16.5 36.375 
Q 16.5 21.390625 20.328125 13.890625 
Q 24.171875 6.390625 31.78125 6.390625 
Q 39.453125 6.390625 43.28125 13.890625 
Q 47.125 21.390625 47.125 36.375 
Q 47.125 51.421875 43.28125 58.90625 
Q 39.453125 66.40625 31.78125 66.40625 
z
M 31.78125 74.21875 
Q 44.046875 74.21875 50.515625 64.515625 
Q 56.984375 54.828125 56.984375 36.375 
Q 56.984375 17.96875 50.515625 8.265625 
Q 44.046875 -1.421875 31.78125 -1.421875 
Q 19.53125 -1.421875 13.0625 8.265625 
Q 6.59375 17.96875 6.59375 36.375 
Q 6.59375 54.828125 13.0625 64.515625 
Q 19.53125 74.21875 31.78125 74.21875 
z
" id="DejaVuSans-48"/>
       <path d="M 10.6875 12.40625 
L 21 12.40625 
L 21 0 
L 10.6875 0 
z
" id="DejaVuSans-46"/>
       <path d="M 10.796875 72.90625 
L 49.515625 72.90625 
L 49.515625 64.59375 
L 19.828125 64.59375 
L 19.828125 46.734375 
Q 21.96875 47.46875 24.109375 47.828125 
Q 26.265625 48.1875 28.421875 48.1875 
Q 40.625 48.1875 47.75 41.5 
Q 54.890625 34.8125 54.890625 23.390625 
Q 54.890625 11.625 47.5625 5.09375 
Q 40.234375 -1.421875 26.90625 -1.421875 
Q 22.3125 -1.421875 17.546875 -0.640625 
Q 12.796875 0.140625 7.71875 1.703125 
L 7.71875 11.625 
Q 12.109375 9.234375 16.796875 8.0625 
Q 21.484375 6.890625 26.703125 6.890625 
Q 35.15625 6.890625 40.078125 11.328125 
Q 45.015625 15.765625 45.015625 23.390625 
Q 45.015625 31 40.078125 35.4375 
Q 35.15625 39.890625 26.703125 39.890625 
Q 22.75 39.890625 18.8125 39.015625 
Q 14.890625 38.140625 10.796875 36.28125 
z
" id="DejaVuSans-53"/>
      </defs>
      <g transform="translate(102.641136 531.7975)scale(0.16 -0.16)">
       <use xlink:href="#DejaVuSans-48"/>
       <use x="63.623047" xlink:href="#DejaVuSans-46"/>
       <use x="95.410156" xlink:href="#DejaVuSans-53"/>
      </g>
     </g>
    </g>
    <g id="xtick_2">
     <g id="line2d_3">
      <path clip-path="url(#p71638a8e2e)" d="M 323.207549 512.64 
L 323.207549 69.12 
" style="fill:none;stroke:#b0b0b0;stroke-linecap:square;stroke-width:0.8;"/>
     </g>
     <g id="line2d_4">
      <g>
       <use style="stroke:#000000;stroke-width:0.8;" x="323.207549" xlink:href="#m0ee9795c67" y="512.64"/>
      </g>
     </g>
     <g id="text_2">
      <!-- 4.0 -->
      <defs>
       <path d="M 37.796875 64.3125 
L 12.890625 25.390625 
L 37.796875 25.390625 
z
M 35.203125 72.90625 
L 47.609375 72.90625 
L 47.609375 25.390625 
L 58.015625 25.390625 
L 58.015625 17.1875 
L 47.609375 17.1875 
L 47.609375 0 
L 37.796875 0 
L 37.796875 17.1875 
L 4.890625 17.1875 
L 4.890625 26.703125 
z
" id="DejaVuSans-52"/>
      </defs>
      <g transform="translate(310.485049 531.7975)scale(0.16 -0.16)">
       <use xlink:href="#DejaVuSans-52"/>
       <use x="63.623047" xlink:href="#DejaVuSans-46"/>
       <use x="95.410156" xlink:href="#DejaVuSans-48"/>
      </g>
     </g>
    </g>
    <g id="xtick_3">
     <g id="line2d_5">
      <path clip-path="url(#p71638a8e2e)" d="M 392.488853 512.64 
L 392.488853 69.12 
" style="fill:none;stroke:#b0b0b0;stroke-linecap:square;stroke-width:0.8;"/>
     </g>
     <g id="line2d_6">
      <g>
       <use style="stroke:#000000;stroke-width:0.8;" x="392.488853" xlink:href="#m0ee9795c67" y="512.64"/>
      </g>
     </g>
     <g id="text_3">
      <!-- 8.0 -->
      <defs>
       <path d="M 31.78125 34.625 
Q 24.75 34.625 20.71875 30.859375 
Q 16.703125 27.09375 16.703125 20.515625 
Q 16.703125 13.921875 20.71875 10.15625 
Q 24.75 6.390625 31.78125 6.390625 
Q 38.8125 6.390625 42.859375 10.171875 
Q 46.921875 13.96875 46.921875 20.515625 
Q 46.921875 27.09375 42.890625 30.859375 
Q 38.875 34.625 31.78125 34.625 
z
M 21.921875 38.8125 
Q 15.578125 40.375 12.03125 44.71875 
Q 8.5 49.078125 8.5 55.328125 
Q 8.5 64.0625 14.71875 69.140625 
Q 20.953125 74.21875 31.78125 74.21875 
Q 42.671875 74.21875 48.875 69.140625 
Q 55.078125 64.0625 55.078125 55.328125 
Q 55.078125 49.078125 51.53125 44.71875 
Q 48 40.375 41.703125 38.8125 
Q 48.828125 37.15625 52.796875 32.3125 
Q 56.78125 27.484375 56.78125 20.515625 
Q 56.78125 9.90625 50.3125 4.234375 
Q 43.84375 -1.421875 31.78125 -1.421875 
Q 19.734375 -1.421875 13.25 4.234375 
Q 6.78125 9.90625 6.78125 20.515625 
Q 6.78125 27.484375 10.78125 32.3125 
Q 14.796875 37.15625 21.921875 38.8125 
z
M 18.3125 54.390625 
Q 18.3125 48.734375 21.84375 45.5625 
Q 25.390625 42.390625 31.78125 42.390625 
Q 38.140625 42.390625 41.71875 45.5625 
Q 45.3125 48.734375 45.3125 54.390625 
Q 45.3125 60.0625 41.71875 63.234375 
Q 38.140625 66.40625 31.78125 66.40625 
Q 25.390625 66.40625 21.84375 63.234375 
Q 18.3125 60.0625 18.3125 54.390625 
z
" id="DejaVuSans-56"/>
      </defs>
      <g transform="translate(379.766353 531.7975)scale(0.16 -0.16)">
       <use xlink:href="#DejaVuSans-56"/>
       <use x="63.623047" xlink:href="#DejaVuSans-46"/>
       <use x="95.410156" xlink:href="#DejaVuSans-48"/>
      </g>
     </g>
    </g>
    <g id="xtick_4">
     <g id="line2d_7">
      <path clip-path="url(#p71638a8e2e)" d="M 441.01623 512.64 
L 441.01623 69.12 
" style="fill:none;stroke:#b0b0b0;stroke-linecap:square;stroke-width:0.8;"/>
     </g>
     <g id="line2d_8">
      <g>
       <use style="stroke:#000000;stroke-width:0.8;" x="441.01623" xlink:href="#m0ee9795c67" y="512.64"/>
      </g>
     </g>
     <g id="text_4">
      <!-- 13.0 -->
      <defs>
       <path d="M 12.40625 8.296875 
L 28.515625 8.296875 
L 28.515625 63.921875 
L 10.984375 60.40625 
L 10.984375 69.390625 
L 28.421875 72.90625 
L 38.28125 72.90625 
L 38.28125 8.296875 
L 54.390625 8.296875 
L 54.390625 0 
L 12.40625 0 
z
" id="DejaVuSans-49"/>
       <path d="M 40.578125 39.3125 
Q 47.65625 37.796875 51.625 33 
Q 55.609375 28.21875 55.609375 21.1875 
Q 55.609375 10.40625 48.1875 4.484375 
Q 40.765625 -1.421875 27.09375 -1.421875 
Q 22.515625 -1.421875 17.65625 -0.515625 
Q 12.796875 0.390625 7.625 2.203125 
L 7.625 11.71875 
Q 11.71875 9.328125 16.59375 8.109375 
Q 21.484375 6.890625 26.8125 6.890625 
Q 36.078125 6.890625 40.9375 10.546875 
Q 45.796875 14.203125 45.796875 21.1875 
Q 45.796875 27.640625 41.28125 31.265625 
Q 36.765625 34.90625 28.71875 34.90625 
L 20.21875 34.90625 
L 20.21875 43.015625 
L 29.109375 43.015625 
Q 36.375 43.015625 40.234375 45.921875 
Q 44.09375 48.828125 44.09375 54.296875 
Q 44.09375 59.90625 40.109375 62.90625 
Q 36.140625 65.921875 28.71875 65.921875 
Q 24.65625 65.921875 20.015625 65.03125 
Q 15.375 64.15625 9.8125 62.3125 
L 9.8125 71.09375 
Q 15.4375 72.65625 20.34375 73.4375 
Q 25.25 74.21875 29.59375 74.21875 
Q 40.828125 74.21875 47.359375 69.109375 
Q 53.90625 64.015625 53.90625 55.328125 
Q 53.90625 49.265625 50.4375 45.09375 
Q 46.96875 40.921875 40.578125 39.3125 
z
" id="DejaVuSans-51"/>
      </defs>
      <g transform="translate(423.20373 531.7975)scale(0.16 -0.16)">
       <use xlink:href="#DejaVuSans-49"/>
       <use x="63.623047" xlink:href="#DejaVuSans-51"/>
       <use x="127.246094" xlink:href="#DejaVuSans-46"/>
       <use x="159.033203" xlink:href="#DejaVuSans-48"/>
      </g>
     </g>
    </g>
    <g id="xtick_5">
     <g id="line2d_9">
      <path clip-path="url(#p71638a8e2e)" d="M 524.60072 512.64 
L 524.60072 69.12 
" style="fill:none;stroke:#b0b0b0;stroke-linecap:square;stroke-width:0.8;"/>
     </g>
     <g id="line2d_10">
      <g>
       <use style="stroke:#000000;stroke-width:0.8;" x="524.60072" xlink:href="#m0ee9795c67" y="512.64"/>
      </g>
     </g>
     <g id="text_5">
      <!-- 30.0 -->
      <g transform="translate(506.78822 531.7975)scale(0.16 -0.16)">
       <use xlink:href="#DejaVuSans-51"/>
       <use x="63.623047" xlink:href="#DejaVuSans-48"/>
       <use x="127.246094" xlink:href="#DejaVuSans-46"/>
       <use x="159.033203" xlink:href="#DejaVuSans-48"/>
      </g>
     </g>
    </g>
    <g id="xtick_6">
     <g id="line2d_11">
      <path clip-path="url(#p71638a8e2e)" d="M 622.636364 512.64 
L 622.636364 69.12 
" style="fill:none;stroke:#b0b0b0;stroke-linecap:square;stroke-width:0.8;"/>
     </g>
     <g id="line2d_12">
      <g>
       <use style="stroke:#000000;stroke-width:0.8;" x="622.636364" xlink:href="#m0ee9795c67" y="512.64"/>
      </g>
     </g>
     <g id="text_6">
      <!-- 80.0 -->
      <g transform="translate(604.823864 531.7975)scale(0.16 -0.16)">
       <use xlink:href="#DejaVuSans-56"/>
       <use x="63.623047" xlink:href="#DejaVuSans-48"/>
       <use x="127.246094" xlink:href="#DejaVuSans-46"/>
       <use x="159.033203" xlink:href="#DejaVuSans-48"/>
      </g>
     </g>
    </g>
    <g id="xtick_7">
     <g id="line2d_13">
      <defs>
       <path d="M 0 0 
L 0 2 
" id="mf8664cfa82" style="stroke:#000000;stroke-width:0.6;"/>
      </defs>
      <g>
       <use style="stroke:#000000;stroke-width:0.6;" x="93.060038" xlink:href="#mf8664cfa82" y="512.64"/>
      </g>
     </g>
    </g>
    <g id="xtick_8">
     <g id="line2d_14">
      <g>
       <use style="stroke:#000000;stroke-width:0.6;" x="115.363636" xlink:href="#mf8664cfa82" y="512.64"/>
      </g>
     </g>
    </g>
    <g id="xtick_9">
     <g id="line2d_15">
      <g>
       <use style="stroke:#000000;stroke-width:0.6;" x="133.587003" xlink:href="#mf8664cfa82" y="512.64"/>
      </g>
     </g>
    </g>
    <g id="xtick_10">
     <g id="line2d_16">
      <g>
       <use style="stroke:#000000;stroke-width:0.6;" x="148.99464" xlink:href="#mf8664cfa82" y="512.64"/>
      </g>
     </g>
    </g>
    <g id="xtick_11">
     <g id="line2d_17">
      <g>
       <use style="stroke:#000000;stroke-width:0.6;" x="162.341342" xlink:href="#mf8664cfa82" y="512.64"/>
      </g>
     </g>
    </g>
    <g id="xtick_12">
     <g id="line2d_18">
      <g>
       <use style="stroke:#000000;stroke-width:0.6;" x="174.113968" xlink:href="#mf8664cfa82" y="512.64"/>
      </g>
     </g>
    </g>
    <g id="xtick_13">
     <g id="line2d_19">
      <g>
       <use style="stroke:#000000;stroke-width:0.6;" x="253.926245" xlink:href="#mf8664cfa82" y="512.64"/>
      </g>
     </g>
    </g>
    <g id="xtick_14">
     <g id="line2d_20">
      <g>
       <use style="stroke:#000000;stroke-width:0.6;" x="294.45321" xlink:href="#mf8664cfa82" y="512.64"/>
      </g>
     </g>
    </g>
    <g id="xtick_15">
     <g id="line2d_21">
      <g>
       <use style="stroke:#000000;stroke-width:0.6;" x="323.207549" xlink:href="#mf8664cfa82" y="512.64"/>
      </g>
     </g>
    </g>
    <g id="xtick_16">
     <g id="line2d_22">
      <g>
       <use style="stroke:#000000;stroke-width:0.6;" x="345.511147" xlink:href="#mf8664cfa82" y="512.64"/>
      </g>
     </g>
    </g>
    <g id="xtick_17">
     <g id="line2d_23">
      <g>
       <use style="stroke:#000000;stroke-width:0.6;" x="363.734514" xlink:href="#mf8664cfa82" y="512.64"/>
      </g>
     </g>
    </g>
    <g id="xtick_18">
     <g id="line2d_24">
      <g>
       <use style="stroke:#000000;stroke-width:0.6;" x="379.142151" xlink:href="#mf8664cfa82" y="512.64"/>
      </g>
     </g>
    </g>
    <g id="xtick_19">
     <g id="line2d_25">
      <g>
       <use style="stroke:#000000;stroke-width:0.6;" x="392.488853" xlink:href="#mf8664cfa82" y="512.64"/>
      </g>
     </g>
    </g>
    <g id="xtick_20">
     <g id="line2d_26">
      <g>
       <use style="stroke:#000000;stroke-width:0.6;" x="404.261479" xlink:href="#mf8664cfa82" y="512.64"/>
      </g>
     </g>
    </g>
    <g id="xtick_21">
     <g id="line2d_27">
      <g>
       <use style="stroke:#000000;stroke-width:0.6;" x="484.073755" xlink:href="#mf8664cfa82" y="512.64"/>
      </g>
     </g>
    </g>
    <g id="xtick_22">
     <g id="line2d_28">
      <g>
       <use style="stroke:#000000;stroke-width:0.6;" x="524.60072" xlink:href="#mf8664cfa82" y="512.64"/>
      </g>
     </g>
    </g>
    <g id="xtick_23">
     <g id="line2d_29">
      <g>
       <use style="stroke:#000000;stroke-width:0.6;" x="553.355059" xlink:href="#mf8664cfa82" y="512.64"/>
      </g>
     </g>
    </g>
    <g id="xtick_24">
     <g id="line2d_30">
      <g>
       <use style="stroke:#000000;stroke-width:0.6;" x="575.658658" xlink:href="#mf8664cfa82" y="512.64"/>
      </g>
     </g>
    </g>
    <g id="xtick_25">
     <g id="line2d_31">
      <g>
       <use style="stroke:#000000;stroke-width:0.6;" x="593.882024" xlink:href="#mf8664cfa82" y="512.64"/>
      </g>
     </g>
    </g>
    <g id="xtick_26">
     <g id="line2d_32">
      <g>
       <use style="stroke:#000000;stroke-width:0.6;" x="609.289661" xlink:href="#mf8664cfa82" y="512.64"/>
      </g>
     </g>
    </g>
    <g id="xtick_27">
     <g id="line2d_33">
      <g>
       <use style="stroke:#000000;stroke-width:0.6;" x="622.636364" xlink:href="#mf8664cfa82" y="512.64"/>
      </g>
     </g>
    </g>
    <g id="xtick_28">
     <g id="line2d_34">
      <g>
       <use style="stroke:#000000;stroke-width:0.6;" x="634.408989" xlink:href="#mf8664cfa82" y="512.64"/>
      </g>
     </g>
    </g>
    <g id="text_7">
     <!-- Frequency -->
     <defs>
      <path d="M 9.8125 72.90625 
L 51.703125 72.90625 
L 51.703125 64.59375 
L 19.671875 64.59375 
L 19.671875 43.109375 
L 48.578125 43.109375 
L 48.578125 34.8125 
L 19.671875 34.8125 
L 19.671875 0 
L 9.8125 0 
z
" id="DejaVuSans-70"/>
      <path d="M 41.109375 46.296875 
Q 39.59375 47.171875 37.8125 47.578125 
Q 36.03125 48 33.890625 48 
Q 26.265625 48 22.1875 43.046875 
Q 18.109375 38.09375 18.109375 28.8125 
L 18.109375 0 
L 9.078125 0 
L 9.078125 54.6875 
L 18.109375 54.6875 
L 18.109375 46.1875 
Q 20.953125 51.171875 25.484375 53.578125 
Q 30.03125 56 36.53125 56 
Q 37.453125 56 38.578125 55.875 
Q 39.703125 55.765625 41.0625 55.515625 
z
" id="DejaVuSans-114"/>
      <path d="M 56.203125 29.59375 
L 56.203125 25.203125 
L 14.890625 25.203125 
Q 15.484375 15.921875 20.484375 11.0625 
Q 25.484375 6.203125 34.421875 6.203125 
Q 39.59375 6.203125 44.453125 7.46875 
Q 49.3125 8.734375 54.109375 11.28125 
L 54.109375 2.78125 
Q 49.265625 0.734375 44.1875 -0.34375 
Q 39.109375 -1.421875 33.890625 -1.421875 
Q 20.796875 -1.421875 13.15625 6.1875 
Q 5.515625 13.8125 5.515625 26.8125 
Q 5.515625 40.234375 12.765625 48.109375 
Q 20.015625 56 32.328125 56 
Q 43.359375 56 49.78125 48.890625 
Q 56.203125 41.796875 56.203125 29.59375 
z
M 47.21875 32.234375 
Q 47.125 39.59375 43.09375 43.984375 
Q 39.0625 48.390625 32.421875 48.390625 
Q 24.90625 48.390625 20.390625 44.140625 
Q 15.875 39.890625 15.1875 32.171875 
z
" id="DejaVuSans-101"/>
      <path d="M 14.796875 27.296875 
Q 14.796875 17.390625 18.875 11.75 
Q 22.953125 6.109375 30.078125 6.109375 
Q 37.203125 6.109375 41.296875 11.75 
Q 45.40625 17.390625 45.40625 27.296875 
Q 45.40625 37.203125 41.296875 42.84375 
Q 37.203125 48.484375 30.078125 48.484375 
Q 22.953125 48.484375 18.875 42.84375 
Q 14.796875 37.203125 14.796875 27.296875 
z
M 45.40625 8.203125 
Q 42.578125 3.328125 38.25 0.953125 
Q 33.9375 -1.421875 27.875 -1.421875 
Q 17.96875 -1.421875 11.734375 6.484375 
Q 5.515625 14.40625 5.515625 27.296875 
Q 5.515625 40.1875 11.734375 48.09375 
Q 17.96875 56 27.875 56 
Q 33.9375 56 38.25 53.625 
Q 42.578125 51.265625 45.40625 46.390625 
L 45.40625 54.6875 
L 54.390625 54.6875 
L 54.390625 -20.796875 
L 45.40625 -20.796875 
z
" id="DejaVuSans-113"/>
      <path d="M 8.5 21.578125 
L 8.5 54.6875 
L 17.484375 54.6875 
L 17.484375 21.921875 
Q 17.484375 14.15625 20.5 10.265625 
Q 23.53125 6.390625 29.59375 6.390625 
Q 36.859375 6.390625 41.078125 11.03125 
Q 45.3125 15.671875 45.3125 23.6875 
L 45.3125 54.6875 
L 54.296875 54.6875 
L 54.296875 0 
L 45.3125 0 
L 45.3125 8.40625 
Q 42.046875 3.421875 37.71875 1 
Q 33.40625 -1.421875 27.6875 -1.421875 
Q 18.265625 -1.421875 13.375 4.4375 
Q 8.5 10.296875 8.5 21.578125 
z
M 31.109375 56 
z
" id="DejaVuSans-117"/>
      <path d="M 54.890625 33.015625 
L 54.890625 0 
L 45.90625 0 
L 45.90625 32.71875 
Q 45.90625 40.484375 42.875 44.328125 
Q 39.84375 48.1875 33.796875 48.1875 
Q 26.515625 48.1875 22.3125 43.546875 
Q 18.109375 38.921875 18.109375 30.90625 
L 18.109375 0 
L 9.078125 0 
L 9.078125 54.6875 
L 18.109375 54.6875 
L 18.109375 46.1875 
Q 21.34375 51.125 25.703125 53.5625 
Q 30.078125 56 35.796875 56 
Q 45.21875 56 50.046875 50.171875 
Q 54.890625 44.34375 54.890625 33.015625 
z
" id="DejaVuSans-110"/>
      <path d="M 48.78125 52.59375 
L 48.78125 44.1875 
Q 44.96875 46.296875 41.140625 47.34375 
Q 37.3125 48.390625 33.40625 48.390625 
Q 24.65625 48.390625 19.8125 42.84375 
Q 14.984375 37.3125 14.984375 27.296875 
Q 14.984375 17.28125 19.8125 11.734375 
Q 24.65625 6.203125 33.40625 6.203125 
Q 37.3125 6.203125 41.140625 7.25 
Q 44.96875 8.296875 48.78125 10.40625 
L 48.78125 2.09375 
Q 45.015625 0.34375 40.984375 -0.53125 
Q 36.96875 -1.421875 32.421875 -1.421875 
Q 20.0625 -1.421875 12.78125 6.34375 
Q 5.515625 14.109375 5.515625 27.296875 
Q 5.515625 40.671875 12.859375 48.328125 
Q 20.21875 56 33.015625 56 
Q 37.15625 56 41.109375 55.140625 
Q 45.0625 54.296875 48.78125 52.59375 
z
" id="DejaVuSans-99"/>
      <path d="M 32.171875 -5.078125 
Q 28.375 -14.84375 24.75 -17.8125 
Q 21.140625 -20.796875 15.09375 -20.796875 
L 7.90625 -20.796875 
L 7.90625 -13.28125 
L 13.1875 -13.28125 
Q 16.890625 -13.28125 18.9375 -11.515625 
Q 21 -9.765625 23.484375 -3.21875 
L 25.09375 0.875 
L 2.984375 54.6875 
L 12.5 54.6875 
L 29.59375 11.921875 
L 46.6875 54.6875 
L 56.203125 54.6875 
z
" id="DejaVuSans-121"/>
     </defs>
     <g transform="translate(326.92375 551.2825)scale(0.16 -0.16)">
      <use xlink:href="#DejaVuSans-70"/>
      <use x="57.410156" xlink:href="#DejaVuSans-114"/>
      <use x="98.492188" xlink:href="#DejaVuSans-101"/>
      <use x="160.015625" xlink:href="#DejaVuSans-113"/>
      <use x="223.492188" xlink:href="#DejaVuSans-117"/>
      <use x="286.871094" xlink:href="#DejaVuSans-101"/>
      <use x="348.394531" xlink:href="#DejaVuSans-110"/>
      <use x="411.773438" xlink:href="#DejaVuSans-99"/>
      <use x="466.753906" xlink:href="#DejaVuSans-121"/>
     </g>
    </g>
   </g>
   <g id="matplotlib.axis_2">
    <g id="ytick_1">
     <g id="line2d_35">
      <path clip-path="url(#p71638a8e2e)" d="M 90 510.072719 
L 648 510.072719 
" style="fill:none;stroke:#b0b0b0;stroke-linecap:square;stroke-width:0.8;"/>
     </g>
     <g id="line2d_36">
      <defs>
       <path d="M 0 0 
L -3.5 0 
" id="m97219ad67b" style="stroke:#000000;stroke-width:0.8;"/>
      </defs>
      <g>
       <use style="stroke:#000000;stroke-width:0.8;" x="90" xlink:href="#m97219ad67b" y="510.072719"/>
      </g>
     </g>
     <g id="text_8">
      <!-- 0.000 -->
      <g transform="translate(37.195 516.151469)scale(0.16 -0.16)">
       <use xlink:href="#DejaVuSans-48"/>
       <use x="63.623047" xlink:href="#DejaVuSans-46"/>
       <use x="95.410156" xlink:href="#DejaVuSans-48"/>
       <use x="159.033203" xlink:href="#DejaVuSans-48"/>
       <use x="222.65625" xlink:href="#DejaVuSans-48"/>
      </g>
     </g>
    </g>
    <g id="ytick_2">
     <g id="line2d_37">
      <path clip-path="url(#p71638a8e2e)" d="M 90 454.649299 
L 648 454.649299 
" style="fill:none;stroke:#b0b0b0;stroke-linecap:square;stroke-width:0.8;"/>
     </g>
     <g id="line2d_38">
      <g>
       <use style="stroke:#000000;stroke-width:0.8;" x="90" xlink:href="#m97219ad67b" y="454.649299"/>
      </g>
     </g>
     <g id="text_9">
      <!-- 0.005 -->
      <g transform="translate(37.195 460.728049)scale(0.16 -0.16)">
       <use xlink:href="#DejaVuSans-48"/>
       <use x="63.623047" xlink:href="#DejaVuSans-46"/>
       <use x="95.410156" xlink:href="#DejaVuSans-48"/>
       <use x="159.033203" xlink:href="#DejaVuSans-48"/>
       <use x="222.65625" xlink:href="#DejaVuSans-53"/>
      </g>
     </g>
    </g>
    <g id="ytick_3">
     <g id="line2d_39">
      <path clip-path="url(#p71638a8e2e)" d="M 90 399.22588 
L 648 399.22588 
" style="fill:none;stroke:#b0b0b0;stroke-linecap:square;stroke-width:0.8;"/>
     </g>
     <g id="line2d_40">
      <g>
       <use style="stroke:#000000;stroke-width:0.8;" x="90" xlink:href="#m97219ad67b" y="399.22588"/>
      </g>
     </g>
     <g id="text_10">
      <!-- 0.010 -->
      <g transform="translate(37.195 405.30463)scale(0.16 -0.16)">
       <use xlink:href="#DejaVuSans-48"/>
       <use x="63.623047" xlink:href="#DejaVuSans-46"/>
       <use x="95.410156" xlink:href="#DejaVuSans-48"/>
       <use x="159.033203" xlink:href="#DejaVuSans-49"/>
       <use x="222.65625" xlink:href="#DejaVuSans-48"/>
      </g>
     </g>
    </g>
    <g id="ytick_4">
     <g id="line2d_41">
      <path clip-path="url(#p71638a8e2e)" d="M 90 343.80246 
L 648 343.80246 
" style="fill:none;stroke:#b0b0b0;stroke-linecap:square;stroke-width:0.8;"/>
     </g>
     <g id="line2d_42">
      <g>
       <use style="stroke:#000000;stroke-width:0.8;" x="90" xlink:href="#m97219ad67b" y="343.80246"/>
      </g>
     </g>
     <g id="text_11">
      <!-- 0.015 -->
      <g transform="translate(37.195 349.88121)scale(0.16 -0.16)">
       <use xlink:href="#DejaVuSans-48"/>
       <use x="63.623047" xlink:href="#DejaVuSans-46"/>
       <use x="95.410156" xlink:href="#DejaVuSans-48"/>
       <use x="159.033203" xlink:href="#DejaVuSans-49"/>
       <use x="222.65625" xlink:href="#DejaVuSans-53"/>
      </g>
     </g>
    </g>
    <g id="ytick_5">
     <g id="line2d_43">
      <path clip-path="url(#p71638a8e2e)" d="M 90 288.37904 
L 648 288.37904 
" style="fill:none;stroke:#b0b0b0;stroke-linecap:square;stroke-width:0.8;"/>
     </g>
     <g id="line2d_44">
      <g>
       <use style="stroke:#000000;stroke-width:0.8;" x="90" xlink:href="#m97219ad67b" y="288.37904"/>
      </g>
     </g>
     <g id="text_12">
      <!-- 0.020 -->
      <defs>
       <path d="M 19.1875 8.296875 
L 53.609375 8.296875 
L 53.609375 0 
L 7.328125 0 
L 7.328125 8.296875 
Q 12.9375 14.109375 22.625 23.890625 
Q 32.328125 33.6875 34.8125 36.53125 
Q 39.546875 41.84375 41.421875 45.53125 
Q 43.3125 49.21875 43.3125 52.78125 
Q 43.3125 58.59375 39.234375 62.25 
Q 35.15625 65.921875 28.609375 65.921875 
Q 23.96875 65.921875 18.8125 64.3125 
Q 13.671875 62.703125 7.8125 59.421875 
L 7.8125 69.390625 
Q 13.765625 71.78125 18.9375 73 
Q 24.125 74.21875 28.421875 74.21875 
Q 39.75 74.21875 46.484375 68.546875 
Q 53.21875 62.890625 53.21875 53.421875 
Q 53.21875 48.921875 51.53125 44.890625 
Q 49.859375 40.875 45.40625 35.40625 
Q 44.1875 33.984375 37.640625 27.21875 
Q 31.109375 20.453125 19.1875 8.296875 
z
" id="DejaVuSans-50"/>
      </defs>
      <g transform="translate(37.195 294.45779)scale(0.16 -0.16)">
       <use xlink:href="#DejaVuSans-48"/>
       <use x="63.623047" xlink:href="#DejaVuSans-46"/>
       <use x="95.410156" xlink:href="#DejaVuSans-48"/>
       <use x="159.033203" xlink:href="#DejaVuSans-50"/>
       <use x="222.65625" xlink:href="#DejaVuSans-48"/>
      </g>
     </g>
    </g>
    <g id="ytick_6">
     <g id="line2d_45">
      <path clip-path="url(#p71638a8e2e)" d="M 90 232.955621 
L 648 232.955621 
" style="fill:none;stroke:#b0b0b0;stroke-linecap:square;stroke-width:0.8;"/>
     </g>
     <g id="line2d_46">
      <g>
       <use style="stroke:#000000;stroke-width:0.8;" x="90" xlink:href="#m97219ad67b" y="232.955621"/>
      </g>
     </g>
     <g id="text_13">
      <!-- 0.025 -->
      <g transform="translate(37.195 239.034371)scale(0.16 -0.16)">
       <use xlink:href="#DejaVuSans-48"/>
       <use x="63.623047" xlink:href="#DejaVuSans-46"/>
       <use x="95.410156" xlink:href="#DejaVuSans-48"/>
       <use x="159.033203" xlink:href="#DejaVuSans-50"/>
       <use x="222.65625" xlink:href="#DejaVuSans-53"/>
      </g>
     </g>
    </g>
    <g id="ytick_7">
     <g id="line2d_47">
      <path clip-path="url(#p71638a8e2e)" d="M 90 177.532201 
L 648 177.532201 
" style="fill:none;stroke:#b0b0b0;stroke-linecap:square;stroke-width:0.8;"/>
     </g>
     <g id="line2d_48">
      <g>
       <use style="stroke:#000000;stroke-width:0.8;" x="90" xlink:href="#m97219ad67b" y="177.532201"/>
      </g>
     </g>
     <g id="text_14">
      <!-- 0.030 -->
      <g transform="translate(37.195 183.610951)scale(0.16 -0.16)">
       <use xlink:href="#DejaVuSans-48"/>
       <use x="63.623047" xlink:href="#DejaVuSans-46"/>
       <use x="95.410156" xlink:href="#DejaVuSans-48"/>
       <use x="159.033203" xlink:href="#DejaVuSans-51"/>
       <use x="222.65625" xlink:href="#DejaVuSans-48"/>
      </g>
     </g>
    </g>
    <g id="ytick_8">
     <g id="line2d_49">
      <path clip-path="url(#p71638a8e2e)" d="M 90 122.108781 
L 648 122.108781 
" style="fill:none;stroke:#b0b0b0;stroke-linecap:square;stroke-width:0.8;"/>
     </g>
     <g id="line2d_50">
      <g>
       <use style="stroke:#000000;stroke-width:0.8;" x="90" xlink:href="#m97219ad67b" y="122.108781"/>
      </g>
     </g>
     <g id="text_15">
      <!-- 0.035 -->
      <g transform="translate(37.195 128.187531)scale(0.16 -0.16)">
       <use xlink:href="#DejaVuSans-48"/>
       <use x="63.623047" xlink:href="#DejaVuSans-46"/>
       <use x="95.410156" xlink:href="#DejaVuSans-48"/>
       <use x="159.033203" xlink:href="#DejaVuSans-51"/>
       <use x="222.65625" xlink:href="#DejaVuSans-53"/>
      </g>
     </g>
    </g>
    <g id="text_16">
     <!-- Normalized spectral density -->
     <defs>
      <path d="M 9.8125 72.90625 
L 23.09375 72.90625 
L 55.421875 11.921875 
L 55.421875 72.90625 
L 64.984375 72.90625 
L 64.984375 0 
L 51.703125 0 
L 19.390625 60.984375 
L 19.390625 0 
L 9.8125 0 
z
" id="DejaVuSans-78"/>
      <path d="M 30.609375 48.390625 
Q 23.390625 48.390625 19.1875 42.75 
Q 14.984375 37.109375 14.984375 27.296875 
Q 14.984375 17.484375 19.15625 11.84375 
Q 23.34375 6.203125 30.609375 6.203125 
Q 37.796875 6.203125 41.984375 11.859375 
Q 46.1875 17.53125 46.1875 27.296875 
Q 46.1875 37.015625 41.984375 42.703125 
Q 37.796875 48.390625 30.609375 48.390625 
z
M 30.609375 56 
Q 42.328125 56 49.015625 48.375 
Q 55.71875 40.765625 55.71875 27.296875 
Q 55.71875 13.875 49.015625 6.21875 
Q 42.328125 -1.421875 30.609375 -1.421875 
Q 18.84375 -1.421875 12.171875 6.21875 
Q 5.515625 13.875 5.515625 27.296875 
Q 5.515625 40.765625 12.171875 48.375 
Q 18.84375 56 30.609375 56 
z
" id="DejaVuSans-111"/>
      <path d="M 52 44.1875 
Q 55.375 50.25 60.0625 53.125 
Q 64.75 56 71.09375 56 
Q 79.640625 56 84.28125 50.015625 
Q 88.921875 44.046875 88.921875 33.015625 
L 88.921875 0 
L 79.890625 0 
L 79.890625 32.71875 
Q 79.890625 40.578125 77.09375 44.375 
Q 74.3125 48.1875 68.609375 48.1875 
Q 61.625 48.1875 57.5625 43.546875 
Q 53.515625 38.921875 53.515625 30.90625 
L 53.515625 0 
L 44.484375 0 
L 44.484375 32.71875 
Q 44.484375 40.625 41.703125 44.40625 
Q 38.921875 48.1875 33.109375 48.1875 
Q 26.21875 48.1875 22.15625 43.53125 
Q 18.109375 38.875 18.109375 30.90625 
L 18.109375 0 
L 9.078125 0 
L 9.078125 54.6875 
L 18.109375 54.6875 
L 18.109375 46.1875 
Q 21.1875 51.21875 25.484375 53.609375 
Q 29.78125 56 35.6875 56 
Q 41.65625 56 45.828125 52.96875 
Q 50 49.953125 52 44.1875 
z
" id="DejaVuSans-109"/>
      <path d="M 34.28125 27.484375 
Q 23.390625 27.484375 19.1875 25 
Q 14.984375 22.515625 14.984375 16.5 
Q 14.984375 11.71875 18.140625 8.90625 
Q 21.296875 6.109375 26.703125 6.109375 
Q 34.1875 6.109375 38.703125 11.40625 
Q 43.21875 16.703125 43.21875 25.484375 
L 43.21875 27.484375 
z
M 52.203125 31.203125 
L 52.203125 0 
L 43.21875 0 
L 43.21875 8.296875 
Q 40.140625 3.328125 35.546875 0.953125 
Q 30.953125 -1.421875 24.3125 -1.421875 
Q 15.921875 -1.421875 10.953125 3.296875 
Q 6 8.015625 6 15.921875 
Q 6 25.140625 12.171875 29.828125 
Q 18.359375 34.515625 30.609375 34.515625 
L 43.21875 34.515625 
L 43.21875 35.40625 
Q 43.21875 41.609375 39.140625 45 
Q 35.0625 48.390625 27.6875 48.390625 
Q 23 48.390625 18.546875 47.265625 
Q 14.109375 46.140625 10.015625 43.890625 
L 10.015625 52.203125 
Q 14.9375 54.109375 19.578125 55.046875 
Q 24.21875 56 28.609375 56 
Q 40.484375 56 46.34375 49.84375 
Q 52.203125 43.703125 52.203125 31.203125 
z
" id="DejaVuSans-97"/>
      <path d="M 9.421875 75.984375 
L 18.40625 75.984375 
L 18.40625 0 
L 9.421875 0 
z
" id="DejaVuSans-108"/>
      <path d="M 9.421875 54.6875 
L 18.40625 54.6875 
L 18.40625 0 
L 9.421875 0 
z
M 9.421875 75.984375 
L 18.40625 75.984375 
L 18.40625 64.59375 
L 9.421875 64.59375 
z
" id="DejaVuSans-105"/>
      <path d="M 5.515625 54.6875 
L 48.1875 54.6875 
L 48.1875 46.484375 
L 14.40625 7.171875 
L 48.1875 7.171875 
L 48.1875 0 
L 4.296875 0 
L 4.296875 8.203125 
L 38.09375 47.515625 
L 5.515625 47.515625 
z
" id="DejaVuSans-122"/>
      <path d="M 45.40625 46.390625 
L 45.40625 75.984375 
L 54.390625 75.984375 
L 54.390625 0 
L 45.40625 0 
L 45.40625 8.203125 
Q 42.578125 3.328125 38.25 0.953125 
Q 33.9375 -1.421875 27.875 -1.421875 
Q 17.96875 -1.421875 11.734375 6.484375 
Q 5.515625 14.40625 5.515625 27.296875 
Q 5.515625 40.1875 11.734375 48.09375 
Q 17.96875 56 27.875 56 
Q 33.9375 56 38.25 53.625 
Q 42.578125 51.265625 45.40625 46.390625 
z
M 14.796875 27.296875 
Q 14.796875 17.390625 18.875 11.75 
Q 22.953125 6.109375 30.078125 6.109375 
Q 37.203125 6.109375 41.296875 11.75 
Q 45.40625 17.390625 45.40625 27.296875 
Q 45.40625 37.203125 41.296875 42.84375 
Q 37.203125 48.484375 30.078125 48.484375 
Q 22.953125 48.484375 18.875 42.84375 
Q 14.796875 37.203125 14.796875 27.296875 
z
" id="DejaVuSans-100"/>
      <path id="DejaVuSans-32"/>
      <path d="M 44.28125 53.078125 
L 44.28125 44.578125 
Q 40.484375 46.53125 36.375 47.5 
Q 32.28125 48.484375 27.875 48.484375 
Q 21.1875 48.484375 17.84375 46.4375 
Q 14.5 44.390625 14.5 40.28125 
Q 14.5 37.15625 16.890625 35.375 
Q 19.28125 33.59375 26.515625 31.984375 
L 29.59375 31.296875 
Q 39.15625 29.25 43.1875 25.515625 
Q 47.21875 21.78125 47.21875 15.09375 
Q 47.21875 7.46875 41.1875 3.015625 
Q 35.15625 -1.421875 24.609375 -1.421875 
Q 20.21875 -1.421875 15.453125 -0.5625 
Q 10.6875 0.296875 5.421875 2 
L 5.421875 11.28125 
Q 10.40625 8.6875 15.234375 7.390625 
Q 20.0625 6.109375 24.8125 6.109375 
Q 31.15625 6.109375 34.5625 8.28125 
Q 37.984375 10.453125 37.984375 14.40625 
Q 37.984375 18.0625 35.515625 20.015625 
Q 33.0625 21.96875 24.703125 23.78125 
L 21.578125 24.515625 
Q 13.234375 26.265625 9.515625 29.90625 
Q 5.8125 33.546875 5.8125 39.890625 
Q 5.8125 47.609375 11.28125 51.796875 
Q 16.75 56 26.8125 56 
Q 31.78125 56 36.171875 55.265625 
Q 40.578125 54.546875 44.28125 53.078125 
z
" id="DejaVuSans-115"/>
      <path d="M 18.109375 8.203125 
L 18.109375 -20.796875 
L 9.078125 -20.796875 
L 9.078125 54.6875 
L 18.109375 54.6875 
L 18.109375 46.390625 
Q 20.953125 51.265625 25.265625 53.625 
Q 29.59375 56 35.59375 56 
Q 45.5625 56 51.78125 48.09375 
Q 58.015625 40.1875 58.015625 27.296875 
Q 58.015625 14.40625 51.78125 6.484375 
Q 45.5625 -1.421875 35.59375 -1.421875 
Q 29.59375 -1.421875 25.265625 0.953125 
Q 20.953125 3.328125 18.109375 8.203125 
z
M 48.6875 27.296875 
Q 48.6875 37.203125 44.609375 42.84375 
Q 40.53125 48.484375 33.40625 48.484375 
Q 26.265625 48.484375 22.1875 42.84375 
Q 18.109375 37.203125 18.109375 27.296875 
Q 18.109375 17.390625 22.1875 11.75 
Q 26.265625 6.109375 33.40625 6.109375 
Q 40.53125 6.109375 44.609375 11.75 
Q 48.6875 17.390625 48.6875 27.296875 
z
" id="DejaVuSans-112"/>
      <path d="M 18.3125 70.21875 
L 18.3125 54.6875 
L 36.8125 54.6875 
L 36.8125 47.703125 
L 18.3125 47.703125 
L 18.3125 18.015625 
Q 18.3125 11.328125 20.140625 9.421875 
Q 21.96875 7.515625 27.59375 7.515625 
L 36.8125 7.515625 
L 36.8125 0 
L 27.59375 0 
Q 17.1875 0 13.234375 3.875 
Q 9.28125 7.765625 9.28125 18.015625 
L 9.28125 47.703125 
L 2.6875 47.703125 
L 2.6875 54.6875 
L 9.28125 54.6875 
L 9.28125 70.21875 
z
" id="DejaVuSans-116"/>
     </defs>
     <g transform="translate(29.8675 402.9225)rotate(-90)scale(0.16 -0.16)">
      <use xlink:href="#DejaVuSans-78"/>
      <use x="74.804688" xlink:href="#DejaVuSans-111"/>
      <use x="135.986328" xlink:href="#DejaVuSans-114"/>
      <use x="177.083984" xlink:href="#DejaVuSans-109"/>
      <use x="274.496094" xlink:href="#DejaVuSans-97"/>
      <use x="335.775391" xlink:href="#DejaVuSans-108"/>
      <use x="363.558594" xlink:href="#DejaVuSans-105"/>
      <use x="391.341797" xlink:href="#DejaVuSans-122"/>
      <use x="443.832031" xlink:href="#DejaVuSans-101"/>
      <use x="505.355469" xlink:href="#DejaVuSans-100"/>
      <use x="568.832031" xlink:href="#DejaVuSans-32"/>
      <use x="600.619141" xlink:href="#DejaVuSans-115"/>
      <use x="652.71875" xlink:href="#DejaVuSans-112"/>
      <use x="716.195312" xlink:href="#DejaVuSans-101"/>
      <use x="777.71875" xlink:href="#DejaVuSans-99"/>
      <use x="832.699219" xlink:href="#DejaVuSans-116"/>
      <use x="871.908203" xlink:href="#DejaVuSans-114"/>
      <use x="913.021484" xlink:href="#DejaVuSans-97"/>
      <use x="974.300781" xlink:href="#DejaVuSans-108"/>
      <use x="1002.083984" xlink:href="#DejaVuSans-32"/>
      <use x="1033.871094" xlink:href="#DejaVuSans-100"/>
      <use x="1097.347656" xlink:href="#DejaVuSans-101"/>
      <use x="1158.871094" xlink:href="#DejaVuSans-110"/>
      <use x="1222.25" xlink:href="#DejaVuSans-115"/>
      <use x="1274.349609" xlink:href="#DejaVuSans-105"/>
      <use x="1302.132812" xlink:href="#DejaVuSans-116"/>
      <use x="1341.341797" xlink:href="#DejaVuSans-121"/>
     </g>
    </g>
   </g>
   <g id="line2d_51">
    <path clip-path="url(#p71638a8e2e)" d="M 115.363636 311.065907 
L 184.644941 129.821523 
L 225.171905 148.823769 
L 253.926245 227.990842 
L 276.229843 263.616091 
L 294.45321 289.384392 
L 309.860847 314.221168 
L 323.207549 328.522935 
L 334.980175 342.292649 
L 345.511147 352.383129 
L 355.037571 355.165417 
L 363.734514 356.668946 
L 371.734926 361.268679 
L 379.142151 361.682514 
L 386.038112 365.251913 
L 392.488853 373.873298 
L 398.548393 380.082917 
L 404.261479 385.166012 
L 409.665594 387.723227 
L 414.792451 391.284013 
L 419.669116 391.904943 
L 424.318875 395.184734 
L 428.761908 403.421577 
L 433.015818 411.014491 
L 437.096049 418.056068 
L 444.788444 426.849702 
L 448.423455 427.914049 
L 451.930895 429.936213 
L 455.319416 431.011383 
L 458.596818 431.553922 
L 461.770157 432.948002 
L 473.542783 433.965068 
L 476.281359 435.555702 
L 478.946899 436.908925 
L 484.073755 437.604159 
L 486.541826 437.884378 
L 488.95042 439.257912 
L 493.600179 440.658028 
L 498.043212 443.032253 
L 500.192796 443.410316 
L 502.297122 443.938913 
L 504.358057 444.719498 
L 506.377354 446.628752 
L 508.356662 447.510237 
L 510.297534 447.357683 
L 512.201435 448.292979 
L 514.069748 448.635564 
L 515.903777 450.108899 
L 517.704759 451.072836 
L 519.473863 451.657214 
L 521.212199 452.362907 
L 522.920819 453.425826 
L 524.60072 453.88441 
L 526.252854 455.139567 
L 527.878122 455.737301 
L 529.477385 455.893173 
L 531.051461 456.941529 
L 532.601132 458.381462 
L 534.127144 459.305666 
L 537.111001 459.788216 
L 538.570177 460.79153 
L 540.008357 461.364061 
L 541.426137 461.278278 
L 542.824087 461.719666 
L 544.202754 462.539487 
L 545.562664 463.062945 
L 546.904319 463.070056 
L 548.228203 463.750346 
L 549.534781 463.95148 
L 550.824499 464.532855 
L 552.097788 464.750853 
L 555.82313 464.796799 
L 557.034682 465.228659 
L 558.231724 465.286366 
L 560.583639 465.848517 
L 564.010894 466.06927 
L 565.127685 466.579898 
L 566.232136 466.442415 
L 570.531801 467.271731 
L 571.578426 467.114604 
L 572.614205 467.986846 
L 573.639361 470.225823 
L 574.654109 478.341414 
L 575.658658 488.64341 
L 576.653211 478.031573 
L 577.637966 470.835492 
L 578.613113 468.595679 
L 579.578838 467.890499 
L 580.535322 467.66487 
L 581.48274 467.634715 
L 583.351052 468.089846 
L 584.272273 467.017587 
L 585.185081 467.879583 
L 586.089628 468.302108 
L 587.874529 468.493621 
L 588.755168 468.396 
L 590.493504 469.363618 
L 591.351464 469.414 
L 592.202123 469.211424 
L 593.045603 469.659972 
L 593.882024 469.499076 
L 594.711505 469.749556 
L 595.534158 469.277532 
L 596.350095 469.59527 
L 597.962256 469.827245 
L 598.758689 470.220052 
L 599.548826 469.707897 
L 600.332765 470.166974 
L 601.110604 470.350961 
L 601.882437 470.126255 
L 603.408448 470.392527 
L 604.162805 470.353614 
L 604.911511 470.547157 
L 605.65465 470.562323 
L 606.392305 470.765544 
L 607.124556 471.219698 
L 607.851481 471.013425 
L 608.573158 471.226896 
L 609.289661 471.151163 
L 610.001065 471.55466 
L 610.707441 471.663798 
L 612.105391 470.803215 
L 612.797102 470.803533 
L 613.484058 471.348868 
L 614.166326 471.361058 
L 615.517046 471.685597 
L 616.185623 471.576014 
L 617.509507 471.952229 
L 618.164931 471.910805 
L 618.816085 471.454721 
L 619.463024 471.586174 
L 620.105803 471.833158 
L 620.744475 471.720235 
L 621.379092 471.879753 
L 622.009705 472.51415 
L 622.636364 478.017833 
L 622.636364 478.017833 
" style="fill:none;stroke:#1f77b4;stroke-linecap:square;stroke-opacity:0.5;stroke-width:1.5;"/>
   </g>
   <g id="line2d_52">
    <path clip-path="url(#p71638a8e2e)" d="M 115.363636 376.854703 
L 184.644941 250.638348 
L 225.171905 258.261211 
L 253.926245 307.237734 
L 276.229843 331.737315 
L 294.45321 349.272406 
L 309.860847 363.524829 
L 323.207549 373.406038 
L 334.980175 380.918087 
L 345.511147 384.533559 
L 355.037571 391.026243 
L 363.734514 394.900999 
L 371.734926 394.337006 
L 379.142151 390.776894 
L 386.038112 388.224017 
L 392.488853 382.101888 
L 398.548393 370.04182 
L 404.261479 340.457454 
L 409.665594 296.89951 
L 414.792451 236.644424 
L 419.669116 195.282732 
L 424.318875 208.988478 
L 428.761908 253.153791 
L 433.015818 316.771134 
L 437.096049 359.578692 
L 441.01623 391.984484 
L 444.788444 408.603855 
L 448.423455 416.23997 
L 451.930895 423.22154 
L 455.319416 426.290355 
L 458.596818 427.250675 
L 461.770157 427.950415 
L 464.84584 430.184653 
L 467.829697 429.728868 
L 470.727053 429.583438 
L 473.542783 428.768124 
L 476.281359 426.582493 
L 478.946899 424.946265 
L 481.543195 422.754648 
L 484.073755 421.844825 
L 486.541826 424.699466 
L 488.95042 422.822675 
L 491.302335 425.07062 
L 493.600179 430.06645 
L 495.846381 433.347843 
L 498.043212 438.393527 
L 500.192796 444.283921 
L 502.297122 446.663993 
L 504.358057 449.862641 
L 506.377354 452.208981 
L 508.356662 453.917347 
L 510.297534 454.707106 
L 512.201435 456.01204 
L 514.069748 456.266791 
L 517.704759 457.888944 
L 519.473863 459.081762 
L 521.212199 458.967142 
L 522.920819 459.381012 
L 524.60072 459.126059 
L 526.252854 460.266448 
L 531.051461 462.318901 
L 532.601132 462.982 
L 534.127144 462.749484 
L 535.630207 462.832612 
L 537.111001 462.619655 
L 540.008357 464.571082 
L 541.426137 466.262987 
L 542.824087 466.096707 
L 544.202754 466.530356 
L 545.562664 466.589217 
L 546.904319 467.137996 
L 548.228203 467.136104 
L 549.534781 466.754515 
L 552.097788 467.644093 
L 553.355059 468.247212 
L 554.596713 468.537871 
L 557.034682 468.734327 
L 558.231724 468.458535 
L 559.414599 468.787558 
L 561.739164 468.968819 
L 564.010894 468.958688 
L 565.127685 469.473306 
L 566.232136 469.280277 
L 567.324516 469.250359 
L 568.405087 469.361825 
L 569.4741 469.124876 
L 570.531801 469.399484 
L 571.578426 470.160388 
L 573.639361 473.252778 
L 574.654109 479.892165 
L 575.658658 489.563742 
L 576.653211 479.951971 
L 577.637966 473.310824 
L 578.613113 472.078993 
L 579.578838 471.47151 
L 580.535322 471.375242 
L 581.48274 471.945899 
L 582.421261 471.750839 
L 583.351052 471.799939 
L 584.272273 471.188256 
L 585.185081 472.123926 
L 586.089628 472.539255 
L 587.874529 472.927341 
L 588.755168 473.420346 
L 589.628115 473.070002 
L 590.493504 473.448612 
L 591.351464 473.313211 
L 592.202123 473.731854 
L 593.045603 473.597511 
L 593.882024 473.150979 
L 594.711505 473.493427 
L 595.534158 473.687952 
L 596.350095 473.401878 
L 597.159426 473.570648 
L 597.962256 474.226536 
L 598.758689 473.847839 
L 599.548826 473.151153 
L 600.332765 474.193167 
L 601.110604 474.379692 
L 601.882437 474.066727 
L 602.648355 474.676231 
L 604.162805 474.413295 
L 604.911511 474.417997 
L 605.65465 473.986414 
L 606.392305 474.227426 
L 607.124556 474.7495 
L 607.851481 474.733405 
L 610.001065 475.08956 
L 610.707441 474.975808 
L 611.40886 475.220181 
L 612.105391 476.035445 
L 612.797102 475.037517 
L 613.484058 475.136952 
L 614.166326 475.741707 
L 614.843968 475.842445 
L 615.517046 476.235342 
L 616.185623 475.870057 
L 616.849757 476.223518 
L 617.509507 476.445424 
L 618.816085 476.192286 
L 619.463024 475.94683 
L 620.744475 476.455498 
L 621.379092 477.05708 
L 622.009705 476.889454 
L 622.636364 481.662189 
L 622.636364 481.662189 
" style="fill:none;stroke:#ff7f0e;stroke-linecap:square;stroke-opacity:0.5;stroke-width:1.5;"/>
   </g>
   <g id="line2d_53">
    <path clip-path="url(#p71638a8e2e)" d="M 115.363636 415.678053 
L 184.644941 303.812592 
L 225.171905 302.953079 
L 253.926245 344.932639 
L 276.229843 369.022798 
L 294.45321 387.556461 
L 309.860847 401.282951 
L 323.207549 409.545238 
L 334.980175 416.060807 
L 345.511147 423.239036 
L 355.037571 427.498962 
L 363.734514 429.547191 
L 371.734926 431.188556 
L 379.142151 428.311846 
L 386.038112 423.464004 
L 398.548393 426.75509 
L 404.261479 427.876649 
L 409.665594 427.833858 
L 419.669116 428.417889 
L 424.318875 428.913518 
L 433.015818 433.084135 
L 437.096049 433.659074 
L 444.788444 436.185384 
L 448.423455 437.565942 
L 455.319416 439.130399 
L 458.596818 440.310426 
L 461.770157 440.687222 
L 464.84584 439.284529 
L 467.829697 438.09611 
L 470.727053 438.3089 
L 473.542783 438.294547 
L 476.281359 437.349738 
L 478.946899 437.252375 
L 481.543195 435.449295 
L 484.073755 435.624616 
L 486.541826 437.363656 
L 488.95042 435.676044 
L 491.302335 434.841573 
L 493.600179 435.594242 
L 495.846381 434.834691 
L 498.043212 435.602098 
L 500.192796 435.306496 
L 502.297122 435.524126 
L 504.358057 437.166589 
L 506.377354 437.476036 
L 508.356662 437.219061 
L 510.297534 439.034799 
L 514.069748 438.449258 
L 515.903777 439.970393 
L 517.704759 440.590272 
L 519.473863 440.275464 
L 521.212199 441.560685 
L 522.920819 441.675124 
L 524.60072 442.573463 
L 526.252854 442.793618 
L 527.878122 443.661641 
L 531.051461 444.126727 
L 532.601132 444.512796 
L 534.127144 445.263445 
L 535.630207 444.935631 
L 537.111001 444.391328 
L 538.570177 444.928616 
L 540.008357 445.790002 
L 541.426137 445.885161 
L 542.824087 446.185921 
L 544.202754 446.748268 
L 546.904319 446.160294 
L 548.228203 446.427748 
L 550.824499 446.511949 
L 552.097788 446.416114 
L 553.355059 446.037007 
L 554.596713 446.095508 
L 555.82313 446.805245 
L 557.034682 446.000515 
L 558.231724 445.953876 
L 559.414599 445.784266 
L 560.583639 446.139011 
L 561.739164 446.674056 
L 562.881483 446.709825 
L 564.010894 445.583008 
L 566.232136 446.563753 
L 567.324516 446.863483 
L 568.405087 445.896212 
L 569.4741 446.098186 
L 570.531801 446.900572 
L 571.578426 447.860017 
L 572.614205 448.58739 
L 573.639361 452.046832 
L 574.654109 464.154945 
L 575.658658 481.077904 
L 576.653211 464.313697 
L 577.637966 452.345273 
L 578.613113 449.590365 
L 580.535322 448.689629 
L 581.48274 448.509304 
L 582.421261 447.366922 
L 583.351052 448.062771 
L 584.272273 447.801427 
L 585.185081 449.056117 
L 586.089628 450.088457 
L 586.986063 450.071365 
L 588.755168 450.404151 
L 590.493504 450.053786 
L 591.351464 451.047238 
L 592.202123 450.779168 
L 593.045603 451.455568 
L 593.882024 451.234836 
L 594.711505 451.61364 
L 595.534158 451.44296 
L 596.350095 452.170923 
L 597.159426 452.721148 
L 597.962256 453.030295 
L 598.758689 452.375374 
L 599.548826 452.582288 
L 600.332765 453.763983 
L 601.110604 453.132756 
L 601.882437 452.664097 
L 602.648355 452.682883 
L 603.408448 454.138019 
L 604.162805 453.827028 
L 604.911511 454.123406 
L 606.392305 455.514699 
L 607.851481 454.165677 
L 608.573158 455.05701 
L 609.289661 455.258077 
L 610.001065 455.209487 
L 610.707441 455.429101 
L 611.40886 455.456282 
L 612.105391 455.695936 
L 612.797102 455.03254 
L 613.484058 455.692543 
L 614.166326 457.42433 
L 614.843968 457.556051 
L 615.517046 457.108483 
L 616.185623 456.801785 
L 616.849757 457.072341 
L 617.509507 456.424211 
L 618.164931 456.403953 
L 618.816085 457.511278 
L 619.463024 458.065913 
L 620.105803 457.540657 
L 620.744475 457.800736 
L 621.379092 459.022423 
L 622.009705 459.064199 
L 622.636364 467.459399 
L 622.636364 467.459399 
" style="fill:none;stroke:#2ca02c;stroke-linecap:square;stroke-opacity:0.5;stroke-width:1.5;"/>
   </g>
   <g id="line2d_54">
    <path clip-path="url(#p71638a8e2e)" d="M 115.363636 339.894718 
L 184.644941 184.509982 
L 225.171905 197.433628 
L 253.926245 253.922262 
L 276.229843 284.490453 
L 294.45321 308.807967 
L 309.860847 322.05578 
L 323.207549 334.911882 
L 334.980175 347.604705 
L 345.511147 353.144628 
L 355.037571 359.259239 
L 363.734514 360.660572 
L 379.142151 355.887152 
L 386.038112 353.193042 
L 392.488853 354.119857 
L 398.548393 351.829627 
L 404.261479 340.064531 
L 409.665594 335.137872 
L 414.792451 329.577855 
L 419.669116 327.644893 
L 424.318875 335.461351 
L 428.761908 352.011095 
L 433.015818 372.267646 
L 437.096049 388.290894 
L 441.01623 400.124173 
L 444.788444 407.329529 
L 448.423455 413.170635 
L 455.319416 417.396903 
L 458.596818 418.266261 
L 461.770157 419.313826 
L 464.84584 417.784978 
L 467.829697 417.247151 
L 470.727053 416.418135 
L 473.542783 416.71785 
L 476.281359 418.13838 
L 481.543195 421.33056 
L 484.073755 422.838909 
L 486.541826 425.481826 
L 488.95042 426.316796 
L 491.302335 427.599995 
L 493.600179 429.952969 
L 495.846381 431.577215 
L 500.192796 438.026257 
L 502.297122 440.314206 
L 504.358057 443.113007 
L 506.377354 445.098578 
L 508.356662 446.305211 
L 510.297534 448.173606 
L 512.201435 449.284209 
L 514.069748 449.830585 
L 515.903777 450.596907 
L 517.704759 451.697351 
L 519.473863 452.276836 
L 521.212199 453.425649 
L 522.920819 454.93937 
L 524.60072 456.175345 
L 526.252854 457.754911 
L 527.878122 458.910497 
L 529.477385 459.472265 
L 534.127144 462.44309 
L 535.630207 463.078484 
L 537.111001 464.080213 
L 540.008357 465.527954 
L 542.824087 467.220955 
L 544.202754 467.624181 
L 545.562664 468.726279 
L 548.228203 469.17617 
L 549.534781 469.915024 
L 550.824499 470.294945 
L 552.097788 470.444366 
L 554.596713 471.059214 
L 557.034682 471.093599 
L 558.231724 471.561723 
L 559.414599 471.789743 
L 560.583639 472.238684 
L 561.739164 471.873462 
L 562.881483 471.658839 
L 564.010894 472.320992 
L 565.127685 472.497244 
L 567.324516 472.374901 
L 568.405087 473.018685 
L 570.531801 473.357179 
L 572.614205 474.321341 
L 573.639361 476.045794 
L 574.654109 482.621026 
L 575.658658 492.48 
L 576.653211 483.562827 
L 577.637966 477.189435 
L 578.613113 475.228062 
L 579.578838 474.641864 
L 580.535322 474.378443 
L 581.48274 474.402203 
L 582.421261 474.710359 
L 583.351052 474.829182 
L 584.272273 474.242225 
L 585.185081 474.967569 
L 586.089628 475.223459 
L 586.986063 475.105745 
L 587.874529 475.774639 
L 588.755168 475.625624 
L 589.628115 475.770924 
L 590.493504 476.435905 
L 591.351464 476.185125 
L 592.202123 476.403323 
L 593.045603 476.401176 
L 594.711505 476.756803 
L 597.159426 477.242542 
L 597.962256 477.159606 
L 598.758689 476.833279 
L 599.548826 477.083564 
L 600.332765 477.493874 
L 601.110604 476.986474 
L 602.648355 477.773236 
L 603.408448 477.995646 
L 605.65465 478.161034 
L 606.392305 478.51397 
L 607.124556 478.657713 
L 609.289661 478.177037 
L 610.001065 478.742032 
L 611.40886 478.961908 
L 612.105391 478.815548 
L 612.797102 478.837944 
L 613.484058 479.140322 
L 615.517046 479.430313 
L 616.185623 479.900931 
L 616.849757 479.671279 
L 617.509507 479.726364 
L 618.164931 479.653563 
L 618.816085 479.740683 
L 619.463024 480.154077 
L 620.105803 480.285678 
L 620.744475 479.784046 
L 621.379092 479.789958 
L 622.009705 480.428221 
L 622.636364 484.361367 
L 622.636364 484.361367 
" style="fill:none;stroke:#d62728;stroke-linecap:square;stroke-opacity:0.5;stroke-width:1.5;"/>
   </g>
   <g id="line2d_55">
    <path clip-path="url(#p71638a8e2e)" d="M 115.363636 361.567028 
L 184.644941 222.867972 
L 225.171905 240.836325 
L 253.926245 293.586268 
L 276.229843 323.636084 
L 294.45321 345.345074 
L 309.860847 359.04254 
L 323.207549 371.750845 
L 334.980175 380.927066 
L 345.511147 389.313853 
L 355.037571 394.231102 
L 363.734514 396.37138 
L 371.734926 393.657212 
L 379.142151 390.96274 
L 386.038112 385.637724 
L 392.488853 386.254243 
L 398.548393 383.543324 
L 404.261479 379.324699 
L 414.792451 375.910459 
L 419.669116 386.574697 
L 424.318875 396.211028 
L 428.761908 404.198936 
L 433.015818 414.929795 
L 437.096049 421.167145 
L 441.01623 426.13886 
L 444.788444 430.241166 
L 448.423455 431.98669 
L 451.930895 434.349082 
L 455.319416 435.411067 
L 461.770157 436.531994 
L 464.84584 437.475945 
L 467.829697 436.833523 
L 470.727053 436.856481 
L 473.542783 437.473023 
L 476.281359 437.02275 
L 478.946899 437.023723 
L 486.541826 439.651266 
L 488.95042 439.963597 
L 491.302335 439.914638 
L 493.600179 440.581286 
L 500.192796 443.430694 
L 502.297122 444.344925 
L 504.358057 444.907929 
L 506.377354 446.111431 
L 508.356662 445.995252 
L 512.201435 448.055764 
L 514.069748 448.100719 
L 517.704759 449.158004 
L 519.473863 448.806248 
L 521.212199 449.802462 
L 522.920819 450.626535 
L 524.60072 451.230422 
L 527.878122 451.883687 
L 529.477385 452.644435 
L 531.051461 452.709052 
L 532.601132 453.700459 
L 534.127144 454.329306 
L 537.111001 454.970356 
L 541.426137 456.571583 
L 542.824087 456.274058 
L 544.202754 456.842393 
L 545.562664 457.094104 
L 546.904319 456.948934 
L 548.228203 457.319424 
L 549.534781 457.552784 
L 550.824499 457.635371 
L 552.097788 458.173752 
L 554.596713 457.48332 
L 555.82313 457.889132 
L 558.231724 457.733364 
L 560.583639 458.381779 
L 561.739164 458.07399 
L 565.127685 458.661385 
L 566.232136 458.72102 
L 568.405087 458.371177 
L 569.4741 459.031378 
L 570.531801 459.098947 
L 571.578426 459.024411 
L 572.614205 459.817206 
L 573.639361 462.324264 
L 574.654109 472.152942 
L 575.658658 485.612517 
L 576.653211 472.401152 
L 577.637966 462.600033 
L 578.613113 460.641554 
L 579.578838 459.601157 
L 580.535322 459.555506 
L 581.48274 459.811509 
L 583.351052 459.813143 
L 584.272273 459.155635 
L 585.185081 459.270372 
L 586.089628 459.641894 
L 586.986063 460.167273 
L 588.755168 460.155479 
L 590.493504 460.679664 
L 591.351464 460.810776 
L 592.202123 460.4865 
L 593.045603 460.889986 
L 593.882024 460.616897 
L 595.534158 460.811426 
L 596.350095 460.77284 
L 597.159426 461.073602 
L 597.962256 461.505362 
L 598.758689 461.715011 
L 599.548826 461.64984 
L 600.332765 461.439187 
L 601.110604 461.685167 
L 602.648355 461.474298 
L 603.408448 462.038871 
L 604.162805 462.087174 
L 604.911511 461.919543 
L 605.65465 461.955037 
L 606.392305 462.305389 
L 607.124556 462.145173 
L 607.851481 462.428015 
L 608.573158 462.866605 
L 609.289661 463.052393 
L 610.001065 463.368948 
L 610.707441 462.779565 
L 611.40886 462.860145 
L 612.105391 463.350436 
L 612.797102 463.065912 
L 614.166326 463.453364 
L 614.843968 463.998854 
L 615.517046 464.173365 
L 616.185623 463.620644 
L 616.849757 463.436249 
L 617.509507 463.989599 
L 618.816085 464.344393 
L 619.463024 464.459661 
L 620.744475 464.045018 
L 621.379092 464.744071 
L 622.009705 465.038353 
L 622.636364 471.54145 
L 622.636364 471.54145 
" style="fill:none;stroke:#9467bd;stroke-dasharray:5,8.25;stroke-dashoffset:0;stroke-width:5;"/>
   </g>
   <g id="line2d_56">
    <path clip-path="url(#p71638a8e2e)" d="M 115.363636 380.977703 
L 184.644941 262.20914 
L 225.171905 269.997209 
L 253.926245 316.142136 
L 276.229843 342.623239 
L 294.45321 362.875959 
L 309.860847 372.935261 
L 323.207549 382.96871 
L 334.980175 384.093883 
L 345.511147 388.937524 
L 355.037571 390.214589 
L 363.734514 388.082735 
L 371.734926 378.661748 
L 379.142151 366.404566 
L 386.038112 338.077828 
L 392.488853 279.651787 
L 398.548393 217.541726 
L 404.261479 138.097474 
L 409.665594 89.28 
L 414.792451 165.542997 
L 419.669116 270.063578 
L 424.318875 337.111752 
L 428.761908 373.087332 
L 433.015818 394.705209 
L 437.096049 405.391023 
L 441.01623 409.655703 
L 444.788444 416.830609 
L 448.423455 422.607486 
L 451.930895 424.974871 
L 455.319416 425.595983 
L 458.596818 427.244273 
L 461.770157 429.444461 
L 464.84584 430.718233 
L 467.829697 427.107235 
L 470.727053 424.319101 
L 476.281359 418.372001 
L 478.946899 416.885504 
L 481.543195 422.284739 
L 484.073755 429.807824 
L 486.541826 436.199756 
L 488.95042 439.214546 
L 491.302335 442.578961 
L 493.600179 444.337669 
L 495.846381 444.825264 
L 498.043212 447.106311 
L 500.192796 448.547281 
L 502.297122 448.681669 
L 504.358057 450.305797 
L 506.377354 451.561502 
L 508.356662 452.07115 
L 512.201435 453.982424 
L 514.069748 454.42813 
L 515.903777 455.476194 
L 517.704759 456.145343 
L 519.473863 457.072974 
L 522.920819 460.6303 
L 524.60072 461.792434 
L 526.252854 462.779774 
L 527.878122 463.94262 
L 529.477385 464.576087 
L 531.051461 464.923778 
L 532.601132 466.289428 
L 535.630207 467.255307 
L 537.111001 466.769015 
L 538.570177 466.955362 
L 540.008357 467.892006 
L 542.824087 468.718186 
L 545.562664 468.051515 
L 546.904319 469.172495 
L 548.228203 469.93948 
L 549.534781 469.921228 
L 550.824499 470.802021 
L 552.097788 470.789892 
L 553.355059 471.905429 
L 554.596713 471.875996 
L 555.82313 471.101656 
L 557.034682 471.331896 
L 558.231724 470.965718 
L 559.414599 471.641808 
L 560.583639 472.576711 
L 561.739164 471.881569 
L 562.881483 472.265641 
L 564.010894 472.521206 
L 565.127685 472.26737 
L 566.232136 473.632746 
L 567.324516 472.953582 
L 568.405087 472.949341 
L 569.4741 473.848994 
L 570.531801 472.502101 
L 571.578426 472.706986 
L 572.614205 474.085647 
L 573.639361 474.776263 
L 574.654109 481.02502 
L 575.658658 490.093526 
L 576.653211 481.437335 
L 577.637966 475.840114 
L 578.613113 474.422794 
L 579.578838 474.434594 
L 580.535322 473.703303 
L 581.48274 473.758567 
L 582.421261 473.122511 
L 583.351052 472.860124 
L 584.272273 473.08991 
L 585.185081 474.161968 
L 586.089628 474.657194 
L 586.986063 474.245787 
L 588.755168 475.661888 
L 590.493504 475.386294 
L 591.351464 475.528246 
L 592.202123 475.868514 
L 593.882024 475.650788 
L 594.711505 474.39457 
L 595.534158 474.444502 
L 596.350095 475.29631 
L 597.159426 476.815266 
L 597.962256 476.573422 
L 598.758689 475.288005 
L 599.548826 476.121044 
L 600.332765 476.198847 
L 601.110604 476.050258 
L 601.882437 475.544157 
L 602.648355 476.395246 
L 603.408448 476.803069 
L 604.162805 475.661978 
L 606.392305 476.086129 
L 607.124556 475.891589 
L 607.851481 477.036834 
L 608.573158 476.093786 
L 609.289661 477.283866 
L 610.001065 477.096185 
L 610.707441 477.350364 
L 612.105391 476.54519 
L 612.797102 477.1688 
L 613.484058 477.428825 
L 614.166326 477.374688 
L 614.843968 478.678864 
L 615.517046 478.28396 
L 616.185623 478.411528 
L 616.849757 477.795507 
L 617.509507 477.898653 
L 618.816085 479.214933 
L 619.463024 479.45613 
L 620.105803 478.971664 
L 620.744475 479.491623 
L 621.379092 479.551948 
L 622.009705 479.911776 
L 622.636364 484.351002 
L 622.636364 484.351002 
" style="fill:none;stroke:#8c564b;stroke-linecap:square;stroke-opacity:0.5;stroke-width:1.5;"/>
   </g>
   <g id="patch_3">
    <path d="M 90 512.64 
L 90 69.12 
" style="fill:none;stroke:#000000;stroke-linecap:square;stroke-linejoin:miter;stroke-width:0.8;"/>
   </g>
   <g id="patch_4">
    <path d="M 648 512.64 
L 648 69.12 
" style="fill:none;stroke:#000000;stroke-linecap:square;stroke-linejoin:miter;stroke-width:0.8;"/>
   </g>
   <g id="patch_5">
    <path d="M 90 512.64 
L 648 512.64 
" style="fill:none;stroke:#000000;stroke-linecap:square;stroke-linejoin:miter;stroke-width:0.8;"/>
   </g>
   <g id="patch_6">
    <path d="M 90 69.12 
L 648 69.12 
" style="fill:none;stroke:#000000;stroke-linecap:square;stroke-linejoin:miter;stroke-width:0.8;"/>
   </g>
   <g id="text_17">
    <!-- Median power of different  PSDs clusters of  reconstructed sources -->
    <defs>
     <path d="M 9.8125 72.90625 
L 24.515625 72.90625 
L 43.109375 23.296875 
L 61.8125 72.90625 
L 76.515625 72.90625 
L 76.515625 0 
L 66.890625 0 
L 66.890625 64.015625 
L 48.09375 14.015625 
L 38.1875 14.015625 
L 19.390625 64.015625 
L 19.390625 0 
L 9.8125 0 
z
" id="DejaVuSans-77"/>
     <path d="M 4.203125 54.6875 
L 13.1875 54.6875 
L 24.421875 12.015625 
L 35.59375 54.6875 
L 46.1875 54.6875 
L 57.421875 12.015625 
L 68.609375 54.6875 
L 77.59375 54.6875 
L 63.28125 0 
L 52.6875 0 
L 40.921875 44.828125 
L 29.109375 0 
L 18.5 0 
z
" id="DejaVuSans-119"/>
     <path d="M 37.109375 75.984375 
L 37.109375 68.5 
L 28.515625 68.5 
Q 23.6875 68.5 21.796875 66.546875 
Q 19.921875 64.59375 19.921875 59.515625 
L 19.921875 54.6875 
L 34.71875 54.6875 
L 34.71875 47.703125 
L 19.921875 47.703125 
L 19.921875 0 
L 10.890625 0 
L 10.890625 47.703125 
L 2.296875 47.703125 
L 2.296875 54.6875 
L 10.890625 54.6875 
L 10.890625 58.5 
Q 10.890625 67.625 15.140625 71.796875 
Q 19.390625 75.984375 28.609375 75.984375 
z
" id="DejaVuSans-102"/>
     <path d="M 19.671875 64.796875 
L 19.671875 37.40625 
L 32.078125 37.40625 
Q 38.96875 37.40625 42.71875 40.96875 
Q 46.484375 44.53125 46.484375 51.125 
Q 46.484375 57.671875 42.71875 61.234375 
Q 38.96875 64.796875 32.078125 64.796875 
z
M 9.8125 72.90625 
L 32.078125 72.90625 
Q 44.34375 72.90625 50.609375 67.359375 
Q 56.890625 61.8125 56.890625 51.125 
Q 56.890625 40.328125 50.609375 34.8125 
Q 44.34375 29.296875 32.078125 29.296875 
L 19.671875 29.296875 
L 19.671875 0 
L 9.8125 0 
z
" id="DejaVuSans-80"/>
     <path d="M 53.515625 70.515625 
L 53.515625 60.890625 
Q 47.90625 63.578125 42.921875 64.890625 
Q 37.9375 66.21875 33.296875 66.21875 
Q 25.25 66.21875 20.875 63.09375 
Q 16.5 59.96875 16.5 54.203125 
Q 16.5 49.359375 19.40625 46.890625 
Q 22.3125 44.4375 30.421875 42.921875 
L 36.375 41.703125 
Q 47.40625 39.59375 52.65625 34.296875 
Q 57.90625 29 57.90625 20.125 
Q 57.90625 9.515625 50.796875 4.046875 
Q 43.703125 -1.421875 29.984375 -1.421875 
Q 24.8125 -1.421875 18.96875 -0.25 
Q 13.140625 0.921875 6.890625 3.21875 
L 6.890625 13.375 
Q 12.890625 10.015625 18.65625 8.296875 
Q 24.421875 6.59375 29.984375 6.59375 
Q 38.421875 6.59375 43.015625 9.90625 
Q 47.609375 13.234375 47.609375 19.390625 
Q 47.609375 24.75 44.3125 27.78125 
Q 41.015625 30.8125 33.5 32.328125 
L 27.484375 33.5 
Q 16.453125 35.6875 11.515625 40.375 
Q 6.59375 45.0625 6.59375 53.421875 
Q 6.59375 63.09375 13.40625 68.65625 
Q 20.21875 74.21875 32.171875 74.21875 
Q 37.3125 74.21875 42.625 73.28125 
Q 47.953125 72.359375 53.515625 70.515625 
z
" id="DejaVuSans-83"/>
     <path d="M 19.671875 64.796875 
L 19.671875 8.109375 
L 31.59375 8.109375 
Q 46.6875 8.109375 53.6875 14.9375 
Q 60.6875 21.78125 60.6875 36.53125 
Q 60.6875 51.171875 53.6875 57.984375 
Q 46.6875 64.796875 31.59375 64.796875 
z
M 9.8125 72.90625 
L 30.078125 72.90625 
Q 51.265625 72.90625 61.171875 64.09375 
Q 71.09375 55.28125 71.09375 36.53125 
Q 71.09375 17.671875 61.125 8.828125 
Q 51.171875 0 30.078125 0 
L 9.8125 0 
z
" id="DejaVuSans-68"/>
    </defs>
    <g transform="translate(48.327 63.12)scale(0.192 -0.192)">
     <use xlink:href="#DejaVuSans-77"/>
     <use x="86.279297" xlink:href="#DejaVuSans-101"/>
     <use x="147.802734" xlink:href="#DejaVuSans-100"/>
     <use x="211.279297" xlink:href="#DejaVuSans-105"/>
     <use x="239.0625" xlink:href="#DejaVuSans-97"/>
     <use x="300.341797" xlink:href="#DejaVuSans-110"/>
     <use x="363.720703" xlink:href="#DejaVuSans-32"/>
     <use x="395.507812" xlink:href="#DejaVuSans-112"/>
     <use x="458.984375" xlink:href="#DejaVuSans-111"/>
     <use x="520.166016" xlink:href="#DejaVuSans-119"/>
     <use x="601.953125" xlink:href="#DejaVuSans-101"/>
     <use x="663.476562" xlink:href="#DejaVuSans-114"/>
     <use x="704.589844" xlink:href="#DejaVuSans-32"/>
     <use x="736.376953" xlink:href="#DejaVuSans-111"/>
     <use x="797.558594" xlink:href="#DejaVuSans-102"/>
     <use x="832.763672" xlink:href="#DejaVuSans-32"/>
     <use x="864.550781" xlink:href="#DejaVuSans-100"/>
     <use x="928.027344" xlink:href="#DejaVuSans-105"/>
     <use x="955.810547" xlink:href="#DejaVuSans-102"/>
     <use x="991.015625" xlink:href="#DejaVuSans-102"/>
     <use x="1026.220703" xlink:href="#DejaVuSans-101"/>
     <use x="1087.744141" xlink:href="#DejaVuSans-114"/>
     <use x="1128.826172" xlink:href="#DejaVuSans-101"/>
     <use x="1190.349609" xlink:href="#DejaVuSans-110"/>
     <use x="1253.728516" xlink:href="#DejaVuSans-116"/>
     <use x="1292.9375" xlink:href="#DejaVuSans-32"/>
     <use x="1324.724609" xlink:href="#DejaVuSans-32"/>
     <use x="1356.511719" xlink:href="#DejaVuSans-80"/>
     <use x="1416.814453" xlink:href="#DejaVuSans-83"/>
     <use x="1480.291016" xlink:href="#DejaVuSans-68"/>
     <use x="1557.292969" xlink:href="#DejaVuSans-115"/>
     <use x="1609.392578" xlink:href="#DejaVuSans-32"/>
     <use x="1641.179688" xlink:href="#DejaVuSans-99"/>
     <use x="1696.160156" xlink:href="#DejaVuSans-108"/>
     <use x="1723.943359" xlink:href="#DejaVuSans-117"/>
     <use x="1787.322266" xlink:href="#DejaVuSans-115"/>
     <use x="1839.421875" xlink:href="#DejaVuSans-116"/>
     <use x="1878.630859" xlink:href="#DejaVuSans-101"/>
     <use x="1940.154297" xlink:href="#DejaVuSans-114"/>
     <use x="1981.267578" xlink:href="#DejaVuSans-115"/>
     <use x="2033.367188" xlink:href="#DejaVuSans-32"/>
     <use x="2065.154297" xlink:href="#DejaVuSans-111"/>
     <use x="2126.335938" xlink:href="#DejaVuSans-102"/>
     <use x="2161.541016" xlink:href="#DejaVuSans-32"/>
     <use x="2193.328125" xlink:href="#DejaVuSans-32"/>
     <use x="2225.115234" xlink:href="#DejaVuSans-114"/>
     <use x="2266.197266" xlink:href="#DejaVuSans-101"/>
     <use x="2327.720703" xlink:href="#DejaVuSans-99"/>
     <use x="2382.701172" xlink:href="#DejaVuSans-111"/>
     <use x="2443.882812" xlink:href="#DejaVuSans-110"/>
     <use x="2507.261719" xlink:href="#DejaVuSans-115"/>
     <use x="2559.361328" xlink:href="#DejaVuSans-116"/>
     <use x="2598.570312" xlink:href="#DejaVuSans-114"/>
     <use x="2639.683594" xlink:href="#DejaVuSans-117"/>
     <use x="2703.0625" xlink:href="#DejaVuSans-99"/>
     <use x="2758.042969" xlink:href="#DejaVuSans-116"/>
     <use x="2797.251953" xlink:href="#DejaVuSans-101"/>
     <use x="2858.775391" xlink:href="#DejaVuSans-100"/>
     <use x="2922.251953" xlink:href="#DejaVuSans-32"/>
     <use x="2954.039062" xlink:href="#DejaVuSans-115"/>
     <use x="3006.138672" xlink:href="#DejaVuSans-111"/>
     <use x="3067.320312" xlink:href="#DejaVuSans-117"/>
     <use x="3130.699219" xlink:href="#DejaVuSans-114"/>
     <use x="3171.78125" xlink:href="#DejaVuSans-99"/>
     <use x="3226.761719" xlink:href="#DejaVuSans-101"/>
     <use x="3288.285156" xlink:href="#DejaVuSans-115"/>
    </g>
   </g>
   <g id="legend_1">
    <g id="patch_7">
     <path d="M 479.4375 222.83 
L 636.8 222.83 
Q 640 222.83 640 219.63 
L 640 80.32 
Q 640 77.12 636.8 77.12 
L 479.4375 77.12 
Q 476.2375 77.12 476.2375 80.32 
L 476.2375 219.63 
Q 476.2375 222.83 479.4375 222.83 
z
" style="fill:#ffffff;opacity:0.8;stroke:#cccccc;stroke-linejoin:miter;"/>
    </g>
    <g id="line2d_57">
     <path d="M 482.6375 90.0775 
L 514.6375 90.0775 
" style="fill:none;stroke:#1f77b4;stroke-linecap:square;stroke-opacity:0.5;stroke-width:1.5;"/>
    </g>
    <g id="line2d_58"/>
    <g id="text_18">
     <!-- cl. 0 (294 el.) -->
     <defs>
      <path d="M 31 75.875 
Q 24.46875 64.65625 21.28125 53.65625 
Q 18.109375 42.671875 18.109375 31.390625 
Q 18.109375 20.125 21.3125 9.0625 
Q 24.515625 -2 31 -13.1875 
L 23.1875 -13.1875 
Q 15.875 -1.703125 12.234375 9.375 
Q 8.59375 20.453125 8.59375 31.390625 
Q 8.59375 42.28125 12.203125 53.3125 
Q 15.828125 64.359375 23.1875 75.875 
z
" id="DejaVuSans-40"/>
      <path d="M 10.984375 1.515625 
L 10.984375 10.5 
Q 14.703125 8.734375 18.5 7.8125 
Q 22.3125 6.890625 25.984375 6.890625 
Q 35.75 6.890625 40.890625 13.453125 
Q 46.046875 20.015625 46.78125 33.40625 
Q 43.953125 29.203125 39.59375 26.953125 
Q 35.25 24.703125 29.984375 24.703125 
Q 19.046875 24.703125 12.671875 31.3125 
Q 6.296875 37.9375 6.296875 49.421875 
Q 6.296875 60.640625 12.9375 67.421875 
Q 19.578125 74.21875 30.609375 74.21875 
Q 43.265625 74.21875 49.921875 64.515625 
Q 56.59375 54.828125 56.59375 36.375 
Q 56.59375 19.140625 48.40625 8.859375 
Q 40.234375 -1.421875 26.421875 -1.421875 
Q 22.703125 -1.421875 18.890625 -0.6875 
Q 15.09375 0.046875 10.984375 1.515625 
z
M 30.609375 32.421875 
Q 37.25 32.421875 41.125 36.953125 
Q 45.015625 41.5 45.015625 49.421875 
Q 45.015625 57.28125 41.125 61.84375 
Q 37.25 66.40625 30.609375 66.40625 
Q 23.96875 66.40625 20.09375 61.84375 
Q 16.21875 57.28125 16.21875 49.421875 
Q 16.21875 41.5 20.09375 36.953125 
Q 23.96875 32.421875 30.609375 32.421875 
z
" id="DejaVuSans-57"/>
      <path d="M 8.015625 75.875 
L 15.828125 75.875 
Q 23.140625 64.359375 26.78125 53.3125 
Q 30.421875 42.28125 30.421875 31.390625 
Q 30.421875 20.453125 26.78125 9.375 
Q 23.140625 -1.703125 15.828125 -13.1875 
L 8.015625 -13.1875 
Q 14.5 -2 17.703125 9.0625 
Q 20.90625 20.125 20.90625 31.390625 
Q 20.90625 42.671875 17.703125 53.65625 
Q 14.5 64.65625 8.015625 75.875 
z
" id="DejaVuSans-41"/>
     </defs>
     <g transform="translate(527.4375 95.6775)scale(0.16 -0.16)">
      <use xlink:href="#DejaVuSans-99"/>
      <use x="54.980469" xlink:href="#DejaVuSans-108"/>
      <use x="82.763672" xlink:href="#DejaVuSans-46"/>
      <use x="114.550781" xlink:href="#DejaVuSans-32"/>
      <use x="146.337891" xlink:href="#DejaVuSans-48"/>
      <use x="209.960938" xlink:href="#DejaVuSans-32"/>
      <use x="241.748047" xlink:href="#DejaVuSans-40"/>
      <use x="280.761719" xlink:href="#DejaVuSans-50"/>
      <use x="344.384766" xlink:href="#DejaVuSans-57"/>
      <use x="408.007812" xlink:href="#DejaVuSans-52"/>
      <use x="471.630859" xlink:href="#DejaVuSans-32"/>
      <use x="503.417969" xlink:href="#DejaVuSans-101"/>
      <use x="564.941406" xlink:href="#DejaVuSans-108"/>
      <use x="592.724609" xlink:href="#DejaVuSans-46"/>
      <use x="624.511719" xlink:href="#DejaVuSans-41"/>
     </g>
    </g>
    <g id="line2d_59">
     <path d="M 482.6375 113.5625 
L 514.6375 113.5625 
" style="fill:none;stroke:#ff7f0e;stroke-linecap:square;stroke-opacity:0.5;stroke-width:1.5;"/>
    </g>
    <g id="line2d_60"/>
    <g id="text_19">
     <!-- cl. 1 (156 el.) -->
     <defs>
      <path d="M 33.015625 40.375 
Q 26.375 40.375 22.484375 35.828125 
Q 18.609375 31.296875 18.609375 23.390625 
Q 18.609375 15.53125 22.484375 10.953125 
Q 26.375 6.390625 33.015625 6.390625 
Q 39.65625 6.390625 43.53125 10.953125 
Q 47.40625 15.53125 47.40625 23.390625 
Q 47.40625 31.296875 43.53125 35.828125 
Q 39.65625 40.375 33.015625 40.375 
z
M 52.59375 71.296875 
L 52.59375 62.3125 
Q 48.875 64.0625 45.09375 64.984375 
Q 41.3125 65.921875 37.59375 65.921875 
Q 27.828125 65.921875 22.671875 59.328125 
Q 17.53125 52.734375 16.796875 39.40625 
Q 19.671875 43.65625 24.015625 45.921875 
Q 28.375 48.1875 33.59375 48.1875 
Q 44.578125 48.1875 50.953125 41.515625 
Q 57.328125 34.859375 57.328125 23.390625 
Q 57.328125 12.15625 50.6875 5.359375 
Q 44.046875 -1.421875 33.015625 -1.421875 
Q 20.359375 -1.421875 13.671875 8.265625 
Q 6.984375 17.96875 6.984375 36.375 
Q 6.984375 53.65625 15.1875 63.9375 
Q 23.390625 74.21875 37.203125 74.21875 
Q 40.921875 74.21875 44.703125 73.484375 
Q 48.484375 72.75 52.59375 71.296875 
z
" id="DejaVuSans-54"/>
     </defs>
     <g transform="translate(527.4375 119.1625)scale(0.16 -0.16)">
      <use xlink:href="#DejaVuSans-99"/>
      <use x="54.980469" xlink:href="#DejaVuSans-108"/>
      <use x="82.763672" xlink:href="#DejaVuSans-46"/>
      <use x="114.550781" xlink:href="#DejaVuSans-32"/>
      <use x="146.337891" xlink:href="#DejaVuSans-49"/>
      <use x="209.960938" xlink:href="#DejaVuSans-32"/>
      <use x="241.748047" xlink:href="#DejaVuSans-40"/>
      <use x="280.761719" xlink:href="#DejaVuSans-49"/>
      <use x="344.384766" xlink:href="#DejaVuSans-53"/>
      <use x="408.007812" xlink:href="#DejaVuSans-54"/>
      <use x="471.630859" xlink:href="#DejaVuSans-32"/>
      <use x="503.417969" xlink:href="#DejaVuSans-101"/>
      <use x="564.941406" xlink:href="#DejaVuSans-108"/>
      <use x="592.724609" xlink:href="#DejaVuSans-46"/>
      <use x="624.511719" xlink:href="#DejaVuSans-41"/>
     </g>
    </g>
    <g id="line2d_61">
     <path d="M 482.6375 137.0475 
L 514.6375 137.0475 
" style="fill:none;stroke:#2ca02c;stroke-linecap:square;stroke-opacity:0.5;stroke-width:1.5;"/>
    </g>
    <g id="line2d_62"/>
    <g id="text_20">
     <!-- cl. 2 (177 el.) -->
     <defs>
      <path d="M 8.203125 72.90625 
L 55.078125 72.90625 
L 55.078125 68.703125 
L 28.609375 0 
L 18.3125 0 
L 43.21875 64.59375 
L 8.203125 64.59375 
z
" id="DejaVuSans-55"/>
     </defs>
     <g transform="translate(527.4375 142.6475)scale(0.16 -0.16)">
      <use xlink:href="#DejaVuSans-99"/>
      <use x="54.980469" xlink:href="#DejaVuSans-108"/>
      <use x="82.763672" xlink:href="#DejaVuSans-46"/>
      <use x="114.550781" xlink:href="#DejaVuSans-32"/>
      <use x="146.337891" xlink:href="#DejaVuSans-50"/>
      <use x="209.960938" xlink:href="#DejaVuSans-32"/>
      <use x="241.748047" xlink:href="#DejaVuSans-40"/>
      <use x="280.761719" xlink:href="#DejaVuSans-49"/>
      <use x="344.384766" xlink:href="#DejaVuSans-55"/>
      <use x="408.007812" xlink:href="#DejaVuSans-55"/>
      <use x="471.630859" xlink:href="#DejaVuSans-32"/>
      <use x="503.417969" xlink:href="#DejaVuSans-101"/>
      <use x="564.941406" xlink:href="#DejaVuSans-108"/>
      <use x="592.724609" xlink:href="#DejaVuSans-46"/>
      <use x="624.511719" xlink:href="#DejaVuSans-41"/>
     </g>
    </g>
    <g id="line2d_63">
     <path d="M 482.6375 160.5325 
L 514.6375 160.5325 
" style="fill:none;stroke:#d62728;stroke-linecap:square;stroke-opacity:0.5;stroke-width:1.5;"/>
    </g>
    <g id="line2d_64"/>
    <g id="text_21">
     <!-- cl. 3 (300 el.) -->
     <g transform="translate(527.4375 166.1325)scale(0.16 -0.16)">
      <use xlink:href="#DejaVuSans-99"/>
      <use x="54.980469" xlink:href="#DejaVuSans-108"/>
      <use x="82.763672" xlink:href="#DejaVuSans-46"/>
      <use x="114.550781" xlink:href="#DejaVuSans-32"/>
      <use x="146.337891" xlink:href="#DejaVuSans-51"/>
      <use x="209.960938" xlink:href="#DejaVuSans-32"/>
      <use x="241.748047" xlink:href="#DejaVuSans-40"/>
      <use x="280.761719" xlink:href="#DejaVuSans-51"/>
      <use x="344.384766" xlink:href="#DejaVuSans-48"/>
      <use x="408.007812" xlink:href="#DejaVuSans-48"/>
      <use x="471.630859" xlink:href="#DejaVuSans-32"/>
      <use x="503.417969" xlink:href="#DejaVuSans-101"/>
      <use x="564.941406" xlink:href="#DejaVuSans-108"/>
      <use x="592.724609" xlink:href="#DejaVuSans-46"/>
      <use x="624.511719" xlink:href="#DejaVuSans-41"/>
     </g>
    </g>
    <g id="line2d_65">
     <path d="M 482.6375 184.0175 
L 514.6375 184.0175 
" style="fill:none;stroke:#9467bd;stroke-dasharray:5,8.25;stroke-dashoffset:0;stroke-width:5;"/>
    </g>
    <g id="line2d_66"/>
    <g id="text_22">
     <!-- cl. 4 (403 el.) -->
     <g transform="translate(527.4375 189.6175)scale(0.16 -0.16)">
      <use xlink:href="#DejaVuSans-99"/>
      <use x="54.980469" xlink:href="#DejaVuSans-108"/>
      <use x="82.763672" xlink:href="#DejaVuSans-46"/>
      <use x="114.550781" xlink:href="#DejaVuSans-32"/>
      <use x="146.337891" xlink:href="#DejaVuSans-52"/>
      <use x="209.960938" xlink:href="#DejaVuSans-32"/>
      <use x="241.748047" xlink:href="#DejaVuSans-40"/>
      <use x="280.761719" xlink:href="#DejaVuSans-52"/>
      <use x="344.384766" xlink:href="#DejaVuSans-48"/>
      <use x="408.007812" xlink:href="#DejaVuSans-51"/>
      <use x="471.630859" xlink:href="#DejaVuSans-32"/>
      <use x="503.417969" xlink:href="#DejaVuSans-101"/>
      <use x="564.941406" xlink:href="#DejaVuSans-108"/>
      <use x="592.724609" xlink:href="#DejaVuSans-46"/>
      <use x="624.511719" xlink:href="#DejaVuSans-41"/>
     </g>
    </g>
    <g id="line2d_67">
     <path d="M 482.6375 207.5025 
L 514.6375 207.5025 
" style="fill:none;stroke:#8c564b;stroke-linecap:square;stroke-opacity:0.5;stroke-width:1.5;"/>
    </g>
    <g id="line2d_68"/>
    <g id="text_23">
     <!-- cl. 5 (114 el.) -->
     <g transform="translate(527.4375 213.1025)scale(0.16 -0.16)">
      <use xlink:href="#DejaVuSans-99"/>
      <use x="54.980469" xlink:href="#DejaVuSans-108"/>
      <use x="82.763672" xlink:href="#DejaVuSans-46"/>
      <use x="114.550781" xlink:href="#DejaVuSans-32"/>
      <use x="146.337891" xlink:href="#DejaVuSans-53"/>
      <use x="209.960938" xlink:href="#DejaVuSans-32"/>
      <use x="241.748047" xlink:href="#DejaVuSans-40"/>
      <use x="280.761719" xlink:href="#DejaVuSans-49"/>
      <use x="344.384766" xlink:href="#DejaVuSans-49"/>
      <use x="408.007812" xlink:href="#DejaVuSans-52"/>
      <use x="471.630859" xlink:href="#DejaVuSans-32"/>
      <use x="503.417969" xlink:href="#DejaVuSans-101"/>
      <use x="564.941406" xlink:href="#DejaVuSans-108"/>
      <use x="592.724609" xlink:href="#DejaVuSans-46"/>
      <use x="624.511719" xlink:href="#DejaVuSans-41"/>
     </g>
    </g>
   </g>
  </g>
 </g>
 <defs>
  <clipPath id="p71638a8e2e">
   <rect height="443.52" width="558" x="90" y="69.12"/>
  </clipPath>
 </defs>
</svg>
