<?xml version="1.0" encoding="utf-8" standalone="no"?>
<!DOCTYPE svg PUBLIC "-//W3C//DTD SVG 1.1//EN"
  "http://www.w3.org/Graphics/SVG/1.1/DTD/svg11.dtd">
<!-- Created with matplotlib (https://matplotlib.org/) -->
<svg height="576pt" version="1.1" viewBox="0 0 720 576" width="720pt" xmlns="http://www.w3.org/2000/svg" xmlns:xlink="http://www.w3.org/1999/xlink">
 <defs>
  <style type="text/css">
*{stroke-linecap:butt;stroke-linejoin:round;}
  </style>
 </defs>
 <g id="figure_1">
  <g id="patch_1">
   <path d="M 0 576 
L 720 576 
L 720 0 
L 0 0 
z
" style="fill:#ffffff;"/>
  </g>
  <g id="axes_1">
   <g id="patch_2">
    <path d="M 90 512.64 
L 648 512.64 
L 648 69.12 
L 90 69.12 
z
" style="fill:#ffffff;"/>
   </g>
   <g id="matplotlib.axis_1">
    <g id="xtick_1">
     <g id="line2d_1">
      <path clip-path="url(#pb3874edec4)" d="M 115.363636 512.64 
L 115.363636 69.12 
" style="fill:none;stroke:#b0b0b0;stroke-linecap:square;stroke-width:0.8;"/>
     </g>
     <g id="line2d_2">
      <defs>
       <path d="M 0 0 
L 0 3.5 
" id="m901784303f" style="stroke:#000000;stroke-width:0.8;"/>
      </defs>
      <g>
       <use style="stroke:#000000;stroke-width:0.8;" x="115.363636" xlink:href="#m901784303f" y="512.64"/>
      </g>
     </g>
     <g id="text_1">
      <!-- 0.5 -->
      <defs>
       <path d="M 31.78125 66.40625 
Q 24.171875 66.40625 20.328125 58.90625 
Q 16.5 51.421875 16.5 36.375 
Q 16.5 21.390625 20.328125 13.890625 
Q 24.171875 6.390625 31.78125 6.390625 
Q 39.453125 6.390625 43.28125 13.890625 
Q 47.125 21.390625 47.125 36.375 
Q 47.125 51.421875 43.28125 58.90625 
Q 39.453125 66.40625 31.78125 66.40625 
z
M 31.78125 74.21875 
Q 44.046875 74.21875 50.515625 64.515625 
Q 56.984375 54.828125 56.984375 36.375 
Q 56.984375 17.96875 50.515625 8.265625 
Q 44.046875 -1.421875 31.78125 -1.421875 
Q 19.53125 -1.421875 13.0625 8.265625 
Q 6.59375 17.96875 6.59375 36.375 
Q 6.59375 54.828125 13.0625 64.515625 
Q 19.53125 74.21875 31.78125 74.21875 
z
" id="DejaVuSans-48"/>
       <path d="M 10.6875 12.40625 
L 21 12.40625 
L 21 0 
L 10.6875 0 
z
" id="DejaVuSans-46"/>
       <path d="M 10.796875 72.90625 
L 49.515625 72.90625 
L 49.515625 64.59375 
L 19.828125 64.59375 
L 19.828125 46.734375 
Q 21.96875 47.46875 24.109375 47.828125 
Q 26.265625 48.1875 28.421875 48.1875 
Q 40.625 48.1875 47.75 41.5 
Q 54.890625 34.8125 54.890625 23.390625 
Q 54.890625 11.625 47.5625 5.09375 
Q 40.234375 -1.421875 26.90625 -1.421875 
Q 22.3125 -1.421875 17.546875 -0.640625 
Q 12.796875 0.140625 7.71875 1.703125 
L 7.71875 11.625 
Q 12.109375 9.234375 16.796875 8.0625 
Q 21.484375 6.890625 26.703125 6.890625 
Q 35.15625 6.890625 40.078125 11.328125 
Q 45.015625 15.765625 45.015625 23.390625 
Q 45.015625 31 40.078125 35.4375 
Q 35.15625 39.890625 26.703125 39.890625 
Q 22.75 39.890625 18.8125 39.015625 
Q 14.890625 38.140625 10.796875 36.28125 
z
" id="DejaVuSans-53"/>
      </defs>
      <g transform="translate(102.641136 531.7975)scale(0.16 -0.16)">
       <use xlink:href="#DejaVuSans-48"/>
       <use x="63.623047" xlink:href="#DejaVuSans-46"/>
       <use x="95.410156" xlink:href="#DejaVuSans-53"/>
      </g>
     </g>
    </g>
    <g id="xtick_2">
     <g id="line2d_3">
      <path clip-path="url(#pb3874edec4)" d="M 323.207549 512.64 
L 323.207549 69.12 
" style="fill:none;stroke:#b0b0b0;stroke-linecap:square;stroke-width:0.8;"/>
     </g>
     <g id="line2d_4">
      <g>
       <use style="stroke:#000000;stroke-width:0.8;" x="323.207549" xlink:href="#m901784303f" y="512.64"/>
      </g>
     </g>
     <g id="text_2">
      <!-- 4.0 -->
      <defs>
       <path d="M 37.796875 64.3125 
L 12.890625 25.390625 
L 37.796875 25.390625 
z
M 35.203125 72.90625 
L 47.609375 72.90625 
L 47.609375 25.390625 
L 58.015625 25.390625 
L 58.015625 17.1875 
L 47.609375 17.1875 
L 47.609375 0 
L 37.796875 0 
L 37.796875 17.1875 
L 4.890625 17.1875 
L 4.890625 26.703125 
z
" id="DejaVuSans-52"/>
      </defs>
      <g transform="translate(310.485049 531.7975)scale(0.16 -0.16)">
       <use xlink:href="#DejaVuSans-52"/>
       <use x="63.623047" xlink:href="#DejaVuSans-46"/>
       <use x="95.410156" xlink:href="#DejaVuSans-48"/>
      </g>
     </g>
    </g>
    <g id="xtick_3">
     <g id="line2d_5">
      <path clip-path="url(#pb3874edec4)" d="M 392.488853 512.64 
L 392.488853 69.12 
" style="fill:none;stroke:#b0b0b0;stroke-linecap:square;stroke-width:0.8;"/>
     </g>
     <g id="line2d_6">
      <g>
       <use style="stroke:#000000;stroke-width:0.8;" x="392.488853" xlink:href="#m901784303f" y="512.64"/>
      </g>
     </g>
     <g id="text_3">
      <!-- 8.0 -->
      <defs>
       <path d="M 31.78125 34.625 
Q 24.75 34.625 20.71875 30.859375 
Q 16.703125 27.09375 16.703125 20.515625 
Q 16.703125 13.921875 20.71875 10.15625 
Q 24.75 6.390625 31.78125 6.390625 
Q 38.8125 6.390625 42.859375 10.171875 
Q 46.921875 13.96875 46.921875 20.515625 
Q 46.921875 27.09375 42.890625 30.859375 
Q 38.875 34.625 31.78125 34.625 
z
M 21.921875 38.8125 
Q 15.578125 40.375 12.03125 44.71875 
Q 8.5 49.078125 8.5 55.328125 
Q 8.5 64.0625 14.71875 69.140625 
Q 20.953125 74.21875 31.78125 74.21875 
Q 42.671875 74.21875 48.875 69.140625 
Q 55.078125 64.0625 55.078125 55.328125 
Q 55.078125 49.078125 51.53125 44.71875 
Q 48 40.375 41.703125 38.8125 
Q 48.828125 37.15625 52.796875 32.3125 
Q 56.78125 27.484375 56.78125 20.515625 
Q 56.78125 9.90625 50.3125 4.234375 
Q 43.84375 -1.421875 31.78125 -1.421875 
Q 19.734375 -1.421875 13.25 4.234375 
Q 6.78125 9.90625 6.78125 20.515625 
Q 6.78125 27.484375 10.78125 32.3125 
Q 14.796875 37.15625 21.921875 38.8125 
z
M 18.3125 54.390625 
Q 18.3125 48.734375 21.84375 45.5625 
Q 25.390625 42.390625 31.78125 42.390625 
Q 38.140625 42.390625 41.71875 45.5625 
Q 45.3125 48.734375 45.3125 54.390625 
Q 45.3125 60.0625 41.71875 63.234375 
Q 38.140625 66.40625 31.78125 66.40625 
Q 25.390625 66.40625 21.84375 63.234375 
Q 18.3125 60.0625 18.3125 54.390625 
z
" id="DejaVuSans-56"/>
      </defs>
      <g transform="translate(379.766353 531.7975)scale(0.16 -0.16)">
       <use xlink:href="#DejaVuSans-56"/>
       <use x="63.623047" xlink:href="#DejaVuSans-46"/>
       <use x="95.410156" xlink:href="#DejaVuSans-48"/>
      </g>
     </g>
    </g>
    <g id="xtick_4">
     <g id="line2d_7">
      <path clip-path="url(#pb3874edec4)" d="M 441.01623 512.64 
L 441.01623 69.12 
" style="fill:none;stroke:#b0b0b0;stroke-linecap:square;stroke-width:0.8;"/>
     </g>
     <g id="line2d_8">
      <g>
       <use style="stroke:#000000;stroke-width:0.8;" x="441.01623" xlink:href="#m901784303f" y="512.64"/>
      </g>
     </g>
     <g id="text_4">
      <!-- 13.0 -->
      <defs>
       <path d="M 12.40625 8.296875 
L 28.515625 8.296875 
L 28.515625 63.921875 
L 10.984375 60.40625 
L 10.984375 69.390625 
L 28.421875 72.90625 
L 38.28125 72.90625 
L 38.28125 8.296875 
L 54.390625 8.296875 
L 54.390625 0 
L 12.40625 0 
z
" id="DejaVuSans-49"/>
       <path d="M 40.578125 39.3125 
Q 47.65625 37.796875 51.625 33 
Q 55.609375 28.21875 55.609375 21.1875 
Q 55.609375 10.40625 48.1875 4.484375 
Q 40.765625 -1.421875 27.09375 -1.421875 
Q 22.515625 -1.421875 17.65625 -0.515625 
Q 12.796875 0.390625 7.625 2.203125 
L 7.625 11.71875 
Q 11.71875 9.328125 16.59375 8.109375 
Q 21.484375 6.890625 26.8125 6.890625 
Q 36.078125 6.890625 40.9375 10.546875 
Q 45.796875 14.203125 45.796875 21.1875 
Q 45.796875 27.640625 41.28125 31.265625 
Q 36.765625 34.90625 28.71875 34.90625 
L 20.21875 34.90625 
L 20.21875 43.015625 
L 29.109375 43.015625 
Q 36.375 43.015625 40.234375 45.921875 
Q 44.09375 48.828125 44.09375 54.296875 
Q 44.09375 59.90625 40.109375 62.90625 
Q 36.140625 65.921875 28.71875 65.921875 
Q 24.65625 65.921875 20.015625 65.03125 
Q 15.375 64.15625 9.8125 62.3125 
L 9.8125 71.09375 
Q 15.4375 72.65625 20.34375 73.4375 
Q 25.25 74.21875 29.59375 74.21875 
Q 40.828125 74.21875 47.359375 69.109375 
Q 53.90625 64.015625 53.90625 55.328125 
Q 53.90625 49.265625 50.4375 45.09375 
Q 46.96875 40.921875 40.578125 39.3125 
z
" id="DejaVuSans-51"/>
      </defs>
      <g transform="translate(423.20373 531.7975)scale(0.16 -0.16)">
       <use xlink:href="#DejaVuSans-49"/>
       <use x="63.623047" xlink:href="#DejaVuSans-51"/>
       <use x="127.246094" xlink:href="#DejaVuSans-46"/>
       <use x="159.033203" xlink:href="#DejaVuSans-48"/>
      </g>
     </g>
    </g>
    <g id="xtick_5">
     <g id="line2d_9">
      <path clip-path="url(#pb3874edec4)" d="M 524.60072 512.64 
L 524.60072 69.12 
" style="fill:none;stroke:#b0b0b0;stroke-linecap:square;stroke-width:0.8;"/>
     </g>
     <g id="line2d_10">
      <g>
       <use style="stroke:#000000;stroke-width:0.8;" x="524.60072" xlink:href="#m901784303f" y="512.64"/>
      </g>
     </g>
     <g id="text_5">
      <!-- 30.0 -->
      <g transform="translate(506.78822 531.7975)scale(0.16 -0.16)">
       <use xlink:href="#DejaVuSans-51"/>
       <use x="63.623047" xlink:href="#DejaVuSans-48"/>
       <use x="127.246094" xlink:href="#DejaVuSans-46"/>
       <use x="159.033203" xlink:href="#DejaVuSans-48"/>
      </g>
     </g>
    </g>
    <g id="xtick_6">
     <g id="line2d_11">
      <path clip-path="url(#pb3874edec4)" d="M 622.636364 512.64 
L 622.636364 69.12 
" style="fill:none;stroke:#b0b0b0;stroke-linecap:square;stroke-width:0.8;"/>
     </g>
     <g id="line2d_12">
      <g>
       <use style="stroke:#000000;stroke-width:0.8;" x="622.636364" xlink:href="#m901784303f" y="512.64"/>
      </g>
     </g>
     <g id="text_6">
      <!-- 80.0 -->
      <g transform="translate(604.823864 531.7975)scale(0.16 -0.16)">
       <use xlink:href="#DejaVuSans-56"/>
       <use x="63.623047" xlink:href="#DejaVuSans-48"/>
       <use x="127.246094" xlink:href="#DejaVuSans-46"/>
       <use x="159.033203" xlink:href="#DejaVuSans-48"/>
      </g>
     </g>
    </g>
    <g id="xtick_7">
     <g id="line2d_13">
      <defs>
       <path d="M 0 0 
L 0 2 
" id="mbed0eccd41" style="stroke:#000000;stroke-width:0.6;"/>
      </defs>
      <g>
       <use style="stroke:#000000;stroke-width:0.6;" x="93.060038" xlink:href="#mbed0eccd41" y="512.64"/>
      </g>
     </g>
    </g>
    <g id="xtick_8">
     <g id="line2d_14">
      <g>
       <use style="stroke:#000000;stroke-width:0.6;" x="115.363636" xlink:href="#mbed0eccd41" y="512.64"/>
      </g>
     </g>
    </g>
    <g id="xtick_9">
     <g id="line2d_15">
      <g>
       <use style="stroke:#000000;stroke-width:0.6;" x="133.587003" xlink:href="#mbed0eccd41" y="512.64"/>
      </g>
     </g>
    </g>
    <g id="xtick_10">
     <g id="line2d_16">
      <g>
       <use style="stroke:#000000;stroke-width:0.6;" x="148.99464" xlink:href="#mbed0eccd41" y="512.64"/>
      </g>
     </g>
    </g>
    <g id="xtick_11">
     <g id="line2d_17">
      <g>
       <use style="stroke:#000000;stroke-width:0.6;" x="162.341342" xlink:href="#mbed0eccd41" y="512.64"/>
      </g>
     </g>
    </g>
    <g id="xtick_12">
     <g id="line2d_18">
      <g>
       <use style="stroke:#000000;stroke-width:0.6;" x="174.113968" xlink:href="#mbed0eccd41" y="512.64"/>
      </g>
     </g>
    </g>
    <g id="xtick_13">
     <g id="line2d_19">
      <g>
       <use style="stroke:#000000;stroke-width:0.6;" x="253.926245" xlink:href="#mbed0eccd41" y="512.64"/>
      </g>
     </g>
    </g>
    <g id="xtick_14">
     <g id="line2d_20">
      <g>
       <use style="stroke:#000000;stroke-width:0.6;" x="294.45321" xlink:href="#mbed0eccd41" y="512.64"/>
      </g>
     </g>
    </g>
    <g id="xtick_15">
     <g id="line2d_21">
      <g>
       <use style="stroke:#000000;stroke-width:0.6;" x="323.207549" xlink:href="#mbed0eccd41" y="512.64"/>
      </g>
     </g>
    </g>
    <g id="xtick_16">
     <g id="line2d_22">
      <g>
       <use style="stroke:#000000;stroke-width:0.6;" x="345.511147" xlink:href="#mbed0eccd41" y="512.64"/>
      </g>
     </g>
    </g>
    <g id="xtick_17">
     <g id="line2d_23">
      <g>
       <use style="stroke:#000000;stroke-width:0.6;" x="363.734514" xlink:href="#mbed0eccd41" y="512.64"/>
      </g>
     </g>
    </g>
    <g id="xtick_18">
     <g id="line2d_24">
      <g>
       <use style="stroke:#000000;stroke-width:0.6;" x="379.142151" xlink:href="#mbed0eccd41" y="512.64"/>
      </g>
     </g>
    </g>
    <g id="xtick_19">
     <g id="line2d_25">
      <g>
       <use style="stroke:#000000;stroke-width:0.6;" x="392.488853" xlink:href="#mbed0eccd41" y="512.64"/>
      </g>
     </g>
    </g>
    <g id="xtick_20">
     <g id="line2d_26">
      <g>
       <use style="stroke:#000000;stroke-width:0.6;" x="404.261479" xlink:href="#mbed0eccd41" y="512.64"/>
      </g>
     </g>
    </g>
    <g id="xtick_21">
     <g id="line2d_27">
      <g>
       <use style="stroke:#000000;stroke-width:0.6;" x="484.073755" xlink:href="#mbed0eccd41" y="512.64"/>
      </g>
     </g>
    </g>
    <g id="xtick_22">
     <g id="line2d_28">
      <g>
       <use style="stroke:#000000;stroke-width:0.6;" x="524.60072" xlink:href="#mbed0eccd41" y="512.64"/>
      </g>
     </g>
    </g>
    <g id="xtick_23">
     <g id="line2d_29">
      <g>
       <use style="stroke:#000000;stroke-width:0.6;" x="553.355059" xlink:href="#mbed0eccd41" y="512.64"/>
      </g>
     </g>
    </g>
    <g id="xtick_24">
     <g id="line2d_30">
      <g>
       <use style="stroke:#000000;stroke-width:0.6;" x="575.658658" xlink:href="#mbed0eccd41" y="512.64"/>
      </g>
     </g>
    </g>
    <g id="xtick_25">
     <g id="line2d_31">
      <g>
       <use style="stroke:#000000;stroke-width:0.6;" x="593.882024" xlink:href="#mbed0eccd41" y="512.64"/>
      </g>
     </g>
    </g>
    <g id="xtick_26">
     <g id="line2d_32">
      <g>
       <use style="stroke:#000000;stroke-width:0.6;" x="609.289661" xlink:href="#mbed0eccd41" y="512.64"/>
      </g>
     </g>
    </g>
    <g id="xtick_27">
     <g id="line2d_33">
      <g>
       <use style="stroke:#000000;stroke-width:0.6;" x="622.636364" xlink:href="#mbed0eccd41" y="512.64"/>
      </g>
     </g>
    </g>
    <g id="xtick_28">
     <g id="line2d_34">
      <g>
       <use style="stroke:#000000;stroke-width:0.6;" x="634.408989" xlink:href="#mbed0eccd41" y="512.64"/>
      </g>
     </g>
    </g>
    <g id="text_7">
     <!-- Frequency -->
     <defs>
      <path d="M 9.8125 72.90625 
L 51.703125 72.90625 
L 51.703125 64.59375 
L 19.671875 64.59375 
L 19.671875 43.109375 
L 48.578125 43.109375 
L 48.578125 34.8125 
L 19.671875 34.8125 
L 19.671875 0 
L 9.8125 0 
z
" id="DejaVuSans-70"/>
      <path d="M 41.109375 46.296875 
Q 39.59375 47.171875 37.8125 47.578125 
Q 36.03125 48 33.890625 48 
Q 26.265625 48 22.1875 43.046875 
Q 18.109375 38.09375 18.109375 28.8125 
L 18.109375 0 
L 9.078125 0 
L 9.078125 54.6875 
L 18.109375 54.6875 
L 18.109375 46.1875 
Q 20.953125 51.171875 25.484375 53.578125 
Q 30.03125 56 36.53125 56 
Q 37.453125 56 38.578125 55.875 
Q 39.703125 55.765625 41.0625 55.515625 
z
" id="DejaVuSans-114"/>
      <path d="M 56.203125 29.59375 
L 56.203125 25.203125 
L 14.890625 25.203125 
Q 15.484375 15.921875 20.484375 11.0625 
Q 25.484375 6.203125 34.421875 6.203125 
Q 39.59375 6.203125 44.453125 7.46875 
Q 49.3125 8.734375 54.109375 11.28125 
L 54.109375 2.78125 
Q 49.265625 0.734375 44.1875 -0.34375 
Q 39.109375 -1.421875 33.890625 -1.421875 
Q 20.796875 -1.421875 13.15625 6.1875 
Q 5.515625 13.8125 5.515625 26.8125 
Q 5.515625 40.234375 12.765625 48.109375 
Q 20.015625 56 32.328125 56 
Q 43.359375 56 49.78125 48.890625 
Q 56.203125 41.796875 56.203125 29.59375 
z
M 47.21875 32.234375 
Q 47.125 39.59375 43.09375 43.984375 
Q 39.0625 48.390625 32.421875 48.390625 
Q 24.90625 48.390625 20.390625 44.140625 
Q 15.875 39.890625 15.1875 32.171875 
z
" id="DejaVuSans-101"/>
      <path d="M 14.796875 27.296875 
Q 14.796875 17.390625 18.875 11.75 
Q 22.953125 6.109375 30.078125 6.109375 
Q 37.203125 6.109375 41.296875 11.75 
Q 45.40625 17.390625 45.40625 27.296875 
Q 45.40625 37.203125 41.296875 42.84375 
Q 37.203125 48.484375 30.078125 48.484375 
Q 22.953125 48.484375 18.875 42.84375 
Q 14.796875 37.203125 14.796875 27.296875 
z
M 45.40625 8.203125 
Q 42.578125 3.328125 38.25 0.953125 
Q 33.9375 -1.421875 27.875 -1.421875 
Q 17.96875 -1.421875 11.734375 6.484375 
Q 5.515625 14.40625 5.515625 27.296875 
Q 5.515625 40.1875 11.734375 48.09375 
Q 17.96875 56 27.875 56 
Q 33.9375 56 38.25 53.625 
Q 42.578125 51.265625 45.40625 46.390625 
L 45.40625 54.6875 
L 54.390625 54.6875 
L 54.390625 -20.796875 
L 45.40625 -20.796875 
z
" id="DejaVuSans-113"/>
      <path d="M 8.5 21.578125 
L 8.5 54.6875 
L 17.484375 54.6875 
L 17.484375 21.921875 
Q 17.484375 14.15625 20.5 10.265625 
Q 23.53125 6.390625 29.59375 6.390625 
Q 36.859375 6.390625 41.078125 11.03125 
Q 45.3125 15.671875 45.3125 23.6875 
L 45.3125 54.6875 
L 54.296875 54.6875 
L 54.296875 0 
L 45.3125 0 
L 45.3125 8.40625 
Q 42.046875 3.421875 37.71875 1 
Q 33.40625 -1.421875 27.6875 -1.421875 
Q 18.265625 -1.421875 13.375 4.4375 
Q 8.5 10.296875 8.5 21.578125 
z
M 31.109375 56 
z
" id="DejaVuSans-117"/>
      <path d="M 54.890625 33.015625 
L 54.890625 0 
L 45.90625 0 
L 45.90625 32.71875 
Q 45.90625 40.484375 42.875 44.328125 
Q 39.84375 48.1875 33.796875 48.1875 
Q 26.515625 48.1875 22.3125 43.546875 
Q 18.109375 38.921875 18.109375 30.90625 
L 18.109375 0 
L 9.078125 0 
L 9.078125 54.6875 
L 18.109375 54.6875 
L 18.109375 46.1875 
Q 21.34375 51.125 25.703125 53.5625 
Q 30.078125 56 35.796875 56 
Q 45.21875 56 50.046875 50.171875 
Q 54.890625 44.34375 54.890625 33.015625 
z
" id="DejaVuSans-110"/>
      <path d="M 48.78125 52.59375 
L 48.78125 44.1875 
Q 44.96875 46.296875 41.140625 47.34375 
Q 37.3125 48.390625 33.40625 48.390625 
Q 24.65625 48.390625 19.8125 42.84375 
Q 14.984375 37.3125 14.984375 27.296875 
Q 14.984375 17.28125 19.8125 11.734375 
Q 24.65625 6.203125 33.40625 6.203125 
Q 37.3125 6.203125 41.140625 7.25 
Q 44.96875 8.296875 48.78125 10.40625 
L 48.78125 2.09375 
Q 45.015625 0.34375 40.984375 -0.53125 
Q 36.96875 -1.421875 32.421875 -1.421875 
Q 20.0625 -1.421875 12.78125 6.34375 
Q 5.515625 14.109375 5.515625 27.296875 
Q 5.515625 40.671875 12.859375 48.328125 
Q 20.21875 56 33.015625 56 
Q 37.15625 56 41.109375 55.140625 
Q 45.0625 54.296875 48.78125 52.59375 
z
" id="DejaVuSans-99"/>
      <path d="M 32.171875 -5.078125 
Q 28.375 -14.84375 24.75 -17.8125 
Q 21.140625 -20.796875 15.09375 -20.796875 
L 7.90625 -20.796875 
L 7.90625 -13.28125 
L 13.1875 -13.28125 
Q 16.890625 -13.28125 18.9375 -11.515625 
Q 21 -9.765625 23.484375 -3.21875 
L 25.09375 0.875 
L 2.984375 54.6875 
L 12.5 54.6875 
L 29.59375 11.921875 
L 46.6875 54.6875 
L 56.203125 54.6875 
z
" id="DejaVuSans-121"/>
     </defs>
     <g transform="translate(326.92375 551.2825)scale(0.16 -0.16)">
      <use xlink:href="#DejaVuSans-70"/>
      <use x="57.410156" xlink:href="#DejaVuSans-114"/>
      <use x="98.492188" xlink:href="#DejaVuSans-101"/>
      <use x="160.015625" xlink:href="#DejaVuSans-113"/>
      <use x="223.492188" xlink:href="#DejaVuSans-117"/>
      <use x="286.871094" xlink:href="#DejaVuSans-101"/>
      <use x="348.394531" xlink:href="#DejaVuSans-110"/>
      <use x="411.773438" xlink:href="#DejaVuSans-99"/>
      <use x="466.753906" xlink:href="#DejaVuSans-121"/>
     </g>
    </g>
   </g>
   <g id="matplotlib.axis_2">
    <g id="ytick_1">
     <g id="line2d_35">
      <path clip-path="url(#pb3874edec4)" d="M 90 496.861391 
L 648 496.861391 
" style="fill:none;stroke:#b0b0b0;stroke-linecap:square;stroke-width:0.8;"/>
     </g>
     <g id="line2d_36">
      <defs>
       <path d="M 0 0 
L -3.5 0 
" id="mbe261c1008" style="stroke:#000000;stroke-width:0.8;"/>
      </defs>
      <g>
       <use style="stroke:#000000;stroke-width:0.8;" x="90" xlink:href="#mbe261c1008" y="496.861391"/>
      </g>
     </g>
     <g id="text_8">
      <!-- 0.00 -->
      <g transform="translate(47.375 502.940141)scale(0.16 -0.16)">
       <use xlink:href="#DejaVuSans-48"/>
       <use x="63.623047" xlink:href="#DejaVuSans-46"/>
       <use x="95.410156" xlink:href="#DejaVuSans-48"/>
       <use x="159.033203" xlink:href="#DejaVuSans-48"/>
      </g>
     </g>
    </g>
    <g id="ytick_2">
     <g id="line2d_37">
      <path clip-path="url(#pb3874edec4)" d="M 90 423.434077 
L 648 423.434077 
" style="fill:none;stroke:#b0b0b0;stroke-linecap:square;stroke-width:0.8;"/>
     </g>
     <g id="line2d_38">
      <g>
       <use style="stroke:#000000;stroke-width:0.8;" x="90" xlink:href="#mbe261c1008" y="423.434077"/>
      </g>
     </g>
     <g id="text_9">
      <!-- 0.01 -->
      <g transform="translate(47.375 429.512827)scale(0.16 -0.16)">
       <use xlink:href="#DejaVuSans-48"/>
       <use x="63.623047" xlink:href="#DejaVuSans-46"/>
       <use x="95.410156" xlink:href="#DejaVuSans-48"/>
       <use x="159.033203" xlink:href="#DejaVuSans-49"/>
      </g>
     </g>
    </g>
    <g id="ytick_3">
     <g id="line2d_39">
      <path clip-path="url(#pb3874edec4)" d="M 90 350.006763 
L 648 350.006763 
" style="fill:none;stroke:#b0b0b0;stroke-linecap:square;stroke-width:0.8;"/>
     </g>
     <g id="line2d_40">
      <g>
       <use style="stroke:#000000;stroke-width:0.8;" x="90" xlink:href="#mbe261c1008" y="350.006763"/>
      </g>
     </g>
     <g id="text_10">
      <!-- 0.02 -->
      <defs>
       <path d="M 19.1875 8.296875 
L 53.609375 8.296875 
L 53.609375 0 
L 7.328125 0 
L 7.328125 8.296875 
Q 12.9375 14.109375 22.625 23.890625 
Q 32.328125 33.6875 34.8125 36.53125 
Q 39.546875 41.84375 41.421875 45.53125 
Q 43.3125 49.21875 43.3125 52.78125 
Q 43.3125 58.59375 39.234375 62.25 
Q 35.15625 65.921875 28.609375 65.921875 
Q 23.96875 65.921875 18.8125 64.3125 
Q 13.671875 62.703125 7.8125 59.421875 
L 7.8125 69.390625 
Q 13.765625 71.78125 18.9375 73 
Q 24.125 74.21875 28.421875 74.21875 
Q 39.75 74.21875 46.484375 68.546875 
Q 53.21875 62.890625 53.21875 53.421875 
Q 53.21875 48.921875 51.53125 44.890625 
Q 49.859375 40.875 45.40625 35.40625 
Q 44.1875 33.984375 37.640625 27.21875 
Q 31.109375 20.453125 19.1875 8.296875 
z
" id="DejaVuSans-50"/>
      </defs>
      <g transform="translate(47.375 356.085513)scale(0.16 -0.16)">
       <use xlink:href="#DejaVuSans-48"/>
       <use x="63.623047" xlink:href="#DejaVuSans-46"/>
       <use x="95.410156" xlink:href="#DejaVuSans-48"/>
       <use x="159.033203" xlink:href="#DejaVuSans-50"/>
      </g>
     </g>
    </g>
    <g id="ytick_4">
     <g id="line2d_41">
      <path clip-path="url(#pb3874edec4)" d="M 90 276.579449 
L 648 276.579449 
" style="fill:none;stroke:#b0b0b0;stroke-linecap:square;stroke-width:0.8;"/>
     </g>
     <g id="line2d_42">
      <g>
       <use style="stroke:#000000;stroke-width:0.8;" x="90" xlink:href="#mbe261c1008" y="276.579449"/>
      </g>
     </g>
     <g id="text_11">
      <!-- 0.03 -->
      <g transform="translate(47.375 282.658199)scale(0.16 -0.16)">
       <use xlink:href="#DejaVuSans-48"/>
       <use x="63.623047" xlink:href="#DejaVuSans-46"/>
       <use x="95.410156" xlink:href="#DejaVuSans-48"/>
       <use x="159.033203" xlink:href="#DejaVuSans-51"/>
      </g>
     </g>
    </g>
    <g id="ytick_5">
     <g id="line2d_43">
      <path clip-path="url(#pb3874edec4)" d="M 90 203.152135 
L 648 203.152135 
" style="fill:none;stroke:#b0b0b0;stroke-linecap:square;stroke-width:0.8;"/>
     </g>
     <g id="line2d_44">
      <g>
       <use style="stroke:#000000;stroke-width:0.8;" x="90" xlink:href="#mbe261c1008" y="203.152135"/>
      </g>
     </g>
     <g id="text_12">
      <!-- 0.04 -->
      <g transform="translate(47.375 209.230885)scale(0.16 -0.16)">
       <use xlink:href="#DejaVuSans-48"/>
       <use x="63.623047" xlink:href="#DejaVuSans-46"/>
       <use x="95.410156" xlink:href="#DejaVuSans-48"/>
       <use x="159.033203" xlink:href="#DejaVuSans-52"/>
      </g>
     </g>
    </g>
    <g id="ytick_6">
     <g id="line2d_45">
      <path clip-path="url(#pb3874edec4)" d="M 90 129.724821 
L 648 129.724821 
" style="fill:none;stroke:#b0b0b0;stroke-linecap:square;stroke-width:0.8;"/>
     </g>
     <g id="line2d_46">
      <g>
       <use style="stroke:#000000;stroke-width:0.8;" x="90" xlink:href="#mbe261c1008" y="129.724821"/>
      </g>
     </g>
     <g id="text_13">
      <!-- 0.05 -->
      <g transform="translate(47.375 135.803571)scale(0.16 -0.16)">
       <use xlink:href="#DejaVuSans-48"/>
       <use x="63.623047" xlink:href="#DejaVuSans-46"/>
       <use x="95.410156" xlink:href="#DejaVuSans-48"/>
       <use x="159.033203" xlink:href="#DejaVuSans-53"/>
      </g>
     </g>
    </g>
    <g id="text_14">
     <!-- Normalized spectral density -->
     <defs>
      <path d="M 9.8125 72.90625 
L 23.09375 72.90625 
L 55.421875 11.921875 
L 55.421875 72.90625 
L 64.984375 72.90625 
L 64.984375 0 
L 51.703125 0 
L 19.390625 60.984375 
L 19.390625 0 
L 9.8125 0 
z
" id="DejaVuSans-78"/>
      <path d="M 30.609375 48.390625 
Q 23.390625 48.390625 19.1875 42.75 
Q 14.984375 37.109375 14.984375 27.296875 
Q 14.984375 17.484375 19.15625 11.84375 
Q 23.34375 6.203125 30.609375 6.203125 
Q 37.796875 6.203125 41.984375 11.859375 
Q 46.1875 17.53125 46.1875 27.296875 
Q 46.1875 37.015625 41.984375 42.703125 
Q 37.796875 48.390625 30.609375 48.390625 
z
M 30.609375 56 
Q 42.328125 56 49.015625 48.375 
Q 55.71875 40.765625 55.71875 27.296875 
Q 55.71875 13.875 49.015625 6.21875 
Q 42.328125 -1.421875 30.609375 -1.421875 
Q 18.84375 -1.421875 12.171875 6.21875 
Q 5.515625 13.875 5.515625 27.296875 
Q 5.515625 40.765625 12.171875 48.375 
Q 18.84375 56 30.609375 56 
z
" id="DejaVuSans-111"/>
      <path d="M 52 44.1875 
Q 55.375 50.25 60.0625 53.125 
Q 64.75 56 71.09375 56 
Q 79.640625 56 84.28125 50.015625 
Q 88.921875 44.046875 88.921875 33.015625 
L 88.921875 0 
L 79.890625 0 
L 79.890625 32.71875 
Q 79.890625 40.578125 77.09375 44.375 
Q 74.3125 48.1875 68.609375 48.1875 
Q 61.625 48.1875 57.5625 43.546875 
Q 53.515625 38.921875 53.515625 30.90625 
L 53.515625 0 
L 44.484375 0 
L 44.484375 32.71875 
Q 44.484375 40.625 41.703125 44.40625 
Q 38.921875 48.1875 33.109375 48.1875 
Q 26.21875 48.1875 22.15625 43.53125 
Q 18.109375 38.875 18.109375 30.90625 
L 18.109375 0 
L 9.078125 0 
L 9.078125 54.6875 
L 18.109375 54.6875 
L 18.109375 46.1875 
Q 21.1875 51.21875 25.484375 53.609375 
Q 29.78125 56 35.6875 56 
Q 41.65625 56 45.828125 52.96875 
Q 50 49.953125 52 44.1875 
z
" id="DejaVuSans-109"/>
      <path d="M 34.28125 27.484375 
Q 23.390625 27.484375 19.1875 25 
Q 14.984375 22.515625 14.984375 16.5 
Q 14.984375 11.71875 18.140625 8.90625 
Q 21.296875 6.109375 26.703125 6.109375 
Q 34.1875 6.109375 38.703125 11.40625 
Q 43.21875 16.703125 43.21875 25.484375 
L 43.21875 27.484375 
z
M 52.203125 31.203125 
L 52.203125 0 
L 43.21875 0 
L 43.21875 8.296875 
Q 40.140625 3.328125 35.546875 0.953125 
Q 30.953125 -1.421875 24.3125 -1.421875 
Q 15.921875 -1.421875 10.953125 3.296875 
Q 6 8.015625 6 15.921875 
Q 6 25.140625 12.171875 29.828125 
Q 18.359375 34.515625 30.609375 34.515625 
L 43.21875 34.515625 
L 43.21875 35.40625 
Q 43.21875 41.609375 39.140625 45 
Q 35.0625 48.390625 27.6875 48.390625 
Q 23 48.390625 18.546875 47.265625 
Q 14.109375 46.140625 10.015625 43.890625 
L 10.015625 52.203125 
Q 14.9375 54.109375 19.578125 55.046875 
Q 24.21875 56 28.609375 56 
Q 40.484375 56 46.34375 49.84375 
Q 52.203125 43.703125 52.203125 31.203125 
z
" id="DejaVuSans-97"/>
      <path d="M 9.421875 75.984375 
L 18.40625 75.984375 
L 18.40625 0 
L 9.421875 0 
z
" id="DejaVuSans-108"/>
      <path d="M 9.421875 54.6875 
L 18.40625 54.6875 
L 18.40625 0 
L 9.421875 0 
z
M 9.421875 75.984375 
L 18.40625 75.984375 
L 18.40625 64.59375 
L 9.421875 64.59375 
z
" id="DejaVuSans-105"/>
      <path d="M 5.515625 54.6875 
L 48.1875 54.6875 
L 48.1875 46.484375 
L 14.40625 7.171875 
L 48.1875 7.171875 
L 48.1875 0 
L 4.296875 0 
L 4.296875 8.203125 
L 38.09375 47.515625 
L 5.515625 47.515625 
z
" id="DejaVuSans-122"/>
      <path d="M 45.40625 46.390625 
L 45.40625 75.984375 
L 54.390625 75.984375 
L 54.390625 0 
L 45.40625 0 
L 45.40625 8.203125 
Q 42.578125 3.328125 38.25 0.953125 
Q 33.9375 -1.421875 27.875 -1.421875 
Q 17.96875 -1.421875 11.734375 6.484375 
Q 5.515625 14.40625 5.515625 27.296875 
Q 5.515625 40.1875 11.734375 48.09375 
Q 17.96875 56 27.875 56 
Q 33.9375 56 38.25 53.625 
Q 42.578125 51.265625 45.40625 46.390625 
z
M 14.796875 27.296875 
Q 14.796875 17.390625 18.875 11.75 
Q 22.953125 6.109375 30.078125 6.109375 
Q 37.203125 6.109375 41.296875 11.75 
Q 45.40625 17.390625 45.40625 27.296875 
Q 45.40625 37.203125 41.296875 42.84375 
Q 37.203125 48.484375 30.078125 48.484375 
Q 22.953125 48.484375 18.875 42.84375 
Q 14.796875 37.203125 14.796875 27.296875 
z
" id="DejaVuSans-100"/>
      <path id="DejaVuSans-32"/>
      <path d="M 44.28125 53.078125 
L 44.28125 44.578125 
Q 40.484375 46.53125 36.375 47.5 
Q 32.28125 48.484375 27.875 48.484375 
Q 21.1875 48.484375 17.84375 46.4375 
Q 14.5 44.390625 14.5 40.28125 
Q 14.5 37.15625 16.890625 35.375 
Q 19.28125 33.59375 26.515625 31.984375 
L 29.59375 31.296875 
Q 39.15625 29.25 43.1875 25.515625 
Q 47.21875 21.78125 47.21875 15.09375 
Q 47.21875 7.46875 41.1875 3.015625 
Q 35.15625 -1.421875 24.609375 -1.421875 
Q 20.21875 -1.421875 15.453125 -0.5625 
Q 10.6875 0.296875 5.421875 2 
L 5.421875 11.28125 
Q 10.40625 8.6875 15.234375 7.390625 
Q 20.0625 6.109375 24.8125 6.109375 
Q 31.15625 6.109375 34.5625 8.28125 
Q 37.984375 10.453125 37.984375 14.40625 
Q 37.984375 18.0625 35.515625 20.015625 
Q 33.0625 21.96875 24.703125 23.78125 
L 21.578125 24.515625 
Q 13.234375 26.265625 9.515625 29.90625 
Q 5.8125 33.546875 5.8125 39.890625 
Q 5.8125 47.609375 11.28125 51.796875 
Q 16.75 56 26.8125 56 
Q 31.78125 56 36.171875 55.265625 
Q 40.578125 54.546875 44.28125 53.078125 
z
" id="DejaVuSans-115"/>
      <path d="M 18.109375 8.203125 
L 18.109375 -20.796875 
L 9.078125 -20.796875 
L 9.078125 54.6875 
L 18.109375 54.6875 
L 18.109375 46.390625 
Q 20.953125 51.265625 25.265625 53.625 
Q 29.59375 56 35.59375 56 
Q 45.5625 56 51.78125 48.09375 
Q 58.015625 40.1875 58.015625 27.296875 
Q 58.015625 14.40625 51.78125 6.484375 
Q 45.5625 -1.421875 35.59375 -1.421875 
Q 29.59375 -1.421875 25.265625 0.953125 
Q 20.953125 3.328125 18.109375 8.203125 
z
M 48.6875 27.296875 
Q 48.6875 37.203125 44.609375 42.84375 
Q 40.53125 48.484375 33.40625 48.484375 
Q 26.265625 48.484375 22.1875 42.84375 
Q 18.109375 37.203125 18.109375 27.296875 
Q 18.109375 17.390625 22.1875 11.75 
Q 26.265625 6.109375 33.40625 6.109375 
Q 40.53125 6.109375 44.609375 11.75 
Q 48.6875 17.390625 48.6875 27.296875 
z
" id="DejaVuSans-112"/>
      <path d="M 18.3125 70.21875 
L 18.3125 54.6875 
L 36.8125 54.6875 
L 36.8125 47.703125 
L 18.3125 47.703125 
L 18.3125 18.015625 
Q 18.3125 11.328125 20.140625 9.421875 
Q 21.96875 7.515625 27.59375 7.515625 
L 36.8125 7.515625 
L 36.8125 0 
L 27.59375 0 
Q 17.1875 0 13.234375 3.875 
Q 9.28125 7.765625 9.28125 18.015625 
L 9.28125 47.703125 
L 2.6875 47.703125 
L 2.6875 54.6875 
L 9.28125 54.6875 
L 9.28125 70.21875 
z
" id="DejaVuSans-116"/>
     </defs>
     <g transform="translate(40.0475 402.9225)rotate(-90)scale(0.16 -0.16)">
      <use xlink:href="#DejaVuSans-78"/>
      <use x="74.804688" xlink:href="#DejaVuSans-111"/>
      <use x="135.986328" xlink:href="#DejaVuSans-114"/>
      <use x="177.083984" xlink:href="#DejaVuSans-109"/>
      <use x="274.496094" xlink:href="#DejaVuSans-97"/>
      <use x="335.775391" xlink:href="#DejaVuSans-108"/>
      <use x="363.558594" xlink:href="#DejaVuSans-105"/>
      <use x="391.341797" xlink:href="#DejaVuSans-122"/>
      <use x="443.832031" xlink:href="#DejaVuSans-101"/>
      <use x="505.355469" xlink:href="#DejaVuSans-100"/>
      <use x="568.832031" xlink:href="#DejaVuSans-32"/>
      <use x="600.619141" xlink:href="#DejaVuSans-115"/>
      <use x="652.71875" xlink:href="#DejaVuSans-112"/>
      <use x="716.195312" xlink:href="#DejaVuSans-101"/>
      <use x="777.71875" xlink:href="#DejaVuSans-99"/>
      <use x="832.699219" xlink:href="#DejaVuSans-116"/>
      <use x="871.908203" xlink:href="#DejaVuSans-114"/>
      <use x="913.021484" xlink:href="#DejaVuSans-97"/>
      <use x="974.300781" xlink:href="#DejaVuSans-108"/>
      <use x="1002.083984" xlink:href="#DejaVuSans-32"/>
      <use x="1033.871094" xlink:href="#DejaVuSans-100"/>
      <use x="1097.347656" xlink:href="#DejaVuSans-101"/>
      <use x="1158.871094" xlink:href="#DejaVuSans-110"/>
      <use x="1222.25" xlink:href="#DejaVuSans-115"/>
      <use x="1274.349609" xlink:href="#DejaVuSans-105"/>
      <use x="1302.132812" xlink:href="#DejaVuSans-116"/>
      <use x="1341.341797" xlink:href="#DejaVuSans-121"/>
     </g>
    </g>
   </g>
   <g id="line2d_47">
    <path clip-path="url(#pb3874edec4)" d="M 115.363636 315.807731 
L 184.644941 321.121757 
L 225.171905 344.094733 
L 253.926245 359.357945 
L 276.229843 371.594425 
L 294.45321 381.182238 
L 309.860847 385.450154 
L 323.207549 384.629895 
L 334.980175 381.466832 
L 345.511147 382.267328 
L 355.037571 381.701338 
L 363.734514 380.11981 
L 371.734926 380.531724 
L 379.142151 381.591167 
L 386.038112 384.821279 
L 392.488853 384.500338 
L 398.548393 382.191748 
L 404.261479 384.294734 
L 409.665594 383.949739 
L 414.792451 382.421557 
L 419.669116 377.32613 
L 424.318875 375.354175 
L 428.761908 371.507543 
L 433.015818 366.123649 
L 437.096049 364.432907 
L 444.788444 350.9558 
L 448.423455 351.415684 
L 451.930895 354.990186 
L 455.319416 358.661991 
L 458.596818 366.292792 
L 461.770157 371.378641 
L 464.84584 379.001644 
L 467.829697 388.404514 
L 470.727053 392.041237 
L 473.542783 398.666309 
L 476.281359 405.60179 
L 478.946899 409.568606 
L 481.543195 413.871826 
L 484.073755 418.674861 
L 486.541826 421.995675 
L 488.95042 424.143683 
L 491.302335 427.194602 
L 493.600179 429.318937 
L 495.846381 433.676517 
L 498.043212 435.644199 
L 500.192796 440.000904 
L 502.297122 442.995592 
L 504.358057 445.320656 
L 506.377354 447.260543 
L 508.356662 448.417846 
L 512.201435 452.035998 
L 514.069748 454.304426 
L 515.903777 455.166453 
L 517.704759 457.311747 
L 519.473863 458.994374 
L 521.212199 459.860736 
L 522.920819 461.510778 
L 524.60072 462.753149 
L 526.252854 464.27588 
L 527.878122 465.391245 
L 529.477385 466.057616 
L 531.051461 467.13835 
L 532.601132 467.989328 
L 534.127144 469.273341 
L 535.630207 470.000218 
L 537.111001 470.934276 
L 540.008357 472.355669 
L 542.824087 473.452542 
L 544.202754 474.266416 
L 545.562664 474.607244 
L 546.904319 475.536545 
L 548.228203 476.170308 
L 549.534781 476.279156 
L 550.824499 476.668766 
L 553.355059 478.018165 
L 554.596713 478.621447 
L 555.82313 478.954616 
L 557.034682 479.630078 
L 559.414599 480.506901 
L 561.739164 481.589087 
L 562.881483 482.459583 
L 564.010894 482.995093 
L 565.127685 483.6736 
L 567.324516 484.558359 
L 568.405087 484.995155 
L 569.4741 485.638469 
L 570.531801 485.956157 
L 572.614205 486.965828 
L 573.639361 487.56208 
L 574.654109 487.750074 
L 575.658658 487.711652 
L 577.637966 487.925838 
L 578.613113 487.485049 
L 579.578838 487.360457 
L 581.48274 487.424026 
L 582.421261 487.23938 
L 583.351052 487.281856 
L 586.089628 487.883786 
L 587.874529 488.220527 
L 588.755168 488.47202 
L 589.628115 488.460467 
L 592.202123 489.023861 
L 593.045603 488.926026 
L 594.711505 489.265858 
L 595.534158 489.249212 
L 596.350095 489.414205 
L 597.159426 489.392083 
L 597.962256 489.631462 
L 598.758689 489.556652 
L 600.332765 489.711609 
L 601.882437 489.540443 
L 602.648355 489.848147 
L 603.408448 489.942972 
L 604.162805 489.904646 
L 605.65465 490.250462 
L 607.124556 490.249147 
L 607.851481 490.263932 
L 608.573158 490.548164 
L 609.289661 490.571541 
L 610.001065 490.749667 
L 612.105391 490.782964 
L 613.484058 491.002075 
L 614.166326 490.961658 
L 616.185623 491.302974 
L 616.849757 491.280735 
L 619.463024 491.569323 
L 622.636364 491.832861 
L 622.636364 491.832861 
" style="fill:none;stroke:#1f77b4;stroke-linecap:square;stroke-opacity:0.5;stroke-width:1.5;"/>
   </g>
   <g id="line2d_48">
    <path clip-path="url(#pb3874edec4)" d="M 115.363636 220.850611 
L 184.644941 227.077142 
L 225.171905 265.361614 
L 253.926245 291.554076 
L 276.229843 305.142263 
L 294.45321 318.829287 
L 309.860847 325.740901 
L 323.207549 334.604711 
L 334.980175 337.603154 
L 345.511147 343.249782 
L 355.037571 345.642916 
L 363.734514 352.36767 
L 371.734926 356.940981 
L 379.142151 358.668419 
L 386.038112 362.792114 
L 392.488853 365.467247 
L 398.548393 371.29755 
L 404.261479 373.59141 
L 409.665594 377.96492 
L 414.792451 381.329288 
L 419.669116 387.476665 
L 424.318875 390.554993 
L 428.761908 392.05073 
L 433.015818 394.966007 
L 437.096049 398.135989 
L 441.01623 400.312315 
L 444.788444 405.511452 
L 448.423455 407.213359 
L 451.930895 410.636854 
L 455.319416 412.856057 
L 458.596818 416.717217 
L 461.770157 419.332238 
L 464.84584 422.355664 
L 467.829697 424.523494 
L 470.727053 427.79286 
L 473.542783 430.383736 
L 476.281359 432.370102 
L 478.946899 434.920906 
L 481.543195 436.611199 
L 484.073755 438.531695 
L 486.541826 440.568184 
L 488.95042 442.282463 
L 491.302335 444.162466 
L 493.600179 446.698833 
L 495.846381 448.097456 
L 498.043212 450.124143 
L 500.192796 451.27334 
L 502.297122 452.755509 
L 504.358057 454.620968 
L 506.377354 455.161491 
L 508.356662 456.660902 
L 510.297534 457.502906 
L 514.069748 460.000716 
L 515.903777 460.863808 
L 517.704759 461.8482 
L 519.473863 462.949913 
L 521.212199 464.20291 
L 522.920819 464.665999 
L 524.60072 465.628646 
L 527.878122 467.318236 
L 531.051461 469.022767 
L 532.601132 469.439676 
L 535.630207 470.637843 
L 538.570177 472.438251 
L 541.426137 472.877431 
L 542.824087 473.22558 
L 544.202754 473.769604 
L 545.562664 474.449529 
L 553.355059 476.309568 
L 554.596713 477.153186 
L 555.82313 477.546128 
L 558.231724 478.634926 
L 559.414599 478.719061 
L 560.583639 479.244833 
L 561.739164 479.967214 
L 564.010894 480.543126 
L 565.127685 481.199764 
L 567.324516 482.202401 
L 568.405087 482.289218 
L 569.4741 482.67204 
L 570.531801 483.200138 
L 571.578426 483.422926 
L 573.639361 484.68067 
L 574.654109 484.804355 
L 575.658658 484.704538 
L 576.653211 485.022922 
L 578.613113 484.838354 
L 580.535322 484.671598 
L 581.48274 484.785638 
L 582.421261 485.042394 
L 583.351052 484.977261 
L 590.493504 487.04312 
L 591.351464 487.472251 
L 592.202123 487.685866 
L 593.882024 487.654701 
L 594.711505 487.852001 
L 595.534158 487.904229 
L 596.350095 487.584679 
L 598.758689 487.616479 
L 599.548826 487.374037 
L 602.648355 487.648897 
L 604.911511 487.782121 
L 607.124556 488.227002 
L 607.851481 488.075541 
L 609.289661 488.26637 
L 610.001065 488.495434 
L 610.707441 488.320133 
L 611.40886 488.372071 
L 614.166326 489.180656 
L 614.843968 488.978565 
L 616.185623 489.039488 
L 616.849757 489.336976 
L 618.164931 489.272859 
L 618.816085 489.563543 
L 620.744475 489.833262 
L 622.636364 489.912744 
L 622.636364 489.912744 
" style="fill:none;stroke:#ff7f0e;stroke-dasharray:5,8.25;stroke-dashoffset:0;stroke-width:5;"/>
   </g>
   <g id="line2d_49">
    <path clip-path="url(#pb3874edec4)" d="M 115.363636 267.822527 
L 184.644941 286.691842 
L 225.171905 322.071539 
L 253.926245 346.561189 
L 276.229843 358.384806 
L 294.45321 366.027344 
L 309.860847 365.970182 
L 323.207549 365.476814 
L 345.511147 370.705923 
L 355.037571 372.216719 
L 363.734514 373.23947 
L 371.734926 379.202016 
L 379.142151 383.764241 
L 386.038112 388.787137 
L 392.488853 393.945385 
L 398.548393 398.390627 
L 404.261479 402.308016 
L 409.665594 406.322889 
L 414.792451 409.766476 
L 419.669116 413.327145 
L 424.318875 414.775513 
L 428.761908 416.937403 
L 433.015818 417.606271 
L 437.096049 418.01201 
L 441.01623 417.860861 
L 444.788444 418.574377 
L 448.423455 419.032348 
L 451.930895 417.817665 
L 455.319416 418.701465 
L 458.596818 421.132091 
L 461.770157 421.016139 
L 464.84584 420.379432 
L 467.829697 420.270881 
L 470.727053 422.093282 
L 476.281359 423.064249 
L 478.946899 424.821969 
L 481.543195 425.877252 
L 484.073755 427.464811 
L 486.541826 428.344367 
L 488.95042 430.410014 
L 491.302335 430.697495 
L 493.600179 432.874361 
L 495.846381 432.606115 
L 498.043212 433.891711 
L 500.192796 436.149269 
L 502.297122 437.472492 
L 504.358057 438.952293 
L 506.377354 441.188462 
L 508.356662 442.964142 
L 510.297534 443.653945 
L 512.201435 445.409067 
L 517.704759 448.663318 
L 519.473863 450.209026 
L 521.212199 451.284074 
L 526.252854 454.98063 
L 527.878122 455.719894 
L 529.477385 456.116025 
L 531.051461 457.323925 
L 532.601132 458.67777 
L 534.127144 459.235151 
L 535.630207 460.306048 
L 538.570177 462.066588 
L 540.008357 462.093672 
L 542.824087 463.503273 
L 544.202754 464.316629 
L 545.562664 464.766894 
L 546.904319 465.867327 
L 548.228203 466.778483 
L 549.534781 467.142658 
L 552.097788 467.707578 
L 553.355059 468.042332 
L 554.596713 468.529203 
L 558.231724 471.251916 
L 559.414599 471.557176 
L 560.583639 472.286444 
L 561.739164 472.72842 
L 564.010894 473.84794 
L 565.127685 474.305236 
L 566.232136 475.024383 
L 567.324516 475.872508 
L 569.4741 477.035358 
L 571.578426 477.735868 
L 573.639361 478.875847 
L 574.654109 479.127029 
L 575.658658 479.080469 
L 576.653211 479.510763 
L 577.637966 479.649917 
L 580.535322 479.546131 
L 581.48274 480.075072 
L 582.421261 479.885652 
L 583.351052 480.043781 
L 584.272273 480.556359 
L 585.185081 480.760737 
L 586.986063 481.384352 
L 587.874529 481.571925 
L 588.755168 481.99694 
L 590.493504 483.07709 
L 592.202123 484.028708 
L 593.882024 484.160632 
L 594.711505 484.568148 
L 595.534158 484.246626 
L 596.350095 484.315138 
L 598.758689 483.661329 
L 599.548826 483.916531 
L 601.110604 483.928651 
L 601.882437 484.256161 
L 602.648355 484.147055 
L 603.408448 484.358719 
L 604.162805 484.257279 
L 604.911511 484.578771 
L 608.573158 485.023668 
L 609.289661 485.412126 
L 610.707441 485.58484 
L 611.40886 485.56298 
L 616.185623 486.406003 
L 617.509507 486.754187 
L 618.816085 486.985504 
L 619.463024 487.037647 
L 620.744475 487.282435 
L 621.379092 487.349555 
L 622.009705 487.593315 
L 622.636364 487.595264 
L 622.636364 487.595264 
" style="fill:none;stroke:#2ca02c;stroke-linecap:square;stroke-opacity:0.5;stroke-width:1.5;"/>
   </g>
   <g id="line2d_50">
    <path clip-path="url(#pb3874edec4)" d="M 115.363636 307.831815 
L 184.644941 305.648962 
L 225.171905 325.172662 
L 253.926245 348.202208 
L 276.229843 361.70758 
L 294.45321 371.753197 
L 309.860847 374.442488 
L 323.207549 375.521578 
L 334.980175 378.295755 
L 345.511147 376.460377 
L 355.037571 378.237699 
L 363.734514 374.370418 
L 371.734926 362.619187 
L 379.142151 349.458643 
L 386.038112 319.611487 
L 392.488853 296.481471 
L 398.548393 269.207422 
L 404.261479 253.816455 
L 409.665594 273.258034 
L 414.792451 292.641186 
L 424.318875 346.52681 
L 428.761908 367.571485 
L 433.015818 381.345998 
L 437.096049 390.231836 
L 441.01623 399.256378 
L 444.788444 400.693244 
L 448.423455 404.555105 
L 451.930895 407.74059 
L 455.319416 407.403557 
L 458.596818 411.564038 
L 461.770157 412.762772 
L 464.84584 412.210233 
L 467.829697 411.394382 
L 470.727053 414.86941 
L 473.542783 418.935452 
L 476.281359 423.461209 
L 478.946899 426.613331 
L 481.543195 430.0718 
L 484.073755 434.07573 
L 486.541826 439.084392 
L 488.95042 442.523616 
L 491.302335 443.79539 
L 493.600179 446.486608 
L 495.846381 449.387736 
L 498.043212 451.418907 
L 500.192796 452.662143 
L 502.297122 455.071495 
L 504.358057 455.644993 
L 506.377354 457.225601 
L 508.356662 458.371485 
L 510.297534 459.772678 
L 514.069748 461.561225 
L 515.903777 462.99253 
L 517.704759 463.935072 
L 519.473863 465.429996 
L 522.920819 467.8186 
L 526.252854 470.216859 
L 527.878122 470.810264 
L 529.477385 471.246793 
L 532.601132 473.056018 
L 534.127144 473.495465 
L 535.630207 474.241363 
L 537.111001 475.452374 
L 538.570177 475.372889 
L 540.008357 476.043486 
L 541.426137 476.935424 
L 542.824087 477.145957 
L 544.202754 478.030846 
L 545.562664 478.241127 
L 548.228203 479.006315 
L 549.534781 480.045577 
L 550.824499 479.911146 
L 552.097788 480.497209 
L 553.355059 480.69374 
L 555.82313 481.692057 
L 558.231724 482.403729 
L 559.414599 483.075761 
L 560.583639 483.378082 
L 561.739164 483.992709 
L 562.881483 484.000524 
L 564.010894 484.721989 
L 565.127685 485.249319 
L 567.324516 485.848976 
L 569.4741 486.826472 
L 570.531801 487.005184 
L 571.578426 487.402016 
L 572.614205 487.963367 
L 574.654109 488.383752 
L 576.653211 488.115036 
L 577.637966 488.350505 
L 578.613113 488.358743 
L 579.578838 488.479078 
L 582.421261 488.211248 
L 583.351052 488.289859 
L 584.272273 488.600701 
L 585.185081 488.599312 
L 586.089628 488.905468 
L 586.986063 489.032563 
L 587.874529 489.011849 
L 591.351464 489.726336 
L 592.202123 490.10347 
L 594.711505 489.93652 
L 595.534158 489.984425 
L 596.350095 490.381547 
L 597.962256 490.073095 
L 598.758689 490.054889 
L 600.332765 490.144207 
L 602.648355 490.304421 
L 603.408448 490.333824 
L 604.162805 490.517832 
L 604.911511 490.340965 
L 605.65465 490.652043 
L 606.392305 490.552528 
L 607.124556 490.742391 
L 608.573158 490.819731 
L 610.001065 490.927939 
L 612.105391 490.89047 
L 613.484058 491.348083 
L 614.166326 491.182064 
L 614.843968 491.454904 
L 615.517046 491.321158 
L 616.185623 491.426202 
L 616.849757 491.656842 
L 618.164931 491.569407 
L 620.105803 491.919874 
L 620.744475 491.626813 
L 622.009705 491.829548 
L 622.636364 491.978058 
L 622.636364 491.978058 
" style="fill:none;stroke:#d62728;stroke-linecap:square;stroke-opacity:0.5;stroke-width:1.5;"/>
   </g>
   <g id="line2d_51">
    <path clip-path="url(#pb3874edec4)" d="M 115.363636 89.28 
L 184.644941 147.953849 
L 225.171905 238.623916 
L 253.926245 289.1142 
L 276.229843 323.172147 
L 294.45321 346.301115 
L 309.860847 357.965673 
L 323.207549 364.946801 
L 334.980175 371.318743 
L 345.511147 376.266241 
L 355.037571 381.852268 
L 363.734514 384.345334 
L 371.734926 389.390796 
L 379.142151 393.481255 
L 386.038112 397.846042 
L 392.488853 402.193529 
L 398.548393 403.541005 
L 404.261479 407.192804 
L 409.665594 408.796141 
L 414.792451 411.667079 
L 419.669116 413.944248 
L 424.318875 414.595815 
L 428.761908 416.525102 
L 433.015818 417.980266 
L 437.096049 417.190229 
L 441.01623 419.130537 
L 444.788444 419.632914 
L 448.423455 420.528229 
L 451.930895 422.175515 
L 455.319416 424.317064 
L 458.596818 424.259827 
L 461.770157 426.906313 
L 464.84584 427.891484 
L 467.829697 429.94705 
L 470.727053 432.204303 
L 473.542783 432.873237 
L 476.281359 433.852591 
L 478.946899 435.62412 
L 481.543195 436.839764 
L 484.073755 438.439788 
L 486.541826 439.447568 
L 488.95042 440.560246 
L 491.302335 441.363275 
L 493.600179 442.648459 
L 495.846381 443.709804 
L 498.043212 445.790683 
L 500.192796 446.837525 
L 502.297122 448.20496 
L 504.358057 448.663476 
L 506.377354 450.272747 
L 508.356662 450.470892 
L 512.201435 453.077657 
L 514.069748 454.125222 
L 515.903777 455.451434 
L 517.704759 455.791807 
L 519.473863 456.816695 
L 521.212199 458.067658 
L 522.920819 458.886761 
L 524.60072 459.557586 
L 527.878122 461.22313 
L 529.477385 461.671215 
L 531.051461 462.789957 
L 532.601132 464.030145 
L 534.127144 464.377063 
L 535.630207 464.9152 
L 537.111001 465.737404 
L 538.570177 466.341533 
L 540.008357 467.094474 
L 541.426137 467.491762 
L 544.202754 468.940817 
L 545.562664 468.831786 
L 546.904319 469.793274 
L 548.228203 470.21241 
L 549.534781 471.022537 
L 550.824499 471.240196 
L 552.097788 471.323426 
L 553.355059 471.67275 
L 554.596713 472.336973 
L 555.82313 473.343261 
L 558.231724 474.008904 
L 559.414599 474.797669 
L 560.583639 475.066357 
L 562.881483 476.538825 
L 564.010894 477.214446 
L 566.232136 477.662416 
L 567.324516 478.253848 
L 568.405087 479.010775 
L 569.4741 479.350277 
L 570.531801 479.992247 
L 573.639361 481.160161 
L 574.654109 481.335766 
L 575.658658 481.334589 
L 576.653211 481.726821 
L 580.535322 481.610835 
L 581.48274 481.574416 
L 583.351052 482.35227 
L 584.272273 482.300594 
L 586.089628 482.788764 
L 588.755168 484.049898 
L 589.628115 484.309043 
L 590.493504 484.7605 
L 591.351464 485.053141 
L 592.202123 485.513362 
L 593.882024 485.570919 
L 594.711505 485.766364 
L 595.534158 485.680289 
L 596.350095 485.368772 
L 598.758689 485.420756 
L 599.548826 485.124389 
L 600.332765 485.120952 
L 601.110604 485.259452 
L 601.882437 485.165524 
L 602.648355 485.231065 
L 603.408448 485.650084 
L 604.162805 485.314136 
L 604.911511 485.387862 
L 605.65465 485.678499 
L 606.392305 485.717876 
L 607.124556 485.882538 
L 607.851481 485.9321 
L 608.573158 486.18432 
L 610.001065 486.169302 
L 610.707441 486.357914 
L 612.105391 486.508509 
L 612.797102 486.96042 
L 613.484058 486.960178 
L 614.166326 487.144116 
L 614.843968 487.048227 
L 615.517046 487.298991 
L 617.509507 487.327679 
L 618.164931 487.663188 
L 620.744475 488.104962 
L 622.636364 488.107063 
L 622.636364 488.107063 
" style="fill:none;stroke:#9467bd;stroke-linecap:square;stroke-opacity:0.5;stroke-width:1.5;"/>
   </g>
   <g id="line2d_52">
    <path clip-path="url(#pb3874edec4)" d="M 115.363636 139.158392 
L 184.644941 119.147946 
L 225.171905 146.705424 
L 253.926245 192.178279 
L 276.229843 236.267851 
L 294.45321 266.621861 
L 309.860847 290.088167 
L 323.207549 303.847971 
L 334.980175 322.149905 
L 345.511147 332.785193 
L 355.037571 343.355966 
L 371.734926 355.22283 
L 379.142151 361.36014 
L 386.038112 369.671543 
L 392.488853 374.281386 
L 398.548393 381.113233 
L 404.261479 389.129622 
L 409.665594 394.399984 
L 414.792451 398.376484 
L 419.669116 403.48997 
L 424.318875 408.795762 
L 428.761908 411.920414 
L 433.015818 415.134167 
L 437.096049 418.854731 
L 444.788444 423.68373 
L 448.423455 425.76631 
L 451.930895 428.137899 
L 455.319416 430.221152 
L 458.596818 432.620951 
L 461.770157 435.129841 
L 464.84584 436.051498 
L 470.727053 441.030668 
L 473.542783 442.806488 
L 476.281359 445.389592 
L 478.946899 447.430071 
L 481.543195 448.522108 
L 484.073755 450.704649 
L 486.541826 451.50456 
L 488.95042 453.142441 
L 491.302335 455.03881 
L 493.600179 456.558976 
L 495.846381 458.621016 
L 498.043212 459.412195 
L 500.192796 460.733958 
L 504.358057 462.472466 
L 506.377354 463.521602 
L 508.356662 463.769723 
L 510.297534 465.254419 
L 512.201435 465.358903 
L 514.069748 466.431941 
L 515.903777 468.024997 
L 517.704759 468.43741 
L 519.473863 469.34821 
L 521.212199 469.231889 
L 524.60072 471.051925 
L 527.878122 472.428378 
L 529.477385 473.107748 
L 531.051461 473.408353 
L 532.601132 474.050244 
L 535.630207 474.552752 
L 537.111001 475.00623 
L 541.426137 475.980335 
L 544.202754 477.100634 
L 545.562664 477.027268 
L 546.904319 477.103534 
L 548.228203 477.552831 
L 549.534781 478.260302 
L 550.824499 478.658619 
L 552.097788 478.344581 
L 555.82313 479.913793 
L 557.034682 479.825716 
L 560.583639 481.383843 
L 561.739164 481.657371 
L 562.881483 482.07178 
L 566.232136 482.652709 
L 567.324516 483.440857 
L 568.405087 483.785625 
L 569.4741 483.648104 
L 572.614205 484.67818 
L 573.639361 484.77395 
L 574.654109 485.258797 
L 575.658658 485.130321 
L 576.653211 485.722286 
L 581.48274 485.708967 
L 583.351052 486.202239 
L 584.272273 486.585202 
L 586.089628 486.633685 
L 587.874529 487.534087 
L 588.755168 487.614778 
L 590.493504 488.645555 
L 593.045603 489.11338 
L 597.159426 489.090519 
L 597.962256 488.778958 
L 598.758689 488.7211 
L 599.548826 488.496961 
L 600.332765 488.397313 
L 601.110604 488.60682 
L 601.882437 488.451817 
L 604.162805 488.662778 
L 604.911511 488.881788 
L 605.65465 488.747789 
L 606.392305 488.91175 
L 607.851481 488.893406 
L 608.573158 489.148167 
L 610.707441 489.164496 
L 611.40886 489.38801 
L 612.105391 489.396749 
L 612.797102 489.687947 
L 614.166326 489.484843 
L 614.843968 489.623126 
L 615.517046 489.594634 
L 616.185623 489.850654 
L 619.463024 490.075869 
L 620.105803 490.295253 
L 620.744475 490.326596 
L 621.379092 490.576188 
L 622.636364 490.685238 
L 622.636364 490.685238 
" style="fill:none;stroke:#8c564b;stroke-linecap:square;stroke-opacity:0.5;stroke-width:1.5;"/>
   </g>
   <g id="line2d_53">
    <path clip-path="url(#pb3874edec4)" d="M 115.363636 350.223563 
L 184.644941 365.287588 
L 225.171905 377.827094 
L 253.926245 390.840415 
L 276.229843 398.972161 
L 294.45321 401.010621 
L 309.860847 398.217712 
L 323.207549 400.535281 
L 334.980175 402.093807 
L 345.511147 402.865783 
L 355.037571 404.031899 
L 363.734514 403.437049 
L 371.734926 408.362183 
L 379.142151 408.927282 
L 386.038112 410.336431 
L 392.488853 410.962466 
L 398.548393 417.097377 
L 404.261479 419.755976 
L 409.665594 421.416393 
L 414.792451 423.863002 
L 419.669116 425.117007 
L 424.318875 425.89406 
L 433.015818 422.59895 
L 437.096049 421.402843 
L 441.01623 417.193434 
L 444.788444 415.451235 
L 448.423455 412.037258 
L 451.930895 406.651948 
L 455.319416 400.709904 
L 458.596818 402.75973 
L 461.770157 399.847344 
L 464.84584 393.490631 
L 467.829697 383.581117 
L 470.727053 382.84698 
L 476.281359 385.620534 
L 478.946899 384.141252 
L 481.543195 380.373714 
L 484.073755 380.030574 
L 486.541826 384.511192 
L 488.95042 384.972186 
L 493.600179 393.435477 
L 495.846381 397.052401 
L 498.043212 401.477302 
L 500.192796 406.494767 
L 502.297122 408.396728 
L 504.358057 413.828475 
L 508.356662 423.774005 
L 510.297534 427.549405 
L 512.201435 430.778021 
L 514.069748 434.870092 
L 515.903777 439.684519 
L 517.704759 441.893699 
L 519.473863 443.742805 
L 521.212199 447.713393 
L 522.920819 449.285876 
L 524.60072 451.484919 
L 526.252854 453.011126 
L 529.477385 455.115777 
L 531.051461 455.798379 
L 532.601132 458.01346 
L 534.127144 459.323992 
L 535.630207 460.153257 
L 537.111001 460.53151 
L 540.008357 462.155004 
L 541.426137 463.794206 
L 544.202754 465.290014 
L 545.562664 466.171844 
L 546.904319 467.286509 
L 549.534781 467.439122 
L 550.824499 468.201411 
L 553.355059 469.39419 
L 554.596713 469.507983 
L 555.82313 469.982177 
L 558.231724 472.277244 
L 559.414599 472.462606 
L 560.583639 473.575974 
L 561.739164 473.583509 
L 562.881483 475.33759 
L 564.010894 475.46524 
L 567.324516 478.252263 
L 568.405087 478.895143 
L 570.531801 479.936221 
L 571.578426 481.215662 
L 572.614205 481.929197 
L 573.639361 483.018245 
L 574.654109 483.594604 
L 575.658658 482.606991 
L 576.653211 482.732096 
L 577.637966 482.974121 
L 578.613113 482.923585 
L 580.535322 482.381213 
L 581.48274 482.706941 
L 582.421261 482.557634 
L 583.351052 483.498688 
L 584.272273 483.856715 
L 585.185081 483.852845 
L 586.089628 484.179475 
L 586.986063 484.670978 
L 587.874529 484.744286 
L 589.628115 485.831486 
L 590.493504 486.396883 
L 591.351464 486.398594 
L 592.202123 486.531594 
L 593.045603 486.856723 
L 593.882024 486.767572 
L 594.711505 487.055903 
L 595.534158 487.142626 
L 596.350095 486.969098 
L 597.159426 486.998267 
L 597.962256 486.81839 
L 598.758689 487.062848 
L 599.548826 487.001968 
L 600.332765 487.076589 
L 601.110604 487.407463 
L 601.882437 487.460097 
L 602.648355 487.848318 
L 604.162805 488.065703 
L 604.911511 487.778554 
L 605.65465 488.135094 
L 609.289661 488.910489 
L 610.001065 488.82644 
L 612.105391 489.346779 
L 612.797102 489.166421 
L 613.484058 489.209543 
L 614.166326 489.505699 
L 615.517046 489.53107 
L 616.185623 489.898709 
L 616.849757 489.893354 
L 617.509507 490.203798 
L 618.816085 490.104984 
L 620.105803 490.435178 
L 621.379092 490.616923 
L 622.009705 490.593355 
L 622.636364 490.764745 
L 622.636364 490.764745 
" style="fill:none;stroke:#e377c2;stroke-linecap:square;stroke-opacity:0.5;stroke-width:1.5;"/>
   </g>
   <g id="line2d_54">
    <path clip-path="url(#pb3874edec4)" d="M 115.363636 284.265503 
L 184.644941 271.541768 
L 225.171905 282.538378 
L 253.926245 293.558097 
L 276.229843 306.534169 
L 294.45321 307.409253 
L 309.860847 304.337045 
L 323.207549 306.719511 
L 334.980175 303.157342 
L 345.511147 296.317941 
L 355.037571 284.838478 
L 363.734514 260.200922 
L 371.734926 240.635003 
L 379.142151 227.296024 
L 386.038112 235.911217 
L 392.488853 280.103569 
L 398.548393 331.092804 
L 404.261479 359.226145 
L 409.665594 376.25898 
L 414.792451 384.924758 
L 419.669116 394.042107 
L 424.318875 400.157405 
L 428.761908 402.301137 
L 433.015818 401.517496 
L 437.096049 403.762361 
L 441.01623 407.357634 
L 444.788444 408.579269 
L 451.930895 415.813103 
L 455.319416 418.286354 
L 458.596818 420.010339 
L 461.770157 426.293447 
L 464.84584 433.397993 
L 467.829697 436.139174 
L 470.727053 439.425001 
L 473.542783 442.2734 
L 478.946899 447.027571 
L 481.543195 449.273331 
L 484.073755 450.130869 
L 486.541826 452.6646 
L 488.95042 454.092238 
L 491.302335 455.868928 
L 493.600179 456.764519 
L 495.846381 458.302666 
L 498.043212 460.625432 
L 500.192796 461.486617 
L 502.297122 462.477965 
L 504.358057 463.833913 
L 506.377354 465.021755 
L 508.356662 466.72692 
L 510.297534 467.23878 
L 512.201435 468.605748 
L 514.069748 469.425719 
L 515.903777 470.755184 
L 517.704759 471.344196 
L 522.920819 473.98224 
L 524.60072 474.679893 
L 526.252854 474.736609 
L 527.878122 475.952181 
L 529.477385 476.211704 
L 531.051461 477.087188 
L 532.601132 477.536872 
L 534.127144 478.128605 
L 535.630207 478.389073 
L 537.111001 478.458807 
L 538.570177 479.478206 
L 540.008357 479.621863 
L 541.426137 480.540081 
L 542.824087 481.002666 
L 544.202754 481.066257 
L 548.228203 482.196518 
L 549.534781 482.234393 
L 550.824499 482.955757 
L 552.097788 482.95014 
L 554.596713 483.269677 
L 555.82313 483.958908 
L 557.034682 484.168306 
L 559.414599 484.968273 
L 560.583639 485.042025 
L 561.739164 485.356754 
L 562.881483 486.057693 
L 565.127685 486.050438 
L 566.232136 486.407841 
L 567.324516 486.915526 
L 569.4741 487.611507 
L 570.531801 487.707949 
L 571.578426 488.126918 
L 572.614205 488.060083 
L 573.639361 488.502794 
L 574.654109 488.76065 
L 575.658658 488.505542 
L 577.637966 488.818182 
L 578.613113 488.572629 
L 579.578838 488.851589 
L 580.535322 488.999779 
L 581.48274 489.008083 
L 582.421261 489.132218 
L 583.351052 489.387413 
L 585.185081 489.533625 
L 586.089628 489.701113 
L 586.986063 489.654302 
L 590.493504 490.574127 
L 592.202123 490.828098 
L 593.882024 491.123853 
L 595.534158 491.100472 
L 596.350095 490.954238 
L 597.159426 490.944781 
L 597.962256 490.67776 
L 600.332765 490.863594 
L 601.110604 490.833888 
L 601.882437 490.957736 
L 602.648355 490.934707 
L 604.162805 491.150773 
L 605.65465 491.011435 
L 606.392305 491.03278 
L 607.124556 491.39894 
L 607.851481 491.208407 
L 608.573158 491.346327 
L 610.707441 491.385062 
L 612.105391 491.641138 
L 612.797102 491.562944 
L 615.517046 491.853765 
L 616.185623 492.105301 
L 618.164931 492.122807 
L 620.105803 492.199268 
L 621.379092 492.48 
L 622.636364 492.471498 
L 622.636364 492.471498 
" style="fill:none;stroke:#7f7f7f;stroke-linecap:square;stroke-opacity:0.5;stroke-width:1.5;"/>
   </g>
   <g id="patch_3">
    <path d="M 90 512.64 
L 90 69.12 
" style="fill:none;stroke:#000000;stroke-linecap:square;stroke-linejoin:miter;stroke-width:0.8;"/>
   </g>
   <g id="patch_4">
    <path d="M 648 512.64 
L 648 69.12 
" style="fill:none;stroke:#000000;stroke-linecap:square;stroke-linejoin:miter;stroke-width:0.8;"/>
   </g>
   <g id="patch_5">
    <path d="M 90 512.64 
L 648 512.64 
" style="fill:none;stroke:#000000;stroke-linecap:square;stroke-linejoin:miter;stroke-width:0.8;"/>
   </g>
   <g id="patch_6">
    <path d="M 90 69.12 
L 648 69.12 
" style="fill:none;stroke:#000000;stroke-linecap:square;stroke-linejoin:miter;stroke-width:0.8;"/>
   </g>
   <g id="text_15">
    <!-- Median power of different  PSDs clusters of  intracranial data -->
    <defs>
     <path d="M 9.8125 72.90625 
L 24.515625 72.90625 
L 43.109375 23.296875 
L 61.8125 72.90625 
L 76.515625 72.90625 
L 76.515625 0 
L 66.890625 0 
L 66.890625 64.015625 
L 48.09375 14.015625 
L 38.1875 14.015625 
L 19.390625 64.015625 
L 19.390625 0 
L 9.8125 0 
z
" id="DejaVuSans-77"/>
     <path d="M 4.203125 54.6875 
L 13.1875 54.6875 
L 24.421875 12.015625 
L 35.59375 54.6875 
L 46.1875 54.6875 
L 57.421875 12.015625 
L 68.609375 54.6875 
L 77.59375 54.6875 
L 63.28125 0 
L 52.6875 0 
L 40.921875 44.828125 
L 29.109375 0 
L 18.5 0 
z
" id="DejaVuSans-119"/>
     <path d="M 37.109375 75.984375 
L 37.109375 68.5 
L 28.515625 68.5 
Q 23.6875 68.5 21.796875 66.546875 
Q 19.921875 64.59375 19.921875 59.515625 
L 19.921875 54.6875 
L 34.71875 54.6875 
L 34.71875 47.703125 
L 19.921875 47.703125 
L 19.921875 0 
L 10.890625 0 
L 10.890625 47.703125 
L 2.296875 47.703125 
L 2.296875 54.6875 
L 10.890625 54.6875 
L 10.890625 58.5 
Q 10.890625 67.625 15.140625 71.796875 
Q 19.390625 75.984375 28.609375 75.984375 
z
" id="DejaVuSans-102"/>
     <path d="M 19.671875 64.796875 
L 19.671875 37.40625 
L 32.078125 37.40625 
Q 38.96875 37.40625 42.71875 40.96875 
Q 46.484375 44.53125 46.484375 51.125 
Q 46.484375 57.671875 42.71875 61.234375 
Q 38.96875 64.796875 32.078125 64.796875 
z
M 9.8125 72.90625 
L 32.078125 72.90625 
Q 44.34375 72.90625 50.609375 67.359375 
Q 56.890625 61.8125 56.890625 51.125 
Q 56.890625 40.328125 50.609375 34.8125 
Q 44.34375 29.296875 32.078125 29.296875 
L 19.671875 29.296875 
L 19.671875 0 
L 9.8125 0 
z
" id="DejaVuSans-80"/>
     <path d="M 53.515625 70.515625 
L 53.515625 60.890625 
Q 47.90625 63.578125 42.921875 64.890625 
Q 37.9375 66.21875 33.296875 66.21875 
Q 25.25 66.21875 20.875 63.09375 
Q 16.5 59.96875 16.5 54.203125 
Q 16.5 49.359375 19.40625 46.890625 
Q 22.3125 44.4375 30.421875 42.921875 
L 36.375 41.703125 
Q 47.40625 39.59375 52.65625 34.296875 
Q 57.90625 29 57.90625 20.125 
Q 57.90625 9.515625 50.796875 4.046875 
Q 43.703125 -1.421875 29.984375 -1.421875 
Q 24.8125 -1.421875 18.96875 -0.25 
Q 13.140625 0.921875 6.890625 3.21875 
L 6.890625 13.375 
Q 12.890625 10.015625 18.65625 8.296875 
Q 24.421875 6.59375 29.984375 6.59375 
Q 38.421875 6.59375 43.015625 9.90625 
Q 47.609375 13.234375 47.609375 19.390625 
Q 47.609375 24.75 44.3125 27.78125 
Q 41.015625 30.8125 33.5 32.328125 
L 27.484375 33.5 
Q 16.453125 35.6875 11.515625 40.375 
Q 6.59375 45.0625 6.59375 53.421875 
Q 6.59375 63.09375 13.40625 68.65625 
Q 20.21875 74.21875 32.171875 74.21875 
Q 37.3125 74.21875 42.625 73.28125 
Q 47.953125 72.359375 53.515625 70.515625 
z
" id="DejaVuSans-83"/>
     <path d="M 19.671875 64.796875 
L 19.671875 8.109375 
L 31.59375 8.109375 
Q 46.6875 8.109375 53.6875 14.9375 
Q 60.6875 21.78125 60.6875 36.53125 
Q 60.6875 51.171875 53.6875 57.984375 
Q 46.6875 64.796875 31.59375 64.796875 
z
M 9.8125 72.90625 
L 30.078125 72.90625 
Q 51.265625 72.90625 61.171875 64.09375 
Q 71.09375 55.28125 71.09375 36.53125 
Q 71.09375 17.671875 61.125 8.828125 
Q 51.171875 0 30.078125 0 
L 9.8125 0 
z
" id="DejaVuSans-68"/>
    </defs>
    <g transform="translate(75.9645 63.12)scale(0.192 -0.192)">
     <use xlink:href="#DejaVuSans-77"/>
     <use x="86.279297" xlink:href="#DejaVuSans-101"/>
     <use x="147.802734" xlink:href="#DejaVuSans-100"/>
     <use x="211.279297" xlink:href="#DejaVuSans-105"/>
     <use x="239.0625" xlink:href="#DejaVuSans-97"/>
     <use x="300.341797" xlink:href="#DejaVuSans-110"/>
     <use x="363.720703" xlink:href="#DejaVuSans-32"/>
     <use x="395.507812" xlink:href="#DejaVuSans-112"/>
     <use x="458.984375" xlink:href="#DejaVuSans-111"/>
     <use x="520.166016" xlink:href="#DejaVuSans-119"/>
     <use x="601.953125" xlink:href="#DejaVuSans-101"/>
     <use x="663.476562" xlink:href="#DejaVuSans-114"/>
     <use x="704.589844" xlink:href="#DejaVuSans-32"/>
     <use x="736.376953" xlink:href="#DejaVuSans-111"/>
     <use x="797.558594" xlink:href="#DejaVuSans-102"/>
     <use x="832.763672" xlink:href="#DejaVuSans-32"/>
     <use x="864.550781" xlink:href="#DejaVuSans-100"/>
     <use x="928.027344" xlink:href="#DejaVuSans-105"/>
     <use x="955.810547" xlink:href="#DejaVuSans-102"/>
     <use x="991.015625" xlink:href="#DejaVuSans-102"/>
     <use x="1026.220703" xlink:href="#DejaVuSans-101"/>
     <use x="1087.744141" xlink:href="#DejaVuSans-114"/>
     <use x="1128.826172" xlink:href="#DejaVuSans-101"/>
     <use x="1190.349609" xlink:href="#DejaVuSans-110"/>
     <use x="1253.728516" xlink:href="#DejaVuSans-116"/>
     <use x="1292.9375" xlink:href="#DejaVuSans-32"/>
     <use x="1324.724609" xlink:href="#DejaVuSans-32"/>
     <use x="1356.511719" xlink:href="#DejaVuSans-80"/>
     <use x="1416.814453" xlink:href="#DejaVuSans-83"/>
     <use x="1480.291016" xlink:href="#DejaVuSans-68"/>
     <use x="1557.292969" xlink:href="#DejaVuSans-115"/>
     <use x="1609.392578" xlink:href="#DejaVuSans-32"/>
     <use x="1641.179688" xlink:href="#DejaVuSans-99"/>
     <use x="1696.160156" xlink:href="#DejaVuSans-108"/>
     <use x="1723.943359" xlink:href="#DejaVuSans-117"/>
     <use x="1787.322266" xlink:href="#DejaVuSans-115"/>
     <use x="1839.421875" xlink:href="#DejaVuSans-116"/>
     <use x="1878.630859" xlink:href="#DejaVuSans-101"/>
     <use x="1940.154297" xlink:href="#DejaVuSans-114"/>
     <use x="1981.267578" xlink:href="#DejaVuSans-115"/>
     <use x="2033.367188" xlink:href="#DejaVuSans-32"/>
     <use x="2065.154297" xlink:href="#DejaVuSans-111"/>
     <use x="2126.335938" xlink:href="#DejaVuSans-102"/>
     <use x="2161.541016" xlink:href="#DejaVuSans-32"/>
     <use x="2193.328125" xlink:href="#DejaVuSans-32"/>
     <use x="2225.115234" xlink:href="#DejaVuSans-105"/>
     <use x="2252.898438" xlink:href="#DejaVuSans-110"/>
     <use x="2316.277344" xlink:href="#DejaVuSans-116"/>
     <use x="2355.486328" xlink:href="#DejaVuSans-114"/>
     <use x="2396.599609" xlink:href="#DejaVuSans-97"/>
     <use x="2457.878906" xlink:href="#DejaVuSans-99"/>
     <use x="2512.859375" xlink:href="#DejaVuSans-114"/>
     <use x="2553.972656" xlink:href="#DejaVuSans-97"/>
     <use x="2615.251953" xlink:href="#DejaVuSans-110"/>
     <use x="2678.630859" xlink:href="#DejaVuSans-105"/>
     <use x="2706.414062" xlink:href="#DejaVuSans-97"/>
     <use x="2767.693359" xlink:href="#DejaVuSans-108"/>
     <use x="2795.476562" xlink:href="#DejaVuSans-32"/>
     <use x="2827.263672" xlink:href="#DejaVuSans-100"/>
     <use x="2890.740234" xlink:href="#DejaVuSans-97"/>
     <use x="2952.019531" xlink:href="#DejaVuSans-116"/>
     <use x="2991.228516" xlink:href="#DejaVuSans-97"/>
    </g>
   </g>
   <g id="legend_1">
    <g id="patch_7">
     <path d="M 479.4375 269.8 
L 636.8 269.8 
Q 640 269.8 640 266.6 
L 640 80.32 
Q 640 77.12 636.8 77.12 
L 479.4375 77.12 
Q 476.2375 77.12 476.2375 80.32 
L 476.2375 266.6 
Q 476.2375 269.8 479.4375 269.8 
z
" style="fill:#ffffff;opacity:0.8;stroke:#cccccc;stroke-linejoin:miter;"/>
    </g>
    <g id="line2d_55">
     <path d="M 482.6375 90.0775 
L 514.6375 90.0775 
" style="fill:none;stroke:#1f77b4;stroke-linecap:square;stroke-opacity:0.5;stroke-width:1.5;"/>
    </g>
    <g id="line2d_56"/>
    <g id="text_16">
     <!-- cl. 0 (174 el.) -->
     <defs>
      <path d="M 31 75.875 
Q 24.46875 64.65625 21.28125 53.65625 
Q 18.109375 42.671875 18.109375 31.390625 
Q 18.109375 20.125 21.3125 9.0625 
Q 24.515625 -2 31 -13.1875 
L 23.1875 -13.1875 
Q 15.875 -1.703125 12.234375 9.375 
Q 8.59375 20.453125 8.59375 31.390625 
Q 8.59375 42.28125 12.203125 53.3125 
Q 15.828125 64.359375 23.1875 75.875 
z
" id="DejaVuSans-40"/>
      <path d="M 8.203125 72.90625 
L 55.078125 72.90625 
L 55.078125 68.703125 
L 28.609375 0 
L 18.3125 0 
L 43.21875 64.59375 
L 8.203125 64.59375 
z
" id="DejaVuSans-55"/>
      <path d="M 8.015625 75.875 
L 15.828125 75.875 
Q 23.140625 64.359375 26.78125 53.3125 
Q 30.421875 42.28125 30.421875 31.390625 
Q 30.421875 20.453125 26.78125 9.375 
Q 23.140625 -1.703125 15.828125 -13.1875 
L 8.015625 -13.1875 
Q 14.5 -2 17.703125 9.0625 
Q 20.90625 20.125 20.90625 31.390625 
Q 20.90625 42.671875 17.703125 53.65625 
Q 14.5 64.65625 8.015625 75.875 
z
" id="DejaVuSans-41"/>
     </defs>
     <g transform="translate(527.4375 95.6775)scale(0.16 -0.16)">
      <use xlink:href="#DejaVuSans-99"/>
      <use x="54.980469" xlink:href="#DejaVuSans-108"/>
      <use x="82.763672" xlink:href="#DejaVuSans-46"/>
      <use x="114.550781" xlink:href="#DejaVuSans-32"/>
      <use x="146.337891" xlink:href="#DejaVuSans-48"/>
      <use x="209.960938" xlink:href="#DejaVuSans-32"/>
      <use x="241.748047" xlink:href="#DejaVuSans-40"/>
      <use x="280.761719" xlink:href="#DejaVuSans-49"/>
      <use x="344.384766" xlink:href="#DejaVuSans-55"/>
      <use x="408.007812" xlink:href="#DejaVuSans-52"/>
      <use x="471.630859" xlink:href="#DejaVuSans-32"/>
      <use x="503.417969" xlink:href="#DejaVuSans-101"/>
      <use x="564.941406" xlink:href="#DejaVuSans-108"/>
      <use x="592.724609" xlink:href="#DejaVuSans-46"/>
      <use x="624.511719" xlink:href="#DejaVuSans-41"/>
     </g>
    </g>
    <g id="line2d_57">
     <path d="M 482.6375 113.5625 
L 514.6375 113.5625 
" style="fill:none;stroke:#ff7f0e;stroke-dasharray:5,8.25;stroke-dashoffset:0;stroke-width:5;"/>
    </g>
    <g id="line2d_58"/>
    <g id="text_17">
     <!-- cl. 1 (325 el.) -->
     <g transform="translate(527.4375 119.1625)scale(0.16 -0.16)">
      <use xlink:href="#DejaVuSans-99"/>
      <use x="54.980469" xlink:href="#DejaVuSans-108"/>
      <use x="82.763672" xlink:href="#DejaVuSans-46"/>
      <use x="114.550781" xlink:href="#DejaVuSans-32"/>
      <use x="146.337891" xlink:href="#DejaVuSans-49"/>
      <use x="209.960938" xlink:href="#DejaVuSans-32"/>
      <use x="241.748047" xlink:href="#DejaVuSans-40"/>
      <use x="280.761719" xlink:href="#DejaVuSans-51"/>
      <use x="344.384766" xlink:href="#DejaVuSans-50"/>
      <use x="408.007812" xlink:href="#DejaVuSans-53"/>
      <use x="471.630859" xlink:href="#DejaVuSans-32"/>
      <use x="503.417969" xlink:href="#DejaVuSans-101"/>
      <use x="564.941406" xlink:href="#DejaVuSans-108"/>
      <use x="592.724609" xlink:href="#DejaVuSans-46"/>
      <use x="624.511719" xlink:href="#DejaVuSans-41"/>
     </g>
    </g>
    <g id="line2d_59">
     <path d="M 482.6375 137.0475 
L 514.6375 137.0475 
" style="fill:none;stroke:#2ca02c;stroke-linecap:square;stroke-opacity:0.5;stroke-width:1.5;"/>
    </g>
    <g id="line2d_60"/>
    <g id="text_18">
     <!-- cl. 2 (319 el.) -->
     <defs>
      <path d="M 10.984375 1.515625 
L 10.984375 10.5 
Q 14.703125 8.734375 18.5 7.8125 
Q 22.3125 6.890625 25.984375 6.890625 
Q 35.75 6.890625 40.890625 13.453125 
Q 46.046875 20.015625 46.78125 33.40625 
Q 43.953125 29.203125 39.59375 26.953125 
Q 35.25 24.703125 29.984375 24.703125 
Q 19.046875 24.703125 12.671875 31.3125 
Q 6.296875 37.9375 6.296875 49.421875 
Q 6.296875 60.640625 12.9375 67.421875 
Q 19.578125 74.21875 30.609375 74.21875 
Q 43.265625 74.21875 49.921875 64.515625 
Q 56.59375 54.828125 56.59375 36.375 
Q 56.59375 19.140625 48.40625 8.859375 
Q 40.234375 -1.421875 26.421875 -1.421875 
Q 22.703125 -1.421875 18.890625 -0.6875 
Q 15.09375 0.046875 10.984375 1.515625 
z
M 30.609375 32.421875 
Q 37.25 32.421875 41.125 36.953125 
Q 45.015625 41.5 45.015625 49.421875 
Q 45.015625 57.28125 41.125 61.84375 
Q 37.25 66.40625 30.609375 66.40625 
Q 23.96875 66.40625 20.09375 61.84375 
Q 16.21875 57.28125 16.21875 49.421875 
Q 16.21875 41.5 20.09375 36.953125 
Q 23.96875 32.421875 30.609375 32.421875 
z
" id="DejaVuSans-57"/>
     </defs>
     <g transform="translate(527.4375 142.6475)scale(0.16 -0.16)">
      <use xlink:href="#DejaVuSans-99"/>
      <use x="54.980469" xlink:href="#DejaVuSans-108"/>
      <use x="82.763672" xlink:href="#DejaVuSans-46"/>
      <use x="114.550781" xlink:href="#DejaVuSans-32"/>
      <use x="146.337891" xlink:href="#DejaVuSans-50"/>
      <use x="209.960938" xlink:href="#DejaVuSans-32"/>
      <use x="241.748047" xlink:href="#DejaVuSans-40"/>
      <use x="280.761719" xlink:href="#DejaVuSans-51"/>
      <use x="344.384766" xlink:href="#DejaVuSans-49"/>
      <use x="408.007812" xlink:href="#DejaVuSans-57"/>
      <use x="471.630859" xlink:href="#DejaVuSans-32"/>
      <use x="503.417969" xlink:href="#DejaVuSans-101"/>
      <use x="564.941406" xlink:href="#DejaVuSans-108"/>
      <use x="592.724609" xlink:href="#DejaVuSans-46"/>
      <use x="624.511719" xlink:href="#DejaVuSans-41"/>
     </g>
    </g>
    <g id="line2d_61">
     <path d="M 482.6375 160.5325 
L 514.6375 160.5325 
" style="fill:none;stroke:#d62728;stroke-linecap:square;stroke-opacity:0.5;stroke-width:1.5;"/>
    </g>
    <g id="line2d_62"/>
    <g id="text_19">
     <!-- cl. 3 (175 el.) -->
     <g transform="translate(527.4375 166.1325)scale(0.16 -0.16)">
      <use xlink:href="#DejaVuSans-99"/>
      <use x="54.980469" xlink:href="#DejaVuSans-108"/>
      <use x="82.763672" xlink:href="#DejaVuSans-46"/>
      <use x="114.550781" xlink:href="#DejaVuSans-32"/>
      <use x="146.337891" xlink:href="#DejaVuSans-51"/>
      <use x="209.960938" xlink:href="#DejaVuSans-32"/>
      <use x="241.748047" xlink:href="#DejaVuSans-40"/>
      <use x="280.761719" xlink:href="#DejaVuSans-49"/>
      <use x="344.384766" xlink:href="#DejaVuSans-55"/>
      <use x="408.007812" xlink:href="#DejaVuSans-53"/>
      <use x="471.630859" xlink:href="#DejaVuSans-32"/>
      <use x="503.417969" xlink:href="#DejaVuSans-101"/>
      <use x="564.941406" xlink:href="#DejaVuSans-108"/>
      <use x="592.724609" xlink:href="#DejaVuSans-46"/>
      <use x="624.511719" xlink:href="#DejaVuSans-41"/>
     </g>
    </g>
    <g id="line2d_63">
     <path d="M 482.6375 184.0175 
L 514.6375 184.0175 
" style="fill:none;stroke:#9467bd;stroke-linecap:square;stroke-opacity:0.5;stroke-width:1.5;"/>
    </g>
    <g id="line2d_64"/>
    <g id="text_20">
     <!-- cl. 4 (260 el.) -->
     <defs>
      <path d="M 33.015625 40.375 
Q 26.375 40.375 22.484375 35.828125 
Q 18.609375 31.296875 18.609375 23.390625 
Q 18.609375 15.53125 22.484375 10.953125 
Q 26.375 6.390625 33.015625 6.390625 
Q 39.65625 6.390625 43.53125 10.953125 
Q 47.40625 15.53125 47.40625 23.390625 
Q 47.40625 31.296875 43.53125 35.828125 
Q 39.65625 40.375 33.015625 40.375 
z
M 52.59375 71.296875 
L 52.59375 62.3125 
Q 48.875 64.0625 45.09375 64.984375 
Q 41.3125 65.921875 37.59375 65.921875 
Q 27.828125 65.921875 22.671875 59.328125 
Q 17.53125 52.734375 16.796875 39.40625 
Q 19.671875 43.65625 24.015625 45.921875 
Q 28.375 48.1875 33.59375 48.1875 
Q 44.578125 48.1875 50.953125 41.515625 
Q 57.328125 34.859375 57.328125 23.390625 
Q 57.328125 12.15625 50.6875 5.359375 
Q 44.046875 -1.421875 33.015625 -1.421875 
Q 20.359375 -1.421875 13.671875 8.265625 
Q 6.984375 17.96875 6.984375 36.375 
Q 6.984375 53.65625 15.1875 63.9375 
Q 23.390625 74.21875 37.203125 74.21875 
Q 40.921875 74.21875 44.703125 73.484375 
Q 48.484375 72.75 52.59375 71.296875 
z
" id="DejaVuSans-54"/>
     </defs>
     <g transform="translate(527.4375 189.6175)scale(0.16 -0.16)">
      <use xlink:href="#DejaVuSans-99"/>
      <use x="54.980469" xlink:href="#DejaVuSans-108"/>
      <use x="82.763672" xlink:href="#DejaVuSans-46"/>
      <use x="114.550781" xlink:href="#DejaVuSans-32"/>
      <use x="146.337891" xlink:href="#DejaVuSans-52"/>
      <use x="209.960938" xlink:href="#DejaVuSans-32"/>
      <use x="241.748047" xlink:href="#DejaVuSans-40"/>
      <use x="280.761719" xlink:href="#DejaVuSans-50"/>
      <use x="344.384766" xlink:href="#DejaVuSans-54"/>
      <use x="408.007812" xlink:href="#DejaVuSans-48"/>
      <use x="471.630859" xlink:href="#DejaVuSans-32"/>
      <use x="503.417969" xlink:href="#DejaVuSans-101"/>
      <use x="564.941406" xlink:href="#DejaVuSans-108"/>
      <use x="592.724609" xlink:href="#DejaVuSans-46"/>
      <use x="624.511719" xlink:href="#DejaVuSans-41"/>
     </g>
    </g>
    <g id="line2d_65">
     <path d="M 482.6375 207.5025 
L 514.6375 207.5025 
" style="fill:none;stroke:#8c564b;stroke-linecap:square;stroke-opacity:0.5;stroke-width:1.5;"/>
    </g>
    <g id="line2d_66"/>
    <g id="text_21">
     <!-- cl. 5 (225 el.) -->
     <g transform="translate(527.4375 213.1025)scale(0.16 -0.16)">
      <use xlink:href="#DejaVuSans-99"/>
      <use x="54.980469" xlink:href="#DejaVuSans-108"/>
      <use x="82.763672" xlink:href="#DejaVuSans-46"/>
      <use x="114.550781" xlink:href="#DejaVuSans-32"/>
      <use x="146.337891" xlink:href="#DejaVuSans-53"/>
      <use x="209.960938" xlink:href="#DejaVuSans-32"/>
      <use x="241.748047" xlink:href="#DejaVuSans-40"/>
      <use x="280.761719" xlink:href="#DejaVuSans-50"/>
      <use x="344.384766" xlink:href="#DejaVuSans-50"/>
      <use x="408.007812" xlink:href="#DejaVuSans-53"/>
      <use x="471.630859" xlink:href="#DejaVuSans-32"/>
      <use x="503.417969" xlink:href="#DejaVuSans-101"/>
      <use x="564.941406" xlink:href="#DejaVuSans-108"/>
      <use x="592.724609" xlink:href="#DejaVuSans-46"/>
      <use x="624.511719" xlink:href="#DejaVuSans-41"/>
     </g>
    </g>
    <g id="line2d_67">
     <path d="M 482.6375 230.9875 
L 514.6375 230.9875 
" style="fill:none;stroke:#e377c2;stroke-linecap:square;stroke-opacity:0.5;stroke-width:1.5;"/>
    </g>
    <g id="line2d_68"/>
    <g id="text_22">
     <!-- cl. 6 (105 el.) -->
     <g transform="translate(527.4375 236.5875)scale(0.16 -0.16)">
      <use xlink:href="#DejaVuSans-99"/>
      <use x="54.980469" xlink:href="#DejaVuSans-108"/>
      <use x="82.763672" xlink:href="#DejaVuSans-46"/>
      <use x="114.550781" xlink:href="#DejaVuSans-32"/>
      <use x="146.337891" xlink:href="#DejaVuSans-54"/>
      <use x="209.960938" xlink:href="#DejaVuSans-32"/>
      <use x="241.748047" xlink:href="#DejaVuSans-40"/>
      <use x="280.761719" xlink:href="#DejaVuSans-49"/>
      <use x="344.384766" xlink:href="#DejaVuSans-48"/>
      <use x="408.007812" xlink:href="#DejaVuSans-53"/>
      <use x="471.630859" xlink:href="#DejaVuSans-32"/>
      <use x="503.417969" xlink:href="#DejaVuSans-101"/>
      <use x="564.941406" xlink:href="#DejaVuSans-108"/>
      <use x="592.724609" xlink:href="#DejaVuSans-46"/>
      <use x="624.511719" xlink:href="#DejaVuSans-41"/>
     </g>
    </g>
    <g id="line2d_69">
     <path d="M 482.6375 254.4725 
L 514.6375 254.4725 
" style="fill:none;stroke:#7f7f7f;stroke-linecap:square;stroke-opacity:0.5;stroke-width:1.5;"/>
    </g>
    <g id="line2d_70"/>
    <g id="text_23">
     <!-- cl. 7 (189 el.) -->
     <g transform="translate(527.4375 260.0725)scale(0.16 -0.16)">
      <use xlink:href="#DejaVuSans-99"/>
      <use x="54.980469" xlink:href="#DejaVuSans-108"/>
      <use x="82.763672" xlink:href="#DejaVuSans-46"/>
      <use x="114.550781" xlink:href="#DejaVuSans-32"/>
      <use x="146.337891" xlink:href="#DejaVuSans-55"/>
      <use x="209.960938" xlink:href="#DejaVuSans-32"/>
      <use x="241.748047" xlink:href="#DejaVuSans-40"/>
      <use x="280.761719" xlink:href="#DejaVuSans-49"/>
      <use x="344.384766" xlink:href="#DejaVuSans-56"/>
      <use x="408.007812" xlink:href="#DejaVuSans-57"/>
      <use x="471.630859" xlink:href="#DejaVuSans-32"/>
      <use x="503.417969" xlink:href="#DejaVuSans-101"/>
      <use x="564.941406" xlink:href="#DejaVuSans-108"/>
      <use x="592.724609" xlink:href="#DejaVuSans-46"/>
      <use x="624.511719" xlink:href="#DejaVuSans-41"/>
     </g>
    </g>
   </g>
  </g>
 </g>
 <defs>
  <clipPath id="pb3874edec4">
   <rect height="443.52" width="558" x="90" y="69.12"/>
  </clipPath>
 </defs>
</svg>
