<?xml version="1.0" encoding="utf-8" standalone="no"?>
<!DOCTYPE svg PUBLIC "-//W3C//DTD SVG 1.1//EN"
  "http://www.w3.org/Graphics/SVG/1.1/DTD/svg11.dtd">
<svg xmlns:xlink="http://www.w3.org/1999/xlink" width="720pt" height="576pt" viewBox="0 0 720 576" xmlns="http://www.w3.org/2000/svg" version="1.1">
 <metadata>
  <rdf:RDF xmlns:dc="http://purl.org/dc/elements/1.1/" xmlns:cc="http://creativecommons.org/ns#" xmlns:rdf="http://www.w3.org/1999/02/22-rdf-syntax-ns#">
   <cc:Work>
    <dc:type rdf:resource="http://purl.org/dc/dcmitype/StillImage"/>
    <dc:date>2026-04-05T13:30:50.564850</dc:date>
    <dc:format>image/svg+xml</dc:format>
    <dc:creator>
     <cc:Agent>
      <dc:title>Matplotlib v3.10.8, https://matplotlib.org/</dc:title>
     </cc:Agent>
    </dc:creator>
   </cc:Work>
  </rdf:RDF>
 </metadata>
 <defs>
  <style type="text/css">*{stroke-linejoin: round; stroke-linecap: butt}</style>
 </defs>
 <g id="figure_1">
  <g id="patch_1">
   <path d="M 0 576 
L 720 576 
L 720 0 
L 0 0 
z
" style="fill: #ffffff"/>
  </g>
  <g id="axes_1">
   <g id="patch_2">
    <path d="M 90 512.64 
L 648 512.64 
L 648 69.12 
L 90 69.12 
z
" style="fill: #ffffff"/>
   </g>
   <g id="matplotlib.axis_1">
    <g id="xtick_1">
     <g id="line2d_1">
      <path d="M 115.363636 512.64 
L 115.363636 69.12 
" clip-path="url(#p72fcf1ec09)" style="fill: none; stroke: #b0b0b0; stroke-width: 0.8; stroke-linecap: square"/>
     </g>
     <g id="line2d_2">
      <defs>
       <path id="m06de9ad17b" d="M 0 0 
L 0 3.5 
" style="stroke: #000000; stroke-width: 0.8"/>
      </defs>
      <g>
       <use xlink:href="#m06de9ad17b" x="115.363636" y="512.64" style="stroke: #000000; stroke-width: 0.8"/>
      </g>
     </g>
     <g id="text_1">
      <!-- 0.5 -->
      <g transform="translate(102.641136 531.7975) scale(0.16 -0.16)">
       <defs>
        <path id="DejaVuSans-30" d="M 2034 4250 
Q 1547 4250 1301 3770 
Q 1056 3291 1056 2328 
Q 1056 1369 1301 889 
Q 1547 409 2034 409 
Q 2525 409 2770 889 
Q 3016 1369 3016 2328 
Q 3016 3291 2770 3770 
Q 2525 4250 2034 4250 
z
M 2034 4750 
Q 2819 4750 3233 4129 
Q 3647 3509 3647 2328 
Q 3647 1150 3233 529 
Q 2819 -91 2034 -91 
Q 1250 -91 836 529 
Q 422 1150 422 2328 
Q 422 3509 836 4129 
Q 1250 4750 2034 4750 
z
" transform="scale(0.015625)"/>
        <path id="DejaVuSans-2e" d="M 684 794 
L 1344 794 
L 1344 0 
L 684 0 
L 684 794 
z
" transform="scale(0.015625)"/>
        <path id="DejaVuSans-35" d="M 691 4666 
L 3169 4666 
L 3169 4134 
L 1269 4134 
L 1269 2991 
Q 1406 3038 1543 3061 
Q 1681 3084 1819 3084 
Q 2600 3084 3056 2656 
Q 3513 2228 3513 1497 
Q 3513 744 3044 326 
Q 2575 -91 1722 -91 
Q 1428 -91 1123 -41 
Q 819 9 494 109 
L 494 744 
Q 775 591 1075 516 
Q 1375 441 1709 441 
Q 2250 441 2565 725 
Q 2881 1009 2881 1497 
Q 2881 1984 2565 2268 
Q 2250 2553 1709 2553 
Q 1456 2553 1204 2497 
Q 953 2441 691 2322 
L 691 4666 
z
" transform="scale(0.015625)"/>
       </defs>
       <use xlink:href="#DejaVuSans-30"/>
       <use xlink:href="#DejaVuSans-2e" transform="translate(63.623047 0)"/>
       <use xlink:href="#DejaVuSans-35" transform="translate(95.410156 0)"/>
      </g>
     </g>
    </g>
    <g id="xtick_2">
     <g id="line2d_3">
      <path d="M 323.207549 512.64 
L 323.207549 69.12 
" clip-path="url(#p72fcf1ec09)" style="fill: none; stroke: #b0b0b0; stroke-width: 0.8; stroke-linecap: square"/>
     </g>
     <g id="line2d_4">
      <g>
       <use xlink:href="#m06de9ad17b" x="323.207549" y="512.64" style="stroke: #000000; stroke-width: 0.8"/>
      </g>
     </g>
     <g id="text_2">
      <!-- 4.0 -->
      <g transform="translate(310.485049 531.7975) scale(0.16 -0.16)">
       <defs>
        <path id="DejaVuSans-34" d="M 2419 4116 
L 825 1625 
L 2419 1625 
L 2419 4116 
z
M 2253 4666 
L 3047 4666 
L 3047 1625 
L 3713 1625 
L 3713 1100 
L 3047 1100 
L 3047 0 
L 2419 0 
L 2419 1100 
L 313 1100 
L 313 1709 
L 2253 4666 
z
" transform="scale(0.015625)"/>
       </defs>
       <use xlink:href="#DejaVuSans-34"/>
       <use xlink:href="#DejaVuSans-2e" transform="translate(63.623047 0)"/>
       <use xlink:href="#DejaVuSans-30" transform="translate(95.410156 0)"/>
      </g>
     </g>
    </g>
    <g id="xtick_3">
     <g id="line2d_5">
      <path d="M 392.488853 512.64 
L 392.488853 69.12 
" clip-path="url(#p72fcf1ec09)" style="fill: none; stroke: #b0b0b0; stroke-width: 0.8; stroke-linecap: square"/>
     </g>
     <g id="line2d_6">
      <g>
       <use xlink:href="#m06de9ad17b" x="392.488853" y="512.64" style="stroke: #000000; stroke-width: 0.8"/>
      </g>
     </g>
     <g id="text_3">
      <!-- 8.0 -->
      <g transform="translate(379.766353 531.7975) scale(0.16 -0.16)">
       <defs>
        <path id="DejaVuSans-38" d="M 2034 2216 
Q 1584 2216 1326 1975 
Q 1069 1734 1069 1313 
Q 1069 891 1326 650 
Q 1584 409 2034 409 
Q 2484 409 2743 651 
Q 3003 894 3003 1313 
Q 3003 1734 2745 1975 
Q 2488 2216 2034 2216 
z
M 1403 2484 
Q 997 2584 770 2862 
Q 544 3141 544 3541 
Q 544 4100 942 4425 
Q 1341 4750 2034 4750 
Q 2731 4750 3128 4425 
Q 3525 4100 3525 3541 
Q 3525 3141 3298 2862 
Q 3072 2584 2669 2484 
Q 3125 2378 3379 2068 
Q 3634 1759 3634 1313 
Q 3634 634 3220 271 
Q 2806 -91 2034 -91 
Q 1263 -91 848 271 
Q 434 634 434 1313 
Q 434 1759 690 2068 
Q 947 2378 1403 2484 
z
M 1172 3481 
Q 1172 3119 1398 2916 
Q 1625 2713 2034 2713 
Q 2441 2713 2670 2916 
Q 2900 3119 2900 3481 
Q 2900 3844 2670 4047 
Q 2441 4250 2034 4250 
Q 1625 4250 1398 4047 
Q 1172 3844 1172 3481 
z
" transform="scale(0.015625)"/>
       </defs>
       <use xlink:href="#DejaVuSans-38"/>
       <use xlink:href="#DejaVuSans-2e" transform="translate(63.623047 0)"/>
       <use xlink:href="#DejaVuSans-30" transform="translate(95.410156 0)"/>
      </g>
     </g>
    </g>
    <g id="xtick_4">
     <g id="line2d_7">
      <path d="M 441.01623 512.64 
L 441.01623 69.12 
" clip-path="url(#p72fcf1ec09)" style="fill: none; stroke: #b0b0b0; stroke-width: 0.8; stroke-linecap: square"/>
     </g>
     <g id="line2d_8">
      <g>
       <use xlink:href="#m06de9ad17b" x="441.01623" y="512.64" style="stroke: #000000; stroke-width: 0.8"/>
      </g>
     </g>
     <g id="text_4">
      <!-- 13.0 -->
      <g transform="translate(423.20373 531.7975) scale(0.16 -0.16)">
       <defs>
        <path id="DejaVuSans-31" d="M 794 531 
L 1825 531 
L 1825 4091 
L 703 3866 
L 703 4441 
L 1819 4666 
L 2450 4666 
L 2450 531 
L 3481 531 
L 3481 0 
L 794 0 
L 794 531 
z
" transform="scale(0.015625)"/>
        <path id="DejaVuSans-33" d="M 2597 2516 
Q 3050 2419 3304 2112 
Q 3559 1806 3559 1356 
Q 3559 666 3084 287 
Q 2609 -91 1734 -91 
Q 1441 -91 1130 -33 
Q 819 25 488 141 
L 488 750 
Q 750 597 1062 519 
Q 1375 441 1716 441 
Q 2309 441 2620 675 
Q 2931 909 2931 1356 
Q 2931 1769 2642 2001 
Q 2353 2234 1838 2234 
L 1294 2234 
L 1294 2753 
L 1863 2753 
Q 2328 2753 2575 2939 
Q 2822 3125 2822 3475 
Q 2822 3834 2567 4026 
Q 2313 4219 1838 4219 
Q 1578 4219 1281 4162 
Q 984 4106 628 3988 
L 628 4550 
Q 988 4650 1302 4700 
Q 1616 4750 1894 4750 
Q 2613 4750 3031 4423 
Q 3450 4097 3450 3541 
Q 3450 3153 3228 2886 
Q 3006 2619 2597 2516 
z
" transform="scale(0.015625)"/>
       </defs>
       <use xlink:href="#DejaVuSans-31"/>
       <use xlink:href="#DejaVuSans-33" transform="translate(63.623047 0)"/>
       <use xlink:href="#DejaVuSans-2e" transform="translate(127.246094 0)"/>
       <use xlink:href="#DejaVuSans-30" transform="translate(159.033203 0)"/>
      </g>
     </g>
    </g>
    <g id="xtick_5">
     <g id="line2d_9">
      <path d="M 524.60072 512.64 
L 524.60072 69.12 
" clip-path="url(#p72fcf1ec09)" style="fill: none; stroke: #b0b0b0; stroke-width: 0.8; stroke-linecap: square"/>
     </g>
     <g id="line2d_10">
      <g>
       <use xlink:href="#m06de9ad17b" x="524.60072" y="512.64" style="stroke: #000000; stroke-width: 0.8"/>
      </g>
     </g>
     <g id="text_5">
      <!-- 30.0 -->
      <g transform="translate(506.78822 531.7975) scale(0.16 -0.16)">
       <use xlink:href="#DejaVuSans-33"/>
       <use xlink:href="#DejaVuSans-30" transform="translate(63.623047 0)"/>
       <use xlink:href="#DejaVuSans-2e" transform="translate(127.246094 0)"/>
       <use xlink:href="#DejaVuSans-30" transform="translate(159.033203 0)"/>
      </g>
     </g>
    </g>
    <g id="xtick_6">
     <g id="line2d_11">
      <path d="M 622.636364 512.64 
L 622.636364 69.12 
" clip-path="url(#p72fcf1ec09)" style="fill: none; stroke: #b0b0b0; stroke-width: 0.8; stroke-linecap: square"/>
     </g>
     <g id="line2d_12">
      <g>
       <use xlink:href="#m06de9ad17b" x="622.636364" y="512.64" style="stroke: #000000; stroke-width: 0.8"/>
      </g>
     </g>
     <g id="text_6">
      <!-- 80.0 -->
      <g transform="translate(604.823864 531.7975) scale(0.16 -0.16)">
       <use xlink:href="#DejaVuSans-38"/>
       <use xlink:href="#DejaVuSans-30" transform="translate(63.623047 0)"/>
       <use xlink:href="#DejaVuSans-2e" transform="translate(127.246094 0)"/>
       <use xlink:href="#DejaVuSans-30" transform="translate(159.033203 0)"/>
      </g>
     </g>
    </g>
    <g id="xtick_7">
     <g id="line2d_13">
      <defs>
       <path id="m92f3622111" d="M 0 0 
L 0 2 
" style="stroke: #000000; stroke-width: 0.6"/>
      </defs>
      <g>
       <use xlink:href="#m92f3622111" x="93.060038" y="512.64" style="stroke: #000000; stroke-width: 0.6"/>
      </g>
     </g>
    </g>
    <g id="xtick_8">
     <g id="line2d_14">
      <g>
       <use xlink:href="#m92f3622111" x="133.587003" y="512.64" style="stroke: #000000; stroke-width: 0.6"/>
      </g>
     </g>
    </g>
    <g id="xtick_9">
     <g id="line2d_15">
      <g>
       <use xlink:href="#m92f3622111" x="148.99464" y="512.64" style="stroke: #000000; stroke-width: 0.6"/>
      </g>
     </g>
    </g>
    <g id="xtick_10">
     <g id="line2d_16">
      <g>
       <use xlink:href="#m92f3622111" x="162.341342" y="512.64" style="stroke: #000000; stroke-width: 0.6"/>
      </g>
     </g>
    </g>
    <g id="xtick_11">
     <g id="line2d_17">
      <g>
       <use xlink:href="#m92f3622111" x="174.113968" y="512.64" style="stroke: #000000; stroke-width: 0.6"/>
      </g>
     </g>
    </g>
    <g id="xtick_12">
     <g id="line2d_18">
      <g>
       <use xlink:href="#m92f3622111" x="253.926245" y="512.64" style="stroke: #000000; stroke-width: 0.6"/>
      </g>
     </g>
    </g>
    <g id="xtick_13">
     <g id="line2d_19">
      <g>
       <use xlink:href="#m92f3622111" x="294.45321" y="512.64" style="stroke: #000000; stroke-width: 0.6"/>
      </g>
     </g>
    </g>
    <g id="xtick_14">
     <g id="line2d_20">
      <g>
       <use xlink:href="#m92f3622111" x="345.511147" y="512.64" style="stroke: #000000; stroke-width: 0.6"/>
      </g>
     </g>
    </g>
    <g id="xtick_15">
     <g id="line2d_21">
      <g>
       <use xlink:href="#m92f3622111" x="363.734514" y="512.64" style="stroke: #000000; stroke-width: 0.6"/>
      </g>
     </g>
    </g>
    <g id="xtick_16">
     <g id="line2d_22">
      <g>
       <use xlink:href="#m92f3622111" x="379.142151" y="512.64" style="stroke: #000000; stroke-width: 0.6"/>
      </g>
     </g>
    </g>
    <g id="xtick_17">
     <g id="line2d_23">
      <g>
       <use xlink:href="#m92f3622111" x="404.261479" y="512.64" style="stroke: #000000; stroke-width: 0.6"/>
      </g>
     </g>
    </g>
    <g id="xtick_18">
     <g id="line2d_24">
      <g>
       <use xlink:href="#m92f3622111" x="484.073755" y="512.64" style="stroke: #000000; stroke-width: 0.6"/>
      </g>
     </g>
    </g>
    <g id="xtick_19">
     <g id="line2d_25">
      <g>
       <use xlink:href="#m92f3622111" x="553.355059" y="512.64" style="stroke: #000000; stroke-width: 0.6"/>
      </g>
     </g>
    </g>
    <g id="xtick_20">
     <g id="line2d_26">
      <g>
       <use xlink:href="#m92f3622111" x="575.658658" y="512.64" style="stroke: #000000; stroke-width: 0.6"/>
      </g>
     </g>
    </g>
    <g id="xtick_21">
     <g id="line2d_27">
      <g>
       <use xlink:href="#m92f3622111" x="593.882024" y="512.64" style="stroke: #000000; stroke-width: 0.6"/>
      </g>
     </g>
    </g>
    <g id="xtick_22">
     <g id="line2d_28">
      <g>
       <use xlink:href="#m92f3622111" x="609.289661" y="512.64" style="stroke: #000000; stroke-width: 0.6"/>
      </g>
     </g>
    </g>
    <g id="xtick_23">
     <g id="line2d_29">
      <g>
       <use xlink:href="#m92f3622111" x="634.408989" y="512.64" style="stroke: #000000; stroke-width: 0.6"/>
      </g>
     </g>
    </g>
    <g id="text_7">
     <!-- Frequency -->
     <g transform="translate(327.6725 551.2825) scale(0.16 -0.16)">
      <defs>
       <path id="DejaVuSans-46" d="M 628 4666 
L 3309 4666 
L 3309 4134 
L 1259 4134 
L 1259 2759 
L 3109 2759 
L 3109 2228 
L 1259 2228 
L 1259 0 
L 628 0 
L 628 4666 
z
" transform="scale(0.015625)"/>
       <path id="DejaVuSans-72" d="M 2631 2963 
Q 2534 3019 2420 3045 
Q 2306 3072 2169 3072 
Q 1681 3072 1420 2755 
Q 1159 2438 1159 1844 
L 1159 0 
L 581 0 
L 581 3500 
L 1159 3500 
L 1159 2956 
Q 1341 3275 1631 3429 
Q 1922 3584 2338 3584 
Q 2397 3584 2469 3576 
Q 2541 3569 2628 3553 
L 2631 2963 
z
" transform="scale(0.015625)"/>
       <path id="DejaVuSans-65" d="M 3597 1894 
L 3597 1613 
L 953 1613 
Q 991 1019 1311 708 
Q 1631 397 2203 397 
Q 2534 397 2845 478 
Q 3156 559 3463 722 
L 3463 178 
Q 3153 47 2828 -22 
Q 2503 -91 2169 -91 
Q 1331 -91 842 396 
Q 353 884 353 1716 
Q 353 2575 817 3079 
Q 1281 3584 2069 3584 
Q 2775 3584 3186 3129 
Q 3597 2675 3597 1894 
z
M 3022 2063 
Q 3016 2534 2758 2815 
Q 2500 3097 2075 3097 
Q 1594 3097 1305 2825 
Q 1016 2553 972 2059 
L 3022 2063 
z
" transform="scale(0.015625)"/>
       <path id="DejaVuSans-71" d="M 947 1747 
Q 947 1113 1208 752 
Q 1469 391 1925 391 
Q 2381 391 2643 752 
Q 2906 1113 2906 1747 
Q 2906 2381 2643 2742 
Q 2381 3103 1925 3103 
Q 1469 3103 1208 2742 
Q 947 2381 947 1747 
z
M 2906 525 
Q 2725 213 2448 61 
Q 2172 -91 1784 -91 
Q 1150 -91 751 415 
Q 353 922 353 1747 
Q 353 2572 751 3078 
Q 1150 3584 1784 3584 
Q 2172 3584 2448 3432 
Q 2725 3281 2906 2969 
L 2906 3500 
L 3481 3500 
L 3481 -1331 
L 2906 -1331 
L 2906 525 
z
" transform="scale(0.015625)"/>
       <path id="DejaVuSans-75" d="M 544 1381 
L 544 3500 
L 1119 3500 
L 1119 1403 
Q 1119 906 1312 657 
Q 1506 409 1894 409 
Q 2359 409 2629 706 
Q 2900 1003 2900 1516 
L 2900 3500 
L 3475 3500 
L 3475 0 
L 2900 0 
L 2900 538 
Q 2691 219 2414 64 
Q 2138 -91 1772 -91 
Q 1169 -91 856 284 
Q 544 659 544 1381 
z
M 1991 3584 
L 1991 3584 
z
" transform="scale(0.015625)"/>
       <path id="DejaVuSans-6e" d="M 3513 2113 
L 3513 0 
L 2938 0 
L 2938 2094 
Q 2938 2591 2744 2837 
Q 2550 3084 2163 3084 
Q 1697 3084 1428 2787 
Q 1159 2491 1159 1978 
L 1159 0 
L 581 0 
L 581 3500 
L 1159 3500 
L 1159 2956 
Q 1366 3272 1645 3428 
Q 1925 3584 2291 3584 
Q 2894 3584 3203 3211 
Q 3513 2838 3513 2113 
z
" transform="scale(0.015625)"/>
       <path id="DejaVuSans-63" d="M 3122 3366 
L 3122 2828 
Q 2878 2963 2633 3030 
Q 2388 3097 2138 3097 
Q 1578 3097 1268 2742 
Q 959 2388 959 1747 
Q 959 1106 1268 751 
Q 1578 397 2138 397 
Q 2388 397 2633 464 
Q 2878 531 3122 666 
L 3122 134 
Q 2881 22 2623 -34 
Q 2366 -91 2075 -91 
Q 1284 -91 818 406 
Q 353 903 353 1747 
Q 353 2603 823 3093 
Q 1294 3584 2113 3584 
Q 2378 3584 2631 3529 
Q 2884 3475 3122 3366 
z
" transform="scale(0.015625)"/>
       <path id="DejaVuSans-79" d="M 2059 -325 
Q 1816 -950 1584 -1140 
Q 1353 -1331 966 -1331 
L 506 -1331 
L 506 -850 
L 844 -850 
Q 1081 -850 1212 -737 
Q 1344 -625 1503 -206 
L 1606 56 
L 191 3500 
L 800 3500 
L 1894 763 
L 2988 3500 
L 3597 3500 
L 2059 -325 
z
" transform="scale(0.015625)"/>
      </defs>
      <use xlink:href="#DejaVuSans-46"/>
      <use xlink:href="#DejaVuSans-72" transform="translate(50.269531 0)"/>
      <use xlink:href="#DejaVuSans-65" transform="translate(89.132812 0)"/>
      <use xlink:href="#DejaVuSans-71" transform="translate(150.65625 0)"/>
      <use xlink:href="#DejaVuSans-75" transform="translate(214.132812 0)"/>
      <use xlink:href="#DejaVuSans-65" transform="translate(277.511719 0)"/>
      <use xlink:href="#DejaVuSans-6e" transform="translate(339.035156 0)"/>
      <use xlink:href="#DejaVuSans-63" transform="translate(402.414062 0)"/>
      <use xlink:href="#DejaVuSans-79" transform="translate(457.394531 0)"/>
     </g>
    </g>
   </g>
   <g id="matplotlib.axis_2">
    <g id="ytick_1">
     <g id="line2d_30">
      <path d="M 90 496.886067 
L 648 496.886067 
" clip-path="url(#p72fcf1ec09)" style="fill: none; stroke: #b0b0b0; stroke-width: 0.8; stroke-linecap: square"/>
     </g>
     <g id="line2d_31">
      <defs>
       <path id="m767aba3f15" d="M 0 0 
L -3.5 0 
" style="stroke: #000000; stroke-width: 0.8"/>
      </defs>
      <g>
       <use xlink:href="#m767aba3f15" x="90" y="496.886067" style="stroke: #000000; stroke-width: 0.8"/>
      </g>
     </g>
     <g id="text_8">
      <!-- 0.00 -->
      <g transform="translate(47.375 502.964817) scale(0.16 -0.16)">
       <use xlink:href="#DejaVuSans-30"/>
       <use xlink:href="#DejaVuSans-2e" transform="translate(63.623047 0)"/>
       <use xlink:href="#DejaVuSans-30" transform="translate(95.410156 0)"/>
       <use xlink:href="#DejaVuSans-30" transform="translate(159.033203 0)"/>
      </g>
     </g>
    </g>
    <g id="ytick_2">
     <g id="line2d_32">
      <path d="M 90 423.472612 
L 648 423.472612 
" clip-path="url(#p72fcf1ec09)" style="fill: none; stroke: #b0b0b0; stroke-width: 0.8; stroke-linecap: square"/>
     </g>
     <g id="line2d_33">
      <g>
       <use xlink:href="#m767aba3f15" x="90" y="423.472612" style="stroke: #000000; stroke-width: 0.8"/>
      </g>
     </g>
     <g id="text_9">
      <!-- 0.01 -->
      <g transform="translate(47.375 429.551362) scale(0.16 -0.16)">
       <use xlink:href="#DejaVuSans-30"/>
       <use xlink:href="#DejaVuSans-2e" transform="translate(63.623047 0)"/>
       <use xlink:href="#DejaVuSans-30" transform="translate(95.410156 0)"/>
       <use xlink:href="#DejaVuSans-31" transform="translate(159.033203 0)"/>
      </g>
     </g>
    </g>
    <g id="ytick_3">
     <g id="line2d_34">
      <path d="M 90 350.059158 
L 648 350.059158 
" clip-path="url(#p72fcf1ec09)" style="fill: none; stroke: #b0b0b0; stroke-width: 0.8; stroke-linecap: square"/>
     </g>
     <g id="line2d_35">
      <g>
       <use xlink:href="#m767aba3f15" x="90" y="350.059158" style="stroke: #000000; stroke-width: 0.8"/>
      </g>
     </g>
     <g id="text_10">
      <!-- 0.02 -->
      <g transform="translate(47.375 356.137908) scale(0.16 -0.16)">
       <defs>
        <path id="DejaVuSans-32" d="M 1228 531 
L 3431 531 
L 3431 0 
L 469 0 
L 469 531 
Q 828 903 1448 1529 
Q 2069 2156 2228 2338 
Q 2531 2678 2651 2914 
Q 2772 3150 2772 3378 
Q 2772 3750 2511 3984 
Q 2250 4219 1831 4219 
Q 1534 4219 1204 4116 
Q 875 4013 500 3803 
L 500 4441 
Q 881 4594 1212 4672 
Q 1544 4750 1819 4750 
Q 2544 4750 2975 4387 
Q 3406 4025 3406 3419 
Q 3406 3131 3298 2873 
Q 3191 2616 2906 2266 
Q 2828 2175 2409 1742 
Q 1991 1309 1228 531 
z
" transform="scale(0.015625)"/>
       </defs>
       <use xlink:href="#DejaVuSans-30"/>
       <use xlink:href="#DejaVuSans-2e" transform="translate(63.623047 0)"/>
       <use xlink:href="#DejaVuSans-30" transform="translate(95.410156 0)"/>
       <use xlink:href="#DejaVuSans-32" transform="translate(159.033203 0)"/>
      </g>
     </g>
    </g>
    <g id="ytick_4">
     <g id="line2d_36">
      <path d="M 90 276.645704 
L 648 276.645704 
" clip-path="url(#p72fcf1ec09)" style="fill: none; stroke: #b0b0b0; stroke-width: 0.8; stroke-linecap: square"/>
     </g>
     <g id="line2d_37">
      <g>
       <use xlink:href="#m767aba3f15" x="90" y="276.645704" style="stroke: #000000; stroke-width: 0.8"/>
      </g>
     </g>
     <g id="text_11">
      <!-- 0.03 -->
      <g transform="translate(47.375 282.724454) scale(0.16 -0.16)">
       <use xlink:href="#DejaVuSans-30"/>
       <use xlink:href="#DejaVuSans-2e" transform="translate(63.623047 0)"/>
       <use xlink:href="#DejaVuSans-30" transform="translate(95.410156 0)"/>
       <use xlink:href="#DejaVuSans-33" transform="translate(159.033203 0)"/>
      </g>
     </g>
    </g>
    <g id="ytick_5">
     <g id="line2d_38">
      <path d="M 90 203.232249 
L 648 203.232249 
" clip-path="url(#p72fcf1ec09)" style="fill: none; stroke: #b0b0b0; stroke-width: 0.8; stroke-linecap: square"/>
     </g>
     <g id="line2d_39">
      <g>
       <use xlink:href="#m767aba3f15" x="90" y="203.232249" style="stroke: #000000; stroke-width: 0.8"/>
      </g>
     </g>
     <g id="text_12">
      <!-- 0.04 -->
      <g transform="translate(47.375 209.310999) scale(0.16 -0.16)">
       <use xlink:href="#DejaVuSans-30"/>
       <use xlink:href="#DejaVuSans-2e" transform="translate(63.623047 0)"/>
       <use xlink:href="#DejaVuSans-30" transform="translate(95.410156 0)"/>
       <use xlink:href="#DejaVuSans-34" transform="translate(159.033203 0)"/>
      </g>
     </g>
    </g>
    <g id="ytick_6">
     <g id="line2d_40">
      <path d="M 90 129.818795 
L 648 129.818795 
" clip-path="url(#p72fcf1ec09)" style="fill: none; stroke: #b0b0b0; stroke-width: 0.8; stroke-linecap: square"/>
     </g>
     <g id="line2d_41">
      <g>
       <use xlink:href="#m767aba3f15" x="90" y="129.818795" style="stroke: #000000; stroke-width: 0.8"/>
      </g>
     </g>
     <g id="text_13">
      <!-- 0.05 -->
      <g transform="translate(47.375 135.897545) scale(0.16 -0.16)">
       <use xlink:href="#DejaVuSans-30"/>
       <use xlink:href="#DejaVuSans-2e" transform="translate(63.623047 0)"/>
       <use xlink:href="#DejaVuSans-30" transform="translate(95.410156 0)"/>
       <use xlink:href="#DejaVuSans-35" transform="translate(159.033203 0)"/>
      </g>
     </g>
    </g>
    <g id="text_14">
     <!-- Normalized spectral density -->
     <g transform="translate(40.0475 402.78375) rotate(-90) scale(0.16 -0.16)">
      <defs>
       <path id="DejaVuSans-4e" d="M 628 4666 
L 1478 4666 
L 3547 763 
L 3547 4666 
L 4159 4666 
L 4159 0 
L 3309 0 
L 1241 3903 
L 1241 0 
L 628 0 
L 628 4666 
z
" transform="scale(0.015625)"/>
       <path id="DejaVuSans-6f" d="M 1959 3097 
Q 1497 3097 1228 2736 
Q 959 2375 959 1747 
Q 959 1119 1226 758 
Q 1494 397 1959 397 
Q 2419 397 2687 759 
Q 2956 1122 2956 1747 
Q 2956 2369 2687 2733 
Q 2419 3097 1959 3097 
z
M 1959 3584 
Q 2709 3584 3137 3096 
Q 3566 2609 3566 1747 
Q 3566 888 3137 398 
Q 2709 -91 1959 -91 
Q 1206 -91 779 398 
Q 353 888 353 1747 
Q 353 2609 779 3096 
Q 1206 3584 1959 3584 
z
" transform="scale(0.015625)"/>
       <path id="DejaVuSans-6d" d="M 3328 2828 
Q 3544 3216 3844 3400 
Q 4144 3584 4550 3584 
Q 5097 3584 5394 3201 
Q 5691 2819 5691 2113 
L 5691 0 
L 5113 0 
L 5113 2094 
Q 5113 2597 4934 2840 
Q 4756 3084 4391 3084 
Q 3944 3084 3684 2787 
Q 3425 2491 3425 1978 
L 3425 0 
L 2847 0 
L 2847 2094 
Q 2847 2600 2669 2842 
Q 2491 3084 2119 3084 
Q 1678 3084 1418 2786 
Q 1159 2488 1159 1978 
L 1159 0 
L 581 0 
L 581 3500 
L 1159 3500 
L 1159 2956 
Q 1356 3278 1631 3431 
Q 1906 3584 2284 3584 
Q 2666 3584 2933 3390 
Q 3200 3197 3328 2828 
z
" transform="scale(0.015625)"/>
       <path id="DejaVuSans-61" d="M 2194 1759 
Q 1497 1759 1228 1600 
Q 959 1441 959 1056 
Q 959 750 1161 570 
Q 1363 391 1709 391 
Q 2188 391 2477 730 
Q 2766 1069 2766 1631 
L 2766 1759 
L 2194 1759 
z
M 3341 1997 
L 3341 0 
L 2766 0 
L 2766 531 
Q 2569 213 2275 61 
Q 1981 -91 1556 -91 
Q 1019 -91 701 211 
Q 384 513 384 1019 
Q 384 1609 779 1909 
Q 1175 2209 1959 2209 
L 2766 2209 
L 2766 2266 
Q 2766 2663 2505 2880 
Q 2244 3097 1772 3097 
Q 1472 3097 1187 3025 
Q 903 2953 641 2809 
L 641 3341 
Q 956 3463 1253 3523 
Q 1550 3584 1831 3584 
Q 2591 3584 2966 3190 
Q 3341 2797 3341 1997 
z
" transform="scale(0.015625)"/>
       <path id="DejaVuSans-6c" d="M 603 4863 
L 1178 4863 
L 1178 0 
L 603 0 
L 603 4863 
z
" transform="scale(0.015625)"/>
       <path id="DejaVuSans-69" d="M 603 3500 
L 1178 3500 
L 1178 0 
L 603 0 
L 603 3500 
z
M 603 4863 
L 1178 4863 
L 1178 4134 
L 603 4134 
L 603 4863 
z
" transform="scale(0.015625)"/>
       <path id="DejaVuSans-7a" d="M 353 3500 
L 3084 3500 
L 3084 2975 
L 922 459 
L 3084 459 
L 3084 0 
L 275 0 
L 275 525 
L 2438 3041 
L 353 3041 
L 353 3500 
z
" transform="scale(0.015625)"/>
       <path id="DejaVuSans-64" d="M 2906 2969 
L 2906 4863 
L 3481 4863 
L 3481 0 
L 2906 0 
L 2906 525 
Q 2725 213 2448 61 
Q 2172 -91 1784 -91 
Q 1150 -91 751 415 
Q 353 922 353 1747 
Q 353 2572 751 3078 
Q 1150 3584 1784 3584 
Q 2172 3584 2448 3432 
Q 2725 3281 2906 2969 
z
M 947 1747 
Q 947 1113 1208 752 
Q 1469 391 1925 391 
Q 2381 391 2643 752 
Q 2906 1113 2906 1747 
Q 2906 2381 2643 2742 
Q 2381 3103 1925 3103 
Q 1469 3103 1208 2742 
Q 947 2381 947 1747 
z
" transform="scale(0.015625)"/>
       <path id="DejaVuSans-20" transform="scale(0.015625)"/>
       <path id="DejaVuSans-73" d="M 2834 3397 
L 2834 2853 
Q 2591 2978 2328 3040 
Q 2066 3103 1784 3103 
Q 1356 3103 1142 2972 
Q 928 2841 928 2578 
Q 928 2378 1081 2264 
Q 1234 2150 1697 2047 
L 1894 2003 
Q 2506 1872 2764 1633 
Q 3022 1394 3022 966 
Q 3022 478 2636 193 
Q 2250 -91 1575 -91 
Q 1294 -91 989 -36 
Q 684 19 347 128 
L 347 722 
Q 666 556 975 473 
Q 1284 391 1588 391 
Q 1994 391 2212 530 
Q 2431 669 2431 922 
Q 2431 1156 2273 1281 
Q 2116 1406 1581 1522 
L 1381 1569 
Q 847 1681 609 1914 
Q 372 2147 372 2553 
Q 372 3047 722 3315 
Q 1072 3584 1716 3584 
Q 2034 3584 2315 3537 
Q 2597 3491 2834 3397 
z
" transform="scale(0.015625)"/>
       <path id="DejaVuSans-70" d="M 1159 525 
L 1159 -1331 
L 581 -1331 
L 581 3500 
L 1159 3500 
L 1159 2969 
Q 1341 3281 1617 3432 
Q 1894 3584 2278 3584 
Q 2916 3584 3314 3078 
Q 3713 2572 3713 1747 
Q 3713 922 3314 415 
Q 2916 -91 2278 -91 
Q 1894 -91 1617 61 
Q 1341 213 1159 525 
z
M 3116 1747 
Q 3116 2381 2855 2742 
Q 2594 3103 2138 3103 
Q 1681 3103 1420 2742 
Q 1159 2381 1159 1747 
Q 1159 1113 1420 752 
Q 1681 391 2138 391 
Q 2594 391 2855 752 
Q 3116 1113 3116 1747 
z
" transform="scale(0.015625)"/>
       <path id="DejaVuSans-74" d="M 1172 4494 
L 1172 3500 
L 2356 3500 
L 2356 3053 
L 1172 3053 
L 1172 1153 
Q 1172 725 1289 603 
Q 1406 481 1766 481 
L 2356 481 
L 2356 0 
L 1766 0 
Q 1100 0 847 248 
Q 594 497 594 1153 
L 594 3053 
L 172 3053 
L 172 3500 
L 594 3500 
L 594 4494 
L 1172 4494 
z
" transform="scale(0.015625)"/>
      </defs>
      <use xlink:href="#DejaVuSans-4e"/>
      <use xlink:href="#DejaVuSans-6f" transform="translate(74.804688 0)"/>
      <use xlink:href="#DejaVuSans-72" transform="translate(135.986328 0)"/>
      <use xlink:href="#DejaVuSans-6d" transform="translate(175.349609 0)"/>
      <use xlink:href="#DejaVuSans-61" transform="translate(272.761719 0)"/>
      <use xlink:href="#DejaVuSans-6c" transform="translate(334.041016 0)"/>
      <use xlink:href="#DejaVuSans-69" transform="translate(361.824219 0)"/>
      <use xlink:href="#DejaVuSans-7a" transform="translate(389.607422 0)"/>
      <use xlink:href="#DejaVuSans-65" transform="translate(442.097656 0)"/>
      <use xlink:href="#DejaVuSans-64" transform="translate(503.621094 0)"/>
      <use xlink:href="#DejaVuSans-20" transform="translate(567.097656 0)"/>
      <use xlink:href="#DejaVuSans-73" transform="translate(598.884766 0)"/>
      <use xlink:href="#DejaVuSans-70" transform="translate(650.984375 0)"/>
      <use xlink:href="#DejaVuSans-65" transform="translate(714.460938 0)"/>
      <use xlink:href="#DejaVuSans-63" transform="translate(775.984375 0)"/>
      <use xlink:href="#DejaVuSans-74" transform="translate(830.964844 0)"/>
      <use xlink:href="#DejaVuSans-72" transform="translate(870.173828 0)"/>
      <use xlink:href="#DejaVuSans-61" transform="translate(911.287109 0)"/>
      <use xlink:href="#DejaVuSans-6c" transform="translate(972.566406 0)"/>
      <use xlink:href="#DejaVuSans-20" transform="translate(1000.349609 0)"/>
      <use xlink:href="#DejaVuSans-64" transform="translate(1032.136719 0)"/>
      <use xlink:href="#DejaVuSans-65" transform="translate(1095.613281 0)"/>
      <use xlink:href="#DejaVuSans-6e" transform="translate(1157.136719 0)"/>
      <use xlink:href="#DejaVuSans-73" transform="translate(1220.515625 0)"/>
      <use xlink:href="#DejaVuSans-69" transform="translate(1272.615234 0)"/>
      <use xlink:href="#DejaVuSans-74" transform="translate(1300.398438 0)"/>
      <use xlink:href="#DejaVuSans-79" transform="translate(1339.607422 0)"/>
     </g>
    </g>
   </g>
   <g id="line2d_42">
    <path d="M 115.363636 139.250586 
L 184.644941 119.243917 
L 225.171905 146.796193 
L 253.926245 192.260465 
L 276.229843 236.341715 
L 294.45321 266.689996 
L 309.860847 290.151872 
L 323.207549 303.909079 
L 334.980175 322.207559 
L 345.511147 332.840839 
L 355.037571 343.409616 
L 371.734926 355.27424 
L 379.142151 361.410392 
L 386.038112 369.720227 
L 392.488853 374.329199 
L 398.548393 381.159757 
L 404.261479 389.174633 
L 409.665594 394.444 
L 414.792451 398.41975 
L 419.669116 403.532271 
L 424.318875 408.837061 
L 428.761908 411.961122 
L 433.015818 415.17427 
L 437.096049 418.894131 
L 444.788444 423.722218 
L 448.423455 425.804406 
L 451.930895 428.175547 
L 455.319416 430.258407 
L 458.596818 432.657752 
L 461.770157 435.166169 
L 464.84584 436.087652 
L 470.727053 441.065882 
L 473.542783 442.841367 
L 476.281359 445.423984 
L 478.946899 447.464078 
L 481.543195 448.555908 
L 484.073755 450.738037 
L 486.541826 451.537798 
L 488.95042 453.175369 
L 491.302335 455.07138 
L 493.600179 456.591259 
L 495.846381 458.65291 
L 498.043212 459.443939 
L 500.192796 460.765453 
L 504.358057 462.503633 
L 506.377354 463.552571 
L 508.356662 463.800645 
L 510.297534 465.28506 
L 512.201435 465.389525 
L 514.069748 466.46236 
L 515.903777 468.055116 
L 517.704759 468.467451 
L 519.473863 469.378079 
L 521.212199 469.26178 
L 524.60072 471.081473 
L 527.878122 472.457666 
L 529.477385 473.136908 
L 531.051461 473.437456 
L 532.601132 474.079226 
L 535.630207 474.581639 
L 537.111001 475.035031 
L 541.426137 476.008952 
L 544.202754 477.12904 
L 545.562664 477.055688 
L 546.904319 477.131939 
L 548.228203 477.581151 
L 549.534781 478.288489 
L 550.824499 478.686731 
L 552.097788 478.372752 
L 555.82313 479.941668 
L 557.034682 479.853608 
L 560.583639 481.41144 
L 561.739164 481.684917 
L 562.881483 482.099247 
L 566.232136 482.680067 
L 567.324516 483.468067 
L 568.405087 483.812769 
L 569.4741 483.675274 
L 572.614205 484.705156 
L 573.639361 484.800908 
L 574.654109 485.285663 
L 575.658658 485.157212 
L 576.653211 485.749065 
L 581.48274 485.735748 
L 583.351052 486.228927 
L 584.272273 486.611818 
L 586.089628 486.660291 
L 587.874529 487.560524 
L 588.755168 487.641199 
L 590.493504 488.671781 
L 593.045603 489.139518 
L 597.159426 489.116661 
L 597.962256 488.805159 
L 598.758689 488.747312 
L 599.548826 488.523216 
L 600.332765 488.423587 
L 601.110604 488.633054 
L 601.882437 488.478081 
L 604.162805 488.689001 
L 604.911511 488.90797 
L 605.65465 488.773996 
L 606.392305 488.937927 
L 607.851481 488.919586 
L 608.573158 489.174299 
L 610.707441 489.190625 
L 611.40886 489.414096 
L 612.105391 489.422834 
L 612.797102 489.713977 
L 614.166326 489.510911 
L 614.843968 489.649168 
L 615.517046 489.620681 
L 616.185623 489.876653 
L 619.463024 490.101826 
L 620.105803 490.321168 
L 620.744475 490.352505 
L 621.379092 490.60205 
L 622.636364 490.71108 
L 622.636364 490.71108 
" clip-path="url(#p72fcf1ec09)" style="fill: none; stroke: #1f77b4; stroke-opacity: 0.5; stroke-width: 1.5; stroke-linecap: square"/>
   </g>
   <g id="line2d_43">
    <path d="M 115.363636 351.650985 
L 184.644941 365.534375 
L 225.171905 379.12665 
L 253.926245 390.784341 
L 276.229843 398.97018 
L 294.45321 400.63207 
L 309.860847 398.174705 
L 323.207549 400.566659 
L 334.980175 401.38365 
L 355.037571 404.027598 
L 363.734514 402.999705 
L 371.734926 407.848669 
L 379.142151 408.934731 
L 386.038112 410.278353 
L 392.488853 410.696612 
L 398.548393 416.994608 
L 404.261479 419.717237 
L 409.665594 421.376758 
L 414.792451 423.888783 
L 419.669116 425.308066 
L 424.318875 426.13852 
L 428.761908 424.405743 
L 433.015818 423.410078 
L 437.096049 421.991024 
L 441.01623 416.857748 
L 444.788444 415.567732 
L 448.423455 412.127006 
L 451.930895 407.213791 
L 455.319416 401.6962 
L 458.596818 402.858638 
L 461.770157 400.362842 
L 464.84584 393.680501 
L 467.829697 383.866185 
L 470.727053 382.915436 
L 473.542783 384.516648 
L 476.281359 385.899131 
L 478.946899 384.449514 
L 481.543195 380.718576 
L 484.073755 380.095933 
L 486.541826 384.836856 
L 488.95042 386.288068 
L 491.302335 389.305282 
L 493.600179 393.755025 
L 495.846381 397.128442 
L 498.043212 401.497947 
L 500.192796 406.515563 
L 502.297122 408.375071 
L 504.358057 413.997718 
L 508.356662 423.594167 
L 510.297534 427.538801 
L 512.201435 430.846608 
L 514.069748 434.922251 
L 515.903777 439.809497 
L 517.704759 442.020767 
L 519.473863 443.852789 
L 521.212199 447.797223 
L 522.920819 449.367007 
L 524.60072 451.583564 
L 527.878122 454.517339 
L 531.051461 456.312934 
L 532.601132 458.137669 
L 534.127144 459.561733 
L 540.008357 462.17532 
L 541.426137 463.866145 
L 544.202754 465.33028 
L 546.904319 467.368452 
L 549.534781 467.568233 
L 553.355059 469.42331 
L 554.596713 469.534951 
L 555.82313 470.050422 
L 558.231724 472.246479 
L 559.414599 472.237463 
L 560.583639 473.551016 
L 561.739164 473.527283 
L 562.881483 475.365049 
L 564.010894 475.529961 
L 567.324516 478.182309 
L 568.405087 478.845349 
L 569.4741 479.276997 
L 570.531801 479.891366 
L 571.578426 481.228879 
L 572.614205 481.886617 
L 573.639361 482.984781 
L 574.654109 483.617591 
L 575.658658 482.533241 
L 577.637966 482.933672 
L 578.613113 482.927981 
L 580.535322 482.439908 
L 581.48274 482.715489 
L 582.421261 482.585583 
L 583.351052 483.554546 
L 584.272273 483.785179 
L 585.185081 483.822106 
L 586.089628 484.149863 
L 586.986063 484.66554 
L 587.874529 484.733218 
L 589.628115 485.841704 
L 590.493504 486.417296 
L 591.351464 486.367524 
L 592.202123 486.533512 
L 593.045603 486.886349 
L 593.882024 486.809504 
L 594.711505 487.101266 
L 595.534158 487.226462 
L 596.350095 487.018792 
L 597.962256 486.937543 
L 598.758689 487.080724 
L 599.548826 486.993563 
L 600.332765 487.033802 
L 601.110604 487.351906 
L 601.882437 487.464137 
L 602.648355 487.870843 
L 604.162805 488.016491 
L 604.911511 487.700928 
L 605.65465 488.128131 
L 609.289661 488.899665 
L 610.001065 488.801208 
L 611.40886 489.154817 
L 612.105391 489.301986 
L 612.797102 489.154095 
L 613.484058 489.229533 
L 614.166326 489.505664 
L 614.843968 489.420105 
L 615.517046 489.543099 
L 616.185623 489.832704 
L 616.849757 489.888207 
L 617.509507 490.208284 
L 618.816085 490.123669 
L 619.463024 490.350215 
L 622.636364 490.710578 
L 622.636364 490.710578 
" clip-path="url(#p72fcf1ec09)" style="fill: none; stroke-dasharray: 5,8.25; stroke-dashoffset: 0; stroke: #ff7f0e; stroke-width: 5"/>
   </g>
   <g id="line2d_44">
    <path d="M 115.363636 317.436342 
L 184.644941 321.953174 
L 225.171905 344.797304 
L 253.926245 359.42522 
L 276.229843 371.669243 
L 294.45321 380.650366 
L 309.860847 385.431194 
L 323.207549 383.812621 
L 334.980175 381.391916 
L 355.037571 381.14248 
L 363.734514 380.037888 
L 371.734926 380.173012 
L 379.142151 381.367365 
L 386.038112 384.04222 
L 392.488853 384.430607 
L 398.548393 381.663065 
L 404.261479 383.88547 
L 409.665594 384.108805 
L 414.792451 381.915899 
L 419.669116 377.371785 
L 424.318875 375.34394 
L 428.761908 371.508083 
L 433.015818 365.549519 
L 437.096049 363.513566 
L 441.01623 355.538036 
L 444.788444 349.960729 
L 448.423455 351.136071 
L 455.319416 358.002249 
L 458.596818 365.456642 
L 461.770157 371.237673 
L 464.84584 379.262198 
L 467.829697 388.566388 
L 470.727053 392.214919 
L 473.542783 398.766824 
L 476.281359 406.076726 
L 478.946899 409.629565 
L 481.543195 414.122323 
L 484.073755 419.416273 
L 486.541826 422.095336 
L 488.95042 424.192807 
L 491.302335 427.217288 
L 493.600179 429.347545 
L 495.846381 433.714155 
L 498.043212 435.782567 
L 500.192796 440.037704 
L 502.297122 443.05782 
L 504.358057 445.389846 
L 506.377354 447.365409 
L 508.356662 448.537086 
L 510.297534 450.778078 
L 512.201435 452.209133 
L 514.069748 454.392533 
L 515.903777 455.31489 
L 517.704759 457.552126 
L 519.473863 459.316763 
L 521.212199 460.00448 
L 522.920819 461.697937 
L 526.252854 464.377921 
L 527.878122 465.499387 
L 529.477385 466.183713 
L 534.127144 469.307016 
L 535.630207 470.051151 
L 537.111001 471.035187 
L 541.426137 473.221859 
L 542.824087 473.519508 
L 544.202754 474.519677 
L 545.562664 474.658702 
L 546.904319 475.628263 
L 548.228203 476.263433 
L 549.534781 476.343119 
L 550.824499 476.740297 
L 552.097788 477.477917 
L 554.596713 478.699705 
L 555.82313 478.985427 
L 557.034682 479.69347 
L 559.414599 480.600675 
L 560.583639 481.304466 
L 561.739164 481.637848 
L 562.881483 482.487687 
L 565.127685 483.731236 
L 567.324516 484.593404 
L 569.4741 485.729956 
L 570.531801 485.983977 
L 574.654109 487.876083 
L 575.658658 487.863424 
L 576.653211 488.01789 
L 577.637966 487.957247 
L 578.613113 487.562999 
L 579.578838 487.389317 
L 581.48274 487.447226 
L 582.421261 487.280552 
L 583.351052 487.311203 
L 585.185081 487.765906 
L 588.755168 488.478215 
L 589.628115 488.395829 
L 592.202123 489.046435 
L 593.045603 488.896827 
L 594.711505 489.277159 
L 595.534158 489.263345 
L 596.350095 489.431382 
L 597.159426 489.407659 
L 597.962256 489.690373 
L 598.758689 489.584985 
L 600.332765 489.727866 
L 601.882437 489.557783 
L 602.648355 489.888355 
L 603.408448 489.973652 
L 604.162805 489.92783 
L 605.65465 490.261113 
L 607.851481 490.291882 
L 608.573158 490.57976 
L 609.289661 490.606764 
L 610.001065 490.784337 
L 612.105391 490.809091 
L 613.484058 491.010986 
L 614.166326 490.998298 
L 616.185623 491.340958 
L 616.849757 491.296165 
L 618.816085 491.534327 
L 621.379092 491.805309 
L 622.009705 491.767665 
L 622.636364 491.86477 
L 622.636364 491.86477 
" clip-path="url(#p72fcf1ec09)" style="fill: none; stroke: #2ca02c; stroke-opacity: 0.5; stroke-width: 1.5; stroke-linecap: square"/>
   </g>
   <g id="line2d_45">
    <path d="M 115.363636 89.28 
L 184.644941 147.094271 
L 225.171905 238.641406 
L 253.926245 289.178089 
L 276.229843 322.701135 
L 294.45321 346.195329 
L 309.860847 357.705318 
L 334.980175 371.207881 
L 345.511147 376.190843 
L 355.037571 381.898653 
L 363.734514 384.141733 
L 371.734926 389.410116 
L 379.142151 393.401707 
L 386.038112 397.889407 
L 392.488853 402.236074 
L 398.548393 403.583296 
L 404.261479 407.234405 
L 409.665594 408.971764 
L 414.792451 412.0508 
L 419.669116 413.984575 
L 424.318875 414.522338 
L 428.761908 416.522576 
L 433.015818 417.853901 
L 437.096049 417.107001 
L 441.01623 419.156336 
L 444.788444 419.472853 
L 448.423455 420.373784 
L 455.319416 423.990405 
L 458.596818 424.266702 
L 461.770157 426.898808 
L 464.84584 427.678614 
L 467.829697 429.759083 
L 470.727053 432.184296 
L 473.542783 432.909991 
L 476.281359 433.88916 
L 478.946899 435.660355 
L 481.543195 436.948449 
L 484.073755 438.475491 
L 486.541826 439.675611 
L 491.302335 441.480061 
L 493.600179 442.709339 
L 495.846381 443.778654 
L 498.043212 445.847532 
L 500.192796 446.964358 
L 502.297122 448.280894 
L 504.358057 448.857084 
L 506.377354 450.436334 
L 508.356662 450.583925 
L 512.201435 453.141593 
L 514.069748 454.190801 
L 515.903777 455.562847 
L 517.704759 455.891826 
L 521.212199 458.228185 
L 522.920819 459.043481 
L 524.60072 459.608346 
L 527.878122 461.362818 
L 529.477385 461.7607 
L 532.601132 464.141273 
L 534.127144 464.521463 
L 535.630207 465.019696 
L 537.111001 465.901849 
L 538.570177 466.435814 
L 540.008357 467.19953 
L 541.426137 467.610871 
L 544.202754 468.970763 
L 545.562664 468.94251 
L 546.904319 469.82306 
L 548.228203 470.301673 
L 549.534781 471.05209 
L 550.824499 471.269708 
L 552.097788 471.352922 
L 553.355059 471.688453 
L 554.596713 472.366278 
L 555.82313 473.372376 
L 557.034682 473.723737 
L 558.231724 473.938928 
L 559.414599 474.779362 
L 560.583639 475.031457 
L 564.010894 477.24283 
L 565.127685 477.508185 
L 566.232136 477.643524 
L 567.324516 478.231672 
L 568.405087 479.003585 
L 569.4741 479.279335 
L 571.578426 480.416212 
L 574.654109 481.350254 
L 575.658658 481.340348 
L 576.653211 481.715347 
L 578.613113 481.815404 
L 579.578838 481.623642 
L 581.48274 481.519694 
L 583.351052 482.379685 
L 584.272273 482.328019 
L 585.185081 482.436369 
L 587.874529 483.622543 
L 588.755168 484.070755 
L 589.628115 484.303035 
L 590.493504 484.78746 
L 591.351464 485.080046 
L 592.202123 485.54018 
L 593.882024 485.597726 
L 594.711505 485.793134 
L 595.534158 485.707075 
L 596.350095 485.395617 
L 598.758689 485.376766 
L 599.548826 485.151281 
L 600.332765 485.128121 
L 601.110604 485.268415 
L 601.882437 485.166793 
L 602.648355 485.20462 
L 603.408448 485.561557 
L 604.162805 485.322533 
L 604.911511 485.405933 
L 605.65465 485.686807 
L 607.124556 485.888692 
L 607.851481 485.951359 
L 608.573158 486.197328 
L 609.289661 486.12671 
L 610.001065 486.17791 
L 610.707441 486.363147 
L 612.105391 486.505737 
L 612.797102 486.986964 
L 613.484058 486.96899 
L 614.166326 487.123693 
L 614.843968 487.04676 
L 615.517046 487.303879 
L 617.509507 487.342075 
L 618.164931 487.668143 
L 619.463024 488.027033 
L 620.105803 487.971054 
L 620.744475 488.123242 
L 622.636364 488.112431 
L 622.636364 488.112431 
" clip-path="url(#p72fcf1ec09)" style="fill: none; stroke: #d62728; stroke-opacity: 0.5; stroke-width: 1.5; stroke-linecap: square"/>
   </g>
   <g id="line2d_46">
    <path d="M 115.363636 220.927385 
L 184.644941 227.275486 
L 225.171905 265.677818 
L 253.926245 291.617504 
L 276.229843 305.203127 
L 294.45321 318.887567 
L 309.860847 325.313711 
L 323.207549 334.529313 
L 334.980175 337.571938 
L 345.511147 343.291412 
L 355.037571 345.542155 
L 363.734514 352.014581 
L 371.734926 356.841026 
L 379.142151 358.142203 
L 386.038112 362.472345 
L 392.488853 365.371927 
L 398.548393 371.322719 
L 404.261479 373.487772 
L 409.665594 377.62339 
L 414.792451 381.286533 
L 419.669116 387.425186 
L 424.318875 390.599735 
L 428.761908 392.095189 
L 433.015818 395.009917 
L 437.096049 398.229364 
L 441.01623 400.355215 
L 444.788444 405.50022 
L 448.423455 407.159001 
L 451.930895 410.677805 
L 455.319416 412.896589 
L 458.596818 416.757021 
L 461.770157 419.51278 
L 464.84584 422.44996 
L 467.829697 424.561824 
L 470.727053 427.830573 
L 473.542783 430.440758 
L 476.281359 432.406951 
L 478.946899 434.957273 
L 481.543195 436.647248 
L 484.073755 438.567381 
L 486.541826 440.603486 
L 488.95042 442.317441 
L 491.302335 444.19709 
L 493.600179 446.732978 
L 495.846381 448.146849 
L 498.043212 450.157641 
L 500.192796 451.306621 
L 502.297122 452.78851 
L 504.358057 454.653617 
L 506.377354 455.194038 
L 508.356662 456.693166 
L 510.297534 457.535011 
L 514.069748 460.03235 
L 515.903777 460.895279 
L 517.704759 461.879485 
L 519.473863 462.98099 
L 521.212199 464.233751 
L 522.920819 464.696752 
L 524.60072 465.659218 
L 527.878122 467.348488 
L 531.051461 469.052698 
L 532.601132 469.469528 
L 535.630207 470.667469 
L 538.570177 472.467537 
L 541.426137 472.906634 
L 542.824087 473.254717 
L 544.202754 473.798638 
L 545.562664 474.478435 
L 553.355059 476.338124 
L 554.596713 477.181582 
L 555.82313 477.57445 
L 558.231724 478.663042 
L 559.414599 478.747162 
L 560.583639 479.272834 
L 561.739164 479.995079 
L 564.010894 480.570882 
L 565.127685 481.227396 
L 567.324516 482.229844 
L 568.405087 482.316912 
L 572.614205 484.052639 
L 573.639361 484.707646 
L 574.654109 484.831307 
L 575.658658 484.731508 
L 576.653211 485.049832 
L 578.613113 484.865299 
L 580.535322 484.698575 
L 581.48274 484.812594 
L 582.421261 485.069301 
L 583.351052 485.00418 
L 590.493504 487.06965 
L 591.351464 487.4987 
L 592.202123 487.712274 
L 593.882024 487.681115 
L 594.711505 487.878378 
L 595.534158 487.930596 
L 596.350095 487.611106 
L 598.758689 487.6429 
L 599.548826 487.400504 
L 602.648355 487.675312 
L 603.408448 487.691179 
L 604.162805 487.872849 
L 604.911511 487.80851 
L 607.124556 488.253308 
L 607.851481 488.101875 
L 610.001065 488.521689 
L 610.707441 488.346421 
L 611.40886 488.398349 
L 614.166326 489.206782 
L 614.843968 489.004729 
L 616.185623 489.065641 
L 616.849757 489.363072 
L 618.164931 489.298967 
L 618.816085 489.589597 
L 620.744475 489.859265 
L 622.636364 489.938732 
L 622.636364 489.938732 
" clip-path="url(#p72fcf1ec09)" style="fill: none; stroke: #9467bd; stroke-opacity: 0.5; stroke-width: 1.5; stroke-linecap: square"/>
   </g>
   <g id="line2d_47">
    <path d="M 115.363636 267.278286 
L 184.644941 285.517132 
L 225.171905 321.770928 
L 253.926245 345.683348 
L 276.229843 357.852806 
L 294.45321 366.076715 
L 309.860847 366.825257 
L 323.207549 366.692738 
L 334.980175 369.23486 
L 345.511147 371.286915 
L 355.037571 372.779214 
L 363.734514 374.411741 
L 371.734926 380.395627 
L 379.142151 385.265413 
L 386.038112 389.419867 
L 398.548393 398.506401 
L 409.665594 406.319298 
L 414.792451 409.401832 
L 419.669116 413.367588 
L 424.318875 414.794659 
L 428.761908 416.977165 
L 433.015818 417.520838 
L 437.096049 418.581601 
L 441.01623 418.413849 
L 444.788444 418.683362 
L 448.423455 419.071715 
L 451.930895 417.857261 
L 455.319416 418.740894 
L 458.596818 421.171061 
L 461.770157 421.02425 
L 464.84584 420.418544 
L 467.829697 420.256693 
L 470.727053 422.373041 
L 476.281359 422.872243 
L 478.946899 424.897509 
L 481.543195 425.915326 
L 484.073755 427.559392 
L 486.541826 428.070299 
L 488.95042 430.323859 
L 491.302335 430.734659 
L 493.600179 433.032369 
L 495.846381 432.742305 
L 498.043212 433.981121 
L 500.192796 436.199371 
L 502.297122 437.493375 
L 504.358057 438.9879 
L 506.377354 441.223647 
L 508.356662 442.998992 
L 510.297534 443.610743 
L 514.069748 446.553223 
L 515.903777 447.4835 
L 517.704759 448.535882 
L 519.473863 450.157011 
L 521.212199 451.145174 
L 526.252854 454.977234 
L 527.878122 455.724037 
L 529.477385 456.103997 
L 531.051461 457.296272 
L 532.601132 458.703717 
L 534.127144 459.266533 
L 535.630207 460.332762 
L 537.111001 460.981951 
L 538.570177 462.094332 
L 540.008357 462.12491 
L 542.824087 463.462433 
L 544.202754 464.347447 
L 545.562664 464.766713 
L 546.904319 465.897853 
L 548.228203 466.808837 
L 554.596713 468.685133 
L 555.82313 469.48274 
L 557.034682 470.467006 
L 558.231724 471.291999 
L 559.414599 471.700555 
L 561.739164 472.88562 
L 565.127685 474.455535 
L 569.4741 477.086851 
L 570.531801 477.683022 
L 571.578426 477.936497 
L 573.639361 479.006685 
L 574.654109 479.170278 
L 575.658658 479.174039 
L 576.653211 479.556114 
L 577.637966 479.706612 
L 578.613113 479.734123 
L 580.535322 479.622714 
L 581.48274 480.108546 
L 582.421261 479.917248 
L 583.351052 480.073444 
L 584.272273 480.597484 
L 585.185081 480.791555 
L 586.986063 481.425522 
L 587.874529 481.637014 
L 588.755168 482.025927 
L 589.628115 482.652904 
L 592.202123 484.073767 
L 593.882024 484.122363 
L 594.711505 484.53786 
L 595.534158 484.272238 
L 596.350095 484.342183 
L 597.962256 483.821185 
L 598.758689 483.735108 
L 599.548826 483.943901 
L 601.110604 484.051586 
L 601.882437 484.303616 
L 602.648355 484.176718 
L 603.408448 484.412841 
L 604.162805 484.297688 
L 604.911511 484.615383 
L 606.392305 484.889541 
L 607.851481 485.091293 
L 608.573158 485.050579 
L 609.289661 485.523655 
L 612.105391 485.728008 
L 612.797102 485.908963 
L 613.484058 485.935055 
L 614.843968 486.263983 
L 617.509507 486.780771 
L 618.164931 486.966532 
L 619.463024 487.067219 
L 621.379092 487.503361 
L 622.009705 487.656593 
L 622.636364 487.621689 
L 622.636364 487.621689 
" clip-path="url(#p72fcf1ec09)" style="fill: none; stroke: #8c564b; stroke-opacity: 0.5; stroke-width: 1.5; stroke-linecap: square"/>
   </g>
   <g id="line2d_48">
    <path d="M 115.363636 284.330307 
L 184.644941 273.560374 
L 225.171905 282.949523 
L 253.926245 293.768589 
L 276.229843 306.918997 
L 294.45321 308.132591 
L 309.860847 304.603746 
L 323.207549 307.026924 
L 334.980175 304.98727 
L 345.511147 296.676129 
L 355.037571 284.903174 
L 363.734514 260.270268 
L 371.734926 240.760651 
L 379.142151 228.539785 
L 386.038112 236.566703 
L 392.488853 280.427332 
L 398.548393 331.271055 
L 404.261479 359.330366 
L 409.665594 376.435863 
L 414.792451 385.082654 
L 419.669116 394.292029 
L 424.318875 400.200334 
L 428.761908 402.559981 
L 433.015818 401.63083 
L 437.096049 403.95557 
L 441.01623 407.524717 
L 444.788444 408.898359 
L 448.423455 412.199551 
L 451.930895 415.797576 
L 455.319416 418.253297 
L 458.596818 419.818642 
L 461.770157 425.979333 
L 464.84584 433.40956 
L 467.829697 435.759188 
L 470.727053 439.358578 
L 473.542783 442.266964 
L 476.281359 444.774385 
L 478.946899 446.927531 
L 481.543195 449.219786 
L 484.073755 450.141947 
L 486.541826 452.574508 
L 488.95042 454.022699 
L 491.302335 455.859661 
L 493.600179 456.788024 
L 495.846381 458.249203 
L 498.043212 460.605434 
L 500.192796 461.46745 
L 502.297122 462.462851 
L 506.377354 464.981579 
L 508.356662 466.725168 
L 510.297534 467.243887 
L 512.201435 468.470694 
L 514.069748 469.295217 
L 515.903777 470.714823 
L 517.704759 471.299429 
L 521.212199 473.200242 
L 522.920819 473.568643 
L 524.60072 474.486293 
L 526.252854 474.665372 
L 527.878122 475.832862 
L 529.477385 476.211414 
L 531.051461 477.064067 
L 532.601132 477.345164 
L 534.127144 478.055831 
L 537.111001 478.476531 
L 538.570177 479.500313 
L 540.008357 479.479621 
L 541.426137 480.515678 
L 542.824087 480.985659 
L 544.202754 480.907458 
L 545.562664 481.478261 
L 548.228203 482.220638 
L 549.534781 482.126228 
L 550.824499 482.979578 
L 552.097788 482.968081 
L 554.596713 483.116565 
L 555.82313 483.905991 
L 561.739164 485.363826 
L 562.881483 486.038381 
L 565.127685 485.990339 
L 566.232136 486.365575 
L 567.324516 486.922928 
L 569.4741 487.636431 
L 570.531801 487.723746 
L 571.578426 488.142594 
L 572.614205 488.040584 
L 573.639361 488.464757 
L 574.654109 488.706937 
L 575.658658 488.514716 
L 577.637966 488.839761 
L 578.613113 488.592771 
L 579.578838 488.864697 
L 585.185081 489.505417 
L 586.089628 489.714832 
L 586.986063 489.627202 
L 590.493504 490.577092 
L 591.351464 490.616525 
L 593.045603 490.999534 
L 594.711505 491.132535 
L 595.534158 491.124403 
L 596.350095 490.942017 
L 597.159426 490.95803 
L 597.962256 490.690987 
L 600.332765 490.888159 
L 601.110604 490.795774 
L 601.882437 490.965424 
L 602.648355 490.929099 
L 604.162805 491.171688 
L 605.65465 490.98703 
L 606.392305 491.010637 
L 607.124556 491.351931 
L 607.851481 491.180642 
L 610.001065 491.426396 
L 610.707441 491.374303 
L 612.105391 491.603414 
L 613.484058 491.638561 
L 614.166326 491.809317 
L 615.517046 491.861472 
L 616.185623 492.047973 
L 617.509507 492.088527 
L 618.816085 492.168073 
L 622.636364 492.474086 
L 622.636364 492.474086 
" clip-path="url(#p72fcf1ec09)" style="fill: none; stroke: #e377c2; stroke-opacity: 0.5; stroke-width: 1.5; stroke-linecap: square"/>
   </g>
   <g id="line2d_49">
    <path d="M 115.363636 307.892171 
L 184.644941 305.70973 
L 225.171905 325.229745 
L 253.926245 348.254944 
L 276.229843 361.757767 
L 294.45321 371.801487 
L 309.860847 374.490271 
L 323.207549 375.569157 
L 334.980175 378.342811 
L 345.511147 376.507779 
L 355.037571 378.284766 
L 363.734514 374.418215 
L 371.734926 362.669201 
L 379.142151 349.511142 
L 386.038112 319.669619 
L 392.488853 296.54397 
L 398.548393 269.275068 
L 404.261479 253.887007 
L 409.665594 273.324916 
L 414.792451 292.70441 
L 424.318875 346.579862 
L 428.761908 367.620565 
L 433.015818 381.392478 
L 437.096049 390.276638 
L 441.01623 399.299477 
L 444.788444 400.736072 
L 448.423455 404.597204 
L 451.930895 407.782088 
L 455.319416 407.445119 
L 458.596818 411.604815 
L 461.770157 412.803322 
L 464.84584 412.250888 
L 467.829697 411.43519 
L 470.727053 414.909562 
L 473.542783 418.974836 
L 476.281359 423.49974 
L 478.946899 426.651266 
L 481.543195 430.109083 
L 484.073755 434.112257 
L 486.541826 439.119974 
L 488.95042 442.558548 
L 491.302335 443.830082 
L 493.600179 446.520793 
L 495.846381 449.421373 
L 498.043212 451.452161 
L 500.192796 452.695162 
L 502.297122 455.104059 
L 504.358057 455.677448 
L 506.377354 457.257759 
L 508.356662 458.403426 
L 510.297534 459.804355 
L 514.069748 461.592564 
L 515.903777 463.023599 
L 517.704759 463.965963 
L 519.473863 465.460605 
L 522.920819 467.848758 
L 526.252854 470.246564 
L 527.878122 470.839857 
L 529.477385 471.276303 
L 532.601132 473.085188 
L 534.127144 473.524551 
L 535.630207 474.270309 
L 537.111001 475.481091 
L 538.570177 475.401621 
L 540.008357 476.072092 
L 541.426137 476.963861 
L 542.824087 477.174354 
L 544.202754 478.059076 
L 545.562664 478.269317 
L 548.228203 479.034362 
L 549.534781 480.073427 
L 550.824499 479.939021 
L 552.097788 480.524974 
L 553.355059 480.721468 
L 555.82313 481.719597 
L 558.231724 482.431134 
L 559.414599 483.103039 
L 560.583639 483.405303 
L 561.739164 484.019814 
L 562.881483 484.027628 
L 564.010894 484.748956 
L 565.127685 485.276186 
L 567.324516 485.875731 
L 569.4741 486.853042 
L 570.531801 487.031721 
L 571.578426 487.428478 
L 572.614205 487.989722 
L 574.654109 488.410028 
L 576.653211 488.141363 
L 577.637966 488.376788 
L 578.613113 488.385024 
L 579.578838 488.505336 
L 582.421261 488.237557 
L 583.351052 488.316153 
L 584.272273 488.626936 
L 585.185081 488.625547 
L 586.089628 488.931646 
L 586.986063 489.058717 
L 587.874529 489.038006 
L 591.351464 489.752359 
L 592.202123 490.129422 
L 594.711505 489.962503 
L 595.534158 490.010399 
L 596.350095 490.407446 
L 597.962256 490.099053 
L 598.758689 490.08085 
L 600.332765 490.170151 
L 602.648355 490.330334 
L 603.408448 490.359733 
L 604.162805 490.543705 
L 604.911511 490.366872 
L 605.65465 490.677891 
L 606.392305 490.578395 
L 607.124556 490.768223 
L 608.573158 490.845547 
L 610.001065 490.953735 
L 612.105391 490.916273 
L 613.484058 491.3738 
L 614.166326 491.207812 
L 614.843968 491.4806 
L 615.517046 491.34688 
L 616.185623 491.451904 
L 616.849757 491.6825 
L 618.164931 491.595082 
L 620.105803 491.945483 
L 620.744475 491.652477 
L 622.009705 491.855174 
L 622.636364 492.003656 
L 622.636364 492.003656 
" clip-path="url(#p72fcf1ec09)" style="fill: none; stroke: #7f7f7f; stroke-opacity: 0.5; stroke-width: 1.5; stroke-linecap: square"/>
   </g>
   <g id="patch_3">
    <path d="M 90 512.64 
L 90 69.12 
" style="fill: none; stroke: #000000; stroke-width: 0.8; stroke-linejoin: miter; stroke-linecap: square"/>
   </g>
   <g id="patch_4">
    <path d="M 648 512.64 
L 648 69.12 
" style="fill: none; stroke: #000000; stroke-width: 0.8; stroke-linejoin: miter; stroke-linecap: square"/>
   </g>
   <g id="patch_5">
    <path d="M 90 512.64 
L 648 512.64 
" style="fill: none; stroke: #000000; stroke-width: 0.8; stroke-linejoin: miter; stroke-linecap: square"/>
   </g>
   <g id="patch_6">
    <path d="M 90 69.12 
L 648 69.12 
" style="fill: none; stroke: #000000; stroke-width: 0.8; stroke-linejoin: miter; stroke-linecap: square"/>
   </g>
   <g id="text_15">
    <!-- $\delta$ -->
    <g transform="translate(249.586245 93.063413) scale(0.14 -0.14)">
     <defs>
      <path id="DejaVuSans-Oblique-3b4" d="M 3472 4053 
Q 3197 4272 2450 4272 
Q 1659 4272 1588 3906 
Q 1531 3619 2328 3469 
Q 2953 3353 3253 3003 
Q 3616 2581 3447 1716 
Q 3284 888 2763 400 
Q 2238 -91 1488 -91 
Q 741 -91 406 400 
Q 72 888 241 1747 
Q 363 2384 891 2900 
Q 1097 3100 1353 3213 
Q 913 3459 1000 3900 
Q 1166 4750 2544 4750 
Q 3234 4750 3566 4531 
L 3472 4053 
z
M 1753 3056 
Q 1525 2966 1306 2738 
Q 969 2384 847 1747 
Q 722 1113 919 756 
Q 1119 397 1584 397 
Q 2044 397 2381 759 
Q 2722 1122 2838 1716 
Q 2956 2338 2731 2638 
Q 2491 2959 2103 2994 
Q 1906 3013 1753 3056 
z
" transform="scale(0.015625)"/>
     </defs>
     <use xlink:href="#DejaVuSans-Oblique-3b4" transform="translate(0 0.78125)"/>
    </g>
   </g>
   <g id="text_16">
    <!-- $\theta$ -->
    <g transform="translate(359.394514 93.063413) scale(0.14 -0.14)">
     <defs>
      <path id="DejaVuSans-Oblique-3b8" d="M 2913 2219 
L 925 2219 
Q 791 1284 928 888 
Q 1100 400 1566 400 
Q 2034 400 2391 891 
Q 2703 1322 2913 2219 
z
M 3009 2750 
Q 3094 3638 2984 3950 
Q 2813 4444 2353 4444 
Q 1875 4444 1525 3956 
Q 1250 3563 1034 2750 
L 3009 2750 
z
M 2444 4913 
Q 3194 4913 3494 4250 
Q 3794 3591 3566 2422 
Q 3341 1256 2781 594 
Q 2225 -72 1475 -72 
Q 722 -72 425 594 
Q 128 1256 353 2422 
Q 581 3591 1134 4250 
Q 1691 4913 2444 4913 
z
" transform="scale(0.015625)"/>
     </defs>
     <use xlink:href="#DejaVuSans-Oblique-3b8" transform="translate(0 0.234375)"/>
    </g>
   </g>
   <g id="text_17">
    <!-- $\alpha$ -->
    <g transform="translate(410.172451 93.063413) scale(0.14 -0.14)">
     <defs>
      <path id="DejaVuSans-Oblique-3b1" d="M 2619 1628 
L 2622 2350 
Q 2625 3088 2069 3091 
Q 1653 3094 1394 2747 
Q 1069 2319 959 1747 
Q 825 1059 994 731 
Q 1169 397 1547 397 
Q 1966 397 2319 1063 
L 2619 1628 
z
M 2166 3578 
Q 3141 3594 3128 2584 
Q 3128 2584 3616 3500 
L 4128 3500 
L 3119 1603 
L 3109 919 
Q 3109 766 3194 638 
Q 3291 488 3391 488 
L 3669 488 
L 3575 0 
L 3228 0 
Q 2934 0 2722 263 
Q 2622 394 2619 669 
Q 2416 334 2066 50 
Q 1900 -81 1453 -78 
Q 722 -72 456 397 
Q 184 884 353 1747 
Q 534 2675 1009 3097 
Q 1544 3569 2166 3578 
z
" transform="scale(0.015625)"/>
     </defs>
     <use xlink:href="#DejaVuSans-Oblique-3b1" transform="translate(0 0.84375)"/>
    </g>
   </g>
   <g id="text_18">
    <!-- $\beta$ -->
    <g transform="translate(457.290157 93.2056) scale(0.14 -0.14)">
     <defs>
      <path id="DejaVuSans-Oblique-3b2" d="M 872 216 
L 572 -1331 
L -6 -1331 
L 928 3478 
Q 1206 4903 2538 4903 
Q 3888 4903 3659 3700 
Q 3503 2844 2894 2531 
Q 3713 2250 3553 1416 
Q 3272 -69 1759 -66 
Q 1097 -63 872 216 
z
M 1019 966 
Q 1259 422 1875 425 
Q 2775 425 2966 1406 
Q 3138 2288 1675 2219 
L 1778 2750 
Q 2909 2731 3106 3750 
Q 3241 4438 2509 4434 
Q 1691 4434 1503 3459 
L 1019 966 
z
" transform="scale(0.015625)"/>
     </defs>
     <use xlink:href="#DejaVuSans-Oblique-3b2" transform="translate(0 0.390625)"/>
    </g>
   </g>
   <g id="text_19">
    <!-- $\gamma$ -->
    <g transform="translate(538.624087 93.034975) scale(0.14 -0.14)">
     <defs>
      <path id="DejaVuSans-Oblique-3b3" d="M 1491 2950 
L 1838 788 
L 3456 3500 
L 4066 3500 
L 1972 0 
L 1713 -1331 
L 1138 -1331 
L 1397 0 
L 988 2613 
Q 925 3006 628 3006 
L 475 3006 
L 569 3500 
L 788 3500 
Q 1403 3500 1491 2950 
z
" transform="scale(0.015625)"/>
     </defs>
     <use xlink:href="#DejaVuSans-Oblique-3b3" transform="translate(0 0.3125)"/>
    </g>
   </g>
   <g id="text_20">
    <!-- Median power of different  PSDs clusters of intracranial data -->
    <g transform="translate(79.2285 63.12) scale(0.192 -0.192)">
     <defs>
      <path id="DejaVuSans-4d" d="M 628 4666 
L 1569 4666 
L 2759 1491 
L 3956 4666 
L 4897 4666 
L 4897 0 
L 4281 0 
L 4281 4097 
L 3078 897 
L 2444 897 
L 1241 4097 
L 1241 0 
L 628 0 
L 628 4666 
z
" transform="scale(0.015625)"/>
      <path id="DejaVuSans-77" d="M 269 3500 
L 844 3500 
L 1563 769 
L 2278 3500 
L 2956 3500 
L 3675 769 
L 4391 3500 
L 4966 3500 
L 4050 0 
L 3372 0 
L 2619 2869 
L 1863 0 
L 1184 0 
L 269 3500 
z
" transform="scale(0.015625)"/>
      <path id="DejaVuSans-66" d="M 2375 4863 
L 2375 4384 
L 1825 4384 
Q 1516 4384 1395 4259 
Q 1275 4134 1275 3809 
L 1275 3500 
L 2222 3500 
L 2222 3053 
L 1275 3053 
L 1275 0 
L 697 0 
L 697 3053 
L 147 3053 
L 147 3500 
L 697 3500 
L 697 3744 
Q 697 4328 969 4595 
Q 1241 4863 1831 4863 
L 2375 4863 
z
" transform="scale(0.015625)"/>
      <path id="DejaVuSans-50" d="M 1259 4147 
L 1259 2394 
L 2053 2394 
Q 2494 2394 2734 2622 
Q 2975 2850 2975 3272 
Q 2975 3691 2734 3919 
Q 2494 4147 2053 4147 
L 1259 4147 
z
M 628 4666 
L 2053 4666 
Q 2838 4666 3239 4311 
Q 3641 3956 3641 3272 
Q 3641 2581 3239 2228 
Q 2838 1875 2053 1875 
L 1259 1875 
L 1259 0 
L 628 0 
L 628 4666 
z
" transform="scale(0.015625)"/>
      <path id="DejaVuSans-53" d="M 3425 4513 
L 3425 3897 
Q 3066 4069 2747 4153 
Q 2428 4238 2131 4238 
Q 1616 4238 1336 4038 
Q 1056 3838 1056 3469 
Q 1056 3159 1242 3001 
Q 1428 2844 1947 2747 
L 2328 2669 
Q 3034 2534 3370 2195 
Q 3706 1856 3706 1288 
Q 3706 609 3251 259 
Q 2797 -91 1919 -91 
Q 1588 -91 1214 -16 
Q 841 59 441 206 
L 441 856 
Q 825 641 1194 531 
Q 1563 422 1919 422 
Q 2459 422 2753 634 
Q 3047 847 3047 1241 
Q 3047 1584 2836 1778 
Q 2625 1972 2144 2069 
L 1759 2144 
Q 1053 2284 737 2584 
Q 422 2884 422 3419 
Q 422 4038 858 4394 
Q 1294 4750 2059 4750 
Q 2388 4750 2728 4690 
Q 3069 4631 3425 4513 
z
" transform="scale(0.015625)"/>
      <path id="DejaVuSans-44" d="M 1259 4147 
L 1259 519 
L 2022 519 
Q 2988 519 3436 956 
Q 3884 1394 3884 2338 
Q 3884 3275 3436 3711 
Q 2988 4147 2022 4147 
L 1259 4147 
z
M 628 4666 
L 1925 4666 
Q 3281 4666 3915 4102 
Q 4550 3538 4550 2338 
Q 4550 1131 3912 565 
Q 3275 0 1925 0 
L 628 0 
L 628 4666 
z
" transform="scale(0.015625)"/>
     </defs>
     <use xlink:href="#DejaVuSans-4d"/>
     <use xlink:href="#DejaVuSans-65" transform="translate(86.279297 0)"/>
     <use xlink:href="#DejaVuSans-64" transform="translate(147.802734 0)"/>
     <use xlink:href="#DejaVuSans-69" transform="translate(211.279297 0)"/>
     <use xlink:href="#DejaVuSans-61" transform="translate(239.0625 0)"/>
     <use xlink:href="#DejaVuSans-6e" transform="translate(300.341797 0)"/>
     <use xlink:href="#DejaVuSans-20" transform="translate(363.720703 0)"/>
     <use xlink:href="#DejaVuSans-70" transform="translate(395.507812 0)"/>
     <use xlink:href="#DejaVuSans-6f" transform="translate(458.984375 0)"/>
     <use xlink:href="#DejaVuSans-77" transform="translate(520.166016 0)"/>
     <use xlink:href="#DejaVuSans-65" transform="translate(601.953125 0)"/>
     <use xlink:href="#DejaVuSans-72" transform="translate(663.476562 0)"/>
     <use xlink:href="#DejaVuSans-20" transform="translate(704.589844 0)"/>
     <use xlink:href="#DejaVuSans-6f" transform="translate(736.376953 0)"/>
     <use xlink:href="#DejaVuSans-66" transform="translate(797.558594 0)"/>
     <use xlink:href="#DejaVuSans-20" transform="translate(832.763672 0)"/>
     <use xlink:href="#DejaVuSans-64" transform="translate(864.550781 0)"/>
     <use xlink:href="#DejaVuSans-69" transform="translate(928.027344 0)"/>
     <use xlink:href="#DejaVuSans-66" transform="translate(955.810547 0)"/>
     <use xlink:href="#DejaVuSans-66" transform="translate(991.015625 0)"/>
     <use xlink:href="#DejaVuSans-65" transform="translate(1026.220703 0)"/>
     <use xlink:href="#DejaVuSans-72" transform="translate(1087.744141 0)"/>
     <use xlink:href="#DejaVuSans-65" transform="translate(1126.607422 0)"/>
     <use xlink:href="#DejaVuSans-6e" transform="translate(1188.130859 0)"/>
     <use xlink:href="#DejaVuSans-74" transform="translate(1251.509766 0)"/>
     <use xlink:href="#DejaVuSans-20" transform="translate(1290.71875 0)"/>
     <use xlink:href="#DejaVuSans-20" transform="translate(1322.505859 0)"/>
     <use xlink:href="#DejaVuSans-50" transform="translate(1354.292969 0)"/>
     <use xlink:href="#DejaVuSans-53" transform="translate(1414.595703 0)"/>
     <use xlink:href="#DejaVuSans-44" transform="translate(1478.072266 0)"/>
     <use xlink:href="#DejaVuSans-73" transform="translate(1555.074219 0)"/>
     <use xlink:href="#DejaVuSans-20" transform="translate(1607.173828 0)"/>
     <use xlink:href="#DejaVuSans-63" transform="translate(1638.960938 0)"/>
     <use xlink:href="#DejaVuSans-6c" transform="translate(1693.941406 0)"/>
     <use xlink:href="#DejaVuSans-75" transform="translate(1721.724609 0)"/>
     <use xlink:href="#DejaVuSans-73" transform="translate(1785.103516 0)"/>
     <use xlink:href="#DejaVuSans-74" transform="translate(1837.203125 0)"/>
     <use xlink:href="#DejaVuSans-65" transform="translate(1876.412109 0)"/>
     <use xlink:href="#DejaVuSans-72" transform="translate(1937.935547 0)"/>
     <use xlink:href="#DejaVuSans-73" transform="translate(1979.048828 0)"/>
     <use xlink:href="#DejaVuSans-20" transform="translate(2031.148438 0)"/>
     <use xlink:href="#DejaVuSans-6f" transform="translate(2062.935547 0)"/>
     <use xlink:href="#DejaVuSans-66" transform="translate(2124.117188 0)"/>
     <use xlink:href="#DejaVuSans-20" transform="translate(2159.322266 0)"/>
     <use xlink:href="#DejaVuSans-69" transform="translate(2191.109375 0)"/>
     <use xlink:href="#DejaVuSans-6e" transform="translate(2218.892578 0)"/>
     <use xlink:href="#DejaVuSans-74" transform="translate(2282.271484 0)"/>
     <use xlink:href="#DejaVuSans-72" transform="translate(2321.480469 0)"/>
     <use xlink:href="#DejaVuSans-61" transform="translate(2362.59375 0)"/>
     <use xlink:href="#DejaVuSans-63" transform="translate(2423.873047 0)"/>
     <use xlink:href="#DejaVuSans-72" transform="translate(2478.853516 0)"/>
     <use xlink:href="#DejaVuSans-61" transform="translate(2519.966797 0)"/>
     <use xlink:href="#DejaVuSans-6e" transform="translate(2581.246094 0)"/>
     <use xlink:href="#DejaVuSans-69" transform="translate(2644.625 0)"/>
     <use xlink:href="#DejaVuSans-61" transform="translate(2672.408203 0)"/>
     <use xlink:href="#DejaVuSans-6c" transform="translate(2733.6875 0)"/>
     <use xlink:href="#DejaVuSans-20" transform="translate(2761.470703 0)"/>
     <use xlink:href="#DejaVuSans-64" transform="translate(2793.257812 0)"/>
     <use xlink:href="#DejaVuSans-61" transform="translate(2856.734375 0)"/>
     <use xlink:href="#DejaVuSans-74" transform="translate(2918.013672 0)"/>
     <use xlink:href="#DejaVuSans-61" transform="translate(2957.222656 0)"/>
    </g>
   </g>
   <g id="legend_1">
    <g id="patch_7">
     <path d="M 479.4375 269.8 
L 636.8 269.8 
Q 640 269.8 640 266.6 
L 640 80.32 
Q 640 77.12 636.8 77.12 
L 479.4375 77.12 
Q 476.2375 77.12 476.2375 80.32 
L 476.2375 266.6 
Q 476.2375 269.8 479.4375 269.8 
z
" style="fill: #ffffff; opacity: 0.8; stroke: #cccccc; stroke-linejoin: miter"/>
    </g>
    <g id="line2d_50">
     <path d="M 482.6375 90.0775 
L 498.6375 90.0775 
L 514.6375 90.0775 
" style="fill: none; stroke: #1f77b4; stroke-opacity: 0.5; stroke-width: 1.5; stroke-linecap: square"/>
    </g>
    <g id="text_21">
     <!-- cl. 0 (225 el.) -->
     <g transform="translate(527.4375 95.6775) scale(0.16 -0.16)">
      <defs>
       <path id="DejaVuSans-28" d="M 1984 4856 
Q 1566 4138 1362 3434 
Q 1159 2731 1159 2009 
Q 1159 1288 1364 580 
Q 1569 -128 1984 -844 
L 1484 -844 
Q 1016 -109 783 600 
Q 550 1309 550 2009 
Q 550 2706 781 3412 
Q 1013 4119 1484 4856 
L 1984 4856 
z
" transform="scale(0.015625)"/>
       <path id="DejaVuSans-29" d="M 513 4856 
L 1013 4856 
Q 1481 4119 1714 3412 
Q 1947 2706 1947 2009 
Q 1947 1309 1714 600 
Q 1481 -109 1013 -844 
L 513 -844 
Q 928 -128 1133 580 
Q 1338 1288 1338 2009 
Q 1338 2731 1133 3434 
Q 928 4138 513 4856 
z
" transform="scale(0.015625)"/>
      </defs>
      <use xlink:href="#DejaVuSans-63"/>
      <use xlink:href="#DejaVuSans-6c" transform="translate(54.980469 0)"/>
      <use xlink:href="#DejaVuSans-2e" transform="translate(82.763672 0)"/>
      <use xlink:href="#DejaVuSans-20" transform="translate(114.550781 0)"/>
      <use xlink:href="#DejaVuSans-30" transform="translate(146.337891 0)"/>
      <use xlink:href="#DejaVuSans-20" transform="translate(209.960938 0)"/>
      <use xlink:href="#DejaVuSans-28" transform="translate(241.748047 0)"/>
      <use xlink:href="#DejaVuSans-32" transform="translate(280.761719 0)"/>
      <use xlink:href="#DejaVuSans-32" transform="translate(344.384766 0)"/>
      <use xlink:href="#DejaVuSans-35" transform="translate(408.007812 0)"/>
      <use xlink:href="#DejaVuSans-20" transform="translate(471.630859 0)"/>
      <use xlink:href="#DejaVuSans-65" transform="translate(503.417969 0)"/>
      <use xlink:href="#DejaVuSans-6c" transform="translate(564.941406 0)"/>
      <use xlink:href="#DejaVuSans-2e" transform="translate(592.724609 0)"/>
      <use xlink:href="#DejaVuSans-29" transform="translate(624.511719 0)"/>
     </g>
    </g>
    <g id="line2d_51">
     <path d="M 482.6375 113.5625 
L 498.6375 113.5625 
L 514.6375 113.5625 
" style="fill: none; stroke-dasharray: 5,8.25; stroke-dashoffset: 0; stroke: #ff7f0e; stroke-width: 5"/>
    </g>
    <g id="text_22">
     <!-- cl. 1 (106 el.) -->
     <g transform="translate(527.4375 119.1625) scale(0.16 -0.16)">
      <defs>
       <path id="DejaVuSans-36" d="M 2113 2584 
Q 1688 2584 1439 2293 
Q 1191 2003 1191 1497 
Q 1191 994 1439 701 
Q 1688 409 2113 409 
Q 2538 409 2786 701 
Q 3034 994 3034 1497 
Q 3034 2003 2786 2293 
Q 2538 2584 2113 2584 
z
M 3366 4563 
L 3366 3988 
Q 3128 4100 2886 4159 
Q 2644 4219 2406 4219 
Q 1781 4219 1451 3797 
Q 1122 3375 1075 2522 
Q 1259 2794 1537 2939 
Q 1816 3084 2150 3084 
Q 2853 3084 3261 2657 
Q 3669 2231 3669 1497 
Q 3669 778 3244 343 
Q 2819 -91 2113 -91 
Q 1303 -91 875 529 
Q 447 1150 447 2328 
Q 447 3434 972 4092 
Q 1497 4750 2381 4750 
Q 2619 4750 2861 4703 
Q 3103 4656 3366 4563 
z
" transform="scale(0.015625)"/>
      </defs>
      <use xlink:href="#DejaVuSans-63"/>
      <use xlink:href="#DejaVuSans-6c" transform="translate(54.980469 0)"/>
      <use xlink:href="#DejaVuSans-2e" transform="translate(82.763672 0)"/>
      <use xlink:href="#DejaVuSans-20" transform="translate(114.550781 0)"/>
      <use xlink:href="#DejaVuSans-31" transform="translate(146.337891 0)"/>
      <use xlink:href="#DejaVuSans-20" transform="translate(209.960938 0)"/>
      <use xlink:href="#DejaVuSans-28" transform="translate(241.748047 0)"/>
      <use xlink:href="#DejaVuSans-31" transform="translate(280.761719 0)"/>
      <use xlink:href="#DejaVuSans-30" transform="translate(344.384766 0)"/>
      <use xlink:href="#DejaVuSans-36" transform="translate(408.007812 0)"/>
      <use xlink:href="#DejaVuSans-20" transform="translate(471.630859 0)"/>
      <use xlink:href="#DejaVuSans-65" transform="translate(503.417969 0)"/>
      <use xlink:href="#DejaVuSans-6c" transform="translate(564.941406 0)"/>
      <use xlink:href="#DejaVuSans-2e" transform="translate(592.724609 0)"/>
      <use xlink:href="#DejaVuSans-29" transform="translate(624.511719 0)"/>
     </g>
    </g>
    <g id="line2d_52">
     <path d="M 482.6375 137.0475 
L 498.6375 137.0475 
L 514.6375 137.0475 
" style="fill: none; stroke: #2ca02c; stroke-opacity: 0.5; stroke-width: 1.5; stroke-linecap: square"/>
    </g>
    <g id="text_23">
     <!-- cl. 2 (171 el.) -->
     <g transform="translate(527.4375 142.6475) scale(0.16 -0.16)">
      <defs>
       <path id="DejaVuSans-37" d="M 525 4666 
L 3525 4666 
L 3525 4397 
L 1831 0 
L 1172 0 
L 2766 4134 
L 525 4134 
L 525 4666 
z
" transform="scale(0.015625)"/>
      </defs>
      <use xlink:href="#DejaVuSans-63"/>
      <use xlink:href="#DejaVuSans-6c" transform="translate(54.980469 0)"/>
      <use xlink:href="#DejaVuSans-2e" transform="translate(82.763672 0)"/>
      <use xlink:href="#DejaVuSans-20" transform="translate(114.550781 0)"/>
      <use xlink:href="#DejaVuSans-32" transform="translate(146.337891 0)"/>
      <use xlink:href="#DejaVuSans-20" transform="translate(209.960938 0)"/>
      <use xlink:href="#DejaVuSans-28" transform="translate(241.748047 0)"/>
      <use xlink:href="#DejaVuSans-31" transform="translate(280.761719 0)"/>
      <use xlink:href="#DejaVuSans-37" transform="translate(344.384766 0)"/>
      <use xlink:href="#DejaVuSans-31" transform="translate(408.007812 0)"/>
      <use xlink:href="#DejaVuSans-20" transform="translate(471.630859 0)"/>
      <use xlink:href="#DejaVuSans-65" transform="translate(503.417969 0)"/>
      <use xlink:href="#DejaVuSans-6c" transform="translate(564.941406 0)"/>
      <use xlink:href="#DejaVuSans-2e" transform="translate(592.724609 0)"/>
      <use xlink:href="#DejaVuSans-29" transform="translate(624.511719 0)"/>
     </g>
    </g>
    <g id="line2d_53">
     <path d="M 482.6375 160.5325 
L 498.6375 160.5325 
L 514.6375 160.5325 
" style="fill: none; stroke: #d62728; stroke-opacity: 0.5; stroke-width: 1.5; stroke-linecap: square"/>
    </g>
    <g id="text_24">
     <!-- cl. 3 (258 el.) -->
     <g transform="translate(527.4375 166.1325) scale(0.16 -0.16)">
      <use xlink:href="#DejaVuSans-63"/>
      <use xlink:href="#DejaVuSans-6c" transform="translate(54.980469 0)"/>
      <use xlink:href="#DejaVuSans-2e" transform="translate(82.763672 0)"/>
      <use xlink:href="#DejaVuSans-20" transform="translate(114.550781 0)"/>
      <use xlink:href="#DejaVuSans-33" transform="translate(146.337891 0)"/>
      <use xlink:href="#DejaVuSans-20" transform="translate(209.960938 0)"/>
      <use xlink:href="#DejaVuSans-28" transform="translate(241.748047 0)"/>
      <use xlink:href="#DejaVuSans-32" transform="translate(280.761719 0)"/>
      <use xlink:href="#DejaVuSans-35" transform="translate(344.384766 0)"/>
      <use xlink:href="#DejaVuSans-38" transform="translate(408.007812 0)"/>
      <use xlink:href="#DejaVuSans-20" transform="translate(471.630859 0)"/>
      <use xlink:href="#DejaVuSans-65" transform="translate(503.417969 0)"/>
      <use xlink:href="#DejaVuSans-6c" transform="translate(564.941406 0)"/>
      <use xlink:href="#DejaVuSans-2e" transform="translate(592.724609 0)"/>
      <use xlink:href="#DejaVuSans-29" transform="translate(624.511719 0)"/>
     </g>
    </g>
    <g id="line2d_54">
     <path d="M 482.6375 184.0175 
L 498.6375 184.0175 
L 514.6375 184.0175 
" style="fill: none; stroke: #9467bd; stroke-opacity: 0.5; stroke-width: 1.5; stroke-linecap: square"/>
    </g>
    <g id="text_25">
     <!-- cl. 4 (325 el.) -->
     <g transform="translate(527.4375 189.6175) scale(0.16 -0.16)">
      <use xlink:href="#DejaVuSans-63"/>
      <use xlink:href="#DejaVuSans-6c" transform="translate(54.980469 0)"/>
      <use xlink:href="#DejaVuSans-2e" transform="translate(82.763672 0)"/>
      <use xlink:href="#DejaVuSans-20" transform="translate(114.550781 0)"/>
      <use xlink:href="#DejaVuSans-34" transform="translate(146.337891 0)"/>
      <use xlink:href="#DejaVuSans-20" transform="translate(209.960938 0)"/>
      <use xlink:href="#DejaVuSans-28" transform="translate(241.748047 0)"/>
      <use xlink:href="#DejaVuSans-33" transform="translate(280.761719 0)"/>
      <use xlink:href="#DejaVuSans-32" transform="translate(344.384766 0)"/>
      <use xlink:href="#DejaVuSans-35" transform="translate(408.007812 0)"/>
      <use xlink:href="#DejaVuSans-20" transform="translate(471.630859 0)"/>
      <use xlink:href="#DejaVuSans-65" transform="translate(503.417969 0)"/>
      <use xlink:href="#DejaVuSans-6c" transform="translate(564.941406 0)"/>
      <use xlink:href="#DejaVuSans-2e" transform="translate(592.724609 0)"/>
      <use xlink:href="#DejaVuSans-29" transform="translate(624.511719 0)"/>
     </g>
    </g>
    <g id="line2d_55">
     <path d="M 482.6375 207.5025 
L 498.6375 207.5025 
L 514.6375 207.5025 
" style="fill: none; stroke: #8c564b; stroke-opacity: 0.5; stroke-width: 1.5; stroke-linecap: square"/>
    </g>
    <g id="text_26">
     <!-- cl. 5 (321 el.) -->
     <g transform="translate(527.4375 213.1025) scale(0.16 -0.16)">
      <use xlink:href="#DejaVuSans-63"/>
      <use xlink:href="#DejaVuSans-6c" transform="translate(54.980469 0)"/>
      <use xlink:href="#DejaVuSans-2e" transform="translate(82.763672 0)"/>
      <use xlink:href="#DejaVuSans-20" transform="translate(114.550781 0)"/>
      <use xlink:href="#DejaVuSans-35" transform="translate(146.337891 0)"/>
      <use xlink:href="#DejaVuSans-20" transform="translate(209.960938 0)"/>
      <use xlink:href="#DejaVuSans-28" transform="translate(241.748047 0)"/>
      <use xlink:href="#DejaVuSans-33" transform="translate(280.761719 0)"/>
      <use xlink:href="#DejaVuSans-32" transform="translate(344.384766 0)"/>
      <use xlink:href="#DejaVuSans-31" transform="translate(408.007812 0)"/>
      <use xlink:href="#DejaVuSans-20" transform="translate(471.630859 0)"/>
      <use xlink:href="#DejaVuSans-65" transform="translate(503.417969 0)"/>
      <use xlink:href="#DejaVuSans-6c" transform="translate(564.941406 0)"/>
      <use xlink:href="#DejaVuSans-2e" transform="translate(592.724609 0)"/>
      <use xlink:href="#DejaVuSans-29" transform="translate(624.511719 0)"/>
     </g>
    </g>
    <g id="line2d_56">
     <path d="M 482.6375 230.9875 
L 498.6375 230.9875 
L 514.6375 230.9875 
" style="fill: none; stroke: #e377c2; stroke-opacity: 0.5; stroke-width: 1.5; stroke-linecap: square"/>
    </g>
    <g id="text_27">
     <!-- cl. 6 (191 el.) -->
     <g transform="translate(527.4375 236.5875) scale(0.16 -0.16)">
      <defs>
       <path id="DejaVuSans-39" d="M 703 97 
L 703 672 
Q 941 559 1184 500 
Q 1428 441 1663 441 
Q 2288 441 2617 861 
Q 2947 1281 2994 2138 
Q 2813 1869 2534 1725 
Q 2256 1581 1919 1581 
Q 1219 1581 811 2004 
Q 403 2428 403 3163 
Q 403 3881 828 4315 
Q 1253 4750 1959 4750 
Q 2769 4750 3195 4129 
Q 3622 3509 3622 2328 
Q 3622 1225 3098 567 
Q 2575 -91 1691 -91 
Q 1453 -91 1209 -44 
Q 966 3 703 97 
z
M 1959 2075 
Q 2384 2075 2632 2365 
Q 2881 2656 2881 3163 
Q 2881 3666 2632 3958 
Q 2384 4250 1959 4250 
Q 1534 4250 1286 3958 
Q 1038 3666 1038 3163 
Q 1038 2656 1286 2365 
Q 1534 2075 1959 2075 
z
" transform="scale(0.015625)"/>
      </defs>
      <use xlink:href="#DejaVuSans-63"/>
      <use xlink:href="#DejaVuSans-6c" transform="translate(54.980469 0)"/>
      <use xlink:href="#DejaVuSans-2e" transform="translate(82.763672 0)"/>
      <use xlink:href="#DejaVuSans-20" transform="translate(114.550781 0)"/>
      <use xlink:href="#DejaVuSans-36" transform="translate(146.337891 0)"/>
      <use xlink:href="#DejaVuSans-20" transform="translate(209.960938 0)"/>
      <use xlink:href="#DejaVuSans-28" transform="translate(241.748047 0)"/>
      <use xlink:href="#DejaVuSans-31" transform="translate(280.761719 0)"/>
      <use xlink:href="#DejaVuSans-39" transform="translate(344.384766 0)"/>
      <use xlink:href="#DejaVuSans-31" transform="translate(408.007812 0)"/>
      <use xlink:href="#DejaVuSans-20" transform="translate(471.630859 0)"/>
      <use xlink:href="#DejaVuSans-65" transform="translate(503.417969 0)"/>
      <use xlink:href="#DejaVuSans-6c" transform="translate(564.941406 0)"/>
      <use xlink:href="#DejaVuSans-2e" transform="translate(592.724609 0)"/>
      <use xlink:href="#DejaVuSans-29" transform="translate(624.511719 0)"/>
     </g>
    </g>
    <g id="line2d_57">
     <path d="M 482.6375 254.4725 
L 498.6375 254.4725 
L 514.6375 254.4725 
" style="fill: none; stroke: #7f7f7f; stroke-opacity: 0.5; stroke-width: 1.5; stroke-linecap: square"/>
    </g>
    <g id="text_28">
     <!-- cl. 7 (175 el.) -->
     <g transform="translate(527.4375 260.0725) scale(0.16 -0.16)">
      <use xlink:href="#DejaVuSans-63"/>
      <use xlink:href="#DejaVuSans-6c" transform="translate(54.980469 0)"/>
      <use xlink:href="#DejaVuSans-2e" transform="translate(82.763672 0)"/>
      <use xlink:href="#DejaVuSans-20" transform="translate(114.550781 0)"/>
      <use xlink:href="#DejaVuSans-37" transform="translate(146.337891 0)"/>
      <use xlink:href="#DejaVuSans-20" transform="translate(209.960938 0)"/>
      <use xlink:href="#DejaVuSans-28" transform="translate(241.748047 0)"/>
      <use xlink:href="#DejaVuSans-31" transform="translate(280.761719 0)"/>
      <use xlink:href="#DejaVuSans-37" transform="translate(344.384766 0)"/>
      <use xlink:href="#DejaVuSans-35" transform="translate(408.007812 0)"/>
      <use xlink:href="#DejaVuSans-20" transform="translate(471.630859 0)"/>
      <use xlink:href="#DejaVuSans-65" transform="translate(503.417969 0)"/>
      <use xlink:href="#DejaVuSans-6c" transform="translate(564.941406 0)"/>
      <use xlink:href="#DejaVuSans-2e" transform="translate(592.724609 0)"/>
      <use xlink:href="#DejaVuSans-29" transform="translate(624.511719 0)"/>
     </g>
    </g>
   </g>
  </g>
 </g>
 <defs>
  <clipPath id="p72fcf1ec09">
   <rect x="90" y="69.12" width="558" height="443.52"/>
  </clipPath>
 </defs>
</svg>
