<?xml version="1.0" encoding="utf-8" standalone="no"?>
<!DOCTYPE svg PUBLIC "-//W3C//DTD SVG 1.1//EN"
  "http://www.w3.org/Graphics/SVG/1.1/DTD/svg11.dtd">
<svg xmlns:xlink="http://www.w3.org/1999/xlink" width="720pt" height="576pt" viewBox="0 0 720 576" xmlns="http://www.w3.org/2000/svg" version="1.1">
 <metadata>
  <rdf:RDF xmlns:dc="http://purl.org/dc/elements/1.1/" xmlns:cc="http://creativecommons.org/ns#" xmlns:rdf="http://www.w3.org/1999/02/22-rdf-syntax-ns#">
   <cc:Work>
    <dc:type rdf:resource="http://purl.org/dc/dcmitype/StillImage"/>
    <dc:date>2026-04-05T13:31:16.290774</dc:date>
    <dc:format>image/svg+xml</dc:format>
    <dc:creator>
     <cc:Agent>
      <dc:title>Matplotlib v3.10.8, https://matplotlib.org/</dc:title>
     </cc:Agent>
    </dc:creator>
   </cc:Work>
  </rdf:RDF>
 </metadata>
 <defs>
  <style type="text/css">*{stroke-linejoin: round; stroke-linecap: butt}</style>
 </defs>
 <g id="figure_1">
  <g id="patch_1">
   <path d="M 0 576 
L 720 576 
L 720 0 
L 0 0 
z
" style="fill: #ffffff"/>
  </g>
  <g id="axes_1">
   <g id="patch_2">
    <path d="M 90 512.64 
L 648 512.64 
L 648 69.12 
L 90 69.12 
z
" style="fill: #ffffff"/>
   </g>
   <g id="matplotlib.axis_1">
    <g id="xtick_1">
     <g id="line2d_1">
      <path d="M 115.363636 512.64 
L 115.363636 69.12 
" clip-path="url(#pf5a78e9d32)" style="fill: none; stroke: #b0b0b0; stroke-width: 0.8; stroke-linecap: square"/>
     </g>
     <g id="line2d_2">
      <defs>
       <path id="md59b1e48e9" d="M 0 0 
L 0 3.5 
" style="stroke: #000000; stroke-width: 0.8"/>
      </defs>
      <g>
       <use xlink:href="#md59b1e48e9" x="115.363636" y="512.64" style="stroke: #000000; stroke-width: 0.8"/>
      </g>
     </g>
     <g id="text_1">
      <!-- 0.5 -->
      <g transform="translate(102.641136 531.7975) scale(0.16 -0.16)">
       <defs>
        <path id="DejaVuSans-30" d="M 2034 4250 
Q 1547 4250 1301 3770 
Q 1056 3291 1056 2328 
Q 1056 1369 1301 889 
Q 1547 409 2034 409 
Q 2525 409 2770 889 
Q 3016 1369 3016 2328 
Q 3016 3291 2770 3770 
Q 2525 4250 2034 4250 
z
M 2034 4750 
Q 2819 4750 3233 4129 
Q 3647 3509 3647 2328 
Q 3647 1150 3233 529 
Q 2819 -91 2034 -91 
Q 1250 -91 836 529 
Q 422 1150 422 2328 
Q 422 3509 836 4129 
Q 1250 4750 2034 4750 
z
" transform="scale(0.015625)"/>
        <path id="DejaVuSans-2e" d="M 684 794 
L 1344 794 
L 1344 0 
L 684 0 
L 684 794 
z
" transform="scale(0.015625)"/>
        <path id="DejaVuSans-35" d="M 691 4666 
L 3169 4666 
L 3169 4134 
L 1269 4134 
L 1269 2991 
Q 1406 3038 1543 3061 
Q 1681 3084 1819 3084 
Q 2600 3084 3056 2656 
Q 3513 2228 3513 1497 
Q 3513 744 3044 326 
Q 2575 -91 1722 -91 
Q 1428 -91 1123 -41 
Q 819 9 494 109 
L 494 744 
Q 775 591 1075 516 
Q 1375 441 1709 441 
Q 2250 441 2565 725 
Q 2881 1009 2881 1497 
Q 2881 1984 2565 2268 
Q 2250 2553 1709 2553 
Q 1456 2553 1204 2497 
Q 953 2441 691 2322 
L 691 4666 
z
" transform="scale(0.015625)"/>
       </defs>
       <use xlink:href="#DejaVuSans-30"/>
       <use xlink:href="#DejaVuSans-2e" transform="translate(63.623047 0)"/>
       <use xlink:href="#DejaVuSans-35" transform="translate(95.410156 0)"/>
      </g>
     </g>
    </g>
    <g id="xtick_2">
     <g id="line2d_3">
      <path d="M 323.207549 512.64 
L 323.207549 69.12 
" clip-path="url(#pf5a78e9d32)" style="fill: none; stroke: #b0b0b0; stroke-width: 0.8; stroke-linecap: square"/>
     </g>
     <g id="line2d_4">
      <g>
       <use xlink:href="#md59b1e48e9" x="323.207549" y="512.64" style="stroke: #000000; stroke-width: 0.8"/>
      </g>
     </g>
     <g id="text_2">
      <!-- 4.0 -->
      <g transform="translate(310.485049 531.7975) scale(0.16 -0.16)">
       <defs>
        <path id="DejaVuSans-34" d="M 2419 4116 
L 825 1625 
L 2419 1625 
L 2419 4116 
z
M 2253 4666 
L 3047 4666 
L 3047 1625 
L 3713 1625 
L 3713 1100 
L 3047 1100 
L 3047 0 
L 2419 0 
L 2419 1100 
L 313 1100 
L 313 1709 
L 2253 4666 
z
" transform="scale(0.015625)"/>
       </defs>
       <use xlink:href="#DejaVuSans-34"/>
       <use xlink:href="#DejaVuSans-2e" transform="translate(63.623047 0)"/>
       <use xlink:href="#DejaVuSans-30" transform="translate(95.410156 0)"/>
      </g>
     </g>
    </g>
    <g id="xtick_3">
     <g id="line2d_5">
      <path d="M 392.488853 512.64 
L 392.488853 69.12 
" clip-path="url(#pf5a78e9d32)" style="fill: none; stroke: #b0b0b0; stroke-width: 0.8; stroke-linecap: square"/>
     </g>
     <g id="line2d_6">
      <g>
       <use xlink:href="#md59b1e48e9" x="392.488853" y="512.64" style="stroke: #000000; stroke-width: 0.8"/>
      </g>
     </g>
     <g id="text_3">
      <!-- 8.0 -->
      <g transform="translate(379.766353 531.7975) scale(0.16 -0.16)">
       <defs>
        <path id="DejaVuSans-38" d="M 2034 2216 
Q 1584 2216 1326 1975 
Q 1069 1734 1069 1313 
Q 1069 891 1326 650 
Q 1584 409 2034 409 
Q 2484 409 2743 651 
Q 3003 894 3003 1313 
Q 3003 1734 2745 1975 
Q 2488 2216 2034 2216 
z
M 1403 2484 
Q 997 2584 770 2862 
Q 544 3141 544 3541 
Q 544 4100 942 4425 
Q 1341 4750 2034 4750 
Q 2731 4750 3128 4425 
Q 3525 4100 3525 3541 
Q 3525 3141 3298 2862 
Q 3072 2584 2669 2484 
Q 3125 2378 3379 2068 
Q 3634 1759 3634 1313 
Q 3634 634 3220 271 
Q 2806 -91 2034 -91 
Q 1263 -91 848 271 
Q 434 634 434 1313 
Q 434 1759 690 2068 
Q 947 2378 1403 2484 
z
M 1172 3481 
Q 1172 3119 1398 2916 
Q 1625 2713 2034 2713 
Q 2441 2713 2670 2916 
Q 2900 3119 2900 3481 
Q 2900 3844 2670 4047 
Q 2441 4250 2034 4250 
Q 1625 4250 1398 4047 
Q 1172 3844 1172 3481 
z
" transform="scale(0.015625)"/>
       </defs>
       <use xlink:href="#DejaVuSans-38"/>
       <use xlink:href="#DejaVuSans-2e" transform="translate(63.623047 0)"/>
       <use xlink:href="#DejaVuSans-30" transform="translate(95.410156 0)"/>
      </g>
     </g>
    </g>
    <g id="xtick_4">
     <g id="line2d_7">
      <path d="M 441.01623 512.64 
L 441.01623 69.12 
" clip-path="url(#pf5a78e9d32)" style="fill: none; stroke: #b0b0b0; stroke-width: 0.8; stroke-linecap: square"/>
     </g>
     <g id="line2d_8">
      <g>
       <use xlink:href="#md59b1e48e9" x="441.01623" y="512.64" style="stroke: #000000; stroke-width: 0.8"/>
      </g>
     </g>
     <g id="text_4">
      <!-- 13.0 -->
      <g transform="translate(423.20373 531.7975) scale(0.16 -0.16)">
       <defs>
        <path id="DejaVuSans-31" d="M 794 531 
L 1825 531 
L 1825 4091 
L 703 3866 
L 703 4441 
L 1819 4666 
L 2450 4666 
L 2450 531 
L 3481 531 
L 3481 0 
L 794 0 
L 794 531 
z
" transform="scale(0.015625)"/>
        <path id="DejaVuSans-33" d="M 2597 2516 
Q 3050 2419 3304 2112 
Q 3559 1806 3559 1356 
Q 3559 666 3084 287 
Q 2609 -91 1734 -91 
Q 1441 -91 1130 -33 
Q 819 25 488 141 
L 488 750 
Q 750 597 1062 519 
Q 1375 441 1716 441 
Q 2309 441 2620 675 
Q 2931 909 2931 1356 
Q 2931 1769 2642 2001 
Q 2353 2234 1838 2234 
L 1294 2234 
L 1294 2753 
L 1863 2753 
Q 2328 2753 2575 2939 
Q 2822 3125 2822 3475 
Q 2822 3834 2567 4026 
Q 2313 4219 1838 4219 
Q 1578 4219 1281 4162 
Q 984 4106 628 3988 
L 628 4550 
Q 988 4650 1302 4700 
Q 1616 4750 1894 4750 
Q 2613 4750 3031 4423 
Q 3450 4097 3450 3541 
Q 3450 3153 3228 2886 
Q 3006 2619 2597 2516 
z
" transform="scale(0.015625)"/>
       </defs>
       <use xlink:href="#DejaVuSans-31"/>
       <use xlink:href="#DejaVuSans-33" transform="translate(63.623047 0)"/>
       <use xlink:href="#DejaVuSans-2e" transform="translate(127.246094 0)"/>
       <use xlink:href="#DejaVuSans-30" transform="translate(159.033203 0)"/>
      </g>
     </g>
    </g>
    <g id="xtick_5">
     <g id="line2d_9">
      <path d="M 524.60072 512.64 
L 524.60072 69.12 
" clip-path="url(#pf5a78e9d32)" style="fill: none; stroke: #b0b0b0; stroke-width: 0.8; stroke-linecap: square"/>
     </g>
     <g id="line2d_10">
      <g>
       <use xlink:href="#md59b1e48e9" x="524.60072" y="512.64" style="stroke: #000000; stroke-width: 0.8"/>
      </g>
     </g>
     <g id="text_5">
      <!-- 30.0 -->
      <g transform="translate(506.78822 531.7975) scale(0.16 -0.16)">
       <use xlink:href="#DejaVuSans-33"/>
       <use xlink:href="#DejaVuSans-30" transform="translate(63.623047 0)"/>
       <use xlink:href="#DejaVuSans-2e" transform="translate(127.246094 0)"/>
       <use xlink:href="#DejaVuSans-30" transform="translate(159.033203 0)"/>
      </g>
     </g>
    </g>
    <g id="xtick_6">
     <g id="line2d_11">
      <path d="M 622.636364 512.64 
L 622.636364 69.12 
" clip-path="url(#pf5a78e9d32)" style="fill: none; stroke: #b0b0b0; stroke-width: 0.8; stroke-linecap: square"/>
     </g>
     <g id="line2d_12">
      <g>
       <use xlink:href="#md59b1e48e9" x="622.636364" y="512.64" style="stroke: #000000; stroke-width: 0.8"/>
      </g>
     </g>
     <g id="text_6">
      <!-- 80.0 -->
      <g transform="translate(604.823864 531.7975) scale(0.16 -0.16)">
       <use xlink:href="#DejaVuSans-38"/>
       <use xlink:href="#DejaVuSans-30" transform="translate(63.623047 0)"/>
       <use xlink:href="#DejaVuSans-2e" transform="translate(127.246094 0)"/>
       <use xlink:href="#DejaVuSans-30" transform="translate(159.033203 0)"/>
      </g>
     </g>
    </g>
    <g id="xtick_7">
     <g id="line2d_13">
      <defs>
       <path id="m4f6b38812a" d="M 0 0 
L 0 2 
" style="stroke: #000000; stroke-width: 0.6"/>
      </defs>
      <g>
       <use xlink:href="#m4f6b38812a" x="93.060038" y="512.64" style="stroke: #000000; stroke-width: 0.6"/>
      </g>
     </g>
    </g>
    <g id="xtick_8">
     <g id="line2d_14">
      <g>
       <use xlink:href="#m4f6b38812a" x="133.587003" y="512.64" style="stroke: #000000; stroke-width: 0.6"/>
      </g>
     </g>
    </g>
    <g id="xtick_9">
     <g id="line2d_15">
      <g>
       <use xlink:href="#m4f6b38812a" x="148.99464" y="512.64" style="stroke: #000000; stroke-width: 0.6"/>
      </g>
     </g>
    </g>
    <g id="xtick_10">
     <g id="line2d_16">
      <g>
       <use xlink:href="#m4f6b38812a" x="162.341342" y="512.64" style="stroke: #000000; stroke-width: 0.6"/>
      </g>
     </g>
    </g>
    <g id="xtick_11">
     <g id="line2d_17">
      <g>
       <use xlink:href="#m4f6b38812a" x="174.113968" y="512.64" style="stroke: #000000; stroke-width: 0.6"/>
      </g>
     </g>
    </g>
    <g id="xtick_12">
     <g id="line2d_18">
      <g>
       <use xlink:href="#m4f6b38812a" x="253.926245" y="512.64" style="stroke: #000000; stroke-width: 0.6"/>
      </g>
     </g>
    </g>
    <g id="xtick_13">
     <g id="line2d_19">
      <g>
       <use xlink:href="#m4f6b38812a" x="294.45321" y="512.64" style="stroke: #000000; stroke-width: 0.6"/>
      </g>
     </g>
    </g>
    <g id="xtick_14">
     <g id="line2d_20">
      <g>
       <use xlink:href="#m4f6b38812a" x="345.511147" y="512.64" style="stroke: #000000; stroke-width: 0.6"/>
      </g>
     </g>
    </g>
    <g id="xtick_15">
     <g id="line2d_21">
      <g>
       <use xlink:href="#m4f6b38812a" x="363.734514" y="512.64" style="stroke: #000000; stroke-width: 0.6"/>
      </g>
     </g>
    </g>
    <g id="xtick_16">
     <g id="line2d_22">
      <g>
       <use xlink:href="#m4f6b38812a" x="379.142151" y="512.64" style="stroke: #000000; stroke-width: 0.6"/>
      </g>
     </g>
    </g>
    <g id="xtick_17">
     <g id="line2d_23">
      <g>
       <use xlink:href="#m4f6b38812a" x="404.261479" y="512.64" style="stroke: #000000; stroke-width: 0.6"/>
      </g>
     </g>
    </g>
    <g id="xtick_18">
     <g id="line2d_24">
      <g>
       <use xlink:href="#m4f6b38812a" x="484.073755" y="512.64" style="stroke: #000000; stroke-width: 0.6"/>
      </g>
     </g>
    </g>
    <g id="xtick_19">
     <g id="line2d_25">
      <g>
       <use xlink:href="#m4f6b38812a" x="553.355059" y="512.64" style="stroke: #000000; stroke-width: 0.6"/>
      </g>
     </g>
    </g>
    <g id="xtick_20">
     <g id="line2d_26">
      <g>
       <use xlink:href="#m4f6b38812a" x="575.658658" y="512.64" style="stroke: #000000; stroke-width: 0.6"/>
      </g>
     </g>
    </g>
    <g id="xtick_21">
     <g id="line2d_27">
      <g>
       <use xlink:href="#m4f6b38812a" x="593.882024" y="512.64" style="stroke: #000000; stroke-width: 0.6"/>
      </g>
     </g>
    </g>
    <g id="xtick_22">
     <g id="line2d_28">
      <g>
       <use xlink:href="#m4f6b38812a" x="609.289661" y="512.64" style="stroke: #000000; stroke-width: 0.6"/>
      </g>
     </g>
    </g>
    <g id="xtick_23">
     <g id="line2d_29">
      <g>
       <use xlink:href="#m4f6b38812a" x="634.408989" y="512.64" style="stroke: #000000; stroke-width: 0.6"/>
      </g>
     </g>
    </g>
    <g id="text_7">
     <!-- Frequency -->
     <g transform="translate(327.6725 551.2825) scale(0.16 -0.16)">
      <defs>
       <path id="DejaVuSans-46" d="M 628 4666 
L 3309 4666 
L 3309 4134 
L 1259 4134 
L 1259 2759 
L 3109 2759 
L 3109 2228 
L 1259 2228 
L 1259 0 
L 628 0 
L 628 4666 
z
" transform="scale(0.015625)"/>
       <path id="DejaVuSans-72" d="M 2631 2963 
Q 2534 3019 2420 3045 
Q 2306 3072 2169 3072 
Q 1681 3072 1420 2755 
Q 1159 2438 1159 1844 
L 1159 0 
L 581 0 
L 581 3500 
L 1159 3500 
L 1159 2956 
Q 1341 3275 1631 3429 
Q 1922 3584 2338 3584 
Q 2397 3584 2469 3576 
Q 2541 3569 2628 3553 
L 2631 2963 
z
" transform="scale(0.015625)"/>
       <path id="DejaVuSans-65" d="M 3597 1894 
L 3597 1613 
L 953 1613 
Q 991 1019 1311 708 
Q 1631 397 2203 397 
Q 2534 397 2845 478 
Q 3156 559 3463 722 
L 3463 178 
Q 3153 47 2828 -22 
Q 2503 -91 2169 -91 
Q 1331 -91 842 396 
Q 353 884 353 1716 
Q 353 2575 817 3079 
Q 1281 3584 2069 3584 
Q 2775 3584 3186 3129 
Q 3597 2675 3597 1894 
z
M 3022 2063 
Q 3016 2534 2758 2815 
Q 2500 3097 2075 3097 
Q 1594 3097 1305 2825 
Q 1016 2553 972 2059 
L 3022 2063 
z
" transform="scale(0.015625)"/>
       <path id="DejaVuSans-71" d="M 947 1747 
Q 947 1113 1208 752 
Q 1469 391 1925 391 
Q 2381 391 2643 752 
Q 2906 1113 2906 1747 
Q 2906 2381 2643 2742 
Q 2381 3103 1925 3103 
Q 1469 3103 1208 2742 
Q 947 2381 947 1747 
z
M 2906 525 
Q 2725 213 2448 61 
Q 2172 -91 1784 -91 
Q 1150 -91 751 415 
Q 353 922 353 1747 
Q 353 2572 751 3078 
Q 1150 3584 1784 3584 
Q 2172 3584 2448 3432 
Q 2725 3281 2906 2969 
L 2906 3500 
L 3481 3500 
L 3481 -1331 
L 2906 -1331 
L 2906 525 
z
" transform="scale(0.015625)"/>
       <path id="DejaVuSans-75" d="M 544 1381 
L 544 3500 
L 1119 3500 
L 1119 1403 
Q 1119 906 1312 657 
Q 1506 409 1894 409 
Q 2359 409 2629 706 
Q 2900 1003 2900 1516 
L 2900 3500 
L 3475 3500 
L 3475 0 
L 2900 0 
L 2900 538 
Q 2691 219 2414 64 
Q 2138 -91 1772 -91 
Q 1169 -91 856 284 
Q 544 659 544 1381 
z
M 1991 3584 
L 1991 3584 
z
" transform="scale(0.015625)"/>
       <path id="DejaVuSans-6e" d="M 3513 2113 
L 3513 0 
L 2938 0 
L 2938 2094 
Q 2938 2591 2744 2837 
Q 2550 3084 2163 3084 
Q 1697 3084 1428 2787 
Q 1159 2491 1159 1978 
L 1159 0 
L 581 0 
L 581 3500 
L 1159 3500 
L 1159 2956 
Q 1366 3272 1645 3428 
Q 1925 3584 2291 3584 
Q 2894 3584 3203 3211 
Q 3513 2838 3513 2113 
z
" transform="scale(0.015625)"/>
       <path id="DejaVuSans-63" d="M 3122 3366 
L 3122 2828 
Q 2878 2963 2633 3030 
Q 2388 3097 2138 3097 
Q 1578 3097 1268 2742 
Q 959 2388 959 1747 
Q 959 1106 1268 751 
Q 1578 397 2138 397 
Q 2388 397 2633 464 
Q 2878 531 3122 666 
L 3122 134 
Q 2881 22 2623 -34 
Q 2366 -91 2075 -91 
Q 1284 -91 818 406 
Q 353 903 353 1747 
Q 353 2603 823 3093 
Q 1294 3584 2113 3584 
Q 2378 3584 2631 3529 
Q 2884 3475 3122 3366 
z
" transform="scale(0.015625)"/>
       <path id="DejaVuSans-79" d="M 2059 -325 
Q 1816 -950 1584 -1140 
Q 1353 -1331 966 -1331 
L 506 -1331 
L 506 -850 
L 844 -850 
Q 1081 -850 1212 -737 
Q 1344 -625 1503 -206 
L 1606 56 
L 191 3500 
L 800 3500 
L 1894 763 
L 2988 3500 
L 3597 3500 
L 2059 -325 
z
" transform="scale(0.015625)"/>
      </defs>
      <use xlink:href="#DejaVuSans-46"/>
      <use xlink:href="#DejaVuSans-72" transform="translate(50.269531 0)"/>
      <use xlink:href="#DejaVuSans-65" transform="translate(89.132812 0)"/>
      <use xlink:href="#DejaVuSans-71" transform="translate(150.65625 0)"/>
      <use xlink:href="#DejaVuSans-75" transform="translate(214.132812 0)"/>
      <use xlink:href="#DejaVuSans-65" transform="translate(277.511719 0)"/>
      <use xlink:href="#DejaVuSans-6e" transform="translate(339.035156 0)"/>
      <use xlink:href="#DejaVuSans-63" transform="translate(402.414062 0)"/>
      <use xlink:href="#DejaVuSans-79" transform="translate(457.394531 0)"/>
     </g>
    </g>
   </g>
   <g id="matplotlib.axis_2">
    <g id="ytick_1">
     <g id="line2d_30">
      <path d="M 90 509.991234 
L 648 509.991234 
" clip-path="url(#pf5a78e9d32)" style="fill: none; stroke: #b0b0b0; stroke-width: 0.8; stroke-linecap: square"/>
     </g>
     <g id="line2d_31">
      <defs>
       <path id="ma6ce465dcd" d="M 0 0 
L -3.5 0 
" style="stroke: #000000; stroke-width: 0.8"/>
      </defs>
      <g>
       <use xlink:href="#ma6ce465dcd" x="90" y="509.991234" style="stroke: #000000; stroke-width: 0.8"/>
      </g>
     </g>
     <g id="text_8">
      <!-- 0.000 -->
      <g transform="translate(37.195 516.069984) scale(0.16 -0.16)">
       <use xlink:href="#DejaVuSans-30"/>
       <use xlink:href="#DejaVuSans-2e" transform="translate(63.623047 0)"/>
       <use xlink:href="#DejaVuSans-30" transform="translate(95.410156 0)"/>
       <use xlink:href="#DejaVuSans-30" transform="translate(159.033203 0)"/>
       <use xlink:href="#DejaVuSans-30" transform="translate(222.65625 0)"/>
      </g>
     </g>
    </g>
    <g id="ytick_2">
     <g id="line2d_32">
      <path d="M 90 454.759671 
L 648 454.759671 
" clip-path="url(#pf5a78e9d32)" style="fill: none; stroke: #b0b0b0; stroke-width: 0.8; stroke-linecap: square"/>
     </g>
     <g id="line2d_33">
      <g>
       <use xlink:href="#ma6ce465dcd" x="90" y="454.759671" style="stroke: #000000; stroke-width: 0.8"/>
      </g>
     </g>
     <g id="text_9">
      <!-- 0.005 -->
      <g transform="translate(37.195 460.838421) scale(0.16 -0.16)">
       <use xlink:href="#DejaVuSans-30"/>
       <use xlink:href="#DejaVuSans-2e" transform="translate(63.623047 0)"/>
       <use xlink:href="#DejaVuSans-30" transform="translate(95.410156 0)"/>
       <use xlink:href="#DejaVuSans-30" transform="translate(159.033203 0)"/>
       <use xlink:href="#DejaVuSans-35" transform="translate(222.65625 0)"/>
      </g>
     </g>
    </g>
    <g id="ytick_3">
     <g id="line2d_34">
      <path d="M 90 399.528108 
L 648 399.528108 
" clip-path="url(#pf5a78e9d32)" style="fill: none; stroke: #b0b0b0; stroke-width: 0.8; stroke-linecap: square"/>
     </g>
     <g id="line2d_35">
      <g>
       <use xlink:href="#ma6ce465dcd" x="90" y="399.528108" style="stroke: #000000; stroke-width: 0.8"/>
      </g>
     </g>
     <g id="text_10">
      <!-- 0.010 -->
      <g transform="translate(37.195 405.606858) scale(0.16 -0.16)">
       <use xlink:href="#DejaVuSans-30"/>
       <use xlink:href="#DejaVuSans-2e" transform="translate(63.623047 0)"/>
       <use xlink:href="#DejaVuSans-30" transform="translate(95.410156 0)"/>
       <use xlink:href="#DejaVuSans-31" transform="translate(159.033203 0)"/>
       <use xlink:href="#DejaVuSans-30" transform="translate(222.65625 0)"/>
      </g>
     </g>
    </g>
    <g id="ytick_4">
     <g id="line2d_36">
      <path d="M 90 344.296545 
L 648 344.296545 
" clip-path="url(#pf5a78e9d32)" style="fill: none; stroke: #b0b0b0; stroke-width: 0.8; stroke-linecap: square"/>
     </g>
     <g id="line2d_37">
      <g>
       <use xlink:href="#ma6ce465dcd" x="90" y="344.296545" style="stroke: #000000; stroke-width: 0.8"/>
      </g>
     </g>
     <g id="text_11">
      <!-- 0.015 -->
      <g transform="translate(37.195 350.375295) scale(0.16 -0.16)">
       <use xlink:href="#DejaVuSans-30"/>
       <use xlink:href="#DejaVuSans-2e" transform="translate(63.623047 0)"/>
       <use xlink:href="#DejaVuSans-30" transform="translate(95.410156 0)"/>
       <use xlink:href="#DejaVuSans-31" transform="translate(159.033203 0)"/>
       <use xlink:href="#DejaVuSans-35" transform="translate(222.65625 0)"/>
      </g>
     </g>
    </g>
    <g id="ytick_5">
     <g id="line2d_38">
      <path d="M 90 289.064982 
L 648 289.064982 
" clip-path="url(#pf5a78e9d32)" style="fill: none; stroke: #b0b0b0; stroke-width: 0.8; stroke-linecap: square"/>
     </g>
     <g id="line2d_39">
      <g>
       <use xlink:href="#ma6ce465dcd" x="90" y="289.064982" style="stroke: #000000; stroke-width: 0.8"/>
      </g>
     </g>
     <g id="text_12">
      <!-- 0.020 -->
      <g transform="translate(37.195 295.143732) scale(0.16 -0.16)">
       <defs>
        <path id="DejaVuSans-32" d="M 1228 531 
L 3431 531 
L 3431 0 
L 469 0 
L 469 531 
Q 828 903 1448 1529 
Q 2069 2156 2228 2338 
Q 2531 2678 2651 2914 
Q 2772 3150 2772 3378 
Q 2772 3750 2511 3984 
Q 2250 4219 1831 4219 
Q 1534 4219 1204 4116 
Q 875 4013 500 3803 
L 500 4441 
Q 881 4594 1212 4672 
Q 1544 4750 1819 4750 
Q 2544 4750 2975 4387 
Q 3406 4025 3406 3419 
Q 3406 3131 3298 2873 
Q 3191 2616 2906 2266 
Q 2828 2175 2409 1742 
Q 1991 1309 1228 531 
z
" transform="scale(0.015625)"/>
       </defs>
       <use xlink:href="#DejaVuSans-30"/>
       <use xlink:href="#DejaVuSans-2e" transform="translate(63.623047 0)"/>
       <use xlink:href="#DejaVuSans-30" transform="translate(95.410156 0)"/>
       <use xlink:href="#DejaVuSans-32" transform="translate(159.033203 0)"/>
       <use xlink:href="#DejaVuSans-30" transform="translate(222.65625 0)"/>
      </g>
     </g>
    </g>
    <g id="ytick_6">
     <g id="line2d_40">
      <path d="M 90 233.833419 
L 648 233.833419 
" clip-path="url(#pf5a78e9d32)" style="fill: none; stroke: #b0b0b0; stroke-width: 0.8; stroke-linecap: square"/>
     </g>
     <g id="line2d_41">
      <g>
       <use xlink:href="#ma6ce465dcd" x="90" y="233.833419" style="stroke: #000000; stroke-width: 0.8"/>
      </g>
     </g>
     <g id="text_13">
      <!-- 0.025 -->
      <g transform="translate(37.195 239.912169) scale(0.16 -0.16)">
       <use xlink:href="#DejaVuSans-30"/>
       <use xlink:href="#DejaVuSans-2e" transform="translate(63.623047 0)"/>
       <use xlink:href="#DejaVuSans-30" transform="translate(95.410156 0)"/>
       <use xlink:href="#DejaVuSans-32" transform="translate(159.033203 0)"/>
       <use xlink:href="#DejaVuSans-35" transform="translate(222.65625 0)"/>
      </g>
     </g>
    </g>
    <g id="ytick_7">
     <g id="line2d_42">
      <path d="M 90 178.601856 
L 648 178.601856 
" clip-path="url(#pf5a78e9d32)" style="fill: none; stroke: #b0b0b0; stroke-width: 0.8; stroke-linecap: square"/>
     </g>
     <g id="line2d_43">
      <g>
       <use xlink:href="#ma6ce465dcd" x="90" y="178.601856" style="stroke: #000000; stroke-width: 0.8"/>
      </g>
     </g>
     <g id="text_14">
      <!-- 0.030 -->
      <g transform="translate(37.195 184.680606) scale(0.16 -0.16)">
       <use xlink:href="#DejaVuSans-30"/>
       <use xlink:href="#DejaVuSans-2e" transform="translate(63.623047 0)"/>
       <use xlink:href="#DejaVuSans-30" transform="translate(95.410156 0)"/>
       <use xlink:href="#DejaVuSans-33" transform="translate(159.033203 0)"/>
       <use xlink:href="#DejaVuSans-30" transform="translate(222.65625 0)"/>
      </g>
     </g>
    </g>
    <g id="ytick_8">
     <g id="line2d_44">
      <path d="M 90 123.370293 
L 648 123.370293 
" clip-path="url(#pf5a78e9d32)" style="fill: none; stroke: #b0b0b0; stroke-width: 0.8; stroke-linecap: square"/>
     </g>
     <g id="line2d_45">
      <g>
       <use xlink:href="#ma6ce465dcd" x="90" y="123.370293" style="stroke: #000000; stroke-width: 0.8"/>
      </g>
     </g>
     <g id="text_15">
      <!-- 0.035 -->
      <g transform="translate(37.195 129.449043) scale(0.16 -0.16)">
       <use xlink:href="#DejaVuSans-30"/>
       <use xlink:href="#DejaVuSans-2e" transform="translate(63.623047 0)"/>
       <use xlink:href="#DejaVuSans-30" transform="translate(95.410156 0)"/>
       <use xlink:href="#DejaVuSans-33" transform="translate(159.033203 0)"/>
       <use xlink:href="#DejaVuSans-35" transform="translate(222.65625 0)"/>
      </g>
     </g>
    </g>
    <g id="text_16">
     <!-- Normalized spectral density -->
     <g transform="translate(29.8675 402.78375) rotate(-90) scale(0.16 -0.16)">
      <defs>
       <path id="DejaVuSans-4e" d="M 628 4666 
L 1478 4666 
L 3547 763 
L 3547 4666 
L 4159 4666 
L 4159 0 
L 3309 0 
L 1241 3903 
L 1241 0 
L 628 0 
L 628 4666 
z
" transform="scale(0.015625)"/>
       <path id="DejaVuSans-6f" d="M 1959 3097 
Q 1497 3097 1228 2736 
Q 959 2375 959 1747 
Q 959 1119 1226 758 
Q 1494 397 1959 397 
Q 2419 397 2687 759 
Q 2956 1122 2956 1747 
Q 2956 2369 2687 2733 
Q 2419 3097 1959 3097 
z
M 1959 3584 
Q 2709 3584 3137 3096 
Q 3566 2609 3566 1747 
Q 3566 888 3137 398 
Q 2709 -91 1959 -91 
Q 1206 -91 779 398 
Q 353 888 353 1747 
Q 353 2609 779 3096 
Q 1206 3584 1959 3584 
z
" transform="scale(0.015625)"/>
       <path id="DejaVuSans-6d" d="M 3328 2828 
Q 3544 3216 3844 3400 
Q 4144 3584 4550 3584 
Q 5097 3584 5394 3201 
Q 5691 2819 5691 2113 
L 5691 0 
L 5113 0 
L 5113 2094 
Q 5113 2597 4934 2840 
Q 4756 3084 4391 3084 
Q 3944 3084 3684 2787 
Q 3425 2491 3425 1978 
L 3425 0 
L 2847 0 
L 2847 2094 
Q 2847 2600 2669 2842 
Q 2491 3084 2119 3084 
Q 1678 3084 1418 2786 
Q 1159 2488 1159 1978 
L 1159 0 
L 581 0 
L 581 3500 
L 1159 3500 
L 1159 2956 
Q 1356 3278 1631 3431 
Q 1906 3584 2284 3584 
Q 2666 3584 2933 3390 
Q 3200 3197 3328 2828 
z
" transform="scale(0.015625)"/>
       <path id="DejaVuSans-61" d="M 2194 1759 
Q 1497 1759 1228 1600 
Q 959 1441 959 1056 
Q 959 750 1161 570 
Q 1363 391 1709 391 
Q 2188 391 2477 730 
Q 2766 1069 2766 1631 
L 2766 1759 
L 2194 1759 
z
M 3341 1997 
L 3341 0 
L 2766 0 
L 2766 531 
Q 2569 213 2275 61 
Q 1981 -91 1556 -91 
Q 1019 -91 701 211 
Q 384 513 384 1019 
Q 384 1609 779 1909 
Q 1175 2209 1959 2209 
L 2766 2209 
L 2766 2266 
Q 2766 2663 2505 2880 
Q 2244 3097 1772 3097 
Q 1472 3097 1187 3025 
Q 903 2953 641 2809 
L 641 3341 
Q 956 3463 1253 3523 
Q 1550 3584 1831 3584 
Q 2591 3584 2966 3190 
Q 3341 2797 3341 1997 
z
" transform="scale(0.015625)"/>
       <path id="DejaVuSans-6c" d="M 603 4863 
L 1178 4863 
L 1178 0 
L 603 0 
L 603 4863 
z
" transform="scale(0.015625)"/>
       <path id="DejaVuSans-69" d="M 603 3500 
L 1178 3500 
L 1178 0 
L 603 0 
L 603 3500 
z
M 603 4863 
L 1178 4863 
L 1178 4134 
L 603 4134 
L 603 4863 
z
" transform="scale(0.015625)"/>
       <path id="DejaVuSans-7a" d="M 353 3500 
L 3084 3500 
L 3084 2975 
L 922 459 
L 3084 459 
L 3084 0 
L 275 0 
L 275 525 
L 2438 3041 
L 353 3041 
L 353 3500 
z
" transform="scale(0.015625)"/>
       <path id="DejaVuSans-64" d="M 2906 2969 
L 2906 4863 
L 3481 4863 
L 3481 0 
L 2906 0 
L 2906 525 
Q 2725 213 2448 61 
Q 2172 -91 1784 -91 
Q 1150 -91 751 415 
Q 353 922 353 1747 
Q 353 2572 751 3078 
Q 1150 3584 1784 3584 
Q 2172 3584 2448 3432 
Q 2725 3281 2906 2969 
z
M 947 1747 
Q 947 1113 1208 752 
Q 1469 391 1925 391 
Q 2381 391 2643 752 
Q 2906 1113 2906 1747 
Q 2906 2381 2643 2742 
Q 2381 3103 1925 3103 
Q 1469 3103 1208 2742 
Q 947 2381 947 1747 
z
" transform="scale(0.015625)"/>
       <path id="DejaVuSans-20" transform="scale(0.015625)"/>
       <path id="DejaVuSans-73" d="M 2834 3397 
L 2834 2853 
Q 2591 2978 2328 3040 
Q 2066 3103 1784 3103 
Q 1356 3103 1142 2972 
Q 928 2841 928 2578 
Q 928 2378 1081 2264 
Q 1234 2150 1697 2047 
L 1894 2003 
Q 2506 1872 2764 1633 
Q 3022 1394 3022 966 
Q 3022 478 2636 193 
Q 2250 -91 1575 -91 
Q 1294 -91 989 -36 
Q 684 19 347 128 
L 347 722 
Q 666 556 975 473 
Q 1284 391 1588 391 
Q 1994 391 2212 530 
Q 2431 669 2431 922 
Q 2431 1156 2273 1281 
Q 2116 1406 1581 1522 
L 1381 1569 
Q 847 1681 609 1914 
Q 372 2147 372 2553 
Q 372 3047 722 3315 
Q 1072 3584 1716 3584 
Q 2034 3584 2315 3537 
Q 2597 3491 2834 3397 
z
" transform="scale(0.015625)"/>
       <path id="DejaVuSans-70" d="M 1159 525 
L 1159 -1331 
L 581 -1331 
L 581 3500 
L 1159 3500 
L 1159 2969 
Q 1341 3281 1617 3432 
Q 1894 3584 2278 3584 
Q 2916 3584 3314 3078 
Q 3713 2572 3713 1747 
Q 3713 922 3314 415 
Q 2916 -91 2278 -91 
Q 1894 -91 1617 61 
Q 1341 213 1159 525 
z
M 3116 1747 
Q 3116 2381 2855 2742 
Q 2594 3103 2138 3103 
Q 1681 3103 1420 2742 
Q 1159 2381 1159 1747 
Q 1159 1113 1420 752 
Q 1681 391 2138 391 
Q 2594 391 2855 752 
Q 3116 1113 3116 1747 
z
" transform="scale(0.015625)"/>
       <path id="DejaVuSans-74" d="M 1172 4494 
L 1172 3500 
L 2356 3500 
L 2356 3053 
L 1172 3053 
L 1172 1153 
Q 1172 725 1289 603 
Q 1406 481 1766 481 
L 2356 481 
L 2356 0 
L 1766 0 
Q 1100 0 847 248 
Q 594 497 594 1153 
L 594 3053 
L 172 3053 
L 172 3500 
L 594 3500 
L 594 4494 
L 1172 4494 
z
" transform="scale(0.015625)"/>
      </defs>
      <use xlink:href="#DejaVuSans-4e"/>
      <use xlink:href="#DejaVuSans-6f" transform="translate(74.804688 0)"/>
      <use xlink:href="#DejaVuSans-72" transform="translate(135.986328 0)"/>
      <use xlink:href="#DejaVuSans-6d" transform="translate(175.349609 0)"/>
      <use xlink:href="#DejaVuSans-61" transform="translate(272.761719 0)"/>
      <use xlink:href="#DejaVuSans-6c" transform="translate(334.041016 0)"/>
      <use xlink:href="#DejaVuSans-69" transform="translate(361.824219 0)"/>
      <use xlink:href="#DejaVuSans-7a" transform="translate(389.607422 0)"/>
      <use xlink:href="#DejaVuSans-65" transform="translate(442.097656 0)"/>
      <use xlink:href="#DejaVuSans-64" transform="translate(503.621094 0)"/>
      <use xlink:href="#DejaVuSans-20" transform="translate(567.097656 0)"/>
      <use xlink:href="#DejaVuSans-73" transform="translate(598.884766 0)"/>
      <use xlink:href="#DejaVuSans-70" transform="translate(650.984375 0)"/>
      <use xlink:href="#DejaVuSans-65" transform="translate(714.460938 0)"/>
      <use xlink:href="#DejaVuSans-63" transform="translate(775.984375 0)"/>
      <use xlink:href="#DejaVuSans-74" transform="translate(830.964844 0)"/>
      <use xlink:href="#DejaVuSans-72" transform="translate(870.173828 0)"/>
      <use xlink:href="#DejaVuSans-61" transform="translate(911.287109 0)"/>
      <use xlink:href="#DejaVuSans-6c" transform="translate(972.566406 0)"/>
      <use xlink:href="#DejaVuSans-20" transform="translate(1000.349609 0)"/>
      <use xlink:href="#DejaVuSans-64" transform="translate(1032.136719 0)"/>
      <use xlink:href="#DejaVuSans-65" transform="translate(1095.613281 0)"/>
      <use xlink:href="#DejaVuSans-6e" transform="translate(1157.136719 0)"/>
      <use xlink:href="#DejaVuSans-73" transform="translate(1220.515625 0)"/>
      <use xlink:href="#DejaVuSans-69" transform="translate(1272.615234 0)"/>
      <use xlink:href="#DejaVuSans-74" transform="translate(1300.398438 0)"/>
      <use xlink:href="#DejaVuSans-79" transform="translate(1339.607422 0)"/>
     </g>
    </g>
   </g>
   <g id="line2d_46">
    <path d="M 115.363636 339.991191 
L 184.644941 184.244806 
L 225.171905 197.458382 
L 253.926245 253.702742 
L 276.229843 283.869497 
L 294.45321 306.739097 
L 309.860847 322.315161 
L 323.207549 334.818554 
L 334.980175 347.077272 
L 355.037571 359.221671 
L 363.734514 359.863193 
L 371.734926 358.389243 
L 379.142151 355.444979 
L 386.038112 353.194728 
L 392.488853 354.135577 
L 398.548393 352.973042 
L 404.261479 342.413005 
L 409.665594 335.825465 
L 414.792451 330.414576 
L 419.669116 329.025423 
L 424.318875 336.073523 
L 428.761908 352.548612 
L 433.015818 373.410519 
L 437.096049 390.138422 
L 441.01623 401.825783 
L 444.788444 408.069277 
L 448.423455 414.47457 
L 451.930895 416.341744 
L 455.319416 417.867216 
L 458.596818 419.188349 
L 461.770157 420.07507 
L 464.84584 418.708421 
L 467.829697 417.782976 
L 470.727053 416.738545 
L 473.542783 417.188435 
L 476.281359 418.509987 
L 478.946899 420.250047 
L 481.543195 422.118517 
L 484.073755 423.414723 
L 486.541826 425.955626 
L 488.95042 426.563051 
L 491.302335 427.967794 
L 493.600179 430.391642 
L 495.846381 432.028155 
L 498.043212 435.114905 
L 500.192796 438.62423 
L 502.297122 440.814772 
L 504.358057 443.275305 
L 506.377354 445.308889 
L 508.356662 446.455643 
L 510.297534 448.323081 
L 512.201435 449.477432 
L 514.069748 449.958885 
L 515.903777 450.724263 
L 517.704759 451.986219 
L 519.473863 452.608248 
L 521.212199 453.630993 
L 526.252854 457.841769 
L 527.878122 459.001948 
L 529.477385 459.576301 
L 534.127144 462.517844 
L 535.630207 463.09737 
L 537.111001 464.133614 
L 540.008357 465.533074 
L 542.824087 467.268728 
L 544.202754 467.651951 
L 545.562664 468.775508 
L 548.228203 469.179629 
L 549.534781 469.828503 
L 550.824499 470.316817 
L 552.097788 470.369894 
L 553.355059 470.798087 
L 554.596713 471.04108 
L 557.034682 471.104997 
L 559.414599 471.821385 
L 560.583639 472.186854 
L 562.881483 471.678574 
L 564.010894 472.303534 
L 565.127685 472.515043 
L 567.324516 472.322437 
L 568.405087 472.885236 
L 569.4741 473.187884 
L 570.531801 473.326523 
L 571.578426 473.863785 
L 572.614205 474.251362 
L 573.639361 476.035347 
L 574.654109 482.659253 
L 575.658658 492.48 
L 576.653211 483.545849 
L 577.637966 477.187591 
L 578.613113 475.21834 
L 579.578838 474.580067 
L 580.535322 474.295817 
L 581.48274 474.364338 
L 582.421261 474.701989 
L 583.351052 474.819286 
L 584.272273 474.132849 
L 585.185081 474.795094 
L 586.089628 475.027468 
L 586.986063 475.018422 
L 587.874529 475.711104 
L 588.755168 475.643591 
L 589.628115 475.721884 
L 590.493504 476.428644 
L 591.351464 476.095182 
L 592.202123 476.385548 
L 593.882024 476.315845 
L 594.711505 476.754748 
L 596.350095 477.060213 
L 597.159426 477.024762 
L 597.962256 477.1622 
L 598.758689 476.717585 
L 599.548826 477.090222 
L 600.332765 477.27304 
L 601.110604 476.980948 
L 602.648355 477.675579 
L 604.162805 477.991258 
L 604.911511 477.7895 
L 605.65465 478.045866 
L 606.392305 478.45537 
L 607.124556 478.514373 
L 607.851481 478.323781 
L 609.289661 478.143793 
L 610.001065 478.690585 
L 610.707441 478.898752 
L 611.40886 478.828817 
L 612.105391 478.60737 
L 613.484058 478.981566 
L 615.517046 479.267481 
L 616.185623 479.76092 
L 616.849757 479.569589 
L 617.509507 479.701734 
L 618.164931 479.581604 
L 618.816085 479.716129 
L 620.105803 480.273508 
L 620.744475 479.759401 
L 621.379092 479.687636 
L 622.009705 480.179923 
L 622.636364 484.240743 
L 622.636364 484.240743 
" clip-path="url(#pf5a78e9d32)" style="fill: none; stroke: #1f77b4; stroke-opacity: 0.5; stroke-width: 1.5; stroke-linecap: square"/>
   </g>
   <g id="line2d_47">
    <path d="M 115.363636 413.434841 
L 184.644941 302.978474 
L 225.171905 301.175861 
L 253.926245 344.361419 
L 276.229843 368.857327 
L 294.45321 387.336246 
L 309.860847 400.259529 
L 345.511147 422.527739 
L 355.037571 426.885099 
L 363.734514 429.321942 
L 371.734926 431.212144 
L 379.142151 427.93687 
L 386.038112 422.840752 
L 392.488853 424.964778 
L 398.548393 426.616633 
L 404.261479 427.626468 
L 419.669116 428.619065 
L 424.318875 429.656146 
L 428.761908 431.324812 
L 433.015818 434.166966 
L 437.096049 434.780628 
L 441.01623 435.84643 
L 448.423455 438.551489 
L 455.319416 439.578934 
L 458.596818 440.713587 
L 461.770157 441.585616 
L 464.84584 439.581657 
L 467.829697 438.501496 
L 470.727053 438.792312 
L 473.542783 439.218255 
L 476.281359 437.734348 
L 478.946899 437.783286 
L 481.543195 436.686416 
L 484.073755 436.415297 
L 486.541826 437.75125 
L 488.95042 436.145525 
L 491.302335 435.441659 
L 493.600179 435.78678 
L 495.846381 435.075589 
L 498.043212 435.778404 
L 500.192796 435.482818 
L 502.297122 435.661145 
L 504.358057 437.03364 
L 506.377354 437.41258 
L 508.356662 437.042085 
L 510.297534 438.991599 
L 514.069748 438.44255 
L 515.903777 439.725533 
L 517.704759 440.452755 
L 519.473863 440.411756 
L 521.212199 441.673444 
L 522.920819 441.730194 
L 524.60072 442.624696 
L 526.252854 442.810339 
L 527.878122 443.806452 
L 531.051461 444.244501 
L 532.601132 444.648668 
L 534.127144 445.525858 
L 537.111001 444.780542 
L 538.570177 445.182843 
L 540.008357 446.243288 
L 541.426137 446.110748 
L 544.202754 447.219787 
L 545.562664 446.644738 
L 546.904319 446.393482 
L 548.228203 446.946739 
L 550.824499 446.887656 
L 553.355059 446.254842 
L 554.596713 446.391694 
L 555.82313 447.032528 
L 557.034682 446.220692 
L 558.231724 446.274786 
L 559.414599 446.001542 
L 560.583639 446.564666 
L 562.881483 447.06255 
L 564.010894 445.936165 
L 565.127685 446.290577 
L 566.232136 446.765866 
L 567.324516 447.106517 
L 568.405087 446.21792 
L 569.4741 446.362736 
L 570.531801 447.14283 
L 571.578426 448.194551 
L 572.614205 448.783316 
L 573.639361 452.10186 
L 574.654109 464.327777 
L 575.658658 481.09679 
L 576.653211 464.362231 
L 577.637966 452.463621 
L 578.613113 449.71825 
L 579.578838 449.247005 
L 580.535322 448.65022 
L 581.48274 448.56291 
L 582.421261 447.475178 
L 583.351052 448.227049 
L 584.272273 447.617625 
L 585.185081 449.115714 
L 586.089628 450.098157 
L 586.986063 449.845583 
L 587.874529 450.426638 
L 588.755168 450.529218 
L 589.628115 450.337025 
L 590.493504 450.263124 
L 591.351464 451.229328 
L 592.202123 450.949733 
L 593.045603 451.624127 
L 593.882024 451.656641 
L 594.711505 451.855805 
L 595.534158 451.662827 
L 597.159426 453.109173 
L 597.962256 453.152264 
L 598.758689 452.554967 
L 599.548826 452.854664 
L 600.332765 453.95285 
L 601.110604 453.253044 
L 601.882437 452.847 
L 602.648355 452.898792 
L 603.408448 454.359913 
L 604.162805 453.998204 
L 604.911511 454.380773 
L 606.392305 455.623568 
L 607.851481 454.40469 
L 608.573158 455.353873 
L 609.289661 455.505362 
L 610.001065 455.391476 
L 610.707441 455.626558 
L 611.40886 455.627707 
L 612.105391 455.848529 
L 612.797102 455.284495 
L 613.484058 455.853785 
L 614.166326 457.562558 
L 614.843968 457.65636 
L 615.517046 457.210342 
L 616.185623 456.93894 
L 616.849757 457.220289 
L 617.509507 456.979192 
L 618.164931 456.519418 
L 618.816085 457.759449 
L 619.463024 458.283933 
L 620.105803 457.7024 
L 620.744475 457.927801 
L 621.379092 459.194583 
L 622.009705 459.19027 
L 622.636364 467.654537 
L 622.636364 467.654537 
" clip-path="url(#pf5a78e9d32)" style="fill: none; stroke: #ff7f0e; stroke-opacity: 0.5; stroke-width: 1.5; stroke-linecap: square"/>
   </g>
   <g id="line2d_48">
    <path d="M 115.363636 363.735015 
L 184.644941 226.501023 
L 225.171905 243.983085 
L 253.926245 295.95675 
L 276.229843 326.027684 
L 294.45321 346.872389 
L 309.860847 359.900256 
L 323.207549 372.148183 
L 334.980175 381.948906 
L 345.511147 389.789898 
L 355.037571 394.377128 
L 363.734514 396.423914 
L 371.734926 393.758098 
L 379.142151 390.254197 
L 386.038112 385.067991 
L 392.488853 385.736919 
L 398.548393 382.197676 
L 404.261479 376.6625 
L 409.665594 375.238564 
L 414.792451 374.922529 
L 419.669116 383.289843 
L 424.318875 394.844644 
L 428.761908 402.722588 
L 433.015818 412.910108 
L 437.096049 420.462829 
L 441.01623 425.739892 
L 444.788444 430.008699 
L 448.423455 431.76965 
L 451.930895 434.117403 
L 455.319416 435.032488 
L 461.770157 436.2498 
L 464.84584 437.101261 
L 470.727053 436.175274 
L 473.542783 436.759624 
L 476.281359 436.342318 
L 481.543195 437.197269 
L 484.073755 438.322185 
L 488.95042 439.519618 
L 491.302335 439.674761 
L 495.846381 441.488263 
L 498.043212 442.613119 
L 500.192796 443.565694 
L 502.297122 444.36404 
L 504.358057 445.0091 
L 506.377354 446.367445 
L 508.356662 446.556775 
L 510.297534 447.317034 
L 512.201435 448.336306 
L 514.069748 448.348068 
L 515.903777 449.134248 
L 517.704759 449.529115 
L 519.473863 449.183593 
L 522.920819 451.090426 
L 524.60072 451.465645 
L 527.878122 452.340345 
L 529.477385 453.066368 
L 531.051461 453.223807 
L 532.601132 454.138435 
L 534.127144 454.732514 
L 538.570177 455.794601 
L 540.008357 456.458202 
L 541.426137 456.896064 
L 542.824087 456.664552 
L 544.202754 457.135204 
L 545.562664 457.315588 
L 546.904319 457.29787 
L 550.824499 458.062194 
L 552.097788 458.536348 
L 553.355059 458.100731 
L 554.596713 457.799202 
L 557.034682 458.23894 
L 558.231724 458.05806 
L 560.583639 458.738333 
L 561.739164 458.318761 
L 562.881483 458.597399 
L 564.010894 459.01287 
L 565.127685 458.933933 
L 566.232136 459.06553 
L 567.324516 458.821381 
L 568.405087 458.756156 
L 569.4741 459.440947 
L 570.531801 459.654758 
L 571.578426 459.378436 
L 572.614205 460.09581 
L 573.639361 462.662479 
L 574.654109 472.534742 
L 575.658658 485.73497 
L 576.653211 472.705928 
L 577.637966 463.073372 
L 578.613113 460.922336 
L 579.578838 460.005752 
L 580.535322 459.804399 
L 581.48274 459.961681 
L 582.421261 459.990457 
L 583.351052 460.203633 
L 584.272273 459.558791 
L 586.986063 460.487351 
L 588.755168 460.619334 
L 589.628115 460.957476 
L 590.493504 461.117789 
L 591.351464 461.078789 
L 592.202123 460.774294 
L 593.045603 461.168998 
L 593.882024 460.984415 
L 596.350095 460.98109 
L 597.962256 461.892768 
L 599.548826 461.981938 
L 600.332765 461.618896 
L 601.110604 461.996041 
L 602.648355 461.875164 
L 603.408448 462.250396 
L 604.162805 462.368326 
L 604.911511 462.134185 
L 605.65465 462.265867 
L 606.392305 462.607843 
L 607.124556 462.559376 
L 607.851481 462.691498 
L 608.573158 463.09144 
L 609.289661 463.354271 
L 610.001065 463.480291 
L 610.707441 462.992041 
L 611.40886 463.157148 
L 612.105391 463.501419 
L 612.797102 463.203495 
L 614.166326 463.640629 
L 614.843968 464.226357 
L 615.517046 464.338638 
L 616.185623 463.872233 
L 616.849757 463.721808 
L 617.509507 464.29552 
L 619.463024 464.635374 
L 620.744475 464.389634 
L 621.379092 464.983048 
L 622.009705 465.239323 
L 622.636364 471.600356 
L 622.636364 471.600356 
" clip-path="url(#pf5a78e9d32)" style="fill: none; stroke: #2ca02c; stroke-opacity: 0.5; stroke-width: 1.5; stroke-linecap: square"/>
   </g>
   <g id="line2d_49">
    <path d="M 115.363636 377.284332 
L 184.644941 251.454936 
L 225.171905 259.05141 
L 253.926245 307.858394 
L 276.229843 332.273166 
L 294.45321 349.747556 
L 309.860847 363.950643 
L 323.207549 373.644145 
L 334.980175 380.878946 
L 345.511147 384.299344 
L 355.037571 391.064117 
L 363.734514 395.101265 
L 371.734926 394.706881 
L 379.142151 391.30816 
L 386.038112 388.56433 
L 392.488853 382.463394 
L 398.548393 370.445074 
L 404.261479 340.963119 
L 409.665594 297.555957 
L 414.792451 232.763291 
L 419.669116 192.857821 
L 424.318875 205.767362 
L 428.761908 253.70552 
L 433.015818 314.255075 
L 437.096049 359.079551 
L 441.01623 389.0537 
L 444.788444 407.049235 
L 448.423455 415.611911 
L 451.930895 422.174488 
L 455.319416 425.626566 
L 461.770157 427.567158 
L 464.84584 429.937943 
L 467.829697 429.32617 
L 470.727053 429.472416 
L 473.542783 428.724472 
L 476.281359 426.014286 
L 478.946899 424.886925 
L 481.543195 422.93989 
L 484.073755 421.444911 
L 486.541826 424.627017 
L 488.95042 422.758781 
L 491.302335 424.825617 
L 493.600179 430.122431 
L 495.846381 433.437975 
L 498.043212 438.512709 
L 500.192796 444.282385 
L 502.297122 446.735607 
L 504.358057 449.910553 
L 506.377354 452.327801 
L 508.356662 454.157909 
L 510.297534 454.817278 
L 512.201435 456.117694 
L 514.069748 456.371564 
L 515.903777 457.128317 
L 519.473863 459.31239 
L 521.212199 459.262238 
L 522.920819 459.529072 
L 524.60072 459.261612 
L 526.252854 460.379226 
L 527.878122 461.173549 
L 531.051461 462.45857 
L 532.601132 463.176496 
L 534.127144 463.013115 
L 535.630207 463.095998 
L 537.111001 462.794286 
L 538.570177 463.979199 
L 540.008357 464.784052 
L 541.426137 466.418677 
L 542.824087 466.242094 
L 544.202754 466.865462 
L 545.562664 466.897526 
L 546.904319 467.334456 
L 548.228203 467.426615 
L 549.534781 467.22177 
L 550.824499 467.789218 
L 552.097788 467.879103 
L 553.355059 468.550205 
L 554.596713 469.025014 
L 555.82313 468.868657 
L 558.231724 469.243273 
L 559.414599 469.133661 
L 560.583639 469.483136 
L 561.739164 469.149899 
L 562.881483 469.91398 
L 564.010894 469.188107 
L 565.127685 469.748492 
L 567.324516 469.437857 
L 568.405087 470.129587 
L 569.4741 469.774853 
L 570.531801 469.880107 
L 571.578426 470.421055 
L 572.614205 471.894968 
L 573.639361 473.608626 
L 574.654109 480.022651 
L 575.658658 489.596807 
L 576.653211 480.161241 
L 577.637966 473.840813 
L 578.613113 472.289801 
L 579.578838 471.604147 
L 580.535322 471.662961 
L 581.48274 472.126853 
L 582.421261 472.086691 
L 583.351052 472.177287 
L 584.272273 471.378928 
L 586.089628 472.991391 
L 586.986063 473.301893 
L 588.755168 473.631692 
L 589.628115 473.266008 
L 590.493504 473.830817 
L 591.351464 473.550049 
L 592.202123 473.953889 
L 593.045603 474.01337 
L 594.711505 473.883778 
L 595.534158 473.848117 
L 596.350095 473.645905 
L 597.962256 474.466753 
L 598.758689 474.143787 
L 601.110604 474.757455 
L 601.882437 474.313854 
L 602.648355 475.093254 
L 603.408448 475.075222 
L 605.65465 474.343949 
L 607.124556 475.021823 
L 607.851481 475.017316 
L 608.573158 475.252148 
L 609.289661 475.612251 
L 610.001065 475.366891 
L 610.707441 475.725039 
L 611.40886 475.543149 
L 612.105391 476.240168 
L 612.797102 475.424781 
L 613.484058 475.459124 
L 614.166326 476.013789 
L 614.843968 476.386128 
L 615.517046 476.596267 
L 616.185623 476.292643 
L 616.849757 476.561137 
L 617.509507 476.62539 
L 619.463024 476.074478 
L 620.105803 476.515222 
L 620.744475 476.55609 
L 621.379092 477.718438 
L 622.009705 477.456987 
L 622.636364 482.296589 
L 622.636364 482.296589 
" clip-path="url(#pf5a78e9d32)" style="fill: none; stroke: #d62728; stroke-opacity: 0.5; stroke-width: 1.5; stroke-linecap: square"/>
   </g>
   <g id="line2d_50">
    <path d="M 115.363636 381.3431 
L 184.644941 262.985673 
L 225.171905 269.291771 
L 253.926245 316.796285 
L 276.229843 343.121407 
L 294.45321 363.304018 
L 309.860847 373.100958 
L 323.207549 382.766136 
L 334.980175 384.100851 
L 345.511147 389.252482 
L 355.037571 390.088613 
L 363.734514 388.215848 
L 371.734926 378.667025 
L 379.142151 366.366576 
L 386.038112 338.126425 
L 392.488853 280.297674 
L 398.548393 215.302511 
L 404.261479 134.332495 
L 409.665594 89.28 
L 414.792451 162.743967 
L 419.669116 269.10481 
L 424.318875 334.901451 
L 428.761908 373.121743 
L 433.015818 394.93911 
L 437.096049 405.218551 
L 441.01623 409.713753 
L 444.788444 416.896927 
L 448.423455 422.520846 
L 451.930895 425.187966 
L 455.319416 425.806927 
L 458.596818 427.79363 
L 461.770157 430.020401 
L 464.84584 430.911446 
L 467.829697 427.312948 
L 470.727053 424.534466 
L 476.281359 418.607952 
L 478.946899 417.126601 
L 481.543195 423.233576 
L 484.073755 430.135138 
L 486.541826 436.538381 
L 488.95042 439.664843 
L 491.302335 443.008438 
L 493.600179 444.584377 
L 495.846381 445.212251 
L 498.043212 447.680544 
L 500.192796 448.722478 
L 502.297122 448.930573 
L 504.358057 450.487583 
L 506.377354 451.814707 
L 508.356662 452.270275 
L 510.297534 453.188187 
L 512.201435 454.275546 
L 514.069748 454.716174 
L 515.903777 455.617504 
L 517.704759 456.331061 
L 519.473863 457.280718 
L 522.920819 460.820414 
L 524.60072 462.057257 
L 526.252854 462.901374 
L 527.878122 464.175148 
L 529.477385 464.806184 
L 531.051461 465.174001 
L 532.601132 466.410503 
L 535.630207 467.391048 
L 537.111001 466.876361 
L 538.570177 467.184262 
L 540.008357 468.061953 
L 541.426137 468.610347 
L 542.824087 468.998857 
L 544.202754 468.759425 
L 545.562664 468.393339 
L 546.904319 469.54314 
L 548.228203 470.281635 
L 549.534781 470.134911 
L 550.824499 470.975339 
L 552.097788 471.186962 
L 553.355059 472.029926 
L 554.596713 472.057437 
L 555.82313 471.667696 
L 557.034682 471.519068 
L 558.231724 471.228668 
L 559.414599 471.746399 
L 560.583639 472.758264 
L 561.739164 471.990807 
L 564.010894 472.945994 
L 565.127685 472.392943 
L 566.232136 473.775826 
L 567.324516 473.175622 
L 569.4741 473.937051 
L 570.531801 472.8474 
L 571.578426 473.27959 
L 572.614205 474.549329 
L 573.639361 474.857289 
L 574.654109 481.289976 
L 575.658658 490.081203 
L 576.653211 481.620986 
L 577.637966 476.281666 
L 578.613113 474.629453 
L 579.578838 474.509401 
L 580.535322 473.924023 
L 581.48274 473.89353 
L 583.351052 473.12049 
L 584.272273 473.296658 
L 585.185081 474.411307 
L 586.089628 474.891017 
L 586.986063 474.691231 
L 588.755168 475.784271 
L 590.493504 475.494056 
L 591.351464 475.622694 
L 592.202123 476.028536 
L 593.045603 475.950963 
L 593.882024 476.062534 
L 594.711505 474.818944 
L 595.534158 474.758133 
L 597.159426 477.012454 
L 597.962256 476.806544 
L 598.758689 475.546515 
L 599.548826 476.474745 
L 600.332765 476.357867 
L 601.882437 475.841796 
L 602.648355 476.787624 
L 603.408448 476.931869 
L 604.162805 475.868555 
L 604.911511 475.907486 
L 606.392305 476.63602 
L 607.124556 476.434064 
L 607.851481 477.417884 
L 608.573158 476.579539 
L 609.289661 477.442198 
L 610.001065 477.379187 
L 610.707441 477.43946 
L 611.40886 477.35527 
L 612.105391 476.83209 
L 613.484058 477.682887 
L 614.166326 477.697737 
L 614.843968 478.906466 
L 615.517046 478.456166 
L 616.185623 478.47091 
L 616.849757 478.092625 
L 617.509507 478.330511 
L 618.164931 478.975234 
L 618.816085 479.341168 
L 619.463024 479.521626 
L 620.105803 479.45631 
L 621.379092 479.720764 
L 622.009705 480.11515 
L 622.636364 484.451189 
L 622.636364 484.451189 
" clip-path="url(#pf5a78e9d32)" style="fill: none; stroke-dasharray: 5,8.25; stroke-dashoffset: 0; stroke: #9467bd; stroke-width: 5"/>
   </g>
   <g id="line2d_51">
    <path d="M 115.363636 311.563801 
L 184.644941 130.810119 
L 225.171905 152.853508 
L 253.926245 230.596108 
L 276.229843 267.296762 
L 294.45321 292.802473 
L 309.860847 317.019269 
L 323.207549 331.031921 
L 334.980175 344.933813 
L 345.511147 356.604012 
L 355.037571 360.130455 
L 363.734514 360.310695 
L 371.734926 364.505492 
L 379.142151 365.451564 
L 386.038112 367.808182 
L 392.488853 375.300557 
L 398.548393 381.436688 
L 404.261479 386.124916 
L 409.665594 389.381822 
L 414.792451 393.349397 
L 419.669116 394.460989 
L 424.318875 397.040064 
L 433.015818 412.405432 
L 437.096049 419.207765 
L 444.788444 427.656364 
L 448.423455 428.967994 
L 451.930895 430.589636 
L 455.319416 431.524106 
L 458.596818 431.980654 
L 461.770157 433.526934 
L 464.84584 434.229426 
L 467.829697 434.092585 
L 470.727053 434.336669 
L 473.542783 434.958735 
L 478.946899 437.31006 
L 481.543195 437.678019 
L 484.073755 438.443027 
L 486.541826 438.542516 
L 488.95042 439.954876 
L 491.302335 440.687608 
L 493.600179 440.984385 
L 495.846381 442.262608 
L 498.043212 443.329216 
L 500.192796 443.842498 
L 502.297122 444.218993 
L 504.358057 445.037453 
L 506.377354 446.835237 
L 508.356662 447.576269 
L 510.297534 447.393605 
L 512.201435 448.265044 
L 514.069748 448.662474 
L 515.903777 449.934947 
L 517.704759 450.863433 
L 521.212199 452.057783 
L 522.920819 453.135295 
L 524.60072 453.550147 
L 526.252854 454.893225 
L 529.477385 455.658632 
L 531.051461 456.526617 
L 532.601132 458.130319 
L 534.127144 458.878712 
L 537.111001 459.333965 
L 538.570177 460.324638 
L 540.008357 461.084729 
L 541.426137 461.131858 
L 542.824087 461.497116 
L 544.202754 462.173575 
L 548.228203 463.377381 
L 552.097788 464.438919 
L 555.82313 464.610527 
L 557.034682 464.915471 
L 558.231724 464.96611 
L 559.414599 465.265884 
L 561.739164 465.306371 
L 562.881483 465.686836 
L 564.010894 465.673809 
L 569.4741 466.74261 
L 570.531801 466.790383 
L 571.578426 466.646002 
L 572.614205 467.498174 
L 573.639361 469.874352 
L 574.654109 477.797191 
L 575.658658 488.373398 
L 576.653211 477.615952 
L 577.637966 470.589328 
L 578.613113 468.134992 
L 579.578838 467.568586 
L 580.535322 467.170423 
L 582.421261 467.347288 
L 583.351052 467.588942 
L 584.272273 466.768738 
L 585.185081 467.598398 
L 586.089628 467.962196 
L 586.986063 467.893834 
L 587.874529 468.27299 
L 588.755168 468.177214 
L 589.628115 468.617885 
L 590.493504 468.910651 
L 591.351464 468.726372 
L 592.202123 468.900856 
L 593.045603 469.219185 
L 593.882024 468.927794 
L 594.711505 469.087543 
L 595.534158 468.902543 
L 596.350095 469.277326 
L 597.159426 469.349707 
L 597.962256 469.17981 
L 598.758689 469.897764 
L 599.548826 469.502577 
L 600.332765 469.380301 
L 601.110604 469.681778 
L 601.882437 469.61738 
L 602.648355 469.786966 
L 603.408448 469.718732 
L 604.911511 470.073212 
L 605.65465 470.004279 
L 607.124556 470.314856 
L 607.851481 470.342708 
L 608.573158 470.732813 
L 609.289661 470.712753 
L 610.001065 471.127186 
L 610.707441 471.196229 
L 611.40886 470.940464 
L 612.105391 470.230193 
L 612.797102 470.150251 
L 613.484058 470.72979 
L 615.517046 471.286363 
L 616.185623 471.140559 
L 616.849757 471.176661 
L 617.509507 471.52239 
L 618.164931 471.464609 
L 618.816085 470.768654 
L 620.105803 471.345257 
L 620.744475 471.223855 
L 622.009705 472.147409 
L 622.636364 477.751517 
L 622.636364 477.751517 
" clip-path="url(#pf5a78e9d32)" style="fill: none; stroke: #8c564b; stroke-opacity: 0.5; stroke-width: 1.5; stroke-linecap: square"/>
   </g>
   <g id="patch_3">
    <path d="M 90 512.64 
L 90 69.12 
" style="fill: none; stroke: #000000; stroke-width: 0.8; stroke-linejoin: miter; stroke-linecap: square"/>
   </g>
   <g id="patch_4">
    <path d="M 648 512.64 
L 648 69.12 
" style="fill: none; stroke: #000000; stroke-width: 0.8; stroke-linejoin: miter; stroke-linecap: square"/>
   </g>
   <g id="patch_5">
    <path d="M 90 512.64 
L 648 512.64 
" style="fill: none; stroke: #000000; stroke-width: 0.8; stroke-linejoin: miter; stroke-linecap: square"/>
   </g>
   <g id="patch_6">
    <path d="M 90 69.12 
L 648 69.12 
" style="fill: none; stroke: #000000; stroke-width: 0.8; stroke-linejoin: miter; stroke-linecap: square"/>
   </g>
   <g id="text_17">
    <!-- $\delta$ -->
    <g transform="translate(249.586245 93.063413) scale(0.14 -0.14)">
     <defs>
      <path id="DejaVuSans-Oblique-3b4" d="M 3472 4053 
Q 3197 4272 2450 4272 
Q 1659 4272 1588 3906 
Q 1531 3619 2328 3469 
Q 2953 3353 3253 3003 
Q 3616 2581 3447 1716 
Q 3284 888 2763 400 
Q 2238 -91 1488 -91 
Q 741 -91 406 400 
Q 72 888 241 1747 
Q 363 2384 891 2900 
Q 1097 3100 1353 3213 
Q 913 3459 1000 3900 
Q 1166 4750 2544 4750 
Q 3234 4750 3566 4531 
L 3472 4053 
z
M 1753 3056 
Q 1525 2966 1306 2738 
Q 969 2384 847 1747 
Q 722 1113 919 756 
Q 1119 397 1584 397 
Q 2044 397 2381 759 
Q 2722 1122 2838 1716 
Q 2956 2338 2731 2638 
Q 2491 2959 2103 2994 
Q 1906 3013 1753 3056 
z
" transform="scale(0.015625)"/>
     </defs>
     <use xlink:href="#DejaVuSans-Oblique-3b4" transform="translate(0 0.78125)"/>
    </g>
   </g>
   <g id="text_18">
    <!-- $\theta$ -->
    <g transform="translate(359.394514 93.063413) scale(0.14 -0.14)">
     <defs>
      <path id="DejaVuSans-Oblique-3b8" d="M 2913 2219 
L 925 2219 
Q 791 1284 928 888 
Q 1100 400 1566 400 
Q 2034 400 2391 891 
Q 2703 1322 2913 2219 
z
M 3009 2750 
Q 3094 3638 2984 3950 
Q 2813 4444 2353 4444 
Q 1875 4444 1525 3956 
Q 1250 3563 1034 2750 
L 3009 2750 
z
M 2444 4913 
Q 3194 4913 3494 4250 
Q 3794 3591 3566 2422 
Q 3341 1256 2781 594 
Q 2225 -72 1475 -72 
Q 722 -72 425 594 
Q 128 1256 353 2422 
Q 581 3591 1134 4250 
Q 1691 4913 2444 4913 
z
" transform="scale(0.015625)"/>
     </defs>
     <use xlink:href="#DejaVuSans-Oblique-3b8" transform="translate(0 0.234375)"/>
    </g>
   </g>
   <g id="text_19">
    <!-- $\alpha$ -->
    <g transform="translate(410.172451 93.063413) scale(0.14 -0.14)">
     <defs>
      <path id="DejaVuSans-Oblique-3b1" d="M 2619 1628 
L 2622 2350 
Q 2625 3088 2069 3091 
Q 1653 3094 1394 2747 
Q 1069 2319 959 1747 
Q 825 1059 994 731 
Q 1169 397 1547 397 
Q 1966 397 2319 1063 
L 2619 1628 
z
M 2166 3578 
Q 3141 3594 3128 2584 
Q 3128 2584 3616 3500 
L 4128 3500 
L 3119 1603 
L 3109 919 
Q 3109 766 3194 638 
Q 3291 488 3391 488 
L 3669 488 
L 3575 0 
L 3228 0 
Q 2934 0 2722 263 
Q 2622 394 2619 669 
Q 2416 334 2066 50 
Q 1900 -81 1453 -78 
Q 722 -72 456 397 
Q 184 884 353 1747 
Q 534 2675 1009 3097 
Q 1544 3569 2166 3578 
z
" transform="scale(0.015625)"/>
     </defs>
     <use xlink:href="#DejaVuSans-Oblique-3b1" transform="translate(0 0.84375)"/>
    </g>
   </g>
   <g id="text_20">
    <!-- $\beta$ -->
    <g transform="translate(457.290157 93.2056) scale(0.14 -0.14)">
     <defs>
      <path id="DejaVuSans-Oblique-3b2" d="M 872 216 
L 572 -1331 
L -6 -1331 
L 928 3478 
Q 1206 4903 2538 4903 
Q 3888 4903 3659 3700 
Q 3503 2844 2894 2531 
Q 3713 2250 3553 1416 
Q 3272 -69 1759 -66 
Q 1097 -63 872 216 
z
M 1019 966 
Q 1259 422 1875 425 
Q 2775 425 2966 1406 
Q 3138 2288 1675 2219 
L 1778 2750 
Q 2909 2731 3106 3750 
Q 3241 4438 2509 4434 
Q 1691 4434 1503 3459 
L 1019 966 
z
" transform="scale(0.015625)"/>
     </defs>
     <use xlink:href="#DejaVuSans-Oblique-3b2" transform="translate(0 0.390625)"/>
    </g>
   </g>
   <g id="text_21">
    <!-- $\gamma$ -->
    <g transform="translate(538.624087 93.034975) scale(0.14 -0.14)">
     <defs>
      <path id="DejaVuSans-Oblique-3b3" d="M 1491 2950 
L 1838 788 
L 3456 3500 
L 4066 3500 
L 1972 0 
L 1713 -1331 
L 1138 -1331 
L 1397 0 
L 988 2613 
Q 925 3006 628 3006 
L 475 3006 
L 569 3500 
L 788 3500 
Q 1403 3500 1491 2950 
z
" transform="scale(0.015625)"/>
     </defs>
     <use xlink:href="#DejaVuSans-Oblique-3b3" transform="translate(0 0.3125)"/>
    </g>
   </g>
   <g id="text_22">
    <!-- Median power of different  PSDs clusters of reconstructed sources -->
    <g transform="translate(52.017 63.12) scale(0.192 -0.192)">
     <defs>
      <path id="DejaVuSans-4d" d="M 628 4666 
L 1569 4666 
L 2759 1491 
L 3956 4666 
L 4897 4666 
L 4897 0 
L 4281 0 
L 4281 4097 
L 3078 897 
L 2444 897 
L 1241 4097 
L 1241 0 
L 628 0 
L 628 4666 
z
" transform="scale(0.015625)"/>
      <path id="DejaVuSans-77" d="M 269 3500 
L 844 3500 
L 1563 769 
L 2278 3500 
L 2956 3500 
L 3675 769 
L 4391 3500 
L 4966 3500 
L 4050 0 
L 3372 0 
L 2619 2869 
L 1863 0 
L 1184 0 
L 269 3500 
z
" transform="scale(0.015625)"/>
      <path id="DejaVuSans-66" d="M 2375 4863 
L 2375 4384 
L 1825 4384 
Q 1516 4384 1395 4259 
Q 1275 4134 1275 3809 
L 1275 3500 
L 2222 3500 
L 2222 3053 
L 1275 3053 
L 1275 0 
L 697 0 
L 697 3053 
L 147 3053 
L 147 3500 
L 697 3500 
L 697 3744 
Q 697 4328 969 4595 
Q 1241 4863 1831 4863 
L 2375 4863 
z
" transform="scale(0.015625)"/>
      <path id="DejaVuSans-50" d="M 1259 4147 
L 1259 2394 
L 2053 2394 
Q 2494 2394 2734 2622 
Q 2975 2850 2975 3272 
Q 2975 3691 2734 3919 
Q 2494 4147 2053 4147 
L 1259 4147 
z
M 628 4666 
L 2053 4666 
Q 2838 4666 3239 4311 
Q 3641 3956 3641 3272 
Q 3641 2581 3239 2228 
Q 2838 1875 2053 1875 
L 1259 1875 
L 1259 0 
L 628 0 
L 628 4666 
z
" transform="scale(0.015625)"/>
      <path id="DejaVuSans-53" d="M 3425 4513 
L 3425 3897 
Q 3066 4069 2747 4153 
Q 2428 4238 2131 4238 
Q 1616 4238 1336 4038 
Q 1056 3838 1056 3469 
Q 1056 3159 1242 3001 
Q 1428 2844 1947 2747 
L 2328 2669 
Q 3034 2534 3370 2195 
Q 3706 1856 3706 1288 
Q 3706 609 3251 259 
Q 2797 -91 1919 -91 
Q 1588 -91 1214 -16 
Q 841 59 441 206 
L 441 856 
Q 825 641 1194 531 
Q 1563 422 1919 422 
Q 2459 422 2753 634 
Q 3047 847 3047 1241 
Q 3047 1584 2836 1778 
Q 2625 1972 2144 2069 
L 1759 2144 
Q 1053 2284 737 2584 
Q 422 2884 422 3419 
Q 422 4038 858 4394 
Q 1294 4750 2059 4750 
Q 2388 4750 2728 4690 
Q 3069 4631 3425 4513 
z
" transform="scale(0.015625)"/>
      <path id="DejaVuSans-44" d="M 1259 4147 
L 1259 519 
L 2022 519 
Q 2988 519 3436 956 
Q 3884 1394 3884 2338 
Q 3884 3275 3436 3711 
Q 2988 4147 2022 4147 
L 1259 4147 
z
M 628 4666 
L 1925 4666 
Q 3281 4666 3915 4102 
Q 4550 3538 4550 2338 
Q 4550 1131 3912 565 
Q 3275 0 1925 0 
L 628 0 
L 628 4666 
z
" transform="scale(0.015625)"/>
     </defs>
     <use xlink:href="#DejaVuSans-4d"/>
     <use xlink:href="#DejaVuSans-65" transform="translate(86.279297 0)"/>
     <use xlink:href="#DejaVuSans-64" transform="translate(147.802734 0)"/>
     <use xlink:href="#DejaVuSans-69" transform="translate(211.279297 0)"/>
     <use xlink:href="#DejaVuSans-61" transform="translate(239.0625 0)"/>
     <use xlink:href="#DejaVuSans-6e" transform="translate(300.341797 0)"/>
     <use xlink:href="#DejaVuSans-20" transform="translate(363.720703 0)"/>
     <use xlink:href="#DejaVuSans-70" transform="translate(395.507812 0)"/>
     <use xlink:href="#DejaVuSans-6f" transform="translate(458.984375 0)"/>
     <use xlink:href="#DejaVuSans-77" transform="translate(520.166016 0)"/>
     <use xlink:href="#DejaVuSans-65" transform="translate(601.953125 0)"/>
     <use xlink:href="#DejaVuSans-72" transform="translate(663.476562 0)"/>
     <use xlink:href="#DejaVuSans-20" transform="translate(704.589844 0)"/>
     <use xlink:href="#DejaVuSans-6f" transform="translate(736.376953 0)"/>
     <use xlink:href="#DejaVuSans-66" transform="translate(797.558594 0)"/>
     <use xlink:href="#DejaVuSans-20" transform="translate(832.763672 0)"/>
     <use xlink:href="#DejaVuSans-64" transform="translate(864.550781 0)"/>
     <use xlink:href="#DejaVuSans-69" transform="translate(928.027344 0)"/>
     <use xlink:href="#DejaVuSans-66" transform="translate(955.810547 0)"/>
     <use xlink:href="#DejaVuSans-66" transform="translate(991.015625 0)"/>
     <use xlink:href="#DejaVuSans-65" transform="translate(1026.220703 0)"/>
     <use xlink:href="#DejaVuSans-72" transform="translate(1087.744141 0)"/>
     <use xlink:href="#DejaVuSans-65" transform="translate(1126.607422 0)"/>
     <use xlink:href="#DejaVuSans-6e" transform="translate(1188.130859 0)"/>
     <use xlink:href="#DejaVuSans-74" transform="translate(1251.509766 0)"/>
     <use xlink:href="#DejaVuSans-20" transform="translate(1290.71875 0)"/>
     <use xlink:href="#DejaVuSans-20" transform="translate(1322.505859 0)"/>
     <use xlink:href="#DejaVuSans-50" transform="translate(1354.292969 0)"/>
     <use xlink:href="#DejaVuSans-53" transform="translate(1414.595703 0)"/>
     <use xlink:href="#DejaVuSans-44" transform="translate(1478.072266 0)"/>
     <use xlink:href="#DejaVuSans-73" transform="translate(1555.074219 0)"/>
     <use xlink:href="#DejaVuSans-20" transform="translate(1607.173828 0)"/>
     <use xlink:href="#DejaVuSans-63" transform="translate(1638.960938 0)"/>
     <use xlink:href="#DejaVuSans-6c" transform="translate(1693.941406 0)"/>
     <use xlink:href="#DejaVuSans-75" transform="translate(1721.724609 0)"/>
     <use xlink:href="#DejaVuSans-73" transform="translate(1785.103516 0)"/>
     <use xlink:href="#DejaVuSans-74" transform="translate(1837.203125 0)"/>
     <use xlink:href="#DejaVuSans-65" transform="translate(1876.412109 0)"/>
     <use xlink:href="#DejaVuSans-72" transform="translate(1937.935547 0)"/>
     <use xlink:href="#DejaVuSans-73" transform="translate(1979.048828 0)"/>
     <use xlink:href="#DejaVuSans-20" transform="translate(2031.148438 0)"/>
     <use xlink:href="#DejaVuSans-6f" transform="translate(2062.935547 0)"/>
     <use xlink:href="#DejaVuSans-66" transform="translate(2124.117188 0)"/>
     <use xlink:href="#DejaVuSans-20" transform="translate(2159.322266 0)"/>
     <use xlink:href="#DejaVuSans-72" transform="translate(2191.109375 0)"/>
     <use xlink:href="#DejaVuSans-65" transform="translate(2229.972656 0)"/>
     <use xlink:href="#DejaVuSans-63" transform="translate(2291.496094 0)"/>
     <use xlink:href="#DejaVuSans-6f" transform="translate(2346.476562 0)"/>
     <use xlink:href="#DejaVuSans-6e" transform="translate(2407.658203 0)"/>
     <use xlink:href="#DejaVuSans-73" transform="translate(2471.037109 0)"/>
     <use xlink:href="#DejaVuSans-74" transform="translate(2523.136719 0)"/>
     <use xlink:href="#DejaVuSans-72" transform="translate(2562.345703 0)"/>
     <use xlink:href="#DejaVuSans-75" transform="translate(2603.458984 0)"/>
     <use xlink:href="#DejaVuSans-63" transform="translate(2666.837891 0)"/>
     <use xlink:href="#DejaVuSans-74" transform="translate(2721.818359 0)"/>
     <use xlink:href="#DejaVuSans-65" transform="translate(2761.027344 0)"/>
     <use xlink:href="#DejaVuSans-64" transform="translate(2822.550781 0)"/>
     <use xlink:href="#DejaVuSans-20" transform="translate(2886.027344 0)"/>
     <use xlink:href="#DejaVuSans-73" transform="translate(2917.814453 0)"/>
     <use xlink:href="#DejaVuSans-6f" transform="translate(2969.914062 0)"/>
     <use xlink:href="#DejaVuSans-75" transform="translate(3031.095703 0)"/>
     <use xlink:href="#DejaVuSans-72" transform="translate(3094.474609 0)"/>
     <use xlink:href="#DejaVuSans-63" transform="translate(3133.337891 0)"/>
     <use xlink:href="#DejaVuSans-65" transform="translate(3188.318359 0)"/>
     <use xlink:href="#DejaVuSans-73" transform="translate(3249.841797 0)"/>
    </g>
   </g>
   <g id="legend_1">
    <g id="patch_7">
     <path d="M 479.4375 363.735 
L 636.8 363.735 
Q 640 363.735 640 360.535 
L 640 221.225 
Q 640 218.025 636.8 218.025 
L 479.4375 218.025 
Q 476.2375 218.025 476.2375 221.225 
L 476.2375 360.535 
Q 476.2375 363.735 479.4375 363.735 
z
" style="fill: #ffffff; opacity: 0.8; stroke: #cccccc; stroke-linejoin: miter"/>
    </g>
    <g id="line2d_52">
     <path d="M 482.6375 230.9825 
L 498.6375 230.9825 
L 514.6375 230.9825 
" style="fill: none; stroke: #1f77b4; stroke-opacity: 0.5; stroke-width: 1.5; stroke-linecap: square"/>
    </g>
    <g id="text_23">
     <!-- cl. 0 (305 el.) -->
     <g transform="translate(527.4375 236.5825) scale(0.16 -0.16)">
      <defs>
       <path id="DejaVuSans-28" d="M 1984 4856 
Q 1566 4138 1362 3434 
Q 1159 2731 1159 2009 
Q 1159 1288 1364 580 
Q 1569 -128 1984 -844 
L 1484 -844 
Q 1016 -109 783 600 
Q 550 1309 550 2009 
Q 550 2706 781 3412 
Q 1013 4119 1484 4856 
L 1984 4856 
z
" transform="scale(0.015625)"/>
       <path id="DejaVuSans-29" d="M 513 4856 
L 1013 4856 
Q 1481 4119 1714 3412 
Q 1947 2706 1947 2009 
Q 1947 1309 1714 600 
Q 1481 -109 1013 -844 
L 513 -844 
Q 928 -128 1133 580 
Q 1338 1288 1338 2009 
Q 1338 2731 1133 3434 
Q 928 4138 513 4856 
z
" transform="scale(0.015625)"/>
      </defs>
      <use xlink:href="#DejaVuSans-63"/>
      <use xlink:href="#DejaVuSans-6c" transform="translate(54.980469 0)"/>
      <use xlink:href="#DejaVuSans-2e" transform="translate(82.763672 0)"/>
      <use xlink:href="#DejaVuSans-20" transform="translate(114.550781 0)"/>
      <use xlink:href="#DejaVuSans-30" transform="translate(146.337891 0)"/>
      <use xlink:href="#DejaVuSans-20" transform="translate(209.960938 0)"/>
      <use xlink:href="#DejaVuSans-28" transform="translate(241.748047 0)"/>
      <use xlink:href="#DejaVuSans-33" transform="translate(280.761719 0)"/>
      <use xlink:href="#DejaVuSans-30" transform="translate(344.384766 0)"/>
      <use xlink:href="#DejaVuSans-35" transform="translate(408.007812 0)"/>
      <use xlink:href="#DejaVuSans-20" transform="translate(471.630859 0)"/>
      <use xlink:href="#DejaVuSans-65" transform="translate(503.417969 0)"/>
      <use xlink:href="#DejaVuSans-6c" transform="translate(564.941406 0)"/>
      <use xlink:href="#DejaVuSans-2e" transform="translate(592.724609 0)"/>
      <use xlink:href="#DejaVuSans-29" transform="translate(624.511719 0)"/>
     </g>
    </g>
    <g id="line2d_53">
     <path d="M 482.6375 254.4675 
L 498.6375 254.4675 
L 514.6375 254.4675 
" style="fill: none; stroke: #ff7f0e; stroke-opacity: 0.5; stroke-width: 1.5; stroke-linecap: square"/>
    </g>
    <g id="text_24">
     <!-- cl. 1 (181 el.) -->
     <g transform="translate(527.4375 260.0675) scale(0.16 -0.16)">
      <use xlink:href="#DejaVuSans-63"/>
      <use xlink:href="#DejaVuSans-6c" transform="translate(54.980469 0)"/>
      <use xlink:href="#DejaVuSans-2e" transform="translate(82.763672 0)"/>
      <use xlink:href="#DejaVuSans-20" transform="translate(114.550781 0)"/>
      <use xlink:href="#DejaVuSans-31" transform="translate(146.337891 0)"/>
      <use xlink:href="#DejaVuSans-20" transform="translate(209.960938 0)"/>
      <use xlink:href="#DejaVuSans-28" transform="translate(241.748047 0)"/>
      <use xlink:href="#DejaVuSans-31" transform="translate(280.761719 0)"/>
      <use xlink:href="#DejaVuSans-38" transform="translate(344.384766 0)"/>
      <use xlink:href="#DejaVuSans-31" transform="translate(408.007812 0)"/>
      <use xlink:href="#DejaVuSans-20" transform="translate(471.630859 0)"/>
      <use xlink:href="#DejaVuSans-65" transform="translate(503.417969 0)"/>
      <use xlink:href="#DejaVuSans-6c" transform="translate(564.941406 0)"/>
      <use xlink:href="#DejaVuSans-2e" transform="translate(592.724609 0)"/>
      <use xlink:href="#DejaVuSans-29" transform="translate(624.511719 0)"/>
     </g>
    </g>
    <g id="line2d_54">
     <path d="M 482.6375 277.9525 
L 498.6375 277.9525 
L 514.6375 277.9525 
" style="fill: none; stroke: #2ca02c; stroke-opacity: 0.5; stroke-width: 1.5; stroke-linecap: square"/>
    </g>
    <g id="text_25">
     <!-- cl. 2 (391 el.) -->
     <g transform="translate(527.4375 283.5525) scale(0.16 -0.16)">
      <defs>
       <path id="DejaVuSans-39" d="M 703 97 
L 703 672 
Q 941 559 1184 500 
Q 1428 441 1663 441 
Q 2288 441 2617 861 
Q 2947 1281 2994 2138 
Q 2813 1869 2534 1725 
Q 2256 1581 1919 1581 
Q 1219 1581 811 2004 
Q 403 2428 403 3163 
Q 403 3881 828 4315 
Q 1253 4750 1959 4750 
Q 2769 4750 3195 4129 
Q 3622 3509 3622 2328 
Q 3622 1225 3098 567 
Q 2575 -91 1691 -91 
Q 1453 -91 1209 -44 
Q 966 3 703 97 
z
M 1959 2075 
Q 2384 2075 2632 2365 
Q 2881 2656 2881 3163 
Q 2881 3666 2632 3958 
Q 2384 4250 1959 4250 
Q 1534 4250 1286 3958 
Q 1038 3666 1038 3163 
Q 1038 2656 1286 2365 
Q 1534 2075 1959 2075 
z
" transform="scale(0.015625)"/>
      </defs>
      <use xlink:href="#DejaVuSans-63"/>
      <use xlink:href="#DejaVuSans-6c" transform="translate(54.980469 0)"/>
      <use xlink:href="#DejaVuSans-2e" transform="translate(82.763672 0)"/>
      <use xlink:href="#DejaVuSans-20" transform="translate(114.550781 0)"/>
      <use xlink:href="#DejaVuSans-32" transform="translate(146.337891 0)"/>
      <use xlink:href="#DejaVuSans-20" transform="translate(209.960938 0)"/>
      <use xlink:href="#DejaVuSans-28" transform="translate(241.748047 0)"/>
      <use xlink:href="#DejaVuSans-33" transform="translate(280.761719 0)"/>
      <use xlink:href="#DejaVuSans-39" transform="translate(344.384766 0)"/>
      <use xlink:href="#DejaVuSans-31" transform="translate(408.007812 0)"/>
      <use xlink:href="#DejaVuSans-20" transform="translate(471.630859 0)"/>
      <use xlink:href="#DejaVuSans-65" transform="translate(503.417969 0)"/>
      <use xlink:href="#DejaVuSans-6c" transform="translate(564.941406 0)"/>
      <use xlink:href="#DejaVuSans-2e" transform="translate(592.724609 0)"/>
      <use xlink:href="#DejaVuSans-29" transform="translate(624.511719 0)"/>
     </g>
    </g>
    <g id="line2d_55">
     <path d="M 482.6375 301.4375 
L 498.6375 301.4375 
L 514.6375 301.4375 
" style="fill: none; stroke: #d62728; stroke-opacity: 0.5; stroke-width: 1.5; stroke-linecap: square"/>
    </g>
    <g id="text_26">
     <!-- cl. 3 (152 el.) -->
     <g transform="translate(527.4375 307.0375) scale(0.16 -0.16)">
      <use xlink:href="#DejaVuSans-63"/>
      <use xlink:href="#DejaVuSans-6c" transform="translate(54.980469 0)"/>
      <use xlink:href="#DejaVuSans-2e" transform="translate(82.763672 0)"/>
      <use xlink:href="#DejaVuSans-20" transform="translate(114.550781 0)"/>
      <use xlink:href="#DejaVuSans-33" transform="translate(146.337891 0)"/>
      <use xlink:href="#DejaVuSans-20" transform="translate(209.960938 0)"/>
      <use xlink:href="#DejaVuSans-28" transform="translate(241.748047 0)"/>
      <use xlink:href="#DejaVuSans-31" transform="translate(280.761719 0)"/>
      <use xlink:href="#DejaVuSans-35" transform="translate(344.384766 0)"/>
      <use xlink:href="#DejaVuSans-32" transform="translate(408.007812 0)"/>
      <use xlink:href="#DejaVuSans-20" transform="translate(471.630859 0)"/>
      <use xlink:href="#DejaVuSans-65" transform="translate(503.417969 0)"/>
      <use xlink:href="#DejaVuSans-6c" transform="translate(564.941406 0)"/>
      <use xlink:href="#DejaVuSans-2e" transform="translate(592.724609 0)"/>
      <use xlink:href="#DejaVuSans-29" transform="translate(624.511719 0)"/>
     </g>
    </g>
    <g id="line2d_56">
     <path d="M 482.6375 324.9225 
L 498.6375 324.9225 
L 514.6375 324.9225 
" style="fill: none; stroke-dasharray: 5,8.25; stroke-dashoffset: 0; stroke: #9467bd; stroke-width: 5"/>
    </g>
    <g id="text_27">
     <!-- cl. 4 (112 el.) -->
     <g transform="translate(527.4375 330.5225) scale(0.16 -0.16)">
      <use xlink:href="#DejaVuSans-63"/>
      <use xlink:href="#DejaVuSans-6c" transform="translate(54.980469 0)"/>
      <use xlink:href="#DejaVuSans-2e" transform="translate(82.763672 0)"/>
      <use xlink:href="#DejaVuSans-20" transform="translate(114.550781 0)"/>
      <use xlink:href="#DejaVuSans-34" transform="translate(146.337891 0)"/>
      <use xlink:href="#DejaVuSans-20" transform="translate(209.960938 0)"/>
      <use xlink:href="#DejaVuSans-28" transform="translate(241.748047 0)"/>
      <use xlink:href="#DejaVuSans-31" transform="translate(280.761719 0)"/>
      <use xlink:href="#DejaVuSans-31" transform="translate(344.384766 0)"/>
      <use xlink:href="#DejaVuSans-32" transform="translate(408.007812 0)"/>
      <use xlink:href="#DejaVuSans-20" transform="translate(471.630859 0)"/>
      <use xlink:href="#DejaVuSans-65" transform="translate(503.417969 0)"/>
      <use xlink:href="#DejaVuSans-6c" transform="translate(564.941406 0)"/>
      <use xlink:href="#DejaVuSans-2e" transform="translate(592.724609 0)"/>
      <use xlink:href="#DejaVuSans-29" transform="translate(624.511719 0)"/>
     </g>
    </g>
    <g id="line2d_57">
     <path d="M 482.6375 348.4075 
L 498.6375 348.4075 
L 514.6375 348.4075 
" style="fill: none; stroke: #8c564b; stroke-opacity: 0.5; stroke-width: 1.5; stroke-linecap: square"/>
    </g>
    <g id="text_28">
     <!-- cl. 5 (303 el.) -->
     <g transform="translate(527.4375 354.0075) scale(0.16 -0.16)">
      <use xlink:href="#DejaVuSans-63"/>
      <use xlink:href="#DejaVuSans-6c" transform="translate(54.980469 0)"/>
      <use xlink:href="#DejaVuSans-2e" transform="translate(82.763672 0)"/>
      <use xlink:href="#DejaVuSans-20" transform="translate(114.550781 0)"/>
      <use xlink:href="#DejaVuSans-35" transform="translate(146.337891 0)"/>
      <use xlink:href="#DejaVuSans-20" transform="translate(209.960938 0)"/>
      <use xlink:href="#DejaVuSans-28" transform="translate(241.748047 0)"/>
      <use xlink:href="#DejaVuSans-33" transform="translate(280.761719 0)"/>
      <use xlink:href="#DejaVuSans-30" transform="translate(344.384766 0)"/>
      <use xlink:href="#DejaVuSans-33" transform="translate(408.007812 0)"/>
      <use xlink:href="#DejaVuSans-20" transform="translate(471.630859 0)"/>
      <use xlink:href="#DejaVuSans-65" transform="translate(503.417969 0)"/>
      <use xlink:href="#DejaVuSans-6c" transform="translate(564.941406 0)"/>
      <use xlink:href="#DejaVuSans-2e" transform="translate(592.724609 0)"/>
      <use xlink:href="#DejaVuSans-29" transform="translate(624.511719 0)"/>
     </g>
    </g>
   </g>
  </g>
 </g>
 <defs>
  <clipPath id="pf5a78e9d32">
   <rect x="90" y="69.12" width="558" height="443.52"/>
  </clipPath>
 </defs>
</svg>
