<?xml version="1.0" encoding="utf-8" standalone="no"?>
<!DOCTYPE svg PUBLIC "-//W3C//DTD SVG 1.1//EN"
  "http://www.w3.org/Graphics/SVG/1.1/DTD/svg11.dtd">
<svg xmlns:xlink="http://www.w3.org/1999/xlink" width="720pt" height="576pt" viewBox="0 0 720 576" xmlns="http://www.w3.org/2000/svg" version="1.1">
 <metadata>
  <rdf:RDF xmlns:dc="http://purl.org/dc/elements/1.1/" xmlns:cc="http://creativecommons.org/ns#" xmlns:rdf="http://www.w3.org/1999/02/22-rdf-syntax-ns#">
   <cc:Work>
    <dc:type rdf:resource="http://purl.org/dc/dcmitype/StillImage"/>
    <dc:date>2026-04-22T03:38:22.305459</dc:date>
    <dc:format>image/svg+xml</dc:format>
    <dc:creator>
     <cc:Agent>
      <dc:title>Matplotlib v3.10.8, https://matplotlib.org/</dc:title>
     </cc:Agent>
    </dc:creator>
   </cc:Work>
  </rdf:RDF>
 </metadata>
 <defs>
  <style type="text/css">*{stroke-linejoin: round; stroke-linecap: butt}</style>
 </defs>
 <g id="figure_1">
  <g id="patch_1">
   <path d="M 0 576 
L 720 576 
L 720 0 
L 0 0 
z
" style="fill: #ffffff"/>
  </g>
  <g id="axes_1">
   <g id="patch_2">
    <path d="M 90 512.64 
L 648 512.64 
L 648 69.12 
L 90 69.12 
z
" style="fill: #ffffff"/>
   </g>
   <g id="matplotlib.axis_1">
    <g id="xtick_1">
     <g id="line2d_1">
      <path d="M 115.363636 512.64 
L 115.363636 69.12 
" clip-path="url(#pd008415ec5)" style="fill: none; stroke: #b0b0b0; stroke-width: 0.8; stroke-linecap: square"/>
     </g>
     <g id="line2d_2">
      <defs>
       <path id="m85f1ffe9ec" d="M 0 0 
L 0 3.5 
" style="stroke: #000000; stroke-width: 0.8"/>
      </defs>
      <g>
       <use xlink:href="#m85f1ffe9ec" x="115.363636" y="512.64" style="stroke: #000000; stroke-width: 0.8"/>
      </g>
     </g>
     <g id="text_1">
      <!-- 0.5 -->
      <g transform="translate(102.641136 531.7975) scale(0.16 -0.16)">
       <defs>
        <path id="DejaVuSans-30" d="M 2034 4250 
Q 1547 4250 1301 3770 
Q 1056 3291 1056 2328 
Q 1056 1369 1301 889 
Q 1547 409 2034 409 
Q 2525 409 2770 889 
Q 3016 1369 3016 2328 
Q 3016 3291 2770 3770 
Q 2525 4250 2034 4250 
z
M 2034 4750 
Q 2819 4750 3233 4129 
Q 3647 3509 3647 2328 
Q 3647 1150 3233 529 
Q 2819 -91 2034 -91 
Q 1250 -91 836 529 
Q 422 1150 422 2328 
Q 422 3509 836 4129 
Q 1250 4750 2034 4750 
z
" transform="scale(0.015625)"/>
        <path id="DejaVuSans-2e" d="M 684 794 
L 1344 794 
L 1344 0 
L 684 0 
L 684 794 
z
" transform="scale(0.015625)"/>
        <path id="DejaVuSans-35" d="M 691 4666 
L 3169 4666 
L 3169 4134 
L 1269 4134 
L 1269 2991 
Q 1406 3038 1543 3061 
Q 1681 3084 1819 3084 
Q 2600 3084 3056 2656 
Q 3513 2228 3513 1497 
Q 3513 744 3044 326 
Q 2575 -91 1722 -91 
Q 1428 -91 1123 -41 
Q 819 9 494 109 
L 494 744 
Q 775 591 1075 516 
Q 1375 441 1709 441 
Q 2250 441 2565 725 
Q 2881 1009 2881 1497 
Q 2881 1984 2565 2268 
Q 2250 2553 1709 2553 
Q 1456 2553 1204 2497 
Q 953 2441 691 2322 
L 691 4666 
z
" transform="scale(0.015625)"/>
       </defs>
       <use xlink:href="#DejaVuSans-30"/>
       <use xlink:href="#DejaVuSans-2e" transform="translate(63.623047 0)"/>
       <use xlink:href="#DejaVuSans-35" transform="translate(95.410156 0)"/>
      </g>
     </g>
    </g>
    <g id="xtick_2">
     <g id="line2d_3">
      <path d="M 323.207549 512.64 
L 323.207549 69.12 
" clip-path="url(#pd008415ec5)" style="fill: none; stroke: #b0b0b0; stroke-width: 0.8; stroke-linecap: square"/>
     </g>
     <g id="line2d_4">
      <g>
       <use xlink:href="#m85f1ffe9ec" x="323.207549" y="512.64" style="stroke: #000000; stroke-width: 0.8"/>
      </g>
     </g>
     <g id="text_2">
      <!-- 4.0 -->
      <g transform="translate(310.485049 531.7975) scale(0.16 -0.16)">
       <defs>
        <path id="DejaVuSans-34" d="M 2419 4116 
L 825 1625 
L 2419 1625 
L 2419 4116 
z
M 2253 4666 
L 3047 4666 
L 3047 1625 
L 3713 1625 
L 3713 1100 
L 3047 1100 
L 3047 0 
L 2419 0 
L 2419 1100 
L 313 1100 
L 313 1709 
L 2253 4666 
z
" transform="scale(0.015625)"/>
       </defs>
       <use xlink:href="#DejaVuSans-34"/>
       <use xlink:href="#DejaVuSans-2e" transform="translate(63.623047 0)"/>
       <use xlink:href="#DejaVuSans-30" transform="translate(95.410156 0)"/>
      </g>
     </g>
    </g>
    <g id="xtick_3">
     <g id="line2d_5">
      <path d="M 392.488853 512.64 
L 392.488853 69.12 
" clip-path="url(#pd008415ec5)" style="fill: none; stroke: #b0b0b0; stroke-width: 0.8; stroke-linecap: square"/>
     </g>
     <g id="line2d_6">
      <g>
       <use xlink:href="#m85f1ffe9ec" x="392.488853" y="512.64" style="stroke: #000000; stroke-width: 0.8"/>
      </g>
     </g>
     <g id="text_3">
      <!-- 8.0 -->
      <g transform="translate(379.766353 531.7975) scale(0.16 -0.16)">
       <defs>
        <path id="DejaVuSans-38" d="M 2034 2216 
Q 1584 2216 1326 1975 
Q 1069 1734 1069 1313 
Q 1069 891 1326 650 
Q 1584 409 2034 409 
Q 2484 409 2743 651 
Q 3003 894 3003 1313 
Q 3003 1734 2745 1975 
Q 2488 2216 2034 2216 
z
M 1403 2484 
Q 997 2584 770 2862 
Q 544 3141 544 3541 
Q 544 4100 942 4425 
Q 1341 4750 2034 4750 
Q 2731 4750 3128 4425 
Q 3525 4100 3525 3541 
Q 3525 3141 3298 2862 
Q 3072 2584 2669 2484 
Q 3125 2378 3379 2068 
Q 3634 1759 3634 1313 
Q 3634 634 3220 271 
Q 2806 -91 2034 -91 
Q 1263 -91 848 271 
Q 434 634 434 1313 
Q 434 1759 690 2068 
Q 947 2378 1403 2484 
z
M 1172 3481 
Q 1172 3119 1398 2916 
Q 1625 2713 2034 2713 
Q 2441 2713 2670 2916 
Q 2900 3119 2900 3481 
Q 2900 3844 2670 4047 
Q 2441 4250 2034 4250 
Q 1625 4250 1398 4047 
Q 1172 3844 1172 3481 
z
" transform="scale(0.015625)"/>
       </defs>
       <use xlink:href="#DejaVuSans-38"/>
       <use xlink:href="#DejaVuSans-2e" transform="translate(63.623047 0)"/>
       <use xlink:href="#DejaVuSans-30" transform="translate(95.410156 0)"/>
      </g>
     </g>
    </g>
    <g id="xtick_4">
     <g id="line2d_7">
      <path d="M 441.01623 512.64 
L 441.01623 69.12 
" clip-path="url(#pd008415ec5)" style="fill: none; stroke: #b0b0b0; stroke-width: 0.8; stroke-linecap: square"/>
     </g>
     <g id="line2d_8">
      <g>
       <use xlink:href="#m85f1ffe9ec" x="441.01623" y="512.64" style="stroke: #000000; stroke-width: 0.8"/>
      </g>
     </g>
     <g id="text_4">
      <!-- 13.0 -->
      <g transform="translate(423.20373 531.7975) scale(0.16 -0.16)">
       <defs>
        <path id="DejaVuSans-31" d="M 794 531 
L 1825 531 
L 1825 4091 
L 703 3866 
L 703 4441 
L 1819 4666 
L 2450 4666 
L 2450 531 
L 3481 531 
L 3481 0 
L 794 0 
L 794 531 
z
" transform="scale(0.015625)"/>
        <path id="DejaVuSans-33" d="M 2597 2516 
Q 3050 2419 3304 2112 
Q 3559 1806 3559 1356 
Q 3559 666 3084 287 
Q 2609 -91 1734 -91 
Q 1441 -91 1130 -33 
Q 819 25 488 141 
L 488 750 
Q 750 597 1062 519 
Q 1375 441 1716 441 
Q 2309 441 2620 675 
Q 2931 909 2931 1356 
Q 2931 1769 2642 2001 
Q 2353 2234 1838 2234 
L 1294 2234 
L 1294 2753 
L 1863 2753 
Q 2328 2753 2575 2939 
Q 2822 3125 2822 3475 
Q 2822 3834 2567 4026 
Q 2313 4219 1838 4219 
Q 1578 4219 1281 4162 
Q 984 4106 628 3988 
L 628 4550 
Q 988 4650 1302 4700 
Q 1616 4750 1894 4750 
Q 2613 4750 3031 4423 
Q 3450 4097 3450 3541 
Q 3450 3153 3228 2886 
Q 3006 2619 2597 2516 
z
" transform="scale(0.015625)"/>
       </defs>
       <use xlink:href="#DejaVuSans-31"/>
       <use xlink:href="#DejaVuSans-33" transform="translate(63.623047 0)"/>
       <use xlink:href="#DejaVuSans-2e" transform="translate(127.246094 0)"/>
       <use xlink:href="#DejaVuSans-30" transform="translate(159.033203 0)"/>
      </g>
     </g>
    </g>
    <g id="xtick_5">
     <g id="line2d_9">
      <path d="M 524.60072 512.64 
L 524.60072 69.12 
" clip-path="url(#pd008415ec5)" style="fill: none; stroke: #b0b0b0; stroke-width: 0.8; stroke-linecap: square"/>
     </g>
     <g id="line2d_10">
      <g>
       <use xlink:href="#m85f1ffe9ec" x="524.60072" y="512.64" style="stroke: #000000; stroke-width: 0.8"/>
      </g>
     </g>
     <g id="text_5">
      <!-- 30.0 -->
      <g transform="translate(506.78822 531.7975) scale(0.16 -0.16)">
       <use xlink:href="#DejaVuSans-33"/>
       <use xlink:href="#DejaVuSans-30" transform="translate(63.623047 0)"/>
       <use xlink:href="#DejaVuSans-2e" transform="translate(127.246094 0)"/>
       <use xlink:href="#DejaVuSans-30" transform="translate(159.033203 0)"/>
      </g>
     </g>
    </g>
    <g id="xtick_6">
     <g id="line2d_11">
      <path d="M 622.636364 512.64 
L 622.636364 69.12 
" clip-path="url(#pd008415ec5)" style="fill: none; stroke: #b0b0b0; stroke-width: 0.8; stroke-linecap: square"/>
     </g>
     <g id="line2d_12">
      <g>
       <use xlink:href="#m85f1ffe9ec" x="622.636364" y="512.64" style="stroke: #000000; stroke-width: 0.8"/>
      </g>
     </g>
     <g id="text_6">
      <!-- 80.0 -->
      <g transform="translate(604.823864 531.7975) scale(0.16 -0.16)">
       <use xlink:href="#DejaVuSans-38"/>
       <use xlink:href="#DejaVuSans-30" transform="translate(63.623047 0)"/>
       <use xlink:href="#DejaVuSans-2e" transform="translate(127.246094 0)"/>
       <use xlink:href="#DejaVuSans-30" transform="translate(159.033203 0)"/>
      </g>
     </g>
    </g>
    <g id="xtick_7">
     <g id="line2d_13">
      <defs>
       <path id="mcac4622afb" d="M 0 0 
L 0 2 
" style="stroke: #000000; stroke-width: 0.6"/>
      </defs>
      <g>
       <use xlink:href="#mcac4622afb" x="93.060038" y="512.64" style="stroke: #000000; stroke-width: 0.6"/>
      </g>
     </g>
    </g>
    <g id="xtick_8">
     <g id="line2d_14">
      <g>
       <use xlink:href="#mcac4622afb" x="133.587003" y="512.64" style="stroke: #000000; stroke-width: 0.6"/>
      </g>
     </g>
    </g>
    <g id="xtick_9">
     <g id="line2d_15">
      <g>
       <use xlink:href="#mcac4622afb" x="148.99464" y="512.64" style="stroke: #000000; stroke-width: 0.6"/>
      </g>
     </g>
    </g>
    <g id="xtick_10">
     <g id="line2d_16">
      <g>
       <use xlink:href="#mcac4622afb" x="162.341342" y="512.64" style="stroke: #000000; stroke-width: 0.6"/>
      </g>
     </g>
    </g>
    <g id="xtick_11">
     <g id="line2d_17">
      <g>
       <use xlink:href="#mcac4622afb" x="174.113968" y="512.64" style="stroke: #000000; stroke-width: 0.6"/>
      </g>
     </g>
    </g>
    <g id="xtick_12">
     <g id="line2d_18">
      <g>
       <use xlink:href="#mcac4622afb" x="253.926245" y="512.64" style="stroke: #000000; stroke-width: 0.6"/>
      </g>
     </g>
    </g>
    <g id="xtick_13">
     <g id="line2d_19">
      <g>
       <use xlink:href="#mcac4622afb" x="294.45321" y="512.64" style="stroke: #000000; stroke-width: 0.6"/>
      </g>
     </g>
    </g>
    <g id="xtick_14">
     <g id="line2d_20">
      <g>
       <use xlink:href="#mcac4622afb" x="345.511147" y="512.64" style="stroke: #000000; stroke-width: 0.6"/>
      </g>
     </g>
    </g>
    <g id="xtick_15">
     <g id="line2d_21">
      <g>
       <use xlink:href="#mcac4622afb" x="363.734514" y="512.64" style="stroke: #000000; stroke-width: 0.6"/>
      </g>
     </g>
    </g>
    <g id="xtick_16">
     <g id="line2d_22">
      <g>
       <use xlink:href="#mcac4622afb" x="379.142151" y="512.64" style="stroke: #000000; stroke-width: 0.6"/>
      </g>
     </g>
    </g>
    <g id="xtick_17">
     <g id="line2d_23">
      <g>
       <use xlink:href="#mcac4622afb" x="404.261479" y="512.64" style="stroke: #000000; stroke-width: 0.6"/>
      </g>
     </g>
    </g>
    <g id="xtick_18">
     <g id="line2d_24">
      <g>
       <use xlink:href="#mcac4622afb" x="484.073755" y="512.64" style="stroke: #000000; stroke-width: 0.6"/>
      </g>
     </g>
    </g>
    <g id="xtick_19">
     <g id="line2d_25">
      <g>
       <use xlink:href="#mcac4622afb" x="553.355059" y="512.64" style="stroke: #000000; stroke-width: 0.6"/>
      </g>
     </g>
    </g>
    <g id="xtick_20">
     <g id="line2d_26">
      <g>
       <use xlink:href="#mcac4622afb" x="575.658658" y="512.64" style="stroke: #000000; stroke-width: 0.6"/>
      </g>
     </g>
    </g>
    <g id="xtick_21">
     <g id="line2d_27">
      <g>
       <use xlink:href="#mcac4622afb" x="593.882024" y="512.64" style="stroke: #000000; stroke-width: 0.6"/>
      </g>
     </g>
    </g>
    <g id="xtick_22">
     <g id="line2d_28">
      <g>
       <use xlink:href="#mcac4622afb" x="609.289661" y="512.64" style="stroke: #000000; stroke-width: 0.6"/>
      </g>
     </g>
    </g>
    <g id="xtick_23">
     <g id="line2d_29">
      <g>
       <use xlink:href="#mcac4622afb" x="634.408989" y="512.64" style="stroke: #000000; stroke-width: 0.6"/>
      </g>
     </g>
    </g>
    <g id="text_7">
     <!-- Frequency -->
     <g transform="translate(327.6725 551.2825) scale(0.16 -0.16)">
      <defs>
       <path id="DejaVuSans-46" d="M 628 4666 
L 3309 4666 
L 3309 4134 
L 1259 4134 
L 1259 2759 
L 3109 2759 
L 3109 2228 
L 1259 2228 
L 1259 0 
L 628 0 
L 628 4666 
z
" transform="scale(0.015625)"/>
       <path id="DejaVuSans-72" d="M 2631 2963 
Q 2534 3019 2420 3045 
Q 2306 3072 2169 3072 
Q 1681 3072 1420 2755 
Q 1159 2438 1159 1844 
L 1159 0 
L 581 0 
L 581 3500 
L 1159 3500 
L 1159 2956 
Q 1341 3275 1631 3429 
Q 1922 3584 2338 3584 
Q 2397 3584 2469 3576 
Q 2541 3569 2628 3553 
L 2631 2963 
z
" transform="scale(0.015625)"/>
       <path id="DejaVuSans-65" d="M 3597 1894 
L 3597 1613 
L 953 1613 
Q 991 1019 1311 708 
Q 1631 397 2203 397 
Q 2534 397 2845 478 
Q 3156 559 3463 722 
L 3463 178 
Q 3153 47 2828 -22 
Q 2503 -91 2169 -91 
Q 1331 -91 842 396 
Q 353 884 353 1716 
Q 353 2575 817 3079 
Q 1281 3584 2069 3584 
Q 2775 3584 3186 3129 
Q 3597 2675 3597 1894 
z
M 3022 2063 
Q 3016 2534 2758 2815 
Q 2500 3097 2075 3097 
Q 1594 3097 1305 2825 
Q 1016 2553 972 2059 
L 3022 2063 
z
" transform="scale(0.015625)"/>
       <path id="DejaVuSans-71" d="M 947 1747 
Q 947 1113 1208 752 
Q 1469 391 1925 391 
Q 2381 391 2643 752 
Q 2906 1113 2906 1747 
Q 2906 2381 2643 2742 
Q 2381 3103 1925 3103 
Q 1469 3103 1208 2742 
Q 947 2381 947 1747 
z
M 2906 525 
Q 2725 213 2448 61 
Q 2172 -91 1784 -91 
Q 1150 -91 751 415 
Q 353 922 353 1747 
Q 353 2572 751 3078 
Q 1150 3584 1784 3584 
Q 2172 3584 2448 3432 
Q 2725 3281 2906 2969 
L 2906 3500 
L 3481 3500 
L 3481 -1331 
L 2906 -1331 
L 2906 525 
z
" transform="scale(0.015625)"/>
       <path id="DejaVuSans-75" d="M 544 1381 
L 544 3500 
L 1119 3500 
L 1119 1403 
Q 1119 906 1312 657 
Q 1506 409 1894 409 
Q 2359 409 2629 706 
Q 2900 1003 2900 1516 
L 2900 3500 
L 3475 3500 
L 3475 0 
L 2900 0 
L 2900 538 
Q 2691 219 2414 64 
Q 2138 -91 1772 -91 
Q 1169 -91 856 284 
Q 544 659 544 1381 
z
M 1991 3584 
L 1991 3584 
z
" transform="scale(0.015625)"/>
       <path id="DejaVuSans-6e" d="M 3513 2113 
L 3513 0 
L 2938 0 
L 2938 2094 
Q 2938 2591 2744 2837 
Q 2550 3084 2163 3084 
Q 1697 3084 1428 2787 
Q 1159 2491 1159 1978 
L 1159 0 
L 581 0 
L 581 3500 
L 1159 3500 
L 1159 2956 
Q 1366 3272 1645 3428 
Q 1925 3584 2291 3584 
Q 2894 3584 3203 3211 
Q 3513 2838 3513 2113 
z
" transform="scale(0.015625)"/>
       <path id="DejaVuSans-63" d="M 3122 3366 
L 3122 2828 
Q 2878 2963 2633 3030 
Q 2388 3097 2138 3097 
Q 1578 3097 1268 2742 
Q 959 2388 959 1747 
Q 959 1106 1268 751 
Q 1578 397 2138 397 
Q 2388 397 2633 464 
Q 2878 531 3122 666 
L 3122 134 
Q 2881 22 2623 -34 
Q 2366 -91 2075 -91 
Q 1284 -91 818 406 
Q 353 903 353 1747 
Q 353 2603 823 3093 
Q 1294 3584 2113 3584 
Q 2378 3584 2631 3529 
Q 2884 3475 3122 3366 
z
" transform="scale(0.015625)"/>
       <path id="DejaVuSans-79" d="M 2059 -325 
Q 1816 -950 1584 -1140 
Q 1353 -1331 966 -1331 
L 506 -1331 
L 506 -850 
L 844 -850 
Q 1081 -850 1212 -737 
Q 1344 -625 1503 -206 
L 1606 56 
L 191 3500 
L 800 3500 
L 1894 763 
L 2988 3500 
L 3597 3500 
L 2059 -325 
z
" transform="scale(0.015625)"/>
      </defs>
      <use xlink:href="#DejaVuSans-46"/>
      <use xlink:href="#DejaVuSans-72" transform="translate(50.269531 0)"/>
      <use xlink:href="#DejaVuSans-65" transform="translate(89.132812 0)"/>
      <use xlink:href="#DejaVuSans-71" transform="translate(150.65625 0)"/>
      <use xlink:href="#DejaVuSans-75" transform="translate(214.132812 0)"/>
      <use xlink:href="#DejaVuSans-65" transform="translate(277.511719 0)"/>
      <use xlink:href="#DejaVuSans-6e" transform="translate(339.035156 0)"/>
      <use xlink:href="#DejaVuSans-63" transform="translate(402.414062 0)"/>
      <use xlink:href="#DejaVuSans-79" transform="translate(457.394531 0)"/>
     </g>
    </g>
   </g>
   <g id="matplotlib.axis_2">
    <g id="ytick_1">
     <g id="line2d_30">
      <path d="M 90 492.502677 
L 648 492.502677 
" clip-path="url(#pd008415ec5)" style="fill: none; stroke: #b0b0b0; stroke-width: 0.8; stroke-linecap: square"/>
     </g>
     <g id="line2d_31">
      <defs>
       <path id="mafc22ffc7a" d="M 0 0 
L -3.5 0 
" style="stroke: #000000; stroke-width: 0.8"/>
      </defs>
      <g>
       <use xlink:href="#mafc22ffc7a" x="90" y="492.502677" style="stroke: #000000; stroke-width: 0.8"/>
      </g>
     </g>
     <g id="text_8">
      <!-- 0.00 -->
      <g transform="translate(47.375 498.581427) scale(0.16 -0.16)">
       <use xlink:href="#DejaVuSans-30"/>
       <use xlink:href="#DejaVuSans-2e" transform="translate(63.623047 0)"/>
       <use xlink:href="#DejaVuSans-30" transform="translate(95.410156 0)"/>
       <use xlink:href="#DejaVuSans-30" transform="translate(159.033203 0)"/>
      </g>
     </g>
    </g>
    <g id="ytick_2">
     <g id="line2d_32">
      <path d="M 90 433.093802 
L 648 433.093802 
" clip-path="url(#pd008415ec5)" style="fill: none; stroke: #b0b0b0; stroke-width: 0.8; stroke-linecap: square"/>
     </g>
     <g id="line2d_33">
      <g>
       <use xlink:href="#mafc22ffc7a" x="90" y="433.093802" style="stroke: #000000; stroke-width: 0.8"/>
      </g>
     </g>
     <g id="text_9">
      <!-- 0.05 -->
      <g transform="translate(47.375 439.172552) scale(0.16 -0.16)">
       <use xlink:href="#DejaVuSans-30"/>
       <use xlink:href="#DejaVuSans-2e" transform="translate(63.623047 0)"/>
       <use xlink:href="#DejaVuSans-30" transform="translate(95.410156 0)"/>
       <use xlink:href="#DejaVuSans-35" transform="translate(159.033203 0)"/>
      </g>
     </g>
    </g>
    <g id="ytick_3">
     <g id="line2d_34">
      <path d="M 90 373.684926 
L 648 373.684926 
" clip-path="url(#pd008415ec5)" style="fill: none; stroke: #b0b0b0; stroke-width: 0.8; stroke-linecap: square"/>
     </g>
     <g id="line2d_35">
      <g>
       <use xlink:href="#mafc22ffc7a" x="90" y="373.684926" style="stroke: #000000; stroke-width: 0.8"/>
      </g>
     </g>
     <g id="text_10">
      <!-- 0.10 -->
      <g transform="translate(47.375 379.763676) scale(0.16 -0.16)">
       <use xlink:href="#DejaVuSans-30"/>
       <use xlink:href="#DejaVuSans-2e" transform="translate(63.623047 0)"/>
       <use xlink:href="#DejaVuSans-31" transform="translate(95.410156 0)"/>
       <use xlink:href="#DejaVuSans-30" transform="translate(159.033203 0)"/>
      </g>
     </g>
    </g>
    <g id="ytick_4">
     <g id="line2d_36">
      <path d="M 90 314.276051 
L 648 314.276051 
" clip-path="url(#pd008415ec5)" style="fill: none; stroke: #b0b0b0; stroke-width: 0.8; stroke-linecap: square"/>
     </g>
     <g id="line2d_37">
      <g>
       <use xlink:href="#mafc22ffc7a" x="90" y="314.276051" style="stroke: #000000; stroke-width: 0.8"/>
      </g>
     </g>
     <g id="text_11">
      <!-- 0.15 -->
      <g transform="translate(47.375 320.354801) scale(0.16 -0.16)">
       <use xlink:href="#DejaVuSans-30"/>
       <use xlink:href="#DejaVuSans-2e" transform="translate(63.623047 0)"/>
       <use xlink:href="#DejaVuSans-31" transform="translate(95.410156 0)"/>
       <use xlink:href="#DejaVuSans-35" transform="translate(159.033203 0)"/>
      </g>
     </g>
    </g>
    <g id="ytick_5">
     <g id="line2d_38">
      <path d="M 90 254.867176 
L 648 254.867176 
" clip-path="url(#pd008415ec5)" style="fill: none; stroke: #b0b0b0; stroke-width: 0.8; stroke-linecap: square"/>
     </g>
     <g id="line2d_39">
      <g>
       <use xlink:href="#mafc22ffc7a" x="90" y="254.867176" style="stroke: #000000; stroke-width: 0.8"/>
      </g>
     </g>
     <g id="text_12">
      <!-- 0.20 -->
      <g transform="translate(47.375 260.945926) scale(0.16 -0.16)">
       <defs>
        <path id="DejaVuSans-32" d="M 1228 531 
L 3431 531 
L 3431 0 
L 469 0 
L 469 531 
Q 828 903 1448 1529 
Q 2069 2156 2228 2338 
Q 2531 2678 2651 2914 
Q 2772 3150 2772 3378 
Q 2772 3750 2511 3984 
Q 2250 4219 1831 4219 
Q 1534 4219 1204 4116 
Q 875 4013 500 3803 
L 500 4441 
Q 881 4594 1212 4672 
Q 1544 4750 1819 4750 
Q 2544 4750 2975 4387 
Q 3406 4025 3406 3419 
Q 3406 3131 3298 2873 
Q 3191 2616 2906 2266 
Q 2828 2175 2409 1742 
Q 1991 1309 1228 531 
z
" transform="scale(0.015625)"/>
       </defs>
       <use xlink:href="#DejaVuSans-30"/>
       <use xlink:href="#DejaVuSans-2e" transform="translate(63.623047 0)"/>
       <use xlink:href="#DejaVuSans-32" transform="translate(95.410156 0)"/>
       <use xlink:href="#DejaVuSans-30" transform="translate(159.033203 0)"/>
      </g>
     </g>
    </g>
    <g id="ytick_6">
     <g id="line2d_40">
      <path d="M 90 195.4583 
L 648 195.4583 
" clip-path="url(#pd008415ec5)" style="fill: none; stroke: #b0b0b0; stroke-width: 0.8; stroke-linecap: square"/>
     </g>
     <g id="line2d_41">
      <g>
       <use xlink:href="#mafc22ffc7a" x="90" y="195.4583" style="stroke: #000000; stroke-width: 0.8"/>
      </g>
     </g>
     <g id="text_13">
      <!-- 0.25 -->
      <g transform="translate(47.375 201.53705) scale(0.16 -0.16)">
       <use xlink:href="#DejaVuSans-30"/>
       <use xlink:href="#DejaVuSans-2e" transform="translate(63.623047 0)"/>
       <use xlink:href="#DejaVuSans-32" transform="translate(95.410156 0)"/>
       <use xlink:href="#DejaVuSans-35" transform="translate(159.033203 0)"/>
      </g>
     </g>
    </g>
    <g id="ytick_7">
     <g id="line2d_42">
      <path d="M 90 136.049425 
L 648 136.049425 
" clip-path="url(#pd008415ec5)" style="fill: none; stroke: #b0b0b0; stroke-width: 0.8; stroke-linecap: square"/>
     </g>
     <g id="line2d_43">
      <g>
       <use xlink:href="#mafc22ffc7a" x="90" y="136.049425" style="stroke: #000000; stroke-width: 0.8"/>
      </g>
     </g>
     <g id="text_14">
      <!-- 0.30 -->
      <g transform="translate(47.375 142.128175) scale(0.16 -0.16)">
       <use xlink:href="#DejaVuSans-30"/>
       <use xlink:href="#DejaVuSans-2e" transform="translate(63.623047 0)"/>
       <use xlink:href="#DejaVuSans-33" transform="translate(95.410156 0)"/>
       <use xlink:href="#DejaVuSans-30" transform="translate(159.033203 0)"/>
      </g>
     </g>
    </g>
    <g id="ytick_8">
     <g id="line2d_44">
      <path d="M 90 76.640549 
L 648 76.640549 
" clip-path="url(#pd008415ec5)" style="fill: none; stroke: #b0b0b0; stroke-width: 0.8; stroke-linecap: square"/>
     </g>
     <g id="line2d_45">
      <g>
       <use xlink:href="#mafc22ffc7a" x="90" y="76.640549" style="stroke: #000000; stroke-width: 0.8"/>
      </g>
     </g>
     <g id="text_15">
      <!-- 0.35 -->
      <g transform="translate(47.375 82.719299) scale(0.16 -0.16)">
       <use xlink:href="#DejaVuSans-30"/>
       <use xlink:href="#DejaVuSans-2e" transform="translate(63.623047 0)"/>
       <use xlink:href="#DejaVuSans-33" transform="translate(95.410156 0)"/>
       <use xlink:href="#DejaVuSans-35" transform="translate(159.033203 0)"/>
      </g>
     </g>
    </g>
    <g id="text_16">
     <!-- Normalized spectral density -->
     <g transform="translate(40.0475 402.78375) rotate(-90) scale(0.16 -0.16)">
      <defs>
       <path id="DejaVuSans-4e" d="M 628 4666 
L 1478 4666 
L 3547 763 
L 3547 4666 
L 4159 4666 
L 4159 0 
L 3309 0 
L 1241 3903 
L 1241 0 
L 628 0 
L 628 4666 
z
" transform="scale(0.015625)"/>
       <path id="DejaVuSans-6f" d="M 1959 3097 
Q 1497 3097 1228 2736 
Q 959 2375 959 1747 
Q 959 1119 1226 758 
Q 1494 397 1959 397 
Q 2419 397 2687 759 
Q 2956 1122 2956 1747 
Q 2956 2369 2687 2733 
Q 2419 3097 1959 3097 
z
M 1959 3584 
Q 2709 3584 3137 3096 
Q 3566 2609 3566 1747 
Q 3566 888 3137 398 
Q 2709 -91 1959 -91 
Q 1206 -91 779 398 
Q 353 888 353 1747 
Q 353 2609 779 3096 
Q 1206 3584 1959 3584 
z
" transform="scale(0.015625)"/>
       <path id="DejaVuSans-6d" d="M 3328 2828 
Q 3544 3216 3844 3400 
Q 4144 3584 4550 3584 
Q 5097 3584 5394 3201 
Q 5691 2819 5691 2113 
L 5691 0 
L 5113 0 
L 5113 2094 
Q 5113 2597 4934 2840 
Q 4756 3084 4391 3084 
Q 3944 3084 3684 2787 
Q 3425 2491 3425 1978 
L 3425 0 
L 2847 0 
L 2847 2094 
Q 2847 2600 2669 2842 
Q 2491 3084 2119 3084 
Q 1678 3084 1418 2786 
Q 1159 2488 1159 1978 
L 1159 0 
L 581 0 
L 581 3500 
L 1159 3500 
L 1159 2956 
Q 1356 3278 1631 3431 
Q 1906 3584 2284 3584 
Q 2666 3584 2933 3390 
Q 3200 3197 3328 2828 
z
" transform="scale(0.015625)"/>
       <path id="DejaVuSans-61" d="M 2194 1759 
Q 1497 1759 1228 1600 
Q 959 1441 959 1056 
Q 959 750 1161 570 
Q 1363 391 1709 391 
Q 2188 391 2477 730 
Q 2766 1069 2766 1631 
L 2766 1759 
L 2194 1759 
z
M 3341 1997 
L 3341 0 
L 2766 0 
L 2766 531 
Q 2569 213 2275 61 
Q 1981 -91 1556 -91 
Q 1019 -91 701 211 
Q 384 513 384 1019 
Q 384 1609 779 1909 
Q 1175 2209 1959 2209 
L 2766 2209 
L 2766 2266 
Q 2766 2663 2505 2880 
Q 2244 3097 1772 3097 
Q 1472 3097 1187 3025 
Q 903 2953 641 2809 
L 641 3341 
Q 956 3463 1253 3523 
Q 1550 3584 1831 3584 
Q 2591 3584 2966 3190 
Q 3341 2797 3341 1997 
z
" transform="scale(0.015625)"/>
       <path id="DejaVuSans-6c" d="M 603 4863 
L 1178 4863 
L 1178 0 
L 603 0 
L 603 4863 
z
" transform="scale(0.015625)"/>
       <path id="DejaVuSans-69" d="M 603 3500 
L 1178 3500 
L 1178 0 
L 603 0 
L 603 3500 
z
M 603 4863 
L 1178 4863 
L 1178 4134 
L 603 4134 
L 603 4863 
z
" transform="scale(0.015625)"/>
       <path id="DejaVuSans-7a" d="M 353 3500 
L 3084 3500 
L 3084 2975 
L 922 459 
L 3084 459 
L 3084 0 
L 275 0 
L 275 525 
L 2438 3041 
L 353 3041 
L 353 3500 
z
" transform="scale(0.015625)"/>
       <path id="DejaVuSans-64" d="M 2906 2969 
L 2906 4863 
L 3481 4863 
L 3481 0 
L 2906 0 
L 2906 525 
Q 2725 213 2448 61 
Q 2172 -91 1784 -91 
Q 1150 -91 751 415 
Q 353 922 353 1747 
Q 353 2572 751 3078 
Q 1150 3584 1784 3584 
Q 2172 3584 2448 3432 
Q 2725 3281 2906 2969 
z
M 947 1747 
Q 947 1113 1208 752 
Q 1469 391 1925 391 
Q 2381 391 2643 752 
Q 2906 1113 2906 1747 
Q 2906 2381 2643 2742 
Q 2381 3103 1925 3103 
Q 1469 3103 1208 2742 
Q 947 2381 947 1747 
z
" transform="scale(0.015625)"/>
       <path id="DejaVuSans-20" transform="scale(0.015625)"/>
       <path id="DejaVuSans-73" d="M 2834 3397 
L 2834 2853 
Q 2591 2978 2328 3040 
Q 2066 3103 1784 3103 
Q 1356 3103 1142 2972 
Q 928 2841 928 2578 
Q 928 2378 1081 2264 
Q 1234 2150 1697 2047 
L 1894 2003 
Q 2506 1872 2764 1633 
Q 3022 1394 3022 966 
Q 3022 478 2636 193 
Q 2250 -91 1575 -91 
Q 1294 -91 989 -36 
Q 684 19 347 128 
L 347 722 
Q 666 556 975 473 
Q 1284 391 1588 391 
Q 1994 391 2212 530 
Q 2431 669 2431 922 
Q 2431 1156 2273 1281 
Q 2116 1406 1581 1522 
L 1381 1569 
Q 847 1681 609 1914 
Q 372 2147 372 2553 
Q 372 3047 722 3315 
Q 1072 3584 1716 3584 
Q 2034 3584 2315 3537 
Q 2597 3491 2834 3397 
z
" transform="scale(0.015625)"/>
       <path id="DejaVuSans-70" d="M 1159 525 
L 1159 -1331 
L 581 -1331 
L 581 3500 
L 1159 3500 
L 1159 2969 
Q 1341 3281 1617 3432 
Q 1894 3584 2278 3584 
Q 2916 3584 3314 3078 
Q 3713 2572 3713 1747 
Q 3713 922 3314 415 
Q 2916 -91 2278 -91 
Q 1894 -91 1617 61 
Q 1341 213 1159 525 
z
M 3116 1747 
Q 3116 2381 2855 2742 
Q 2594 3103 2138 3103 
Q 1681 3103 1420 2742 
Q 1159 2381 1159 1747 
Q 1159 1113 1420 752 
Q 1681 391 2138 391 
Q 2594 391 2855 752 
Q 3116 1113 3116 1747 
z
" transform="scale(0.015625)"/>
       <path id="DejaVuSans-74" d="M 1172 4494 
L 1172 3500 
L 2356 3500 
L 2356 3053 
L 1172 3053 
L 1172 1153 
Q 1172 725 1289 603 
Q 1406 481 1766 481 
L 2356 481 
L 2356 0 
L 1766 0 
Q 1100 0 847 248 
Q 594 497 594 1153 
L 594 3053 
L 172 3053 
L 172 3500 
L 594 3500 
L 594 4494 
L 1172 4494 
z
" transform="scale(0.015625)"/>
      </defs>
      <use xlink:href="#DejaVuSans-4e"/>
      <use xlink:href="#DejaVuSans-6f" transform="translate(74.804688 0)"/>
      <use xlink:href="#DejaVuSans-72" transform="translate(135.986328 0)"/>
      <use xlink:href="#DejaVuSans-6d" transform="translate(175.349609 0)"/>
      <use xlink:href="#DejaVuSans-61" transform="translate(272.761719 0)"/>
      <use xlink:href="#DejaVuSans-6c" transform="translate(334.041016 0)"/>
      <use xlink:href="#DejaVuSans-69" transform="translate(361.824219 0)"/>
      <use xlink:href="#DejaVuSans-7a" transform="translate(389.607422 0)"/>
      <use xlink:href="#DejaVuSans-65" transform="translate(442.097656 0)"/>
      <use xlink:href="#DejaVuSans-64" transform="translate(503.621094 0)"/>
      <use xlink:href="#DejaVuSans-20" transform="translate(567.097656 0)"/>
      <use xlink:href="#DejaVuSans-73" transform="translate(598.884766 0)"/>
      <use xlink:href="#DejaVuSans-70" transform="translate(650.984375 0)"/>
      <use xlink:href="#DejaVuSans-65" transform="translate(714.460938 0)"/>
      <use xlink:href="#DejaVuSans-63" transform="translate(775.984375 0)"/>
      <use xlink:href="#DejaVuSans-74" transform="translate(830.964844 0)"/>
      <use xlink:href="#DejaVuSans-72" transform="translate(870.173828 0)"/>
      <use xlink:href="#DejaVuSans-61" transform="translate(911.287109 0)"/>
      <use xlink:href="#DejaVuSans-6c" transform="translate(972.566406 0)"/>
      <use xlink:href="#DejaVuSans-20" transform="translate(1000.349609 0)"/>
      <use xlink:href="#DejaVuSans-64" transform="translate(1032.136719 0)"/>
      <use xlink:href="#DejaVuSans-65" transform="translate(1095.613281 0)"/>
      <use xlink:href="#DejaVuSans-6e" transform="translate(1157.136719 0)"/>
      <use xlink:href="#DejaVuSans-73" transform="translate(1220.515625 0)"/>
      <use xlink:href="#DejaVuSans-69" transform="translate(1272.615234 0)"/>
      <use xlink:href="#DejaVuSans-74" transform="translate(1300.398438 0)"/>
      <use xlink:href="#DejaVuSans-79" transform="translate(1339.607422 0)"/>
     </g>
    </g>
   </g>
   <g id="line2d_46">
    <path d="M 115.363636 283.783602 
L 184.644941 319.634029 
L 225.171905 393.826029 
L 253.926245 431.914665 
L 276.229843 449.9149 
L 294.45321 459.777962 
L 309.860847 463.888925 
L 323.207549 466.856169 
L 334.980175 467.860099 
L 345.511147 470.317409 
L 363.734514 473.190283 
L 371.734926 474.613203 
L 386.038112 478.551281 
L 392.488853 479.902029 
L 398.548393 480.345789 
L 404.261479 481.182041 
L 409.665594 481.33319 
L 414.792451 482.149097 
L 424.318875 483.220996 
L 433.015818 483.611895 
L 437.096049 483.487229 
L 441.01623 483.906865 
L 444.788444 484.155799 
L 448.423455 484.281876 
L 451.930895 484.89382 
L 455.319416 485.242332 
L 458.596818 485.386317 
L 461.770157 485.843767 
L 464.84584 486.062381 
L 473.542783 487.134386 
L 476.281359 487.226227 
L 478.946899 487.455018 
L 481.543195 487.45736 
L 484.073755 488.013666 
L 488.95042 488.354719 
L 491.302335 488.466915 
L 502.297122 489.445371 
L 504.358057 489.473855 
L 512.201435 490.12829 
L 517.704759 490.357388 
L 522.920819 490.763895 
L 531.051461 490.989088 
L 535.630207 491.240675 
L 546.904319 491.583136 
L 550.824499 491.685556 
L 577.637966 492.239558 
L 606.392305 492.354778 
L 622.636364 492.413878 
L 622.636364 492.413878 
" clip-path="url(#pd008415ec5)" style="fill: none; stroke: #1f77b4; stroke-opacity: 0.5; stroke-width: 1.5; stroke-linecap: square"/>
   </g>
   <g id="line2d_47">
    <path d="M 115.363636 450.724078 
L 184.644941 445.003276 
L 225.171905 455.090886 
L 253.926245 464.944299 
L 294.45321 471.52289 
L 309.860847 472.524174 
L 323.207549 473.518921 
L 334.980175 473.878208 
L 345.511147 474.407841 
L 355.037571 474.211956 
L 363.734514 472.549397 
L 371.734926 469.550057 
L 379.142151 465.153103 
L 386.038112 454.852401 
L 392.488853 440.720538 
L 398.548393 420.336016 
L 404.261479 406.333251 
L 409.665594 422.778178 
L 414.792451 434.803619 
L 419.669116 453.479356 
L 424.318875 466.774536 
L 428.761908 474.489514 
L 433.015818 477.496254 
L 437.096049 479.576716 
L 441.01623 481.136426 
L 448.423455 482.353411 
L 451.930895 482.682833 
L 455.319416 483.194833 
L 458.596818 483.329495 
L 461.770157 483.726047 
L 467.829697 483.577671 
L 470.727053 483.857234 
L 473.542783 484.600921 
L 476.281359 485.689848 
L 478.946899 486.294242 
L 481.543195 486.745978 
L 484.073755 487.596931 
L 488.95042 489.038316 
L 491.302335 489.202814 
L 495.846381 489.7166 
L 498.043212 490.126383 
L 500.192796 490.133422 
L 502.297122 490.335258 
L 504.358057 490.400562 
L 508.356662 490.742559 
L 521.212199 491.384587 
L 524.60072 491.551944 
L 535.630207 491.876923 
L 545.562664 492.085459 
L 597.159426 492.448928 
L 622.636364 492.473972 
L 622.636364 492.473972 
" clip-path="url(#pd008415ec5)" style="fill: none; stroke-dasharray: 5,8.25; stroke-dashoffset: 0; stroke: #ff7f0e; stroke-width: 5"/>
   </g>
   <g id="line2d_48">
    <path d="M 115.363636 436.063843 
L 184.644941 433.490377 
L 225.171905 444.679651 
L 253.926245 449.303108 
L 276.229843 451.907655 
L 294.45321 448.96836 
L 323.207549 438.739884 
L 334.980175 434.264726 
L 345.511147 436.851791 
L 355.037571 435.302852 
L 363.734514 442.028154 
L 371.734926 451.525531 
L 379.142151 457.350838 
L 386.038112 464.42241 
L 398.548393 474.455041 
L 404.261479 475.133898 
L 409.665594 477.228766 
L 414.792451 478.301406 
L 419.669116 480.342983 
L 424.318875 480.810679 
L 428.761908 481.590696 
L 433.015818 482.003127 
L 437.096049 482.606999 
L 441.01623 482.135237 
L 444.788444 482.748436 
L 451.930895 483.699872 
L 455.319416 484.227558 
L 458.596818 484.578681 
L 467.829697 486.449265 
L 470.727053 487.253893 
L 473.542783 487.079942 
L 481.543195 487.952034 
L 488.95042 488.630399 
L 491.302335 488.695444 
L 493.600179 488.934339 
L 498.043212 489.650984 
L 502.297122 490.0174 
L 504.358057 489.983491 
L 508.356662 490.125745 
L 512.201435 490.373065 
L 514.069748 490.578568 
L 517.704759 490.71129 
L 526.252854 491.237503 
L 527.878122 491.390282 
L 534.127144 491.491125 
L 540.008357 491.716258 
L 565.127685 492.179292 
L 598.758689 492.405546 
L 616.849757 492.43337 
L 622.636364 492.44346 
L 622.636364 492.44346 
" clip-path="url(#pd008415ec5)" style="fill: none; stroke: #2ca02c; stroke-opacity: 0.5; stroke-width: 1.5; stroke-linecap: square"/>
   </g>
   <g id="line2d_49">
    <path d="M 115.363636 365.434418 
L 184.644941 347.440649 
L 225.171905 366.089077 
L 253.926245 391.505474 
L 276.229843 414.906202 
L 294.45321 436.376369 
L 309.860847 447.397529 
L 323.207549 455.152531 
L 334.980175 461.5317 
L 345.511147 465.926239 
L 363.734514 470.596054 
L 371.734926 472.664131 
L 379.142151 473.654481 
L 386.038112 475.306379 
L 392.488853 476.255339 
L 398.548393 476.533996 
L 404.261479 478.54388 
L 409.665594 480.057399 
L 414.792451 481.057771 
L 424.318875 482.375868 
L 428.761908 483.582532 
L 433.015818 484.385064 
L 437.096049 484.980777 
L 441.01623 485.385466 
L 444.788444 485.526566 
L 448.423455 485.841981 
L 458.596818 487.383447 
L 464.84584 487.774147 
L 467.829697 488.127857 
L 470.727053 488.59104 
L 484.073755 489.590029 
L 488.95042 489.932773 
L 491.302335 490.265366 
L 500.192796 490.686139 
L 519.473863 491.464516 
L 534.127144 491.881497 
L 545.562664 492.045381 
L 552.097788 492.116432 
L 594.711505 492.434762 
L 608.573158 492.428248 
L 622.636364 492.454666 
L 622.636364 492.454666 
" clip-path="url(#pd008415ec5)" style="fill: none; stroke: #d62728; stroke-opacity: 0.5; stroke-width: 1.5; stroke-linecap: square"/>
   </g>
   <g id="line2d_50">
    <path d="M 115.363636 450.817008 
L 184.644941 438.628894 
L 225.171905 447.156154 
L 253.926245 453.707962 
L 276.229843 458.392853 
L 294.45321 461.828126 
L 309.860847 460.790463 
L 323.207549 460.276917 
L 334.980175 458.405314 
L 345.511147 456.455559 
L 355.037571 449.039449 
L 363.734514 436.276163 
L 371.734926 416.50005 
L 379.142151 401.638834 
L 386.038112 411.839331 
L 392.488853 433.730218 
L 398.548393 457.195325 
L 404.261479 469.638783 
L 409.665594 476.183786 
L 419.669116 481.663441 
L 424.318875 482.535171 
L 428.761908 483.226994 
L 433.015818 483.363125 
L 437.096049 483.138439 
L 441.01623 483.599067 
L 444.788444 483.743439 
L 448.423455 484.521554 
L 451.930895 485.077417 
L 455.319416 485.164254 
L 458.596818 485.792548 
L 461.770157 486.63937 
L 470.727053 488.663301 
L 473.542783 489.012543 
L 478.946899 489.404098 
L 481.543195 489.808621 
L 484.073755 490.084935 
L 488.95042 490.342388 
L 491.302335 490.547661 
L 493.600179 490.616183 
L 500.192796 491.041581 
L 527.878122 491.997668 
L 573.639361 492.431767 
L 622.636364 492.48 
L 622.636364 492.48 
" clip-path="url(#pd008415ec5)" style="fill: none; stroke: #9467bd; stroke-opacity: 0.5; stroke-width: 1.5; stroke-linecap: square"/>
   </g>
   <g id="line2d_51">
    <path d="M 115.363636 446.731754 
L 184.644941 448.076868 
L 225.171905 458.669525 
L 253.926245 464.887503 
L 276.229843 468.496463 
L 294.45321 472.028324 
L 309.860847 472.548701 
L 323.207549 472.548066 
L 334.980175 471.772992 
L 345.511147 471.346605 
L 355.037571 472.276442 
L 363.734514 471.21168 
L 371.734926 472.694644 
L 379.142151 473.487234 
L 386.038112 474.387351 
L 392.488853 474.32832 
L 398.548393 475.472755 
L 404.261479 475.665787 
L 409.665594 476.040109 
L 414.792451 475.765592 
L 424.318875 476.021696 
L 428.761908 475.280112 
L 433.015818 474.324539 
L 437.096049 473.820039 
L 441.01623 472.331592 
L 444.788444 470.268872 
L 451.930895 470.608467 
L 455.319416 471.029812 
L 458.596818 471.709626 
L 461.770157 472.564024 
L 464.84584 472.934395 
L 467.829697 472.359798 
L 470.727053 474.392422 
L 473.542783 476.049755 
L 478.946899 477.752679 
L 481.543195 478.470609 
L 484.073755 478.913154 
L 488.95042 480.811391 
L 491.302335 481.635556 
L 493.600179 482.725214 
L 498.043212 484.294347 
L 500.192796 484.739731 
L 504.358057 486.598222 
L 506.377354 487.046182 
L 510.297534 487.497571 
L 512.201435 488.166653 
L 514.069748 488.321969 
L 515.903777 488.839212 
L 519.473863 489.241 
L 521.212199 489.631438 
L 522.920819 489.758452 
L 524.60072 490.019318 
L 531.051461 490.467662 
L 532.601132 490.652714 
L 537.111001 490.881881 
L 540.008357 491.04307 
L 545.562664 491.321285 
L 546.904319 491.285317 
L 557.034682 491.766219 
L 578.613113 492.293297 
L 599.548826 492.382166 
L 622.636364 492.446796 
L 622.636364 492.446796 
" clip-path="url(#pd008415ec5)" style="fill: none; stroke: #8c564b; stroke-opacity: 0.5; stroke-width: 1.5; stroke-linecap: square"/>
   </g>
   <g id="line2d_52">
    <path d="M 115.363636 89.28 
L 184.644941 268.059099 
L 225.171905 410.606987 
L 253.926245 451.168709 
L 276.229843 462.303837 
L 294.45321 468.289221 
L 309.860847 473.02142 
L 323.207549 476.829409 
L 334.980175 477.644717 
L 345.511147 478.920022 
L 355.037571 481.505036 
L 363.734514 481.545877 
L 371.734926 482.531971 
L 379.142151 482.848095 
L 386.038112 484.567832 
L 392.488853 484.623572 
L 398.548393 485.500057 
L 409.665594 486.500465 
L 414.792451 487.250012 
L 424.318875 487.306672 
L 428.761908 487.60177 
L 441.01623 487.627915 
L 444.788444 488.307974 
L 448.423455 488.16681 
L 458.596818 488.797094 
L 464.84584 488.751479 
L 467.829697 488.934628 
L 473.542783 489.541716 
L 476.281359 489.533678 
L 484.073755 490.319229 
L 486.541826 490.318354 
L 491.302335 490.569887 
L 493.600179 490.86542 
L 495.846381 490.737018 
L 498.043212 490.757489 
L 504.358057 491.108583 
L 506.377354 491.010234 
L 508.356662 491.164621 
L 512.201435 491.154115 
L 517.704759 491.340973 
L 521.212199 491.36608 
L 526.252854 491.462899 
L 529.477385 491.63027 
L 534.127144 491.694897 
L 537.111001 491.783506 
L 538.570177 491.841581 
L 541.426137 491.755253 
L 545.562664 491.868903 
L 552.097788 492.026361 
L 555.82313 492.076491 
L 559.414599 492.102442 
L 564.010894 492.170468 
L 607.851481 492.421421 
L 613.484058 492.425841 
L 622.636364 492.441761 
L 622.636364 492.441761 
" clip-path="url(#pd008415ec5)" style="fill: none; stroke: #e377c2; stroke-opacity: 0.5; stroke-width: 1.5; stroke-linecap: square"/>
   </g>
   <g id="line2d_53">
    <path d="M 115.363636 387.830915 
L 184.644941 394.01382 
L 225.171905 422.839336 
L 253.926245 440.623506 
L 276.229843 450.109914 
L 294.45321 455.565255 
L 309.860847 458.285998 
L 323.207549 459.842113 
L 334.980175 462.111285 
L 355.037571 464.930628 
L 363.734514 465.585689 
L 371.734926 467.194718 
L 379.142151 468.521298 
L 386.038112 469.511106 
L 398.548393 472.552257 
L 404.261479 473.477457 
L 409.665594 475.3585 
L 414.792451 476.24387 
L 419.669116 477.459316 
L 424.318875 478.288994 
L 428.761908 478.925497 
L 441.01623 479.771943 
L 461.770157 482.804529 
L 464.84584 482.96851 
L 467.829697 483.483014 
L 470.727053 484.136464 
L 473.542783 484.405624 
L 476.281359 484.992722 
L 478.946899 485.200739 
L 484.073755 485.911653 
L 491.302335 487.122365 
L 493.600179 487.101617 
L 498.043212 487.898034 
L 506.377354 488.810016 
L 508.356662 489.1335 
L 510.297534 489.147867 
L 514.069748 489.517047 
L 517.704759 489.758263 
L 524.60072 490.359809 
L 542.824087 491.213576 
L 554.596713 491.58719 
L 559.414599 491.746312 
L 567.324516 491.999388 
L 578.613113 492.183783 
L 586.089628 492.21888 
L 593.045603 492.314908 
L 622.636364 492.402831 
L 622.636364 492.402831 
" clip-path="url(#pd008415ec5)" style="fill: none; stroke: #7f7f7f; stroke-opacity: 0.5; stroke-width: 1.5; stroke-linecap: square"/>
   </g>
   <g id="patch_3">
    <path d="M 90 512.64 
L 90 69.12 
" style="fill: none; stroke: #000000; stroke-width: 0.8; stroke-linejoin: miter; stroke-linecap: square"/>
   </g>
   <g id="patch_4">
    <path d="M 648 512.64 
L 648 69.12 
" style="fill: none; stroke: #000000; stroke-width: 0.8; stroke-linejoin: miter; stroke-linecap: square"/>
   </g>
   <g id="patch_5">
    <path d="M 90 512.64 
L 648 512.64 
" style="fill: none; stroke: #000000; stroke-width: 0.8; stroke-linejoin: miter; stroke-linecap: square"/>
   </g>
   <g id="patch_6">
    <path d="M 90 69.12 
L 648 69.12 
" style="fill: none; stroke: #000000; stroke-width: 0.8; stroke-linejoin: miter; stroke-linecap: square"/>
   </g>
   <g id="text_17">
    <!-- $\delta$ -->
    <g transform="translate(249.586245 93.063413) scale(0.14 -0.14)">
     <defs>
      <path id="DejaVuSans-Oblique-3b4" d="M 3472 4053 
Q 3197 4272 2450 4272 
Q 1659 4272 1588 3906 
Q 1531 3619 2328 3469 
Q 2953 3353 3253 3003 
Q 3616 2581 3447 1716 
Q 3284 888 2763 400 
Q 2238 -91 1488 -91 
Q 741 -91 406 400 
Q 72 888 241 1747 
Q 363 2384 891 2900 
Q 1097 3100 1353 3213 
Q 913 3459 1000 3900 
Q 1166 4750 2544 4750 
Q 3234 4750 3566 4531 
L 3472 4053 
z
M 1753 3056 
Q 1525 2966 1306 2738 
Q 969 2384 847 1747 
Q 722 1113 919 756 
Q 1119 397 1584 397 
Q 2044 397 2381 759 
Q 2722 1122 2838 1716 
Q 2956 2338 2731 2638 
Q 2491 2959 2103 2994 
Q 1906 3013 1753 3056 
z
" transform="scale(0.015625)"/>
     </defs>
     <use xlink:href="#DejaVuSans-Oblique-3b4" transform="translate(0 0.78125)"/>
    </g>
   </g>
   <g id="text_18">
    <!-- $\theta$ -->
    <g transform="translate(359.394514 93.063413) scale(0.14 -0.14)">
     <defs>
      <path id="DejaVuSans-Oblique-3b8" d="M 2913 2219 
L 925 2219 
Q 791 1284 928 888 
Q 1100 400 1566 400 
Q 2034 400 2391 891 
Q 2703 1322 2913 2219 
z
M 3009 2750 
Q 3094 3638 2984 3950 
Q 2813 4444 2353 4444 
Q 1875 4444 1525 3956 
Q 1250 3563 1034 2750 
L 3009 2750 
z
M 2444 4913 
Q 3194 4913 3494 4250 
Q 3794 3591 3566 2422 
Q 3341 1256 2781 594 
Q 2225 -72 1475 -72 
Q 722 -72 425 594 
Q 128 1256 353 2422 
Q 581 3591 1134 4250 
Q 1691 4913 2444 4913 
z
" transform="scale(0.015625)"/>
     </defs>
     <use xlink:href="#DejaVuSans-Oblique-3b8" transform="translate(0 0.234375)"/>
    </g>
   </g>
   <g id="text_19">
    <!-- $\alpha$ -->
    <g transform="translate(410.172451 93.063413) scale(0.14 -0.14)">
     <defs>
      <path id="DejaVuSans-Oblique-3b1" d="M 2619 1628 
L 2622 2350 
Q 2625 3088 2069 3091 
Q 1653 3094 1394 2747 
Q 1069 2319 959 1747 
Q 825 1059 994 731 
Q 1169 397 1547 397 
Q 1966 397 2319 1063 
L 2619 1628 
z
M 2166 3578 
Q 3141 3594 3128 2584 
Q 3128 2584 3616 3500 
L 4128 3500 
L 3119 1603 
L 3109 919 
Q 3109 766 3194 638 
Q 3291 488 3391 488 
L 3669 488 
L 3575 0 
L 3228 0 
Q 2934 0 2722 263 
Q 2622 394 2619 669 
Q 2416 334 2066 50 
Q 1900 -81 1453 -78 
Q 722 -72 456 397 
Q 184 884 353 1747 
Q 534 2675 1009 3097 
Q 1544 3569 2166 3578 
z
" transform="scale(0.015625)"/>
     </defs>
     <use xlink:href="#DejaVuSans-Oblique-3b1" transform="translate(0 0.84375)"/>
    </g>
   </g>
   <g id="text_20">
    <!-- $\beta$ -->
    <g transform="translate(457.290157 93.2056) scale(0.14 -0.14)">
     <defs>
      <path id="DejaVuSans-Oblique-3b2" d="M 872 216 
L 572 -1331 
L -6 -1331 
L 928 3478 
Q 1206 4903 2538 4903 
Q 3888 4903 3659 3700 
Q 3503 2844 2894 2531 
Q 3713 2250 3553 1416 
Q 3272 -69 1759 -66 
Q 1097 -63 872 216 
z
M 1019 966 
Q 1259 422 1875 425 
Q 2775 425 2966 1406 
Q 3138 2288 1675 2219 
L 1778 2750 
Q 2909 2731 3106 3750 
Q 3241 4438 2509 4434 
Q 1691 4434 1503 3459 
L 1019 966 
z
" transform="scale(0.015625)"/>
     </defs>
     <use xlink:href="#DejaVuSans-Oblique-3b2" transform="translate(0 0.390625)"/>
    </g>
   </g>
   <g id="text_21">
    <!-- $\gamma$ -->
    <g transform="translate(538.624087 93.034975) scale(0.14 -0.14)">
     <defs>
      <path id="DejaVuSans-Oblique-3b3" d="M 1491 2950 
L 1838 788 
L 3456 3500 
L 4066 3500 
L 1972 0 
L 1713 -1331 
L 1138 -1331 
L 1397 0 
L 988 2613 
Q 925 3006 628 3006 
L 475 3006 
L 569 3500 
L 788 3500 
Q 1403 3500 1491 2950 
z
" transform="scale(0.015625)"/>
     </defs>
     <use xlink:href="#DejaVuSans-Oblique-3b3" transform="translate(0 0.3125)"/>
    </g>
   </g>
   <g id="text_22">
    <!-- Median power of different PSDs clusters of intracranial data -->
    <g transform="translate(82.2795 63.12) scale(0.192 -0.192)">
     <defs>
      <path id="DejaVuSans-4d" d="M 628 4666 
L 1569 4666 
L 2759 1491 
L 3956 4666 
L 4897 4666 
L 4897 0 
L 4281 0 
L 4281 4097 
L 3078 897 
L 2444 897 
L 1241 4097 
L 1241 0 
L 628 0 
L 628 4666 
z
" transform="scale(0.015625)"/>
      <path id="DejaVuSans-77" d="M 269 3500 
L 844 3500 
L 1563 769 
L 2278 3500 
L 2956 3500 
L 3675 769 
L 4391 3500 
L 4966 3500 
L 4050 0 
L 3372 0 
L 2619 2869 
L 1863 0 
L 1184 0 
L 269 3500 
z
" transform="scale(0.015625)"/>
      <path id="DejaVuSans-66" d="M 2375 4863 
L 2375 4384 
L 1825 4384 
Q 1516 4384 1395 4259 
Q 1275 4134 1275 3809 
L 1275 3500 
L 2222 3500 
L 2222 3053 
L 1275 3053 
L 1275 0 
L 697 0 
L 697 3053 
L 147 3053 
L 147 3500 
L 697 3500 
L 697 3744 
Q 697 4328 969 4595 
Q 1241 4863 1831 4863 
L 2375 4863 
z
" transform="scale(0.015625)"/>
      <path id="DejaVuSans-50" d="M 1259 4147 
L 1259 2394 
L 2053 2394 
Q 2494 2394 2734 2622 
Q 2975 2850 2975 3272 
Q 2975 3691 2734 3919 
Q 2494 4147 2053 4147 
L 1259 4147 
z
M 628 4666 
L 2053 4666 
Q 2838 4666 3239 4311 
Q 3641 3956 3641 3272 
Q 3641 2581 3239 2228 
Q 2838 1875 2053 1875 
L 1259 1875 
L 1259 0 
L 628 0 
L 628 4666 
z
" transform="scale(0.015625)"/>
      <path id="DejaVuSans-53" d="M 3425 4513 
L 3425 3897 
Q 3066 4069 2747 4153 
Q 2428 4238 2131 4238 
Q 1616 4238 1336 4038 
Q 1056 3838 1056 3469 
Q 1056 3159 1242 3001 
Q 1428 2844 1947 2747 
L 2328 2669 
Q 3034 2534 3370 2195 
Q 3706 1856 3706 1288 
Q 3706 609 3251 259 
Q 2797 -91 1919 -91 
Q 1588 -91 1214 -16 
Q 841 59 441 206 
L 441 856 
Q 825 641 1194 531 
Q 1563 422 1919 422 
Q 2459 422 2753 634 
Q 3047 847 3047 1241 
Q 3047 1584 2836 1778 
Q 2625 1972 2144 2069 
L 1759 2144 
Q 1053 2284 737 2584 
Q 422 2884 422 3419 
Q 422 4038 858 4394 
Q 1294 4750 2059 4750 
Q 2388 4750 2728 4690 
Q 3069 4631 3425 4513 
z
" transform="scale(0.015625)"/>
      <path id="DejaVuSans-44" d="M 1259 4147 
L 1259 519 
L 2022 519 
Q 2988 519 3436 956 
Q 3884 1394 3884 2338 
Q 3884 3275 3436 3711 
Q 2988 4147 2022 4147 
L 1259 4147 
z
M 628 4666 
L 1925 4666 
Q 3281 4666 3915 4102 
Q 4550 3538 4550 2338 
Q 4550 1131 3912 565 
Q 3275 0 1925 0 
L 628 0 
L 628 4666 
z
" transform="scale(0.015625)"/>
     </defs>
     <use xlink:href="#DejaVuSans-4d"/>
     <use xlink:href="#DejaVuSans-65" transform="translate(86.279297 0)"/>
     <use xlink:href="#DejaVuSans-64" transform="translate(147.802734 0)"/>
     <use xlink:href="#DejaVuSans-69" transform="translate(211.279297 0)"/>
     <use xlink:href="#DejaVuSans-61" transform="translate(239.0625 0)"/>
     <use xlink:href="#DejaVuSans-6e" transform="translate(300.341797 0)"/>
     <use xlink:href="#DejaVuSans-20" transform="translate(363.720703 0)"/>
     <use xlink:href="#DejaVuSans-70" transform="translate(395.507812 0)"/>
     <use xlink:href="#DejaVuSans-6f" transform="translate(458.984375 0)"/>
     <use xlink:href="#DejaVuSans-77" transform="translate(520.166016 0)"/>
     <use xlink:href="#DejaVuSans-65" transform="translate(601.953125 0)"/>
     <use xlink:href="#DejaVuSans-72" transform="translate(663.476562 0)"/>
     <use xlink:href="#DejaVuSans-20" transform="translate(704.589844 0)"/>
     <use xlink:href="#DejaVuSans-6f" transform="translate(736.376953 0)"/>
     <use xlink:href="#DejaVuSans-66" transform="translate(797.558594 0)"/>
     <use xlink:href="#DejaVuSans-20" transform="translate(832.763672 0)"/>
     <use xlink:href="#DejaVuSans-64" transform="translate(864.550781 0)"/>
     <use xlink:href="#DejaVuSans-69" transform="translate(928.027344 0)"/>
     <use xlink:href="#DejaVuSans-66" transform="translate(955.810547 0)"/>
     <use xlink:href="#DejaVuSans-66" transform="translate(991.015625 0)"/>
     <use xlink:href="#DejaVuSans-65" transform="translate(1026.220703 0)"/>
     <use xlink:href="#DejaVuSans-72" transform="translate(1087.744141 0)"/>
     <use xlink:href="#DejaVuSans-65" transform="translate(1126.607422 0)"/>
     <use xlink:href="#DejaVuSans-6e" transform="translate(1188.130859 0)"/>
     <use xlink:href="#DejaVuSans-74" transform="translate(1251.509766 0)"/>
     <use xlink:href="#DejaVuSans-20" transform="translate(1290.71875 0)"/>
     <use xlink:href="#DejaVuSans-50" transform="translate(1322.505859 0)"/>
     <use xlink:href="#DejaVuSans-53" transform="translate(1382.808594 0)"/>
     <use xlink:href="#DejaVuSans-44" transform="translate(1446.285156 0)"/>
     <use xlink:href="#DejaVuSans-73" transform="translate(1523.287109 0)"/>
     <use xlink:href="#DejaVuSans-20" transform="translate(1575.386719 0)"/>
     <use xlink:href="#DejaVuSans-63" transform="translate(1607.173828 0)"/>
     <use xlink:href="#DejaVuSans-6c" transform="translate(1662.154297 0)"/>
     <use xlink:href="#DejaVuSans-75" transform="translate(1689.9375 0)"/>
     <use xlink:href="#DejaVuSans-73" transform="translate(1753.316406 0)"/>
     <use xlink:href="#DejaVuSans-74" transform="translate(1805.416016 0)"/>
     <use xlink:href="#DejaVuSans-65" transform="translate(1844.625 0)"/>
     <use xlink:href="#DejaVuSans-72" transform="translate(1906.148438 0)"/>
     <use xlink:href="#DejaVuSans-73" transform="translate(1947.261719 0)"/>
     <use xlink:href="#DejaVuSans-20" transform="translate(1999.361328 0)"/>
     <use xlink:href="#DejaVuSans-6f" transform="translate(2031.148438 0)"/>
     <use xlink:href="#DejaVuSans-66" transform="translate(2092.330078 0)"/>
     <use xlink:href="#DejaVuSans-20" transform="translate(2127.535156 0)"/>
     <use xlink:href="#DejaVuSans-69" transform="translate(2159.322266 0)"/>
     <use xlink:href="#DejaVuSans-6e" transform="translate(2187.105469 0)"/>
     <use xlink:href="#DejaVuSans-74" transform="translate(2250.484375 0)"/>
     <use xlink:href="#DejaVuSans-72" transform="translate(2289.693359 0)"/>
     <use xlink:href="#DejaVuSans-61" transform="translate(2330.806641 0)"/>
     <use xlink:href="#DejaVuSans-63" transform="translate(2392.085938 0)"/>
     <use xlink:href="#DejaVuSans-72" transform="translate(2447.066406 0)"/>
     <use xlink:href="#DejaVuSans-61" transform="translate(2488.179688 0)"/>
     <use xlink:href="#DejaVuSans-6e" transform="translate(2549.458984 0)"/>
     <use xlink:href="#DejaVuSans-69" transform="translate(2612.837891 0)"/>
     <use xlink:href="#DejaVuSans-61" transform="translate(2640.621094 0)"/>
     <use xlink:href="#DejaVuSans-6c" transform="translate(2701.900391 0)"/>
     <use xlink:href="#DejaVuSans-20" transform="translate(2729.683594 0)"/>
     <use xlink:href="#DejaVuSans-64" transform="translate(2761.470703 0)"/>
     <use xlink:href="#DejaVuSans-61" transform="translate(2824.947266 0)"/>
     <use xlink:href="#DejaVuSans-74" transform="translate(2886.226562 0)"/>
     <use xlink:href="#DejaVuSans-61" transform="translate(2925.435547 0)"/>
    </g>
   </g>
   <g id="legend_1">
    <g id="patch_7">
     <path d="M 479.4375 387.22 
L 636.8 387.22 
Q 640 387.22 640 384.02 
L 640 197.74 
Q 640 194.54 636.8 194.54 
L 479.4375 194.54 
Q 476.2375 194.54 476.2375 197.74 
L 476.2375 384.02 
Q 476.2375 387.22 479.4375 387.22 
z
" style="fill: #ffffff; opacity: 0.8; stroke: #cccccc; stroke-linejoin: miter"/>
    </g>
    <g id="line2d_54">
     <path d="M 482.6375 207.4975 
L 498.6375 207.4975 
L 514.6375 207.4975 
" style="fill: none; stroke: #1f77b4; stroke-opacity: 0.5; stroke-width: 1.5; stroke-linecap: square"/>
    </g>
    <g id="text_23">
     <!-- cl. 0 (248 el.) -->
     <g transform="translate(527.4375 213.0975) scale(0.16 -0.16)">
      <defs>
       <path id="DejaVuSans-28" d="M 1984 4856 
Q 1566 4138 1362 3434 
Q 1159 2731 1159 2009 
Q 1159 1288 1364 580 
Q 1569 -128 1984 -844 
L 1484 -844 
Q 1016 -109 783 600 
Q 550 1309 550 2009 
Q 550 2706 781 3412 
Q 1013 4119 1484 4856 
L 1984 4856 
z
" transform="scale(0.015625)"/>
       <path id="DejaVuSans-29" d="M 513 4856 
L 1013 4856 
Q 1481 4119 1714 3412 
Q 1947 2706 1947 2009 
Q 1947 1309 1714 600 
Q 1481 -109 1013 -844 
L 513 -844 
Q 928 -128 1133 580 
Q 1338 1288 1338 2009 
Q 1338 2731 1133 3434 
Q 928 4138 513 4856 
z
" transform="scale(0.015625)"/>
      </defs>
      <use xlink:href="#DejaVuSans-63"/>
      <use xlink:href="#DejaVuSans-6c" transform="translate(54.980469 0)"/>
      <use xlink:href="#DejaVuSans-2e" transform="translate(82.763672 0)"/>
      <use xlink:href="#DejaVuSans-20" transform="translate(114.550781 0)"/>
      <use xlink:href="#DejaVuSans-30" transform="translate(146.337891 0)"/>
      <use xlink:href="#DejaVuSans-20" transform="translate(209.960938 0)"/>
      <use xlink:href="#DejaVuSans-28" transform="translate(241.748047 0)"/>
      <use xlink:href="#DejaVuSans-32" transform="translate(280.761719 0)"/>
      <use xlink:href="#DejaVuSans-34" transform="translate(344.384766 0)"/>
      <use xlink:href="#DejaVuSans-38" transform="translate(408.007812 0)"/>
      <use xlink:href="#DejaVuSans-20" transform="translate(471.630859 0)"/>
      <use xlink:href="#DejaVuSans-65" transform="translate(503.417969 0)"/>
      <use xlink:href="#DejaVuSans-6c" transform="translate(564.941406 0)"/>
      <use xlink:href="#DejaVuSans-2e" transform="translate(592.724609 0)"/>
      <use xlink:href="#DejaVuSans-29" transform="translate(624.511719 0)"/>
     </g>
    </g>
    <g id="line2d_55">
     <path d="M 482.6375 230.9825 
L 498.6375 230.9825 
L 514.6375 230.9825 
" style="fill: none; stroke-dasharray: 5,8.25; stroke-dashoffset: 0; stroke: #ff7f0e; stroke-width: 5"/>
    </g>
    <g id="text_24">
     <!-- cl. 1 (147 el.) -->
     <g transform="translate(527.4375 236.5825) scale(0.16 -0.16)">
      <defs>
       <path id="DejaVuSans-37" d="M 525 4666 
L 3525 4666 
L 3525 4397 
L 1831 0 
L 1172 0 
L 2766 4134 
L 525 4134 
L 525 4666 
z
" transform="scale(0.015625)"/>
      </defs>
      <use xlink:href="#DejaVuSans-63"/>
      <use xlink:href="#DejaVuSans-6c" transform="translate(54.980469 0)"/>
      <use xlink:href="#DejaVuSans-2e" transform="translate(82.763672 0)"/>
      <use xlink:href="#DejaVuSans-20" transform="translate(114.550781 0)"/>
      <use xlink:href="#DejaVuSans-31" transform="translate(146.337891 0)"/>
      <use xlink:href="#DejaVuSans-20" transform="translate(209.960938 0)"/>
      <use xlink:href="#DejaVuSans-28" transform="translate(241.748047 0)"/>
      <use xlink:href="#DejaVuSans-31" transform="translate(280.761719 0)"/>
      <use xlink:href="#DejaVuSans-34" transform="translate(344.384766 0)"/>
      <use xlink:href="#DejaVuSans-37" transform="translate(408.007812 0)"/>
      <use xlink:href="#DejaVuSans-20" transform="translate(471.630859 0)"/>
      <use xlink:href="#DejaVuSans-65" transform="translate(503.417969 0)"/>
      <use xlink:href="#DejaVuSans-6c" transform="translate(564.941406 0)"/>
      <use xlink:href="#DejaVuSans-2e" transform="translate(592.724609 0)"/>
      <use xlink:href="#DejaVuSans-29" transform="translate(624.511719 0)"/>
     </g>
    </g>
    <g id="line2d_56">
     <path d="M 482.6375 254.4675 
L 498.6375 254.4675 
L 514.6375 254.4675 
" style="fill: none; stroke: #2ca02c; stroke-opacity: 0.5; stroke-width: 1.5; stroke-linecap: square"/>
    </g>
    <g id="text_25">
     <!-- cl. 2 (153 el.) -->
     <g transform="translate(527.4375 260.0675) scale(0.16 -0.16)">
      <use xlink:href="#DejaVuSans-63"/>
      <use xlink:href="#DejaVuSans-6c" transform="translate(54.980469 0)"/>
      <use xlink:href="#DejaVuSans-2e" transform="translate(82.763672 0)"/>
      <use xlink:href="#DejaVuSans-20" transform="translate(114.550781 0)"/>
      <use xlink:href="#DejaVuSans-32" transform="translate(146.337891 0)"/>
      <use xlink:href="#DejaVuSans-20" transform="translate(209.960938 0)"/>
      <use xlink:href="#DejaVuSans-28" transform="translate(241.748047 0)"/>
      <use xlink:href="#DejaVuSans-31" transform="translate(280.761719 0)"/>
      <use xlink:href="#DejaVuSans-35" transform="translate(344.384766 0)"/>
      <use xlink:href="#DejaVuSans-33" transform="translate(408.007812 0)"/>
      <use xlink:href="#DejaVuSans-20" transform="translate(471.630859 0)"/>
      <use xlink:href="#DejaVuSans-65" transform="translate(503.417969 0)"/>
      <use xlink:href="#DejaVuSans-6c" transform="translate(564.941406 0)"/>
      <use xlink:href="#DejaVuSans-2e" transform="translate(592.724609 0)"/>
      <use xlink:href="#DejaVuSans-29" transform="translate(624.511719 0)"/>
     </g>
    </g>
    <g id="line2d_57">
     <path d="M 482.6375 277.9525 
L 498.6375 277.9525 
L 514.6375 277.9525 
" style="fill: none; stroke: #d62728; stroke-opacity: 0.5; stroke-width: 1.5; stroke-linecap: square"/>
    </g>
    <g id="text_26">
     <!-- cl. 3 (223 el.) -->
     <g transform="translate(527.4375 283.5525) scale(0.16 -0.16)">
      <use xlink:href="#DejaVuSans-63"/>
      <use xlink:href="#DejaVuSans-6c" transform="translate(54.980469 0)"/>
      <use xlink:href="#DejaVuSans-2e" transform="translate(82.763672 0)"/>
      <use xlink:href="#DejaVuSans-20" transform="translate(114.550781 0)"/>
      <use xlink:href="#DejaVuSans-33" transform="translate(146.337891 0)"/>
      <use xlink:href="#DejaVuSans-20" transform="translate(209.960938 0)"/>
      <use xlink:href="#DejaVuSans-28" transform="translate(241.748047 0)"/>
      <use xlink:href="#DejaVuSans-32" transform="translate(280.761719 0)"/>
      <use xlink:href="#DejaVuSans-32" transform="translate(344.384766 0)"/>
      <use xlink:href="#DejaVuSans-33" transform="translate(408.007812 0)"/>
      <use xlink:href="#DejaVuSans-20" transform="translate(471.630859 0)"/>
      <use xlink:href="#DejaVuSans-65" transform="translate(503.417969 0)"/>
      <use xlink:href="#DejaVuSans-6c" transform="translate(564.941406 0)"/>
      <use xlink:href="#DejaVuSans-2e" transform="translate(592.724609 0)"/>
      <use xlink:href="#DejaVuSans-29" transform="translate(624.511719 0)"/>
     </g>
    </g>
    <g id="line2d_58">
     <path d="M 482.6375 301.4375 
L 498.6375 301.4375 
L 514.6375 301.4375 
" style="fill: none; stroke: #9467bd; stroke-opacity: 0.5; stroke-width: 1.5; stroke-linecap: square"/>
    </g>
    <g id="text_27">
     <!-- cl. 4 (152 el.) -->
     <g transform="translate(527.4375 307.0375) scale(0.16 -0.16)">
      <use xlink:href="#DejaVuSans-63"/>
      <use xlink:href="#DejaVuSans-6c" transform="translate(54.980469 0)"/>
      <use xlink:href="#DejaVuSans-2e" transform="translate(82.763672 0)"/>
      <use xlink:href="#DejaVuSans-20" transform="translate(114.550781 0)"/>
      <use xlink:href="#DejaVuSans-34" transform="translate(146.337891 0)"/>
      <use xlink:href="#DejaVuSans-20" transform="translate(209.960938 0)"/>
      <use xlink:href="#DejaVuSans-28" transform="translate(241.748047 0)"/>
      <use xlink:href="#DejaVuSans-31" transform="translate(280.761719 0)"/>
      <use xlink:href="#DejaVuSans-35" transform="translate(344.384766 0)"/>
      <use xlink:href="#DejaVuSans-32" transform="translate(408.007812 0)"/>
      <use xlink:href="#DejaVuSans-20" transform="translate(471.630859 0)"/>
      <use xlink:href="#DejaVuSans-65" transform="translate(503.417969 0)"/>
      <use xlink:href="#DejaVuSans-6c" transform="translate(564.941406 0)"/>
      <use xlink:href="#DejaVuSans-2e" transform="translate(592.724609 0)"/>
      <use xlink:href="#DejaVuSans-29" transform="translate(624.511719 0)"/>
     </g>
    </g>
    <g id="line2d_59">
     <path d="M 482.6375 324.9225 
L 498.6375 324.9225 
L 514.6375 324.9225 
" style="fill: none; stroke: #8c564b; stroke-opacity: 0.5; stroke-width: 1.5; stroke-linecap: square"/>
    </g>
    <g id="text_28">
     <!-- cl. 5 (301 el.) -->
     <g transform="translate(527.4375 330.5225) scale(0.16 -0.16)">
      <use xlink:href="#DejaVuSans-63"/>
      <use xlink:href="#DejaVuSans-6c" transform="translate(54.980469 0)"/>
      <use xlink:href="#DejaVuSans-2e" transform="translate(82.763672 0)"/>
      <use xlink:href="#DejaVuSans-20" transform="translate(114.550781 0)"/>
      <use xlink:href="#DejaVuSans-35" transform="translate(146.337891 0)"/>
      <use xlink:href="#DejaVuSans-20" transform="translate(209.960938 0)"/>
      <use xlink:href="#DejaVuSans-28" transform="translate(241.748047 0)"/>
      <use xlink:href="#DejaVuSans-33" transform="translate(280.761719 0)"/>
      <use xlink:href="#DejaVuSans-30" transform="translate(344.384766 0)"/>
      <use xlink:href="#DejaVuSans-31" transform="translate(408.007812 0)"/>
      <use xlink:href="#DejaVuSans-20" transform="translate(471.630859 0)"/>
      <use xlink:href="#DejaVuSans-65" transform="translate(503.417969 0)"/>
      <use xlink:href="#DejaVuSans-6c" transform="translate(564.941406 0)"/>
      <use xlink:href="#DejaVuSans-2e" transform="translate(592.724609 0)"/>
      <use xlink:href="#DejaVuSans-29" transform="translate(624.511719 0)"/>
     </g>
    </g>
    <g id="line2d_60">
     <path d="M 482.6375 348.4075 
L 498.6375 348.4075 
L 514.6375 348.4075 
" style="fill: none; stroke: #e377c2; stroke-opacity: 0.5; stroke-width: 1.5; stroke-linecap: square"/>
    </g>
    <g id="text_29">
     <!-- cl. 6 (33 el.) -->
     <g transform="translate(527.4375 354.0075) scale(0.16 -0.16)">
      <defs>
       <path id="DejaVuSans-36" d="M 2113 2584 
Q 1688 2584 1439 2293 
Q 1191 2003 1191 1497 
Q 1191 994 1439 701 
Q 1688 409 2113 409 
Q 2538 409 2786 701 
Q 3034 994 3034 1497 
Q 3034 2003 2786 2293 
Q 2538 2584 2113 2584 
z
M 3366 4563 
L 3366 3988 
Q 3128 4100 2886 4159 
Q 2644 4219 2406 4219 
Q 1781 4219 1451 3797 
Q 1122 3375 1075 2522 
Q 1259 2794 1537 2939 
Q 1816 3084 2150 3084 
Q 2853 3084 3261 2657 
Q 3669 2231 3669 1497 
Q 3669 778 3244 343 
Q 2819 -91 2113 -91 
Q 1303 -91 875 529 
Q 447 1150 447 2328 
Q 447 3434 972 4092 
Q 1497 4750 2381 4750 
Q 2619 4750 2861 4703 
Q 3103 4656 3366 4563 
z
" transform="scale(0.015625)"/>
      </defs>
      <use xlink:href="#DejaVuSans-63"/>
      <use xlink:href="#DejaVuSans-6c" transform="translate(54.980469 0)"/>
      <use xlink:href="#DejaVuSans-2e" transform="translate(82.763672 0)"/>
      <use xlink:href="#DejaVuSans-20" transform="translate(114.550781 0)"/>
      <use xlink:href="#DejaVuSans-36" transform="translate(146.337891 0)"/>
      <use xlink:href="#DejaVuSans-20" transform="translate(209.960938 0)"/>
      <use xlink:href="#DejaVuSans-28" transform="translate(241.748047 0)"/>
      <use xlink:href="#DejaVuSans-33" transform="translate(280.761719 0)"/>
      <use xlink:href="#DejaVuSans-33" transform="translate(344.384766 0)"/>
      <use xlink:href="#DejaVuSans-20" transform="translate(408.007812 0)"/>
      <use xlink:href="#DejaVuSans-65" transform="translate(439.794922 0)"/>
      <use xlink:href="#DejaVuSans-6c" transform="translate(501.318359 0)"/>
      <use xlink:href="#DejaVuSans-2e" transform="translate(529.101562 0)"/>
      <use xlink:href="#DejaVuSans-29" transform="translate(560.888672 0)"/>
     </g>
    </g>
    <g id="line2d_61">
     <path d="M 482.6375 371.8925 
L 498.6375 371.8925 
L 514.6375 371.8925 
" style="fill: none; stroke: #7f7f7f; stroke-opacity: 0.5; stroke-width: 1.5; stroke-linecap: square"/>
    </g>
    <g id="text_30">
     <!-- cl. 7 (515 el.) -->
     <g transform="translate(527.4375 377.4925) scale(0.16 -0.16)">
      <use xlink:href="#DejaVuSans-63"/>
      <use xlink:href="#DejaVuSans-6c" transform="translate(54.980469 0)"/>
      <use xlink:href="#DejaVuSans-2e" transform="translate(82.763672 0)"/>
      <use xlink:href="#DejaVuSans-20" transform="translate(114.550781 0)"/>
      <use xlink:href="#DejaVuSans-37" transform="translate(146.337891 0)"/>
      <use xlink:href="#DejaVuSans-20" transform="translate(209.960938 0)"/>
      <use xlink:href="#DejaVuSans-28" transform="translate(241.748047 0)"/>
      <use xlink:href="#DejaVuSans-35" transform="translate(280.761719 0)"/>
      <use xlink:href="#DejaVuSans-31" transform="translate(344.384766 0)"/>
      <use xlink:href="#DejaVuSans-35" transform="translate(408.007812 0)"/>
      <use xlink:href="#DejaVuSans-20" transform="translate(471.630859 0)"/>
      <use xlink:href="#DejaVuSans-65" transform="translate(503.417969 0)"/>
      <use xlink:href="#DejaVuSans-6c" transform="translate(564.941406 0)"/>
      <use xlink:href="#DejaVuSans-2e" transform="translate(592.724609 0)"/>
      <use xlink:href="#DejaVuSans-29" transform="translate(624.511719 0)"/>
     </g>
    </g>
   </g>
  </g>
 </g>
 <defs>
  <clipPath id="pd008415ec5">
   <rect x="90" y="69.12" width="558" height="443.52"/>
  </clipPath>
 </defs>
</svg>
