<?xml version="1.0" encoding="utf-8" standalone="no"?>
<!DOCTYPE svg PUBLIC "-//W3C//DTD SVG 1.1//EN"
  "http://www.w3.org/Graphics/SVG/1.1/DTD/svg11.dtd">
<svg xmlns:xlink="http://www.w3.org/1999/xlink" width="720pt" height="576pt" viewBox="0 0 720 576" xmlns="http://www.w3.org/2000/svg" version="1.1">
 <metadata>
  <rdf:RDF xmlns:dc="http://purl.org/dc/elements/1.1/" xmlns:cc="http://creativecommons.org/ns#" xmlns:rdf="http://www.w3.org/1999/02/22-rdf-syntax-ns#">
   <cc:Work>
    <dc:type rdf:resource="http://purl.org/dc/dcmitype/StillImage"/>
    <dc:date>2026-05-04T20:46:23.147118</dc:date>
    <dc:format>image/svg+xml</dc:format>
    <dc:creator>
     <cc:Agent>
      <dc:title>Matplotlib v3.10.9, https://matplotlib.org/</dc:title>
     </cc:Agent>
    </dc:creator>
   </cc:Work>
  </rdf:RDF>
 </metadata>
 <defs>
  <style type="text/css">*{stroke-linejoin: round; stroke-linecap: butt}</style>
 </defs>
 <g id="figure_1">
  <g id="patch_1">
   <path d="M 0 576 
L 720 576 
L 720 0 
L 0 0 
z
" style="fill: #ffffff"/>
  </g>
  <g id="axes_1">
   <g id="patch_2">
    <path d="M 90 512.64 
L 648 512.64 
L 648 69.12 
L 90 69.12 
z
" style="fill: #ffffff"/>
   </g>
   <g id="matplotlib.axis_1">
    <g id="xtick_1">
     <g id="line2d_1">
      <path d="M 115.363636 512.64 
L 115.363636 69.12 
" clip-path="url(#pfef2fac070)" style="fill: none; stroke: #b0b0b0; stroke-width: 0.8; stroke-linecap: square"/>
     </g>
     <g id="line2d_2">
      <defs>
       <path id="m6528772689" d="M 0 0 
L 0 3.5 
" style="stroke: #000000; stroke-width: 0.8"/>
      </defs>
      <g>
       <use xlink:href="#m6528772689" x="115.363636" y="512.64" style="stroke: #000000; stroke-width: 0.8"/>
      </g>
     </g>
     <g id="text_1">
      <!-- 0.5 -->
      <g transform="translate(102.641136 531.7975) scale(0.16 -0.16)">
       <defs>
        <path id="DejaVuSans-30" d="M 2034 4250 
Q 1547 4250 1301 3770 
Q 1056 3291 1056 2328 
Q 1056 1369 1301 889 
Q 1547 409 2034 409 
Q 2525 409 2770 889 
Q 3016 1369 3016 2328 
Q 3016 3291 2770 3770 
Q 2525 4250 2034 4250 
z
M 2034 4750 
Q 2819 4750 3233 4129 
Q 3647 3509 3647 2328 
Q 3647 1150 3233 529 
Q 2819 -91 2034 -91 
Q 1250 -91 836 529 
Q 422 1150 422 2328 
Q 422 3509 836 4129 
Q 1250 4750 2034 4750 
z
" transform="scale(0.015625)"/>
        <path id="DejaVuSans-2e" d="M 684 794 
L 1344 794 
L 1344 0 
L 684 0 
L 684 794 
z
" transform="scale(0.015625)"/>
        <path id="DejaVuSans-35" d="M 691 4666 
L 3169 4666 
L 3169 4134 
L 1269 4134 
L 1269 2991 
Q 1406 3038 1543 3061 
Q 1681 3084 1819 3084 
Q 2600 3084 3056 2656 
Q 3513 2228 3513 1497 
Q 3513 744 3044 326 
Q 2575 -91 1722 -91 
Q 1428 -91 1123 -41 
Q 819 9 494 109 
L 494 744 
Q 775 591 1075 516 
Q 1375 441 1709 441 
Q 2250 441 2565 725 
Q 2881 1009 2881 1497 
Q 2881 1984 2565 2268 
Q 2250 2553 1709 2553 
Q 1456 2553 1204 2497 
Q 953 2441 691 2322 
L 691 4666 
z
" transform="scale(0.015625)"/>
       </defs>
       <use xlink:href="#DejaVuSans-30"/>
       <use xlink:href="#DejaVuSans-2e" transform="translate(63.623047 0)"/>
       <use xlink:href="#DejaVuSans-35" transform="translate(95.410156 0)"/>
      </g>
     </g>
    </g>
    <g id="xtick_2">
     <g id="line2d_3">
      <path d="M 323.207549 512.64 
L 323.207549 69.12 
" clip-path="url(#pfef2fac070)" style="fill: none; stroke: #b0b0b0; stroke-width: 0.8; stroke-linecap: square"/>
     </g>
     <g id="line2d_4">
      <g>
       <use xlink:href="#m6528772689" x="323.207549" y="512.64" style="stroke: #000000; stroke-width: 0.8"/>
      </g>
     </g>
     <g id="text_2">
      <!-- 4.0 -->
      <g transform="translate(310.485049 531.7975) scale(0.16 -0.16)">
       <defs>
        <path id="DejaVuSans-34" d="M 2419 4116 
L 825 1625 
L 2419 1625 
L 2419 4116 
z
M 2253 4666 
L 3047 4666 
L 3047 1625 
L 3713 1625 
L 3713 1100 
L 3047 1100 
L 3047 0 
L 2419 0 
L 2419 1100 
L 313 1100 
L 313 1709 
L 2253 4666 
z
" transform="scale(0.015625)"/>
       </defs>
       <use xlink:href="#DejaVuSans-34"/>
       <use xlink:href="#DejaVuSans-2e" transform="translate(63.623047 0)"/>
       <use xlink:href="#DejaVuSans-30" transform="translate(95.410156 0)"/>
      </g>
     </g>
    </g>
    <g id="xtick_3">
     <g id="line2d_5">
      <path d="M 392.488853 512.64 
L 392.488853 69.12 
" clip-path="url(#pfef2fac070)" style="fill: none; stroke: #b0b0b0; stroke-width: 0.8; stroke-linecap: square"/>
     </g>
     <g id="line2d_6">
      <g>
       <use xlink:href="#m6528772689" x="392.488853" y="512.64" style="stroke: #000000; stroke-width: 0.8"/>
      </g>
     </g>
     <g id="text_3">
      <!-- 8.0 -->
      <g transform="translate(379.766353 531.7975) scale(0.16 -0.16)">
       <defs>
        <path id="DejaVuSans-38" d="M 2034 2216 
Q 1584 2216 1326 1975 
Q 1069 1734 1069 1313 
Q 1069 891 1326 650 
Q 1584 409 2034 409 
Q 2484 409 2743 651 
Q 3003 894 3003 1313 
Q 3003 1734 2745 1975 
Q 2488 2216 2034 2216 
z
M 1403 2484 
Q 997 2584 770 2862 
Q 544 3141 544 3541 
Q 544 4100 942 4425 
Q 1341 4750 2034 4750 
Q 2731 4750 3128 4425 
Q 3525 4100 3525 3541 
Q 3525 3141 3298 2862 
Q 3072 2584 2669 2484 
Q 3125 2378 3379 2068 
Q 3634 1759 3634 1313 
Q 3634 634 3220 271 
Q 2806 -91 2034 -91 
Q 1263 -91 848 271 
Q 434 634 434 1313 
Q 434 1759 690 2068 
Q 947 2378 1403 2484 
z
M 1172 3481 
Q 1172 3119 1398 2916 
Q 1625 2713 2034 2713 
Q 2441 2713 2670 2916 
Q 2900 3119 2900 3481 
Q 2900 3844 2670 4047 
Q 2441 4250 2034 4250 
Q 1625 4250 1398 4047 
Q 1172 3844 1172 3481 
z
" transform="scale(0.015625)"/>
       </defs>
       <use xlink:href="#DejaVuSans-38"/>
       <use xlink:href="#DejaVuSans-2e" transform="translate(63.623047 0)"/>
       <use xlink:href="#DejaVuSans-30" transform="translate(95.410156 0)"/>
      </g>
     </g>
    </g>
    <g id="xtick_4">
     <g id="line2d_7">
      <path d="M 441.01623 512.64 
L 441.01623 69.12 
" clip-path="url(#pfef2fac070)" style="fill: none; stroke: #b0b0b0; stroke-width: 0.8; stroke-linecap: square"/>
     </g>
     <g id="line2d_8">
      <g>
       <use xlink:href="#m6528772689" x="441.01623" y="512.64" style="stroke: #000000; stroke-width: 0.8"/>
      </g>
     </g>
     <g id="text_4">
      <!-- 13.0 -->
      <g transform="translate(423.20373 531.7975) scale(0.16 -0.16)">
       <defs>
        <path id="DejaVuSans-31" d="M 794 531 
L 1825 531 
L 1825 4091 
L 703 3866 
L 703 4441 
L 1819 4666 
L 2450 4666 
L 2450 531 
L 3481 531 
L 3481 0 
L 794 0 
L 794 531 
z
" transform="scale(0.015625)"/>
        <path id="DejaVuSans-33" d="M 2597 2516 
Q 3050 2419 3304 2112 
Q 3559 1806 3559 1356 
Q 3559 666 3084 287 
Q 2609 -91 1734 -91 
Q 1441 -91 1130 -33 
Q 819 25 488 141 
L 488 750 
Q 750 597 1062 519 
Q 1375 441 1716 441 
Q 2309 441 2620 675 
Q 2931 909 2931 1356 
Q 2931 1769 2642 2001 
Q 2353 2234 1838 2234 
L 1294 2234 
L 1294 2753 
L 1863 2753 
Q 2328 2753 2575 2939 
Q 2822 3125 2822 3475 
Q 2822 3834 2567 4026 
Q 2313 4219 1838 4219 
Q 1578 4219 1281 4162 
Q 984 4106 628 3988 
L 628 4550 
Q 988 4650 1302 4700 
Q 1616 4750 1894 4750 
Q 2613 4750 3031 4423 
Q 3450 4097 3450 3541 
Q 3450 3153 3228 2886 
Q 3006 2619 2597 2516 
z
" transform="scale(0.015625)"/>
       </defs>
       <use xlink:href="#DejaVuSans-31"/>
       <use xlink:href="#DejaVuSans-33" transform="translate(63.623047 0)"/>
       <use xlink:href="#DejaVuSans-2e" transform="translate(127.246094 0)"/>
       <use xlink:href="#DejaVuSans-30" transform="translate(159.033203 0)"/>
      </g>
     </g>
    </g>
    <g id="xtick_5">
     <g id="line2d_9">
      <path d="M 524.60072 512.64 
L 524.60072 69.12 
" clip-path="url(#pfef2fac070)" style="fill: none; stroke: #b0b0b0; stroke-width: 0.8; stroke-linecap: square"/>
     </g>
     <g id="line2d_10">
      <g>
       <use xlink:href="#m6528772689" x="524.60072" y="512.64" style="stroke: #000000; stroke-width: 0.8"/>
      </g>
     </g>
     <g id="text_5">
      <!-- 30.0 -->
      <g transform="translate(506.78822 531.7975) scale(0.16 -0.16)">
       <use xlink:href="#DejaVuSans-33"/>
       <use xlink:href="#DejaVuSans-30" transform="translate(63.623047 0)"/>
       <use xlink:href="#DejaVuSans-2e" transform="translate(127.246094 0)"/>
       <use xlink:href="#DejaVuSans-30" transform="translate(159.033203 0)"/>
      </g>
     </g>
    </g>
    <g id="xtick_6">
     <g id="line2d_11">
      <path d="M 622.636364 512.64 
L 622.636364 69.12 
" clip-path="url(#pfef2fac070)" style="fill: none; stroke: #b0b0b0; stroke-width: 0.8; stroke-linecap: square"/>
     </g>
     <g id="line2d_12">
      <g>
       <use xlink:href="#m6528772689" x="622.636364" y="512.64" style="stroke: #000000; stroke-width: 0.8"/>
      </g>
     </g>
     <g id="text_6">
      <!-- 80.0 -->
      <g transform="translate(604.823864 531.7975) scale(0.16 -0.16)">
       <use xlink:href="#DejaVuSans-38"/>
       <use xlink:href="#DejaVuSans-30" transform="translate(63.623047 0)"/>
       <use xlink:href="#DejaVuSans-2e" transform="translate(127.246094 0)"/>
       <use xlink:href="#DejaVuSans-30" transform="translate(159.033203 0)"/>
      </g>
     </g>
    </g>
    <g id="xtick_7">
     <g id="line2d_13">
      <defs>
       <path id="m9358dd0356" d="M 0 0 
L 0 2 
" style="stroke: #000000; stroke-width: 0.6"/>
      </defs>
      <g>
       <use xlink:href="#m9358dd0356" x="93.060038" y="512.64" style="stroke: #000000; stroke-width: 0.6"/>
      </g>
     </g>
    </g>
    <g id="xtick_8">
     <g id="line2d_14">
      <g>
       <use xlink:href="#m9358dd0356" x="133.587003" y="512.64" style="stroke: #000000; stroke-width: 0.6"/>
      </g>
     </g>
    </g>
    <g id="xtick_9">
     <g id="line2d_15">
      <g>
       <use xlink:href="#m9358dd0356" x="148.99464" y="512.64" style="stroke: #000000; stroke-width: 0.6"/>
      </g>
     </g>
    </g>
    <g id="xtick_10">
     <g id="line2d_16">
      <g>
       <use xlink:href="#m9358dd0356" x="162.341342" y="512.64" style="stroke: #000000; stroke-width: 0.6"/>
      </g>
     </g>
    </g>
    <g id="xtick_11">
     <g id="line2d_17">
      <g>
       <use xlink:href="#m9358dd0356" x="174.113968" y="512.64" style="stroke: #000000; stroke-width: 0.6"/>
      </g>
     </g>
    </g>
    <g id="xtick_12">
     <g id="line2d_18">
      <g>
       <use xlink:href="#m9358dd0356" x="253.926245" y="512.64" style="stroke: #000000; stroke-width: 0.6"/>
      </g>
     </g>
    </g>
    <g id="xtick_13">
     <g id="line2d_19">
      <g>
       <use xlink:href="#m9358dd0356" x="294.45321" y="512.64" style="stroke: #000000; stroke-width: 0.6"/>
      </g>
     </g>
    </g>
    <g id="xtick_14">
     <g id="line2d_20">
      <g>
       <use xlink:href="#m9358dd0356" x="345.511147" y="512.64" style="stroke: #000000; stroke-width: 0.6"/>
      </g>
     </g>
    </g>
    <g id="xtick_15">
     <g id="line2d_21">
      <g>
       <use xlink:href="#m9358dd0356" x="363.734514" y="512.64" style="stroke: #000000; stroke-width: 0.6"/>
      </g>
     </g>
    </g>
    <g id="xtick_16">
     <g id="line2d_22">
      <g>
       <use xlink:href="#m9358dd0356" x="379.142151" y="512.64" style="stroke: #000000; stroke-width: 0.6"/>
      </g>
     </g>
    </g>
    <g id="xtick_17">
     <g id="line2d_23">
      <g>
       <use xlink:href="#m9358dd0356" x="404.261479" y="512.64" style="stroke: #000000; stroke-width: 0.6"/>
      </g>
     </g>
    </g>
    <g id="xtick_18">
     <g id="line2d_24">
      <g>
       <use xlink:href="#m9358dd0356" x="484.073755" y="512.64" style="stroke: #000000; stroke-width: 0.6"/>
      </g>
     </g>
    </g>
    <g id="xtick_19">
     <g id="line2d_25">
      <g>
       <use xlink:href="#m9358dd0356" x="553.355059" y="512.64" style="stroke: #000000; stroke-width: 0.6"/>
      </g>
     </g>
    </g>
    <g id="xtick_20">
     <g id="line2d_26">
      <g>
       <use xlink:href="#m9358dd0356" x="575.658658" y="512.64" style="stroke: #000000; stroke-width: 0.6"/>
      </g>
     </g>
    </g>
    <g id="xtick_21">
     <g id="line2d_27">
      <g>
       <use xlink:href="#m9358dd0356" x="593.882024" y="512.64" style="stroke: #000000; stroke-width: 0.6"/>
      </g>
     </g>
    </g>
    <g id="xtick_22">
     <g id="line2d_28">
      <g>
       <use xlink:href="#m9358dd0356" x="609.289661" y="512.64" style="stroke: #000000; stroke-width: 0.6"/>
      </g>
     </g>
    </g>
    <g id="xtick_23">
     <g id="line2d_29">
      <g>
       <use xlink:href="#m9358dd0356" x="634.408989" y="512.64" style="stroke: #000000; stroke-width: 0.6"/>
      </g>
     </g>
    </g>
    <g id="text_7">
     <!-- Frequency -->
     <g transform="translate(327.6725 551.2825) scale(0.16 -0.16)">
      <defs>
       <path id="DejaVuSans-46" d="M 628 4666 
L 3309 4666 
L 3309 4134 
L 1259 4134 
L 1259 2759 
L 3109 2759 
L 3109 2228 
L 1259 2228 
L 1259 0 
L 628 0 
L 628 4666 
z
" transform="scale(0.015625)"/>
       <path id="DejaVuSans-72" d="M 2631 2963 
Q 2534 3019 2420 3045 
Q 2306 3072 2169 3072 
Q 1681 3072 1420 2755 
Q 1159 2438 1159 1844 
L 1159 0 
L 581 0 
L 581 3500 
L 1159 3500 
L 1159 2956 
Q 1341 3275 1631 3429 
Q 1922 3584 2338 3584 
Q 2397 3584 2469 3576 
Q 2541 3569 2628 3553 
L 2631 2963 
z
" transform="scale(0.015625)"/>
       <path id="DejaVuSans-65" d="M 3597 1894 
L 3597 1613 
L 953 1613 
Q 991 1019 1311 708 
Q 1631 397 2203 397 
Q 2534 397 2845 478 
Q 3156 559 3463 722 
L 3463 178 
Q 3153 47 2828 -22 
Q 2503 -91 2169 -91 
Q 1331 -91 842 396 
Q 353 884 353 1716 
Q 353 2575 817 3079 
Q 1281 3584 2069 3584 
Q 2775 3584 3186 3129 
Q 3597 2675 3597 1894 
z
M 3022 2063 
Q 3016 2534 2758 2815 
Q 2500 3097 2075 3097 
Q 1594 3097 1305 2825 
Q 1016 2553 972 2059 
L 3022 2063 
z
" transform="scale(0.015625)"/>
       <path id="DejaVuSans-71" d="M 947 1747 
Q 947 1113 1208 752 
Q 1469 391 1925 391 
Q 2381 391 2643 752 
Q 2906 1113 2906 1747 
Q 2906 2381 2643 2742 
Q 2381 3103 1925 3103 
Q 1469 3103 1208 2742 
Q 947 2381 947 1747 
z
M 2906 525 
Q 2725 213 2448 61 
Q 2172 -91 1784 -91 
Q 1150 -91 751 415 
Q 353 922 353 1747 
Q 353 2572 751 3078 
Q 1150 3584 1784 3584 
Q 2172 3584 2448 3432 
Q 2725 3281 2906 2969 
L 2906 3500 
L 3481 3500 
L 3481 -1331 
L 2906 -1331 
L 2906 525 
z
" transform="scale(0.015625)"/>
       <path id="DejaVuSans-75" d="M 544 1381 
L 544 3500 
L 1119 3500 
L 1119 1403 
Q 1119 906 1312 657 
Q 1506 409 1894 409 
Q 2359 409 2629 706 
Q 2900 1003 2900 1516 
L 2900 3500 
L 3475 3500 
L 3475 0 
L 2900 0 
L 2900 538 
Q 2691 219 2414 64 
Q 2138 -91 1772 -91 
Q 1169 -91 856 284 
Q 544 659 544 1381 
z
M 1991 3584 
L 1991 3584 
z
" transform="scale(0.015625)"/>
       <path id="DejaVuSans-6e" d="M 3513 2113 
L 3513 0 
L 2938 0 
L 2938 2094 
Q 2938 2591 2744 2837 
Q 2550 3084 2163 3084 
Q 1697 3084 1428 2787 
Q 1159 2491 1159 1978 
L 1159 0 
L 581 0 
L 581 3500 
L 1159 3500 
L 1159 2956 
Q 1366 3272 1645 3428 
Q 1925 3584 2291 3584 
Q 2894 3584 3203 3211 
Q 3513 2838 3513 2113 
z
" transform="scale(0.015625)"/>
       <path id="DejaVuSans-63" d="M 3122 3366 
L 3122 2828 
Q 2878 2963 2633 3030 
Q 2388 3097 2138 3097 
Q 1578 3097 1268 2742 
Q 959 2388 959 1747 
Q 959 1106 1268 751 
Q 1578 397 2138 397 
Q 2388 397 2633 464 
Q 2878 531 3122 666 
L 3122 134 
Q 2881 22 2623 -34 
Q 2366 -91 2075 -91 
Q 1284 -91 818 406 
Q 353 903 353 1747 
Q 353 2603 823 3093 
Q 1294 3584 2113 3584 
Q 2378 3584 2631 3529 
Q 2884 3475 3122 3366 
z
" transform="scale(0.015625)"/>
       <path id="DejaVuSans-79" d="M 2059 -325 
Q 1816 -950 1584 -1140 
Q 1353 -1331 966 -1331 
L 506 -1331 
L 506 -850 
L 844 -850 
Q 1081 -850 1212 -737 
Q 1344 -625 1503 -206 
L 1606 56 
L 191 3500 
L 800 3500 
L 1894 763 
L 2988 3500 
L 3597 3500 
L 2059 -325 
z
" transform="scale(0.015625)"/>
      </defs>
      <use xlink:href="#DejaVuSans-46"/>
      <use xlink:href="#DejaVuSans-72" transform="translate(50.269531 0)"/>
      <use xlink:href="#DejaVuSans-65" transform="translate(89.132812 0)"/>
      <use xlink:href="#DejaVuSans-71" transform="translate(150.65625 0)"/>
      <use xlink:href="#DejaVuSans-75" transform="translate(214.132812 0)"/>
      <use xlink:href="#DejaVuSans-65" transform="translate(277.511719 0)"/>
      <use xlink:href="#DejaVuSans-6e" transform="translate(339.035156 0)"/>
      <use xlink:href="#DejaVuSans-63" transform="translate(402.414062 0)"/>
      <use xlink:href="#DejaVuSans-79" transform="translate(457.394531 0)"/>
     </g>
    </g>
   </g>
   <g id="matplotlib.axis_2">
    <g id="ytick_1">
     <g id="line2d_30">
      <path d="M 90 494.107743 
L 648 494.107743 
" clip-path="url(#pfef2fac070)" style="fill: none; stroke: #b0b0b0; stroke-width: 0.8; stroke-linecap: square"/>
     </g>
     <g id="line2d_31">
      <defs>
       <path id="mb52b952f3c" d="M 0 0 
L -3.5 0 
" style="stroke: #000000; stroke-width: 0.8"/>
      </defs>
      <g>
       <use xlink:href="#mb52b952f3c" x="90" y="494.107743" style="stroke: #000000; stroke-width: 0.8"/>
      </g>
     </g>
     <g id="text_8">
      <!-- $\mathdefault{10^{-5}}$ -->
      <g transform="translate(45.4 500.186493) scale(0.16 -0.16)">
       <defs>
        <path id="DejaVuSans-2212" d="M 678 2272 
L 4684 2272 
L 4684 1741 
L 678 1741 
L 678 2272 
z
" transform="scale(0.015625)"/>
       </defs>
       <use xlink:href="#DejaVuSans-31" transform="translate(0 0.684375)"/>
       <use xlink:href="#DejaVuSans-30" transform="translate(63.623047 0.684375)"/>
       <use xlink:href="#DejaVuSans-2212" transform="translate(128.203125 38.965625) scale(0.7)"/>
       <use xlink:href="#DejaVuSans-35" transform="translate(186.855469 38.965625) scale(0.7)"/>
      </g>
     </g>
    </g>
    <g id="ytick_2">
     <g id="line2d_32">
      <path d="M 90 404.566219 
L 648 404.566219 
" clip-path="url(#pfef2fac070)" style="fill: none; stroke: #b0b0b0; stroke-width: 0.8; stroke-linecap: square"/>
     </g>
     <g id="line2d_33">
      <g>
       <use xlink:href="#mb52b952f3c" x="90" y="404.566219" style="stroke: #000000; stroke-width: 0.8"/>
      </g>
     </g>
     <g id="text_9">
      <!-- $\mathdefault{10^{-4}}$ -->
      <g transform="translate(45.4 410.644969) scale(0.16 -0.16)">
       <use xlink:href="#DejaVuSans-31" transform="translate(0 0.684375)"/>
       <use xlink:href="#DejaVuSans-30" transform="translate(63.623047 0.684375)"/>
       <use xlink:href="#DejaVuSans-2212" transform="translate(128.203125 38.965625) scale(0.7)"/>
       <use xlink:href="#DejaVuSans-34" transform="translate(186.855469 38.965625) scale(0.7)"/>
      </g>
     </g>
    </g>
    <g id="ytick_3">
     <g id="line2d_34">
      <path d="M 90 315.024695 
L 648 315.024695 
" clip-path="url(#pfef2fac070)" style="fill: none; stroke: #b0b0b0; stroke-width: 0.8; stroke-linecap: square"/>
     </g>
     <g id="line2d_35">
      <g>
       <use xlink:href="#mb52b952f3c" x="90" y="315.024695" style="stroke: #000000; stroke-width: 0.8"/>
      </g>
     </g>
     <g id="text_10">
      <!-- $\mathdefault{10^{-3}}$ -->
      <g transform="translate(45.4 321.103445) scale(0.16 -0.16)">
       <use xlink:href="#DejaVuSans-31" transform="translate(0 0.765625)"/>
       <use xlink:href="#DejaVuSans-30" transform="translate(63.623047 0.765625)"/>
       <use xlink:href="#DejaVuSans-2212" transform="translate(128.203125 39.046875) scale(0.7)"/>
       <use xlink:href="#DejaVuSans-33" transform="translate(186.855469 39.046875) scale(0.7)"/>
      </g>
     </g>
    </g>
    <g id="ytick_4">
     <g id="line2d_36">
      <path d="M 90 225.483172 
L 648 225.483172 
" clip-path="url(#pfef2fac070)" style="fill: none; stroke: #b0b0b0; stroke-width: 0.8; stroke-linecap: square"/>
     </g>
     <g id="line2d_37">
      <g>
       <use xlink:href="#mb52b952f3c" x="90" y="225.483172" style="stroke: #000000; stroke-width: 0.8"/>
      </g>
     </g>
     <g id="text_11">
      <!-- $\mathdefault{10^{-2}}$ -->
      <g transform="translate(45.4 231.561922) scale(0.16 -0.16)">
       <defs>
        <path id="DejaVuSans-32" d="M 1228 531 
L 3431 531 
L 3431 0 
L 469 0 
L 469 531 
Q 828 903 1448 1529 
Q 2069 2156 2228 2338 
Q 2531 2678 2651 2914 
Q 2772 3150 2772 3378 
Q 2772 3750 2511 3984 
Q 2250 4219 1831 4219 
Q 1534 4219 1204 4116 
Q 875 4013 500 3803 
L 500 4441 
Q 881 4594 1212 4672 
Q 1544 4750 1819 4750 
Q 2544 4750 2975 4387 
Q 3406 4025 3406 3419 
Q 3406 3131 3298 2873 
Q 3191 2616 2906 2266 
Q 2828 2175 2409 1742 
Q 1991 1309 1228 531 
z
" transform="scale(0.015625)"/>
       </defs>
       <use xlink:href="#DejaVuSans-31" transform="translate(0 0.765625)"/>
       <use xlink:href="#DejaVuSans-30" transform="translate(63.623047 0.765625)"/>
       <use xlink:href="#DejaVuSans-2212" transform="translate(128.203125 39.046875) scale(0.7)"/>
       <use xlink:href="#DejaVuSans-32" transform="translate(186.855469 39.046875) scale(0.7)"/>
      </g>
     </g>
    </g>
    <g id="ytick_5">
     <g id="line2d_38">
      <path d="M 90 135.941648 
L 648 135.941648 
" clip-path="url(#pfef2fac070)" style="fill: none; stroke: #b0b0b0; stroke-width: 0.8; stroke-linecap: square"/>
     </g>
     <g id="line2d_39">
      <g>
       <use xlink:href="#mb52b952f3c" x="90" y="135.941648" style="stroke: #000000; stroke-width: 0.8"/>
      </g>
     </g>
     <g id="text_12">
      <!-- $\mathdefault{10^{-1}}$ -->
      <g transform="translate(45.4 142.020398) scale(0.16 -0.16)">
       <use xlink:href="#DejaVuSans-31" transform="translate(0 0.684375)"/>
       <use xlink:href="#DejaVuSans-30" transform="translate(63.623047 0.684375)"/>
       <use xlink:href="#DejaVuSans-2212" transform="translate(128.203125 38.965625) scale(0.7)"/>
       <use xlink:href="#DejaVuSans-31" transform="translate(186.855469 38.965625) scale(0.7)"/>
      </g>
     </g>
    </g>
    <g id="ytick_6">
     <g id="line2d_40">
      <defs>
       <path id="m08ef0b245d" d="M 0 0 
L -2 0 
" style="stroke: #000000; stroke-width: 0.6"/>
      </defs>
      <g>
       <use xlink:href="#m08ef0b245d" x="90" y="507.9779" style="stroke: #000000; stroke-width: 0.6"/>
      </g>
     </g>
    </g>
    <g id="ytick_7">
     <g id="line2d_41">
      <g>
       <use xlink:href="#m08ef0b245d" x="90" y="502.785213" style="stroke: #000000; stroke-width: 0.6"/>
      </g>
     </g>
    </g>
    <g id="ytick_8">
     <g id="line2d_42">
      <g>
       <use xlink:href="#m08ef0b245d" x="90" y="498.204938" style="stroke: #000000; stroke-width: 0.6"/>
      </g>
     </g>
    </g>
    <g id="ytick_9">
     <g id="line2d_43">
      <g>
       <use xlink:href="#m08ef0b245d" x="90" y="467.153058" style="stroke: #000000; stroke-width: 0.6"/>
      </g>
     </g>
    </g>
    <g id="ytick_10">
     <g id="line2d_44">
      <g>
       <use xlink:href="#m08ef0b245d" x="90" y="451.385579" style="stroke: #000000; stroke-width: 0.6"/>
      </g>
     </g>
    </g>
    <g id="ytick_11">
     <g id="line2d_45">
      <g>
       <use xlink:href="#m08ef0b245d" x="90" y="440.198374" style="stroke: #000000; stroke-width: 0.6"/>
      </g>
     </g>
    </g>
    <g id="ytick_12">
     <g id="line2d_46">
      <g>
       <use xlink:href="#m08ef0b245d" x="90" y="431.520903" style="stroke: #000000; stroke-width: 0.6"/>
      </g>
     </g>
    </g>
    <g id="ytick_13">
     <g id="line2d_47">
      <g>
       <use xlink:href="#m08ef0b245d" x="90" y="424.430894" style="stroke: #000000; stroke-width: 0.6"/>
      </g>
     </g>
    </g>
    <g id="ytick_14">
     <g id="line2d_48">
      <g>
       <use xlink:href="#m08ef0b245d" x="90" y="418.436376" style="stroke: #000000; stroke-width: 0.6"/>
      </g>
     </g>
    </g>
    <g id="ytick_15">
     <g id="line2d_49">
      <g>
       <use xlink:href="#m08ef0b245d" x="90" y="413.243689" style="stroke: #000000; stroke-width: 0.6"/>
      </g>
     </g>
    </g>
    <g id="ytick_16">
     <g id="line2d_50">
      <g>
       <use xlink:href="#m08ef0b245d" x="90" y="408.663414" style="stroke: #000000; stroke-width: 0.6"/>
      </g>
     </g>
    </g>
    <g id="ytick_17">
     <g id="line2d_51">
      <g>
       <use xlink:href="#m08ef0b245d" x="90" y="377.611534" style="stroke: #000000; stroke-width: 0.6"/>
      </g>
     </g>
    </g>
    <g id="ytick_18">
     <g id="line2d_52">
      <g>
       <use xlink:href="#m08ef0b245d" x="90" y="361.844055" style="stroke: #000000; stroke-width: 0.6"/>
      </g>
     </g>
    </g>
    <g id="ytick_19">
     <g id="line2d_53">
      <g>
       <use xlink:href="#m08ef0b245d" x="90" y="350.65685" style="stroke: #000000; stroke-width: 0.6"/>
      </g>
     </g>
    </g>
    <g id="ytick_20">
     <g id="line2d_54">
      <g>
       <use xlink:href="#m08ef0b245d" x="90" y="341.97938" style="stroke: #000000; stroke-width: 0.6"/>
      </g>
     </g>
    </g>
    <g id="ytick_21">
     <g id="line2d_55">
      <g>
       <use xlink:href="#m08ef0b245d" x="90" y="334.88937" style="stroke: #000000; stroke-width: 0.6"/>
      </g>
     </g>
    </g>
    <g id="ytick_22">
     <g id="line2d_56">
      <g>
       <use xlink:href="#m08ef0b245d" x="90" y="328.894853" style="stroke: #000000; stroke-width: 0.6"/>
      </g>
     </g>
    </g>
    <g id="ytick_23">
     <g id="line2d_57">
      <g>
       <use xlink:href="#m08ef0b245d" x="90" y="323.702166" style="stroke: #000000; stroke-width: 0.6"/>
      </g>
     </g>
    </g>
    <g id="ytick_24">
     <g id="line2d_58">
      <g>
       <use xlink:href="#m08ef0b245d" x="90" y="319.121891" style="stroke: #000000; stroke-width: 0.6"/>
      </g>
     </g>
    </g>
    <g id="ytick_25">
     <g id="line2d_59">
      <g>
       <use xlink:href="#m08ef0b245d" x="90" y="288.070011" style="stroke: #000000; stroke-width: 0.6"/>
      </g>
     </g>
    </g>
    <g id="ytick_26">
     <g id="line2d_60">
      <g>
       <use xlink:href="#m08ef0b245d" x="90" y="272.302531" style="stroke: #000000; stroke-width: 0.6"/>
      </g>
     </g>
    </g>
    <g id="ytick_27">
     <g id="line2d_61">
      <g>
       <use xlink:href="#m08ef0b245d" x="90" y="261.115326" style="stroke: #000000; stroke-width: 0.6"/>
      </g>
     </g>
    </g>
    <g id="ytick_28">
     <g id="line2d_62">
      <g>
       <use xlink:href="#m08ef0b245d" x="90" y="252.437856" style="stroke: #000000; stroke-width: 0.6"/>
      </g>
     </g>
    </g>
    <g id="ytick_29">
     <g id="line2d_63">
      <g>
       <use xlink:href="#m08ef0b245d" x="90" y="245.347847" style="stroke: #000000; stroke-width: 0.6"/>
      </g>
     </g>
    </g>
    <g id="ytick_30">
     <g id="line2d_64">
      <g>
       <use xlink:href="#m08ef0b245d" x="90" y="239.353329" style="stroke: #000000; stroke-width: 0.6"/>
      </g>
     </g>
    </g>
    <g id="ytick_31">
     <g id="line2d_65">
      <g>
       <use xlink:href="#m08ef0b245d" x="90" y="234.160642" style="stroke: #000000; stroke-width: 0.6"/>
      </g>
     </g>
    </g>
    <g id="ytick_32">
     <g id="line2d_66">
      <g>
       <use xlink:href="#m08ef0b245d" x="90" y="229.580367" style="stroke: #000000; stroke-width: 0.6"/>
      </g>
     </g>
    </g>
    <g id="ytick_33">
     <g id="line2d_67">
      <g>
       <use xlink:href="#m08ef0b245d" x="90" y="198.528487" style="stroke: #000000; stroke-width: 0.6"/>
      </g>
     </g>
    </g>
    <g id="ytick_34">
     <g id="line2d_68">
      <g>
       <use xlink:href="#m08ef0b245d" x="90" y="182.761008" style="stroke: #000000; stroke-width: 0.6"/>
      </g>
     </g>
    </g>
    <g id="ytick_35">
     <g id="line2d_69">
      <g>
       <use xlink:href="#m08ef0b245d" x="90" y="171.573803" style="stroke: #000000; stroke-width: 0.6"/>
      </g>
     </g>
    </g>
    <g id="ytick_36">
     <g id="line2d_70">
      <g>
       <use xlink:href="#m08ef0b245d" x="90" y="162.896332" style="stroke: #000000; stroke-width: 0.6"/>
      </g>
     </g>
    </g>
    <g id="ytick_37">
     <g id="line2d_71">
      <g>
       <use xlink:href="#m08ef0b245d" x="90" y="155.806323" style="stroke: #000000; stroke-width: 0.6"/>
      </g>
     </g>
    </g>
    <g id="ytick_38">
     <g id="line2d_72">
      <g>
       <use xlink:href="#m08ef0b245d" x="90" y="149.811806" style="stroke: #000000; stroke-width: 0.6"/>
      </g>
     </g>
    </g>
    <g id="ytick_39">
     <g id="line2d_73">
      <g>
       <use xlink:href="#m08ef0b245d" x="90" y="144.619118" style="stroke: #000000; stroke-width: 0.6"/>
      </g>
     </g>
    </g>
    <g id="ytick_40">
     <g id="line2d_74">
      <g>
       <use xlink:href="#m08ef0b245d" x="90" y="140.038843" style="stroke: #000000; stroke-width: 0.6"/>
      </g>
     </g>
    </g>
    <g id="ytick_41">
     <g id="line2d_75">
      <g>
       <use xlink:href="#m08ef0b245d" x="90" y="108.986964" style="stroke: #000000; stroke-width: 0.6"/>
      </g>
     </g>
    </g>
    <g id="ytick_42">
     <g id="line2d_76">
      <g>
       <use xlink:href="#m08ef0b245d" x="90" y="93.219484" style="stroke: #000000; stroke-width: 0.6"/>
      </g>
     </g>
    </g>
    <g id="ytick_43">
     <g id="line2d_77">
      <g>
       <use xlink:href="#m08ef0b245d" x="90" y="82.032279" style="stroke: #000000; stroke-width: 0.6"/>
      </g>
     </g>
    </g>
    <g id="ytick_44">
     <g id="line2d_78">
      <g>
       <use xlink:href="#m08ef0b245d" x="90" y="73.354809" style="stroke: #000000; stroke-width: 0.6"/>
      </g>
     </g>
    </g>
    <g id="text_13">
     <!-- Normalized spectral density -->
     <g transform="translate(38.0725 402.78375) rotate(-90) scale(0.16 -0.16)">
      <defs>
       <path id="DejaVuSans-4e" d="M 628 4666 
L 1478 4666 
L 3547 763 
L 3547 4666 
L 4159 4666 
L 4159 0 
L 3309 0 
L 1241 3903 
L 1241 0 
L 628 0 
L 628 4666 
z
" transform="scale(0.015625)"/>
       <path id="DejaVuSans-6f" d="M 1959 3097 
Q 1497 3097 1228 2736 
Q 959 2375 959 1747 
Q 959 1119 1226 758 
Q 1494 397 1959 397 
Q 2419 397 2687 759 
Q 2956 1122 2956 1747 
Q 2956 2369 2687 2733 
Q 2419 3097 1959 3097 
z
M 1959 3584 
Q 2709 3584 3137 3096 
Q 3566 2609 3566 1747 
Q 3566 888 3137 398 
Q 2709 -91 1959 -91 
Q 1206 -91 779 398 
Q 353 888 353 1747 
Q 353 2609 779 3096 
Q 1206 3584 1959 3584 
z
" transform="scale(0.015625)"/>
       <path id="DejaVuSans-6d" d="M 3328 2828 
Q 3544 3216 3844 3400 
Q 4144 3584 4550 3584 
Q 5097 3584 5394 3201 
Q 5691 2819 5691 2113 
L 5691 0 
L 5113 0 
L 5113 2094 
Q 5113 2597 4934 2840 
Q 4756 3084 4391 3084 
Q 3944 3084 3684 2787 
Q 3425 2491 3425 1978 
L 3425 0 
L 2847 0 
L 2847 2094 
Q 2847 2600 2669 2842 
Q 2491 3084 2119 3084 
Q 1678 3084 1418 2786 
Q 1159 2488 1159 1978 
L 1159 0 
L 581 0 
L 581 3500 
L 1159 3500 
L 1159 2956 
Q 1356 3278 1631 3431 
Q 1906 3584 2284 3584 
Q 2666 3584 2933 3390 
Q 3200 3197 3328 2828 
z
" transform="scale(0.015625)"/>
       <path id="DejaVuSans-61" d="M 2194 1759 
Q 1497 1759 1228 1600 
Q 959 1441 959 1056 
Q 959 750 1161 570 
Q 1363 391 1709 391 
Q 2188 391 2477 730 
Q 2766 1069 2766 1631 
L 2766 1759 
L 2194 1759 
z
M 3341 1997 
L 3341 0 
L 2766 0 
L 2766 531 
Q 2569 213 2275 61 
Q 1981 -91 1556 -91 
Q 1019 -91 701 211 
Q 384 513 384 1019 
Q 384 1609 779 1909 
Q 1175 2209 1959 2209 
L 2766 2209 
L 2766 2266 
Q 2766 2663 2505 2880 
Q 2244 3097 1772 3097 
Q 1472 3097 1187 3025 
Q 903 2953 641 2809 
L 641 3341 
Q 956 3463 1253 3523 
Q 1550 3584 1831 3584 
Q 2591 3584 2966 3190 
Q 3341 2797 3341 1997 
z
" transform="scale(0.015625)"/>
       <path id="DejaVuSans-6c" d="M 603 4863 
L 1178 4863 
L 1178 0 
L 603 0 
L 603 4863 
z
" transform="scale(0.015625)"/>
       <path id="DejaVuSans-69" d="M 603 3500 
L 1178 3500 
L 1178 0 
L 603 0 
L 603 3500 
z
M 603 4863 
L 1178 4863 
L 1178 4134 
L 603 4134 
L 603 4863 
z
" transform="scale(0.015625)"/>
       <path id="DejaVuSans-7a" d="M 353 3500 
L 3084 3500 
L 3084 2975 
L 922 459 
L 3084 459 
L 3084 0 
L 275 0 
L 275 525 
L 2438 3041 
L 353 3041 
L 353 3500 
z
" transform="scale(0.015625)"/>
       <path id="DejaVuSans-64" d="M 2906 2969 
L 2906 4863 
L 3481 4863 
L 3481 0 
L 2906 0 
L 2906 525 
Q 2725 213 2448 61 
Q 2172 -91 1784 -91 
Q 1150 -91 751 415 
Q 353 922 353 1747 
Q 353 2572 751 3078 
Q 1150 3584 1784 3584 
Q 2172 3584 2448 3432 
Q 2725 3281 2906 2969 
z
M 947 1747 
Q 947 1113 1208 752 
Q 1469 391 1925 391 
Q 2381 391 2643 752 
Q 2906 1113 2906 1747 
Q 2906 2381 2643 2742 
Q 2381 3103 1925 3103 
Q 1469 3103 1208 2742 
Q 947 2381 947 1747 
z
" transform="scale(0.015625)"/>
       <path id="DejaVuSans-20" transform="scale(0.015625)"/>
       <path id="DejaVuSans-73" d="M 2834 3397 
L 2834 2853 
Q 2591 2978 2328 3040 
Q 2066 3103 1784 3103 
Q 1356 3103 1142 2972 
Q 928 2841 928 2578 
Q 928 2378 1081 2264 
Q 1234 2150 1697 2047 
L 1894 2003 
Q 2506 1872 2764 1633 
Q 3022 1394 3022 966 
Q 3022 478 2636 193 
Q 2250 -91 1575 -91 
Q 1294 -91 989 -36 
Q 684 19 347 128 
L 347 722 
Q 666 556 975 473 
Q 1284 391 1588 391 
Q 1994 391 2212 530 
Q 2431 669 2431 922 
Q 2431 1156 2273 1281 
Q 2116 1406 1581 1522 
L 1381 1569 
Q 847 1681 609 1914 
Q 372 2147 372 2553 
Q 372 3047 722 3315 
Q 1072 3584 1716 3584 
Q 2034 3584 2315 3537 
Q 2597 3491 2834 3397 
z
" transform="scale(0.015625)"/>
       <path id="DejaVuSans-70" d="M 1159 525 
L 1159 -1331 
L 581 -1331 
L 581 3500 
L 1159 3500 
L 1159 2969 
Q 1341 3281 1617 3432 
Q 1894 3584 2278 3584 
Q 2916 3584 3314 3078 
Q 3713 2572 3713 1747 
Q 3713 922 3314 415 
Q 2916 -91 2278 -91 
Q 1894 -91 1617 61 
Q 1341 213 1159 525 
z
M 3116 1747 
Q 3116 2381 2855 2742 
Q 2594 3103 2138 3103 
Q 1681 3103 1420 2742 
Q 1159 2381 1159 1747 
Q 1159 1113 1420 752 
Q 1681 391 2138 391 
Q 2594 391 2855 752 
Q 3116 1113 3116 1747 
z
" transform="scale(0.015625)"/>
       <path id="DejaVuSans-74" d="M 1172 4494 
L 1172 3500 
L 2356 3500 
L 2356 3053 
L 1172 3053 
L 1172 1153 
Q 1172 725 1289 603 
Q 1406 481 1766 481 
L 2356 481 
L 2356 0 
L 1766 0 
Q 1100 0 847 248 
Q 594 497 594 1153 
L 594 3053 
L 172 3053 
L 172 3500 
L 594 3500 
L 594 4494 
L 1172 4494 
z
" transform="scale(0.015625)"/>
      </defs>
      <use xlink:href="#DejaVuSans-4e"/>
      <use xlink:href="#DejaVuSans-6f" transform="translate(74.804688 0)"/>
      <use xlink:href="#DejaVuSans-72" transform="translate(135.986328 0)"/>
      <use xlink:href="#DejaVuSans-6d" transform="translate(175.349609 0)"/>
      <use xlink:href="#DejaVuSans-61" transform="translate(272.761719 0)"/>
      <use xlink:href="#DejaVuSans-6c" transform="translate(334.041016 0)"/>
      <use xlink:href="#DejaVuSans-69" transform="translate(361.824219 0)"/>
      <use xlink:href="#DejaVuSans-7a" transform="translate(389.607422 0)"/>
      <use xlink:href="#DejaVuSans-65" transform="translate(442.097656 0)"/>
      <use xlink:href="#DejaVuSans-64" transform="translate(503.621094 0)"/>
      <use xlink:href="#DejaVuSans-20" transform="translate(567.097656 0)"/>
      <use xlink:href="#DejaVuSans-73" transform="translate(598.884766 0)"/>
      <use xlink:href="#DejaVuSans-70" transform="translate(650.984375 0)"/>
      <use xlink:href="#DejaVuSans-65" transform="translate(714.460938 0)"/>
      <use xlink:href="#DejaVuSans-63" transform="translate(775.984375 0)"/>
      <use xlink:href="#DejaVuSans-74" transform="translate(830.964844 0)"/>
      <use xlink:href="#DejaVuSans-72" transform="translate(870.173828 0)"/>
      <use xlink:href="#DejaVuSans-61" transform="translate(911.287109 0)"/>
      <use xlink:href="#DejaVuSans-6c" transform="translate(972.566406 0)"/>
      <use xlink:href="#DejaVuSans-20" transform="translate(1000.349609 0)"/>
      <use xlink:href="#DejaVuSans-64" transform="translate(1032.136719 0)"/>
      <use xlink:href="#DejaVuSans-65" transform="translate(1095.613281 0)"/>
      <use xlink:href="#DejaVuSans-6e" transform="translate(1157.136719 0)"/>
      <use xlink:href="#DejaVuSans-73" transform="translate(1220.515625 0)"/>
      <use xlink:href="#DejaVuSans-69" transform="translate(1272.615234 0)"/>
      <use xlink:href="#DejaVuSans-74" transform="translate(1300.398438 0)"/>
      <use xlink:href="#DejaVuSans-79" transform="translate(1339.607422 0)"/>
     </g>
    </g>
   </g>
   <g id="line2d_79">
    <path d="M 115.363636 103.729041 
L 184.644941 89.28 
L 225.171905 107.697046 
L 253.926245 129.626838 
L 276.229843 144.529943 
L 294.45321 155.826147 
L 309.860847 162.393955 
L 323.207549 167.350674 
L 334.980175 170.2599 
L 345.511147 172.20661 
L 363.734514 178.515892 
L 371.734926 183.120773 
L 379.142151 185.913513 
L 386.038112 190.121226 
L 392.488853 193.26592 
L 398.548393 195.479934 
L 404.261479 198.40108 
L 409.665594 200.248526 
L 414.792451 202.92384 
L 419.669116 204.499673 
L 424.318875 206.480848 
L 428.761908 208.207469 
L 433.015818 209.202031 
L 437.096049 209.383651 
L 441.01623 210.534844 
L 444.788444 212.271739 
L 448.423455 214.398904 
L 451.930895 215.766708 
L 455.319416 217.611226 
L 458.596818 219.842498 
L 461.770157 220.977587 
L 464.84584 221.557257 
L 467.829697 224.907195 
L 476.281359 230.281727 
L 478.946899 230.83352 
L 481.543195 233.626725 
L 484.073755 234.409158 
L 486.541826 237.783294 
L 488.95042 238.653341 
L 491.302335 240.253824 
L 493.600179 241.969216 
L 495.846381 244.194419 
L 498.043212 245.69298 
L 500.192796 248.199473 
L 502.297122 249.619159 
L 504.358057 249.399239 
L 506.377354 252.229525 
L 508.356662 253.568274 
L 510.297534 256.072221 
L 512.201435 258.808422 
L 514.069748 259.699936 
L 515.903777 261.922493 
L 517.704759 262.154814 
L 519.473863 265.000736 
L 521.212199 269.482997 
L 522.920819 271.38097 
L 524.60072 271.265981 
L 526.252854 272.74584 
L 527.878122 275.553329 
L 529.477385 276.675332 
L 531.051461 276.866057 
L 532.601132 280.318055 
L 534.127144 281.295306 
L 535.630207 283.452951 
L 537.111001 286.078553 
L 538.570177 287.180773 
L 540.008357 288.632984 
L 541.426137 289.602012 
L 542.824087 291.340741 
L 544.202754 293.469453 
L 545.562664 295.127009 
L 546.904319 297.051129 
L 548.228203 299.269927 
L 549.534781 299.995662 
L 550.824499 299.433343 
L 552.097788 302.859231 
L 553.355059 305.478323 
L 554.596713 304.570523 
L 555.82313 307.524341 
L 557.034682 308.496437 
L 558.231724 311.497933 
L 559.414599 313.867439 
L 560.583639 314.309337 
L 561.739164 316.162619 
L 562.881483 320.718237 
L 564.010894 321.494731 
L 565.127685 325.110673 
L 566.232136 326.161872 
L 567.324516 327.785357 
L 568.405087 330.563952 
L 569.4741 330.517701 
L 570.531801 334.351815 
L 571.578426 335.072555 
L 572.614205 335.505157 
L 573.639361 339.286737 
L 574.654109 338.973698 
L 575.658658 338.806658 
L 576.653211 340.941425 
L 577.637966 342.784636 
L 578.613113 342.66484 
L 580.535322 343.094704 
L 581.48274 342.894333 
L 582.421261 346.80242 
L 583.351052 346.518703 
L 584.272273 344.033642 
L 585.185081 347.031539 
L 587.874529 353.55499 
L 588.755168 354.198206 
L 589.628115 359.108348 
L 590.493504 359.125848 
L 592.202123 363.909524 
L 593.045603 365.68024 
L 593.882024 364.848949 
L 594.711505 366.080478 
L 595.534158 364.626223 
L 596.350095 365.481547 
L 597.159426 364.075539 
L 597.962256 363.478944 
L 598.758689 363.723998 
L 599.548826 362.911622 
L 600.332765 362.612355 
L 601.110604 361.84639 
L 601.882437 362.400928 
L 602.648355 364.115685 
L 603.408448 365.121795 
L 604.162805 366.775545 
L 604.911511 364.489073 
L 605.65465 366.302495 
L 606.392305 366.480857 
L 607.124556 367.03991 
L 607.851481 369.215693 
L 608.573158 370.960449 
L 609.289661 371.051752 
L 610.001065 371.347412 
L 610.707441 373.760025 
L 611.40886 373.904376 
L 612.105391 373.855917 
L 612.797102 379.208847 
L 613.484058 379.621351 
L 614.166326 382.143459 
L 614.843968 382.013127 
L 615.517046 387.635882 
L 616.185623 388.252425 
L 616.849757 390.464613 
L 618.164931 395.708302 
L 619.463024 408.701557 
L 620.105803 412.514371 
L 621.379092 423.538735 
L 622.009705 431.272071 
L 622.636364 440.852223 
L 622.636364 440.852223 
" clip-path="url(#pfef2fac070)" style="fill: none; stroke: #440154; stroke-width: 2; stroke-linecap: square"/>
   </g>
   <g id="line2d_80">
    <path d="M 115.363636 124.545259 
L 184.644941 100.713993 
L 225.171905 103.432565 
L 253.926245 112.508532 
L 276.229843 122.826768 
L 294.45321 135.389172 
L 323.207549 151.609915 
L 334.980175 159.959562 
L 345.511147 165.153662 
L 355.037571 169.030239 
L 371.734926 177.476523 
L 379.142151 180.948441 
L 386.038112 184.999064 
L 398.548393 188.494757 
L 404.261479 191.874229 
L 409.665594 194.890644 
L 414.792451 198.975837 
L 419.669116 201.456701 
L 424.318875 205.244239 
L 428.761908 209.96189 
L 433.015818 211.292029 
L 437.096049 215.769348 
L 441.01623 217.882287 
L 444.788444 218.877581 
L 448.423455 220.025967 
L 451.930895 222.034545 
L 455.319416 226.081441 
L 458.596818 229.633219 
L 461.770157 230.638136 
L 464.84584 233.103256 
L 467.829697 235.693994 
L 470.727053 240.476097 
L 473.542783 243.741765 
L 478.946899 247.477152 
L 481.543195 251.17403 
L 484.073755 252.445541 
L 486.541826 255.65591 
L 488.95042 256.665571 
L 491.302335 261.953964 
L 493.600179 263.514894 
L 495.846381 266.218577 
L 498.043212 269.272921 
L 500.192796 269.982592 
L 502.297122 272.478035 
L 504.358057 275.523636 
L 506.377354 277.302687 
L 508.356662 277.995878 
L 510.297534 281.463599 
L 512.201435 283.862228 
L 514.069748 286.002159 
L 515.903777 287.308778 
L 517.704759 289.939286 
L 519.473863 292.088443 
L 521.212199 295.478315 
L 522.920819 297.120595 
L 524.60072 298.341653 
L 526.252854 298.201919 
L 527.878122 303.40253 
L 529.477385 306.941529 
L 531.051461 307.794401 
L 532.601132 308.434811 
L 534.127144 310.681249 
L 535.630207 313.768749 
L 537.111001 313.747288 
L 538.570177 314.398052 
L 540.008357 316.372886 
L 541.426137 319.573861 
L 542.824087 321.912831 
L 544.202754 322.680754 
L 546.904319 322.413953 
L 548.228203 324.809862 
L 549.534781 325.288956 
L 550.824499 326.445006 
L 552.097788 327.990794 
L 553.355059 327.830584 
L 554.596713 330.577968 
L 555.82313 333.707726 
L 557.034682 334.156242 
L 558.231724 336.928537 
L 559.414599 337.623551 
L 560.583639 340.008004 
L 561.739164 341.154862 
L 562.881483 341.587993 
L 564.010894 346.130947 
L 565.127685 347.083833 
L 566.232136 349.33413 
L 567.324516 352.361918 
L 568.405087 351.130275 
L 569.4741 353.380702 
L 570.531801 355.326063 
L 571.578426 356.627905 
L 572.614205 357.125805 
L 573.639361 359.548083 
L 574.654109 360.424209 
L 575.658658 363.182247 
L 576.653211 364.928752 
L 577.637966 363.75343 
L 578.613113 365.860305 
L 580.535322 366.211371 
L 581.48274 366.141313 
L 582.421261 366.922294 
L 583.351052 368.698806 
L 584.272273 368.583494 
L 586.089628 372.33755 
L 586.986063 375.839945 
L 587.874529 378.802393 
L 588.755168 379.616822 
L 589.628115 382.949489 
L 590.493504 387.072532 
L 592.202123 391.248782 
L 593.045603 391.191977 
L 593.882024 390.975037 
L 594.711505 394.047615 
L 596.350095 392.068046 
L 597.159426 390.025905 
L 597.962256 386.235944 
L 598.758689 388.312461 
L 599.548826 389.837504 
L 600.332765 386.339436 
L 601.110604 388.115364 
L 601.882437 387.060592 
L 602.648355 386.301663 
L 603.408448 391.02198 
L 604.162805 390.643952 
L 604.911511 392.475723 
L 605.65465 391.085181 
L 606.392305 391.526594 
L 607.124556 392.120354 
L 607.851481 392.351697 
L 608.573158 394.663054 
L 609.289661 398.064748 
L 610.001065 396.692877 
L 610.707441 399.37039 
L 611.40886 400.387634 
L 612.105391 401.979989 
L 612.797102 402.090365 
L 613.484058 402.520992 
L 614.166326 403.563656 
L 614.843968 405.842127 
L 615.517046 405.409302 
L 616.185623 411.585453 
L 616.849757 415.416548 
L 618.164931 419.398504 
L 618.816085 424.945532 
L 619.463024 427.549361 
L 620.105803 433.907148 
L 621.379092 449.709521 
L 622.009705 455.655394 
L 622.636364 463.426243 
L 622.636364 463.426243 
" clip-path="url(#pfef2fac070)" style="fill: none; stroke: #443983; stroke-width: 2; stroke-linecap: square"/>
   </g>
   <g id="line2d_81">
    <path d="M 115.363636 152.943596 
L 184.644941 133.225083 
L 225.171905 138.602516 
L 253.926245 144.896815 
L 276.229843 147.479317 
L 294.45321 146.436013 
L 309.860847 143.843503 
L 323.207549 138.483217 
L 334.980175 135.267421 
L 345.511147 137.239617 
L 355.037571 137.588229 
L 363.734514 140.968868 
L 371.734926 149.991796 
L 379.142151 155.962217 
L 386.038112 166.391531 
L 398.548393 182.550631 
L 404.261479 187.555669 
L 409.665594 189.731835 
L 414.792451 194.809509 
L 419.669116 197.832961 
L 424.318875 199.477005 
L 433.015818 203.317604 
L 437.096049 204.060022 
L 441.01623 204.024988 
L 444.788444 205.268141 
L 448.423455 207.571445 
L 455.319416 211.335674 
L 458.596818 213.517085 
L 461.770157 216.844284 
L 464.84584 220.424975 
L 467.829697 225.816909 
L 470.727053 228.854258 
L 473.542783 228.301142 
L 476.281359 230.280563 
L 478.946899 233.17552 
L 481.543195 236.24253 
L 484.073755 237.507315 
L 486.541826 238.592231 
L 488.95042 240.898043 
L 491.302335 244.258734 
L 495.846381 249.828083 
L 498.043212 254.547547 
L 500.192796 256.818432 
L 502.297122 259.657119 
L 504.358057 259.171161 
L 506.377354 262.189554 
L 508.356662 261.897648 
L 510.297534 264.646068 
L 512.201435 266.92858 
L 515.903777 272.55857 
L 517.704759 273.474441 
L 519.473863 275.583563 
L 521.212199 278.298369 
L 522.920819 283.114963 
L 524.60072 284.555586 
L 526.252854 285.718437 
L 527.878122 290.934156 
L 529.477385 291.825324 
L 531.051461 291.946895 
L 532.601132 294.755729 
L 534.127144 294.700844 
L 535.630207 297.236433 
L 537.111001 300.452031 
L 538.570177 304.227984 
L 540.008357 303.890917 
L 541.426137 305.61569 
L 542.824087 307.132746 
L 544.202754 307.49569 
L 545.562664 309.341538 
L 546.904319 311.392009 
L 548.228203 310.323896 
L 549.534781 312.530612 
L 550.824499 316.153958 
L 552.097788 317.532935 
L 553.355059 316.528284 
L 554.596713 320.102999 
L 555.82313 321.147971 
L 558.231724 325.43952 
L 559.414599 325.875296 
L 561.739164 331.698056 
L 562.881483 333.094971 
L 564.010894 336.061765 
L 565.127685 337.342297 
L 566.232136 339.087831 
L 568.405087 343.845414 
L 569.4741 345.311084 
L 570.531801 348.270096 
L 571.578426 349.936031 
L 572.614205 353.15688 
L 573.639361 356.847358 
L 574.654109 357.832214 
L 575.658658 355.986811 
L 576.653211 358.463861 
L 577.637966 358.8854 
L 578.613113 359.921865 
L 579.578838 358.713382 
L 580.535322 358.505425 
L 581.48274 360.883696 
L 582.421261 360.25629 
L 583.351052 360.167878 
L 584.272273 364.027235 
L 586.089628 366.301432 
L 586.986063 370.276572 
L 587.874529 369.676076 
L 588.755168 373.56971 
L 590.493504 377.782643 
L 591.351464 381.941474 
L 592.202123 383.696457 
L 593.045603 384.816594 
L 593.882024 383.562576 
L 594.711505 387.073882 
L 595.534158 386.784345 
L 596.350095 386.353529 
L 597.159426 384.105291 
L 597.962256 383.957037 
L 598.758689 383.330393 
L 599.548826 381.969103 
L 600.332765 382.202097 
L 601.110604 383.686702 
L 601.882437 382.830006 
L 602.648355 384.939623 
L 603.408448 385.753845 
L 604.162805 385.918027 
L 604.911511 385.664412 
L 605.65465 386.588267 
L 606.392305 386.203062 
L 607.851481 391.480698 
L 608.573158 390.198149 
L 609.289661 389.651113 
L 610.001065 391.18496 
L 610.707441 393.136341 
L 611.40886 391.83662 
L 612.105391 396.08628 
L 612.797102 396.879638 
L 613.484058 398.432932 
L 614.166326 401.31872 
L 614.843968 401.34715 
L 615.517046 402.276247 
L 616.849757 409.241387 
L 617.509507 411.262131 
L 618.816085 420.187619 
L 619.463024 423.905287 
L 620.105803 429.03097 
L 620.744475 435.585902 
L 621.379092 444.267585 
L 622.009705 449.163431 
L 622.636364 457.125807 
L 622.636364 457.125807 
" clip-path="url(#pfef2fac070)" style="fill: none; stroke: #31688e; stroke-width: 2; stroke-linecap: square"/>
   </g>
   <g id="line2d_82">
    <path d="M 115.363636 164.986623 
L 184.644941 140.395411 
L 225.171905 143.425808 
L 253.926245 152.011751 
L 276.229843 157.373469 
L 294.45321 160.956636 
L 309.860847 159.643976 
L 323.207549 159.519728 
L 334.980175 157.130031 
L 345.511147 155.803414 
L 355.037571 148.614257 
L 363.734514 139.057565 
L 371.734926 127.561313 
L 379.142151 120.318418 
L 386.038112 123.133339 
L 392.488853 135.11996 
L 398.548393 154.76274 
L 404.261479 171.374301 
L 409.665594 186.295581 
L 414.792451 192.552845 
L 419.669116 199.536615 
L 424.318875 202.834592 
L 428.761908 206.535563 
L 433.015818 207.301302 
L 437.096049 206.484166 
L 441.01623 208.136142 
L 444.788444 209.30961 
L 451.930895 215.054343 
L 455.319416 214.210778 
L 461.770157 223.205317 
L 464.84584 228.871589 
L 467.829697 233.121014 
L 470.727053 239.565922 
L 473.542783 243.021252 
L 476.281359 246.703036 
L 478.946899 247.995774 
L 481.543195 253.800087 
L 484.073755 256.429227 
L 486.541826 258.485459 
L 488.95042 260.675212 
L 491.302335 265.278668 
L 493.600179 268.133997 
L 495.846381 271.253649 
L 498.043212 275.152512 
L 500.192796 276.53099 
L 504.358057 280.473954 
L 506.377354 284.754731 
L 508.356662 289.299242 
L 510.297534 291.555449 
L 514.069748 298.107141 
L 515.903777 299.347734 
L 517.704759 302.235009 
L 519.473863 304.182636 
L 521.212199 305.536121 
L 522.920819 309.240176 
L 524.60072 311.957239 
L 526.252854 316.727872 
L 527.878122 318.261729 
L 529.477385 320.023374 
L 531.051461 322.470412 
L 532.601132 324.277782 
L 534.127144 327.364357 
L 535.630207 327.721721 
L 537.111001 330.868126 
L 538.570177 332.434156 
L 540.008357 333.41032 
L 541.426137 335.188221 
L 542.824087 335.117804 
L 544.202754 338.485226 
L 545.562664 342.358627 
L 546.904319 343.888963 
L 548.228203 345.213887 
L 549.534781 347.365833 
L 550.824499 347.766072 
L 552.097788 349.579321 
L 553.355059 350.425145 
L 554.596713 351.464632 
L 555.82313 353.641158 
L 557.034682 357.743064 
L 558.231724 362.401835 
L 559.414599 362.646496 
L 560.583639 362.021422 
L 561.739164 364.233085 
L 562.881483 369.090284 
L 564.010894 370.596767 
L 565.127685 370.123347 
L 566.232136 374.296829 
L 567.324516 376.945539 
L 568.405087 381.17913 
L 569.4741 384.731487 
L 571.578426 388.628795 
L 572.614205 387.886787 
L 573.639361 394.397797 
L 574.654109 396.114506 
L 575.658658 392.890842 
L 576.653211 395.120453 
L 577.637966 394.5175 
L 578.613113 393.007044 
L 579.578838 395.112171 
L 580.535322 393.967026 
L 581.48274 395.317569 
L 582.421261 397.929481 
L 583.351052 396.27329 
L 584.272273 397.013281 
L 585.185081 399.175013 
L 586.089628 402.51859 
L 586.986063 404.90455 
L 587.874529 405.695216 
L 588.755168 409.458898 
L 589.628115 411.217764 
L 590.493504 412.390282 
L 591.351464 415.527968 
L 592.202123 416.38398 
L 593.045603 419.173515 
L 594.711505 420.352175 
L 595.534158 420.935721 
L 596.350095 417.127632 
L 597.159426 417.288749 
L 597.962256 417.735974 
L 598.758689 417.904772 
L 599.548826 418.854236 
L 600.332765 414.818704 
L 601.110604 416.058591 
L 601.882437 416.770208 
L 603.408448 421.105114 
L 604.162805 421.495055 
L 604.911511 421.259174 
L 605.65465 421.808459 
L 606.392305 422.153446 
L 607.124556 423.643226 
L 607.851481 423.449997 
L 608.573158 424.363914 
L 609.289661 426.068938 
L 610.001065 428.468766 
L 610.707441 427.161753 
L 611.40886 431.708398 
L 612.105391 434.280968 
L 612.797102 431.829636 
L 613.484058 433.623383 
L 614.166326 434.624566 
L 615.517046 441.279207 
L 616.185623 439.395303 
L 616.849757 441.839964 
L 617.509507 445.565102 
L 618.164931 451.36966 
L 618.816085 453.75631 
L 619.463024 458.189183 
L 620.105803 463.984831 
L 620.744475 471.210022 
L 621.379092 476.174424 
L 622.009705 482.134637 
L 622.636364 492.48 
L 622.636364 492.48 
" clip-path="url(#pfef2fac070)" style="fill: none; stroke: #21918c; stroke-width: 2; stroke-linecap: square"/>
   </g>
   <g id="line2d_83">
    <path d="M 115.363636 166.059588 
L 184.644941 144.577459 
L 225.171905 151.308286 
L 253.926245 160.848467 
L 294.45321 174.016047 
L 309.860847 176.417147 
L 323.207549 178.685678 
L 334.980175 178.359856 
L 345.511147 180.265272 
L 355.037571 180.189423 
L 363.734514 177.845699 
L 371.734926 171.459999 
L 379.142151 164.734149 
L 386.038112 152.607375 
L 392.488853 138.493023 
L 398.548393 124.031193 
L 404.261479 118.077108 
L 409.665594 126.348281 
L 414.792451 136.904602 
L 419.669116 154.294133 
L 424.318875 175.029346 
L 428.761908 184.863704 
L 433.015818 193.137249 
L 437.096049 197.920774 
L 441.01623 202.992693 
L 444.788444 206.376885 
L 455.319416 208.439163 
L 458.596818 209.414027 
L 461.770157 211.80108 
L 464.84584 208.972449 
L 467.829697 208.995455 
L 470.727053 208.582485 
L 473.542783 212.644017 
L 476.281359 219.848661 
L 478.946899 223.343905 
L 481.543195 227.930897 
L 484.073755 233.82425 
L 486.541826 238.854222 
L 488.95042 245.738963 
L 493.600179 252.143649 
L 495.846381 255.529228 
L 498.043212 260.335414 
L 500.192796 260.459726 
L 502.297122 264.506153 
L 504.358057 265.437392 
L 506.377354 268.916731 
L 508.356662 271.679899 
L 510.297534 273.64645 
L 512.201435 274.823752 
L 514.069748 278.919786 
L 515.903777 280.017744 
L 517.704759 282.989552 
L 519.473863 284.448071 
L 521.212199 290.425939 
L 522.920819 293.300649 
L 524.60072 295.672733 
L 526.252854 299.307448 
L 527.878122 301.881965 
L 529.477385 303.392154 
L 532.601132 308.751469 
L 534.127144 310.152614 
L 535.630207 311.815566 
L 537.111001 314.103412 
L 538.570177 315.921914 
L 540.008357 319.812931 
L 541.426137 321.529037 
L 542.824087 322.589451 
L 544.202754 326.544058 
L 545.562664 328.738738 
L 546.904319 328.849315 
L 548.228203 331.148913 
L 549.534781 335.039951 
L 550.824499 331.762246 
L 552.097788 335.812534 
L 553.355059 337.897747 
L 554.596713 339.086757 
L 557.034682 346.285993 
L 558.231724 344.561855 
L 559.414599 349.88846 
L 560.583639 352.098053 
L 561.739164 353.317922 
L 562.881483 357.405737 
L 564.010894 358.94694 
L 565.127685 363.631128 
L 566.232136 363.24987 
L 567.324516 369.62448 
L 568.405087 371.364068 
L 569.4741 370.707094 
L 570.531801 373.566501 
L 571.578426 379.191213 
L 572.614205 383.433315 
L 573.639361 385.243369 
L 574.654109 387.505326 
L 575.658658 383.372739 
L 576.653211 385.710852 
L 577.637966 384.981333 
L 578.613113 385.223103 
L 579.578838 385.762061 
L 580.535322 386.689395 
L 581.48274 385.273049 
L 582.421261 385.052373 
L 583.351052 386.99688 
L 584.272273 389.328966 
L 585.185081 389.022044 
L 586.089628 393.08844 
L 586.986063 395.168515 
L 587.874529 393.057341 
L 589.628115 399.620063 
L 590.493504 403.328052 
L 591.351464 403.116907 
L 592.202123 405.019536 
L 593.045603 407.832937 
L 593.882024 405.120797 
L 594.711505 405.363604 
L 595.534158 404.997876 
L 596.350095 410.172304 
L 597.159426 408.69181 
L 597.962256 406.365191 
L 598.758689 406.069019 
L 599.548826 405.418667 
L 600.332765 407.838358 
L 601.110604 408.5467 
L 601.882437 408.642534 
L 602.648355 409.61398 
L 603.408448 410.275248 
L 604.162805 410.145997 
L 604.911511 408.896621 
L 605.65465 410.859488 
L 606.392305 411.53639 
L 607.124556 413.107365 
L 608.573158 414.883815 
L 609.289661 418.758751 
L 610.001065 419.452031 
L 610.707441 421.335247 
L 611.40886 420.009042 
L 612.105391 419.569554 
L 613.484058 426.085514 
L 614.166326 426.550506 
L 614.843968 429.254929 
L 615.517046 429.99204 
L 616.185623 435.496126 
L 616.849757 437.159993 
L 617.509507 436.894832 
L 618.164931 442.205369 
L 618.816085 443.684755 
L 619.463024 452.751003 
L 620.105803 454.917509 
L 620.744475 462.02118 
L 621.379092 466.25402 
L 622.009705 474.387432 
L 622.636364 483.963707 
L 622.636364 483.963707 
" clip-path="url(#pfef2fac070)" style="fill: none; stroke: #35b779; stroke-width: 2; stroke-linecap: square"/>
   </g>
   <g id="line2d_84">
    <path d="M 115.363636 166.597341 
L 184.644941 147.093818 
L 225.171905 152.568061 
L 253.926245 163.698721 
L 276.229843 170.274275 
L 294.45321 178.158282 
L 309.860847 181.247029 
L 323.207549 180.187983 
L 334.980175 179.86153 
L 345.511147 181.069815 
L 355.037571 180.07331 
L 363.734514 177.587984 
L 371.734926 176.652248 
L 379.142151 175.532472 
L 386.038112 173.444349 
L 392.488853 174.622744 
L 398.548393 174.695143 
L 404.261479 169.970315 
L 409.665594 170.569543 
L 414.792451 166.751775 
L 419.669116 162.840273 
L 424.318875 161.820915 
L 428.761908 163.254292 
L 433.015818 160.244948 
L 437.096049 159.892557 
L 441.01623 158.958661 
L 444.788444 156.124764 
L 448.423455 156.508269 
L 451.930895 162.080744 
L 455.319416 166.292633 
L 458.596818 171.734778 
L 467.829697 185.022302 
L 473.542783 194.225592 
L 478.946899 204.945728 
L 481.543195 208.511222 
L 484.073755 211.586089 
L 486.541826 215.676613 
L 488.95042 219.972416 
L 491.302335 223.144832 
L 493.600179 225.202464 
L 495.846381 229.131603 
L 498.043212 232.590071 
L 500.192796 237.195361 
L 502.297122 242.152988 
L 504.358057 245.579212 
L 506.377354 246.985577 
L 508.356662 248.663088 
L 510.297534 251.601264 
L 512.201435 255.749798 
L 514.069748 258.834149 
L 515.903777 260.984642 
L 517.704759 263.937973 
L 519.473863 268.931957 
L 521.212199 270.001646 
L 522.920819 274.546556 
L 524.60072 276.515226 
L 526.252854 278.760942 
L 529.477385 285.363922 
L 531.051461 285.501225 
L 532.601132 289.426567 
L 534.127144 292.672842 
L 535.630207 294.026291 
L 537.111001 297.182426 
L 538.570177 298.650895 
L 540.008357 303.221715 
L 541.426137 304.485384 
L 542.824087 306.831647 
L 544.202754 306.521983 
L 546.904319 313.387188 
L 548.228203 315.123853 
L 549.534781 316.631477 
L 550.824499 317.802716 
L 552.097788 320.874286 
L 553.355059 320.677848 
L 554.596713 323.647524 
L 555.82313 325.778686 
L 557.034682 327.391843 
L 558.231724 329.720191 
L 559.414599 332.290484 
L 560.583639 336.885399 
L 561.739164 338.695354 
L 562.881483 341.850018 
L 564.010894 344.329205 
L 568.405087 356.540992 
L 569.4741 363.230551 
L 570.531801 363.311348 
L 571.578426 366.858261 
L 572.614205 370.799593 
L 573.639361 376.094866 
L 574.654109 378.258834 
L 575.658658 377.461734 
L 576.653211 381.214456 
L 577.637966 378.907162 
L 578.613113 377.411275 
L 579.578838 373.749171 
L 580.535322 373.427167 
L 581.48274 375.416594 
L 582.421261 373.565991 
L 583.351052 373.636433 
L 584.272273 375.016179 
L 585.185081 377.50545 
L 586.089628 380.41055 
L 586.986063 379.469266 
L 587.874529 379.402751 
L 588.755168 381.294753 
L 589.628115 385.311309 
L 590.493504 386.801925 
L 591.351464 387.785973 
L 592.202123 388.958804 
L 593.045603 390.516487 
L 593.882024 389.354255 
L 594.711505 391.46862 
L 595.534158 392.789209 
L 596.350095 392.822922 
L 597.159426 393.358501 
L 597.962256 394.228143 
L 598.758689 394.01613 
L 599.548826 394.040579 
L 600.332765 396.876892 
L 601.110604 397.144989 
L 601.882437 395.246267 
L 603.408448 398.823255 
L 604.162805 398.734776 
L 605.65465 402.70633 
L 606.392305 403.801996 
L 607.124556 404.612102 
L 607.851481 401.768293 
L 608.573158 406.647706 
L 609.289661 407.781307 
L 610.001065 411.094585 
L 610.707441 410.347433 
L 611.40886 412.474855 
L 612.105391 412.648616 
L 612.797102 415.017203 
L 613.484058 416.903279 
L 614.166326 416.735454 
L 614.843968 418.375586 
L 615.517046 422.392587 
L 616.185623 423.92383 
L 616.849757 426.190747 
L 617.509507 430.429437 
L 618.164931 433.410459 
L 619.463024 442.108143 
L 620.744475 452.810846 
L 622.636364 477.87209 
L 622.636364 477.87209 
" clip-path="url(#pfef2fac070)" style="fill: none; stroke: #90d743; stroke-width: 2; stroke-linecap: square"/>
   </g>
   <g id="line2d_85">
    <path d="M 115.363636 161.944301 
L 184.644941 145.64263 
L 225.171905 153.369022 
L 253.926245 162.302647 
L 276.229843 168.362557 
L 294.45321 170.936225 
L 309.860847 171.368547 
L 323.207549 170.183674 
L 334.980175 168.764782 
L 345.511147 169.065784 
L 355.037571 169.487661 
L 363.734514 170.007741 
L 371.734926 173.872758 
L 379.142151 177.073463 
L 386.038112 178.966117 
L 392.488853 181.804611 
L 398.548393 187.734587 
L 404.261479 189.873831 
L 409.665594 192.482142 
L 414.792451 194.155495 
L 419.669116 196.779469 
L 424.318875 198.13367 
L 428.761908 196.580649 
L 433.015818 196.267282 
L 437.096049 197.75647 
L 441.01623 195.33188 
L 444.788444 192.432003 
L 448.423455 190.205481 
L 451.930895 189.617193 
L 455.319416 186.477536 
L 458.596818 185.827563 
L 461.770157 186.37095 
L 464.84584 182.326633 
L 467.829697 180.341612 
L 470.727053 182.763329 
L 473.542783 180.0241 
L 476.281359 180.791039 
L 478.946899 181.795184 
L 481.543195 181.712376 
L 484.073755 180.215588 
L 486.541826 182.282713 
L 488.95042 185.791267 
L 491.302335 188.040457 
L 493.600179 192.12316 
L 495.846381 194.385864 
L 498.043212 196.118829 
L 500.192796 199.017737 
L 502.297122 204.266243 
L 504.358057 206.238714 
L 506.377354 210.154634 
L 508.356662 213.231257 
L 510.297534 218.890595 
L 512.201435 220.538245 
L 514.069748 223.331565 
L 515.903777 227.187808 
L 517.704759 230.347877 
L 519.473863 232.891822 
L 521.212199 237.028576 
L 526.252854 245.009826 
L 527.878122 246.574979 
L 529.477385 247.803381 
L 531.051461 250.545517 
L 532.601132 253.578768 
L 534.127144 255.519489 
L 535.630207 258.894071 
L 537.111001 260.042422 
L 540.008357 263.020816 
L 541.426137 265.099383 
L 542.824087 267.57127 
L 544.202754 268.363577 
L 545.562664 271.309818 
L 546.904319 272.623779 
L 548.228203 273.634244 
L 549.534781 275.050635 
L 550.824499 277.909396 
L 552.097788 279.367099 
L 553.355059 279.025597 
L 554.596713 280.88517 
L 555.82313 282.154318 
L 557.034682 285.288158 
L 559.414599 289.438017 
L 560.583639 291.35817 
L 561.739164 294.458652 
L 562.881483 296.773588 
L 564.010894 297.987601 
L 565.127685 300.612401 
L 566.232136 304.325132 
L 567.324516 306.404408 
L 568.405087 309.477304 
L 569.4741 310.807755 
L 570.531801 312.947828 
L 572.614205 324.065975 
L 573.639361 326.792776 
L 574.654109 327.915578 
L 575.658658 327.355674 
L 576.653211 325.853907 
L 578.613113 328.256685 
L 579.578838 327.010457 
L 580.535322 328.109067 
L 581.48274 328.526715 
L 582.421261 328.367301 
L 583.351052 331.974446 
L 584.272273 333.345931 
L 585.185081 334.264114 
L 586.089628 336.424764 
L 586.986063 339.157341 
L 587.874529 339.036446 
L 588.755168 341.673677 
L 589.628115 344.80751 
L 593.045603 354.765104 
L 593.882024 351.866457 
L 594.711505 353.681422 
L 595.534158 354.819871 
L 596.350095 356.155942 
L 597.159426 354.57658 
L 597.962256 354.361041 
L 598.758689 353.234148 
L 599.548826 353.24604 
L 600.332765 352.077934 
L 601.882437 356.270925 
L 602.648355 357.337269 
L 603.408448 359.422948 
L 604.162805 359.399471 
L 604.911511 359.750263 
L 605.65465 358.704398 
L 606.392305 360.743692 
L 607.124556 363.878317 
L 607.851481 364.455621 
L 608.573158 364.494243 
L 609.289661 368.791074 
L 610.001065 370.909291 
L 610.707441 372.510909 
L 611.40886 372.714186 
L 612.105391 371.693159 
L 612.797102 375.039673 
L 613.484058 376.790547 
L 614.166326 377.860862 
L 614.843968 380.636356 
L 615.517046 381.93462 
L 616.849757 388.100532 
L 617.509507 393.760375 
L 618.164931 396.10924 
L 620.105803 410.517786 
L 620.744475 412.374608 
L 621.379092 421.233741 
L 622.009705 428.239463 
L 622.636364 437.125789 
L 622.636364 437.125789 
" clip-path="url(#pfef2fac070)" style="fill: none; stroke: #fde725; stroke-width: 2; stroke-linecap: square"/>
   </g>
   <g id="line2d_86">
    <path d="M 115.363636 133.072006 
L 184.644941 114.062912 
L 225.171905 124.15978 
L 253.926245 136.548777 
L 276.229843 145.044351 
L 294.45321 151.557943 
L 309.860847 155.279148 
L 323.207549 157.845207 
L 334.980175 160.834881 
L 345.511147 163.361183 
L 355.037571 164.673889 
L 363.734514 166.911778 
L 371.734926 169.685363 
L 379.142151 170.61113 
L 386.038112 172.945698 
L 392.488853 175.263143 
L 398.548393 177.220794 
L 404.261479 178.940902 
L 409.665594 183.127023 
L 414.792451 184.505 
L 419.669116 187.690931 
L 424.318875 190.080609 
L 428.761908 190.332837 
L 433.015818 193.095882 
L 437.096049 193.0457 
L 441.01623 194.122606 
L 448.423455 198.337831 
L 451.930895 199.602757 
L 455.319416 201.583885 
L 458.596818 203.787668 
L 461.770157 205.586373 
L 464.84584 207.514192 
L 467.829697 208.992638 
L 473.542783 213.425938 
L 476.281359 215.306172 
L 478.946899 217.598819 
L 481.543195 219.161912 
L 484.073755 221.457702 
L 486.541826 223.965258 
L 488.95042 227.013764 
L 491.302335 228.871279 
L 493.600179 230.184919 
L 495.846381 233.752392 
L 498.043212 236.019145 
L 500.192796 238.982783 
L 502.297122 240.634421 
L 504.358057 242.051488 
L 506.377354 244.890815 
L 508.356662 247.299971 
L 514.069748 251.136274 
L 515.903777 252.357107 
L 517.704759 254.255025 
L 521.212199 260.600148 
L 522.920819 262.45097 
L 524.60072 263.490674 
L 526.252854 266.393855 
L 527.878122 268.489558 
L 529.477385 270.048027 
L 531.051461 270.838711 
L 532.601132 272.461283 
L 534.127144 274.968266 
L 535.630207 276.223476 
L 537.111001 278.517249 
L 538.570177 279.216913 
L 540.008357 281.311658 
L 541.426137 281.652309 
L 542.824087 284.074333 
L 544.202754 285.077163 
L 545.562664 287.241959 
L 546.904319 290.341772 
L 548.228203 291.05649 
L 549.534781 292.586744 
L 550.824499 293.60734 
L 552.097788 294.822721 
L 553.355059 296.403535 
L 555.82313 298.442415 
L 557.034682 300.154694 
L 558.231724 302.622664 
L 559.414599 303.787272 
L 560.583639 306.194191 
L 561.739164 307.876762 
L 562.881483 310.898332 
L 564.010894 313.519827 
L 565.127685 315.465364 
L 566.232136 318.086683 
L 567.324516 319.795786 
L 568.405087 321.830138 
L 569.4741 324.311015 
L 570.531801 328.056829 
L 571.578426 331.01872 
L 572.614205 332.392999 
L 573.639361 334.728748 
L 574.654109 338.757699 
L 575.658658 338.420424 
L 576.653211 340.420426 
L 577.637966 339.001425 
L 578.613113 336.79216 
L 579.578838 336.284536 
L 580.535322 336.219941 
L 581.48274 336.474605 
L 582.421261 335.420329 
L 583.351052 338.254366 
L 584.272273 339.496078 
L 585.185081 340.376762 
L 586.089628 341.746617 
L 586.986063 344.891415 
L 587.874529 346.022979 
L 588.755168 347.384658 
L 589.628115 349.962399 
L 590.493504 353.119784 
L 591.351464 354.839469 
L 592.202123 355.038759 
L 593.045603 357.671763 
L 593.882024 359.063468 
L 594.711505 358.616601 
L 595.534158 359.145872 
L 596.350095 358.848343 
L 597.159426 357.886388 
L 597.962256 356.364902 
L 598.758689 356.155617 
L 599.548826 355.031848 
L 600.332765 356.500695 
L 601.110604 356.997361 
L 601.882437 356.424832 
L 602.648355 357.965147 
L 603.408448 359.164586 
L 604.162805 358.078704 
L 604.911511 360.250371 
L 605.65465 360.186151 
L 606.392305 360.945294 
L 607.124556 363.70686 
L 607.851481 363.842717 
L 608.573158 364.697447 
L 609.289661 365.100632 
L 610.001065 365.784781 
L 610.707441 366.263683 
L 612.105391 369.389738 
L 613.484058 374.012079 
L 614.166326 375.097403 
L 614.843968 377.328585 
L 615.517046 381.049428 
L 616.849757 384.826266 
L 618.164931 391.807571 
L 620.744475 411.242063 
L 621.379092 416.777302 
L 622.636364 434.531934 
L 622.636364 434.531934 
" clip-path="url(#pfef2fac070)" style="fill: none; stroke: #000000; stroke-width: 4; stroke-linecap: square"/>
   </g>
   <g id="patch_3">
    <path d="M 90 512.64 
L 90 69.12 
" style="fill: none; stroke: #000000; stroke-width: 0.8; stroke-linejoin: miter; stroke-linecap: square"/>
   </g>
   <g id="patch_4">
    <path d="M 648 512.64 
L 648 69.12 
" style="fill: none; stroke: #000000; stroke-width: 0.8; stroke-linejoin: miter; stroke-linecap: square"/>
   </g>
   <g id="patch_5">
    <path d="M 90 512.64 
L 648 512.64 
" style="fill: none; stroke: #000000; stroke-width: 0.8; stroke-linejoin: miter; stroke-linecap: square"/>
   </g>
   <g id="patch_6">
    <path d="M 90 69.12 
L 648 69.12 
" style="fill: none; stroke: #000000; stroke-width: 0.8; stroke-linejoin: miter; stroke-linecap: square"/>
   </g>
   <g id="text_14">
    <!-- $\delta$ -->
    <g transform="translate(249.586245 93.063413) scale(0.14 -0.14)">
     <defs>
      <path id="DejaVuSans-Oblique-3b4" d="M 3472 4053 
Q 3197 4272 2450 4272 
Q 1659 4272 1588 3906 
Q 1531 3619 2328 3469 
Q 2953 3353 3253 3003 
Q 3616 2581 3447 1716 
Q 3284 888 2763 400 
Q 2238 -91 1488 -91 
Q 741 -91 406 400 
Q 72 888 241 1747 
Q 363 2384 891 2900 
Q 1097 3100 1353 3213 
Q 913 3459 1000 3900 
Q 1166 4750 2544 4750 
Q 3234 4750 3566 4531 
L 3472 4053 
z
M 1753 3056 
Q 1525 2966 1306 2738 
Q 969 2384 847 1747 
Q 722 1113 919 756 
Q 1119 397 1584 397 
Q 2044 397 2381 759 
Q 2722 1122 2838 1716 
Q 2956 2338 2731 2638 
Q 2491 2959 2103 2994 
Q 1906 3013 1753 3056 
z
" transform="scale(0.015625)"/>
     </defs>
     <use xlink:href="#DejaVuSans-Oblique-3b4" transform="translate(0 0.78125)"/>
    </g>
   </g>
   <g id="text_15">
    <!-- $\theta$ -->
    <g transform="translate(359.394514 93.063413) scale(0.14 -0.14)">
     <defs>
      <path id="DejaVuSans-Oblique-3b8" d="M 2913 2219 
L 925 2219 
Q 791 1284 928 888 
Q 1100 400 1566 400 
Q 2034 400 2391 891 
Q 2703 1322 2913 2219 
z
M 3009 2750 
Q 3094 3638 2984 3950 
Q 2813 4444 2353 4444 
Q 1875 4444 1525 3956 
Q 1250 3563 1034 2750 
L 3009 2750 
z
M 2444 4913 
Q 3194 4913 3494 4250 
Q 3794 3591 3566 2422 
Q 3341 1256 2781 594 
Q 2225 -72 1475 -72 
Q 722 -72 425 594 
Q 128 1256 353 2422 
Q 581 3591 1134 4250 
Q 1691 4913 2444 4913 
z
" transform="scale(0.015625)"/>
     </defs>
     <use xlink:href="#DejaVuSans-Oblique-3b8" transform="translate(0 0.234375)"/>
    </g>
   </g>
   <g id="text_16">
    <!-- $\alpha$ -->
    <g transform="translate(410.172451 93.063413) scale(0.14 -0.14)">
     <defs>
      <path id="DejaVuSans-Oblique-3b1" d="M 2619 1628 
L 2622 2350 
Q 2625 3088 2069 3091 
Q 1653 3094 1394 2747 
Q 1069 2319 959 1747 
Q 825 1059 994 731 
Q 1169 397 1547 397 
Q 1966 397 2319 1063 
L 2619 1628 
z
M 2166 3578 
Q 3141 3594 3128 2584 
Q 3128 2584 3616 3500 
L 4128 3500 
L 3119 1603 
L 3109 919 
Q 3109 766 3194 638 
Q 3291 488 3391 488 
L 3669 488 
L 3575 0 
L 3228 0 
Q 2934 0 2722 263 
Q 2622 394 2619 669 
Q 2416 334 2066 50 
Q 1900 -81 1453 -78 
Q 722 -72 456 397 
Q 184 884 353 1747 
Q 534 2675 1009 3097 
Q 1544 3569 2166 3578 
z
" transform="scale(0.015625)"/>
     </defs>
     <use xlink:href="#DejaVuSans-Oblique-3b1" transform="translate(0 0.84375)"/>
    </g>
   </g>
   <g id="text_17">
    <!-- $\beta$ -->
    <g transform="translate(457.290157 93.2056) scale(0.14 -0.14)">
     <defs>
      <path id="DejaVuSans-Oblique-3b2" d="M 872 216 
L 572 -1331 
L -6 -1331 
L 928 3478 
Q 1206 4903 2538 4903 
Q 3888 4903 3659 3700 
Q 3503 2844 2894 2531 
Q 3713 2250 3553 1416 
Q 3272 -69 1759 -66 
Q 1097 -63 872 216 
z
M 1019 966 
Q 1259 422 1875 425 
Q 2775 425 2966 1406 
Q 3138 2288 1675 2219 
L 1778 2750 
Q 2909 2731 3106 3750 
Q 3241 4438 2509 4434 
Q 1691 4434 1503 3459 
L 1019 966 
z
" transform="scale(0.015625)"/>
     </defs>
     <use xlink:href="#DejaVuSans-Oblique-3b2" transform="translate(0 0.390625)"/>
    </g>
   </g>
   <g id="text_18">
    <!-- $\gamma$ -->
    <g transform="translate(538.624087 93.034975) scale(0.14 -0.14)">
     <defs>
      <path id="DejaVuSans-Oblique-3b3" d="M 1491 2950 
L 1838 788 
L 3456 3500 
L 4066 3500 
L 1972 0 
L 1713 -1331 
L 1138 -1331 
L 1397 0 
L 988 2613 
Q 925 3006 628 3006 
L 475 3006 
L 569 3500 
L 788 3500 
Q 1403 3500 1491 2950 
z
" transform="scale(0.015625)"/>
     </defs>
     <use xlink:href="#DejaVuSans-Oblique-3b3" transform="translate(0 0.3125)"/>
    </g>
   </g>
   <g id="text_19">
    <!-- Median power of different PSDs clusters of intracranial data -->
    <g transform="translate(82.2795 63.12) scale(0.192 -0.192)">
     <defs>
      <path id="DejaVuSans-4d" d="M 628 4666 
L 1569 4666 
L 2759 1491 
L 3956 4666 
L 4897 4666 
L 4897 0 
L 4281 0 
L 4281 4097 
L 3078 897 
L 2444 897 
L 1241 4097 
L 1241 0 
L 628 0 
L 628 4666 
z
" transform="scale(0.015625)"/>
      <path id="DejaVuSans-77" d="M 269 3500 
L 844 3500 
L 1563 769 
L 2278 3500 
L 2956 3500 
L 3675 769 
L 4391 3500 
L 4966 3500 
L 4050 0 
L 3372 0 
L 2619 2869 
L 1863 0 
L 1184 0 
L 269 3500 
z
" transform="scale(0.015625)"/>
      <path id="DejaVuSans-66" d="M 2375 4863 
L 2375 4384 
L 1825 4384 
Q 1516 4384 1395 4259 
Q 1275 4134 1275 3809 
L 1275 3500 
L 2222 3500 
L 2222 3053 
L 1275 3053 
L 1275 0 
L 697 0 
L 697 3053 
L 147 3053 
L 147 3500 
L 697 3500 
L 697 3744 
Q 697 4328 969 4595 
Q 1241 4863 1831 4863 
L 2375 4863 
z
" transform="scale(0.015625)"/>
      <path id="DejaVuSans-50" d="M 1259 4147 
L 1259 2394 
L 2053 2394 
Q 2494 2394 2734 2622 
Q 2975 2850 2975 3272 
Q 2975 3691 2734 3919 
Q 2494 4147 2053 4147 
L 1259 4147 
z
M 628 4666 
L 2053 4666 
Q 2838 4666 3239 4311 
Q 3641 3956 3641 3272 
Q 3641 2581 3239 2228 
Q 2838 1875 2053 1875 
L 1259 1875 
L 1259 0 
L 628 0 
L 628 4666 
z
" transform="scale(0.015625)"/>
      <path id="DejaVuSans-53" d="M 3425 4513 
L 3425 3897 
Q 3066 4069 2747 4153 
Q 2428 4238 2131 4238 
Q 1616 4238 1336 4038 
Q 1056 3838 1056 3469 
Q 1056 3159 1242 3001 
Q 1428 2844 1947 2747 
L 2328 2669 
Q 3034 2534 3370 2195 
Q 3706 1856 3706 1288 
Q 3706 609 3251 259 
Q 2797 -91 1919 -91 
Q 1588 -91 1214 -16 
Q 841 59 441 206 
L 441 856 
Q 825 641 1194 531 
Q 1563 422 1919 422 
Q 2459 422 2753 634 
Q 3047 847 3047 1241 
Q 3047 1584 2836 1778 
Q 2625 1972 2144 2069 
L 1759 2144 
Q 1053 2284 737 2584 
Q 422 2884 422 3419 
Q 422 4038 858 4394 
Q 1294 4750 2059 4750 
Q 2388 4750 2728 4690 
Q 3069 4631 3425 4513 
z
" transform="scale(0.015625)"/>
      <path id="DejaVuSans-44" d="M 1259 4147 
L 1259 519 
L 2022 519 
Q 2988 519 3436 956 
Q 3884 1394 3884 2338 
Q 3884 3275 3436 3711 
Q 2988 4147 2022 4147 
L 1259 4147 
z
M 628 4666 
L 1925 4666 
Q 3281 4666 3915 4102 
Q 4550 3538 4550 2338 
Q 4550 1131 3912 565 
Q 3275 0 1925 0 
L 628 0 
L 628 4666 
z
" transform="scale(0.015625)"/>
     </defs>
     <use xlink:href="#DejaVuSans-4d"/>
     <use xlink:href="#DejaVuSans-65" transform="translate(86.279297 0)"/>
     <use xlink:href="#DejaVuSans-64" transform="translate(147.802734 0)"/>
     <use xlink:href="#DejaVuSans-69" transform="translate(211.279297 0)"/>
     <use xlink:href="#DejaVuSans-61" transform="translate(239.0625 0)"/>
     <use xlink:href="#DejaVuSans-6e" transform="translate(300.341797 0)"/>
     <use xlink:href="#DejaVuSans-20" transform="translate(363.720703 0)"/>
     <use xlink:href="#DejaVuSans-70" transform="translate(395.507812 0)"/>
     <use xlink:href="#DejaVuSans-6f" transform="translate(458.984375 0)"/>
     <use xlink:href="#DejaVuSans-77" transform="translate(520.166016 0)"/>
     <use xlink:href="#DejaVuSans-65" transform="translate(601.953125 0)"/>
     <use xlink:href="#DejaVuSans-72" transform="translate(663.476562 0)"/>
     <use xlink:href="#DejaVuSans-20" transform="translate(704.589844 0)"/>
     <use xlink:href="#DejaVuSans-6f" transform="translate(736.376953 0)"/>
     <use xlink:href="#DejaVuSans-66" transform="translate(797.558594 0)"/>
     <use xlink:href="#DejaVuSans-20" transform="translate(832.763672 0)"/>
     <use xlink:href="#DejaVuSans-64" transform="translate(864.550781 0)"/>
     <use xlink:href="#DejaVuSans-69" transform="translate(928.027344 0)"/>
     <use xlink:href="#DejaVuSans-66" transform="translate(955.810547 0)"/>
     <use xlink:href="#DejaVuSans-66" transform="translate(991.015625 0)"/>
     <use xlink:href="#DejaVuSans-65" transform="translate(1026.220703 0)"/>
     <use xlink:href="#DejaVuSans-72" transform="translate(1087.744141 0)"/>
     <use xlink:href="#DejaVuSans-65" transform="translate(1126.607422 0)"/>
     <use xlink:href="#DejaVuSans-6e" transform="translate(1188.130859 0)"/>
     <use xlink:href="#DejaVuSans-74" transform="translate(1251.509766 0)"/>
     <use xlink:href="#DejaVuSans-20" transform="translate(1290.71875 0)"/>
     <use xlink:href="#DejaVuSans-50" transform="translate(1322.505859 0)"/>
     <use xlink:href="#DejaVuSans-53" transform="translate(1382.808594 0)"/>
     <use xlink:href="#DejaVuSans-44" transform="translate(1446.285156 0)"/>
     <use xlink:href="#DejaVuSans-73" transform="translate(1523.287109 0)"/>
     <use xlink:href="#DejaVuSans-20" transform="translate(1575.386719 0)"/>
     <use xlink:href="#DejaVuSans-63" transform="translate(1607.173828 0)"/>
     <use xlink:href="#DejaVuSans-6c" transform="translate(1662.154297 0)"/>
     <use xlink:href="#DejaVuSans-75" transform="translate(1689.9375 0)"/>
     <use xlink:href="#DejaVuSans-73" transform="translate(1753.316406 0)"/>
     <use xlink:href="#DejaVuSans-74" transform="translate(1805.416016 0)"/>
     <use xlink:href="#DejaVuSans-65" transform="translate(1844.625 0)"/>
     <use xlink:href="#DejaVuSans-72" transform="translate(1906.148438 0)"/>
     <use xlink:href="#DejaVuSans-73" transform="translate(1947.261719 0)"/>
     <use xlink:href="#DejaVuSans-20" transform="translate(1999.361328 0)"/>
     <use xlink:href="#DejaVuSans-6f" transform="translate(2031.148438 0)"/>
     <use xlink:href="#DejaVuSans-66" transform="translate(2092.330078 0)"/>
     <use xlink:href="#DejaVuSans-20" transform="translate(2127.535156 0)"/>
     <use xlink:href="#DejaVuSans-69" transform="translate(2159.322266 0)"/>
     <use xlink:href="#DejaVuSans-6e" transform="translate(2187.105469 0)"/>
     <use xlink:href="#DejaVuSans-74" transform="translate(2250.484375 0)"/>
     <use xlink:href="#DejaVuSans-72" transform="translate(2289.693359 0)"/>
     <use xlink:href="#DejaVuSans-61" transform="translate(2330.806641 0)"/>
     <use xlink:href="#DejaVuSans-63" transform="translate(2392.085938 0)"/>
     <use xlink:href="#DejaVuSans-72" transform="translate(2447.066406 0)"/>
     <use xlink:href="#DejaVuSans-61" transform="translate(2488.179688 0)"/>
     <use xlink:href="#DejaVuSans-6e" transform="translate(2549.458984 0)"/>
     <use xlink:href="#DejaVuSans-69" transform="translate(2612.837891 0)"/>
     <use xlink:href="#DejaVuSans-61" transform="translate(2640.621094 0)"/>
     <use xlink:href="#DejaVuSans-6c" transform="translate(2701.900391 0)"/>
     <use xlink:href="#DejaVuSans-20" transform="translate(2729.683594 0)"/>
     <use xlink:href="#DejaVuSans-64" transform="translate(2761.470703 0)"/>
     <use xlink:href="#DejaVuSans-61" transform="translate(2824.947266 0)"/>
     <use xlink:href="#DejaVuSans-74" transform="translate(2886.226562 0)"/>
     <use xlink:href="#DejaVuSans-61" transform="translate(2925.435547 0)"/>
    </g>
   </g>
   <g id="legend_1">
    <g id="patch_7">
     <path d="M 101.2 504.64 
L 258.5625 504.64 
Q 261.7625 504.64 261.7625 501.44 
L 261.7625 315.16 
Q 261.7625 311.96 258.5625 311.96 
L 101.2 311.96 
Q 98 311.96 98 315.16 
L 98 501.44 
Q 98 504.64 101.2 504.64 
z
" style="fill: #ffffff; opacity: 0.8; stroke: #cccccc; stroke-linejoin: miter"/>
    </g>
    <g id="line2d_87">
     <path d="M 104.4 324.9175 
L 120.4 324.9175 
L 136.4 324.9175 
" style="fill: none; stroke: #440154; stroke-width: 2; stroke-linecap: square"/>
    </g>
    <g id="text_20">
     <!-- cl. 5 (177 el.) -->
     <g transform="translate(149.2 330.5175) scale(0.16 -0.16)">
      <defs>
       <path id="DejaVuSans-28" d="M 1984 4856 
Q 1566 4138 1362 3434 
Q 1159 2731 1159 2009 
Q 1159 1288 1364 580 
Q 1569 -128 1984 -844 
L 1484 -844 
Q 1016 -109 783 600 
Q 550 1309 550 2009 
Q 550 2706 781 3412 
Q 1013 4119 1484 4856 
L 1984 4856 
z
" transform="scale(0.015625)"/>
       <path id="DejaVuSans-37" d="M 525 4666 
L 3525 4666 
L 3525 4397 
L 1831 0 
L 1172 0 
L 2766 4134 
L 525 4134 
L 525 4666 
z
" transform="scale(0.015625)"/>
       <path id="DejaVuSans-29" d="M 513 4856 
L 1013 4856 
Q 1481 4119 1714 3412 
Q 1947 2706 1947 2009 
Q 1947 1309 1714 600 
Q 1481 -109 1013 -844 
L 513 -844 
Q 928 -128 1133 580 
Q 1338 1288 1338 2009 
Q 1338 2731 1133 3434 
Q 928 4138 513 4856 
z
" transform="scale(0.015625)"/>
      </defs>
      <use xlink:href="#DejaVuSans-63"/>
      <use xlink:href="#DejaVuSans-6c" transform="translate(54.980469 0)"/>
      <use xlink:href="#DejaVuSans-2e" transform="translate(82.763672 0)"/>
      <use xlink:href="#DejaVuSans-20" transform="translate(114.550781 0)"/>
      <use xlink:href="#DejaVuSans-35" transform="translate(146.337891 0)"/>
      <use xlink:href="#DejaVuSans-20" transform="translate(209.960938 0)"/>
      <use xlink:href="#DejaVuSans-28" transform="translate(241.748047 0)"/>
      <use xlink:href="#DejaVuSans-31" transform="translate(280.761719 0)"/>
      <use xlink:href="#DejaVuSans-37" transform="translate(344.384766 0)"/>
      <use xlink:href="#DejaVuSans-37" transform="translate(408.007812 0)"/>
      <use xlink:href="#DejaVuSans-20" transform="translate(471.630859 0)"/>
      <use xlink:href="#DejaVuSans-65" transform="translate(503.417969 0)"/>
      <use xlink:href="#DejaVuSans-6c" transform="translate(564.941406 0)"/>
      <use xlink:href="#DejaVuSans-2e" transform="translate(592.724609 0)"/>
      <use xlink:href="#DejaVuSans-29" transform="translate(624.511719 0)"/>
     </g>
    </g>
    <g id="line2d_88">
     <path d="M 104.4 348.4025 
L 120.4 348.4025 
L 136.4 348.4025 
" style="fill: none; stroke: #443983; stroke-width: 2; stroke-linecap: square"/>
    </g>
    <g id="text_21">
     <!-- cl. 1 (220 el.) -->
     <g transform="translate(149.2 354.0025) scale(0.16 -0.16)">
      <use xlink:href="#DejaVuSans-63"/>
      <use xlink:href="#DejaVuSans-6c" transform="translate(54.980469 0)"/>
      <use xlink:href="#DejaVuSans-2e" transform="translate(82.763672 0)"/>
      <use xlink:href="#DejaVuSans-20" transform="translate(114.550781 0)"/>
      <use xlink:href="#DejaVuSans-31" transform="translate(146.337891 0)"/>
      <use xlink:href="#DejaVuSans-20" transform="translate(209.960938 0)"/>
      <use xlink:href="#DejaVuSans-28" transform="translate(241.748047 0)"/>
      <use xlink:href="#DejaVuSans-32" transform="translate(280.761719 0)"/>
      <use xlink:href="#DejaVuSans-32" transform="translate(344.384766 0)"/>
      <use xlink:href="#DejaVuSans-30" transform="translate(408.007812 0)"/>
      <use xlink:href="#DejaVuSans-20" transform="translate(471.630859 0)"/>
      <use xlink:href="#DejaVuSans-65" transform="translate(503.417969 0)"/>
      <use xlink:href="#DejaVuSans-6c" transform="translate(564.941406 0)"/>
      <use xlink:href="#DejaVuSans-2e" transform="translate(592.724609 0)"/>
      <use xlink:href="#DejaVuSans-29" transform="translate(624.511719 0)"/>
     </g>
    </g>
    <g id="line2d_89">
     <path d="M 104.4 371.8875 
L 120.4 371.8875 
L 136.4 371.8875 
" style="fill: none; stroke: #31688e; stroke-width: 2; stroke-linecap: square"/>
    </g>
    <g id="text_22">
     <!-- cl. 4 (183 el.) -->
     <g transform="translate(149.2 377.4875) scale(0.16 -0.16)">
      <use xlink:href="#DejaVuSans-63"/>
      <use xlink:href="#DejaVuSans-6c" transform="translate(54.980469 0)"/>
      <use xlink:href="#DejaVuSans-2e" transform="translate(82.763672 0)"/>
      <use xlink:href="#DejaVuSans-20" transform="translate(114.550781 0)"/>
      <use xlink:href="#DejaVuSans-34" transform="translate(146.337891 0)"/>
      <use xlink:href="#DejaVuSans-20" transform="translate(209.960938 0)"/>
      <use xlink:href="#DejaVuSans-28" transform="translate(241.748047 0)"/>
      <use xlink:href="#DejaVuSans-31" transform="translate(280.761719 0)"/>
      <use xlink:href="#DejaVuSans-38" transform="translate(344.384766 0)"/>
      <use xlink:href="#DejaVuSans-33" transform="translate(408.007812 0)"/>
      <use xlink:href="#DejaVuSans-20" transform="translate(471.630859 0)"/>
      <use xlink:href="#DejaVuSans-65" transform="translate(503.417969 0)"/>
      <use xlink:href="#DejaVuSans-6c" transform="translate(564.941406 0)"/>
      <use xlink:href="#DejaVuSans-2e" transform="translate(592.724609 0)"/>
      <use xlink:href="#DejaVuSans-29" transform="translate(624.511719 0)"/>
     </g>
    </g>
    <g id="line2d_90">
     <path d="M 104.4 395.3725 
L 120.4 395.3725 
L 136.4 395.3725 
" style="fill: none; stroke: #21918c; stroke-width: 2; stroke-linecap: square"/>
    </g>
    <g id="text_23">
     <!-- cl. 2 (160 el.) -->
     <g transform="translate(149.2 400.9725) scale(0.16 -0.16)">
      <defs>
       <path id="DejaVuSans-36" d="M 2113 2584 
Q 1688 2584 1439 2293 
Q 1191 2003 1191 1497 
Q 1191 994 1439 701 
Q 1688 409 2113 409 
Q 2538 409 2786 701 
Q 3034 994 3034 1497 
Q 3034 2003 2786 2293 
Q 2538 2584 2113 2584 
z
M 3366 4563 
L 3366 3988 
Q 3128 4100 2886 4159 
Q 2644 4219 2406 4219 
Q 1781 4219 1451 3797 
Q 1122 3375 1075 2522 
Q 1259 2794 1537 2939 
Q 1816 3084 2150 3084 
Q 2853 3084 3261 2657 
Q 3669 2231 3669 1497 
Q 3669 778 3244 343 
Q 2819 -91 2113 -91 
Q 1303 -91 875 529 
Q 447 1150 447 2328 
Q 447 3434 972 4092 
Q 1497 4750 2381 4750 
Q 2619 4750 2861 4703 
Q 3103 4656 3366 4563 
z
" transform="scale(0.015625)"/>
      </defs>
      <use xlink:href="#DejaVuSans-63"/>
      <use xlink:href="#DejaVuSans-6c" transform="translate(54.980469 0)"/>
      <use xlink:href="#DejaVuSans-2e" transform="translate(82.763672 0)"/>
      <use xlink:href="#DejaVuSans-20" transform="translate(114.550781 0)"/>
      <use xlink:href="#DejaVuSans-32" transform="translate(146.337891 0)"/>
      <use xlink:href="#DejaVuSans-20" transform="translate(209.960938 0)"/>
      <use xlink:href="#DejaVuSans-28" transform="translate(241.748047 0)"/>
      <use xlink:href="#DejaVuSans-31" transform="translate(280.761719 0)"/>
      <use xlink:href="#DejaVuSans-36" transform="translate(344.384766 0)"/>
      <use xlink:href="#DejaVuSans-30" transform="translate(408.007812 0)"/>
      <use xlink:href="#DejaVuSans-20" transform="translate(471.630859 0)"/>
      <use xlink:href="#DejaVuSans-65" transform="translate(503.417969 0)"/>
      <use xlink:href="#DejaVuSans-6c" transform="translate(564.941406 0)"/>
      <use xlink:href="#DejaVuSans-2e" transform="translate(592.724609 0)"/>
      <use xlink:href="#DejaVuSans-29" transform="translate(624.511719 0)"/>
     </g>
    </g>
    <g id="line2d_91">
     <path d="M 104.4 418.8575 
L 120.4 418.8575 
L 136.4 418.8575 
" style="fill: none; stroke: #35b779; stroke-width: 2; stroke-linecap: square"/>
    </g>
    <g id="text_24">
     <!-- cl. 6 (141 el.) -->
     <g transform="translate(149.2 424.4575) scale(0.16 -0.16)">
      <use xlink:href="#DejaVuSans-63"/>
      <use xlink:href="#DejaVuSans-6c" transform="translate(54.980469 0)"/>
      <use xlink:href="#DejaVuSans-2e" transform="translate(82.763672 0)"/>
      <use xlink:href="#DejaVuSans-20" transform="translate(114.550781 0)"/>
      <use xlink:href="#DejaVuSans-36" transform="translate(146.337891 0)"/>
      <use xlink:href="#DejaVuSans-20" transform="translate(209.960938 0)"/>
      <use xlink:href="#DejaVuSans-28" transform="translate(241.748047 0)"/>
      <use xlink:href="#DejaVuSans-31" transform="translate(280.761719 0)"/>
      <use xlink:href="#DejaVuSans-34" transform="translate(344.384766 0)"/>
      <use xlink:href="#DejaVuSans-31" transform="translate(408.007812 0)"/>
      <use xlink:href="#DejaVuSans-20" transform="translate(471.630859 0)"/>
      <use xlink:href="#DejaVuSans-65" transform="translate(503.417969 0)"/>
      <use xlink:href="#DejaVuSans-6c" transform="translate(564.941406 0)"/>
      <use xlink:href="#DejaVuSans-2e" transform="translate(592.724609 0)"/>
      <use xlink:href="#DejaVuSans-29" transform="translate(624.511719 0)"/>
     </g>
    </g>
    <g id="line2d_92">
     <path d="M 104.4 442.3425 
L 120.4 442.3425 
L 136.4 442.3425 
" style="fill: none; stroke: #90d743; stroke-width: 2; stroke-linecap: square"/>
    </g>
    <g id="text_25">
     <!-- cl. 0 (165 el.) -->
     <g transform="translate(149.2 447.9425) scale(0.16 -0.16)">
      <use xlink:href="#DejaVuSans-63"/>
      <use xlink:href="#DejaVuSans-6c" transform="translate(54.980469 0)"/>
      <use xlink:href="#DejaVuSans-2e" transform="translate(82.763672 0)"/>
      <use xlink:href="#DejaVuSans-20" transform="translate(114.550781 0)"/>
      <use xlink:href="#DejaVuSans-30" transform="translate(146.337891 0)"/>
      <use xlink:href="#DejaVuSans-20" transform="translate(209.960938 0)"/>
      <use xlink:href="#DejaVuSans-28" transform="translate(241.748047 0)"/>
      <use xlink:href="#DejaVuSans-31" transform="translate(280.761719 0)"/>
      <use xlink:href="#DejaVuSans-36" transform="translate(344.384766 0)"/>
      <use xlink:href="#DejaVuSans-35" transform="translate(408.007812 0)"/>
      <use xlink:href="#DejaVuSans-20" transform="translate(471.630859 0)"/>
      <use xlink:href="#DejaVuSans-65" transform="translate(503.417969 0)"/>
      <use xlink:href="#DejaVuSans-6c" transform="translate(564.941406 0)"/>
      <use xlink:href="#DejaVuSans-2e" transform="translate(592.724609 0)"/>
      <use xlink:href="#DejaVuSans-29" transform="translate(624.511719 0)"/>
     </g>
    </g>
    <g id="line2d_93">
     <path d="M 104.4 465.8275 
L 120.4 465.8275 
L 136.4 465.8275 
" style="fill: none; stroke: #fde725; stroke-width: 2; stroke-linecap: square"/>
    </g>
    <g id="text_26">
     <!-- cl. 7 (213 el.) -->
     <g transform="translate(149.2 471.4275) scale(0.16 -0.16)">
      <use xlink:href="#DejaVuSans-63"/>
      <use xlink:href="#DejaVuSans-6c" transform="translate(54.980469 0)"/>
      <use xlink:href="#DejaVuSans-2e" transform="translate(82.763672 0)"/>
      <use xlink:href="#DejaVuSans-20" transform="translate(114.550781 0)"/>
      <use xlink:href="#DejaVuSans-37" transform="translate(146.337891 0)"/>
      <use xlink:href="#DejaVuSans-20" transform="translate(209.960938 0)"/>
      <use xlink:href="#DejaVuSans-28" transform="translate(241.748047 0)"/>
      <use xlink:href="#DejaVuSans-32" transform="translate(280.761719 0)"/>
      <use xlink:href="#DejaVuSans-31" transform="translate(344.384766 0)"/>
      <use xlink:href="#DejaVuSans-33" transform="translate(408.007812 0)"/>
      <use xlink:href="#DejaVuSans-20" transform="translate(471.630859 0)"/>
      <use xlink:href="#DejaVuSans-65" transform="translate(503.417969 0)"/>
      <use xlink:href="#DejaVuSans-6c" transform="translate(564.941406 0)"/>
      <use xlink:href="#DejaVuSans-2e" transform="translate(592.724609 0)"/>
      <use xlink:href="#DejaVuSans-29" transform="translate(624.511719 0)"/>
     </g>
    </g>
    <g id="line2d_94">
     <path d="M 104.4 489.3125 
L 120.4 489.3125 
L 136.4 489.3125 
" style="fill: none; stroke: #000000; stroke-width: 4; stroke-linecap: square"/>
    </g>
    <g id="text_27">
     <!-- cl. 3 (513 el.) -->
     <g transform="translate(149.2 494.9125) scale(0.16 -0.16)">
      <use xlink:href="#DejaVuSans-63"/>
      <use xlink:href="#DejaVuSans-6c" transform="translate(54.980469 0)"/>
      <use xlink:href="#DejaVuSans-2e" transform="translate(82.763672 0)"/>
      <use xlink:href="#DejaVuSans-20" transform="translate(114.550781 0)"/>
      <use xlink:href="#DejaVuSans-33" transform="translate(146.337891 0)"/>
      <use xlink:href="#DejaVuSans-20" transform="translate(209.960938 0)"/>
      <use xlink:href="#DejaVuSans-28" transform="translate(241.748047 0)"/>
      <use xlink:href="#DejaVuSans-35" transform="translate(280.761719 0)"/>
      <use xlink:href="#DejaVuSans-31" transform="translate(344.384766 0)"/>
      <use xlink:href="#DejaVuSans-33" transform="translate(408.007812 0)"/>
      <use xlink:href="#DejaVuSans-20" transform="translate(471.630859 0)"/>
      <use xlink:href="#DejaVuSans-65" transform="translate(503.417969 0)"/>
      <use xlink:href="#DejaVuSans-6c" transform="translate(564.941406 0)"/>
      <use xlink:href="#DejaVuSans-2e" transform="translate(592.724609 0)"/>
      <use xlink:href="#DejaVuSans-29" transform="translate(624.511719 0)"/>
     </g>
    </g>
   </g>
  </g>
 </g>
 <defs>
  <clipPath id="pfef2fac070">
   <rect x="90" y="69.12" width="558" height="443.52"/>
  </clipPath>
 </defs>
</svg>
