<?xml version="1.0" encoding="utf-8" standalone="no"?>
<!DOCTYPE svg PUBLIC "-//W3C//DTD SVG 1.1//EN"
  "http://www.w3.org/Graphics/SVG/1.1/DTD/svg11.dtd">
<svg xmlns:xlink="http://www.w3.org/1999/xlink" width="720pt" height="576pt" viewBox="0 0 720 576" xmlns="http://www.w3.org/2000/svg" version="1.1">
 <metadata>
  <rdf:RDF xmlns:dc="http://purl.org/dc/elements/1.1/" xmlns:cc="http://creativecommons.org/ns#" xmlns:rdf="http://www.w3.org/1999/02/22-rdf-syntax-ns#">
   <cc:Work>
    <dc:type rdf:resource="http://purl.org/dc/dcmitype/StillImage"/>
    <dc:date>2026-05-16T18:33:05.202610</dc:date>
    <dc:format>image/svg+xml</dc:format>
    <dc:creator>
     <cc:Agent>
      <dc:title>Matplotlib v3.10.9, https://matplotlib.org/</dc:title>
     </cc:Agent>
    </dc:creator>
   </cc:Work>
  </rdf:RDF>
 </metadata>
 <defs>
  <style type="text/css">*{stroke-linejoin: round; stroke-linecap: butt}</style>
 </defs>
 <g id="figure_1">
  <g id="patch_1">
   <path d="M 0 576 
L 720 576 
L 720 0 
L 0 0 
z
" style="fill: #ffffff"/>
  </g>
  <g id="axes_1">
   <g id="patch_2">
    <path d="M 90 512.64 
L 648 512.64 
L 648 69.12 
L 90 69.12 
z
" style="fill: #ffffff"/>
   </g>
   <g id="matplotlib.axis_1">
    <g id="xtick_1">
     <g id="line2d_1">
      <path d="M 112.153049 512.64 
L 112.153049 69.12 
" clip-path="url(#pce9d1a53ba)" style="fill: none; stroke: #b0b0b0; stroke-width: 0.8; stroke-linecap: square"/>
     </g>
     <g id="line2d_2">
      <defs>
       <path id="m0b8401f882" d="M 0 0 
L 0 3.5 
" style="stroke: #000000; stroke-width: 0.8"/>
      </defs>
      <g>
       <use xlink:href="#m0b8401f882" x="112.153049" y="512.64" style="stroke: #000000; stroke-width: 0.8"/>
      </g>
     </g>
     <g id="text_1">
      <!-- 0.5 -->
      <g transform="translate(99.430549 531.7975) scale(0.16 -0.16)">
       <defs>
        <path id="DejaVuSans-30" d="M 2034 4250 
Q 1547 4250 1301 3770 
Q 1056 3291 1056 2328 
Q 1056 1369 1301 889 
Q 1547 409 2034 409 
Q 2525 409 2770 889 
Q 3016 1369 3016 2328 
Q 3016 3291 2770 3770 
Q 2525 4250 2034 4250 
z
M 2034 4750 
Q 2819 4750 3233 4129 
Q 3647 3509 3647 2328 
Q 3647 1150 3233 529 
Q 2819 -91 2034 -91 
Q 1250 -91 836 529 
Q 422 1150 422 2328 
Q 422 3509 836 4129 
Q 1250 4750 2034 4750 
z
" transform="scale(0.015625)"/>
        <path id="DejaVuSans-2e" d="M 684 794 
L 1344 794 
L 1344 0 
L 684 0 
L 684 794 
z
" transform="scale(0.015625)"/>
        <path id="DejaVuSans-35" d="M 691 4666 
L 3169 4666 
L 3169 4134 
L 1269 4134 
L 1269 2991 
Q 1406 3038 1543 3061 
Q 1681 3084 1819 3084 
Q 2600 3084 3056 2656 
Q 3513 2228 3513 1497 
Q 3513 744 3044 326 
Q 2575 -91 1722 -91 
Q 1428 -91 1123 -41 
Q 819 9 494 109 
L 494 744 
Q 775 591 1075 516 
Q 1375 441 1709 441 
Q 2250 441 2565 725 
Q 2881 1009 2881 1497 
Q 2881 1984 2565 2268 
Q 2250 2553 1709 2553 
Q 1456 2553 1204 2497 
Q 953 2441 691 2322 
L 691 4666 
z
" transform="scale(0.015625)"/>
       </defs>
       <use xlink:href="#DejaVuSans-30"/>
       <use xlink:href="#DejaVuSans-2e" transform="translate(63.623047 0)"/>
       <use xlink:href="#DejaVuSans-35" transform="translate(95.410156 0)"/>
      </g>
     </g>
    </g>
    <g id="xtick_2">
     <g id="line2d_3">
      <path d="M 134.627158 512.64 
L 134.627158 69.12 
" clip-path="url(#pce9d1a53ba)" style="fill: none; stroke: #b0b0b0; stroke-width: 0.8; stroke-linecap: square"/>
     </g>
     <g id="line2d_4">
      <g>
       <use xlink:href="#m0b8401f882" x="134.627158" y="512.64" style="stroke: #000000; stroke-width: 0.8"/>
      </g>
     </g>
     <g id="text_2">
      <!-- 4.0 -->
      <g transform="translate(121.904658 531.7975) scale(0.16 -0.16)">
       <defs>
        <path id="DejaVuSans-34" d="M 2419 4116 
L 825 1625 
L 2419 1625 
L 2419 4116 
z
M 2253 4666 
L 3047 4666 
L 3047 1625 
L 3713 1625 
L 3713 1100 
L 3047 1100 
L 3047 0 
L 2419 0 
L 2419 1100 
L 313 1100 
L 313 1709 
L 2253 4666 
z
" transform="scale(0.015625)"/>
       </defs>
       <use xlink:href="#DejaVuSans-34"/>
       <use xlink:href="#DejaVuSans-2e" transform="translate(63.623047 0)"/>
       <use xlink:href="#DejaVuSans-30" transform="translate(95.410156 0)"/>
      </g>
     </g>
    </g>
    <g id="xtick_3">
     <g id="line2d_5">
      <path d="M 160.311853 512.64 
L 160.311853 69.12 
" clip-path="url(#pce9d1a53ba)" style="fill: none; stroke: #b0b0b0; stroke-width: 0.8; stroke-linecap: square"/>
     </g>
     <g id="line2d_6">
      <g>
       <use xlink:href="#m0b8401f882" x="160.311853" y="512.64" style="stroke: #000000; stroke-width: 0.8"/>
      </g>
     </g>
     <g id="text_3">
      <!-- 8.0 -->
      <g transform="translate(147.589353 531.7975) scale(0.16 -0.16)">
       <defs>
        <path id="DejaVuSans-38" d="M 2034 2216 
Q 1584 2216 1326 1975 
Q 1069 1734 1069 1313 
Q 1069 891 1326 650 
Q 1584 409 2034 409 
Q 2484 409 2743 651 
Q 3003 894 3003 1313 
Q 3003 1734 2745 1975 
Q 2488 2216 2034 2216 
z
M 1403 2484 
Q 997 2584 770 2862 
Q 544 3141 544 3541 
Q 544 4100 942 4425 
Q 1341 4750 2034 4750 
Q 2731 4750 3128 4425 
Q 3525 4100 3525 3541 
Q 3525 3141 3298 2862 
Q 3072 2584 2669 2484 
Q 3125 2378 3379 2068 
Q 3634 1759 3634 1313 
Q 3634 634 3220 271 
Q 2806 -91 2034 -91 
Q 1263 -91 848 271 
Q 434 634 434 1313 
Q 434 1759 690 2068 
Q 947 2378 1403 2484 
z
M 1172 3481 
Q 1172 3119 1398 2916 
Q 1625 2713 2034 2713 
Q 2441 2713 2670 2916 
Q 2900 3119 2900 3481 
Q 2900 3844 2670 4047 
Q 2441 4250 2034 4250 
Q 1625 4250 1398 4047 
Q 1172 3844 1172 3481 
z
" transform="scale(0.015625)"/>
       </defs>
       <use xlink:href="#DejaVuSans-38"/>
       <use xlink:href="#DejaVuSans-2e" transform="translate(63.623047 0)"/>
       <use xlink:href="#DejaVuSans-30" transform="translate(95.410156 0)"/>
      </g>
     </g>
    </g>
    <g id="xtick_4">
     <g id="line2d_7">
      <path d="M 192.417722 512.64 
L 192.417722 69.12 
" clip-path="url(#pce9d1a53ba)" style="fill: none; stroke: #b0b0b0; stroke-width: 0.8; stroke-linecap: square"/>
     </g>
     <g id="line2d_8">
      <g>
       <use xlink:href="#m0b8401f882" x="192.417722" y="512.64" style="stroke: #000000; stroke-width: 0.8"/>
      </g>
     </g>
     <g id="text_4">
      <!-- 13.0 -->
      <g transform="translate(174.605222 531.7975) scale(0.16 -0.16)">
       <defs>
        <path id="DejaVuSans-31" d="M 794 531 
L 1825 531 
L 1825 4091 
L 703 3866 
L 703 4441 
L 1819 4666 
L 2450 4666 
L 2450 531 
L 3481 531 
L 3481 0 
L 794 0 
L 794 531 
z
" transform="scale(0.015625)"/>
        <path id="DejaVuSans-33" d="M 2597 2516 
Q 3050 2419 3304 2112 
Q 3559 1806 3559 1356 
Q 3559 666 3084 287 
Q 2609 -91 1734 -91 
Q 1441 -91 1130 -33 
Q 819 25 488 141 
L 488 750 
Q 750 597 1062 519 
Q 1375 441 1716 441 
Q 2309 441 2620 675 
Q 2931 909 2931 1356 
Q 2931 1769 2642 2001 
Q 2353 2234 1838 2234 
L 1294 2234 
L 1294 2753 
L 1863 2753 
Q 2328 2753 2575 2939 
Q 2822 3125 2822 3475 
Q 2822 3834 2567 4026 
Q 2313 4219 1838 4219 
Q 1578 4219 1281 4162 
Q 984 4106 628 3988 
L 628 4550 
Q 988 4650 1302 4700 
Q 1616 4750 1894 4750 
Q 2613 4750 3031 4423 
Q 3450 4097 3450 3541 
Q 3450 3153 3228 2886 
Q 3006 2619 2597 2516 
z
" transform="scale(0.015625)"/>
       </defs>
       <use xlink:href="#DejaVuSans-31"/>
       <use xlink:href="#DejaVuSans-33" transform="translate(63.623047 0)"/>
       <use xlink:href="#DejaVuSans-2e" transform="translate(127.246094 0)"/>
       <use xlink:href="#DejaVuSans-30" transform="translate(159.033203 0)"/>
      </g>
     </g>
    </g>
    <g id="xtick_5">
     <g id="line2d_9">
      <path d="M 301.577675 512.64 
L 301.577675 69.12 
" clip-path="url(#pce9d1a53ba)" style="fill: none; stroke: #b0b0b0; stroke-width: 0.8; stroke-linecap: square"/>
     </g>
     <g id="line2d_10">
      <g>
       <use xlink:href="#m0b8401f882" x="301.577675" y="512.64" style="stroke: #000000; stroke-width: 0.8"/>
      </g>
     </g>
     <g id="text_5">
      <!-- 30.0 -->
      <g transform="translate(283.765175 531.7975) scale(0.16 -0.16)">
       <use xlink:href="#DejaVuSans-33"/>
       <use xlink:href="#DejaVuSans-30" transform="translate(63.623047 0)"/>
       <use xlink:href="#DejaVuSans-2e" transform="translate(127.246094 0)"/>
       <use xlink:href="#DejaVuSans-30" transform="translate(159.033203 0)"/>
      </g>
     </g>
    </g>
    <g id="xtick_6">
     <g id="line2d_11">
      <path d="M 622.636364 512.64 
L 622.636364 69.12 
" clip-path="url(#pce9d1a53ba)" style="fill: none; stroke: #b0b0b0; stroke-width: 0.8; stroke-linecap: square"/>
     </g>
     <g id="line2d_12">
      <g>
       <use xlink:href="#m0b8401f882" x="622.636364" y="512.64" style="stroke: #000000; stroke-width: 0.8"/>
      </g>
     </g>
     <g id="text_6">
      <!-- 80.0 -->
      <g transform="translate(604.823864 531.7975) scale(0.16 -0.16)">
       <use xlink:href="#DejaVuSans-38"/>
       <use xlink:href="#DejaVuSans-30" transform="translate(63.623047 0)"/>
       <use xlink:href="#DejaVuSans-2e" transform="translate(127.246094 0)"/>
       <use xlink:href="#DejaVuSans-30" transform="translate(159.033203 0)"/>
      </g>
     </g>
    </g>
    <g id="text_7">
     <!-- Frequency -->
     <g transform="translate(327.6725 551.2825) scale(0.16 -0.16)">
      <defs>
       <path id="DejaVuSans-46" d="M 628 4666 
L 3309 4666 
L 3309 4134 
L 1259 4134 
L 1259 2759 
L 3109 2759 
L 3109 2228 
L 1259 2228 
L 1259 0 
L 628 0 
L 628 4666 
z
" transform="scale(0.015625)"/>
       <path id="DejaVuSans-72" d="M 2631 2963 
Q 2534 3019 2420 3045 
Q 2306 3072 2169 3072 
Q 1681 3072 1420 2755 
Q 1159 2438 1159 1844 
L 1159 0 
L 581 0 
L 581 3500 
L 1159 3500 
L 1159 2956 
Q 1341 3275 1631 3429 
Q 1922 3584 2338 3584 
Q 2397 3584 2469 3576 
Q 2541 3569 2628 3553 
L 2631 2963 
z
" transform="scale(0.015625)"/>
       <path id="DejaVuSans-65" d="M 3597 1894 
L 3597 1613 
L 953 1613 
Q 991 1019 1311 708 
Q 1631 397 2203 397 
Q 2534 397 2845 478 
Q 3156 559 3463 722 
L 3463 178 
Q 3153 47 2828 -22 
Q 2503 -91 2169 -91 
Q 1331 -91 842 396 
Q 353 884 353 1716 
Q 353 2575 817 3079 
Q 1281 3584 2069 3584 
Q 2775 3584 3186 3129 
Q 3597 2675 3597 1894 
z
M 3022 2063 
Q 3016 2534 2758 2815 
Q 2500 3097 2075 3097 
Q 1594 3097 1305 2825 
Q 1016 2553 972 2059 
L 3022 2063 
z
" transform="scale(0.015625)"/>
       <path id="DejaVuSans-71" d="M 947 1747 
Q 947 1113 1208 752 
Q 1469 391 1925 391 
Q 2381 391 2643 752 
Q 2906 1113 2906 1747 
Q 2906 2381 2643 2742 
Q 2381 3103 1925 3103 
Q 1469 3103 1208 2742 
Q 947 2381 947 1747 
z
M 2906 525 
Q 2725 213 2448 61 
Q 2172 -91 1784 -91 
Q 1150 -91 751 415 
Q 353 922 353 1747 
Q 353 2572 751 3078 
Q 1150 3584 1784 3584 
Q 2172 3584 2448 3432 
Q 2725 3281 2906 2969 
L 2906 3500 
L 3481 3500 
L 3481 -1331 
L 2906 -1331 
L 2906 525 
z
" transform="scale(0.015625)"/>
       <path id="DejaVuSans-75" d="M 544 1381 
L 544 3500 
L 1119 3500 
L 1119 1403 
Q 1119 906 1312 657 
Q 1506 409 1894 409 
Q 2359 409 2629 706 
Q 2900 1003 2900 1516 
L 2900 3500 
L 3475 3500 
L 3475 0 
L 2900 0 
L 2900 538 
Q 2691 219 2414 64 
Q 2138 -91 1772 -91 
Q 1169 -91 856 284 
Q 544 659 544 1381 
z
M 1991 3584 
L 1991 3584 
z
" transform="scale(0.015625)"/>
       <path id="DejaVuSans-6e" d="M 3513 2113 
L 3513 0 
L 2938 0 
L 2938 2094 
Q 2938 2591 2744 2837 
Q 2550 3084 2163 3084 
Q 1697 3084 1428 2787 
Q 1159 2491 1159 1978 
L 1159 0 
L 581 0 
L 581 3500 
L 1159 3500 
L 1159 2956 
Q 1366 3272 1645 3428 
Q 1925 3584 2291 3584 
Q 2894 3584 3203 3211 
Q 3513 2838 3513 2113 
z
" transform="scale(0.015625)"/>
       <path id="DejaVuSans-63" d="M 3122 3366 
L 3122 2828 
Q 2878 2963 2633 3030 
Q 2388 3097 2138 3097 
Q 1578 3097 1268 2742 
Q 959 2388 959 1747 
Q 959 1106 1268 751 
Q 1578 397 2138 397 
Q 2388 397 2633 464 
Q 2878 531 3122 666 
L 3122 134 
Q 2881 22 2623 -34 
Q 2366 -91 2075 -91 
Q 1284 -91 818 406 
Q 353 903 353 1747 
Q 353 2603 823 3093 
Q 1294 3584 2113 3584 
Q 2378 3584 2631 3529 
Q 2884 3475 3122 3366 
z
" transform="scale(0.015625)"/>
       <path id="DejaVuSans-79" d="M 2059 -325 
Q 1816 -950 1584 -1140 
Q 1353 -1331 966 -1331 
L 506 -1331 
L 506 -850 
L 844 -850 
Q 1081 -850 1212 -737 
Q 1344 -625 1503 -206 
L 1606 56 
L 191 3500 
L 800 3500 
L 1894 763 
L 2988 3500 
L 3597 3500 
L 2059 -325 
z
" transform="scale(0.015625)"/>
      </defs>
      <use xlink:href="#DejaVuSans-46"/>
      <use xlink:href="#DejaVuSans-72" transform="translate(50.269531 0)"/>
      <use xlink:href="#DejaVuSans-65" transform="translate(89.132812 0)"/>
      <use xlink:href="#DejaVuSans-71" transform="translate(150.65625 0)"/>
      <use xlink:href="#DejaVuSans-75" transform="translate(214.132812 0)"/>
      <use xlink:href="#DejaVuSans-65" transform="translate(277.511719 0)"/>
      <use xlink:href="#DejaVuSans-6e" transform="translate(339.035156 0)"/>
      <use xlink:href="#DejaVuSans-63" transform="translate(402.414062 0)"/>
      <use xlink:href="#DejaVuSans-79" transform="translate(457.394531 0)"/>
     </g>
    </g>
   </g>
   <g id="matplotlib.axis_2">
    <g id="ytick_1">
     <g id="line2d_13">
      <path d="M 90 494.050955 
L 648 494.050955 
" clip-path="url(#pce9d1a53ba)" style="fill: none; stroke: #b0b0b0; stroke-width: 0.8; stroke-linecap: square"/>
     </g>
     <g id="line2d_14">
      <defs>
       <path id="mceefdaf1ec" d="M 0 0 
L -3.5 0 
" style="stroke: #000000; stroke-width: 0.8"/>
      </defs>
      <g>
       <use xlink:href="#mceefdaf1ec" x="90" y="494.050955" style="stroke: #000000; stroke-width: 0.8"/>
      </g>
     </g>
     <g id="text_8">
      <!-- 0 -->
      <g transform="translate(72.82 500.129705) scale(0.16 -0.16)">
       <use xlink:href="#DejaVuSans-30"/>
      </g>
     </g>
    </g>
    <g id="ytick_2">
     <g id="line2d_15">
      <path d="M 90 441.442847 
L 648 441.442847 
" clip-path="url(#pce9d1a53ba)" style="fill: none; stroke: #b0b0b0; stroke-width: 0.8; stroke-linecap: square"/>
     </g>
     <g id="line2d_16">
      <g>
       <use xlink:href="#mceefdaf1ec" x="90" y="441.442847" style="stroke: #000000; stroke-width: 0.8"/>
      </g>
     </g>
     <g id="text_9">
      <!-- 10 -->
      <g transform="translate(62.64 447.521597) scale(0.16 -0.16)">
       <use xlink:href="#DejaVuSans-31"/>
       <use xlink:href="#DejaVuSans-30" transform="translate(63.623047 0)"/>
      </g>
     </g>
    </g>
    <g id="ytick_3">
     <g id="line2d_17">
      <path d="M 90 388.83474 
L 648 388.83474 
" clip-path="url(#pce9d1a53ba)" style="fill: none; stroke: #b0b0b0; stroke-width: 0.8; stroke-linecap: square"/>
     </g>
     <g id="line2d_18">
      <g>
       <use xlink:href="#mceefdaf1ec" x="90" y="388.83474" style="stroke: #000000; stroke-width: 0.8"/>
      </g>
     </g>
     <g id="text_10">
      <!-- 20 -->
      <g transform="translate(62.64 394.91349) scale(0.16 -0.16)">
       <defs>
        <path id="DejaVuSans-32" d="M 1228 531 
L 3431 531 
L 3431 0 
L 469 0 
L 469 531 
Q 828 903 1448 1529 
Q 2069 2156 2228 2338 
Q 2531 2678 2651 2914 
Q 2772 3150 2772 3378 
Q 2772 3750 2511 3984 
Q 2250 4219 1831 4219 
Q 1534 4219 1204 4116 
Q 875 4013 500 3803 
L 500 4441 
Q 881 4594 1212 4672 
Q 1544 4750 1819 4750 
Q 2544 4750 2975 4387 
Q 3406 4025 3406 3419 
Q 3406 3131 3298 2873 
Q 3191 2616 2906 2266 
Q 2828 2175 2409 1742 
Q 1991 1309 1228 531 
z
" transform="scale(0.015625)"/>
       </defs>
       <use xlink:href="#DejaVuSans-32"/>
       <use xlink:href="#DejaVuSans-30" transform="translate(63.623047 0)"/>
      </g>
     </g>
    </g>
    <g id="ytick_4">
     <g id="line2d_19">
      <path d="M 90 336.226632 
L 648 336.226632 
" clip-path="url(#pce9d1a53ba)" style="fill: none; stroke: #b0b0b0; stroke-width: 0.8; stroke-linecap: square"/>
     </g>
     <g id="line2d_20">
      <g>
       <use xlink:href="#mceefdaf1ec" x="90" y="336.226632" style="stroke: #000000; stroke-width: 0.8"/>
      </g>
     </g>
     <g id="text_11">
      <!-- 30 -->
      <g transform="translate(62.64 342.305382) scale(0.16 -0.16)">
       <use xlink:href="#DejaVuSans-33"/>
       <use xlink:href="#DejaVuSans-30" transform="translate(63.623047 0)"/>
      </g>
     </g>
    </g>
    <g id="ytick_5">
     <g id="line2d_21">
      <path d="M 90 283.618524 
L 648 283.618524 
" clip-path="url(#pce9d1a53ba)" style="fill: none; stroke: #b0b0b0; stroke-width: 0.8; stroke-linecap: square"/>
     </g>
     <g id="line2d_22">
      <g>
       <use xlink:href="#mceefdaf1ec" x="90" y="283.618524" style="stroke: #000000; stroke-width: 0.8"/>
      </g>
     </g>
     <g id="text_12">
      <!-- 40 -->
      <g transform="translate(62.64 289.697274) scale(0.16 -0.16)">
       <use xlink:href="#DejaVuSans-34"/>
       <use xlink:href="#DejaVuSans-30" transform="translate(63.623047 0)"/>
      </g>
     </g>
    </g>
    <g id="ytick_6">
     <g id="line2d_23">
      <path d="M 90 231.010417 
L 648 231.010417 
" clip-path="url(#pce9d1a53ba)" style="fill: none; stroke: #b0b0b0; stroke-width: 0.8; stroke-linecap: square"/>
     </g>
     <g id="line2d_24">
      <g>
       <use xlink:href="#mceefdaf1ec" x="90" y="231.010417" style="stroke: #000000; stroke-width: 0.8"/>
      </g>
     </g>
     <g id="text_13">
      <!-- 50 -->
      <g transform="translate(62.64 237.089167) scale(0.16 -0.16)">
       <use xlink:href="#DejaVuSans-35"/>
       <use xlink:href="#DejaVuSans-30" transform="translate(63.623047 0)"/>
      </g>
     </g>
    </g>
    <g id="ytick_7">
     <g id="line2d_25">
      <path d="M 90 178.402309 
L 648 178.402309 
" clip-path="url(#pce9d1a53ba)" style="fill: none; stroke: #b0b0b0; stroke-width: 0.8; stroke-linecap: square"/>
     </g>
     <g id="line2d_26">
      <g>
       <use xlink:href="#mceefdaf1ec" x="90" y="178.402309" style="stroke: #000000; stroke-width: 0.8"/>
      </g>
     </g>
     <g id="text_14">
      <!-- 60 -->
      <g transform="translate(62.64 184.481059) scale(0.16 -0.16)">
       <defs>
        <path id="DejaVuSans-36" d="M 2113 2584 
Q 1688 2584 1439 2293 
Q 1191 2003 1191 1497 
Q 1191 994 1439 701 
Q 1688 409 2113 409 
Q 2538 409 2786 701 
Q 3034 994 3034 1497 
Q 3034 2003 2786 2293 
Q 2538 2584 2113 2584 
z
M 3366 4563 
L 3366 3988 
Q 3128 4100 2886 4159 
Q 2644 4219 2406 4219 
Q 1781 4219 1451 3797 
Q 1122 3375 1075 2522 
Q 1259 2794 1537 2939 
Q 1816 3084 2150 3084 
Q 2853 3084 3261 2657 
Q 3669 2231 3669 1497 
Q 3669 778 3244 343 
Q 2819 -91 2113 -91 
Q 1303 -91 875 529 
Q 447 1150 447 2328 
Q 447 3434 972 4092 
Q 1497 4750 2381 4750 
Q 2619 4750 2861 4703 
Q 3103 4656 3366 4563 
z
" transform="scale(0.015625)"/>
       </defs>
       <use xlink:href="#DejaVuSans-36"/>
       <use xlink:href="#DejaVuSans-30" transform="translate(63.623047 0)"/>
      </g>
     </g>
    </g>
    <g id="ytick_8">
     <g id="line2d_27">
      <path d="M 90 125.794201 
L 648 125.794201 
" clip-path="url(#pce9d1a53ba)" style="fill: none; stroke: #b0b0b0; stroke-width: 0.8; stroke-linecap: square"/>
     </g>
     <g id="line2d_28">
      <g>
       <use xlink:href="#mceefdaf1ec" x="90" y="125.794201" style="stroke: #000000; stroke-width: 0.8"/>
      </g>
     </g>
     <g id="text_15">
      <!-- 70 -->
      <g transform="translate(62.64 131.872951) scale(0.16 -0.16)">
       <defs>
        <path id="DejaVuSans-37" d="M 525 4666 
L 3525 4666 
L 3525 4397 
L 1831 0 
L 1172 0 
L 2766 4134 
L 525 4134 
L 525 4666 
z
" transform="scale(0.015625)"/>
       </defs>
       <use xlink:href="#DejaVuSans-37"/>
       <use xlink:href="#DejaVuSans-30" transform="translate(63.623047 0)"/>
      </g>
     </g>
    </g>
    <g id="ytick_9">
     <g id="line2d_29">
      <path d="M 90 73.186093 
L 648 73.186093 
" clip-path="url(#pce9d1a53ba)" style="fill: none; stroke: #b0b0b0; stroke-width: 0.8; stroke-linecap: square"/>
     </g>
     <g id="line2d_30">
      <g>
       <use xlink:href="#mceefdaf1ec" x="90" y="73.186093" style="stroke: #000000; stroke-width: 0.8"/>
      </g>
     </g>
     <g id="text_16">
      <!-- 80 -->
      <g transform="translate(62.64 79.264843) scale(0.16 -0.16)">
       <use xlink:href="#DejaVuSans-38"/>
       <use xlink:href="#DejaVuSans-30" transform="translate(63.623047 0)"/>
      </g>
     </g>
    </g>
    <g id="text_17">
     <!-- Normalized spectral density -->
     <g transform="translate(55.3125 402.78375) rotate(-90) scale(0.16 -0.16)">
      <defs>
       <path id="DejaVuSans-4e" d="M 628 4666 
L 1478 4666 
L 3547 763 
L 3547 4666 
L 4159 4666 
L 4159 0 
L 3309 0 
L 1241 3903 
L 1241 0 
L 628 0 
L 628 4666 
z
" transform="scale(0.015625)"/>
       <path id="DejaVuSans-6f" d="M 1959 3097 
Q 1497 3097 1228 2736 
Q 959 2375 959 1747 
Q 959 1119 1226 758 
Q 1494 397 1959 397 
Q 2419 397 2687 759 
Q 2956 1122 2956 1747 
Q 2956 2369 2687 2733 
Q 2419 3097 1959 3097 
z
M 1959 3584 
Q 2709 3584 3137 3096 
Q 3566 2609 3566 1747 
Q 3566 888 3137 398 
Q 2709 -91 1959 -91 
Q 1206 -91 779 398 
Q 353 888 353 1747 
Q 353 2609 779 3096 
Q 1206 3584 1959 3584 
z
" transform="scale(0.015625)"/>
       <path id="DejaVuSans-6d" d="M 3328 2828 
Q 3544 3216 3844 3400 
Q 4144 3584 4550 3584 
Q 5097 3584 5394 3201 
Q 5691 2819 5691 2113 
L 5691 0 
L 5113 0 
L 5113 2094 
Q 5113 2597 4934 2840 
Q 4756 3084 4391 3084 
Q 3944 3084 3684 2787 
Q 3425 2491 3425 1978 
L 3425 0 
L 2847 0 
L 2847 2094 
Q 2847 2600 2669 2842 
Q 2491 3084 2119 3084 
Q 1678 3084 1418 2786 
Q 1159 2488 1159 1978 
L 1159 0 
L 581 0 
L 581 3500 
L 1159 3500 
L 1159 2956 
Q 1356 3278 1631 3431 
Q 1906 3584 2284 3584 
Q 2666 3584 2933 3390 
Q 3200 3197 3328 2828 
z
" transform="scale(0.015625)"/>
       <path id="DejaVuSans-61" d="M 2194 1759 
Q 1497 1759 1228 1600 
Q 959 1441 959 1056 
Q 959 750 1161 570 
Q 1363 391 1709 391 
Q 2188 391 2477 730 
Q 2766 1069 2766 1631 
L 2766 1759 
L 2194 1759 
z
M 3341 1997 
L 3341 0 
L 2766 0 
L 2766 531 
Q 2569 213 2275 61 
Q 1981 -91 1556 -91 
Q 1019 -91 701 211 
Q 384 513 384 1019 
Q 384 1609 779 1909 
Q 1175 2209 1959 2209 
L 2766 2209 
L 2766 2266 
Q 2766 2663 2505 2880 
Q 2244 3097 1772 3097 
Q 1472 3097 1187 3025 
Q 903 2953 641 2809 
L 641 3341 
Q 956 3463 1253 3523 
Q 1550 3584 1831 3584 
Q 2591 3584 2966 3190 
Q 3341 2797 3341 1997 
z
" transform="scale(0.015625)"/>
       <path id="DejaVuSans-6c" d="M 603 4863 
L 1178 4863 
L 1178 0 
L 603 0 
L 603 4863 
z
" transform="scale(0.015625)"/>
       <path id="DejaVuSans-69" d="M 603 3500 
L 1178 3500 
L 1178 0 
L 603 0 
L 603 3500 
z
M 603 4863 
L 1178 4863 
L 1178 4134 
L 603 4134 
L 603 4863 
z
" transform="scale(0.015625)"/>
       <path id="DejaVuSans-7a" d="M 353 3500 
L 3084 3500 
L 3084 2975 
L 922 459 
L 3084 459 
L 3084 0 
L 275 0 
L 275 525 
L 2438 3041 
L 353 3041 
L 353 3500 
z
" transform="scale(0.015625)"/>
       <path id="DejaVuSans-64" d="M 2906 2969 
L 2906 4863 
L 3481 4863 
L 3481 0 
L 2906 0 
L 2906 525 
Q 2725 213 2448 61 
Q 2172 -91 1784 -91 
Q 1150 -91 751 415 
Q 353 922 353 1747 
Q 353 2572 751 3078 
Q 1150 3584 1784 3584 
Q 2172 3584 2448 3432 
Q 2725 3281 2906 2969 
z
M 947 1747 
Q 947 1113 1208 752 
Q 1469 391 1925 391 
Q 2381 391 2643 752 
Q 2906 1113 2906 1747 
Q 2906 2381 2643 2742 
Q 2381 3103 1925 3103 
Q 1469 3103 1208 2742 
Q 947 2381 947 1747 
z
" transform="scale(0.015625)"/>
       <path id="DejaVuSans-20" transform="scale(0.015625)"/>
       <path id="DejaVuSans-73" d="M 2834 3397 
L 2834 2853 
Q 2591 2978 2328 3040 
Q 2066 3103 1784 3103 
Q 1356 3103 1142 2972 
Q 928 2841 928 2578 
Q 928 2378 1081 2264 
Q 1234 2150 1697 2047 
L 1894 2003 
Q 2506 1872 2764 1633 
Q 3022 1394 3022 966 
Q 3022 478 2636 193 
Q 2250 -91 1575 -91 
Q 1294 -91 989 -36 
Q 684 19 347 128 
L 347 722 
Q 666 556 975 473 
Q 1284 391 1588 391 
Q 1994 391 2212 530 
Q 2431 669 2431 922 
Q 2431 1156 2273 1281 
Q 2116 1406 1581 1522 
L 1381 1569 
Q 847 1681 609 1914 
Q 372 2147 372 2553 
Q 372 3047 722 3315 
Q 1072 3584 1716 3584 
Q 2034 3584 2315 3537 
Q 2597 3491 2834 3397 
z
" transform="scale(0.015625)"/>
       <path id="DejaVuSans-70" d="M 1159 525 
L 1159 -1331 
L 581 -1331 
L 581 3500 
L 1159 3500 
L 1159 2969 
Q 1341 3281 1617 3432 
Q 1894 3584 2278 3584 
Q 2916 3584 3314 3078 
Q 3713 2572 3713 1747 
Q 3713 922 3314 415 
Q 2916 -91 2278 -91 
Q 1894 -91 1617 61 
Q 1341 213 1159 525 
z
M 3116 1747 
Q 3116 2381 2855 2742 
Q 2594 3103 2138 3103 
Q 1681 3103 1420 2742 
Q 1159 2381 1159 1747 
Q 1159 1113 1420 752 
Q 1681 391 2138 391 
Q 2594 391 2855 752 
Q 3116 1113 3116 1747 
z
" transform="scale(0.015625)"/>
       <path id="DejaVuSans-74" d="M 1172 4494 
L 1172 3500 
L 2356 3500 
L 2356 3053 
L 1172 3053 
L 1172 1153 
Q 1172 725 1289 603 
Q 1406 481 1766 481 
L 2356 481 
L 2356 0 
L 1766 0 
Q 1100 0 847 248 
Q 594 497 594 1153 
L 594 3053 
L 172 3053 
L 172 3500 
L 594 3500 
L 594 4494 
L 1172 4494 
z
" transform="scale(0.015625)"/>
      </defs>
      <use xlink:href="#DejaVuSans-4e"/>
      <use xlink:href="#DejaVuSans-6f" transform="translate(74.804688 0)"/>
      <use xlink:href="#DejaVuSans-72" transform="translate(135.986328 0)"/>
      <use xlink:href="#DejaVuSans-6d" transform="translate(175.349609 0)"/>
      <use xlink:href="#DejaVuSans-61" transform="translate(272.761719 0)"/>
      <use xlink:href="#DejaVuSans-6c" transform="translate(334.041016 0)"/>
      <use xlink:href="#DejaVuSans-69" transform="translate(361.824219 0)"/>
      <use xlink:href="#DejaVuSans-7a" transform="translate(389.607422 0)"/>
      <use xlink:href="#DejaVuSans-65" transform="translate(442.097656 0)"/>
      <use xlink:href="#DejaVuSans-64" transform="translate(503.621094 0)"/>
      <use xlink:href="#DejaVuSans-20" transform="translate(567.097656 0)"/>
      <use xlink:href="#DejaVuSans-73" transform="translate(598.884766 0)"/>
      <use xlink:href="#DejaVuSans-70" transform="translate(650.984375 0)"/>
      <use xlink:href="#DejaVuSans-65" transform="translate(714.460938 0)"/>
      <use xlink:href="#DejaVuSans-63" transform="translate(775.984375 0)"/>
      <use xlink:href="#DejaVuSans-74" transform="translate(830.964844 0)"/>
      <use xlink:href="#DejaVuSans-72" transform="translate(870.173828 0)"/>
      <use xlink:href="#DejaVuSans-61" transform="translate(911.287109 0)"/>
      <use xlink:href="#DejaVuSans-6c" transform="translate(972.566406 0)"/>
      <use xlink:href="#DejaVuSans-20" transform="translate(1000.349609 0)"/>
      <use xlink:href="#DejaVuSans-64" transform="translate(1032.136719 0)"/>
      <use xlink:href="#DejaVuSans-65" transform="translate(1095.613281 0)"/>
      <use xlink:href="#DejaVuSans-6e" transform="translate(1157.136719 0)"/>
      <use xlink:href="#DejaVuSans-73" transform="translate(1220.515625 0)"/>
      <use xlink:href="#DejaVuSans-69" transform="translate(1272.615234 0)"/>
      <use xlink:href="#DejaVuSans-74" transform="translate(1300.398438 0)"/>
      <use xlink:href="#DejaVuSans-79" transform="translate(1339.607422 0)"/>
     </g>
    </g>
   </g>
   <g id="line2d_31">
    <path d="M 115.363636 455.028692 
L 118.574223 466.142333 
L 121.78481 475.356358 
L 124.995397 479.421659 
L 128.205984 481.621852 
L 131.416571 481.413448 
L 134.627158 482.081396 
L 137.837745 481.87129 
L 141.048331 482.574838 
L 144.258918 483.451026 
L 147.469505 483.580121 
L 150.680092 485.898628 
L 153.890679 486.896583 
L 160.311853 488.576524 
L 163.52244 489.05782 
L 169.943613 489.593001 
L 176.364787 489.879624 
L 182.785961 489.853743 
L 192.417722 489.667431 
L 205.260069 489.41213 
L 208.470656 489.094161 
L 214.89183 488.975263 
L 218.102417 488.995068 
L 227.734177 488.474782 
L 230.944764 488.38289 
L 234.155351 488.468716 
L 237.365938 488.219598 
L 240.576525 488.300411 
L 246.997699 488.113874 
L 250.208285 488.229836 
L 256.629459 488.170061 
L 266.26122 488.331265 
L 272.682394 488.243093 
L 279.103567 488.378336 
L 301.577675 488.545324 
L 304.788262 488.641962 
L 311.209436 488.525304 
L 314.420023 488.711591 
L 317.63061 488.554543 
L 330.472957 488.758499 
L 333.683544 488.591444 
L 340.104718 488.556546 
L 346.525892 488.525894 
L 352.947066 488.557618 
L 356.157652 488.541802 
L 359.368239 488.3018 
L 365.789413 488.373071 
L 369 488.284169 
L 372.210587 488.387257 
L 375.421174 488.118007 
L 381.842348 488.45409 
L 385.052934 488.389265 
L 401.105869 488.870716 
L 404.316456 488.808481 
L 410.737629 489.050438 
L 413.948216 489.102292 
L 417.158803 488.977858 
L 423.579977 489.069077 
L 426.790564 488.988386 
L 430.001151 488.753334 
L 436.422325 489.089672 
L 439.632911 488.832895 
L 442.843498 488.786549 
L 446.054085 488.397752 
L 449.264672 488.439322 
L 452.475259 488.336957 
L 455.685846 488.35576 
L 458.896433 488.564902 
L 465.317606 488.428072 
L 471.73878 488.683617 
L 474.949367 488.927858 
L 478.159954 489.014341 
L 487.791715 489.657698 
L 494.212888 489.230507 
L 497.423475 489.180684 
L 500.634062 489.246982 
L 503.844649 488.839033 
L 519.897583 487.651692 
L 535.950518 487.139752 
L 542.371692 487.093998 
L 545.582278 487.172135 
L 552.003452 487.014812 
L 561.635213 487.066676 
L 564.8458 487.217268 
L 577.688147 487.415658 
L 580.898734 487.725492 
L 584.109321 487.594038 
L 587.319908 487.789539 
L 593.741082 488.372215 
L 596.951669 488.589354 
L 600.162255 489.134673 
L 606.583429 489.80574 
L 622.636364 492.09468 
L 622.636364 492.09468 
" clip-path="url(#pce9d1a53ba)" style="fill: none; stroke: #440154; stroke-width: 2; stroke-linecap: square"/>
   </g>
   <g id="line2d_32">
    <path d="M 115.363636 89.28 
L 118.574223 374.664004 
L 121.78481 439.760604 
L 124.995397 462.385599 
L 128.205984 473.765499 
L 131.416571 479.458062 
L 134.627158 483.742908 
L 137.837745 485.435975 
L 141.048331 485.155354 
L 144.258918 485.503391 
L 147.469505 485.59935 
L 150.680092 485.00828 
L 153.890679 485.317611 
L 160.311853 483.007086 
L 163.52244 480.874854 
L 166.733026 482.170576 
L 169.943613 482.655165 
L 173.1542 483.795102 
L 176.364787 486.067344 
L 179.575374 486.055994 
L 182.785961 486.657794 
L 185.996548 487.774529 
L 189.207135 488.684253 
L 192.417722 489.283712 
L 195.628308 488.921561 
L 198.838895 489.089349 
L 202.049482 489.973222 
L 205.260069 490.535521 
L 208.470656 490.77916 
L 214.89183 490.771446 
L 218.102417 490.087495 
L 221.313003 490.131991 
L 227.734177 490.906969 
L 230.944764 490.960208 
L 234.155351 490.475365 
L 237.365938 490.786471 
L 240.576525 491.701459 
L 243.787112 491.212632 
L 246.997699 490.933408 
L 250.208285 490.972465 
L 256.629459 490.823173 
L 259.840046 490.928405 
L 263.050633 490.663882 
L 266.26122 490.725373 
L 269.471807 490.206169 
L 272.682394 490.285727 
L 275.89298 489.595804 
L 279.103567 489.547999 
L 282.314154 488.99186 
L 285.524741 488.92413 
L 288.735328 489.586282 
L 291.945915 489.567065 
L 295.156502 488.92647 
L 301.577675 489.070578 
L 304.788262 487.6724 
L 311.209436 483.919736 
L 314.420023 482.866843 
L 317.63061 479.937288 
L 324.051784 467.251575 
L 327.262371 467.316775 
L 330.472957 472.560849 
L 333.683544 470.982027 
L 336.894131 466.945669 
L 340.104718 473.348932 
L 343.315305 477.393449 
L 346.525892 478.186308 
L 349.736479 482.945085 
L 352.947066 483.190551 
L 356.157652 483.776598 
L 359.368239 485.204152 
L 362.578826 487.389293 
L 365.789413 488.689099 
L 369 488.963149 
L 372.210587 488.831376 
L 375.421174 489.490369 
L 378.631761 490.004888 
L 381.842348 489.384839 
L 385.052934 489.528232 
L 388.263521 489.231367 
L 391.474108 489.763564 
L 394.684695 490.622507 
L 397.895282 490.551013 
L 401.105869 489.202603 
L 404.316456 489.002235 
L 407.527043 489.738976 
L 410.737629 489.688339 
L 413.948216 489.935454 
L 417.158803 489.695597 
L 420.36939 489.229068 
L 423.579977 489.003339 
L 426.790564 489.636098 
L 430.001151 489.134971 
L 433.211738 489.01936 
L 436.422325 489.196767 
L 439.632911 488.831111 
L 442.843498 489.260103 
L 446.054085 489.016277 
L 449.264672 489.112307 
L 452.475259 489.015449 
L 455.685846 487.484842 
L 458.896433 487.619286 
L 462.10702 489.323873 
L 465.317606 490.164142 
L 468.528193 488.846168 
L 471.73878 488.291263 
L 474.949367 488.338001 
L 478.159954 488.122585 
L 481.370541 488.730073 
L 484.581128 490.410637 
L 487.791715 490.148417 
L 491.002301 489.693094 
L 497.423475 489.673039 
L 500.634062 489.971526 
L 503.844649 488.02607 
L 507.055236 487.219762 
L 510.265823 488.403489 
L 513.47641 486.956734 
L 516.686997 486.922579 
L 523.10817 485.84537 
L 526.318757 486.542346 
L 529.529344 483.765785 
L 532.739931 485.714216 
L 535.950518 486.494015 
L 539.161105 486.487481 
L 542.371692 486.328577 
L 545.582278 485.744415 
L 548.792865 486.640003 
L 552.003452 487.834972 
L 555.214039 486.71289 
L 558.424626 486.449417 
L 561.635213 487.238107 
L 564.8458 487.199795 
L 571.266974 486.666766 
L 574.47756 487.916476 
L 577.688147 488.09438 
L 580.898734 488.67494 
L 584.109321 488.764726 
L 587.319908 487.951696 
L 590.530495 488.327127 
L 593.741082 488.395622 
L 596.951669 488.647512 
L 600.162255 488.056243 
L 603.372842 489.595422 
L 606.583429 490.562036 
L 609.794016 490.788879 
L 616.21519 491.785947 
L 622.636364 492.48 
L 622.636364 492.48 
" clip-path="url(#pce9d1a53ba)" style="fill: none; stroke: #414487; stroke-width: 2; stroke-linecap: square"/>
   </g>
   <g id="line2d_33">
    <path d="M 115.363636 483.501983 
L 118.574223 483.853911 
L 121.78481 484.865371 
L 124.995397 484.165388 
L 128.205984 481.743641 
L 131.416571 478.918319 
L 137.837745 469.245769 
L 141.048331 467.566871 
L 144.258918 457.330348 
L 147.469505 450.315058 
L 150.680092 448.820736 
L 153.890679 445.309566 
L 157.101266 455.09921 
L 160.311853 465.770858 
L 163.52244 477.949967 
L 166.733026 484.640752 
L 169.943613 486.955334 
L 173.1542 487.906593 
L 176.364787 489.079746 
L 179.575374 489.210788 
L 182.785961 489.170863 
L 189.207135 489.406749 
L 192.417722 489.393565 
L 195.628308 489.003367 
L 198.838895 488.748311 
L 202.049482 488.354561 
L 205.260069 487.327598 
L 208.470656 488.064744 
L 211.681243 488.677608 
L 218.102417 489.496348 
L 221.313003 489.622556 
L 224.52359 489.44924 
L 227.734177 489.468551 
L 237.365938 488.812969 
L 240.576525 488.603789 
L 243.787112 488.678152 
L 246.997699 487.826346 
L 253.418872 486.973293 
L 256.629459 487.490332 
L 259.840046 488.286603 
L 263.050633 488.280019 
L 266.26122 487.660789 
L 269.471807 487.715365 
L 272.682394 487.023448 
L 275.89298 487.378983 
L 279.103567 486.645161 
L 282.314154 486.970589 
L 285.524741 486.385538 
L 291.945915 485.507142 
L 295.156502 484.930571 
L 298.367089 485.067825 
L 301.577675 485.810866 
L 304.788262 486.206135 
L 307.998849 486.952623 
L 311.209436 487.409024 
L 314.420023 487.224196 
L 317.63061 487.671253 
L 324.051784 488.013516 
L 327.262371 487.732386 
L 333.683544 488.436474 
L 336.894131 488.548109 
L 340.104718 488.939186 
L 346.525892 489.022575 
L 349.736479 488.893243 
L 352.947066 488.595058 
L 356.157652 488.919987 
L 359.368239 488.552619 
L 365.789413 488.874256 
L 369 488.374666 
L 372.210587 488.478746 
L 375.421174 488.696796 
L 378.631761 488.693299 
L 381.842348 488.514082 
L 385.052934 488.846645 
L 388.263521 488.967147 
L 391.474108 488.926026 
L 394.684695 489.105175 
L 401.105869 488.965678 
L 404.316456 489.063482 
L 407.527043 489.374004 
L 410.737629 489.325833 
L 413.948216 489.449749 
L 420.36939 489.473487 
L 423.579977 489.561972 
L 426.790564 489.518071 
L 439.632911 488.772099 
L 442.843498 488.349756 
L 446.054085 487.776115 
L 449.264672 488.139981 
L 462.10702 488.165828 
L 465.317606 487.959054 
L 471.73878 487.975035 
L 481.370541 488.735982 
L 487.791715 488.928382 
L 491.002301 488.776689 
L 494.212888 488.243212 
L 497.423475 488.785685 
L 500.634062 488.58384 
L 503.844649 488.547093 
L 507.055236 487.998504 
L 510.265823 488.122705 
L 513.47641 487.586122 
L 523.10817 487.767472 
L 526.318757 487.460846 
L 529.529344 487.392685 
L 532.739931 487.658295 
L 535.950518 487.539806 
L 539.161105 487.738744 
L 542.371692 487.367652 
L 545.582278 487.429953 
L 548.792865 487.343251 
L 552.003452 487.550516 
L 555.214039 487.578282 
L 558.424626 487.320863 
L 561.635213 487.646386 
L 564.8458 487.71845 
L 568.056387 487.403994 
L 571.266974 487.616713 
L 574.47756 488.169348 
L 577.688147 488.053736 
L 580.898734 488.387021 
L 587.319908 488.526294 
L 590.530495 488.59285 
L 596.951669 489.116612 
L 600.162255 489.142855 
L 603.372842 489.838878 
L 606.583429 490.115805 
L 609.794016 490.659086 
L 613.004603 490.854864 
L 616.21519 491.388114 
L 622.636364 492.106194 
L 622.636364 492.106194 
" clip-path="url(#pce9d1a53ba)" style="fill: none; stroke: #2a788e; stroke-width: 2; stroke-linecap: square"/>
   </g>
   <g id="line2d_34">
    <path d="M 115.363636 483.824754 
L 118.574223 486.383079 
L 121.78481 488.183893 
L 124.995397 489.073052 
L 128.205984 489.663821 
L 131.416571 489.893845 
L 137.837745 489.68575 
L 141.048331 489.176683 
L 144.258918 488.850951 
L 150.680092 485.914916 
L 153.890679 483.722157 
L 157.101266 477.509398 
L 160.311853 467.485201 
L 163.52244 449.441681 
L 166.733026 428.664848 
L 169.943613 432.649095 
L 173.1542 457.645406 
L 176.364787 471.001601 
L 179.575374 481.790825 
L 182.785961 485.424233 
L 185.996548 488.17007 
L 189.207135 488.672166 
L 192.417722 488.372485 
L 195.628308 488.436412 
L 198.838895 488.173242 
L 202.049482 488.173537 
L 205.260069 487.335088 
L 208.470656 487.209907 
L 211.681243 486.594147 
L 214.89183 486.110938 
L 218.102417 482.876567 
L 221.313003 484.126655 
L 224.52359 482.812579 
L 227.734177 483.886704 
L 230.944764 484.549338 
L 234.155351 485.611475 
L 237.365938 487.134224 
L 240.576525 487.955612 
L 243.787112 488.910257 
L 246.997699 489.156208 
L 250.208285 489.246329 
L 253.418872 489.153416 
L 266.26122 489.251854 
L 272.682394 489.295081 
L 279.103567 488.546627 
L 282.314154 488.678765 
L 288.735328 488.439986 
L 291.945915 488.90482 
L 295.156502 488.961191 
L 298.367089 488.776819 
L 301.577675 488.934479 
L 304.788262 489.338292 
L 307.998849 489.199428 
L 314.420023 489.124782 
L 317.63061 489.343033 
L 320.841197 489.043838 
L 327.262371 488.874071 
L 330.472957 488.975613 
L 336.894131 488.342963 
L 340.104718 488.421418 
L 343.315305 488.740233 
L 346.525892 488.868814 
L 349.736479 488.821736 
L 352.947066 489.122652 
L 356.157652 489.164047 
L 359.368239 488.794804 
L 362.578826 488.807578 
L 365.789413 488.508403 
L 378.631761 488.629272 
L 381.842348 488.543465 
L 385.052934 488.602051 
L 388.263521 488.935126 
L 391.474108 488.797295 
L 397.895282 488.764369 
L 404.316456 489.42928 
L 407.527043 489.30615 
L 410.737629 489.53805 
L 413.948216 489.51584 
L 417.158803 489.7388 
L 420.36939 490.462021 
L 423.579977 490.743885 
L 430.001151 489.775104 
L 436.422325 489.890715 
L 439.632911 489.40493 
L 442.843498 489.285823 
L 446.054085 488.990529 
L 449.264672 488.508053 
L 452.475259 488.215325 
L 455.685846 488.513667 
L 458.896433 488.491706 
L 462.10702 488.739702 
L 465.317606 488.674077 
L 468.528193 488.490821 
L 474.949367 488.709985 
L 478.159954 488.842848 
L 481.370541 488.817136 
L 484.581128 488.547115 
L 487.791715 488.843686 
L 491.002301 488.519741 
L 500.634062 488.458774 
L 503.844649 488.350265 
L 507.055236 488.039628 
L 510.265823 487.884347 
L 513.47641 487.875286 
L 516.686997 487.383811 
L 519.897583 487.562433 
L 523.10817 487.394337 
L 529.529344 487.577222 
L 532.739931 487.494972 
L 535.950518 487.269349 
L 539.161105 487.306323 
L 542.371692 487.005001 
L 545.582278 487.222977 
L 548.792865 486.840538 
L 552.003452 486.922019 
L 558.424626 486.86381 
L 561.635213 487.087686 
L 564.8458 486.83514 
L 574.47756 487.036097 
L 577.688147 486.88387 
L 584.109321 487.583985 
L 587.319908 487.380623 
L 593.741082 488.090436 
L 600.162255 488.753563 
L 606.583429 489.428671 
L 609.794016 489.972582 
L 613.004603 490.644943 
L 616.21519 490.926781 
L 622.636364 491.913741 
L 622.636364 491.913741 
" clip-path="url(#pce9d1a53ba)" style="fill: none; stroke: #22a884; stroke-width: 2; stroke-linecap: square"/>
   </g>
   <g id="line2d_35">
    <path d="M 115.363636 482.988415 
L 118.574223 485.265613 
L 121.78481 487.142469 
L 124.995397 488.158936 
L 128.205984 488.851223 
L 131.416571 489.246413 
L 134.627158 489.481025 
L 137.837745 489.411382 
L 144.258918 489.711745 
L 153.890679 489.562692 
L 160.311853 489.032143 
L 163.52244 488.328055 
L 169.943613 486.07634 
L 173.1542 487.002831 
L 176.364787 486.145582 
L 179.575374 485.156001 
L 182.785961 481.927432 
L 185.996548 475.143519 
L 189.207135 474.384441 
L 192.417722 468.60799 
L 195.628308 459.268929 
L 198.838895 454.777117 
L 202.049482 450.884848 
L 205.260069 455.262584 
L 211.681243 468.743094 
L 214.89183 474.712405 
L 218.102417 475.004897 
L 224.52359 481.977685 
L 227.734177 482.648683 
L 230.944764 482.968927 
L 237.365938 484.436055 
L 240.576525 484.546469 
L 243.787112 485.67276 
L 246.997699 487.681875 
L 253.418872 488.334445 
L 256.629459 487.916692 
L 263.050633 488.318604 
L 266.26122 488.886612 
L 269.471807 488.671623 
L 272.682394 488.954141 
L 275.89298 488.272504 
L 279.103567 488.030903 
L 282.314154 488.091919 
L 285.524741 487.651962 
L 288.735328 487.633231 
L 291.945915 488.275688 
L 295.156502 488.390083 
L 298.367089 488.634029 
L 301.577675 488.119769 
L 304.788262 488.362751 
L 307.998849 488.10918 
L 311.209436 488.527609 
L 314.420023 488.234733 
L 324.051784 488.91237 
L 330.472957 488.791666 
L 336.894131 488.605962 
L 340.104718 488.67922 
L 343.315305 489.035994 
L 349.736479 488.983117 
L 352.947066 489.129279 
L 356.157652 488.84358 
L 359.368239 488.803691 
L 362.578826 488.591731 
L 365.789413 489.020046 
L 372.210587 488.570262 
L 375.421174 488.716708 
L 378.631761 489.059449 
L 381.842348 488.748698 
L 385.052934 489.112797 
L 394.684695 489.34848 
L 397.895282 489.883307 
L 401.105869 489.743551 
L 404.316456 489.893531 
L 407.527043 489.890425 
L 413.948216 490.483229 
L 417.158803 490.546674 
L 420.36939 490.790268 
L 423.579977 490.88001 
L 426.790564 491.277368 
L 430.001151 490.773869 
L 433.211738 490.69507 
L 436.422325 490.356911 
L 439.632911 489.894044 
L 442.843498 489.717229 
L 446.054085 489.160674 
L 449.264672 489.022481 
L 452.475259 488.647979 
L 455.685846 488.531396 
L 465.317606 488.607702 
L 468.528193 488.262245 
L 471.73878 488.511469 
L 474.949367 488.069721 
L 478.159954 488.443799 
L 481.370541 488.54683 
L 494.212888 488.065996 
L 497.423475 487.833225 
L 503.844649 488.114528 
L 507.055236 487.869334 
L 513.47641 487.760434 
L 516.686997 487.886985 
L 523.10817 487.096224 
L 529.529344 487.492092 
L 532.739931 487.103674 
L 535.950518 487.492965 
L 539.161105 487.619867 
L 542.371692 487.373149 
L 545.582278 487.580739 
L 552.003452 486.801186 
L 555.214039 486.691104 
L 558.424626 487.319835 
L 561.635213 487.129982 
L 564.8458 486.693585 
L 568.056387 486.984255 
L 574.47756 487.209589 
L 577.688147 487.00449 
L 580.898734 487.357705 
L 584.109321 487.500663 
L 587.319908 487.896772 
L 596.951669 488.740035 
L 600.162255 488.87713 
L 603.372842 489.411634 
L 609.794016 490.033273 
L 613.004603 490.582883 
L 616.21519 490.884637 
L 619.425777 491.388374 
L 622.636364 491.758785 
L 622.636364 491.758785 
" clip-path="url(#pce9d1a53ba)" style="fill: none; stroke: #7ad151; stroke-width: 2; stroke-linecap: square"/>
   </g>
   <g id="line2d_36">
    <path d="M 115.363636 485.478217 
L 118.574223 486.927438 
L 121.78481 487.353786 
L 124.995397 487.238334 
L 128.205984 487.780636 
L 131.416571 487.988072 
L 134.627158 486.426023 
L 137.837745 486.867655 
L 141.048331 486.660063 
L 144.258918 487.697131 
L 147.469505 487.673225 
L 150.680092 488.32986 
L 157.101266 489.127703 
L 160.311853 489.096912 
L 163.52244 489.381376 
L 166.733026 489.260217 
L 169.943613 489.664437 
L 176.364787 489.268258 
L 179.575374 489.879187 
L 182.785961 490.268913 
L 185.996548 490.283825 
L 189.207135 489.96326 
L 192.417722 488.55407 
L 195.628308 488.420666 
L 198.838895 488.728623 
L 202.049482 488.311205 
L 205.260069 485.082664 
L 208.470656 483.696624 
L 211.681243 480.709355 
L 214.89183 475.871811 
L 218.102417 474.639209 
L 221.313003 471.932624 
L 224.52359 470.382276 
L 227.734177 464.041053 
L 230.944764 459.959181 
L 234.155351 464.41906 
L 237.365938 462.173085 
L 240.576525 463.094061 
L 243.787112 460.88606 
L 246.997699 459.932501 
L 250.208285 458.461256 
L 253.418872 458.059199 
L 256.629459 449.95185 
L 259.840046 454.055599 
L 263.050633 455.774279 
L 266.26122 466.572758 
L 269.471807 471.367776 
L 272.682394 473.636772 
L 275.89298 478.565534 
L 279.103567 482.396424 
L 282.314154 484.851471 
L 285.524741 485.089701 
L 288.735328 487.295789 
L 291.945915 488.336533 
L 295.156502 489.238158 
L 304.788262 489.043775 
L 311.209436 489.651286 
L 314.420023 489.404481 
L 317.63061 489.648242 
L 320.841197 489.275305 
L 324.051784 489.751527 
L 327.262371 489.492254 
L 330.472957 489.346432 
L 333.683544 488.87616 
L 340.104718 489.234048 
L 343.315305 488.907937 
L 346.525892 489.092235 
L 349.736479 488.810988 
L 352.947066 488.295717 
L 356.157652 488.182894 
L 359.368239 488.475123 
L 362.578826 487.958452 
L 365.789413 486.901651 
L 369 487.079516 
L 372.210587 487.754739 
L 375.421174 487.747224 
L 378.631761 486.624575 
L 381.842348 486.186779 
L 385.052934 487.023421 
L 388.263521 487.493831 
L 391.474108 487.159838 
L 394.684695 487.264371 
L 397.895282 487.598626 
L 401.105869 488.392226 
L 404.316456 488.246652 
L 407.527043 488.728339 
L 410.737629 488.870183 
L 413.948216 489.136274 
L 417.158803 489.627289 
L 420.36939 490.358884 
L 423.579977 490.363827 
L 426.790564 489.986608 
L 430.001151 489.143851 
L 433.211738 489.126744 
L 436.422325 489.672413 
L 439.632911 489.458643 
L 442.843498 488.939435 
L 446.054085 488.701277 
L 449.264672 488.886477 
L 455.685846 488.541048 
L 458.896433 489.108183 
L 462.10702 488.773795 
L 468.528193 489.292276 
L 471.73878 489.050794 
L 478.159954 489.370404 
L 481.370541 489.515235 
L 484.581128 489.387341 
L 491.002301 489.424904 
L 494.212888 488.773271 
L 500.634062 489.062089 
L 503.844649 488.615647 
L 507.055236 488.576171 
L 510.265823 488.841947 
L 513.47641 488.432033 
L 516.686997 487.852262 
L 519.897583 487.848799 
L 526.318757 488.022318 
L 529.529344 487.779811 
L 532.739931 487.791852 
L 535.950518 487.580244 
L 542.371692 487.468945 
L 548.792865 487.013659 
L 552.003452 487.223809 
L 555.214039 487.306384 
L 558.424626 487.590834 
L 561.635213 486.966599 
L 564.8458 486.718027 
L 568.056387 487.18743 
L 571.266974 487.395 
L 574.47756 487.715971 
L 577.688147 487.567015 
L 580.898734 487.53679 
L 584.109321 487.742045 
L 587.319908 488.117546 
L 590.530495 488.206575 
L 600.162255 489.188313 
L 603.372842 489.249945 
L 606.583429 489.815156 
L 609.794016 490.580645 
L 613.004603 490.924863 
L 616.21519 491.090628 
L 619.425777 491.583774 
L 622.636364 491.917584 
L 622.636364 491.917584 
" clip-path="url(#pce9d1a53ba)" style="fill: none; stroke: #fde725; stroke-width: 2; stroke-linecap: square"/>
   </g>
   <g id="line2d_37">
    <path d="M 115.363636 481.248476 
L 121.78481 485.93254 
L 124.995397 487.379939 
L 128.205984 488.305228 
L 134.627158 488.91268 
L 141.048331 489.232438 
L 144.258918 489.291406 
L 157.101266 488.93294 
L 163.52244 489.180065 
L 176.364787 489.572971 
L 185.996548 489.3558 
L 198.838895 488.853358 
L 205.260069 488.675841 
L 214.89183 488.470775 
L 227.734177 488.493898 
L 230.944764 488.535936 
L 234.155351 488.449853 
L 246.997699 488.525166 
L 256.629459 488.460241 
L 288.735328 488.562046 
L 295.156502 488.551838 
L 304.788262 488.611961 
L 352.947066 488.193092 
L 369 488.072457 
L 378.631761 488.158147 
L 388.263521 488.305573 
L 407.527043 488.949226 
L 417.158803 489.109536 
L 423.579977 489.379822 
L 426.790564 489.348103 
L 430.001151 489.051478 
L 433.211738 489.203216 
L 436.422325 489.166051 
L 449.264672 488.468063 
L 458.896433 488.321283 
L 465.317606 488.411154 
L 491.002301 489.210466 
L 494.212888 488.959898 
L 497.423475 489.08283 
L 500.634062 488.953429 
L 510.265823 488.196346 
L 516.686997 487.795988 
L 529.529344 487.399101 
L 545.582278 487.162418 
L 571.266974 487.246964 
L 584.109321 487.818701 
L 593.741082 488.518125 
L 600.162255 489.15285 
L 613.004603 490.766496 
L 622.636364 492.065117 
L 622.636364 492.065117 
" clip-path="url(#pce9d1a53ba)" style="fill: none; stroke: #000000; stroke-width: 4; stroke-linecap: square"/>
   </g>
   <g id="patch_3">
    <path d="M 90 512.64 
L 90 69.12 
" style="fill: none; stroke: #000000; stroke-width: 0.8; stroke-linejoin: miter; stroke-linecap: square"/>
   </g>
   <g id="patch_4">
    <path d="M 648 512.64 
L 648 69.12 
" style="fill: none; stroke: #000000; stroke-width: 0.8; stroke-linejoin: miter; stroke-linecap: square"/>
   </g>
   <g id="patch_5">
    <path d="M 90 512.64 
L 648 512.64 
" style="fill: none; stroke: #000000; stroke-width: 0.8; stroke-linejoin: miter; stroke-linecap: square"/>
   </g>
   <g id="patch_6">
    <path d="M 90 69.12 
L 648 69.12 
" style="fill: none; stroke: #000000; stroke-width: 0.8; stroke-linejoin: miter; stroke-linecap: square"/>
   </g>
   <g id="text_18">
    <!-- $\delta$ -->
    <g transform="translate(117.44481 93.063413) scale(0.14 -0.14)">
     <defs>
      <path id="DejaVuSans-Oblique-3b4" d="M 3472 4053 
Q 3197 4272 2450 4272 
Q 1659 4272 1588 3906 
Q 1531 3619 2328 3469 
Q 2953 3353 3253 3003 
Q 3616 2581 3447 1716 
Q 3284 888 2763 400 
Q 2238 -91 1488 -91 
Q 741 -91 406 400 
Q 72 888 241 1747 
Q 363 2384 891 2900 
Q 1097 3100 1353 3213 
Q 913 3459 1000 3900 
Q 1166 4750 2544 4750 
Q 3234 4750 3566 4531 
L 3472 4053 
z
M 1753 3056 
Q 1525 2966 1306 2738 
Q 969 2384 847 1747 
Q 722 1113 919 756 
Q 1119 397 1584 397 
Q 2044 397 2381 759 
Q 2722 1122 2838 1716 
Q 2956 2338 2731 2638 
Q 2491 2959 2103 2994 
Q 1906 3013 1753 3056 
z
" transform="scale(0.015625)"/>
     </defs>
     <use xlink:href="#DejaVuSans-Oblique-3b4" transform="translate(0 0.78125)"/>
    </g>
   </g>
   <g id="text_19">
    <!-- $\theta$ -->
    <g transform="translate(143.129505 93.063413) scale(0.14 -0.14)">
     <defs>
      <path id="DejaVuSans-Oblique-3b8" d="M 2913 2219 
L 925 2219 
Q 791 1284 928 888 
Q 1100 400 1566 400 
Q 2034 400 2391 891 
Q 2703 1322 2913 2219 
z
M 3009 2750 
Q 3094 3638 2984 3950 
Q 2813 4444 2353 4444 
Q 1875 4444 1525 3956 
Q 1250 3563 1034 2750 
L 3009 2750 
z
M 2444 4913 
Q 3194 4913 3494 4250 
Q 3794 3591 3566 2422 
Q 3341 1256 2781 594 
Q 2225 -72 1475 -72 
Q 722 -72 425 594 
Q 128 1256 353 2422 
Q 581 3591 1134 4250 
Q 1691 4913 2444 4913 
z
" transform="scale(0.015625)"/>
     </defs>
     <use xlink:href="#DejaVuSans-Oblique-3b8" transform="translate(0 0.234375)"/>
    </g>
   </g>
   <g id="text_20">
    <!-- $\alpha$ -->
    <g transform="translate(168.5342 93.063413) scale(0.14 -0.14)">
     <defs>
      <path id="DejaVuSans-Oblique-3b1" d="M 2619 1628 
L 2622 2350 
Q 2625 3088 2069 3091 
Q 1653 3094 1394 2747 
Q 1069 2319 959 1747 
Q 825 1059 994 731 
Q 1169 397 1547 397 
Q 1966 397 2319 1063 
L 2619 1628 
z
M 2166 3578 
Q 3141 3594 3128 2584 
Q 3128 2584 3616 3500 
L 4128 3500 
L 3119 1603 
L 3109 919 
Q 3109 766 3194 638 
Q 3291 488 3391 488 
L 3669 488 
L 3575 0 
L 3228 0 
Q 2934 0 2722 263 
Q 2622 394 2619 669 
Q 2416 334 2066 50 
Q 1900 -81 1453 -78 
Q 722 -72 456 397 
Q 184 884 353 1747 
Q 534 2675 1009 3097 
Q 1544 3569 2166 3578 
z
" transform="scale(0.015625)"/>
     </defs>
     <use xlink:href="#DejaVuSans-Oblique-3b1" transform="translate(0 0.84375)"/>
    </g>
   </g>
   <g id="text_21">
    <!-- $\beta$ -->
    <g transform="translate(207.201243 93.2056) scale(0.14 -0.14)">
     <defs>
      <path id="DejaVuSans-Oblique-3b2" d="M 872 216 
L 572 -1331 
L -6 -1331 
L 928 3478 
Q 1206 4903 2538 4903 
Q 3888 4903 3659 3700 
Q 3503 2844 2894 2531 
Q 3713 2250 3553 1416 
Q 3272 -69 1759 -66 
Q 1097 -63 872 216 
z
M 1019 966 
Q 1259 422 1875 425 
Q 2775 425 2966 1406 
Q 3138 2288 1675 2219 
L 1778 2750 
Q 2909 2731 3106 3750 
Q 3241 4438 2509 4434 
Q 1691 4434 1503 3459 
L 1019 966 
z
" transform="scale(0.015625)"/>
     </defs>
     <use xlink:href="#DejaVuSans-Oblique-3b2" transform="translate(0 0.390625)"/>
    </g>
   </g>
   <g id="text_22">
    <!-- $\gamma$ -->
    <g transform="translate(335.904718 93.034975) scale(0.14 -0.14)">
     <defs>
      <path id="DejaVuSans-Oblique-3b3" d="M 1491 2950 
L 1838 788 
L 3456 3500 
L 4066 3500 
L 1972 0 
L 1713 -1331 
L 1138 -1331 
L 1397 0 
L 988 2613 
Q 925 3006 628 3006 
L 475 3006 
L 569 3500 
L 788 3500 
Q 1403 3500 1491 2950 
z
" transform="scale(0.015625)"/>
     </defs>
     <use xlink:href="#DejaVuSans-Oblique-3b3" transform="translate(0 0.3125)"/>
    </g>
   </g>
   <g id="text_23">
    <!-- Median power of different PSDs clusters of intracranial_data_1f_removed -->
    <g transform="translate(18.897 63.12) scale(0.192 -0.192)">
     <defs>
      <path id="DejaVuSans-4d" d="M 628 4666 
L 1569 4666 
L 2759 1491 
L 3956 4666 
L 4897 4666 
L 4897 0 
L 4281 0 
L 4281 4097 
L 3078 897 
L 2444 897 
L 1241 4097 
L 1241 0 
L 628 0 
L 628 4666 
z
" transform="scale(0.015625)"/>
      <path id="DejaVuSans-77" d="M 269 3500 
L 844 3500 
L 1563 769 
L 2278 3500 
L 2956 3500 
L 3675 769 
L 4391 3500 
L 4966 3500 
L 4050 0 
L 3372 0 
L 2619 2869 
L 1863 0 
L 1184 0 
L 269 3500 
z
" transform="scale(0.015625)"/>
      <path id="DejaVuSans-66" d="M 2375 4863 
L 2375 4384 
L 1825 4384 
Q 1516 4384 1395 4259 
Q 1275 4134 1275 3809 
L 1275 3500 
L 2222 3500 
L 2222 3053 
L 1275 3053 
L 1275 0 
L 697 0 
L 697 3053 
L 147 3053 
L 147 3500 
L 697 3500 
L 697 3744 
Q 697 4328 969 4595 
Q 1241 4863 1831 4863 
L 2375 4863 
z
" transform="scale(0.015625)"/>
      <path id="DejaVuSans-50" d="M 1259 4147 
L 1259 2394 
L 2053 2394 
Q 2494 2394 2734 2622 
Q 2975 2850 2975 3272 
Q 2975 3691 2734 3919 
Q 2494 4147 2053 4147 
L 1259 4147 
z
M 628 4666 
L 2053 4666 
Q 2838 4666 3239 4311 
Q 3641 3956 3641 3272 
Q 3641 2581 3239 2228 
Q 2838 1875 2053 1875 
L 1259 1875 
L 1259 0 
L 628 0 
L 628 4666 
z
" transform="scale(0.015625)"/>
      <path id="DejaVuSans-53" d="M 3425 4513 
L 3425 3897 
Q 3066 4069 2747 4153 
Q 2428 4238 2131 4238 
Q 1616 4238 1336 4038 
Q 1056 3838 1056 3469 
Q 1056 3159 1242 3001 
Q 1428 2844 1947 2747 
L 2328 2669 
Q 3034 2534 3370 2195 
Q 3706 1856 3706 1288 
Q 3706 609 3251 259 
Q 2797 -91 1919 -91 
Q 1588 -91 1214 -16 
Q 841 59 441 206 
L 441 856 
Q 825 641 1194 531 
Q 1563 422 1919 422 
Q 2459 422 2753 634 
Q 3047 847 3047 1241 
Q 3047 1584 2836 1778 
Q 2625 1972 2144 2069 
L 1759 2144 
Q 1053 2284 737 2584 
Q 422 2884 422 3419 
Q 422 4038 858 4394 
Q 1294 4750 2059 4750 
Q 2388 4750 2728 4690 
Q 3069 4631 3425 4513 
z
" transform="scale(0.015625)"/>
      <path id="DejaVuSans-44" d="M 1259 4147 
L 1259 519 
L 2022 519 
Q 2988 519 3436 956 
Q 3884 1394 3884 2338 
Q 3884 3275 3436 3711 
Q 2988 4147 2022 4147 
L 1259 4147 
z
M 628 4666 
L 1925 4666 
Q 3281 4666 3915 4102 
Q 4550 3538 4550 2338 
Q 4550 1131 3912 565 
Q 3275 0 1925 0 
L 628 0 
L 628 4666 
z
" transform="scale(0.015625)"/>
      <path id="DejaVuSans-5f" d="M 3263 -1063 
L 3263 -1509 
L -63 -1509 
L -63 -1063 
L 3263 -1063 
z
" transform="scale(0.015625)"/>
      <path id="DejaVuSans-76" d="M 191 3500 
L 800 3500 
L 1894 563 
L 2988 3500 
L 3597 3500 
L 2284 0 
L 1503 0 
L 191 3500 
z
" transform="scale(0.015625)"/>
     </defs>
     <use xlink:href="#DejaVuSans-4d"/>
     <use xlink:href="#DejaVuSans-65" transform="translate(86.279297 0)"/>
     <use xlink:href="#DejaVuSans-64" transform="translate(147.802734 0)"/>
     <use xlink:href="#DejaVuSans-69" transform="translate(211.279297 0)"/>
     <use xlink:href="#DejaVuSans-61" transform="translate(239.0625 0)"/>
     <use xlink:href="#DejaVuSans-6e" transform="translate(300.341797 0)"/>
     <use xlink:href="#DejaVuSans-20" transform="translate(363.720703 0)"/>
     <use xlink:href="#DejaVuSans-70" transform="translate(395.507812 0)"/>
     <use xlink:href="#DejaVuSans-6f" transform="translate(458.984375 0)"/>
     <use xlink:href="#DejaVuSans-77" transform="translate(520.166016 0)"/>
     <use xlink:href="#DejaVuSans-65" transform="translate(601.953125 0)"/>
     <use xlink:href="#DejaVuSans-72" transform="translate(663.476562 0)"/>
     <use xlink:href="#DejaVuSans-20" transform="translate(704.589844 0)"/>
     <use xlink:href="#DejaVuSans-6f" transform="translate(736.376953 0)"/>
     <use xlink:href="#DejaVuSans-66" transform="translate(797.558594 0)"/>
     <use xlink:href="#DejaVuSans-20" transform="translate(832.763672 0)"/>
     <use xlink:href="#DejaVuSans-64" transform="translate(864.550781 0)"/>
     <use xlink:href="#DejaVuSans-69" transform="translate(928.027344 0)"/>
     <use xlink:href="#DejaVuSans-66" transform="translate(955.810547 0)"/>
     <use xlink:href="#DejaVuSans-66" transform="translate(991.015625 0)"/>
     <use xlink:href="#DejaVuSans-65" transform="translate(1026.220703 0)"/>
     <use xlink:href="#DejaVuSans-72" transform="translate(1087.744141 0)"/>
     <use xlink:href="#DejaVuSans-65" transform="translate(1126.607422 0)"/>
     <use xlink:href="#DejaVuSans-6e" transform="translate(1188.130859 0)"/>
     <use xlink:href="#DejaVuSans-74" transform="translate(1251.509766 0)"/>
     <use xlink:href="#DejaVuSans-20" transform="translate(1290.71875 0)"/>
     <use xlink:href="#DejaVuSans-50" transform="translate(1322.505859 0)"/>
     <use xlink:href="#DejaVuSans-53" transform="translate(1382.808594 0)"/>
     <use xlink:href="#DejaVuSans-44" transform="translate(1446.285156 0)"/>
     <use xlink:href="#DejaVuSans-73" transform="translate(1523.287109 0)"/>
     <use xlink:href="#DejaVuSans-20" transform="translate(1575.386719 0)"/>
     <use xlink:href="#DejaVuSans-63" transform="translate(1607.173828 0)"/>
     <use xlink:href="#DejaVuSans-6c" transform="translate(1662.154297 0)"/>
     <use xlink:href="#DejaVuSans-75" transform="translate(1689.9375 0)"/>
     <use xlink:href="#DejaVuSans-73" transform="translate(1753.316406 0)"/>
     <use xlink:href="#DejaVuSans-74" transform="translate(1805.416016 0)"/>
     <use xlink:href="#DejaVuSans-65" transform="translate(1844.625 0)"/>
     <use xlink:href="#DejaVuSans-72" transform="translate(1906.148438 0)"/>
     <use xlink:href="#DejaVuSans-73" transform="translate(1947.261719 0)"/>
     <use xlink:href="#DejaVuSans-20" transform="translate(1999.361328 0)"/>
     <use xlink:href="#DejaVuSans-6f" transform="translate(2031.148438 0)"/>
     <use xlink:href="#DejaVuSans-66" transform="translate(2092.330078 0)"/>
     <use xlink:href="#DejaVuSans-20" transform="translate(2127.535156 0)"/>
     <use xlink:href="#DejaVuSans-69" transform="translate(2159.322266 0)"/>
     <use xlink:href="#DejaVuSans-6e" transform="translate(2187.105469 0)"/>
     <use xlink:href="#DejaVuSans-74" transform="translate(2250.484375 0)"/>
     <use xlink:href="#DejaVuSans-72" transform="translate(2289.693359 0)"/>
     <use xlink:href="#DejaVuSans-61" transform="translate(2330.806641 0)"/>
     <use xlink:href="#DejaVuSans-63" transform="translate(2392.085938 0)"/>
     <use xlink:href="#DejaVuSans-72" transform="translate(2447.066406 0)"/>
     <use xlink:href="#DejaVuSans-61" transform="translate(2488.179688 0)"/>
     <use xlink:href="#DejaVuSans-6e" transform="translate(2549.458984 0)"/>
     <use xlink:href="#DejaVuSans-69" transform="translate(2612.837891 0)"/>
     <use xlink:href="#DejaVuSans-61" transform="translate(2640.621094 0)"/>
     <use xlink:href="#DejaVuSans-6c" transform="translate(2701.900391 0)"/>
     <use xlink:href="#DejaVuSans-5f" transform="translate(2729.683594 0)"/>
     <use xlink:href="#DejaVuSans-64" transform="translate(2779.683594 0)"/>
     <use xlink:href="#DejaVuSans-61" transform="translate(2843.160156 0)"/>
     <use xlink:href="#DejaVuSans-74" transform="translate(2904.439453 0)"/>
     <use xlink:href="#DejaVuSans-61" transform="translate(2943.648438 0)"/>
     <use xlink:href="#DejaVuSans-5f" transform="translate(3004.927734 0)"/>
     <use xlink:href="#DejaVuSans-31" transform="translate(3054.927734 0)"/>
     <use xlink:href="#DejaVuSans-66" transform="translate(3118.550781 0)"/>
     <use xlink:href="#DejaVuSans-5f" transform="translate(3153.755859 0)"/>
     <use xlink:href="#DejaVuSans-72" transform="translate(3203.755859 0)"/>
     <use xlink:href="#DejaVuSans-65" transform="translate(3242.619141 0)"/>
     <use xlink:href="#DejaVuSans-6d" transform="translate(3304.142578 0)"/>
     <use xlink:href="#DejaVuSans-6f" transform="translate(3401.554688 0)"/>
     <use xlink:href="#DejaVuSans-76" transform="translate(3462.736328 0)"/>
     <use xlink:href="#DejaVuSans-65" transform="translate(3521.916016 0)"/>
     <use xlink:href="#DejaVuSans-64" transform="translate(3583.439453 0)"/>
    </g>
   </g>
   <g id="legend_1">
    <g id="patch_7">
     <path d="M 461.3925 246.515 
L 636.8 246.515 
Q 640 246.515 640 243.315 
L 640 80.32 
Q 640 77.12 636.8 77.12 
L 461.3925 77.12 
Q 458.1925 77.12 458.1925 80.32 
L 458.1925 243.315 
Q 458.1925 246.515 461.3925 246.515 
z
" style="fill: #ffffff; opacity: 0.8; stroke: #cccccc; stroke-linejoin: miter"/>
    </g>
    <g id="line2d_38">
     <path d="M 464.5925 90.0775 
L 480.5925 90.0775 
L 496.5925 90.0775 
" style="fill: none; stroke: #440154; stroke-width: 2; stroke-linecap: square"/>
    </g>
    <g id="text_24">
     <!-- δ (238) -->
     <g transform="translate(509.3925 95.6775) scale(0.16 -0.16)">
      <defs>
       <path id="DejaVuSans-3b4" d="M 3138 4053 
Q 2819 4272 2072 4272 
Q 1281 4272 1281 3906 
Q 1281 3619 2106 3469 
Q 2756 3353 3122 3003 
Q 3566 2581 3566 1716 
Q 3566 888 3138 400 
Q 2709 -91 1959 -91 
Q 1213 -91 781 400 
Q 353 888 353 1747 
Q 353 2384 781 2900 
Q 947 3100 1181 3213 
Q 694 3459 694 3900 
Q 694 4750 2072 4750 
Q 2763 4750 3138 4531 
L 3138 4053 
z
M 1613 3056 
Q 1400 2966 1228 2738 
Q 959 2384 959 1747 
Q 959 1113 1225 756 
Q 1494 397 1959 397 
Q 2419 397 2687 759 
Q 2956 1122 2956 1716 
Q 2956 2338 2672 2638 
Q 2369 2959 1975 2994 
Q 1775 3013 1613 3056 
z
" transform="scale(0.015625)"/>
       <path id="DejaVuSans-28" d="M 1984 4856 
Q 1566 4138 1362 3434 
Q 1159 2731 1159 2009 
Q 1159 1288 1364 580 
Q 1569 -128 1984 -844 
L 1484 -844 
Q 1016 -109 783 600 
Q 550 1309 550 2009 
Q 550 2706 781 3412 
Q 1013 4119 1484 4856 
L 1984 4856 
z
" transform="scale(0.015625)"/>
       <path id="DejaVuSans-29" d="M 513 4856 
L 1013 4856 
Q 1481 4119 1714 3412 
Q 1947 2706 1947 2009 
Q 1947 1309 1714 600 
Q 1481 -109 1013 -844 
L 513 -844 
Q 928 -128 1133 580 
Q 1338 1288 1338 2009 
Q 1338 2731 1133 3434 
Q 928 4138 513 4856 
z
" transform="scale(0.015625)"/>
      </defs>
      <use xlink:href="#DejaVuSans-3b4"/>
      <use xlink:href="#DejaVuSans-20" transform="translate(61.181641 0)"/>
      <use xlink:href="#DejaVuSans-28" transform="translate(92.96875 0)"/>
      <use xlink:href="#DejaVuSans-32" transform="translate(131.982422 0)"/>
      <use xlink:href="#DejaVuSans-33" transform="translate(195.605469 0)"/>
      <use xlink:href="#DejaVuSans-38" transform="translate(259.228516 0)"/>
      <use xlink:href="#DejaVuSans-29" transform="translate(322.851562 0)"/>
     </g>
    </g>
    <g id="line2d_39">
     <path d="M 464.5925 113.5625 
L 480.5925 113.5625 
L 496.5925 113.5625 
" style="fill: none; stroke: #414487; stroke-width: 2; stroke-linecap: square"/>
    </g>
    <g id="text_25">
     <!-- δ (2) -->
     <g transform="translate(509.3925 119.1625) scale(0.16 -0.16)">
      <use xlink:href="#DejaVuSans-3b4"/>
      <use xlink:href="#DejaVuSans-20" transform="translate(61.181641 0)"/>
      <use xlink:href="#DejaVuSans-28" transform="translate(92.96875 0)"/>
      <use xlink:href="#DejaVuSans-32" transform="translate(131.982422 0)"/>
      <use xlink:href="#DejaVuSans-29" transform="translate(195.605469 0)"/>
     </g>
    </g>
    <g id="line2d_40">
     <path d="M 464.5925 137.0475 
L 480.5925 137.0475 
L 496.5925 137.0475 
" style="fill: none; stroke: #2a788e; stroke-width: 2; stroke-linecap: square"/>
    </g>
    <g id="text_26">
     <!-- θ (48) -->
     <g transform="translate(509.3925 142.6475) scale(0.16 -0.16)">
      <defs>
       <path id="DejaVuSans-3b8" d="M 2953 2219 
L 963 2219 
Q 1009 1284 1225 888 
Q 1494 400 1959 400 
Q 2428 400 2688 891 
Q 2916 1322 2953 2219 
z
M 2944 2750 
Q 2856 3638 2688 3950 
Q 2419 4444 1959 4444 
Q 1481 4444 1228 3956 
Q 1028 3563 969 2750 
L 2944 2750 
z
M 1959 4913 
Q 2709 4913 3138 4250 
Q 3566 3591 3566 2422 
Q 3566 1256 3138 594 
Q 2709 -72 1959 -72 
Q 1206 -72 781 594 
Q 353 1256 353 2422 
Q 353 3591 781 4250 
Q 1206 4913 1959 4913 
z
" transform="scale(0.015625)"/>
      </defs>
      <use xlink:href="#DejaVuSans-3b8"/>
      <use xlink:href="#DejaVuSans-20" transform="translate(61.181641 0)"/>
      <use xlink:href="#DejaVuSans-28" transform="translate(92.96875 0)"/>
      <use xlink:href="#DejaVuSans-34" transform="translate(131.982422 0)"/>
      <use xlink:href="#DejaVuSans-38" transform="translate(195.605469 0)"/>
      <use xlink:href="#DejaVuSans-29" transform="translate(259.228516 0)"/>
     </g>
    </g>
    <g id="line2d_41">
     <path d="M 464.5925 160.5325 
L 480.5925 160.5325 
L 496.5925 160.5325 
" style="fill: none; stroke: #22a884; stroke-width: 2; stroke-linecap: square"/>
    </g>
    <g id="text_27">
     <!-- α (37) -->
     <g transform="translate(509.3925 166.1325) scale(0.16 -0.16)">
      <defs>
       <path id="DejaVuSans-3b1" d="M 2644 1628 
L 2506 2350 
Q 2366 3091 1809 3091 
Q 1391 3091 1200 2747 
Q 959 2316 959 1747 
Q 959 1059 1194 731 
Q 1431 397 1809 397 
Q 2228 397 2453 1063 
L 2644 1628 
z
M 2966 2584 
L 3275 3500 
L 3788 3500 
L 3147 1603 
L 3272 919 
Q 3300 766 3409 638 
Q 3538 488 3638 488 
L 3913 488 
L 3913 0 
L 3569 0 
Q 3275 0 3013 263 
Q 2884 394 2831 669 
Q 2688 322 2394 50 
Q 2256 -78 1809 -78 
Q 1075 -78 719 397 
Q 353 888 353 1747 
Q 353 2666 750 3097 
Q 1191 3578 1809 3578 
Q 2781 3578 2966 2584 
z
" transform="scale(0.015625)"/>
      </defs>
      <use xlink:href="#DejaVuSans-3b1"/>
      <use xlink:href="#DejaVuSans-20" transform="translate(65.917969 0)"/>
      <use xlink:href="#DejaVuSans-28" transform="translate(97.705078 0)"/>
      <use xlink:href="#DejaVuSans-33" transform="translate(136.71875 0)"/>
      <use xlink:href="#DejaVuSans-37" transform="translate(200.341797 0)"/>
      <use xlink:href="#DejaVuSans-29" transform="translate(263.964844 0)"/>
     </g>
    </g>
    <g id="line2d_42">
     <path d="M 464.5925 184.1175 
L 480.5925 184.1175 
L 496.5925 184.1175 
" style="fill: none; stroke: #7ad151; stroke-width: 2; stroke-linecap: square"/>
    </g>
    <g id="text_28">
     <!-- β (33) -->
     <g transform="translate(509.3925 189.7175) scale(0.16 -0.16)">
      <defs>
       <path id="DejaVuSans-3b2" d="M 1178 216 
L 1178 -1331 
L 600 -1331 
L 600 3478 
Q 600 4903 1931 4903 
Q 3288 4903 3288 3700 
Q 3288 2844 2750 2531 
Q 3625 2250 3625 1416 
Q 3625 -66 2119 -66 
Q 1456 -66 1178 216 
z
M 1178 966 
Q 1525 425 2141 425 
Q 3041 425 3041 1406 
Q 3041 2288 1591 2219 
L 1591 2750 
Q 2725 2750 2725 3750 
Q 2725 4434 1994 4434 
Q 1178 4434 1178 3459 
L 1178 966 
z
" transform="scale(0.015625)"/>
      </defs>
      <use xlink:href="#DejaVuSans-3b2"/>
      <use xlink:href="#DejaVuSans-20" transform="translate(63.818359 0)"/>
      <use xlink:href="#DejaVuSans-28" transform="translate(95.605469 0)"/>
      <use xlink:href="#DejaVuSans-33" transform="translate(134.619141 0)"/>
      <use xlink:href="#DejaVuSans-33" transform="translate(198.242188 0)"/>
      <use xlink:href="#DejaVuSans-29" transform="translate(261.865234 0)"/>
     </g>
    </g>
    <g id="line2d_43">
     <path d="M 464.5925 207.7025 
L 480.5925 207.7025 
L 496.5925 207.7025 
" style="fill: none; stroke: #fde725; stroke-width: 2; stroke-linecap: square"/>
    </g>
    <g id="text_29">
     <!-- β (22) -->
     <g transform="translate(509.3925 213.3025) scale(0.16 -0.16)">
      <use xlink:href="#DejaVuSans-3b2"/>
      <use xlink:href="#DejaVuSans-20" transform="translate(63.818359 0)"/>
      <use xlink:href="#DejaVuSans-28" transform="translate(95.605469 0)"/>
      <use xlink:href="#DejaVuSans-32" transform="translate(134.619141 0)"/>
      <use xlink:href="#DejaVuSans-32" transform="translate(198.242188 0)"/>
      <use xlink:href="#DejaVuSans-29" transform="translate(261.865234 0)"/>
     </g>
    </g>
    <g id="line2d_44">
     <path d="M 464.5925 231.1875 
L 480.5925 231.1875 
L 496.5925 231.1875 
" style="fill: none; stroke: #000000; stroke-width: 4; stroke-linecap: square"/>
    </g>
    <g id="text_30">
     <!-- No peak (1392) -->
     <g transform="translate(509.3925 236.7875) scale(0.16 -0.16)">
      <defs>
       <path id="DejaVuSans-6b" d="M 581 4863 
L 1159 4863 
L 1159 1991 
L 2875 3500 
L 3609 3500 
L 1753 1863 
L 3688 0 
L 2938 0 
L 1159 1709 
L 1159 0 
L 581 0 
L 581 4863 
z
" transform="scale(0.015625)"/>
       <path id="DejaVuSans-39" d="M 703 97 
L 703 672 
Q 941 559 1184 500 
Q 1428 441 1663 441 
Q 2288 441 2617 861 
Q 2947 1281 2994 2138 
Q 2813 1869 2534 1725 
Q 2256 1581 1919 1581 
Q 1219 1581 811 2004 
Q 403 2428 403 3163 
Q 403 3881 828 4315 
Q 1253 4750 1959 4750 
Q 2769 4750 3195 4129 
Q 3622 3509 3622 2328 
Q 3622 1225 3098 567 
Q 2575 -91 1691 -91 
Q 1453 -91 1209 -44 
Q 966 3 703 97 
z
M 1959 2075 
Q 2384 2075 2632 2365 
Q 2881 2656 2881 3163 
Q 2881 3666 2632 3958 
Q 2384 4250 1959 4250 
Q 1534 4250 1286 3958 
Q 1038 3666 1038 3163 
Q 1038 2656 1286 2365 
Q 1534 2075 1959 2075 
z
" transform="scale(0.015625)"/>
      </defs>
      <use xlink:href="#DejaVuSans-4e"/>
      <use xlink:href="#DejaVuSans-6f" transform="translate(74.804688 0)"/>
      <use xlink:href="#DejaVuSans-20" transform="translate(135.986328 0)"/>
      <use xlink:href="#DejaVuSans-70" transform="translate(167.773438 0)"/>
      <use xlink:href="#DejaVuSans-65" transform="translate(231.25 0)"/>
      <use xlink:href="#DejaVuSans-61" transform="translate(292.773438 0)"/>
      <use xlink:href="#DejaVuSans-6b" transform="translate(354.052734 0)"/>
      <use xlink:href="#DejaVuSans-20" transform="translate(411.962891 0)"/>
      <use xlink:href="#DejaVuSans-28" transform="translate(443.75 0)"/>
      <use xlink:href="#DejaVuSans-31" transform="translate(482.763672 0)"/>
      <use xlink:href="#DejaVuSans-33" transform="translate(546.386719 0)"/>
      <use xlink:href="#DejaVuSans-39" transform="translate(610.009766 0)"/>
      <use xlink:href="#DejaVuSans-32" transform="translate(673.632812 0)"/>
      <use xlink:href="#DejaVuSans-29" transform="translate(737.255859 0)"/>
     </g>
    </g>
   </g>
  </g>
 </g>
 <defs>
  <clipPath id="pce9d1a53ba">
   <rect x="90" y="69.12" width="558" height="443.52"/>
  </clipPath>
 </defs>
</svg>
