<?xml version="1.0" encoding="utf-8" standalone="no"?>
<!DOCTYPE svg PUBLIC "-//W3C//DTD SVG 1.1//EN"
  "http://www.w3.org/Graphics/SVG/1.1/DTD/svg11.dtd">
<svg xmlns:xlink="http://www.w3.org/1999/xlink" width="720pt" height="576pt" viewBox="0 0 720 576" xmlns="http://www.w3.org/2000/svg" version="1.1">
 <metadata>
  <rdf:RDF xmlns:dc="http://purl.org/dc/elements/1.1/" xmlns:cc="http://creativecommons.org/ns#" xmlns:rdf="http://www.w3.org/1999/02/22-rdf-syntax-ns#">
   <cc:Work>
    <dc:type rdf:resource="http://purl.org/dc/dcmitype/StillImage"/>
    <dc:date>2026-05-07T01:07:21.932881</dc:date>
    <dc:format>image/svg+xml</dc:format>
    <dc:creator>
     <cc:Agent>
      <dc:title>Matplotlib v3.10.9, https://matplotlib.org/</dc:title>
     </cc:Agent>
    </dc:creator>
   </cc:Work>
  </rdf:RDF>
 </metadata>
 <defs>
  <style type="text/css">*{stroke-linejoin: round; stroke-linecap: butt}</style>
 </defs>
 <g id="figure_1">
  <g id="patch_1">
   <path d="M 0 576 
L 720 576 
L 720 0 
L 0 0 
z
" style="fill: #ffffff"/>
  </g>
  <g id="axes_1">
   <g id="patch_2">
    <path d="M 90 512.64 
L 648 512.64 
L 648 69.12 
L 90 69.12 
z
" style="fill: #ffffff"/>
   </g>
   <g id="matplotlib.axis_1">
    <g id="xtick_1">
     <g id="line2d_1">
      <path d="M 115.363636 512.64 
L 115.363636 69.12 
" clip-path="url(#p037a646189)" style="fill: none; stroke: #b0b0b0; stroke-width: 0.8; stroke-linecap: square"/>
     </g>
     <g id="line2d_2">
      <defs>
       <path id="m0a4b3a486b" d="M 0 0 
L 0 3.5 
" style="stroke: #000000; stroke-width: 0.8"/>
      </defs>
      <g>
       <use xlink:href="#m0a4b3a486b" x="115.363636" y="512.64" style="stroke: #000000; stroke-width: 0.8"/>
      </g>
     </g>
     <g id="text_1">
      <!-- 0.5 -->
      <g transform="translate(102.641136 531.7975) scale(0.16 -0.16)">
       <defs>
        <path id="DejaVuSans-30" d="M 2034 4250 
Q 1547 4250 1301 3770 
Q 1056 3291 1056 2328 
Q 1056 1369 1301 889 
Q 1547 409 2034 409 
Q 2525 409 2770 889 
Q 3016 1369 3016 2328 
Q 3016 3291 2770 3770 
Q 2525 4250 2034 4250 
z
M 2034 4750 
Q 2819 4750 3233 4129 
Q 3647 3509 3647 2328 
Q 3647 1150 3233 529 
Q 2819 -91 2034 -91 
Q 1250 -91 836 529 
Q 422 1150 422 2328 
Q 422 3509 836 4129 
Q 1250 4750 2034 4750 
z
" transform="scale(0.015625)"/>
        <path id="DejaVuSans-2e" d="M 684 794 
L 1344 794 
L 1344 0 
L 684 0 
L 684 794 
z
" transform="scale(0.015625)"/>
        <path id="DejaVuSans-35" d="M 691 4666 
L 3169 4666 
L 3169 4134 
L 1269 4134 
L 1269 2991 
Q 1406 3038 1543 3061 
Q 1681 3084 1819 3084 
Q 2600 3084 3056 2656 
Q 3513 2228 3513 1497 
Q 3513 744 3044 326 
Q 2575 -91 1722 -91 
Q 1428 -91 1123 -41 
Q 819 9 494 109 
L 494 744 
Q 775 591 1075 516 
Q 1375 441 1709 441 
Q 2250 441 2565 725 
Q 2881 1009 2881 1497 
Q 2881 1984 2565 2268 
Q 2250 2553 1709 2553 
Q 1456 2553 1204 2497 
Q 953 2441 691 2322 
L 691 4666 
z
" transform="scale(0.015625)"/>
       </defs>
       <use xlink:href="#DejaVuSans-30"/>
       <use xlink:href="#DejaVuSans-2e" transform="translate(63.623047 0)"/>
       <use xlink:href="#DejaVuSans-35" transform="translate(95.410156 0)"/>
      </g>
     </g>
    </g>
    <g id="xtick_2">
     <g id="line2d_3">
      <path d="M 323.207549 512.64 
L 323.207549 69.12 
" clip-path="url(#p037a646189)" style="fill: none; stroke: #b0b0b0; stroke-width: 0.8; stroke-linecap: square"/>
     </g>
     <g id="line2d_4">
      <g>
       <use xlink:href="#m0a4b3a486b" x="323.207549" y="512.64" style="stroke: #000000; stroke-width: 0.8"/>
      </g>
     </g>
     <g id="text_2">
      <!-- 4.0 -->
      <g transform="translate(310.485049 531.7975) scale(0.16 -0.16)">
       <defs>
        <path id="DejaVuSans-34" d="M 2419 4116 
L 825 1625 
L 2419 1625 
L 2419 4116 
z
M 2253 4666 
L 3047 4666 
L 3047 1625 
L 3713 1625 
L 3713 1100 
L 3047 1100 
L 3047 0 
L 2419 0 
L 2419 1100 
L 313 1100 
L 313 1709 
L 2253 4666 
z
" transform="scale(0.015625)"/>
       </defs>
       <use xlink:href="#DejaVuSans-34"/>
       <use xlink:href="#DejaVuSans-2e" transform="translate(63.623047 0)"/>
       <use xlink:href="#DejaVuSans-30" transform="translate(95.410156 0)"/>
      </g>
     </g>
    </g>
    <g id="xtick_3">
     <g id="line2d_5">
      <path d="M 392.488853 512.64 
L 392.488853 69.12 
" clip-path="url(#p037a646189)" style="fill: none; stroke: #b0b0b0; stroke-width: 0.8; stroke-linecap: square"/>
     </g>
     <g id="line2d_6">
      <g>
       <use xlink:href="#m0a4b3a486b" x="392.488853" y="512.64" style="stroke: #000000; stroke-width: 0.8"/>
      </g>
     </g>
     <g id="text_3">
      <!-- 8.0 -->
      <g transform="translate(379.766353 531.7975) scale(0.16 -0.16)">
       <defs>
        <path id="DejaVuSans-38" d="M 2034 2216 
Q 1584 2216 1326 1975 
Q 1069 1734 1069 1313 
Q 1069 891 1326 650 
Q 1584 409 2034 409 
Q 2484 409 2743 651 
Q 3003 894 3003 1313 
Q 3003 1734 2745 1975 
Q 2488 2216 2034 2216 
z
M 1403 2484 
Q 997 2584 770 2862 
Q 544 3141 544 3541 
Q 544 4100 942 4425 
Q 1341 4750 2034 4750 
Q 2731 4750 3128 4425 
Q 3525 4100 3525 3541 
Q 3525 3141 3298 2862 
Q 3072 2584 2669 2484 
Q 3125 2378 3379 2068 
Q 3634 1759 3634 1313 
Q 3634 634 3220 271 
Q 2806 -91 2034 -91 
Q 1263 -91 848 271 
Q 434 634 434 1313 
Q 434 1759 690 2068 
Q 947 2378 1403 2484 
z
M 1172 3481 
Q 1172 3119 1398 2916 
Q 1625 2713 2034 2713 
Q 2441 2713 2670 2916 
Q 2900 3119 2900 3481 
Q 2900 3844 2670 4047 
Q 2441 4250 2034 4250 
Q 1625 4250 1398 4047 
Q 1172 3844 1172 3481 
z
" transform="scale(0.015625)"/>
       </defs>
       <use xlink:href="#DejaVuSans-38"/>
       <use xlink:href="#DejaVuSans-2e" transform="translate(63.623047 0)"/>
       <use xlink:href="#DejaVuSans-30" transform="translate(95.410156 0)"/>
      </g>
     </g>
    </g>
    <g id="xtick_4">
     <g id="line2d_7">
      <path d="M 441.01623 512.64 
L 441.01623 69.12 
" clip-path="url(#p037a646189)" style="fill: none; stroke: #b0b0b0; stroke-width: 0.8; stroke-linecap: square"/>
     </g>
     <g id="line2d_8">
      <g>
       <use xlink:href="#m0a4b3a486b" x="441.01623" y="512.64" style="stroke: #000000; stroke-width: 0.8"/>
      </g>
     </g>
     <g id="text_4">
      <!-- 13.0 -->
      <g transform="translate(423.20373 531.7975) scale(0.16 -0.16)">
       <defs>
        <path id="DejaVuSans-31" d="M 794 531 
L 1825 531 
L 1825 4091 
L 703 3866 
L 703 4441 
L 1819 4666 
L 2450 4666 
L 2450 531 
L 3481 531 
L 3481 0 
L 794 0 
L 794 531 
z
" transform="scale(0.015625)"/>
        <path id="DejaVuSans-33" d="M 2597 2516 
Q 3050 2419 3304 2112 
Q 3559 1806 3559 1356 
Q 3559 666 3084 287 
Q 2609 -91 1734 -91 
Q 1441 -91 1130 -33 
Q 819 25 488 141 
L 488 750 
Q 750 597 1062 519 
Q 1375 441 1716 441 
Q 2309 441 2620 675 
Q 2931 909 2931 1356 
Q 2931 1769 2642 2001 
Q 2353 2234 1838 2234 
L 1294 2234 
L 1294 2753 
L 1863 2753 
Q 2328 2753 2575 2939 
Q 2822 3125 2822 3475 
Q 2822 3834 2567 4026 
Q 2313 4219 1838 4219 
Q 1578 4219 1281 4162 
Q 984 4106 628 3988 
L 628 4550 
Q 988 4650 1302 4700 
Q 1616 4750 1894 4750 
Q 2613 4750 3031 4423 
Q 3450 4097 3450 3541 
Q 3450 3153 3228 2886 
Q 3006 2619 2597 2516 
z
" transform="scale(0.015625)"/>
       </defs>
       <use xlink:href="#DejaVuSans-31"/>
       <use xlink:href="#DejaVuSans-33" transform="translate(63.623047 0)"/>
       <use xlink:href="#DejaVuSans-2e" transform="translate(127.246094 0)"/>
       <use xlink:href="#DejaVuSans-30" transform="translate(159.033203 0)"/>
      </g>
     </g>
    </g>
    <g id="xtick_5">
     <g id="line2d_9">
      <path d="M 524.60072 512.64 
L 524.60072 69.12 
" clip-path="url(#p037a646189)" style="fill: none; stroke: #b0b0b0; stroke-width: 0.8; stroke-linecap: square"/>
     </g>
     <g id="line2d_10">
      <g>
       <use xlink:href="#m0a4b3a486b" x="524.60072" y="512.64" style="stroke: #000000; stroke-width: 0.8"/>
      </g>
     </g>
     <g id="text_5">
      <!-- 30.0 -->
      <g transform="translate(506.78822 531.7975) scale(0.16 -0.16)">
       <use xlink:href="#DejaVuSans-33"/>
       <use xlink:href="#DejaVuSans-30" transform="translate(63.623047 0)"/>
       <use xlink:href="#DejaVuSans-2e" transform="translate(127.246094 0)"/>
       <use xlink:href="#DejaVuSans-30" transform="translate(159.033203 0)"/>
      </g>
     </g>
    </g>
    <g id="xtick_6">
     <g id="line2d_11">
      <path d="M 622.636364 512.64 
L 622.636364 69.12 
" clip-path="url(#p037a646189)" style="fill: none; stroke: #b0b0b0; stroke-width: 0.8; stroke-linecap: square"/>
     </g>
     <g id="line2d_12">
      <g>
       <use xlink:href="#m0a4b3a486b" x="622.636364" y="512.64" style="stroke: #000000; stroke-width: 0.8"/>
      </g>
     </g>
     <g id="text_6">
      <!-- 80.0 -->
      <g transform="translate(604.823864 531.7975) scale(0.16 -0.16)">
       <use xlink:href="#DejaVuSans-38"/>
       <use xlink:href="#DejaVuSans-30" transform="translate(63.623047 0)"/>
       <use xlink:href="#DejaVuSans-2e" transform="translate(127.246094 0)"/>
       <use xlink:href="#DejaVuSans-30" transform="translate(159.033203 0)"/>
      </g>
     </g>
    </g>
    <g id="xtick_7">
     <g id="line2d_13">
      <defs>
       <path id="ma5326f7c52" d="M 0 0 
L 0 2 
" style="stroke: #000000; stroke-width: 0.6"/>
      </defs>
      <g>
       <use xlink:href="#ma5326f7c52" x="93.060038" y="512.64" style="stroke: #000000; stroke-width: 0.6"/>
      </g>
     </g>
    </g>
    <g id="xtick_8">
     <g id="line2d_14">
      <g>
       <use xlink:href="#ma5326f7c52" x="133.587003" y="512.64" style="stroke: #000000; stroke-width: 0.6"/>
      </g>
     </g>
    </g>
    <g id="xtick_9">
     <g id="line2d_15">
      <g>
       <use xlink:href="#ma5326f7c52" x="148.99464" y="512.64" style="stroke: #000000; stroke-width: 0.6"/>
      </g>
     </g>
    </g>
    <g id="xtick_10">
     <g id="line2d_16">
      <g>
       <use xlink:href="#ma5326f7c52" x="162.341342" y="512.64" style="stroke: #000000; stroke-width: 0.6"/>
      </g>
     </g>
    </g>
    <g id="xtick_11">
     <g id="line2d_17">
      <g>
       <use xlink:href="#ma5326f7c52" x="174.113968" y="512.64" style="stroke: #000000; stroke-width: 0.6"/>
      </g>
     </g>
    </g>
    <g id="xtick_12">
     <g id="line2d_18">
      <g>
       <use xlink:href="#ma5326f7c52" x="253.926245" y="512.64" style="stroke: #000000; stroke-width: 0.6"/>
      </g>
     </g>
    </g>
    <g id="xtick_13">
     <g id="line2d_19">
      <g>
       <use xlink:href="#ma5326f7c52" x="294.45321" y="512.64" style="stroke: #000000; stroke-width: 0.6"/>
      </g>
     </g>
    </g>
    <g id="xtick_14">
     <g id="line2d_20">
      <g>
       <use xlink:href="#ma5326f7c52" x="345.511147" y="512.64" style="stroke: #000000; stroke-width: 0.6"/>
      </g>
     </g>
    </g>
    <g id="xtick_15">
     <g id="line2d_21">
      <g>
       <use xlink:href="#ma5326f7c52" x="363.734514" y="512.64" style="stroke: #000000; stroke-width: 0.6"/>
      </g>
     </g>
    </g>
    <g id="xtick_16">
     <g id="line2d_22">
      <g>
       <use xlink:href="#ma5326f7c52" x="379.142151" y="512.64" style="stroke: #000000; stroke-width: 0.6"/>
      </g>
     </g>
    </g>
    <g id="xtick_17">
     <g id="line2d_23">
      <g>
       <use xlink:href="#ma5326f7c52" x="404.261479" y="512.64" style="stroke: #000000; stroke-width: 0.6"/>
      </g>
     </g>
    </g>
    <g id="xtick_18">
     <g id="line2d_24">
      <g>
       <use xlink:href="#ma5326f7c52" x="484.073755" y="512.64" style="stroke: #000000; stroke-width: 0.6"/>
      </g>
     </g>
    </g>
    <g id="xtick_19">
     <g id="line2d_25">
      <g>
       <use xlink:href="#ma5326f7c52" x="553.355059" y="512.64" style="stroke: #000000; stroke-width: 0.6"/>
      </g>
     </g>
    </g>
    <g id="xtick_20">
     <g id="line2d_26">
      <g>
       <use xlink:href="#ma5326f7c52" x="575.658658" y="512.64" style="stroke: #000000; stroke-width: 0.6"/>
      </g>
     </g>
    </g>
    <g id="xtick_21">
     <g id="line2d_27">
      <g>
       <use xlink:href="#ma5326f7c52" x="593.882024" y="512.64" style="stroke: #000000; stroke-width: 0.6"/>
      </g>
     </g>
    </g>
    <g id="xtick_22">
     <g id="line2d_28">
      <g>
       <use xlink:href="#ma5326f7c52" x="609.289661" y="512.64" style="stroke: #000000; stroke-width: 0.6"/>
      </g>
     </g>
    </g>
    <g id="xtick_23">
     <g id="line2d_29">
      <g>
       <use xlink:href="#ma5326f7c52" x="634.408989" y="512.64" style="stroke: #000000; stroke-width: 0.6"/>
      </g>
     </g>
    </g>
    <g id="text_7">
     <!-- Frequency -->
     <g transform="translate(327.6725 551.2825) scale(0.16 -0.16)">
      <defs>
       <path id="DejaVuSans-46" d="M 628 4666 
L 3309 4666 
L 3309 4134 
L 1259 4134 
L 1259 2759 
L 3109 2759 
L 3109 2228 
L 1259 2228 
L 1259 0 
L 628 0 
L 628 4666 
z
" transform="scale(0.015625)"/>
       <path id="DejaVuSans-72" d="M 2631 2963 
Q 2534 3019 2420 3045 
Q 2306 3072 2169 3072 
Q 1681 3072 1420 2755 
Q 1159 2438 1159 1844 
L 1159 0 
L 581 0 
L 581 3500 
L 1159 3500 
L 1159 2956 
Q 1341 3275 1631 3429 
Q 1922 3584 2338 3584 
Q 2397 3584 2469 3576 
Q 2541 3569 2628 3553 
L 2631 2963 
z
" transform="scale(0.015625)"/>
       <path id="DejaVuSans-65" d="M 3597 1894 
L 3597 1613 
L 953 1613 
Q 991 1019 1311 708 
Q 1631 397 2203 397 
Q 2534 397 2845 478 
Q 3156 559 3463 722 
L 3463 178 
Q 3153 47 2828 -22 
Q 2503 -91 2169 -91 
Q 1331 -91 842 396 
Q 353 884 353 1716 
Q 353 2575 817 3079 
Q 1281 3584 2069 3584 
Q 2775 3584 3186 3129 
Q 3597 2675 3597 1894 
z
M 3022 2063 
Q 3016 2534 2758 2815 
Q 2500 3097 2075 3097 
Q 1594 3097 1305 2825 
Q 1016 2553 972 2059 
L 3022 2063 
z
" transform="scale(0.015625)"/>
       <path id="DejaVuSans-71" d="M 947 1747 
Q 947 1113 1208 752 
Q 1469 391 1925 391 
Q 2381 391 2643 752 
Q 2906 1113 2906 1747 
Q 2906 2381 2643 2742 
Q 2381 3103 1925 3103 
Q 1469 3103 1208 2742 
Q 947 2381 947 1747 
z
M 2906 525 
Q 2725 213 2448 61 
Q 2172 -91 1784 -91 
Q 1150 -91 751 415 
Q 353 922 353 1747 
Q 353 2572 751 3078 
Q 1150 3584 1784 3584 
Q 2172 3584 2448 3432 
Q 2725 3281 2906 2969 
L 2906 3500 
L 3481 3500 
L 3481 -1331 
L 2906 -1331 
L 2906 525 
z
" transform="scale(0.015625)"/>
       <path id="DejaVuSans-75" d="M 544 1381 
L 544 3500 
L 1119 3500 
L 1119 1403 
Q 1119 906 1312 657 
Q 1506 409 1894 409 
Q 2359 409 2629 706 
Q 2900 1003 2900 1516 
L 2900 3500 
L 3475 3500 
L 3475 0 
L 2900 0 
L 2900 538 
Q 2691 219 2414 64 
Q 2138 -91 1772 -91 
Q 1169 -91 856 284 
Q 544 659 544 1381 
z
M 1991 3584 
L 1991 3584 
z
" transform="scale(0.015625)"/>
       <path id="DejaVuSans-6e" d="M 3513 2113 
L 3513 0 
L 2938 0 
L 2938 2094 
Q 2938 2591 2744 2837 
Q 2550 3084 2163 3084 
Q 1697 3084 1428 2787 
Q 1159 2491 1159 1978 
L 1159 0 
L 581 0 
L 581 3500 
L 1159 3500 
L 1159 2956 
Q 1366 3272 1645 3428 
Q 1925 3584 2291 3584 
Q 2894 3584 3203 3211 
Q 3513 2838 3513 2113 
z
" transform="scale(0.015625)"/>
       <path id="DejaVuSans-63" d="M 3122 3366 
L 3122 2828 
Q 2878 2963 2633 3030 
Q 2388 3097 2138 3097 
Q 1578 3097 1268 2742 
Q 959 2388 959 1747 
Q 959 1106 1268 751 
Q 1578 397 2138 397 
Q 2388 397 2633 464 
Q 2878 531 3122 666 
L 3122 134 
Q 2881 22 2623 -34 
Q 2366 -91 2075 -91 
Q 1284 -91 818 406 
Q 353 903 353 1747 
Q 353 2603 823 3093 
Q 1294 3584 2113 3584 
Q 2378 3584 2631 3529 
Q 2884 3475 3122 3366 
z
" transform="scale(0.015625)"/>
       <path id="DejaVuSans-79" d="M 2059 -325 
Q 1816 -950 1584 -1140 
Q 1353 -1331 966 -1331 
L 506 -1331 
L 506 -850 
L 844 -850 
Q 1081 -850 1212 -737 
Q 1344 -625 1503 -206 
L 1606 56 
L 191 3500 
L 800 3500 
L 1894 763 
L 2988 3500 
L 3597 3500 
L 2059 -325 
z
" transform="scale(0.015625)"/>
      </defs>
      <use xlink:href="#DejaVuSans-46"/>
      <use xlink:href="#DejaVuSans-72" transform="translate(50.269531 0)"/>
      <use xlink:href="#DejaVuSans-65" transform="translate(89.132812 0)"/>
      <use xlink:href="#DejaVuSans-71" transform="translate(150.65625 0)"/>
      <use xlink:href="#DejaVuSans-75" transform="translate(214.132812 0)"/>
      <use xlink:href="#DejaVuSans-65" transform="translate(277.511719 0)"/>
      <use xlink:href="#DejaVuSans-6e" transform="translate(339.035156 0)"/>
      <use xlink:href="#DejaVuSans-63" transform="translate(402.414062 0)"/>
      <use xlink:href="#DejaVuSans-79" transform="translate(457.394531 0)"/>
     </g>
    </g>
   </g>
   <g id="matplotlib.axis_2">
    <g id="ytick_1">
     <g id="line2d_30">
      <path d="M 90 401.311763 
L 648 401.311763 
" clip-path="url(#p037a646189)" style="fill: none; stroke: #b0b0b0; stroke-width: 0.8; stroke-linecap: square"/>
     </g>
     <g id="line2d_31">
      <defs>
       <path id="m2f87826559" d="M 0 0 
L -3.5 0 
" style="stroke: #000000; stroke-width: 0.8"/>
      </defs>
      <g>
       <use xlink:href="#m2f87826559" x="90" y="401.311763" style="stroke: #000000; stroke-width: 0.8"/>
      </g>
     </g>
     <g id="text_8">
      <!-- $\mathdefault{10^{0}}$ -->
      <g transform="translate(54.84 407.390513) scale(0.16 -0.16)">
       <use xlink:href="#DejaVuSans-31" transform="translate(0 0.765625)"/>
       <use xlink:href="#DejaVuSans-30" transform="translate(63.623047 0.765625)"/>
       <use xlink:href="#DejaVuSans-30" transform="translate(128.203125 39.046875) scale(0.7)"/>
      </g>
     </g>
    </g>
    <g id="ytick_2">
     <g id="line2d_32">
      <path d="M 90 194.692366 
L 648 194.692366 
" clip-path="url(#p037a646189)" style="fill: none; stroke: #b0b0b0; stroke-width: 0.8; stroke-linecap: square"/>
     </g>
     <g id="line2d_33">
      <g>
       <use xlink:href="#m2f87826559" x="90" y="194.692366" style="stroke: #000000; stroke-width: 0.8"/>
      </g>
     </g>
     <g id="text_9">
      <!-- $\mathdefault{10^{1}}$ -->
      <g transform="translate(54.84 200.771116) scale(0.16 -0.16)">
       <use xlink:href="#DejaVuSans-31" transform="translate(0 0.684375)"/>
       <use xlink:href="#DejaVuSans-30" transform="translate(63.623047 0.684375)"/>
       <use xlink:href="#DejaVuSans-31" transform="translate(128.203125 38.965625) scale(0.7)"/>
      </g>
     </g>
    </g>
    <g id="ytick_3">
     <g id="line2d_34">
      <defs>
       <path id="mbea419db2b" d="M 0 0 
L -2 0 
" style="stroke: #000000; stroke-width: 0.6"/>
      </defs>
      <g>
       <use xlink:href="#mbea419db2b" x="90" y="509.348654" style="stroke: #000000; stroke-width: 0.6"/>
      </g>
     </g>
    </g>
    <g id="ytick_4">
     <g id="line2d_35">
      <g>
       <use xlink:href="#mbea419db2b" x="90" y="483.533888" style="stroke: #000000; stroke-width: 0.6"/>
      </g>
     </g>
    </g>
    <g id="ytick_5">
     <g id="line2d_36">
      <g>
       <use xlink:href="#mbea419db2b" x="90" y="463.510399" style="stroke: #000000; stroke-width: 0.6"/>
      </g>
     </g>
    </g>
    <g id="ytick_6">
     <g id="line2d_37">
      <g>
       <use xlink:href="#mbea419db2b" x="90" y="447.150018" style="stroke: #000000; stroke-width: 0.6"/>
      </g>
     </g>
    </g>
    <g id="ytick_7">
     <g id="line2d_38">
      <g>
       <use xlink:href="#mbea419db2b" x="90" y="433.317512" style="stroke: #000000; stroke-width: 0.6"/>
      </g>
     </g>
    </g>
    <g id="ytick_8">
     <g id="line2d_39">
      <g>
       <use xlink:href="#mbea419db2b" x="90" y="421.335251" style="stroke: #000000; stroke-width: 0.6"/>
      </g>
     </g>
    </g>
    <g id="ytick_9">
     <g id="line2d_40">
      <g>
       <use xlink:href="#mbea419db2b" x="90" y="410.766148" style="stroke: #000000; stroke-width: 0.6"/>
      </g>
     </g>
    </g>
    <g id="ytick_10">
     <g id="line2d_41">
      <g>
       <use xlink:href="#mbea419db2b" x="90" y="339.113127" style="stroke: #000000; stroke-width: 0.6"/>
      </g>
     </g>
    </g>
    <g id="ytick_11">
     <g id="line2d_42">
      <g>
       <use xlink:href="#mbea419db2b" x="90" y="302.729257" style="stroke: #000000; stroke-width: 0.6"/>
      </g>
     </g>
    </g>
    <g id="ytick_12">
     <g id="line2d_43">
      <g>
       <use xlink:href="#mbea419db2b" x="90" y="276.91449" style="stroke: #000000; stroke-width: 0.6"/>
      </g>
     </g>
    </g>
    <g id="ytick_13">
     <g id="line2d_44">
      <g>
       <use xlink:href="#mbea419db2b" x="90" y="256.891002" style="stroke: #000000; stroke-width: 0.6"/>
      </g>
     </g>
    </g>
    <g id="ytick_14">
     <g id="line2d_45">
      <g>
       <use xlink:href="#mbea419db2b" x="90" y="240.530621" style="stroke: #000000; stroke-width: 0.6"/>
      </g>
     </g>
    </g>
    <g id="ytick_15">
     <g id="line2d_46">
      <g>
       <use xlink:href="#mbea419db2b" x="90" y="226.698115" style="stroke: #000000; stroke-width: 0.6"/>
      </g>
     </g>
    </g>
    <g id="ytick_16">
     <g id="line2d_47">
      <g>
       <use xlink:href="#mbea419db2b" x="90" y="214.715854" style="stroke: #000000; stroke-width: 0.6"/>
      </g>
     </g>
    </g>
    <g id="ytick_17">
     <g id="line2d_48">
      <g>
       <use xlink:href="#mbea419db2b" x="90" y="204.146751" style="stroke: #000000; stroke-width: 0.6"/>
      </g>
     </g>
    </g>
    <g id="ytick_18">
     <g id="line2d_49">
      <g>
       <use xlink:href="#mbea419db2b" x="90" y="132.493729" style="stroke: #000000; stroke-width: 0.6"/>
      </g>
     </g>
    </g>
    <g id="ytick_19">
     <g id="line2d_50">
      <g>
       <use xlink:href="#mbea419db2b" x="90" y="96.109859" style="stroke: #000000; stroke-width: 0.6"/>
      </g>
     </g>
    </g>
    <g id="ytick_20">
     <g id="line2d_51">
      <g>
       <use xlink:href="#mbea419db2b" x="90" y="70.295093" style="stroke: #000000; stroke-width: 0.6"/>
      </g>
     </g>
    </g>
    <g id="text_10">
     <!-- Log of normalized spectral density -->
     <g transform="translate(47.5125 428.95625) rotate(-90) scale(0.16 -0.16)">
      <defs>
       <path id="DejaVuSans-4c" d="M 628 4666 
L 1259 4666 
L 1259 531 
L 3531 531 
L 3531 0 
L 628 0 
L 628 4666 
z
" transform="scale(0.015625)"/>
       <path id="DejaVuSans-6f" d="M 1959 3097 
Q 1497 3097 1228 2736 
Q 959 2375 959 1747 
Q 959 1119 1226 758 
Q 1494 397 1959 397 
Q 2419 397 2687 759 
Q 2956 1122 2956 1747 
Q 2956 2369 2687 2733 
Q 2419 3097 1959 3097 
z
M 1959 3584 
Q 2709 3584 3137 3096 
Q 3566 2609 3566 1747 
Q 3566 888 3137 398 
Q 2709 -91 1959 -91 
Q 1206 -91 779 398 
Q 353 888 353 1747 
Q 353 2609 779 3096 
Q 1206 3584 1959 3584 
z
" transform="scale(0.015625)"/>
       <path id="DejaVuSans-67" d="M 2906 1791 
Q 2906 2416 2648 2759 
Q 2391 3103 1925 3103 
Q 1463 3103 1205 2759 
Q 947 2416 947 1791 
Q 947 1169 1205 825 
Q 1463 481 1925 481 
Q 2391 481 2648 825 
Q 2906 1169 2906 1791 
z
M 3481 434 
Q 3481 -459 3084 -895 
Q 2688 -1331 1869 -1331 
Q 1566 -1331 1297 -1286 
Q 1028 -1241 775 -1147 
L 775 -588 
Q 1028 -725 1275 -790 
Q 1522 -856 1778 -856 
Q 2344 -856 2625 -561 
Q 2906 -266 2906 331 
L 2906 616 
Q 2728 306 2450 153 
Q 2172 0 1784 0 
Q 1141 0 747 490 
Q 353 981 353 1791 
Q 353 2603 747 3093 
Q 1141 3584 1784 3584 
Q 2172 3584 2450 3431 
Q 2728 3278 2906 2969 
L 2906 3500 
L 3481 3500 
L 3481 434 
z
" transform="scale(0.015625)"/>
       <path id="DejaVuSans-20" transform="scale(0.015625)"/>
       <path id="DejaVuSans-66" d="M 2375 4863 
L 2375 4384 
L 1825 4384 
Q 1516 4384 1395 4259 
Q 1275 4134 1275 3809 
L 1275 3500 
L 2222 3500 
L 2222 3053 
L 1275 3053 
L 1275 0 
L 697 0 
L 697 3053 
L 147 3053 
L 147 3500 
L 697 3500 
L 697 3744 
Q 697 4328 969 4595 
Q 1241 4863 1831 4863 
L 2375 4863 
z
" transform="scale(0.015625)"/>
       <path id="DejaVuSans-6d" d="M 3328 2828 
Q 3544 3216 3844 3400 
Q 4144 3584 4550 3584 
Q 5097 3584 5394 3201 
Q 5691 2819 5691 2113 
L 5691 0 
L 5113 0 
L 5113 2094 
Q 5113 2597 4934 2840 
Q 4756 3084 4391 3084 
Q 3944 3084 3684 2787 
Q 3425 2491 3425 1978 
L 3425 0 
L 2847 0 
L 2847 2094 
Q 2847 2600 2669 2842 
Q 2491 3084 2119 3084 
Q 1678 3084 1418 2786 
Q 1159 2488 1159 1978 
L 1159 0 
L 581 0 
L 581 3500 
L 1159 3500 
L 1159 2956 
Q 1356 3278 1631 3431 
Q 1906 3584 2284 3584 
Q 2666 3584 2933 3390 
Q 3200 3197 3328 2828 
z
" transform="scale(0.015625)"/>
       <path id="DejaVuSans-61" d="M 2194 1759 
Q 1497 1759 1228 1600 
Q 959 1441 959 1056 
Q 959 750 1161 570 
Q 1363 391 1709 391 
Q 2188 391 2477 730 
Q 2766 1069 2766 1631 
L 2766 1759 
L 2194 1759 
z
M 3341 1997 
L 3341 0 
L 2766 0 
L 2766 531 
Q 2569 213 2275 61 
Q 1981 -91 1556 -91 
Q 1019 -91 701 211 
Q 384 513 384 1019 
Q 384 1609 779 1909 
Q 1175 2209 1959 2209 
L 2766 2209 
L 2766 2266 
Q 2766 2663 2505 2880 
Q 2244 3097 1772 3097 
Q 1472 3097 1187 3025 
Q 903 2953 641 2809 
L 641 3341 
Q 956 3463 1253 3523 
Q 1550 3584 1831 3584 
Q 2591 3584 2966 3190 
Q 3341 2797 3341 1997 
z
" transform="scale(0.015625)"/>
       <path id="DejaVuSans-6c" d="M 603 4863 
L 1178 4863 
L 1178 0 
L 603 0 
L 603 4863 
z
" transform="scale(0.015625)"/>
       <path id="DejaVuSans-69" d="M 603 3500 
L 1178 3500 
L 1178 0 
L 603 0 
L 603 3500 
z
M 603 4863 
L 1178 4863 
L 1178 4134 
L 603 4134 
L 603 4863 
z
" transform="scale(0.015625)"/>
       <path id="DejaVuSans-7a" d="M 353 3500 
L 3084 3500 
L 3084 2975 
L 922 459 
L 3084 459 
L 3084 0 
L 275 0 
L 275 525 
L 2438 3041 
L 353 3041 
L 353 3500 
z
" transform="scale(0.015625)"/>
       <path id="DejaVuSans-64" d="M 2906 2969 
L 2906 4863 
L 3481 4863 
L 3481 0 
L 2906 0 
L 2906 525 
Q 2725 213 2448 61 
Q 2172 -91 1784 -91 
Q 1150 -91 751 415 
Q 353 922 353 1747 
Q 353 2572 751 3078 
Q 1150 3584 1784 3584 
Q 2172 3584 2448 3432 
Q 2725 3281 2906 2969 
z
M 947 1747 
Q 947 1113 1208 752 
Q 1469 391 1925 391 
Q 2381 391 2643 752 
Q 2906 1113 2906 1747 
Q 2906 2381 2643 2742 
Q 2381 3103 1925 3103 
Q 1469 3103 1208 2742 
Q 947 2381 947 1747 
z
" transform="scale(0.015625)"/>
       <path id="DejaVuSans-73" d="M 2834 3397 
L 2834 2853 
Q 2591 2978 2328 3040 
Q 2066 3103 1784 3103 
Q 1356 3103 1142 2972 
Q 928 2841 928 2578 
Q 928 2378 1081 2264 
Q 1234 2150 1697 2047 
L 1894 2003 
Q 2506 1872 2764 1633 
Q 3022 1394 3022 966 
Q 3022 478 2636 193 
Q 2250 -91 1575 -91 
Q 1294 -91 989 -36 
Q 684 19 347 128 
L 347 722 
Q 666 556 975 473 
Q 1284 391 1588 391 
Q 1994 391 2212 530 
Q 2431 669 2431 922 
Q 2431 1156 2273 1281 
Q 2116 1406 1581 1522 
L 1381 1569 
Q 847 1681 609 1914 
Q 372 2147 372 2553 
Q 372 3047 722 3315 
Q 1072 3584 1716 3584 
Q 2034 3584 2315 3537 
Q 2597 3491 2834 3397 
z
" transform="scale(0.015625)"/>
       <path id="DejaVuSans-70" d="M 1159 525 
L 1159 -1331 
L 581 -1331 
L 581 3500 
L 1159 3500 
L 1159 2969 
Q 1341 3281 1617 3432 
Q 1894 3584 2278 3584 
Q 2916 3584 3314 3078 
Q 3713 2572 3713 1747 
Q 3713 922 3314 415 
Q 2916 -91 2278 -91 
Q 1894 -91 1617 61 
Q 1341 213 1159 525 
z
M 3116 1747 
Q 3116 2381 2855 2742 
Q 2594 3103 2138 3103 
Q 1681 3103 1420 2742 
Q 1159 2381 1159 1747 
Q 1159 1113 1420 752 
Q 1681 391 2138 391 
Q 2594 391 2855 752 
Q 3116 1113 3116 1747 
z
" transform="scale(0.015625)"/>
       <path id="DejaVuSans-74" d="M 1172 4494 
L 1172 3500 
L 2356 3500 
L 2356 3053 
L 1172 3053 
L 1172 1153 
Q 1172 725 1289 603 
Q 1406 481 1766 481 
L 2356 481 
L 2356 0 
L 1766 0 
Q 1100 0 847 248 
Q 594 497 594 1153 
L 594 3053 
L 172 3053 
L 172 3500 
L 594 3500 
L 594 4494 
L 1172 4494 
z
" transform="scale(0.015625)"/>
      </defs>
      <use xlink:href="#DejaVuSans-4c"/>
      <use xlink:href="#DejaVuSans-6f" transform="translate(53.962891 0)"/>
      <use xlink:href="#DejaVuSans-67" transform="translate(115.144531 0)"/>
      <use xlink:href="#DejaVuSans-20" transform="translate(178.621094 0)"/>
      <use xlink:href="#DejaVuSans-6f" transform="translate(210.408203 0)"/>
      <use xlink:href="#DejaVuSans-66" transform="translate(271.589844 0)"/>
      <use xlink:href="#DejaVuSans-20" transform="translate(306.794922 0)"/>
      <use xlink:href="#DejaVuSans-6e" transform="translate(338.582031 0)"/>
      <use xlink:href="#DejaVuSans-6f" transform="translate(401.960938 0)"/>
      <use xlink:href="#DejaVuSans-72" transform="translate(463.142578 0)"/>
      <use xlink:href="#DejaVuSans-6d" transform="translate(502.505859 0)"/>
      <use xlink:href="#DejaVuSans-61" transform="translate(599.917969 0)"/>
      <use xlink:href="#DejaVuSans-6c" transform="translate(661.197266 0)"/>
      <use xlink:href="#DejaVuSans-69" transform="translate(688.980469 0)"/>
      <use xlink:href="#DejaVuSans-7a" transform="translate(716.763672 0)"/>
      <use xlink:href="#DejaVuSans-65" transform="translate(769.253906 0)"/>
      <use xlink:href="#DejaVuSans-64" transform="translate(830.777344 0)"/>
      <use xlink:href="#DejaVuSans-20" transform="translate(894.253906 0)"/>
      <use xlink:href="#DejaVuSans-73" transform="translate(926.041016 0)"/>
      <use xlink:href="#DejaVuSans-70" transform="translate(978.140625 0)"/>
      <use xlink:href="#DejaVuSans-65" transform="translate(1041.617188 0)"/>
      <use xlink:href="#DejaVuSans-63" transform="translate(1103.140625 0)"/>
      <use xlink:href="#DejaVuSans-74" transform="translate(1158.121094 0)"/>
      <use xlink:href="#DejaVuSans-72" transform="translate(1197.330078 0)"/>
      <use xlink:href="#DejaVuSans-61" transform="translate(1238.443359 0)"/>
      <use xlink:href="#DejaVuSans-6c" transform="translate(1299.722656 0)"/>
      <use xlink:href="#DejaVuSans-20" transform="translate(1327.505859 0)"/>
      <use xlink:href="#DejaVuSans-64" transform="translate(1359.292969 0)"/>
      <use xlink:href="#DejaVuSans-65" transform="translate(1422.769531 0)"/>
      <use xlink:href="#DejaVuSans-6e" transform="translate(1484.292969 0)"/>
      <use xlink:href="#DejaVuSans-73" transform="translate(1547.671875 0)"/>
      <use xlink:href="#DejaVuSans-69" transform="translate(1599.771484 0)"/>
      <use xlink:href="#DejaVuSans-74" transform="translate(1627.554688 0)"/>
      <use xlink:href="#DejaVuSans-79" transform="translate(1666.763672 0)"/>
     </g>
    </g>
   </g>
   <g id="line2d_52">
    <path d="M 115.363636 213.726885 
L 184.644941 177.400937 
L 225.171905 214.453467 
L 253.926245 258.845133 
L 276.229843 291.478999 
L 294.45321 310.125894 
L 309.860847 319.647999 
L 323.207549 324.113876 
L 334.980175 325.298164 
L 345.511147 331.844887 
L 355.037571 345.419873 
L 363.734514 336.644194 
L 371.734926 366.214272 
L 379.142151 381.650175 
L 386.038112 389.265824 
L 392.488853 393.832972 
L 398.548393 401.693793 
L 404.261479 405.752676 
L 409.665594 414.693571 
L 414.792451 420.23653 
L 419.669116 426.931099 
L 424.318875 423.764227 
L 428.761908 425.801775 
L 433.015818 421.795251 
L 437.096049 419.114241 
L 441.01623 421.315037 
L 444.788444 421.921948 
L 448.423455 417.244753 
L 451.930895 419.375595 
L 455.319416 416.297501 
L 458.596818 412.454408 
L 461.770157 411.487491 
L 464.84584 411.198164 
L 467.829697 407.757562 
L 470.727053 410.608651 
L 473.542783 406.838977 
L 476.281359 404.262347 
L 478.946899 397.358908 
L 481.543195 401.859644 
L 484.073755 396.394972 
L 486.541826 400.150609 
L 488.95042 396.646113 
L 491.302335 398.067116 
L 493.600179 392.636609 
L 495.846381 394.042115 
L 498.043212 396.912917 
L 500.192796 391.872957 
L 502.297122 392.273647 
L 504.358057 394.275826 
L 506.377354 390.765704 
L 508.356662 387.790559 
L 510.297534 386.604848 
L 512.201435 384.822205 
L 514.069748 382.452396 
L 515.903777 380.329328 
L 517.704759 385.146759 
L 519.473863 380.380176 
L 521.212199 377.036872 
L 522.920819 379.927921 
L 524.60072 389.077116 
L 526.252854 392.656916 
L 527.878122 389.697172 
L 529.477385 386.452189 
L 531.051461 387.743386 
L 532.601132 388.357019 
L 534.127144 393.828542 
L 535.630207 396.116508 
L 537.111001 396.730533 
L 538.570177 396.019603 
L 540.008357 396.379573 
L 541.426137 395.235742 
L 542.824087 397.987613 
L 544.202754 394.797083 
L 545.562664 394.316456 
L 546.904319 403.056111 
L 548.228203 401.513522 
L 550.824499 393.93133 
L 552.097788 398.252493 
L 553.355059 397.786145 
L 554.596713 392.892381 
L 555.82313 398.111652 
L 557.034682 399.773068 
L 558.231724 399.798621 
L 559.414599 400.114372 
L 560.583639 401.359146 
L 561.739164 400.819389 
L 562.881483 399.732832 
L 564.010894 404.189743 
L 565.127685 401.821679 
L 566.232136 402.568198 
L 567.324516 405.617163 
L 568.405087 404.494785 
L 569.4741 406.121313 
L 570.531801 408.902327 
L 571.578426 409.117428 
L 572.614205 408.892169 
L 573.639361 406.389723 
L 574.654109 402.557841 
L 575.658658 400.937803 
L 576.653211 405.871196 
L 577.637966 399.437055 
L 578.613113 402.142505 
L 579.578838 400.641498 
L 580.535322 395.206762 
L 581.48274 396.993815 
L 582.421261 392.782146 
L 583.351052 392.837706 
L 584.272273 395.724841 
L 585.185081 396.656687 
L 586.089628 397.878016 
L 586.986063 397.490885 
L 587.874529 400.672667 
L 588.755168 401.011295 
L 589.628115 403.109098 
L 590.493504 406.56617 
L 591.351464 415.383311 
L 592.202123 419.343278 
L 593.045603 414.117513 
L 593.882024 418.00337 
L 594.711505 410.492594 
L 595.534158 411.594715 
L 596.350095 399.774332 
L 597.159426 396.054142 
L 597.962256 393.394656 
L 598.758689 392.723951 
L 599.548826 388.237524 
L 600.332765 382.085863 
L 601.110604 380.995028 
L 601.882437 378.529627 
L 602.648355 375.671653 
L 603.408448 378.20561 
L 604.162805 376.333762 
L 604.911511 375.633402 
L 605.65465 372.035049 
L 606.392305 371.043319 
L 607.124556 371.632488 
L 607.851481 372.383881 
L 608.573158 376.376348 
L 609.289661 379.266555 
L 610.001065 379.414968 
L 610.707441 376.875465 
L 611.40886 375.04126 
L 612.105391 378.368398 
L 612.797102 379.174926 
L 613.484058 378.128105 
L 614.166326 382.475595 
L 614.843968 383.157806 
L 615.517046 388.258348 
L 616.185623 389.037366 
L 616.849757 385.879984 
L 617.509507 396.284709 
L 618.164931 409.002317 
L 618.816085 413.310735 
L 619.463024 418.706018 
L 620.744475 442.953744 
L 621.379092 452.753968 
L 622.009705 466.565635 
L 622.636364 488.588405 
L 622.636364 488.588405 
" clip-path="url(#p037a646189)" style="fill: none; stroke: #440154; stroke-width: 2; stroke-linecap: square"/>
   </g>
   <g id="line2d_53">
    <path d="M 115.363636 395.194739 
L 184.644941 334.14419 
L 225.171905 332.401284 
L 253.926245 328.463667 
L 276.229843 307.74934 
L 294.45321 276.471419 
L 309.860847 264.23905 
L 323.207549 267.193839 
L 334.980175 240.540907 
L 345.511147 234.871309 
L 355.037571 212.903531 
L 363.734514 198.238048 
L 371.734926 198.230932 
L 379.142151 199.874911 
L 386.038112 223.251755 
L 392.488853 250.992597 
L 398.548393 296.344715 
L 404.261479 348.221957 
L 409.665594 371.085262 
L 414.792451 385.625106 
L 419.669116 397.7765 
L 424.318875 408.830079 
L 428.761908 411.348444 
L 433.015818 409.484393 
L 437.096049 410.956314 
L 441.01623 414.323538 
L 448.423455 403.940094 
L 451.930895 404.395488 
L 455.319416 395.259746 
L 458.596818 401.63469 
L 461.770157 400.822589 
L 464.84584 404.971547 
L 467.829697 414.417865 
L 470.727053 418.471375 
L 473.542783 418.593087 
L 476.281359 417.262808 
L 478.946899 412.900924 
L 481.543195 406.797397 
L 484.073755 403.918766 
L 486.541826 399.958214 
L 488.95042 400.58806 
L 491.302335 388.810519 
L 493.600179 383.355321 
L 495.846381 372.967528 
L 498.043212 382.203172 
L 500.192796 395.661934 
L 502.297122 397.620469 
L 504.358057 387.360606 
L 506.377354 368.340327 
L 508.356662 362.281397 
L 510.297534 371.929901 
L 512.201435 361.920084 
L 514.069748 360.736255 
L 515.903777 347.56957 
L 517.704759 347.06734 
L 519.473863 349.556532 
L 522.920819 338.912123 
L 524.60072 343.730111 
L 526.252854 350.451745 
L 527.878122 363.420368 
L 529.477385 372.413242 
L 532.601132 377.759305 
L 534.127144 374.236864 
L 535.630207 382.282024 
L 537.111001 379.764101 
L 538.570177 390.322011 
L 540.008357 392.506419 
L 541.426137 392.385588 
L 542.824087 401.752059 
L 544.202754 402.588323 
L 545.562664 404.533722 
L 546.904319 403.793283 
L 548.228203 401.990826 
L 549.534781 404.292593 
L 550.824499 398.704039 
L 552.097788 397.754569 
L 553.355059 402.884202 
L 554.596713 399.030349 
L 555.82313 398.58028 
L 557.034682 400.167669 
L 558.231724 399.523297 
L 559.414599 396.553223 
L 560.583639 400.901228 
L 561.739164 404.333617 
L 562.881483 405.759143 
L 564.010894 406.932361 
L 565.127685 404.082416 
L 566.232136 403.699489 
L 567.324516 406.076996 
L 568.405087 410.152209 
L 569.4741 410.998542 
L 570.531801 410.612806 
L 571.578426 411.501501 
L 572.614205 414.199064 
L 573.639361 415.402629 
L 574.654109 414.313579 
L 575.658658 407.493582 
L 576.653211 406.078876 
L 577.637966 399.19391 
L 578.613113 400.914172 
L 579.578838 393.827822 
L 580.535322 385.125686 
L 581.48274 390.651874 
L 582.421261 388.442229 
L 583.351052 389.152435 
L 584.272273 389.362735 
L 585.185081 387.210888 
L 586.089628 387.176702 
L 586.986063 386.927895 
L 587.874529 389.598177 
L 588.755168 392.939725 
L 590.493504 396.781482 
L 591.351464 403.559775 
L 592.202123 404.577926 
L 593.045603 401.376471 
L 593.882024 391.664699 
L 594.711505 400.485928 
L 595.534158 400.985999 
L 596.350095 399.079186 
L 597.159426 392.237701 
L 597.962256 391.890328 
L 598.758689 384.104882 
L 599.548826 384.074681 
L 600.332765 385.571226 
L 601.110604 385.934275 
L 601.882437 382.17193 
L 602.648355 380.253559 
L 603.408448 384.946186 
L 604.162805 383.548495 
L 604.911511 389.748703 
L 605.65465 385.852652 
L 606.392305 383.543259 
L 607.124556 379.685869 
L 608.573158 383.33086 
L 609.289661 379.990918 
L 610.001065 385.958673 
L 611.40886 383.603484 
L 612.105391 391.002466 
L 612.797102 395.191765 
L 613.484058 389.638465 
L 614.166326 397.636656 
L 614.843968 397.984248 
L 615.517046 396.659597 
L 616.185623 399.047779 
L 617.509507 414.253559 
L 618.164931 416.026228 
L 618.816085 423.417937 
L 619.463024 427.784122 
L 620.105803 441.80511 
L 620.744475 448.728624 
L 622.636364 490.783024 
L 622.636364 490.783024 
" clip-path="url(#p037a646189)" style="fill: none; stroke: #46327e; stroke-width: 2; stroke-linecap: square"/>
   </g>
   <g id="line2d_54">
    <path d="M 115.363636 354.260261 
L 184.644941 313.637315 
L 225.171905 321.036422 
L 253.926245 341.429058 
L 276.229843 343.907229 
L 294.45321 343.592937 
L 309.860847 337.117676 
L 323.207549 327.141644 
L 334.980175 312.639823 
L 345.511147 311.727898 
L 355.037571 308.537838 
L 363.734514 307.514317 
L 371.734926 300.019834 
L 379.142151 309.732112 
L 386.038112 333.253856 
L 392.488853 361.728127 
L 398.548393 381.62815 
L 404.261479 397.831295 
L 409.665594 408.159046 
L 414.792451 416.614968 
L 419.669116 418.257285 
L 424.318875 417.614164 
L 428.761908 415.093443 
L 433.015818 411.803244 
L 437.096049 408.885823 
L 441.01623 405.091673 
L 444.788444 404.3471 
L 448.423455 401.410808 
L 451.930895 398.333354 
L 455.319416 399.823999 
L 458.596818 396.509738 
L 461.770157 394.16612 
L 464.84584 393.018587 
L 467.829697 393.916008 
L 470.727053 393.235126 
L 473.542783 391.806788 
L 476.281359 391.756653 
L 478.946899 394.728677 
L 481.543195 391.262528 
L 484.073755 392.550713 
L 486.541826 390.596928 
L 488.95042 391.523728 
L 491.302335 390.598686 
L 493.600179 391.791601 
L 495.846381 390.17516 
L 498.043212 392.911789 
L 500.192796 394.57615 
L 502.297122 395.44082 
L 504.358057 397.481498 
L 506.377354 400.779532 
L 508.356662 399.159444 
L 510.297534 399.974319 
L 512.201435 402.476088 
L 514.069748 401.372567 
L 515.903777 402.401944 
L 517.704759 399.764123 
L 519.473863 401.248731 
L 521.212199 403.538572 
L 522.920819 403.605596 
L 524.60072 400.897792 
L 526.252854 402.402295 
L 527.878122 402.901504 
L 529.477385 402.250597 
L 531.051461 399.468734 
L 532.601132 400.873295 
L 534.127144 403.041672 
L 535.630207 400.798004 
L 537.111001 400.269869 
L 538.570177 400.835 
L 540.008357 398.956832 
L 541.426137 397.758674 
L 542.824087 398.095344 
L 544.202754 396.654788 
L 546.904319 395.729988 
L 548.228203 394.609625 
L 549.534781 392.407482 
L 550.824499 392.426278 
L 552.097788 392.705904 
L 553.355059 390.447825 
L 554.596713 389.800582 
L 555.82313 387.761714 
L 557.034682 390.318822 
L 558.231724 391.604176 
L 559.414599 393.787322 
L 561.739164 396.176683 
L 562.881483 396.964732 
L 564.010894 398.733061 
L 565.127685 400.92666 
L 566.232136 399.342391 
L 568.405087 404.919921 
L 569.4741 405.040927 
L 570.531801 406.32993 
L 571.578426 406.390804 
L 572.614205 408.711328 
L 573.639361 408.445097 
L 574.654109 406.653562 
L 575.658658 405.942642 
L 576.653211 405.033461 
L 577.637966 406.132701 
L 578.613113 405.583937 
L 579.578838 402.279993 
L 580.535322 398.182831 
L 581.48274 394.981557 
L 582.421261 395.46847 
L 583.351052 397.59725 
L 584.272273 397.619031 
L 585.185081 396.744617 
L 586.089628 396.886129 
L 586.986063 398.316478 
L 587.874529 400.693252 
L 588.755168 403.529941 
L 589.628115 404.682788 
L 591.351464 415.659877 
L 592.202123 418.137876 
L 593.045603 414.822937 
L 593.882024 409.256324 
L 594.711505 409.399908 
L 595.534158 412.236637 
L 596.350095 401.708597 
L 597.159426 399.308367 
L 599.548826 386.31279 
L 600.332765 386.601262 
L 601.110604 382.427739 
L 601.882437 381.265185 
L 602.648355 380.642675 
L 603.408448 379.475881 
L 604.162805 380.674156 
L 604.911511 380.384072 
L 605.65465 376.84203 
L 606.392305 377.490255 
L 607.124556 379.410837 
L 607.851481 377.000436 
L 608.573158 375.121638 
L 609.289661 375.519981 
L 610.001065 376.573327 
L 610.707441 379.561119 
L 611.40886 378.39849 
L 612.105391 378.905401 
L 612.797102 382.137059 
L 613.484058 381.213726 
L 614.166326 384.753237 
L 614.843968 385.094057 
L 615.517046 387.281543 
L 616.185623 392.761206 
L 616.849757 396.080891 
L 617.509507 398.537023 
L 618.164931 407.069363 
L 618.816085 413.360511 
L 620.105803 430.448164 
L 620.744475 441.923343 
L 622.636364 488.655972 
L 622.636364 488.655972 
" clip-path="url(#p037a646189)" style="fill: none; stroke: #365c8d; stroke-width: 2; stroke-linecap: square"/>
   </g>
   <g id="line2d_55">
    <path d="M 115.363636 387.084709 
L 184.644941 341.636668 
L 225.171905 359.698651 
L 253.926245 378.845435 
L 276.229843 394.675299 
L 294.45321 405.710972 
L 309.860847 411.672124 
L 323.207549 411.335922 
L 334.980175 410.711858 
L 345.511147 413.608067 
L 355.037571 414.317205 
L 363.734514 398.949118 
L 371.734926 387.345202 
L 379.142151 366.913962 
L 386.038112 338.162392 
L 392.488853 304.893238 
L 398.548393 280.637838 
L 404.261479 270.170035 
L 409.665594 287.508774 
L 414.792451 297.116207 
L 419.669116 324.435451 
L 424.318875 354.901513 
L 428.761908 376.71258 
L 433.015818 391.492788 
L 437.096049 399.241207 
L 441.01623 400.148591 
L 444.788444 395.962278 
L 448.423455 396.354477 
L 451.930895 395.290479 
L 455.319416 388.393283 
L 458.596818 388.673162 
L 461.770157 385.34009 
L 464.84584 381.787457 
L 467.829697 374.471094 
L 470.727053 375.585598 
L 473.542783 378.68995 
L 476.281359 381.932094 
L 478.946899 389.202692 
L 481.543195 387.518672 
L 484.073755 390.684111 
L 486.541826 396.675161 
L 488.95042 400.479107 
L 491.302335 400.038219 
L 493.600179 403.614869 
L 495.846381 403.326709 
L 498.043212 404.389342 
L 500.192796 404.083557 
L 502.297122 404.140702 
L 504.358057 401.850384 
L 506.377354 402.44062 
L 508.356662 402.735592 
L 510.297534 402.543253 
L 512.201435 399.741961 
L 514.069748 399.550427 
L 515.903777 400.357348 
L 517.704759 398.58186 
L 519.473863 399.8769 
L 521.212199 401.836701 
L 522.920819 402.32772 
L 524.60072 401.329301 
L 526.252854 402.961981 
L 527.878122 403.949948 
L 529.477385 402.788477 
L 531.051461 404.082186 
L 532.601132 404.779046 
L 534.127144 401.684247 
L 535.630207 401.380273 
L 537.111001 401.199722 
L 538.570177 401.515526 
L 540.008357 400.747646 
L 542.824087 398.62949 
L 544.202754 398.949396 
L 545.562664 401.811288 
L 548.228203 398.550286 
L 549.534781 398.869166 
L 550.824499 398.232833 
L 552.097788 397.2338 
L 553.355059 397.239585 
L 554.596713 396.053705 
L 555.82313 395.691252 
L 557.034682 394.218411 
L 558.231724 395.528154 
L 559.414599 397.6046 
L 560.583639 398.633352 
L 561.739164 401.383773 
L 562.881483 401.009092 
L 564.010894 401.047134 
L 565.127685 406.614198 
L 566.232136 406.700296 
L 567.324516 407.55354 
L 568.405087 410.444745 
L 569.4741 413.883055 
L 570.531801 414.657911 
L 571.578426 421.172905 
L 572.614205 429.281093 
L 573.639361 431.971811 
L 574.654109 428.023026 
L 575.658658 415.477919 
L 576.653211 420.843358 
L 577.637966 419.684518 
L 578.613113 409.807232 
L 579.578838 407.510126 
L 580.535322 403.983802 
L 581.48274 398.847275 
L 582.421261 398.583907 
L 583.351052 396.940932 
L 584.272273 396.730047 
L 585.185081 398.420532 
L 586.089628 399.034067 
L 587.874529 396.907195 
L 588.755168 400.282526 
L 589.628115 405.485069 
L 590.493504 403.638326 
L 591.351464 402.837135 
L 592.202123 401.003755 
L 593.045603 401.894973 
L 593.882024 400.072148 
L 594.711505 400.396962 
L 595.534158 397.176595 
L 596.350095 398.547715 
L 597.159426 392.421446 
L 597.962256 388.071964 
L 598.758689 386.682714 
L 599.548826 382.703651 
L 600.332765 381.292248 
L 601.110604 381.661359 
L 601.882437 380.470443 
L 602.648355 380.413437 
L 603.408448 376.561877 
L 604.162805 375.130134 
L 604.911511 375.642406 
L 605.65465 373.767855 
L 606.392305 375.704086 
L 607.124556 374.052513 
L 607.851481 372.873327 
L 608.573158 372.38418 
L 609.289661 373.451004 
L 610.001065 375.055452 
L 610.707441 371.872804 
L 611.40886 373.013193 
L 612.105391 374.455168 
L 613.484058 375.630075 
L 614.843968 379.730469 
L 615.517046 383.792647 
L 616.185623 386.475762 
L 617.509507 394.832451 
L 618.816085 407.003878 
L 619.463024 414.604802 
L 621.379092 446.521118 
L 622.009705 461.025091 
L 622.636364 481.645068 
L 622.636364 481.645068 
" clip-path="url(#p037a646189)" style="fill: none; stroke: #277f8e; stroke-width: 2; stroke-linecap: square"/>
   </g>
   <g id="line2d_56">
    <path d="M 115.363636 395.283769 
L 184.644941 349.655695 
L 225.171905 376.343492 
L 253.926245 388.451117 
L 276.229843 404.333779 
L 294.45321 419.162065 
L 309.860847 421.863787 
L 323.207549 423.927536 
L 334.980175 434.353542 
L 345.511147 409.184154 
L 355.037571 402.53123 
L 363.734514 397.946154 
L 371.734926 354.020539 
L 379.142151 325.371432 
L 386.038112 277.544204 
L 398.548393 157.05005 
L 404.261479 124.895734 
L 409.665594 136.397948 
L 414.792451 201.388526 
L 419.669116 265.05848 
L 424.318875 318.169091 
L 428.761908 348.138533 
L 433.015818 380.724934 
L 437.096049 394.72379 
L 441.01623 393.858665 
L 444.788444 395.865651 
L 448.423455 389.209924 
L 451.930895 367.322006 
L 455.319416 372.708445 
L 458.596818 368.806304 
L 461.770157 369.599787 
L 464.84584 365.165218 
L 467.829697 332.868108 
L 470.727053 322.240506 
L 473.542783 325.041955 
L 476.281359 329.199885 
L 478.946899 332.025402 
L 481.543195 340.57192 
L 486.541826 370.939831 
L 488.95042 387.784282 
L 491.302335 388.813317 
L 493.600179 388.487373 
L 495.846381 400.410876 
L 498.043212 406.688687 
L 500.192796 410.563664 
L 502.297122 409.227471 
L 504.358057 409.631605 
L 506.377354 405.055555 
L 508.356662 404.574348 
L 510.297534 398.066566 
L 512.201435 399.590121 
L 514.069748 405.922641 
L 515.903777 397.959427 
L 517.704759 398.192052 
L 519.473863 406.322559 
L 521.212199 413.754966 
L 522.920819 409.568401 
L 526.252854 420.378132 
L 527.878122 413.925101 
L 529.477385 408.31837 
L 531.051461 408.115838 
L 532.601132 412.551565 
L 534.127144 404.333884 
L 535.630207 408.905247 
L 537.111001 406.023744 
L 538.570177 414.909852 
L 540.008357 412.481866 
L 541.426137 405.029041 
L 542.824087 393.678963 
L 544.202754 399.661324 
L 545.562664 398.039778 
L 546.904319 402.993928 
L 548.228203 408.671899 
L 549.534781 406.971159 
L 550.824499 404.90411 
L 552.097788 397.737417 
L 553.355059 396.594312 
L 554.596713 397.586556 
L 555.82313 393.381293 
L 557.034682 396.584838 
L 558.231724 404.191466 
L 559.414599 396.543387 
L 560.583639 392.701463 
L 561.739164 408.16613 
L 562.881483 401.987194 
L 564.010894 399.36222 
L 565.127685 398.317652 
L 566.232136 408.864371 
L 567.324516 417.465386 
L 568.405087 413.768381 
L 569.4741 416.150194 
L 570.531801 413.436535 
L 571.578426 423.24556 
L 572.614205 436.999125 
L 573.639361 442.777305 
L 574.654109 430.54809 
L 575.658658 412.885315 
L 576.653211 421.032499 
L 577.637966 422.430906 
L 579.578838 410.182583 
L 582.421261 398.196652 
L 583.351052 400.340944 
L 584.272273 402.128968 
L 585.185081 401.749415 
L 586.089628 391.463947 
L 586.986063 392.698778 
L 587.874529 395.25791 
L 588.755168 407.272696 
L 589.628115 401.183801 
L 590.493504 399.830239 
L 591.351464 405.360958 
L 592.202123 417.002459 
L 593.045603 396.399235 
L 593.882024 388.276121 
L 595.534158 406.503095 
L 596.350095 394.477884 
L 597.962256 384.26455 
L 598.758689 389.479074 
L 599.548826 379.461442 
L 600.332765 383.915711 
L 601.110604 380.159551 
L 601.882437 383.222029 
L 602.648355 389.032096 
L 603.408448 382.105019 
L 604.162805 371.035709 
L 604.911511 383.479125 
L 605.65465 378.624597 
L 606.392305 378.610477 
L 607.124556 373.698092 
L 607.851481 373.658243 
L 608.573158 381.586984 
L 609.289661 379.4101 
L 610.001065 380.927016 
L 610.707441 380.752734 
L 611.40886 381.331122 
L 612.105391 381.730871 
L 612.797102 379.907937 
L 613.484058 376.602538 
L 614.166326 379.657768 
L 614.843968 390.340592 
L 615.517046 379.555235 
L 616.185623 381.336251 
L 616.849757 391.968855 
L 617.509507 392.773045 
L 618.164931 400.732122 
L 618.816085 410.554351 
L 620.105803 425.971218 
L 620.744475 447.752016 
L 621.379092 455.070002 
L 622.009705 464.439259 
L 622.636364 476.117555 
L 622.636364 476.117555 
" clip-path="url(#p037a646189)" style="fill: none; stroke: #1fa187; stroke-width: 2; stroke-linecap: square"/>
   </g>
   <g id="line2d_57">
    <path d="M 115.363636 377.831664 
L 184.644941 332.877607 
L 225.171905 360.426331 
L 253.926245 380.16902 
L 276.229843 393.320499 
L 294.45321 405.540927 
L 309.860847 408.163415 
L 323.207549 410.312011 
L 334.980175 411.723745 
L 345.511147 414.886928 
L 355.037571 416.808637 
L 363.734514 417.693145 
L 371.734926 418.135244 
L 379.142151 412.832896 
L 386.038112 406.307758 
L 392.488853 404.359049 
L 398.548393 394.868472 
L 404.261479 380.592533 
L 409.665594 362.511647 
L 414.792451 370.777734 
L 419.669116 368.613186 
L 424.318875 359.556435 
L 428.761908 333.714855 
L 433.015818 294.515705 
L 437.096049 293.973481 
L 441.01623 267.160093 
L 444.788444 240.353004 
L 448.423455 231.921903 
L 451.930895 228.902148 
L 455.319416 231.455534 
L 458.596818 249.771672 
L 461.770157 268.660317 
L 464.84584 293.90458 
L 467.829697 289.305166 
L 470.727053 308.536691 
L 473.542783 328.032491 
L 476.281359 342.103765 
L 478.946899 346.996078 
L 481.543195 354.35142 
L 484.073755 357.656071 
L 486.541826 366.630019 
L 488.95042 382.01522 
L 491.302335 387.478622 
L 493.600179 387.422427 
L 495.846381 393.352007 
L 498.043212 388.298934 
L 502.297122 393.503891 
L 504.358057 399.411126 
L 506.377354 395.96437 
L 508.356662 400.468658 
L 510.297534 394.060689 
L 512.201435 393.151842 
L 514.069748 391.355753 
L 515.903777 387.356885 
L 517.704759 384.212459 
L 519.473863 391.898971 
L 521.212199 400.316538 
L 522.920819 400.494169 
L 524.60072 394.92947 
L 526.252854 396.924956 
L 527.878122 390.683917 
L 529.477385 399.857614 
L 531.051461 398.422224 
L 532.601132 398.571989 
L 534.127144 402.179425 
L 535.630207 403.069492 
L 537.111001 403.029631 
L 538.570177 401.09691 
L 540.008357 398.513851 
L 541.426137 397.78773 
L 542.824087 400.143316 
L 545.562664 406.038677 
L 546.904319 404.120422 
L 548.228203 407.22821 
L 549.534781 403.158473 
L 550.824499 400.444026 
L 552.097788 398.77862 
L 554.596713 401.774694 
L 555.82313 398.512262 
L 557.034682 400.765406 
L 558.231724 404.137557 
L 559.414599 399.724904 
L 560.583639 407.423101 
L 561.739164 407.71767 
L 562.881483 407.122126 
L 564.010894 411.520122 
L 566.232136 417.608182 
L 567.324516 420.256262 
L 568.405087 421.308446 
L 570.531801 434.400995 
L 571.578426 437.627132 
L 572.614205 443.579447 
L 573.639361 442.91427 
L 574.654109 448.428044 
L 575.658658 438.205025 
L 576.653211 440.21774 
L 577.637966 430.836903 
L 578.613113 422.788745 
L 579.578838 418.52642 
L 580.535322 413.02832 
L 581.48274 405.923313 
L 582.421261 396.621659 
L 583.351052 394.616102 
L 584.272273 396.442691 
L 585.185081 396.055802 
L 586.089628 396.29632 
L 586.986063 391.403754 
L 587.874529 394.714132 
L 588.755168 390.558578 
L 589.628115 396.705953 
L 590.493504 395.333255 
L 591.351464 393.138919 
L 592.202123 394.467736 
L 593.045603 391.996819 
L 593.882024 388.258198 
L 594.711505 386.426008 
L 595.534158 388.694923 
L 597.159426 383.212705 
L 597.962256 384.300415 
L 598.758689 382.671843 
L 599.548826 385.20826 
L 600.332765 380.831526 
L 601.110604 371.402632 
L 601.882437 374.73898 
L 602.648355 379.534906 
L 603.408448 377.258892 
L 604.162805 380.727636 
L 604.911511 382.078495 
L 606.392305 375.572799 
L 607.124556 376.7315 
L 607.851481 370.025879 
L 608.573158 371.085375 
L 609.289661 375.364923 
L 610.001065 374.564017 
L 610.707441 371.302585 
L 612.105391 375.00937 
L 612.797102 373.852696 
L 613.484058 373.868069 
L 614.166326 379.111603 
L 614.843968 382.0047 
L 615.517046 386.090875 
L 616.185623 383.743236 
L 616.849757 396.022347 
L 617.509507 398.612536 
L 618.164931 402.711759 
L 618.816085 408.932761 
L 619.463024 413.340754 
L 620.105803 421.206585 
L 621.379092 444.76114 
L 622.009705 458.400818 
L 622.636364 475.527713 
L 622.636364 475.527713 
" clip-path="url(#p037a646189)" style="fill: none; stroke: #4ac16d; stroke-width: 2; stroke-linecap: square"/>
   </g>
   <g id="line2d_58">
    <path d="M 115.363636 421.59333 
L 184.644941 391.769604 
L 225.171905 394.155316 
L 253.926245 376.765158 
L 276.229843 377.828448 
L 294.45321 383.430331 
L 309.860847 388.829041 
L 323.207549 385.064576 
L 334.980175 378.74186 
L 345.511147 371.279708 
L 355.037571 391.939441 
L 363.734514 419.135939 
L 371.734926 440.398778 
L 379.142151 438.826498 
L 386.038112 400.42261 
L 392.488853 410.680478 
L 398.548393 422.234283 
L 404.261479 409.516732 
L 409.665594 427.950406 
L 414.792451 412.176706 
L 419.669116 408.519196 
L 424.318875 420.052679 
L 428.761908 393.986435 
L 433.015818 401.08677 
L 437.096049 392.782613 
L 441.01623 354.106523 
L 444.788444 351.768011 
L 448.423455 350.609114 
L 451.930895 328.170558 
L 455.319416 302.908037 
L 458.596818 304.545367 
L 461.770157 276.483552 
L 464.84584 245.749064 
L 470.727053 203.039438 
L 473.542783 187.586552 
L 476.281359 178.689301 
L 478.946899 116.422846 
L 481.543195 110.370904 
L 484.073755 130.763719 
L 486.541826 114.796194 
L 488.95042 89.28 
L 491.302335 126.400268 
L 493.600179 147.605643 
L 495.846381 161.96921 
L 498.043212 183.127132 
L 502.297122 227.763138 
L 504.358057 256.533771 
L 506.377354 281.698426 
L 508.356662 323.349424 
L 510.297534 344.415044 
L 512.201435 384.511818 
L 514.069748 402.861828 
L 515.903777 405.926836 
L 517.704759 402.587974 
L 519.473863 401.199151 
L 521.212199 417.051386 
L 522.920819 414.922507 
L 524.60072 407.486149 
L 526.252854 432.483619 
L 527.878122 421.919356 
L 529.477385 424.420841 
L 531.051461 419.367193 
L 532.601132 413.043705 
L 534.127144 396.093208 
L 535.630207 398.066339 
L 537.111001 408.697838 
L 538.570177 379.053061 
L 540.008357 377.565968 
L 541.426137 348.687744 
L 542.824087 340.787651 
L 544.202754 357.104738 
L 545.562664 349.571986 
L 546.904319 325.608673 
L 548.228203 327.86732 
L 549.534781 332.508466 
L 550.824499 300.546753 
L 552.097788 292.513292 
L 553.355059 281.429759 
L 554.596713 298.610272 
L 555.82313 322.402907 
L 557.034682 323.50566 
L 558.231724 341.38578 
L 559.414599 363.336035 
L 560.583639 355.02549 
L 561.739164 374.661951 
L 562.881483 380.101122 
L 564.010894 391.360528 
L 565.127685 398.825812 
L 566.232136 391.374798 
L 567.324516 382.585568 
L 568.405087 388.080245 
L 569.4741 420.536504 
L 570.531801 397.863839 
L 571.578426 420.790112 
L 572.614205 434.661683 
L 573.639361 435.778366 
L 574.654109 421.20123 
L 575.658658 414.101109 
L 576.653211 421.414518 
L 577.637966 444.995565 
L 578.613113 442.577861 
L 579.578838 418.584761 
L 580.535322 398.850068 
L 581.48274 393.2956 
L 582.421261 366.647319 
L 583.351052 357.645728 
L 584.272273 381.020671 
L 585.185081 398.990114 
L 586.089628 395.86345 
L 586.986063 389.383922 
L 587.874529 377.167241 
L 588.755168 399.895009 
L 589.628115 393.356745 
L 590.493504 413.537839 
L 591.351464 381.254626 
L 592.202123 386.056649 
L 593.045603 400.233717 
L 593.882024 390.954668 
L 594.711505 366.858041 
L 595.534158 365.335698 
L 596.350095 378.841854 
L 597.159426 394.92224 
L 597.962256 404.338282 
L 599.548826 373.823355 
L 600.332765 372.470767 
L 601.110604 387.511778 
L 601.882437 383.088087 
L 602.648355 373.493837 
L 603.408448 379.550817 
L 604.162805 375.934051 
L 604.911511 388.540158 
L 605.65465 395.402735 
L 606.392305 381.676111 
L 607.124556 391.475147 
L 607.851481 382.795073 
L 608.573158 384.194531 
L 610.001065 382.052516 
L 610.707441 387.897921 
L 611.40886 374.693231 
L 612.105391 379.310574 
L 612.797102 392.852339 
L 613.484058 409.27128 
L 614.166326 397.929504 
L 614.843968 406.214659 
L 615.517046 402.194217 
L 616.185623 399.916941 
L 616.849757 398.919487 
L 617.509507 407.120565 
L 618.164931 416.708949 
L 618.816085 415.674908 
L 619.463024 444.316018 
L 620.105803 459.260675 
L 620.744475 450.111549 
L 621.379092 468.683539 
L 622.009705 469.491943 
L 622.636364 466.712106 
L 622.636364 466.712106 
" clip-path="url(#p037a646189)" style="fill: none; stroke: #a0da39; stroke-width: 2; stroke-linecap: square"/>
   </g>
   <g id="line2d_59">
    <path d="M 115.363636 379.004053 
L 184.644941 351.010254 
L 225.171905 375.67701 
L 253.926245 381.144888 
L 276.229843 377.352482 
L 294.45321 387.263121 
L 309.860847 388.412337 
L 323.207549 380.240971 
L 334.980175 377.018543 
L 345.511147 370.66666 
L 355.037571 385.901338 
L 363.734514 387.103157 
L 371.734926 393.090892 
L 379.142151 384.659104 
L 386.038112 390.341036 
L 392.488853 406.479365 
L 398.548393 412.579392 
L 404.261479 410.772958 
L 409.665594 419.276297 
L 414.792451 417.754772 
L 419.669116 412.769578 
L 424.318875 423.198975 
L 428.761908 431.013811 
L 433.015818 433.647485 
L 437.096049 431.292623 
L 441.01623 408.833256 
L 444.788444 406.941486 
L 448.423455 408.59888 
L 451.930895 404.754674 
L 455.319416 405.10587 
L 458.596818 383.831172 
L 461.770157 379.754641 
L 464.84584 371.75547 
L 467.829697 359.633851 
L 470.727053 345.169598 
L 473.542783 348.43697 
L 476.281359 330.663896 
L 478.946899 303.276954 
L 481.543195 290.903095 
L 484.073755 260.453978 
L 486.541826 255.102984 
L 488.95042 246.997801 
L 491.302335 249.570468 
L 493.600179 239.229309 
L 495.846381 236.440131 
L 498.043212 238.98547 
L 500.192796 237.925292 
L 502.297122 242.737933 
L 504.358057 259.617098 
L 506.377354 263.161147 
L 508.356662 259.409068 
L 510.297534 285.88426 
L 512.201435 317.565083 
L 514.069748 334.809747 
L 515.903777 350.662626 
L 517.704759 375.852206 
L 519.473863 388.382408 
L 521.212199 404.938867 
L 522.920819 403.334253 
L 524.60072 402.358188 
L 526.252854 405.767842 
L 527.878122 411.941285 
L 529.477385 416.327286 
L 531.051461 412.641017 
L 532.601132 417.917171 
L 534.127144 414.337532 
L 535.630207 416.793893 
L 537.111001 414.383815 
L 538.570177 410.982974 
L 540.008357 401.288405 
L 541.426137 407.54859 
L 542.824087 409.259202 
L 544.202754 403.259123 
L 545.562664 407.279828 
L 546.904319 405.328099 
L 548.228203 396.089759 
L 549.534781 392.464603 
L 550.824499 399.222829 
L 552.097788 390.640872 
L 553.355059 376.899427 
L 554.596713 380.683975 
L 555.82313 386.806621 
L 557.034682 386.231906 
L 558.231724 375.512089 
L 559.414599 369.858004 
L 560.583639 373.26809 
L 561.739164 385.488217 
L 562.881483 383.488646 
L 564.010894 379.372751 
L 565.127685 383.110754 
L 566.232136 398.025808 
L 567.324516 392.473797 
L 568.405087 399.890412 
L 569.4741 392.279738 
L 570.531801 406.989081 
L 571.578426 410.50788 
L 572.614205 418.051329 
L 573.639361 418.936945 
L 574.654109 424.158317 
L 575.658658 404.460827 
L 576.653211 405.059747 
L 577.637966 415.353676 
L 578.613113 403.240872 
L 579.578838 400.184235 
L 580.535322 399.371831 
L 581.48274 403.837912 
L 582.421261 403.587536 
L 583.351052 404.288678 
L 584.272273 408.586303 
L 585.185081 403.593009 
L 586.089628 405.348474 
L 586.986063 410.311196 
L 587.874529 407.783383 
L 588.755168 413.73495 
L 589.628115 418.624041 
L 590.493504 420.079638 
L 591.351464 420.430453 
L 592.202123 413.173194 
L 593.045603 414.701805 
L 593.882024 405.25451 
L 594.711505 405.676509 
L 595.534158 409.712659 
L 596.350095 410.86802 
L 597.159426 398.664769 
L 597.962256 395.537165 
L 598.758689 395.952565 
L 599.548826 387.749416 
L 600.332765 384.616107 
L 601.110604 385.545413 
L 601.882437 387.394418 
L 602.648355 385.552197 
L 603.408448 386.616391 
L 604.162805 382.819066 
L 604.911511 373.513993 
L 605.65465 378.418131 
L 606.392305 377.218517 
L 607.124556 375.183849 
L 607.851481 375.200234 
L 608.573158 373.727891 
L 609.289661 381.168231 
L 610.001065 374.612027 
L 610.707441 370.339555 
L 611.40886 377.486488 
L 612.105391 378.684415 
L 612.797102 376.634225 
L 613.484058 381.517943 
L 614.166326 378.110933 
L 614.843968 379.33635 
L 615.517046 387.896307 
L 616.185623 390.986341 
L 618.164931 408.117052 
L 618.816085 409.235315 
L 619.463024 416.799589 
L 620.105803 436.650523 
L 620.744475 446.495738 
L 621.379092 453.747891 
L 622.009705 467.581046 
L 622.636364 484.362436 
L 622.636364 484.362436 
" clip-path="url(#p037a646189)" style="fill: none; stroke: #fde725; stroke-width: 2; stroke-linecap: square"/>
   </g>
   <g id="line2d_60">
    <path d="M 115.363636 358.3945 
L 184.644941 314.801147 
L 225.171905 334.245103 
L 253.926245 359.333106 
L 276.229843 379.027539 
L 294.45321 392.151255 
L 309.860847 399.596077 
L 323.207549 406.397068 
L 334.980175 409.985236 
L 345.511147 412.897526 
L 355.037571 414.879671 
L 363.734514 415.202782 
L 371.734926 416.42603 
L 379.142151 415.533304 
L 386.038112 417.320617 
L 392.488853 418.170934 
L 398.548393 419.563865 
L 404.261479 418.929366 
L 409.665594 421.412766 
L 414.792451 420.867561 
L 419.669116 421.817611 
L 424.318875 420.318659 
L 433.015818 415.472069 
L 437.096049 413.314072 
L 441.01623 410.417593 
L 448.423455 405.783192 
L 451.930895 403.230277 
L 455.319416 401.592788 
L 458.596818 400.577976 
L 461.770157 400.419558 
L 464.84584 398.691806 
L 470.727053 399.242676 
L 473.542783 398.178778 
L 476.281359 397.842925 
L 478.946899 397.802063 
L 481.543195 396.546265 
L 484.073755 396.527729 
L 486.541826 396.166227 
L 488.95042 396.663779 
L 493.600179 394.907668 
L 495.846381 394.954785 
L 498.043212 393.974357 
L 500.192796 394.151545 
L 502.297122 395.500434 
L 504.358057 395.154364 
L 506.377354 394.984596 
L 508.356662 395.586271 
L 510.297534 395.634691 
L 512.201435 395.897765 
L 514.069748 394.992306 
L 515.903777 395.765618 
L 517.704759 395.887518 
L 519.473863 395.884063 
L 521.212199 395.057312 
L 522.920819 396.56524 
L 524.60072 396.638982 
L 526.252854 396.502798 
L 527.878122 396.10931 
L 529.477385 395.969192 
L 531.051461 395.261314 
L 532.601132 396.097982 
L 534.127144 395.901212 
L 535.630207 395.468337 
L 537.111001 394.818993 
L 538.570177 393.465865 
L 540.008357 392.723468 
L 542.824087 393.234412 
L 545.562664 391.023234 
L 548.228203 391.118699 
L 549.534781 390.810587 
L 550.824499 389.783176 
L 552.097788 388.996725 
L 553.355059 387.924777 
L 554.596713 388.763003 
L 555.82313 389.275824 
L 557.034682 388.998373 
L 558.231724 390.197083 
L 560.583639 391.496888 
L 561.739164 392.446063 
L 562.881483 394.981913 
L 565.127685 397.412937 
L 566.232136 399.176347 
L 567.324516 401.259363 
L 568.405087 402.293978 
L 569.4741 403.838796 
L 570.531801 403.831809 
L 571.578426 405.204051 
L 572.614205 407.388133 
L 573.639361 410.513637 
L 574.654109 408.733917 
L 575.658658 403.668679 
L 576.653211 407.747869 
L 577.637966 407.438845 
L 578.613113 403.422442 
L 579.578838 400.322026 
L 580.535322 397.626536 
L 582.421261 393.943409 
L 583.351052 394.344637 
L 584.272273 393.591095 
L 585.185081 393.713751 
L 586.089628 394.887638 
L 586.986063 397.075307 
L 587.874529 398.448871 
L 588.755168 401.287374 
L 589.628115 402.863199 
L 591.351464 409.032104 
L 592.202123 410.877111 
L 593.045603 410.481411 
L 593.882024 405.388231 
L 594.711505 407.710631 
L 595.534158 405.144815 
L 596.350095 399.612992 
L 597.159426 397.011789 
L 597.962256 392.711899 
L 599.548826 386.889043 
L 601.110604 383.580737 
L 601.882437 382.178457 
L 602.648355 381.556025 
L 604.162805 380.131505 
L 604.911511 378.333608 
L 605.65465 379.141442 
L 606.392305 378.914634 
L 607.124556 378.131043 
L 607.851481 377.905527 
L 608.573158 378.97508 
L 609.289661 379.168013 
L 610.001065 378.260558 
L 610.707441 378.626001 
L 611.40886 379.976622 
L 612.797102 382.019888 
L 613.484058 384.483156 
L 614.843968 388.470967 
L 616.185623 394.010552 
L 618.164931 410.511089 
L 618.816085 417.666564 
L 620.105803 437.308135 
L 621.379092 459.991513 
L 622.636364 492.48 
L 622.636364 492.48 
" clip-path="url(#p037a646189)" style="fill: none; stroke: #000000; stroke-width: 4; stroke-linecap: square"/>
   </g>
   <g id="patch_3">
    <path d="M 90 512.64 
L 90 69.12 
" style="fill: none; stroke: #000000; stroke-width: 0.8; stroke-linejoin: miter; stroke-linecap: square"/>
   </g>
   <g id="patch_4">
    <path d="M 648 512.64 
L 648 69.12 
" style="fill: none; stroke: #000000; stroke-width: 0.8; stroke-linejoin: miter; stroke-linecap: square"/>
   </g>
   <g id="patch_5">
    <path d="M 90 512.64 
L 648 512.64 
" style="fill: none; stroke: #000000; stroke-width: 0.8; stroke-linejoin: miter; stroke-linecap: square"/>
   </g>
   <g id="patch_6">
    <path d="M 90 69.12 
L 648 69.12 
" style="fill: none; stroke: #000000; stroke-width: 0.8; stroke-linejoin: miter; stroke-linecap: square"/>
   </g>
   <g id="text_11">
    <!-- $\delta$ -->
    <g transform="translate(249.586245 93.063413) scale(0.14 -0.14)">
     <defs>
      <path id="DejaVuSans-Oblique-3b4" d="M 3472 4053 
Q 3197 4272 2450 4272 
Q 1659 4272 1588 3906 
Q 1531 3619 2328 3469 
Q 2953 3353 3253 3003 
Q 3616 2581 3447 1716 
Q 3284 888 2763 400 
Q 2238 -91 1488 -91 
Q 741 -91 406 400 
Q 72 888 241 1747 
Q 363 2384 891 2900 
Q 1097 3100 1353 3213 
Q 913 3459 1000 3900 
Q 1166 4750 2544 4750 
Q 3234 4750 3566 4531 
L 3472 4053 
z
M 1753 3056 
Q 1525 2966 1306 2738 
Q 969 2384 847 1747 
Q 722 1113 919 756 
Q 1119 397 1584 397 
Q 2044 397 2381 759 
Q 2722 1122 2838 1716 
Q 2956 2338 2731 2638 
Q 2491 2959 2103 2994 
Q 1906 3013 1753 3056 
z
" transform="scale(0.015625)"/>
     </defs>
     <use xlink:href="#DejaVuSans-Oblique-3b4" transform="translate(0 0.78125)"/>
    </g>
   </g>
   <g id="text_12">
    <!-- $\theta$ -->
    <g transform="translate(359.394514 93.063413) scale(0.14 -0.14)">
     <defs>
      <path id="DejaVuSans-Oblique-3b8" d="M 2913 2219 
L 925 2219 
Q 791 1284 928 888 
Q 1100 400 1566 400 
Q 2034 400 2391 891 
Q 2703 1322 2913 2219 
z
M 3009 2750 
Q 3094 3638 2984 3950 
Q 2813 4444 2353 4444 
Q 1875 4444 1525 3956 
Q 1250 3563 1034 2750 
L 3009 2750 
z
M 2444 4913 
Q 3194 4913 3494 4250 
Q 3794 3591 3566 2422 
Q 3341 1256 2781 594 
Q 2225 -72 1475 -72 
Q 722 -72 425 594 
Q 128 1256 353 2422 
Q 581 3591 1134 4250 
Q 1691 4913 2444 4913 
z
" transform="scale(0.015625)"/>
     </defs>
     <use xlink:href="#DejaVuSans-Oblique-3b8" transform="translate(0 0.234375)"/>
    </g>
   </g>
   <g id="text_13">
    <!-- $\alpha$ -->
    <g transform="translate(410.172451 93.063413) scale(0.14 -0.14)">
     <defs>
      <path id="DejaVuSans-Oblique-3b1" d="M 2619 1628 
L 2622 2350 
Q 2625 3088 2069 3091 
Q 1653 3094 1394 2747 
Q 1069 2319 959 1747 
Q 825 1059 994 731 
Q 1169 397 1547 397 
Q 1966 397 2319 1063 
L 2619 1628 
z
M 2166 3578 
Q 3141 3594 3128 2584 
Q 3128 2584 3616 3500 
L 4128 3500 
L 3119 1603 
L 3109 919 
Q 3109 766 3194 638 
Q 3291 488 3391 488 
L 3669 488 
L 3575 0 
L 3228 0 
Q 2934 0 2722 263 
Q 2622 394 2619 669 
Q 2416 334 2066 50 
Q 1900 -81 1453 -78 
Q 722 -72 456 397 
Q 184 884 353 1747 
Q 534 2675 1009 3097 
Q 1544 3569 2166 3578 
z
" transform="scale(0.015625)"/>
     </defs>
     <use xlink:href="#DejaVuSans-Oblique-3b1" transform="translate(0 0.84375)"/>
    </g>
   </g>
   <g id="text_14">
    <!-- $\beta$ -->
    <g transform="translate(457.290157 93.2056) scale(0.14 -0.14)">
     <defs>
      <path id="DejaVuSans-Oblique-3b2" d="M 872 216 
L 572 -1331 
L -6 -1331 
L 928 3478 
Q 1206 4903 2538 4903 
Q 3888 4903 3659 3700 
Q 3503 2844 2894 2531 
Q 3713 2250 3553 1416 
Q 3272 -69 1759 -66 
Q 1097 -63 872 216 
z
M 1019 966 
Q 1259 422 1875 425 
Q 2775 425 2966 1406 
Q 3138 2288 1675 2219 
L 1778 2750 
Q 2909 2731 3106 3750 
Q 3241 4438 2509 4434 
Q 1691 4434 1503 3459 
L 1019 966 
z
" transform="scale(0.015625)"/>
     </defs>
     <use xlink:href="#DejaVuSans-Oblique-3b2" transform="translate(0 0.390625)"/>
    </g>
   </g>
   <g id="text_15">
    <!-- $\gamma$ -->
    <g transform="translate(538.624087 93.034975) scale(0.14 -0.14)">
     <defs>
      <path id="DejaVuSans-Oblique-3b3" d="M 1491 2950 
L 1838 788 
L 3456 3500 
L 4066 3500 
L 1972 0 
L 1713 -1331 
L 1138 -1331 
L 1397 0 
L 988 2613 
Q 925 3006 628 3006 
L 475 3006 
L 569 3500 
L 788 3500 
Q 1403 3500 1491 2950 
z
" transform="scale(0.015625)"/>
     </defs>
     <use xlink:href="#DejaVuSans-Oblique-3b3" transform="translate(0 0.3125)"/>
    </g>
   </g>
   <g id="text_16">
    <!-- Median power of different PSDs clusters of intracranial data -->
    <g transform="translate(82.2795 63.12) scale(0.192 -0.192)">
     <defs>
      <path id="DejaVuSans-4d" d="M 628 4666 
L 1569 4666 
L 2759 1491 
L 3956 4666 
L 4897 4666 
L 4897 0 
L 4281 0 
L 4281 4097 
L 3078 897 
L 2444 897 
L 1241 4097 
L 1241 0 
L 628 0 
L 628 4666 
z
" transform="scale(0.015625)"/>
      <path id="DejaVuSans-77" d="M 269 3500 
L 844 3500 
L 1563 769 
L 2278 3500 
L 2956 3500 
L 3675 769 
L 4391 3500 
L 4966 3500 
L 4050 0 
L 3372 0 
L 2619 2869 
L 1863 0 
L 1184 0 
L 269 3500 
z
" transform="scale(0.015625)"/>
      <path id="DejaVuSans-50" d="M 1259 4147 
L 1259 2394 
L 2053 2394 
Q 2494 2394 2734 2622 
Q 2975 2850 2975 3272 
Q 2975 3691 2734 3919 
Q 2494 4147 2053 4147 
L 1259 4147 
z
M 628 4666 
L 2053 4666 
Q 2838 4666 3239 4311 
Q 3641 3956 3641 3272 
Q 3641 2581 3239 2228 
Q 2838 1875 2053 1875 
L 1259 1875 
L 1259 0 
L 628 0 
L 628 4666 
z
" transform="scale(0.015625)"/>
      <path id="DejaVuSans-53" d="M 3425 4513 
L 3425 3897 
Q 3066 4069 2747 4153 
Q 2428 4238 2131 4238 
Q 1616 4238 1336 4038 
Q 1056 3838 1056 3469 
Q 1056 3159 1242 3001 
Q 1428 2844 1947 2747 
L 2328 2669 
Q 3034 2534 3370 2195 
Q 3706 1856 3706 1288 
Q 3706 609 3251 259 
Q 2797 -91 1919 -91 
Q 1588 -91 1214 -16 
Q 841 59 441 206 
L 441 856 
Q 825 641 1194 531 
Q 1563 422 1919 422 
Q 2459 422 2753 634 
Q 3047 847 3047 1241 
Q 3047 1584 2836 1778 
Q 2625 1972 2144 2069 
L 1759 2144 
Q 1053 2284 737 2584 
Q 422 2884 422 3419 
Q 422 4038 858 4394 
Q 1294 4750 2059 4750 
Q 2388 4750 2728 4690 
Q 3069 4631 3425 4513 
z
" transform="scale(0.015625)"/>
      <path id="DejaVuSans-44" d="M 1259 4147 
L 1259 519 
L 2022 519 
Q 2988 519 3436 956 
Q 3884 1394 3884 2338 
Q 3884 3275 3436 3711 
Q 2988 4147 2022 4147 
L 1259 4147 
z
M 628 4666 
L 1925 4666 
Q 3281 4666 3915 4102 
Q 4550 3538 4550 2338 
Q 4550 1131 3912 565 
Q 3275 0 1925 0 
L 628 0 
L 628 4666 
z
" transform="scale(0.015625)"/>
     </defs>
     <use xlink:href="#DejaVuSans-4d"/>
     <use xlink:href="#DejaVuSans-65" transform="translate(86.279297 0)"/>
     <use xlink:href="#DejaVuSans-64" transform="translate(147.802734 0)"/>
     <use xlink:href="#DejaVuSans-69" transform="translate(211.279297 0)"/>
     <use xlink:href="#DejaVuSans-61" transform="translate(239.0625 0)"/>
     <use xlink:href="#DejaVuSans-6e" transform="translate(300.341797 0)"/>
     <use xlink:href="#DejaVuSans-20" transform="translate(363.720703 0)"/>
     <use xlink:href="#DejaVuSans-70" transform="translate(395.507812 0)"/>
     <use xlink:href="#DejaVuSans-6f" transform="translate(458.984375 0)"/>
     <use xlink:href="#DejaVuSans-77" transform="translate(520.166016 0)"/>
     <use xlink:href="#DejaVuSans-65" transform="translate(601.953125 0)"/>
     <use xlink:href="#DejaVuSans-72" transform="translate(663.476562 0)"/>
     <use xlink:href="#DejaVuSans-20" transform="translate(704.589844 0)"/>
     <use xlink:href="#DejaVuSans-6f" transform="translate(736.376953 0)"/>
     <use xlink:href="#DejaVuSans-66" transform="translate(797.558594 0)"/>
     <use xlink:href="#DejaVuSans-20" transform="translate(832.763672 0)"/>
     <use xlink:href="#DejaVuSans-64" transform="translate(864.550781 0)"/>
     <use xlink:href="#DejaVuSans-69" transform="translate(928.027344 0)"/>
     <use xlink:href="#DejaVuSans-66" transform="translate(955.810547 0)"/>
     <use xlink:href="#DejaVuSans-66" transform="translate(991.015625 0)"/>
     <use xlink:href="#DejaVuSans-65" transform="translate(1026.220703 0)"/>
     <use xlink:href="#DejaVuSans-72" transform="translate(1087.744141 0)"/>
     <use xlink:href="#DejaVuSans-65" transform="translate(1126.607422 0)"/>
     <use xlink:href="#DejaVuSans-6e" transform="translate(1188.130859 0)"/>
     <use xlink:href="#DejaVuSans-74" transform="translate(1251.509766 0)"/>
     <use xlink:href="#DejaVuSans-20" transform="translate(1290.71875 0)"/>
     <use xlink:href="#DejaVuSans-50" transform="translate(1322.505859 0)"/>
     <use xlink:href="#DejaVuSans-53" transform="translate(1382.808594 0)"/>
     <use xlink:href="#DejaVuSans-44" transform="translate(1446.285156 0)"/>
     <use xlink:href="#DejaVuSans-73" transform="translate(1523.287109 0)"/>
     <use xlink:href="#DejaVuSans-20" transform="translate(1575.386719 0)"/>
     <use xlink:href="#DejaVuSans-63" transform="translate(1607.173828 0)"/>
     <use xlink:href="#DejaVuSans-6c" transform="translate(1662.154297 0)"/>
     <use xlink:href="#DejaVuSans-75" transform="translate(1689.9375 0)"/>
     <use xlink:href="#DejaVuSans-73" transform="translate(1753.316406 0)"/>
     <use xlink:href="#DejaVuSans-74" transform="translate(1805.416016 0)"/>
     <use xlink:href="#DejaVuSans-65" transform="translate(1844.625 0)"/>
     <use xlink:href="#DejaVuSans-72" transform="translate(1906.148438 0)"/>
     <use xlink:href="#DejaVuSans-73" transform="translate(1947.261719 0)"/>
     <use xlink:href="#DejaVuSans-20" transform="translate(1999.361328 0)"/>
     <use xlink:href="#DejaVuSans-6f" transform="translate(2031.148438 0)"/>
     <use xlink:href="#DejaVuSans-66" transform="translate(2092.330078 0)"/>
     <use xlink:href="#DejaVuSans-20" transform="translate(2127.535156 0)"/>
     <use xlink:href="#DejaVuSans-69" transform="translate(2159.322266 0)"/>
     <use xlink:href="#DejaVuSans-6e" transform="translate(2187.105469 0)"/>
     <use xlink:href="#DejaVuSans-74" transform="translate(2250.484375 0)"/>
     <use xlink:href="#DejaVuSans-72" transform="translate(2289.693359 0)"/>
     <use xlink:href="#DejaVuSans-61" transform="translate(2330.806641 0)"/>
     <use xlink:href="#DejaVuSans-63" transform="translate(2392.085938 0)"/>
     <use xlink:href="#DejaVuSans-72" transform="translate(2447.066406 0)"/>
     <use xlink:href="#DejaVuSans-61" transform="translate(2488.179688 0)"/>
     <use xlink:href="#DejaVuSans-6e" transform="translate(2549.458984 0)"/>
     <use xlink:href="#DejaVuSans-69" transform="translate(2612.837891 0)"/>
     <use xlink:href="#DejaVuSans-61" transform="translate(2640.621094 0)"/>
     <use xlink:href="#DejaVuSans-6c" transform="translate(2701.900391 0)"/>
     <use xlink:href="#DejaVuSans-20" transform="translate(2729.683594 0)"/>
     <use xlink:href="#DejaVuSans-64" transform="translate(2761.470703 0)"/>
     <use xlink:href="#DejaVuSans-61" transform="translate(2824.947266 0)"/>
     <use xlink:href="#DejaVuSans-74" transform="translate(2886.226562 0)"/>
     <use xlink:href="#DejaVuSans-61" transform="translate(2925.435547 0)"/>
    </g>
   </g>
   <g id="legend_1">
    <g id="patch_7">
     <path d="M 101.2 293.585 
L 276.6075 293.585 
Q 279.8075 293.585 279.8075 290.385 
L 279.8075 80.32 
Q 279.8075 77.12 276.6075 77.12 
L 101.2 77.12 
Q 98 77.12 98 80.32 
L 98 290.385 
Q 98 293.585 101.2 293.585 
z
" style="fill: #ffffff; opacity: 0.8; stroke: #cccccc; stroke-linejoin: miter"/>
    </g>
    <g id="line2d_61">
     <path d="M 104.4 90.0775 
L 120.4 90.0775 
L 136.4 90.0775 
" style="fill: none; stroke: #440154; stroke-width: 2; stroke-linecap: square"/>
    </g>
    <g id="text_17">
     <!-- δ (60) -->
     <g transform="translate(149.2 95.6775) scale(0.16 -0.16)">
      <defs>
       <path id="DejaVuSans-3b4" d="M 3138 4053 
Q 2819 4272 2072 4272 
Q 1281 4272 1281 3906 
Q 1281 3619 2106 3469 
Q 2756 3353 3122 3003 
Q 3566 2581 3566 1716 
Q 3566 888 3138 400 
Q 2709 -91 1959 -91 
Q 1213 -91 781 400 
Q 353 888 353 1747 
Q 353 2384 781 2900 
Q 947 3100 1181 3213 
Q 694 3459 694 3900 
Q 694 4750 2072 4750 
Q 2763 4750 3138 4531 
L 3138 4053 
z
M 1613 3056 
Q 1400 2966 1228 2738 
Q 959 2384 959 1747 
Q 959 1113 1225 756 
Q 1494 397 1959 397 
Q 2419 397 2687 759 
Q 2956 1122 2956 1716 
Q 2956 2338 2672 2638 
Q 2369 2959 1975 2994 
Q 1775 3013 1613 3056 
z
" transform="scale(0.015625)"/>
       <path id="DejaVuSans-28" d="M 1984 4856 
Q 1566 4138 1362 3434 
Q 1159 2731 1159 2009 
Q 1159 1288 1364 580 
Q 1569 -128 1984 -844 
L 1484 -844 
Q 1016 -109 783 600 
Q 550 1309 550 2009 
Q 550 2706 781 3412 
Q 1013 4119 1484 4856 
L 1984 4856 
z
" transform="scale(0.015625)"/>
       <path id="DejaVuSans-36" d="M 2113 2584 
Q 1688 2584 1439 2293 
Q 1191 2003 1191 1497 
Q 1191 994 1439 701 
Q 1688 409 2113 409 
Q 2538 409 2786 701 
Q 3034 994 3034 1497 
Q 3034 2003 2786 2293 
Q 2538 2584 2113 2584 
z
M 3366 4563 
L 3366 3988 
Q 3128 4100 2886 4159 
Q 2644 4219 2406 4219 
Q 1781 4219 1451 3797 
Q 1122 3375 1075 2522 
Q 1259 2794 1537 2939 
Q 1816 3084 2150 3084 
Q 2853 3084 3261 2657 
Q 3669 2231 3669 1497 
Q 3669 778 3244 343 
Q 2819 -91 2113 -91 
Q 1303 -91 875 529 
Q 447 1150 447 2328 
Q 447 3434 972 4092 
Q 1497 4750 2381 4750 
Q 2619 4750 2861 4703 
Q 3103 4656 3366 4563 
z
" transform="scale(0.015625)"/>
       <path id="DejaVuSans-29" d="M 513 4856 
L 1013 4856 
Q 1481 4119 1714 3412 
Q 1947 2706 1947 2009 
Q 1947 1309 1714 600 
Q 1481 -109 1013 -844 
L 513 -844 
Q 928 -128 1133 580 
Q 1338 1288 1338 2009 
Q 1338 2731 1133 3434 
Q 928 4138 513 4856 
z
" transform="scale(0.015625)"/>
      </defs>
      <use xlink:href="#DejaVuSans-3b4"/>
      <use xlink:href="#DejaVuSans-20" transform="translate(61.181641 0)"/>
      <use xlink:href="#DejaVuSans-28" transform="translate(92.96875 0)"/>
      <use xlink:href="#DejaVuSans-36" transform="translate(131.982422 0)"/>
      <use xlink:href="#DejaVuSans-30" transform="translate(195.605469 0)"/>
      <use xlink:href="#DejaVuSans-29" transform="translate(259.228516 0)"/>
     </g>
    </g>
    <g id="line2d_62">
     <path d="M 104.4 113.5625 
L 120.4 113.5625 
L 136.4 113.5625 
" style="fill: none; stroke: #46327e; stroke-width: 2; stroke-linecap: square"/>
    </g>
    <g id="text_18">
     <!-- θ (35) -->
     <g transform="translate(149.2 119.1625) scale(0.16 -0.16)">
      <defs>
       <path id="DejaVuSans-3b8" d="M 2953 2219 
L 963 2219 
Q 1009 1284 1225 888 
Q 1494 400 1959 400 
Q 2428 400 2688 891 
Q 2916 1322 2953 2219 
z
M 2944 2750 
Q 2856 3638 2688 3950 
Q 2419 4444 1959 4444 
Q 1481 4444 1228 3956 
Q 1028 3563 969 2750 
L 2944 2750 
z
M 1959 4913 
Q 2709 4913 3138 4250 
Q 3566 3591 3566 2422 
Q 3566 1256 3138 594 
Q 2709 -72 1959 -72 
Q 1206 -72 781 594 
Q 353 1256 353 2422 
Q 353 3591 781 4250 
Q 1206 4913 1959 4913 
z
" transform="scale(0.015625)"/>
      </defs>
      <use xlink:href="#DejaVuSans-3b8"/>
      <use xlink:href="#DejaVuSans-20" transform="translate(61.181641 0)"/>
      <use xlink:href="#DejaVuSans-28" transform="translate(92.96875 0)"/>
      <use xlink:href="#DejaVuSans-33" transform="translate(131.982422 0)"/>
      <use xlink:href="#DejaVuSans-35" transform="translate(195.605469 0)"/>
      <use xlink:href="#DejaVuSans-29" transform="translate(259.228516 0)"/>
     </g>
    </g>
    <g id="line2d_63">
     <path d="M 104.4 137.0475 
L 120.4 137.0475 
L 136.4 137.0475 
" style="fill: none; stroke: #365c8d; stroke-width: 2; stroke-linecap: square"/>
    </g>
    <g id="text_19">
     <!-- θ (228) -->
     <g transform="translate(149.2 142.6475) scale(0.16 -0.16)">
      <defs>
       <path id="DejaVuSans-32" d="M 1228 531 
L 3431 531 
L 3431 0 
L 469 0 
L 469 531 
Q 828 903 1448 1529 
Q 2069 2156 2228 2338 
Q 2531 2678 2651 2914 
Q 2772 3150 2772 3378 
Q 2772 3750 2511 3984 
Q 2250 4219 1831 4219 
Q 1534 4219 1204 4116 
Q 875 4013 500 3803 
L 500 4441 
Q 881 4594 1212 4672 
Q 1544 4750 1819 4750 
Q 2544 4750 2975 4387 
Q 3406 4025 3406 3419 
Q 3406 3131 3298 2873 
Q 3191 2616 2906 2266 
Q 2828 2175 2409 1742 
Q 1991 1309 1228 531 
z
" transform="scale(0.015625)"/>
      </defs>
      <use xlink:href="#DejaVuSans-3b8"/>
      <use xlink:href="#DejaVuSans-20" transform="translate(61.181641 0)"/>
      <use xlink:href="#DejaVuSans-28" transform="translate(92.96875 0)"/>
      <use xlink:href="#DejaVuSans-32" transform="translate(131.982422 0)"/>
      <use xlink:href="#DejaVuSans-32" transform="translate(195.605469 0)"/>
      <use xlink:href="#DejaVuSans-38" transform="translate(259.228516 0)"/>
      <use xlink:href="#DejaVuSans-29" transform="translate(322.851562 0)"/>
     </g>
    </g>
    <g id="line2d_64">
     <path d="M 104.4 160.5325 
L 120.4 160.5325 
L 136.4 160.5325 
" style="fill: none; stroke: #277f8e; stroke-width: 2; stroke-linecap: square"/>
    </g>
    <g id="text_20">
     <!-- α (172) -->
     <g transform="translate(149.2 166.1325) scale(0.16 -0.16)">
      <defs>
       <path id="DejaVuSans-3b1" d="M 2644 1628 
L 2506 2350 
Q 2366 3091 1809 3091 
Q 1391 3091 1200 2747 
Q 959 2316 959 1747 
Q 959 1059 1194 731 
Q 1431 397 1809 397 
Q 2228 397 2453 1063 
L 2644 1628 
z
M 2966 2584 
L 3275 3500 
L 3788 3500 
L 3147 1603 
L 3272 919 
Q 3300 766 3409 638 
Q 3538 488 3638 488 
L 3913 488 
L 3913 0 
L 3569 0 
Q 3275 0 3013 263 
Q 2884 394 2831 669 
Q 2688 322 2394 50 
Q 2256 -78 1809 -78 
Q 1075 -78 719 397 
Q 353 888 353 1747 
Q 353 2666 750 3097 
Q 1191 3578 1809 3578 
Q 2781 3578 2966 2584 
z
" transform="scale(0.015625)"/>
       <path id="DejaVuSans-37" d="M 525 4666 
L 3525 4666 
L 3525 4397 
L 1831 0 
L 1172 0 
L 2766 4134 
L 525 4134 
L 525 4666 
z
" transform="scale(0.015625)"/>
      </defs>
      <use xlink:href="#DejaVuSans-3b1"/>
      <use xlink:href="#DejaVuSans-20" transform="translate(65.917969 0)"/>
      <use xlink:href="#DejaVuSans-28" transform="translate(97.705078 0)"/>
      <use xlink:href="#DejaVuSans-31" transform="translate(136.71875 0)"/>
      <use xlink:href="#DejaVuSans-37" transform="translate(200.341797 0)"/>
      <use xlink:href="#DejaVuSans-32" transform="translate(263.964844 0)"/>
      <use xlink:href="#DejaVuSans-29" transform="translate(327.587891 0)"/>
     </g>
    </g>
    <g id="line2d_65">
     <path d="M 104.4 184.0175 
L 120.4 184.0175 
L 136.4 184.0175 
" style="fill: none; stroke: #1fa187; stroke-width: 2; stroke-linecap: square"/>
    </g>
    <g id="text_21">
     <!-- α (13) -->
     <g transform="translate(149.2 189.6175) scale(0.16 -0.16)">
      <use xlink:href="#DejaVuSans-3b1"/>
      <use xlink:href="#DejaVuSans-20" transform="translate(65.917969 0)"/>
      <use xlink:href="#DejaVuSans-28" transform="translate(97.705078 0)"/>
      <use xlink:href="#DejaVuSans-31" transform="translate(136.71875 0)"/>
      <use xlink:href="#DejaVuSans-33" transform="translate(200.341797 0)"/>
      <use xlink:href="#DejaVuSans-29" transform="translate(263.964844 0)"/>
     </g>
    </g>
    <g id="line2d_66">
     <path d="M 104.4 207.6025 
L 120.4 207.6025 
L 136.4 207.6025 
" style="fill: none; stroke: #4ac16d; stroke-width: 2; stroke-linecap: square"/>
    </g>
    <g id="text_22">
     <!-- β (46) -->
     <g transform="translate(149.2 213.2025) scale(0.16 -0.16)">
      <defs>
       <path id="DejaVuSans-3b2" d="M 1178 216 
L 1178 -1331 
L 600 -1331 
L 600 3478 
Q 600 4903 1931 4903 
Q 3288 4903 3288 3700 
Q 3288 2844 2750 2531 
Q 3625 2250 3625 1416 
Q 3625 -66 2119 -66 
Q 1456 -66 1178 216 
z
M 1178 966 
Q 1525 425 2141 425 
Q 3041 425 3041 1406 
Q 3041 2288 1591 2219 
L 1591 2750 
Q 2725 2750 2725 3750 
Q 2725 4434 1994 4434 
Q 1178 4434 1178 3459 
L 1178 966 
z
" transform="scale(0.015625)"/>
      </defs>
      <use xlink:href="#DejaVuSans-3b2"/>
      <use xlink:href="#DejaVuSans-20" transform="translate(63.818359 0)"/>
      <use xlink:href="#DejaVuSans-28" transform="translate(95.605469 0)"/>
      <use xlink:href="#DejaVuSans-34" transform="translate(134.619141 0)"/>
      <use xlink:href="#DejaVuSans-36" transform="translate(198.242188 0)"/>
      <use xlink:href="#DejaVuSans-29" transform="translate(261.865234 0)"/>
     </g>
    </g>
    <g id="line2d_67">
     <path d="M 104.4 231.1875 
L 120.4 231.1875 
L 136.4 231.1875 
" style="fill: none; stroke: #a0da39; stroke-width: 2; stroke-linecap: square"/>
    </g>
    <g id="text_23">
     <!-- β (3) -->
     <g transform="translate(149.2 236.7875) scale(0.16 -0.16)">
      <use xlink:href="#DejaVuSans-3b2"/>
      <use xlink:href="#DejaVuSans-20" transform="translate(63.818359 0)"/>
      <use xlink:href="#DejaVuSans-28" transform="translate(95.605469 0)"/>
      <use xlink:href="#DejaVuSans-33" transform="translate(134.619141 0)"/>
      <use xlink:href="#DejaVuSans-29" transform="translate(198.242188 0)"/>
     </g>
    </g>
    <g id="line2d_68">
     <path d="M 104.4 254.7725 
L 120.4 254.7725 
L 136.4 254.7725 
" style="fill: none; stroke: #fde725; stroke-width: 2; stroke-linecap: square"/>
    </g>
    <g id="text_24">
     <!-- β (24) -->
     <g transform="translate(149.2 260.3725) scale(0.16 -0.16)">
      <use xlink:href="#DejaVuSans-3b2"/>
      <use xlink:href="#DejaVuSans-20" transform="translate(63.818359 0)"/>
      <use xlink:href="#DejaVuSans-28" transform="translate(95.605469 0)"/>
      <use xlink:href="#DejaVuSans-32" transform="translate(134.619141 0)"/>
      <use xlink:href="#DejaVuSans-34" transform="translate(198.242188 0)"/>
      <use xlink:href="#DejaVuSans-29" transform="translate(261.865234 0)"/>
     </g>
    </g>
    <g id="line2d_69">
     <path d="M 104.4 278.2575 
L 120.4 278.2575 
L 136.4 278.2575 
" style="fill: none; stroke: #000000; stroke-width: 4; stroke-linecap: square"/>
    </g>
    <g id="text_25">
     <!-- No peak (1191) -->
     <g transform="translate(149.2 283.8575) scale(0.16 -0.16)">
      <defs>
       <path id="DejaVuSans-4e" d="M 628 4666 
L 1478 4666 
L 3547 763 
L 3547 4666 
L 4159 4666 
L 4159 0 
L 3309 0 
L 1241 3903 
L 1241 0 
L 628 0 
L 628 4666 
z
" transform="scale(0.015625)"/>
       <path id="DejaVuSans-6b" d="M 581 4863 
L 1159 4863 
L 1159 1991 
L 2875 3500 
L 3609 3500 
L 1753 1863 
L 3688 0 
L 2938 0 
L 1159 1709 
L 1159 0 
L 581 0 
L 581 4863 
z
" transform="scale(0.015625)"/>
       <path id="DejaVuSans-39" d="M 703 97 
L 703 672 
Q 941 559 1184 500 
Q 1428 441 1663 441 
Q 2288 441 2617 861 
Q 2947 1281 2994 2138 
Q 2813 1869 2534 1725 
Q 2256 1581 1919 1581 
Q 1219 1581 811 2004 
Q 403 2428 403 3163 
Q 403 3881 828 4315 
Q 1253 4750 1959 4750 
Q 2769 4750 3195 4129 
Q 3622 3509 3622 2328 
Q 3622 1225 3098 567 
Q 2575 -91 1691 -91 
Q 1453 -91 1209 -44 
Q 966 3 703 97 
z
M 1959 2075 
Q 2384 2075 2632 2365 
Q 2881 2656 2881 3163 
Q 2881 3666 2632 3958 
Q 2384 4250 1959 4250 
Q 1534 4250 1286 3958 
Q 1038 3666 1038 3163 
Q 1038 2656 1286 2365 
Q 1534 2075 1959 2075 
z
" transform="scale(0.015625)"/>
      </defs>
      <use xlink:href="#DejaVuSans-4e"/>
      <use xlink:href="#DejaVuSans-6f" transform="translate(74.804688 0)"/>
      <use xlink:href="#DejaVuSans-20" transform="translate(135.986328 0)"/>
      <use xlink:href="#DejaVuSans-70" transform="translate(167.773438 0)"/>
      <use xlink:href="#DejaVuSans-65" transform="translate(231.25 0)"/>
      <use xlink:href="#DejaVuSans-61" transform="translate(292.773438 0)"/>
      <use xlink:href="#DejaVuSans-6b" transform="translate(354.052734 0)"/>
      <use xlink:href="#DejaVuSans-20" transform="translate(411.962891 0)"/>
      <use xlink:href="#DejaVuSans-28" transform="translate(443.75 0)"/>
      <use xlink:href="#DejaVuSans-31" transform="translate(482.763672 0)"/>
      <use xlink:href="#DejaVuSans-31" transform="translate(546.386719 0)"/>
      <use xlink:href="#DejaVuSans-39" transform="translate(610.009766 0)"/>
      <use xlink:href="#DejaVuSans-31" transform="translate(673.632812 0)"/>
      <use xlink:href="#DejaVuSans-29" transform="translate(737.255859 0)"/>
     </g>
    </g>
   </g>
  </g>
 </g>
 <defs>
  <clipPath id="p037a646189">
   <rect x="90" y="69.12" width="558" height="443.52"/>
  </clipPath>
 </defs>
</svg>
