<?xml version="1.0" encoding="utf-8" standalone="no"?>
<!DOCTYPE svg PUBLIC "-//W3C//DTD SVG 1.1//EN"
  "http://www.w3.org/Graphics/SVG/1.1/DTD/svg11.dtd">
<svg xmlns:xlink="http://www.w3.org/1999/xlink" width="720pt" height="576pt" viewBox="0 0 720 576" xmlns="http://www.w3.org/2000/svg" version="1.1">
 <metadata>
  <rdf:RDF xmlns:dc="http://purl.org/dc/elements/1.1/" xmlns:cc="http://creativecommons.org/ns#" xmlns:rdf="http://www.w3.org/1999/02/22-rdf-syntax-ns#">
   <cc:Work>
    <dc:type rdf:resource="http://purl.org/dc/dcmitype/StillImage"/>
    <dc:date>2026-05-02T20:07:21.062844</dc:date>
    <dc:format>image/svg+xml</dc:format>
    <dc:creator>
     <cc:Agent>
      <dc:title>Matplotlib v3.10.9, https://matplotlib.org/</dc:title>
     </cc:Agent>
    </dc:creator>
   </cc:Work>
  </rdf:RDF>
 </metadata>
 <defs>
  <style type="text/css">*{stroke-linejoin: round; stroke-linecap: butt}</style>
 </defs>
 <g id="figure_1">
  <g id="patch_1">
   <path d="M 0 576 
L 720 576 
L 720 0 
L 0 0 
z
" style="fill: #ffffff"/>
  </g>
  <g id="axes_1">
   <g id="patch_2">
    <path d="M 90 512.64 
L 648 512.64 
L 648 69.12 
L 90 69.12 
z
" style="fill: #ffffff"/>
   </g>
   <g id="matplotlib.axis_1">
    <g id="xtick_1">
     <g id="line2d_1">
      <path d="M 90 512.64 
L 90 69.12 
" clip-path="url(#p6f8d885cbe)" style="fill: none; stroke: #b0b0b0; stroke-width: 0.8; stroke-linecap: square"/>
     </g>
     <g id="line2d_2">
      <defs>
       <path id="m12d8f4006c" d="M 0 0 
L 0 3.5 
" style="stroke: #000000; stroke-width: 0.8"/>
      </defs>
      <g>
       <use xlink:href="#m12d8f4006c" x="90" y="512.64" style="stroke: #000000; stroke-width: 0.8"/>
      </g>
     </g>
     <g id="text_1">
      <!-- 0.5 -->
      <g transform="translate(77.2775 531.7975) scale(0.16 -0.16)">
       <defs>
        <path id="DejaVuSans-30" d="M 2034 4250 
Q 1547 4250 1301 3770 
Q 1056 3291 1056 2328 
Q 1056 1369 1301 889 
Q 1547 409 2034 409 
Q 2525 409 2770 889 
Q 3016 1369 3016 2328 
Q 3016 3291 2770 3770 
Q 2525 4250 2034 4250 
z
M 2034 4750 
Q 2819 4750 3233 4129 
Q 3647 3509 3647 2328 
Q 3647 1150 3233 529 
Q 2819 -91 2034 -91 
Q 1250 -91 836 529 
Q 422 1150 422 2328 
Q 422 3509 836 4129 
Q 1250 4750 2034 4750 
z
" transform="scale(0.015625)"/>
        <path id="DejaVuSans-2e" d="M 684 794 
L 1344 794 
L 1344 0 
L 684 0 
L 684 794 
z
" transform="scale(0.015625)"/>
        <path id="DejaVuSans-35" d="M 691 4666 
L 3169 4666 
L 3169 4134 
L 1269 4134 
L 1269 2991 
Q 1406 3038 1543 3061 
Q 1681 3084 1819 3084 
Q 2600 3084 3056 2656 
Q 3513 2228 3513 1497 
Q 3513 744 3044 326 
Q 2575 -91 1722 -91 
Q 1428 -91 1123 -41 
Q 819 9 494 109 
L 494 744 
Q 775 591 1075 516 
Q 1375 441 1709 441 
Q 2250 441 2565 725 
Q 2881 1009 2881 1497 
Q 2881 1984 2565 2268 
Q 2250 2553 1709 2553 
Q 1456 2553 1204 2497 
Q 953 2441 691 2322 
L 691 4666 
z
" transform="scale(0.015625)"/>
       </defs>
       <use xlink:href="#DejaVuSans-30"/>
       <use xlink:href="#DejaVuSans-2e" transform="translate(63.623047 0)"/>
       <use xlink:href="#DejaVuSans-35" transform="translate(95.410156 0)"/>
      </g>
     </g>
    </g>
    <g id="xtick_2">
     <g id="line2d_3">
      <path d="M 309.166618 512.64 
L 309.166618 69.12 
" clip-path="url(#p6f8d885cbe)" style="fill: none; stroke: #b0b0b0; stroke-width: 0.8; stroke-linecap: square"/>
     </g>
     <g id="line2d_4">
      <g>
       <use xlink:href="#m12d8f4006c" x="309.166618" y="512.64" style="stroke: #000000; stroke-width: 0.8"/>
      </g>
     </g>
     <g id="text_2">
      <!-- 4.0 -->
      <g transform="translate(296.444118 531.7975) scale(0.16 -0.16)">
       <defs>
        <path id="DejaVuSans-34" d="M 2419 4116 
L 825 1625 
L 2419 1625 
L 2419 4116 
z
M 2253 4666 
L 3047 4666 
L 3047 1625 
L 3713 1625 
L 3713 1100 
L 3047 1100 
L 3047 0 
L 2419 0 
L 2419 1100 
L 313 1100 
L 313 1709 
L 2253 4666 
z
" transform="scale(0.015625)"/>
       </defs>
       <use xlink:href="#DejaVuSans-34"/>
       <use xlink:href="#DejaVuSans-2e" transform="translate(63.623047 0)"/>
       <use xlink:href="#DejaVuSans-30" transform="translate(95.410156 0)"/>
      </g>
     </g>
    </g>
    <g id="xtick_3">
     <g id="line2d_5">
      <path d="M 382.222158 512.64 
L 382.222158 69.12 
" clip-path="url(#p6f8d885cbe)" style="fill: none; stroke: #b0b0b0; stroke-width: 0.8; stroke-linecap: square"/>
     </g>
     <g id="line2d_6">
      <g>
       <use xlink:href="#m12d8f4006c" x="382.222158" y="512.64" style="stroke: #000000; stroke-width: 0.8"/>
      </g>
     </g>
     <g id="text_3">
      <!-- 8.0 -->
      <g transform="translate(369.499658 531.7975) scale(0.16 -0.16)">
       <defs>
        <path id="DejaVuSans-38" d="M 2034 2216 
Q 1584 2216 1326 1975 
Q 1069 1734 1069 1313 
Q 1069 891 1326 650 
Q 1584 409 2034 409 
Q 2484 409 2743 651 
Q 3003 894 3003 1313 
Q 3003 1734 2745 1975 
Q 2488 2216 2034 2216 
z
M 1403 2484 
Q 997 2584 770 2862 
Q 544 3141 544 3541 
Q 544 4100 942 4425 
Q 1341 4750 2034 4750 
Q 2731 4750 3128 4425 
Q 3525 4100 3525 3541 
Q 3525 3141 3298 2862 
Q 3072 2584 2669 2484 
Q 3125 2378 3379 2068 
Q 3634 1759 3634 1313 
Q 3634 634 3220 271 
Q 2806 -91 2034 -91 
Q 1263 -91 848 271 
Q 434 634 434 1313 
Q 434 1759 690 2068 
Q 947 2378 1403 2484 
z
M 1172 3481 
Q 1172 3119 1398 2916 
Q 1625 2713 2034 2713 
Q 2441 2713 2670 2916 
Q 2900 3119 2900 3481 
Q 2900 3844 2670 4047 
Q 2441 4250 2034 4250 
Q 1625 4250 1398 4047 
Q 1172 3844 1172 3481 
z
" transform="scale(0.015625)"/>
       </defs>
       <use xlink:href="#DejaVuSans-38"/>
       <use xlink:href="#DejaVuSans-2e" transform="translate(63.623047 0)"/>
       <use xlink:href="#DejaVuSans-30" transform="translate(95.410156 0)"/>
      </g>
     </g>
    </g>
    <g id="xtick_4">
     <g id="line2d_7">
      <path d="M 433.393159 512.64 
L 433.393159 69.12 
" clip-path="url(#p6f8d885cbe)" style="fill: none; stroke: #b0b0b0; stroke-width: 0.8; stroke-linecap: square"/>
     </g>
     <g id="line2d_8">
      <g>
       <use xlink:href="#m12d8f4006c" x="433.393159" y="512.64" style="stroke: #000000; stroke-width: 0.8"/>
      </g>
     </g>
     <g id="text_4">
      <!-- 13.0 -->
      <g transform="translate(415.580659 531.7975) scale(0.16 -0.16)">
       <defs>
        <path id="DejaVuSans-31" d="M 794 531 
L 1825 531 
L 1825 4091 
L 703 3866 
L 703 4441 
L 1819 4666 
L 2450 4666 
L 2450 531 
L 3481 531 
L 3481 0 
L 794 0 
L 794 531 
z
" transform="scale(0.015625)"/>
        <path id="DejaVuSans-33" d="M 2597 2516 
Q 3050 2419 3304 2112 
Q 3559 1806 3559 1356 
Q 3559 666 3084 287 
Q 2609 -91 1734 -91 
Q 1441 -91 1130 -33 
Q 819 25 488 141 
L 488 750 
Q 750 597 1062 519 
Q 1375 441 1716 441 
Q 2309 441 2620 675 
Q 2931 909 2931 1356 
Q 2931 1769 2642 2001 
Q 2353 2234 1838 2234 
L 1294 2234 
L 1294 2753 
L 1863 2753 
Q 2328 2753 2575 2939 
Q 2822 3125 2822 3475 
Q 2822 3834 2567 4026 
Q 2313 4219 1838 4219 
Q 1578 4219 1281 4162 
Q 984 4106 628 3988 
L 628 4550 
Q 988 4650 1302 4700 
Q 1616 4750 1894 4750 
Q 2613 4750 3031 4423 
Q 3450 4097 3450 3541 
Q 3450 3153 3228 2886 
Q 3006 2619 2597 2516 
z
" transform="scale(0.015625)"/>
       </defs>
       <use xlink:href="#DejaVuSans-31"/>
       <use xlink:href="#DejaVuSans-33" transform="translate(63.623047 0)"/>
       <use xlink:href="#DejaVuSans-2e" transform="translate(127.246094 0)"/>
       <use xlink:href="#DejaVuSans-30" transform="translate(159.033203 0)"/>
      </g>
     </g>
    </g>
    <g id="xtick_5">
     <g id="line2d_9">
      <path d="M 521.531079 512.64 
L 521.531079 69.12 
" clip-path="url(#p6f8d885cbe)" style="fill: none; stroke: #b0b0b0; stroke-width: 0.8; stroke-linecap: square"/>
     </g>
     <g id="line2d_10">
      <g>
       <use xlink:href="#m12d8f4006c" x="521.531079" y="512.64" style="stroke: #000000; stroke-width: 0.8"/>
      </g>
     </g>
     <g id="text_5">
      <!-- 30.0 -->
      <g transform="translate(503.718579 531.7975) scale(0.16 -0.16)">
       <use xlink:href="#DejaVuSans-33"/>
       <use xlink:href="#DejaVuSans-30" transform="translate(63.623047 0)"/>
       <use xlink:href="#DejaVuSans-2e" transform="translate(127.246094 0)"/>
       <use xlink:href="#DejaVuSans-30" transform="translate(159.033203 0)"/>
      </g>
     </g>
    </g>
    <g id="xtick_6">
     <g id="line2d_11">
      <path d="M 624.907407 512.64 
L 624.907407 69.12 
" clip-path="url(#p6f8d885cbe)" style="fill: none; stroke: #b0b0b0; stroke-width: 0.8; stroke-linecap: square"/>
     </g>
     <g id="line2d_12">
      <g>
       <use xlink:href="#m12d8f4006c" x="624.907407" y="512.64" style="stroke: #000000; stroke-width: 0.8"/>
      </g>
     </g>
     <g id="text_6">
      <!-- 80.0 -->
      <g transform="translate(607.094907 531.7975) scale(0.16 -0.16)">
       <use xlink:href="#DejaVuSans-38"/>
       <use xlink:href="#DejaVuSans-30" transform="translate(63.623047 0)"/>
       <use xlink:href="#DejaVuSans-2e" transform="translate(127.246094 0)"/>
       <use xlink:href="#DejaVuSans-30" transform="translate(159.033203 0)"/>
      </g>
     </g>
    </g>
    <g id="xtick_7">
     <g id="line2d_13">
      <defs>
       <path id="m3d180b83d5" d="M 0 0 
L 0 2 
" style="stroke: #000000; stroke-width: 0.6"/>
      </defs>
      <g>
       <use xlink:href="#m3d180b83d5" x="109.21612" y="512.64" style="stroke: #000000; stroke-width: 0.6"/>
      </g>
     </g>
    </g>
    <g id="xtick_8">
     <g id="line2d_14">
      <g>
       <use xlink:href="#m3d180b83d5" x="125.463119" y="512.64" style="stroke: #000000; stroke-width: 0.6"/>
      </g>
     </g>
    </g>
    <g id="xtick_9">
     <g id="line2d_15">
      <g>
       <use xlink:href="#m3d180b83d5" x="139.536909" y="512.64" style="stroke: #000000; stroke-width: 0.6"/>
      </g>
     </g>
    </g>
    <g id="xtick_10">
     <g id="line2d_16">
      <g>
       <use xlink:href="#m3d180b83d5" x="151.950871" y="512.64" style="stroke: #000000; stroke-width: 0.6"/>
      </g>
     </g>
    </g>
    <g id="xtick_11">
     <g id="line2d_17">
      <g>
       <use xlink:href="#m3d180b83d5" x="236.111079" y="512.64" style="stroke: #000000; stroke-width: 0.6"/>
      </g>
     </g>
    </g>
    <g id="xtick_12">
     <g id="line2d_18">
      <g>
       <use xlink:href="#m3d180b83d5" x="278.84583" y="512.64" style="stroke: #000000; stroke-width: 0.6"/>
      </g>
     </g>
    </g>
    <g id="xtick_13">
     <g id="line2d_19">
      <g>
       <use xlink:href="#m3d180b83d5" x="332.685249" y="512.64" style="stroke: #000000; stroke-width: 0.6"/>
      </g>
     </g>
    </g>
    <g id="xtick_14">
     <g id="line2d_20">
      <g>
       <use xlink:href="#m3d180b83d5" x="351.901369" y="512.64" style="stroke: #000000; stroke-width: 0.6"/>
      </g>
     </g>
    </g>
    <g id="xtick_15">
     <g id="line2d_21">
      <g>
       <use xlink:href="#m3d180b83d5" x="368.148368" y="512.64" style="stroke: #000000; stroke-width: 0.6"/>
      </g>
     </g>
    </g>
    <g id="xtick_16">
     <g id="line2d_22">
      <g>
       <use xlink:href="#m3d180b83d5" x="394.63612" y="512.64" style="stroke: #000000; stroke-width: 0.6"/>
      </g>
     </g>
    </g>
    <g id="xtick_17">
     <g id="line2d_23">
      <g>
       <use xlink:href="#m3d180b83d5" x="478.796328" y="512.64" style="stroke: #000000; stroke-width: 0.6"/>
      </g>
     </g>
    </g>
    <g id="xtick_18">
     <g id="line2d_24">
      <g>
       <use xlink:href="#m3d180b83d5" x="551.851867" y="512.64" style="stroke: #000000; stroke-width: 0.6"/>
      </g>
     </g>
    </g>
    <g id="xtick_19">
     <g id="line2d_25">
      <g>
       <use xlink:href="#m3d180b83d5" x="575.370498" y="512.64" style="stroke: #000000; stroke-width: 0.6"/>
      </g>
     </g>
    </g>
    <g id="xtick_20">
     <g id="line2d_26">
      <g>
       <use xlink:href="#m3d180b83d5" x="594.586618" y="512.64" style="stroke: #000000; stroke-width: 0.6"/>
      </g>
     </g>
    </g>
    <g id="xtick_21">
     <g id="line2d_27">
      <g>
       <use xlink:href="#m3d180b83d5" x="610.833617" y="512.64" style="stroke: #000000; stroke-width: 0.6"/>
      </g>
     </g>
    </g>
    <g id="xtick_22">
     <g id="line2d_28">
      <g>
       <use xlink:href="#m3d180b83d5" x="637.321369" y="512.64" style="stroke: #000000; stroke-width: 0.6"/>
      </g>
     </g>
    </g>
    <g id="text_7">
     <!-- Frequency -->
     <g transform="translate(327.6725 551.2825) scale(0.16 -0.16)">
      <defs>
       <path id="DejaVuSans-46" d="M 628 4666 
L 3309 4666 
L 3309 4134 
L 1259 4134 
L 1259 2759 
L 3109 2759 
L 3109 2228 
L 1259 2228 
L 1259 0 
L 628 0 
L 628 4666 
z
" transform="scale(0.015625)"/>
       <path id="DejaVuSans-72" d="M 2631 2963 
Q 2534 3019 2420 3045 
Q 2306 3072 2169 3072 
Q 1681 3072 1420 2755 
Q 1159 2438 1159 1844 
L 1159 0 
L 581 0 
L 581 3500 
L 1159 3500 
L 1159 2956 
Q 1341 3275 1631 3429 
Q 1922 3584 2338 3584 
Q 2397 3584 2469 3576 
Q 2541 3569 2628 3553 
L 2631 2963 
z
" transform="scale(0.015625)"/>
       <path id="DejaVuSans-65" d="M 3597 1894 
L 3597 1613 
L 953 1613 
Q 991 1019 1311 708 
Q 1631 397 2203 397 
Q 2534 397 2845 478 
Q 3156 559 3463 722 
L 3463 178 
Q 3153 47 2828 -22 
Q 2503 -91 2169 -91 
Q 1331 -91 842 396 
Q 353 884 353 1716 
Q 353 2575 817 3079 
Q 1281 3584 2069 3584 
Q 2775 3584 3186 3129 
Q 3597 2675 3597 1894 
z
M 3022 2063 
Q 3016 2534 2758 2815 
Q 2500 3097 2075 3097 
Q 1594 3097 1305 2825 
Q 1016 2553 972 2059 
L 3022 2063 
z
" transform="scale(0.015625)"/>
       <path id="DejaVuSans-71" d="M 947 1747 
Q 947 1113 1208 752 
Q 1469 391 1925 391 
Q 2381 391 2643 752 
Q 2906 1113 2906 1747 
Q 2906 2381 2643 2742 
Q 2381 3103 1925 3103 
Q 1469 3103 1208 2742 
Q 947 2381 947 1747 
z
M 2906 525 
Q 2725 213 2448 61 
Q 2172 -91 1784 -91 
Q 1150 -91 751 415 
Q 353 922 353 1747 
Q 353 2572 751 3078 
Q 1150 3584 1784 3584 
Q 2172 3584 2448 3432 
Q 2725 3281 2906 2969 
L 2906 3500 
L 3481 3500 
L 3481 -1331 
L 2906 -1331 
L 2906 525 
z
" transform="scale(0.015625)"/>
       <path id="DejaVuSans-75" d="M 544 1381 
L 544 3500 
L 1119 3500 
L 1119 1403 
Q 1119 906 1312 657 
Q 1506 409 1894 409 
Q 2359 409 2629 706 
Q 2900 1003 2900 1516 
L 2900 3500 
L 3475 3500 
L 3475 0 
L 2900 0 
L 2900 538 
Q 2691 219 2414 64 
Q 2138 -91 1772 -91 
Q 1169 -91 856 284 
Q 544 659 544 1381 
z
M 1991 3584 
L 1991 3584 
z
" transform="scale(0.015625)"/>
       <path id="DejaVuSans-6e" d="M 3513 2113 
L 3513 0 
L 2938 0 
L 2938 2094 
Q 2938 2591 2744 2837 
Q 2550 3084 2163 3084 
Q 1697 3084 1428 2787 
Q 1159 2491 1159 1978 
L 1159 0 
L 581 0 
L 581 3500 
L 1159 3500 
L 1159 2956 
Q 1366 3272 1645 3428 
Q 1925 3584 2291 3584 
Q 2894 3584 3203 3211 
Q 3513 2838 3513 2113 
z
" transform="scale(0.015625)"/>
       <path id="DejaVuSans-63" d="M 3122 3366 
L 3122 2828 
Q 2878 2963 2633 3030 
Q 2388 3097 2138 3097 
Q 1578 3097 1268 2742 
Q 959 2388 959 1747 
Q 959 1106 1268 751 
Q 1578 397 2138 397 
Q 2388 397 2633 464 
Q 2878 531 3122 666 
L 3122 134 
Q 2881 22 2623 -34 
Q 2366 -91 2075 -91 
Q 1284 -91 818 406 
Q 353 903 353 1747 
Q 353 2603 823 3093 
Q 1294 3584 2113 3584 
Q 2378 3584 2631 3529 
Q 2884 3475 3122 3366 
z
" transform="scale(0.015625)"/>
       <path id="DejaVuSans-79" d="M 2059 -325 
Q 1816 -950 1584 -1140 
Q 1353 -1331 966 -1331 
L 506 -1331 
L 506 -850 
L 844 -850 
Q 1081 -850 1212 -737 
Q 1344 -625 1503 -206 
L 1606 56 
L 191 3500 
L 800 3500 
L 1894 763 
L 2988 3500 
L 3597 3500 
L 2059 -325 
z
" transform="scale(0.015625)"/>
      </defs>
      <use xlink:href="#DejaVuSans-46"/>
      <use xlink:href="#DejaVuSans-72" transform="translate(50.269531 0)"/>
      <use xlink:href="#DejaVuSans-65" transform="translate(89.132812 0)"/>
      <use xlink:href="#DejaVuSans-71" transform="translate(150.65625 0)"/>
      <use xlink:href="#DejaVuSans-75" transform="translate(214.132812 0)"/>
      <use xlink:href="#DejaVuSans-65" transform="translate(277.511719 0)"/>
      <use xlink:href="#DejaVuSans-6e" transform="translate(339.035156 0)"/>
      <use xlink:href="#DejaVuSans-63" transform="translate(402.414062 0)"/>
      <use xlink:href="#DejaVuSans-79" transform="translate(457.394531 0)"/>
     </g>
    </g>
   </g>
   <g id="matplotlib.axis_2">
    <g id="ytick_1">
     <g id="line2d_29">
      <path d="M 90 412.994329 
L 648 412.994329 
" clip-path="url(#p6f8d885cbe)" style="fill: none; stroke: #b0b0b0; stroke-width: 0.8; stroke-linecap: square"/>
     </g>
     <g id="line2d_30">
      <defs>
       <path id="mf4f818c753" d="M 0 0 
L -3.5 0 
" style="stroke: #000000; stroke-width: 0.8"/>
      </defs>
      <g>
       <use xlink:href="#mf4f818c753" x="90" y="412.994329" style="stroke: #000000; stroke-width: 0.8"/>
      </g>
     </g>
     <g id="text_8">
      <!-- $\mathdefault{10^{-3}}$ -->
      <g transform="translate(45.4 419.073079) scale(0.16 -0.16)">
       <defs>
        <path id="DejaVuSans-2212" d="M 678 2272 
L 4684 2272 
L 4684 1741 
L 678 1741 
L 678 2272 
z
" transform="scale(0.015625)"/>
       </defs>
       <use xlink:href="#DejaVuSans-31" transform="translate(0 0.765625)"/>
       <use xlink:href="#DejaVuSans-30" transform="translate(63.623047 0.765625)"/>
       <use xlink:href="#DejaVuSans-2212" transform="translate(128.203125 39.046875) scale(0.7)"/>
       <use xlink:href="#DejaVuSans-33" transform="translate(186.855469 39.046875) scale(0.7)"/>
      </g>
     </g>
    </g>
    <g id="ytick_2">
     <g id="line2d_31">
      <path d="M 90 296.044476 
L 648 296.044476 
" clip-path="url(#p6f8d885cbe)" style="fill: none; stroke: #b0b0b0; stroke-width: 0.8; stroke-linecap: square"/>
     </g>
     <g id="line2d_32">
      <g>
       <use xlink:href="#mf4f818c753" x="90" y="296.044476" style="stroke: #000000; stroke-width: 0.8"/>
      </g>
     </g>
     <g id="text_9">
      <!-- $\mathdefault{10^{-2}}$ -->
      <g transform="translate(45.4 302.123226) scale(0.16 -0.16)">
       <defs>
        <path id="DejaVuSans-32" d="M 1228 531 
L 3431 531 
L 3431 0 
L 469 0 
L 469 531 
Q 828 903 1448 1529 
Q 2069 2156 2228 2338 
Q 2531 2678 2651 2914 
Q 2772 3150 2772 3378 
Q 2772 3750 2511 3984 
Q 2250 4219 1831 4219 
Q 1534 4219 1204 4116 
Q 875 4013 500 3803 
L 500 4441 
Q 881 4594 1212 4672 
Q 1544 4750 1819 4750 
Q 2544 4750 2975 4387 
Q 3406 4025 3406 3419 
Q 3406 3131 3298 2873 
Q 3191 2616 2906 2266 
Q 2828 2175 2409 1742 
Q 1991 1309 1228 531 
z
" transform="scale(0.015625)"/>
       </defs>
       <use xlink:href="#DejaVuSans-31" transform="translate(0 0.765625)"/>
       <use xlink:href="#DejaVuSans-30" transform="translate(63.623047 0.765625)"/>
       <use xlink:href="#DejaVuSans-2212" transform="translate(128.203125 39.046875) scale(0.7)"/>
       <use xlink:href="#DejaVuSans-32" transform="translate(186.855469 39.046875) scale(0.7)"/>
      </g>
     </g>
    </g>
    <g id="ytick_3">
     <g id="line2d_33">
      <path d="M 90 179.094622 
L 648 179.094622 
" clip-path="url(#p6f8d885cbe)" style="fill: none; stroke: #b0b0b0; stroke-width: 0.8; stroke-linecap: square"/>
     </g>
     <g id="line2d_34">
      <g>
       <use xlink:href="#mf4f818c753" x="90" y="179.094622" style="stroke: #000000; stroke-width: 0.8"/>
      </g>
     </g>
     <g id="text_10">
      <!-- $\mathdefault{10^{-1}}$ -->
      <g transform="translate(45.4 185.173372) scale(0.16 -0.16)">
       <use xlink:href="#DejaVuSans-31" transform="translate(0 0.684375)"/>
       <use xlink:href="#DejaVuSans-30" transform="translate(63.623047 0.684375)"/>
       <use xlink:href="#DejaVuSans-2212" transform="translate(128.203125 38.965625) scale(0.7)"/>
       <use xlink:href="#DejaVuSans-31" transform="translate(186.855469 38.965625) scale(0.7)"/>
      </g>
     </g>
    </g>
    <g id="ytick_4">
     <g id="line2d_35">
      <defs>
       <path id="m38ac33b218" d="M 0 0 
L -2 0 
" style="stroke: #000000; stroke-width: 0.6"/>
      </defs>
      <g>
       <use xlink:href="#m38ac33b218" x="90" y="494.738769" style="stroke: #000000; stroke-width: 0.6"/>
      </g>
     </g>
    </g>
    <g id="ytick_5">
     <g id="line2d_36">
      <g>
       <use xlink:href="#m38ac33b218" x="90" y="474.144922" style="stroke: #000000; stroke-width: 0.6"/>
      </g>
     </g>
    </g>
    <g id="ytick_6">
     <g id="line2d_37">
      <g>
       <use xlink:href="#m38ac33b218" x="90" y="459.533355" style="stroke: #000000; stroke-width: 0.6"/>
      </g>
     </g>
    </g>
    <g id="ytick_7">
     <g id="line2d_38">
      <g>
       <use xlink:href="#m38ac33b218" x="90" y="448.199743" style="stroke: #000000; stroke-width: 0.6"/>
      </g>
     </g>
    </g>
    <g id="ytick_8">
     <g id="line2d_39">
      <g>
       <use xlink:href="#m38ac33b218" x="90" y="438.939508" style="stroke: #000000; stroke-width: 0.6"/>
      </g>
     </g>
    </g>
    <g id="ytick_9">
     <g id="line2d_40">
      <g>
       <use xlink:href="#m38ac33b218" x="90" y="431.110091" style="stroke: #000000; stroke-width: 0.6"/>
      </g>
     </g>
    </g>
    <g id="ytick_10">
     <g id="line2d_41">
      <g>
       <use xlink:href="#m38ac33b218" x="90" y="424.327941" style="stroke: #000000; stroke-width: 0.6"/>
      </g>
     </g>
    </g>
    <g id="ytick_11">
     <g id="line2d_42">
      <g>
       <use xlink:href="#m38ac33b218" x="90" y="418.345661" style="stroke: #000000; stroke-width: 0.6"/>
      </g>
     </g>
    </g>
    <g id="ytick_12">
     <g id="line2d_43">
      <g>
       <use xlink:href="#m38ac33b218" x="90" y="377.788915" style="stroke: #000000; stroke-width: 0.6"/>
      </g>
     </g>
    </g>
    <g id="ytick_13">
     <g id="line2d_44">
      <g>
       <use xlink:href="#m38ac33b218" x="90" y="357.195068" style="stroke: #000000; stroke-width: 0.6"/>
      </g>
     </g>
    </g>
    <g id="ytick_14">
     <g id="line2d_45">
      <g>
       <use xlink:href="#m38ac33b218" x="90" y="342.583501" style="stroke: #000000; stroke-width: 0.6"/>
      </g>
     </g>
    </g>
    <g id="ytick_15">
     <g id="line2d_46">
      <g>
       <use xlink:href="#m38ac33b218" x="90" y="331.24989" style="stroke: #000000; stroke-width: 0.6"/>
      </g>
     </g>
    </g>
    <g id="ytick_16">
     <g id="line2d_47">
      <g>
       <use xlink:href="#m38ac33b218" x="90" y="321.989654" style="stroke: #000000; stroke-width: 0.6"/>
      </g>
     </g>
    </g>
    <g id="ytick_17">
     <g id="line2d_48">
      <g>
       <use xlink:href="#m38ac33b218" x="90" y="314.160237" style="stroke: #000000; stroke-width: 0.6"/>
      </g>
     </g>
    </g>
    <g id="ytick_18">
     <g id="line2d_49">
      <g>
       <use xlink:href="#m38ac33b218" x="90" y="307.378087" style="stroke: #000000; stroke-width: 0.6"/>
      </g>
     </g>
    </g>
    <g id="ytick_19">
     <g id="line2d_50">
      <g>
       <use xlink:href="#m38ac33b218" x="90" y="301.395807" style="stroke: #000000; stroke-width: 0.6"/>
      </g>
     </g>
    </g>
    <g id="ytick_20">
     <g id="line2d_51">
      <g>
       <use xlink:href="#m38ac33b218" x="90" y="260.839062" style="stroke: #000000; stroke-width: 0.6"/>
      </g>
     </g>
    </g>
    <g id="ytick_21">
     <g id="line2d_52">
      <g>
       <use xlink:href="#m38ac33b218" x="90" y="240.245215" style="stroke: #000000; stroke-width: 0.6"/>
      </g>
     </g>
    </g>
    <g id="ytick_22">
     <g id="line2d_53">
      <g>
       <use xlink:href="#m38ac33b218" x="90" y="225.633648" style="stroke: #000000; stroke-width: 0.6"/>
      </g>
     </g>
    </g>
    <g id="ytick_23">
     <g id="line2d_54">
      <g>
       <use xlink:href="#m38ac33b218" x="90" y="214.300036" style="stroke: #000000; stroke-width: 0.6"/>
      </g>
     </g>
    </g>
    <g id="ytick_24">
     <g id="line2d_55">
      <g>
       <use xlink:href="#m38ac33b218" x="90" y="205.039801" style="stroke: #000000; stroke-width: 0.6"/>
      </g>
     </g>
    </g>
    <g id="ytick_25">
     <g id="line2d_56">
      <g>
       <use xlink:href="#m38ac33b218" x="90" y="197.210383" style="stroke: #000000; stroke-width: 0.6"/>
      </g>
     </g>
    </g>
    <g id="ytick_26">
     <g id="line2d_57">
      <g>
       <use xlink:href="#m38ac33b218" x="90" y="190.428234" style="stroke: #000000; stroke-width: 0.6"/>
      </g>
     </g>
    </g>
    <g id="ytick_27">
     <g id="line2d_58">
      <g>
       <use xlink:href="#m38ac33b218" x="90" y="184.445954" style="stroke: #000000; stroke-width: 0.6"/>
      </g>
     </g>
    </g>
    <g id="ytick_28">
     <g id="line2d_59">
      <g>
       <use xlink:href="#m38ac33b218" x="90" y="143.889208" style="stroke: #000000; stroke-width: 0.6"/>
      </g>
     </g>
    </g>
    <g id="ytick_29">
     <g id="line2d_60">
      <g>
       <use xlink:href="#m38ac33b218" x="90" y="123.295361" style="stroke: #000000; stroke-width: 0.6"/>
      </g>
     </g>
    </g>
    <g id="ytick_30">
     <g id="line2d_61">
      <g>
       <use xlink:href="#m38ac33b218" x="90" y="108.683794" style="stroke: #000000; stroke-width: 0.6"/>
      </g>
     </g>
    </g>
    <g id="ytick_31">
     <g id="line2d_62">
      <g>
       <use xlink:href="#m38ac33b218" x="90" y="97.350182" style="stroke: #000000; stroke-width: 0.6"/>
      </g>
     </g>
    </g>
    <g id="ytick_32">
     <g id="line2d_63">
      <g>
       <use xlink:href="#m38ac33b218" x="90" y="88.089947" style="stroke: #000000; stroke-width: 0.6"/>
      </g>
     </g>
    </g>
    <g id="ytick_33">
     <g id="line2d_64">
      <g>
       <use xlink:href="#m38ac33b218" x="90" y="80.26053" style="stroke: #000000; stroke-width: 0.6"/>
      </g>
     </g>
    </g>
    <g id="ytick_34">
     <g id="line2d_65">
      <g>
       <use xlink:href="#m38ac33b218" x="90" y="73.47838" style="stroke: #000000; stroke-width: 0.6"/>
      </g>
     </g>
    </g>
    <g id="text_11">
     <!-- Normalized spectral density -->
     <g transform="translate(38.0725 402.78375) rotate(-90) scale(0.16 -0.16)">
      <defs>
       <path id="DejaVuSans-4e" d="M 628 4666 
L 1478 4666 
L 3547 763 
L 3547 4666 
L 4159 4666 
L 4159 0 
L 3309 0 
L 1241 3903 
L 1241 0 
L 628 0 
L 628 4666 
z
" transform="scale(0.015625)"/>
       <path id="DejaVuSans-6f" d="M 1959 3097 
Q 1497 3097 1228 2736 
Q 959 2375 959 1747 
Q 959 1119 1226 758 
Q 1494 397 1959 397 
Q 2419 397 2687 759 
Q 2956 1122 2956 1747 
Q 2956 2369 2687 2733 
Q 2419 3097 1959 3097 
z
M 1959 3584 
Q 2709 3584 3137 3096 
Q 3566 2609 3566 1747 
Q 3566 888 3137 398 
Q 2709 -91 1959 -91 
Q 1206 -91 779 398 
Q 353 888 353 1747 
Q 353 2609 779 3096 
Q 1206 3584 1959 3584 
z
" transform="scale(0.015625)"/>
       <path id="DejaVuSans-6d" d="M 3328 2828 
Q 3544 3216 3844 3400 
Q 4144 3584 4550 3584 
Q 5097 3584 5394 3201 
Q 5691 2819 5691 2113 
L 5691 0 
L 5113 0 
L 5113 2094 
Q 5113 2597 4934 2840 
Q 4756 3084 4391 3084 
Q 3944 3084 3684 2787 
Q 3425 2491 3425 1978 
L 3425 0 
L 2847 0 
L 2847 2094 
Q 2847 2600 2669 2842 
Q 2491 3084 2119 3084 
Q 1678 3084 1418 2786 
Q 1159 2488 1159 1978 
L 1159 0 
L 581 0 
L 581 3500 
L 1159 3500 
L 1159 2956 
Q 1356 3278 1631 3431 
Q 1906 3584 2284 3584 
Q 2666 3584 2933 3390 
Q 3200 3197 3328 2828 
z
" transform="scale(0.015625)"/>
       <path id="DejaVuSans-61" d="M 2194 1759 
Q 1497 1759 1228 1600 
Q 959 1441 959 1056 
Q 959 750 1161 570 
Q 1363 391 1709 391 
Q 2188 391 2477 730 
Q 2766 1069 2766 1631 
L 2766 1759 
L 2194 1759 
z
M 3341 1997 
L 3341 0 
L 2766 0 
L 2766 531 
Q 2569 213 2275 61 
Q 1981 -91 1556 -91 
Q 1019 -91 701 211 
Q 384 513 384 1019 
Q 384 1609 779 1909 
Q 1175 2209 1959 2209 
L 2766 2209 
L 2766 2266 
Q 2766 2663 2505 2880 
Q 2244 3097 1772 3097 
Q 1472 3097 1187 3025 
Q 903 2953 641 2809 
L 641 3341 
Q 956 3463 1253 3523 
Q 1550 3584 1831 3584 
Q 2591 3584 2966 3190 
Q 3341 2797 3341 1997 
z
" transform="scale(0.015625)"/>
       <path id="DejaVuSans-6c" d="M 603 4863 
L 1178 4863 
L 1178 0 
L 603 0 
L 603 4863 
z
" transform="scale(0.015625)"/>
       <path id="DejaVuSans-69" d="M 603 3500 
L 1178 3500 
L 1178 0 
L 603 0 
L 603 3500 
z
M 603 4863 
L 1178 4863 
L 1178 4134 
L 603 4134 
L 603 4863 
z
" transform="scale(0.015625)"/>
       <path id="DejaVuSans-7a" d="M 353 3500 
L 3084 3500 
L 3084 2975 
L 922 459 
L 3084 459 
L 3084 0 
L 275 0 
L 275 525 
L 2438 3041 
L 353 3041 
L 353 3500 
z
" transform="scale(0.015625)"/>
       <path id="DejaVuSans-64" d="M 2906 2969 
L 2906 4863 
L 3481 4863 
L 3481 0 
L 2906 0 
L 2906 525 
Q 2725 213 2448 61 
Q 2172 -91 1784 -91 
Q 1150 -91 751 415 
Q 353 922 353 1747 
Q 353 2572 751 3078 
Q 1150 3584 1784 3584 
Q 2172 3584 2448 3432 
Q 2725 3281 2906 2969 
z
M 947 1747 
Q 947 1113 1208 752 
Q 1469 391 1925 391 
Q 2381 391 2643 752 
Q 2906 1113 2906 1747 
Q 2906 2381 2643 2742 
Q 2381 3103 1925 3103 
Q 1469 3103 1208 2742 
Q 947 2381 947 1747 
z
" transform="scale(0.015625)"/>
       <path id="DejaVuSans-20" transform="scale(0.015625)"/>
       <path id="DejaVuSans-73" d="M 2834 3397 
L 2834 2853 
Q 2591 2978 2328 3040 
Q 2066 3103 1784 3103 
Q 1356 3103 1142 2972 
Q 928 2841 928 2578 
Q 928 2378 1081 2264 
Q 1234 2150 1697 2047 
L 1894 2003 
Q 2506 1872 2764 1633 
Q 3022 1394 3022 966 
Q 3022 478 2636 193 
Q 2250 -91 1575 -91 
Q 1294 -91 989 -36 
Q 684 19 347 128 
L 347 722 
Q 666 556 975 473 
Q 1284 391 1588 391 
Q 1994 391 2212 530 
Q 2431 669 2431 922 
Q 2431 1156 2273 1281 
Q 2116 1406 1581 1522 
L 1381 1569 
Q 847 1681 609 1914 
Q 372 2147 372 2553 
Q 372 3047 722 3315 
Q 1072 3584 1716 3584 
Q 2034 3584 2315 3537 
Q 2597 3491 2834 3397 
z
" transform="scale(0.015625)"/>
       <path id="DejaVuSans-70" d="M 1159 525 
L 1159 -1331 
L 581 -1331 
L 581 3500 
L 1159 3500 
L 1159 2969 
Q 1341 3281 1617 3432 
Q 1894 3584 2278 3584 
Q 2916 3584 3314 3078 
Q 3713 2572 3713 1747 
Q 3713 922 3314 415 
Q 2916 -91 2278 -91 
Q 1894 -91 1617 61 
Q 1341 213 1159 525 
z
M 3116 1747 
Q 3116 2381 2855 2742 
Q 2594 3103 2138 3103 
Q 1681 3103 1420 2742 
Q 1159 2381 1159 1747 
Q 1159 1113 1420 752 
Q 1681 391 2138 391 
Q 2594 391 2855 752 
Q 3116 1113 3116 1747 
z
" transform="scale(0.015625)"/>
       <path id="DejaVuSans-74" d="M 1172 4494 
L 1172 3500 
L 2356 3500 
L 2356 3053 
L 1172 3053 
L 1172 1153 
Q 1172 725 1289 603 
Q 1406 481 1766 481 
L 2356 481 
L 2356 0 
L 1766 0 
Q 1100 0 847 248 
Q 594 497 594 1153 
L 594 3053 
L 172 3053 
L 172 3500 
L 594 3500 
L 594 4494 
L 1172 4494 
z
" transform="scale(0.015625)"/>
      </defs>
      <use xlink:href="#DejaVuSans-4e"/>
      <use xlink:href="#DejaVuSans-6f" transform="translate(74.804688 0)"/>
      <use xlink:href="#DejaVuSans-72" transform="translate(135.986328 0)"/>
      <use xlink:href="#DejaVuSans-6d" transform="translate(175.349609 0)"/>
      <use xlink:href="#DejaVuSans-61" transform="translate(272.761719 0)"/>
      <use xlink:href="#DejaVuSans-6c" transform="translate(334.041016 0)"/>
      <use xlink:href="#DejaVuSans-69" transform="translate(361.824219 0)"/>
      <use xlink:href="#DejaVuSans-7a" transform="translate(389.607422 0)"/>
      <use xlink:href="#DejaVuSans-65" transform="translate(442.097656 0)"/>
      <use xlink:href="#DejaVuSans-64" transform="translate(503.621094 0)"/>
      <use xlink:href="#DejaVuSans-20" transform="translate(567.097656 0)"/>
      <use xlink:href="#DejaVuSans-73" transform="translate(598.884766 0)"/>
      <use xlink:href="#DejaVuSans-70" transform="translate(650.984375 0)"/>
      <use xlink:href="#DejaVuSans-65" transform="translate(714.460938 0)"/>
      <use xlink:href="#DejaVuSans-63" transform="translate(775.984375 0)"/>
      <use xlink:href="#DejaVuSans-74" transform="translate(830.964844 0)"/>
      <use xlink:href="#DejaVuSans-72" transform="translate(870.173828 0)"/>
      <use xlink:href="#DejaVuSans-61" transform="translate(911.287109 0)"/>
      <use xlink:href="#DejaVuSans-6c" transform="translate(972.566406 0)"/>
      <use xlink:href="#DejaVuSans-20" transform="translate(1000.349609 0)"/>
      <use xlink:href="#DejaVuSans-64" transform="translate(1032.136719 0)"/>
      <use xlink:href="#DejaVuSans-65" transform="translate(1095.613281 0)"/>
      <use xlink:href="#DejaVuSans-6e" transform="translate(1157.136719 0)"/>
      <use xlink:href="#DejaVuSans-73" transform="translate(1220.515625 0)"/>
      <use xlink:href="#DejaVuSans-69" transform="translate(1272.615234 0)"/>
      <use xlink:href="#DejaVuSans-74" transform="translate(1300.398438 0)"/>
      <use xlink:href="#DejaVuSans-79" transform="translate(1339.607422 0)"/>
     </g>
    </g>
   </g>
   <g id="line2d_66">
    <path d="M 163.055539 181.354844 
L 205.79029 185.810233 
L 236.111079 206.982723 
L 259.629709 223.562041 
L 278.84583 229.622187 
L 295.092828 235.004061 
L 309.166618 245.399511 
L 321.580581 250.584041 
L 332.685249 252.404282 
L 342.730643 256.716886 
L 351.901369 258.341695 
L 360.33762 258.564767 
L 368.148368 252.787209 
L 375.42 248.088695 
L 382.222158 243.555266 
L 388.611803 237.589537 
L 394.63612 221.525695 
L 400.334636 202.660348 
L 405.740788 183.960248 
L 410.883119 154.67312 
L 415.786182 146.06727 
L 420.471259 172.325273 
L 424.956909 211.802788 
L 429.259419 236.176816 
L 433.393159 263.053211 
L 437.370871 275.041887 
L 441.203907 283.608887 
L 444.902422 290.70156 
L 448.475539 299.287829 
L 451.931484 300.549889 
L 455.277697 302.148273 
L 458.520933 300.198368 
L 461.667342 298.849958 
L 464.722538 303.031477 
L 467.69166 303.041211 
L 470.579426 299.293093 
L 473.390175 297.47259 
L 476.12791 296.529022 
L 478.796328 294.077808 
L 481.398852 289.885579 
L 483.938658 288.350714 
L 486.418699 292.930757 
L 488.841722 293.967057 
L 491.21029 300.782011 
L 495.793485 313.119799 
L 498.012448 323.550096 
L 500.185656 327.839113 
L 502.314958 329.136112 
L 504.402093 334.819581 
L 506.448699 338.880085 
L 508.456319 337.689575 
L 510.426411 337.363136 
L 512.360353 336.45224 
L 514.259446 340.8577 
L 516.124926 347.404129 
L 517.957962 344.117161 
L 519.759661 346.709151 
L 521.531079 350.352217 
L 523.273215 348.731694 
L 524.987023 349.886821 
L 526.673409 354.918365 
L 528.333237 352.730835 
L 529.967329 356.032712 
L 531.576473 356.16572 
L 533.161418 358.745709 
L 534.722882 357.051073 
L 536.261549 360.404018 
L 537.778077 361.651666 
L 540.747199 368.250346 
L 542.200972 364.376683 
L 543.634965 365.967656 
L 545.049709 369.196659 
L 546.445715 371.659485 
L 547.823471 373.125115 
L 549.18345 370.733433 
L 550.526103 373.667087 
L 551.851867 371.692262 
L 553.161162 372.942655 
L 554.454391 375.312341 
L 555.731945 373.897404 
L 556.994198 374.490673 
L 558.241512 373.774183 
L 559.474238 376.088279 
L 560.692713 375.741801 
L 561.897261 374.915026 
L 563.088199 371.992093 
L 564.26583 375.831534 
L 565.430448 375.138431 
L 566.582338 375.830266 
L 567.721774 375.437909 
L 568.849024 375.558357 
L 571.067988 377.18146 
L 572.160193 377.984997 
L 573.241196 384.499436 
L 574.311224 410.457794 
L 575.370498 466.453026 
L 576.419232 411.757837 
L 577.457633 385.252391 
L 578.485903 384.720539 
L 579.504238 380.645886 
L 580.512828 379.027133 
L 581.511858 379.695639 
L 582.501507 377.278384 
L 584.453357 375.384692 
L 585.415892 381.027316 
L 586.369716 381.861501 
L 587.314986 378.014334 
L 588.251853 381.187598 
L 589.180466 386.64021 
L 590.100968 383.977685 
L 591.013501 384.383144 
L 591.918201 385.6748 
L 592.815201 386.576633 
L 593.704631 386.331734 
L 594.586618 385.531302 
L 595.461286 385.069578 
L 596.328755 385.544628 
L 597.189142 384.838146 
L 598.042563 388.336534 
L 598.889128 389.830129 
L 599.728949 385.382323 
L 600.56213 385.609198 
L 601.388776 387.890012 
L 602.208989 387.631277 
L 603.022869 386.180913 
L 603.830511 385.637973 
L 604.632012 386.069074 
L 605.427464 387.097175 
L 606.216957 385.149332 
L 607.000581 386.140827 
L 607.778421 385.724835 
L 608.550563 387.535416 
L 609.317089 388.069895 
L 610.07808 390.910987 
L 610.833617 387.180878 
L 611.583775 387.363311 
L 612.328633 386.943782 
L 613.802739 391.896913 
L 614.532132 391.708273 
L 615.256512 388.841042 
L 615.975947 394.043718 
L 616.690505 392.85221 
L 617.40025 390.443586 
L 618.105249 393.159311 
L 618.805563 394.586602 
L 619.501254 391.346168 
L 620.192384 392.177955 
L 620.879011 394.090334 
L 621.561193 393.930617 
L 622.238989 392.769726 
L 622.912454 395.215818 
L 623.581642 393.777971 
L 624.246609 394.997772 
L 624.907407 411.170627 
L 624.907407 411.170627 
" clip-path="url(#p6f8d885cbe)" style="fill: none; stroke: #1f77b4; stroke-opacity: 0.5; stroke-width: 1.5; stroke-linecap: square"/>
   </g>
   <g id="line2d_67">
    <path d="M 163.055539 127.007387 
L 205.79029 137.154571 
L 236.111079 167.366862 
L 259.629709 184.603747 
L 278.84583 196.424936 
L 295.092828 209.126376 
L 309.166618 220.814877 
L 321.580581 229.207071 
L 332.685249 235.729655 
L 342.730643 239.389373 
L 351.901369 244.175637 
L 360.33762 245.202194 
L 368.148368 244.90759 
L 375.42 241.639714 
L 382.222158 245.84313 
L 388.611803 250.376342 
L 394.63612 253.178384 
L 400.334636 256.25159 
L 405.740788 258.721854 
L 410.883119 261.852509 
L 415.786182 263.376258 
L 420.471259 267.73482 
L 424.956909 274.957674 
L 433.393159 285.960218 
L 437.370871 292.791007 
L 441.203907 293.018331 
L 444.902422 293.40787 
L 448.475539 292.705643 
L 451.931484 290.57205 
L 455.277697 292.794599 
L 458.520933 293.811682 
L 464.722538 296.463853 
L 467.69166 298.665644 
L 470.579426 300.040782 
L 473.390175 300.74097 
L 476.12791 301.178838 
L 478.796328 303.036 
L 481.398852 303.056695 
L 483.938658 302.550923 
L 486.418699 306.771469 
L 488.841722 305.972807 
L 491.21029 307.433914 
L 493.526798 310.933653 
L 495.793485 312.416802 
L 498.012448 312.856231 
L 500.185656 313.072844 
L 502.314958 313.986609 
L 504.402093 316.334392 
L 506.448699 315.984581 
L 508.456319 318.78117 
L 510.426411 319.985156 
L 512.360353 321.88169 
L 514.259446 325.116058 
L 516.124926 322.68482 
L 517.957962 325.9763 
L 519.759661 330.094718 
L 521.531079 330.802573 
L 523.273215 332.931592 
L 524.987023 335.372878 
L 526.673409 335.519102 
L 529.967329 337.288815 
L 531.576473 337.184417 
L 533.161418 341.493905 
L 534.722882 340.714953 
L 536.261549 341.898884 
L 537.778077 345.334249 
L 539.273093 344.765122 
L 540.747199 343.841782 
L 542.200972 346.092494 
L 543.634965 347.523654 
L 545.049709 345.9643 
L 546.445715 347.525394 
L 547.823471 349.663551 
L 549.18345 353.210206 
L 550.526103 352.398832 
L 551.851867 350.521833 
L 553.161162 353.376345 
L 555.731945 351.799794 
L 556.994198 352.376036 
L 558.241512 353.114189 
L 559.474238 352.976118 
L 560.692713 350.580262 
L 561.897261 350.959739 
L 563.088199 353.318216 
L 564.26583 354.286457 
L 565.430448 352.032043 
L 566.582338 353.643338 
L 567.721774 356.479152 
L 569.964345 355.185955 
L 571.067988 355.869378 
L 572.160193 359.485296 
L 573.241196 367.356477 
L 574.311224 391.300402 
L 575.370498 450.983153 
L 576.419232 388.367032 
L 577.457633 364.285985 
L 578.485903 358.956618 
L 579.504238 359.140232 
L 580.512828 358.683737 
L 581.511858 357.852185 
L 582.501507 356.743252 
L 583.48195 354.663191 
L 584.453357 354.661018 
L 585.415892 360.387255 
L 586.369716 360.746496 
L 587.314986 361.23432 
L 588.251853 360.718343 
L 589.180466 361.516037 
L 590.100968 360.863528 
L 591.013501 359.966972 
L 591.918201 358.662626 
L 592.815201 360.050502 
L 593.704631 357.76452 
L 594.586618 360.707172 
L 595.461286 359.758951 
L 596.328755 361.504684 
L 597.189142 362.679709 
L 598.042563 361.81413 
L 598.889128 361.795262 
L 599.728949 360.690015 
L 600.56213 362.689253 
L 601.388776 365.367613 
L 602.208989 362.289707 
L 603.022869 362.228388 
L 603.830511 365.350456 
L 604.632012 365.387969 
L 605.427464 365.291669 
L 606.216957 364.346069 
L 607.778421 363.939881 
L 608.550563 364.857031 
L 610.07808 367.782874 
L 610.833617 365.407754 
L 611.583775 365.438861 
L 612.328633 367.253632 
L 613.068263 367.892119 
L 614.532132 363.760686 
L 615.256512 367.337506 
L 615.975947 369.08986 
L 616.690505 368.531743 
L 617.40025 367.767675 
L 618.105249 367.866684 
L 618.805563 365.097081 
L 619.501254 367.912234 
L 620.192384 367.849381 
L 620.879011 370.485041 
L 621.561193 371.197106 
L 622.238989 366.330224 
L 622.912454 367.279667 
L 623.581642 369.777032 
L 624.246609 370.441177 
L 624.907407 385.113914 
L 624.907407 385.113914 
" clip-path="url(#p6f8d885cbe)" style="fill: none; stroke: #ff7f0e; stroke-opacity: 0.5; stroke-width: 1.5; stroke-linecap: square"/>
   </g>
   <g id="line2d_68">
    <path d="M 163.055539 223.038302 
L 205.79029 229.882968 
L 236.111079 250.872265 
L 259.629709 263.871379 
L 278.84583 277.902185 
L 295.092828 286.300082 
L 309.166618 281.295317 
L 321.580581 285.661727 
L 332.685249 281.433383 
L 342.730643 291.145262 
L 351.901369 289.690126 
L 360.33762 278.796828 
L 368.148368 255.612972 
L 375.42 247.362119 
L 382.222158 207.307656 
L 388.611803 176.474035 
L 394.63612 129.156662 
L 400.334636 89.28 
L 405.740788 148.996865 
L 410.883119 225.956597 
L 415.786182 262.298361 
L 420.471259 295.162027 
L 424.956909 301.98489 
L 429.259419 302.252882 
L 433.393159 301.374708 
L 437.370871 308.969312 
L 441.203907 309.367564 
L 444.902422 310.725373 
L 448.475539 310.96351 
L 451.931484 317.652685 
L 455.277697 318.135573 
L 458.520933 321.542205 
L 461.667342 319.370186 
L 464.722538 311.545809 
L 467.69166 297.452246 
L 470.579426 276.068416 
L 473.390175 265.602225 
L 476.12791 290.75406 
L 478.796328 322.261659 
L 481.398852 333.574487 
L 483.938658 339.618185 
L 486.418699 343.403407 
L 488.841722 343.669706 
L 491.21029 341.620435 
L 493.526798 345.449612 
L 495.793485 350.041607 
L 498.012448 353.472887 
L 500.185656 355.948111 
L 502.314958 355.473007 
L 504.402093 356.073488 
L 506.448699 356.538106 
L 508.456319 362.077009 
L 510.426411 361.775379 
L 512.360353 354.165555 
L 514.259446 360.532039 
L 516.124926 372.4285 
L 517.957962 369.980621 
L 519.759661 374.496011 
L 521.531079 376.910594 
L 523.273215 374.936341 
L 524.987023 375.33428 
L 526.673409 378.895077 
L 528.333237 379.174798 
L 529.967329 375.564169 
L 531.576473 382.257077 
L 533.161418 381.504284 
L 534.722882 377.884421 
L 536.261549 381.813872 
L 537.778077 382.139466 
L 539.273093 392.304895 
L 540.747199 398.400426 
L 542.200972 387.201566 
L 543.634965 378.673981 
L 545.049709 385.612338 
L 546.445715 387.318624 
L 547.823471 384.673546 
L 549.18345 384.270208 
L 550.526103 387.380963 
L 551.851867 390.766956 
L 553.161162 391.010505 
L 554.454391 383.470727 
L 555.731945 387.414065 
L 556.994198 393.518021 
L 558.241512 389.976034 
L 559.474238 390.148795 
L 561.897261 398.5885 
L 563.088199 397.83106 
L 564.26583 390.482008 
L 566.582338 398.100012 
L 567.721774 403.407516 
L 568.849024 403.93485 
L 569.964345 403.097897 
L 571.067988 398.521946 
L 572.160193 394.706997 
L 573.241196 399.600743 
L 574.311224 429.195784 
L 575.370498 492.48 
L 576.419232 432.524453 
L 577.457633 410.947068 
L 578.485903 398.145115 
L 579.504238 404.029918 
L 580.512828 404.892812 
L 581.511858 400.474894 
L 582.501507 404.908757 
L 583.48195 397.410024 
L 584.453357 402.761961 
L 585.415892 402.410751 
L 586.369716 401.898075 
L 587.314986 401.122205 
L 588.251853 407.101837 
L 589.180466 401.955069 
L 590.100968 403.410387 
L 591.013501 406.221918 
L 591.918201 408.421556 
L 592.815201 411.267599 
L 593.704631 412.198658 
L 594.586618 416.289805 
L 595.461286 411.928985 
L 596.328755 408.514532 
L 597.189142 411.801629 
L 598.042563 412.583688 
L 598.889128 406.199261 
L 599.728949 404.727932 
L 600.56213 411.938864 
L 601.388776 410.849746 
L 602.208989 414.874252 
L 603.022869 412.588925 
L 603.830511 411.216994 
L 604.632012 418.879897 
L 605.427464 414.81195 
L 606.216957 417.085659 
L 607.000581 419.939338 
L 607.778421 416.537596 
L 608.550563 416.20368 
L 609.317089 417.141605 
L 610.07808 418.516787 
L 610.833617 416.423345 
L 611.583775 421.891882 
L 612.328633 416.198737 
L 613.068263 413.410885 
L 613.802739 414.08246 
L 614.532132 417.208104 
L 615.975947 419.342481 
L 616.690505 421.812042 
L 617.40025 416.096766 
L 618.805563 423.031177 
L 619.501254 425.618368 
L 620.192384 420.767733 
L 620.879011 420.083467 
L 621.561193 423.352941 
L 622.238989 424.951023 
L 622.912454 419.013058 
L 623.581642 425.801604 
L 624.246609 427.99014 
L 624.907407 438.851078 
L 624.907407 438.851078 
" clip-path="url(#p6f8d885cbe)" style="fill: none; stroke: #2ca02c; stroke-opacity: 0.5; stroke-width: 1.5; stroke-linecap: square"/>
   </g>
   <g id="line2d_69">
    <path d="M 163.055539 150.585831 
L 205.79029 158.864706 
L 236.111079 179.71409 
L 259.629709 192.662897 
L 278.84583 201.939356 
L 295.092828 209.140953 
L 309.166618 218.738411 
L 321.580581 226.659419 
L 332.685249 230.57833 
L 342.730643 233.811165 
L 351.901369 233.678952 
L 360.33762 230.477923 
L 368.148368 228.277024 
L 375.42 226.083992 
L 382.222158 231.501914 
L 388.611803 233.827262 
L 394.63612 229.475828 
L 400.334636 229.193626 
L 405.740788 227.613726 
L 410.883119 232.097902 
L 415.786182 235.324066 
L 420.471259 243.167004 
L 429.259419 269.215231 
L 433.393159 275.129981 
L 437.370871 280.589894 
L 441.203907 284.338297 
L 444.902422 285.80434 
L 448.475539 288.020369 
L 451.931484 288.220075 
L 455.277697 289.122594 
L 458.520933 291.113163 
L 461.667342 291.633959 
L 464.722538 290.250496 
L 467.69166 290.608852 
L 470.579426 290.054865 
L 473.390175 291.342924 
L 476.12791 293.338937 
L 478.796328 292.852621 
L 481.398852 296.411349 
L 483.938658 298.104073 
L 486.418699 298.209869 
L 488.841722 299.933878 
L 491.21029 301.095892 
L 493.526798 303.157641 
L 498.012448 311.475147 
L 500.185656 311.758614 
L 502.314958 312.499941 
L 506.448699 317.298606 
L 508.456319 318.159947 
L 510.426411 318.57373 
L 512.360353 320.461527 
L 514.259446 323.579219 
L 516.124926 322.516805 
L 517.957962 326.0593 
L 519.759661 327.328837 
L 521.531079 327.8195 
L 523.273215 329.146339 
L 524.987023 332.187265 
L 528.333237 331.808763 
L 529.967329 335.58498 
L 533.161418 339.927196 
L 534.722882 340.131703 
L 536.261549 341.070244 
L 537.778077 343.417977 
L 539.273093 344.300921 
L 540.747199 344.33026 
L 542.200972 347.712336 
L 543.634965 348.764142 
L 545.049709 348.175717 
L 546.445715 348.691758 
L 547.823471 351.147916 
L 549.18345 351.5822 
L 550.526103 351.481693 
L 551.851867 352.327521 
L 553.161162 351.787261 
L 554.454391 351.903728 
L 555.731945 353.386909 
L 556.994198 351.897433 
L 558.241512 352.478565 
L 559.474238 354.781843 
L 560.692713 354.775155 
L 561.897261 354.616078 
L 563.088199 354.585937 
L 564.26583 355.00651 
L 565.430448 354.525682 
L 566.582338 355.251118 
L 567.721774 356.659062 
L 568.849024 356.283418 
L 569.964345 356.862784 
L 571.067988 356.842153 
L 572.160193 359.311475 
L 573.241196 363.513862 
L 574.311224 389.249876 
L 575.370498 450.920608 
L 576.419232 390.540761 
L 577.457633 365.241353 
L 578.485903 360.630015 
L 579.504238 360.408201 
L 580.512828 361.974841 
L 581.511858 360.305019 
L 582.501507 357.982963 
L 583.48195 358.62778 
L 584.453357 357.891365 
L 585.415892 360.175305 
L 586.369716 360.358432 
L 587.314986 358.03364 
L 588.251853 360.093383 
L 589.180466 360.937265 
L 590.100968 361.303191 
L 591.013501 360.732653 
L 591.918201 362.45482 
L 592.815201 363.697012 
L 593.704631 363.276482 
L 594.586618 364.011226 
L 595.461286 362.7727 
L 596.328755 361.11748 
L 597.189142 361.181007 
L 598.042563 362.104833 
L 598.889128 364.185807 
L 599.728949 361.456926 
L 600.56213 363.083299 
L 601.388776 364.218899 
L 602.208989 364.499164 
L 603.022869 363.343918 
L 603.830511 364.885731 
L 604.632012 365.49548 
L 606.216957 365.948618 
L 607.000581 364.37739 
L 607.778421 365.898127 
L 608.550563 366.739318 
L 609.317089 366.357348 
L 610.07808 364.307864 
L 610.833617 366.140511 
L 611.583775 365.965647 
L 612.328633 367.649924 
L 613.068263 365.880309 
L 613.802739 367.611046 
L 614.532132 366.679305 
L 615.256512 366.196748 
L 615.975947 369.287553 
L 616.690505 369.711291 
L 617.40025 367.611323 
L 618.105249 368.318231 
L 618.805563 367.266767 
L 619.501254 368.346705 
L 620.192384 368.416568 
L 620.879011 369.670664 
L 621.561193 369.083595 
L 622.238989 370.260741 
L 622.912454 370.315163 
L 623.581642 369.653787 
L 624.246609 370.019064 
L 624.907407 383.597734 
L 624.907407 383.597734 
" clip-path="url(#p6f8d885cbe)" style="fill: none; stroke: #d62728; stroke-opacity: 0.5; stroke-width: 1.5; stroke-linecap: square"/>
   </g>
   <g id="line2d_70">
    <path d="M 163.055539 184.105332 
L 205.79029 192.793285 
L 236.111079 216.869731 
L 259.629709 228.504116 
L 278.84583 239.477981 
L 295.092828 254.73273 
L 309.166618 256.844747 
L 321.580581 259.547921 
L 332.685249 265.073802 
L 342.730643 258.663381 
L 351.901369 257.25546 
L 360.33762 248.45162 
L 368.148368 241.883549 
L 375.42 226.767617 
L 382.222158 190.774938 
L 388.611803 161.56187 
L 394.63612 148.920225 
L 400.334636 141.894464 
L 405.740788 164.14188 
L 410.883119 197.156859 
L 415.786182 226.025336 
L 420.471259 249.8133 
L 424.956909 265.412644 
L 429.259419 275.347659 
L 433.393159 283.484795 
L 437.370871 291.608435 
L 441.203907 296.409435 
L 444.902422 296.036372 
L 448.475539 294.079877 
L 451.931484 294.078685 
L 455.277697 292.625419 
L 458.520933 293.232615 
L 461.667342 289.200328 
L 464.722538 285.699172 
L 467.69166 283.400171 
L 470.579426 286.314632 
L 473.390175 288.311413 
L 476.12791 298.110556 
L 478.796328 305.558021 
L 481.398852 306.643452 
L 483.938658 316.820622 
L 486.418699 317.112035 
L 488.841722 319.887425 
L 491.21029 323.849667 
L 493.526798 324.431521 
L 495.793485 321.964224 
L 498.012448 330.130218 
L 500.185656 331.623554 
L 502.314958 332.946568 
L 504.402093 331.443362 
L 506.448699 335.810312 
L 508.456319 337.943157 
L 510.426411 341.029693 
L 512.360353 341.500159 
L 514.259446 342.327796 
L 516.124926 341.305533 
L 517.957962 349.092598 
L 519.759661 351.496666 
L 521.531079 350.510908 
L 523.273215 350.575207 
L 524.987023 355.850242 
L 526.673409 356.158715 
L 528.333237 362.088994 
L 529.967329 362.41266 
L 531.576473 364.459416 
L 533.161418 365.708993 
L 534.722882 364.237334 
L 536.261549 366.12478 
L 537.778077 368.874362 
L 539.273093 367.113365 
L 540.747199 368.189491 
L 543.634965 371.179652 
L 545.049709 373.476562 
L 546.445715 372.406229 
L 547.823471 372.843724 
L 549.18345 376.515064 
L 550.526103 373.509954 
L 551.851867 371.189574 
L 553.161162 373.529895 
L 554.454391 377.647583 
L 555.731945 377.152491 
L 556.994198 374.867027 
L 558.241512 377.560101 
L 559.474238 379.953757 
L 560.692713 379.73143 
L 561.897261 379.892117 
L 563.088199 377.247923 
L 564.26583 377.100494 
L 565.430448 378.546646 
L 566.582338 376.90742 
L 567.721774 382.908177 
L 568.849024 384.024006 
L 569.964345 383.041756 
L 571.067988 382.444899 
L 572.160193 384.332317 
L 573.241196 389.311311 
L 574.311224 410.949855 
L 575.370498 468.123597 
L 576.419232 411.823668 
L 577.457633 388.024594 
L 578.485903 383.066097 
L 579.504238 383.631211 
L 580.512828 382.300635 
L 581.511858 384.660514 
L 582.501507 382.439918 
L 583.48195 381.044531 
L 584.453357 379.30995 
L 585.415892 387.47656 
L 586.369716 384.608939 
L 587.314986 383.081375 
L 588.251853 390.577726 
L 589.180466 390.23812 
L 590.100968 391.375352 
L 591.013501 389.196798 
L 591.918201 385.67291 
L 592.815201 386.831481 
L 593.704631 388.590287 
L 594.586618 387.102443 
L 595.461286 386.974773 
L 596.328755 384.618058 
L 597.189142 387.391828 
L 598.042563 387.501388 
L 599.728949 392.193155 
L 601.388776 388.011484 
L 603.022869 392.60773 
L 603.830511 392.418149 
L 604.632012 389.744652 
L 605.427464 389.362753 
L 606.216957 386.104264 
L 607.000581 389.611589 
L 607.778421 389.098534 
L 608.550563 391.466714 
L 609.317089 392.611477 
L 610.07808 393.270615 
L 610.833617 396.437275 
L 611.583775 394.37443 
L 612.328633 393.121234 
L 613.068263 394.380192 
L 613.802739 390.377492 
L 614.532132 393.0093 
L 615.256512 394.511959 
L 615.975947 392.802115 
L 616.690505 396.071717 
L 617.40025 395.653968 
L 618.105249 397.551848 
L 618.805563 396.070132 
L 619.501254 397.614559 
L 620.192384 402.189644 
L 620.879011 399.030137 
L 621.561193 400.739408 
L 622.238989 400.688978 
L 622.912454 399.751128 
L 623.581642 400.426997 
L 624.246609 396.168056 
L 624.907407 415.330514 
L 624.907407 415.330514 
" clip-path="url(#p6f8d885cbe)" style="fill: none; stroke: #9467bd; stroke-opacity: 0.5; stroke-width: 1.5; stroke-linecap: square"/>
   </g>
   <g id="line2d_71">
    <path d="M 163.055539 174.558325 
L 205.79029 179.659987 
L 236.111079 200.232543 
L 259.629709 214.606703 
L 278.84583 227.144417 
L 295.092828 238.005953 
L 309.166618 245.820411 
L 321.580581 252.461477 
L 332.685249 257.851583 
L 342.730643 263.422571 
L 351.901369 262.806119 
L 360.33762 263.515617 
L 368.148368 263.176965 
L 375.42 259.732676 
L 382.222158 259.888381 
L 388.611803 260.965049 
L 394.63612 258.392202 
L 400.334636 254.388349 
L 405.740788 255.421653 
L 410.883119 255.497057 
L 415.786182 255.375458 
L 420.471259 259.841758 
L 424.956909 264.520098 
L 429.259419 266.807987 
L 433.393159 271.637147 
L 437.370871 276.102381 
L 444.902422 281.531319 
L 448.475539 286.559953 
L 451.931484 285.322559 
L 455.277697 282.432716 
L 458.520933 283.414873 
L 461.667342 283.458228 
L 464.722538 285.683084 
L 467.69166 285.119371 
L 470.579426 282.685559 
L 473.390175 281.918785 
L 476.12791 282.37747 
L 478.796328 279.295222 
L 483.938658 281.903288 
L 486.418699 280.332837 
L 488.841722 282.910712 
L 491.21029 283.476552 
L 493.526798 284.405295 
L 495.793485 283.710609 
L 498.012448 286.491632 
L 500.185656 287.595227 
L 502.314958 290.157685 
L 504.402093 291.488138 
L 506.448699 290.922866 
L 508.456319 293.665674 
L 510.426411 295.369055 
L 512.360353 297.651949 
L 514.259446 300.099067 
L 516.124926 299.398087 
L 517.957962 299.365629 
L 519.759661 301.397781 
L 521.531079 301.386611 
L 523.273215 301.977542 
L 524.987023 302.766891 
L 526.673409 301.582217 
L 529.967329 306.329448 
L 531.576473 306.325058 
L 533.161418 303.579844 
L 534.722882 304.14724 
L 536.261549 306.193125 
L 537.778077 306.327073 
L 539.273093 306.12334 
L 540.747199 309.097055 
L 542.200972 308.680106 
L 543.634965 307.103036 
L 545.049709 308.624388 
L 546.445715 308.604167 
L 547.823471 309.180552 
L 549.18345 309.056081 
L 550.526103 308.404883 
L 551.851867 306.568319 
L 553.161162 306.526919 
L 554.454391 310.505848 
L 555.731945 309.945314 
L 556.994198 308.279944 
L 558.241512 308.250785 
L 559.474238 308.408713 
L 560.692713 310.899424 
L 561.897261 310.846982 
L 563.088199 310.111126 
L 564.26583 308.70624 
L 565.430448 311.556241 
L 566.582338 310.197577 
L 567.721774 307.533655 
L 568.849024 306.973225 
L 569.964345 309.803742 
L 571.067988 311.988758 
L 572.160193 313.792871 
L 573.241196 317.592091 
L 574.311224 342.437698 
L 575.370498 402.775705 
L 576.419232 344.657143 
L 577.457633 320.20932 
L 578.485903 313.484459 
L 579.504238 315.68776 
L 580.512828 316.049997 
L 581.511858 315.140621 
L 583.48195 309.315498 
L 584.453357 311.389652 
L 585.415892 316.24108 
L 586.369716 316.520618 
L 587.314986 314.195254 
L 588.251853 314.548821 
L 589.180466 317.803294 
L 590.100968 316.526268 
L 591.013501 316.268371 
L 591.918201 317.147324 
L 592.815201 313.788391 
L 593.704631 315.304634 
L 594.586618 317.38502 
L 595.461286 317.514255 
L 596.328755 316.564871 
L 597.189142 319.456837 
L 598.042563 318.991139 
L 598.889128 318.387313 
L 599.728949 318.935701 
L 600.56213 316.77104 
L 601.388776 318.449277 
L 602.208989 318.616925 
L 603.022869 317.487326 
L 603.830511 318.444143 
L 604.632012 320.030317 
L 605.427464 319.616063 
L 606.216957 321.508885 
L 607.000581 321.401288 
L 607.778421 322.522478 
L 608.550563 321.666082 
L 609.317089 319.456161 
L 610.07808 324.384561 
L 610.833617 325.230155 
L 611.583775 322.599821 
L 612.328633 324.681228 
L 613.068263 324.904914 
L 614.532132 325.937207 
L 615.256512 325.385004 
L 615.975947 328.121648 
L 616.690505 328.765426 
L 617.40025 330.133429 
L 618.105249 329.433642 
L 618.805563 329.618492 
L 619.501254 328.81548 
L 620.192384 330.43697 
L 620.879011 333.071508 
L 621.561193 331.154551 
L 622.238989 329.817551 
L 622.912454 329.591032 
L 623.581642 332.404281 
L 624.246609 335.843255 
L 624.907407 350.241719 
L 624.907407 350.241719 
" clip-path="url(#p6f8d885cbe)" style="fill: none; stroke: #8c564b; stroke-opacity: 0.5; stroke-width: 1.5; stroke-linecap: square"/>
   </g>
   <g id="patch_3">
    <path d="M 90 512.64 
L 90 69.12 
" style="fill: none; stroke: #000000; stroke-width: 0.8; stroke-linejoin: miter; stroke-linecap: square"/>
   </g>
   <g id="patch_4">
    <path d="M 648 512.64 
L 648 69.12 
" style="fill: none; stroke: #000000; stroke-width: 0.8; stroke-linejoin: miter; stroke-linecap: square"/>
   </g>
   <g id="patch_5">
    <path d="M 90 512.64 
L 648 512.64 
" style="fill: none; stroke: #000000; stroke-width: 0.8; stroke-linejoin: miter; stroke-linecap: square"/>
   </g>
   <g id="patch_6">
    <path d="M 90 69.12 
L 648 69.12 
" style="fill: none; stroke: #000000; stroke-width: 0.8; stroke-linejoin: miter; stroke-linecap: square"/>
   </g>
   <g id="text_12">
    <!-- $\delta$ -->
    <g transform="translate(231.771079 93.063413) scale(0.14 -0.14)">
     <defs>
      <path id="DejaVuSans-Oblique-3b4" d="M 3472 4053 
Q 3197 4272 2450 4272 
Q 1659 4272 1588 3906 
Q 1531 3619 2328 3469 
Q 2953 3353 3253 3003 
Q 3616 2581 3447 1716 
Q 3284 888 2763 400 
Q 2238 -91 1488 -91 
Q 741 -91 406 400 
Q 72 888 241 1747 
Q 363 2384 891 2900 
Q 1097 3100 1353 3213 
Q 913 3459 1000 3900 
Q 1166 4750 2544 4750 
Q 3234 4750 3566 4531 
L 3472 4053 
z
M 1753 3056 
Q 1525 2966 1306 2738 
Q 969 2384 847 1747 
Q 722 1113 919 756 
Q 1119 397 1584 397 
Q 2044 397 2381 759 
Q 2722 1122 2838 1716 
Q 2956 2338 2731 2638 
Q 2491 2959 2103 2994 
Q 1906 3013 1753 3056 
z
" transform="scale(0.015625)"/>
     </defs>
     <use xlink:href="#DejaVuSans-Oblique-3b4" transform="translate(0 0.78125)"/>
    </g>
   </g>
   <g id="text_13">
    <!-- $\theta$ -->
    <g transform="translate(347.561369 93.063413) scale(0.14 -0.14)">
     <defs>
      <path id="DejaVuSans-Oblique-3b8" d="M 2913 2219 
L 925 2219 
Q 791 1284 928 888 
Q 1100 400 1566 400 
Q 2034 400 2391 891 
Q 2703 1322 2913 2219 
z
M 3009 2750 
Q 3094 3638 2984 3950 
Q 2813 4444 2353 4444 
Q 1875 4444 1525 3956 
Q 1250 3563 1034 2750 
L 3009 2750 
z
M 2444 4913 
Q 3194 4913 3494 4250 
Q 3794 3591 3566 2422 
Q 3341 1256 2781 594 
Q 2225 -72 1475 -72 
Q 722 -72 425 594 
Q 128 1256 353 2422 
Q 581 3591 1134 4250 
Q 1691 4913 2444 4913 
z
" transform="scale(0.015625)"/>
     </defs>
     <use xlink:href="#DejaVuSans-Oblique-3b8" transform="translate(0 0.234375)"/>
    </g>
   </g>
   <g id="text_14">
    <!-- $\alpha$ -->
    <g transform="translate(401.120788 93.063413) scale(0.14 -0.14)">
     <defs>
      <path id="DejaVuSans-Oblique-3b1" d="M 2619 1628 
L 2622 2350 
Q 2625 3088 2069 3091 
Q 1653 3094 1394 2747 
Q 1069 2319 959 1747 
Q 825 1059 994 731 
Q 1169 397 1547 397 
Q 1966 397 2319 1063 
L 2619 1628 
z
M 2166 3578 
Q 3141 3594 3128 2584 
Q 3128 2584 3616 3500 
L 4128 3500 
L 3119 1603 
L 3109 919 
Q 3109 766 3194 638 
Q 3291 488 3391 488 
L 3669 488 
L 3575 0 
L 3228 0 
Q 2934 0 2722 263 
Q 2622 394 2619 669 
Q 2416 334 2066 50 
Q 1900 -81 1453 -78 
Q 722 -72 456 397 
Q 184 884 353 1747 
Q 534 2675 1009 3097 
Q 1544 3569 2166 3578 
z
" transform="scale(0.015625)"/>
     </defs>
     <use xlink:href="#DejaVuSans-Oblique-3b1" transform="translate(0 0.84375)"/>
    </g>
   </g>
   <g id="text_15">
    <!-- $\beta$ -->
    <g transform="translate(450.797697 93.2056) scale(0.14 -0.14)">
     <defs>
      <path id="DejaVuSans-Oblique-3b2" d="M 872 216 
L 572 -1331 
L -6 -1331 
L 928 3478 
Q 1206 4903 2538 4903 
Q 3888 4903 3659 3700 
Q 3503 2844 2894 2531 
Q 3713 2250 3553 1416 
Q 3272 -69 1759 -66 
Q 1097 -63 872 216 
z
M 1019 966 
Q 1259 422 1875 425 
Q 2775 425 2966 1406 
Q 3138 2288 1675 2219 
L 1778 2750 
Q 2909 2731 3106 3750 
Q 3241 4438 2509 4434 
Q 1691 4434 1503 3459 
L 1019 966 
z
" transform="scale(0.015625)"/>
     </defs>
     <use xlink:href="#DejaVuSans-Oblique-3b2" transform="translate(0 0.390625)"/>
    </g>
   </g>
   <g id="text_16">
    <!-- $\gamma$ -->
    <g transform="translate(536.547199 93.034975) scale(0.14 -0.14)">
     <defs>
      <path id="DejaVuSans-Oblique-3b3" d="M 1491 2950 
L 1838 788 
L 3456 3500 
L 4066 3500 
L 1972 0 
L 1713 -1331 
L 1138 -1331 
L 1397 0 
L 988 2613 
Q 925 3006 628 3006 
L 475 3006 
L 569 3500 
L 788 3500 
Q 1403 3500 1491 2950 
z
" transform="scale(0.015625)"/>
     </defs>
     <use xlink:href="#DejaVuSans-Oblique-3b3" transform="translate(0 0.3125)"/>
    </g>
   </g>
   <g id="text_17">
    <!-- Median power of different PSDs clusters of reconstructed sources -->
    <g transform="translate(55.068 63.12) scale(0.192 -0.192)">
     <defs>
      <path id="DejaVuSans-4d" d="M 628 4666 
L 1569 4666 
L 2759 1491 
L 3956 4666 
L 4897 4666 
L 4897 0 
L 4281 0 
L 4281 4097 
L 3078 897 
L 2444 897 
L 1241 4097 
L 1241 0 
L 628 0 
L 628 4666 
z
" transform="scale(0.015625)"/>
      <path id="DejaVuSans-77" d="M 269 3500 
L 844 3500 
L 1563 769 
L 2278 3500 
L 2956 3500 
L 3675 769 
L 4391 3500 
L 4966 3500 
L 4050 0 
L 3372 0 
L 2619 2869 
L 1863 0 
L 1184 0 
L 269 3500 
z
" transform="scale(0.015625)"/>
      <path id="DejaVuSans-66" d="M 2375 4863 
L 2375 4384 
L 1825 4384 
Q 1516 4384 1395 4259 
Q 1275 4134 1275 3809 
L 1275 3500 
L 2222 3500 
L 2222 3053 
L 1275 3053 
L 1275 0 
L 697 0 
L 697 3053 
L 147 3053 
L 147 3500 
L 697 3500 
L 697 3744 
Q 697 4328 969 4595 
Q 1241 4863 1831 4863 
L 2375 4863 
z
" transform="scale(0.015625)"/>
      <path id="DejaVuSans-50" d="M 1259 4147 
L 1259 2394 
L 2053 2394 
Q 2494 2394 2734 2622 
Q 2975 2850 2975 3272 
Q 2975 3691 2734 3919 
Q 2494 4147 2053 4147 
L 1259 4147 
z
M 628 4666 
L 2053 4666 
Q 2838 4666 3239 4311 
Q 3641 3956 3641 3272 
Q 3641 2581 3239 2228 
Q 2838 1875 2053 1875 
L 1259 1875 
L 1259 0 
L 628 0 
L 628 4666 
z
" transform="scale(0.015625)"/>
      <path id="DejaVuSans-53" d="M 3425 4513 
L 3425 3897 
Q 3066 4069 2747 4153 
Q 2428 4238 2131 4238 
Q 1616 4238 1336 4038 
Q 1056 3838 1056 3469 
Q 1056 3159 1242 3001 
Q 1428 2844 1947 2747 
L 2328 2669 
Q 3034 2534 3370 2195 
Q 3706 1856 3706 1288 
Q 3706 609 3251 259 
Q 2797 -91 1919 -91 
Q 1588 -91 1214 -16 
Q 841 59 441 206 
L 441 856 
Q 825 641 1194 531 
Q 1563 422 1919 422 
Q 2459 422 2753 634 
Q 3047 847 3047 1241 
Q 3047 1584 2836 1778 
Q 2625 1972 2144 2069 
L 1759 2144 
Q 1053 2284 737 2584 
Q 422 2884 422 3419 
Q 422 4038 858 4394 
Q 1294 4750 2059 4750 
Q 2388 4750 2728 4690 
Q 3069 4631 3425 4513 
z
" transform="scale(0.015625)"/>
      <path id="DejaVuSans-44" d="M 1259 4147 
L 1259 519 
L 2022 519 
Q 2988 519 3436 956 
Q 3884 1394 3884 2338 
Q 3884 3275 3436 3711 
Q 2988 4147 2022 4147 
L 1259 4147 
z
M 628 4666 
L 1925 4666 
Q 3281 4666 3915 4102 
Q 4550 3538 4550 2338 
Q 4550 1131 3912 565 
Q 3275 0 1925 0 
L 628 0 
L 628 4666 
z
" transform="scale(0.015625)"/>
     </defs>
     <use xlink:href="#DejaVuSans-4d"/>
     <use xlink:href="#DejaVuSans-65" transform="translate(86.279297 0)"/>
     <use xlink:href="#DejaVuSans-64" transform="translate(147.802734 0)"/>
     <use xlink:href="#DejaVuSans-69" transform="translate(211.279297 0)"/>
     <use xlink:href="#DejaVuSans-61" transform="translate(239.0625 0)"/>
     <use xlink:href="#DejaVuSans-6e" transform="translate(300.341797 0)"/>
     <use xlink:href="#DejaVuSans-20" transform="translate(363.720703 0)"/>
     <use xlink:href="#DejaVuSans-70" transform="translate(395.507812 0)"/>
     <use xlink:href="#DejaVuSans-6f" transform="translate(458.984375 0)"/>
     <use xlink:href="#DejaVuSans-77" transform="translate(520.166016 0)"/>
     <use xlink:href="#DejaVuSans-65" transform="translate(601.953125 0)"/>
     <use xlink:href="#DejaVuSans-72" transform="translate(663.476562 0)"/>
     <use xlink:href="#DejaVuSans-20" transform="translate(704.589844 0)"/>
     <use xlink:href="#DejaVuSans-6f" transform="translate(736.376953 0)"/>
     <use xlink:href="#DejaVuSans-66" transform="translate(797.558594 0)"/>
     <use xlink:href="#DejaVuSans-20" transform="translate(832.763672 0)"/>
     <use xlink:href="#DejaVuSans-64" transform="translate(864.550781 0)"/>
     <use xlink:href="#DejaVuSans-69" transform="translate(928.027344 0)"/>
     <use xlink:href="#DejaVuSans-66" transform="translate(955.810547 0)"/>
     <use xlink:href="#DejaVuSans-66" transform="translate(991.015625 0)"/>
     <use xlink:href="#DejaVuSans-65" transform="translate(1026.220703 0)"/>
     <use xlink:href="#DejaVuSans-72" transform="translate(1087.744141 0)"/>
     <use xlink:href="#DejaVuSans-65" transform="translate(1126.607422 0)"/>
     <use xlink:href="#DejaVuSans-6e" transform="translate(1188.130859 0)"/>
     <use xlink:href="#DejaVuSans-74" transform="translate(1251.509766 0)"/>
     <use xlink:href="#DejaVuSans-20" transform="translate(1290.71875 0)"/>
     <use xlink:href="#DejaVuSans-50" transform="translate(1322.505859 0)"/>
     <use xlink:href="#DejaVuSans-53" transform="translate(1382.808594 0)"/>
     <use xlink:href="#DejaVuSans-44" transform="translate(1446.285156 0)"/>
     <use xlink:href="#DejaVuSans-73" transform="translate(1523.287109 0)"/>
     <use xlink:href="#DejaVuSans-20" transform="translate(1575.386719 0)"/>
     <use xlink:href="#DejaVuSans-63" transform="translate(1607.173828 0)"/>
     <use xlink:href="#DejaVuSans-6c" transform="translate(1662.154297 0)"/>
     <use xlink:href="#DejaVuSans-75" transform="translate(1689.9375 0)"/>
     <use xlink:href="#DejaVuSans-73" transform="translate(1753.316406 0)"/>
     <use xlink:href="#DejaVuSans-74" transform="translate(1805.416016 0)"/>
     <use xlink:href="#DejaVuSans-65" transform="translate(1844.625 0)"/>
     <use xlink:href="#DejaVuSans-72" transform="translate(1906.148438 0)"/>
     <use xlink:href="#DejaVuSans-73" transform="translate(1947.261719 0)"/>
     <use xlink:href="#DejaVuSans-20" transform="translate(1999.361328 0)"/>
     <use xlink:href="#DejaVuSans-6f" transform="translate(2031.148438 0)"/>
     <use xlink:href="#DejaVuSans-66" transform="translate(2092.330078 0)"/>
     <use xlink:href="#DejaVuSans-20" transform="translate(2127.535156 0)"/>
     <use xlink:href="#DejaVuSans-72" transform="translate(2159.322266 0)"/>
     <use xlink:href="#DejaVuSans-65" transform="translate(2198.185547 0)"/>
     <use xlink:href="#DejaVuSans-63" transform="translate(2259.708984 0)"/>
     <use xlink:href="#DejaVuSans-6f" transform="translate(2314.689453 0)"/>
     <use xlink:href="#DejaVuSans-6e" transform="translate(2375.871094 0)"/>
     <use xlink:href="#DejaVuSans-73" transform="translate(2439.25 0)"/>
     <use xlink:href="#DejaVuSans-74" transform="translate(2491.349609 0)"/>
     <use xlink:href="#DejaVuSans-72" transform="translate(2530.558594 0)"/>
     <use xlink:href="#DejaVuSans-75" transform="translate(2571.671875 0)"/>
     <use xlink:href="#DejaVuSans-63" transform="translate(2635.050781 0)"/>
     <use xlink:href="#DejaVuSans-74" transform="translate(2690.03125 0)"/>
     <use xlink:href="#DejaVuSans-65" transform="translate(2729.240234 0)"/>
     <use xlink:href="#DejaVuSans-64" transform="translate(2790.763672 0)"/>
     <use xlink:href="#DejaVuSans-20" transform="translate(2854.240234 0)"/>
     <use xlink:href="#DejaVuSans-73" transform="translate(2886.027344 0)"/>
     <use xlink:href="#DejaVuSans-6f" transform="translate(2938.126953 0)"/>
     <use xlink:href="#DejaVuSans-75" transform="translate(2999.308594 0)"/>
     <use xlink:href="#DejaVuSans-72" transform="translate(3062.6875 0)"/>
     <use xlink:href="#DejaVuSans-63" transform="translate(3101.550781 0)"/>
     <use xlink:href="#DejaVuSans-65" transform="translate(3156.53125 0)"/>
     <use xlink:href="#DejaVuSans-73" transform="translate(3218.054688 0)"/>
    </g>
   </g>
   <g id="legend_1">
    <g id="patch_7">
     <path d="M 101.2 504.64 
L 258.5625 504.64 
Q 261.7625 504.64 261.7625 501.44 
L 261.7625 362.13 
Q 261.7625 358.93 258.5625 358.93 
L 101.2 358.93 
Q 98 358.93 98 362.13 
L 98 501.44 
Q 98 504.64 101.2 504.64 
z
" style="fill: #ffffff; opacity: 0.8; stroke: #cccccc; stroke-linejoin: miter"/>
    </g>
    <g id="line2d_72">
     <path d="M 104.4 371.8875 
L 120.4 371.8875 
L 136.4 371.8875 
" style="fill: none; stroke: #1f77b4; stroke-opacity: 0.5; stroke-width: 1.5; stroke-linecap: square"/>
    </g>
    <g id="text_18">
     <!-- cl. 0 (137 el.) -->
     <g transform="translate(149.2 377.4875) scale(0.16 -0.16)">
      <defs>
       <path id="DejaVuSans-28" d="M 1984 4856 
Q 1566 4138 1362 3434 
Q 1159 2731 1159 2009 
Q 1159 1288 1364 580 
Q 1569 -128 1984 -844 
L 1484 -844 
Q 1016 -109 783 600 
Q 550 1309 550 2009 
Q 550 2706 781 3412 
Q 1013 4119 1484 4856 
L 1984 4856 
z
" transform="scale(0.015625)"/>
       <path id="DejaVuSans-37" d="M 525 4666 
L 3525 4666 
L 3525 4397 
L 1831 0 
L 1172 0 
L 2766 4134 
L 525 4134 
L 525 4666 
z
" transform="scale(0.015625)"/>
       <path id="DejaVuSans-29" d="M 513 4856 
L 1013 4856 
Q 1481 4119 1714 3412 
Q 1947 2706 1947 2009 
Q 1947 1309 1714 600 
Q 1481 -109 1013 -844 
L 513 -844 
Q 928 -128 1133 580 
Q 1338 1288 1338 2009 
Q 1338 2731 1133 3434 
Q 928 4138 513 4856 
z
" transform="scale(0.015625)"/>
      </defs>
      <use xlink:href="#DejaVuSans-63"/>
      <use xlink:href="#DejaVuSans-6c" transform="translate(54.980469 0)"/>
      <use xlink:href="#DejaVuSans-2e" transform="translate(82.763672 0)"/>
      <use xlink:href="#DejaVuSans-20" transform="translate(114.550781 0)"/>
      <use xlink:href="#DejaVuSans-30" transform="translate(146.337891 0)"/>
      <use xlink:href="#DejaVuSans-20" transform="translate(209.960938 0)"/>
      <use xlink:href="#DejaVuSans-28" transform="translate(241.748047 0)"/>
      <use xlink:href="#DejaVuSans-31" transform="translate(280.761719 0)"/>
      <use xlink:href="#DejaVuSans-33" transform="translate(344.384766 0)"/>
      <use xlink:href="#DejaVuSans-37" transform="translate(408.007812 0)"/>
      <use xlink:href="#DejaVuSans-20" transform="translate(471.630859 0)"/>
      <use xlink:href="#DejaVuSans-65" transform="translate(503.417969 0)"/>
      <use xlink:href="#DejaVuSans-6c" transform="translate(564.941406 0)"/>
      <use xlink:href="#DejaVuSans-2e" transform="translate(592.724609 0)"/>
      <use xlink:href="#DejaVuSans-29" transform="translate(624.511719 0)"/>
     </g>
    </g>
    <g id="line2d_73">
     <path d="M 104.4 395.3725 
L 120.4 395.3725 
L 136.4 395.3725 
" style="fill: none; stroke: #ff7f0e; stroke-opacity: 0.5; stroke-width: 1.5; stroke-linecap: square"/>
    </g>
    <g id="text_19">
     <!-- cl. 1 (240 el.) -->
     <g transform="translate(149.2 400.9725) scale(0.16 -0.16)">
      <use xlink:href="#DejaVuSans-63"/>
      <use xlink:href="#DejaVuSans-6c" transform="translate(54.980469 0)"/>
      <use xlink:href="#DejaVuSans-2e" transform="translate(82.763672 0)"/>
      <use xlink:href="#DejaVuSans-20" transform="translate(114.550781 0)"/>
      <use xlink:href="#DejaVuSans-31" transform="translate(146.337891 0)"/>
      <use xlink:href="#DejaVuSans-20" transform="translate(209.960938 0)"/>
      <use xlink:href="#DejaVuSans-28" transform="translate(241.748047 0)"/>
      <use xlink:href="#DejaVuSans-32" transform="translate(280.761719 0)"/>
      <use xlink:href="#DejaVuSans-34" transform="translate(344.384766 0)"/>
      <use xlink:href="#DejaVuSans-30" transform="translate(408.007812 0)"/>
      <use xlink:href="#DejaVuSans-20" transform="translate(471.630859 0)"/>
      <use xlink:href="#DejaVuSans-65" transform="translate(503.417969 0)"/>
      <use xlink:href="#DejaVuSans-6c" transform="translate(564.941406 0)"/>
      <use xlink:href="#DejaVuSans-2e" transform="translate(592.724609 0)"/>
      <use xlink:href="#DejaVuSans-29" transform="translate(624.511719 0)"/>
     </g>
    </g>
    <g id="line2d_74">
     <path d="M 104.4 418.8575 
L 120.4 418.8575 
L 136.4 418.8575 
" style="fill: none; stroke: #2ca02c; stroke-opacity: 0.5; stroke-width: 1.5; stroke-linecap: square"/>
    </g>
    <g id="text_20">
     <!-- cl. 2 (25 el.) -->
     <g transform="translate(149.2 424.4575) scale(0.16 -0.16)">
      <use xlink:href="#DejaVuSans-63"/>
      <use xlink:href="#DejaVuSans-6c" transform="translate(54.980469 0)"/>
      <use xlink:href="#DejaVuSans-2e" transform="translate(82.763672 0)"/>
      <use xlink:href="#DejaVuSans-20" transform="translate(114.550781 0)"/>
      <use xlink:href="#DejaVuSans-32" transform="translate(146.337891 0)"/>
      <use xlink:href="#DejaVuSans-20" transform="translate(209.960938 0)"/>
      <use xlink:href="#DejaVuSans-28" transform="translate(241.748047 0)"/>
      <use xlink:href="#DejaVuSans-32" transform="translate(280.761719 0)"/>
      <use xlink:href="#DejaVuSans-35" transform="translate(344.384766 0)"/>
      <use xlink:href="#DejaVuSans-20" transform="translate(408.007812 0)"/>
      <use xlink:href="#DejaVuSans-65" transform="translate(439.794922 0)"/>
      <use xlink:href="#DejaVuSans-6c" transform="translate(501.318359 0)"/>
      <use xlink:href="#DejaVuSans-2e" transform="translate(529.101562 0)"/>
      <use xlink:href="#DejaVuSans-29" transform="translate(560.888672 0)"/>
     </g>
    </g>
    <g id="line2d_75">
     <path d="M 104.4 442.3425 
L 120.4 442.3425 
L 136.4 442.3425 
" style="fill: none; stroke: #d62728; stroke-opacity: 0.5; stroke-width: 1.5; stroke-linecap: square"/>
    </g>
    <g id="text_21">
     <!-- cl. 3 (640 el.) -->
     <g transform="translate(149.2 447.9425) scale(0.16 -0.16)">
      <defs>
       <path id="DejaVuSans-36" d="M 2113 2584 
Q 1688 2584 1439 2293 
Q 1191 2003 1191 1497 
Q 1191 994 1439 701 
Q 1688 409 2113 409 
Q 2538 409 2786 701 
Q 3034 994 3034 1497 
Q 3034 2003 2786 2293 
Q 2538 2584 2113 2584 
z
M 3366 4563 
L 3366 3988 
Q 3128 4100 2886 4159 
Q 2644 4219 2406 4219 
Q 1781 4219 1451 3797 
Q 1122 3375 1075 2522 
Q 1259 2794 1537 2939 
Q 1816 3084 2150 3084 
Q 2853 3084 3261 2657 
Q 3669 2231 3669 1497 
Q 3669 778 3244 343 
Q 2819 -91 2113 -91 
Q 1303 -91 875 529 
Q 447 1150 447 2328 
Q 447 3434 972 4092 
Q 1497 4750 2381 4750 
Q 2619 4750 2861 4703 
Q 3103 4656 3366 4563 
z
" transform="scale(0.015625)"/>
      </defs>
      <use xlink:href="#DejaVuSans-63"/>
      <use xlink:href="#DejaVuSans-6c" transform="translate(54.980469 0)"/>
      <use xlink:href="#DejaVuSans-2e" transform="translate(82.763672 0)"/>
      <use xlink:href="#DejaVuSans-20" transform="translate(114.550781 0)"/>
      <use xlink:href="#DejaVuSans-33" transform="translate(146.337891 0)"/>
      <use xlink:href="#DejaVuSans-20" transform="translate(209.960938 0)"/>
      <use xlink:href="#DejaVuSans-28" transform="translate(241.748047 0)"/>
      <use xlink:href="#DejaVuSans-36" transform="translate(280.761719 0)"/>
      <use xlink:href="#DejaVuSans-34" transform="translate(344.384766 0)"/>
      <use xlink:href="#DejaVuSans-30" transform="translate(408.007812 0)"/>
      <use xlink:href="#DejaVuSans-20" transform="translate(471.630859 0)"/>
      <use xlink:href="#DejaVuSans-65" transform="translate(503.417969 0)"/>
      <use xlink:href="#DejaVuSans-6c" transform="translate(564.941406 0)"/>
      <use xlink:href="#DejaVuSans-2e" transform="translate(592.724609 0)"/>
      <use xlink:href="#DejaVuSans-29" transform="translate(624.511719 0)"/>
     </g>
    </g>
    <g id="line2d_76">
     <path d="M 104.4 465.8275 
L 120.4 465.8275 
L 136.4 465.8275 
" style="fill: none; stroke: #9467bd; stroke-opacity: 0.5; stroke-width: 1.5; stroke-linecap: square"/>
    </g>
    <g id="text_22">
     <!-- cl. 4 (122 el.) -->
     <g transform="translate(149.2 471.4275) scale(0.16 -0.16)">
      <use xlink:href="#DejaVuSans-63"/>
      <use xlink:href="#DejaVuSans-6c" transform="translate(54.980469 0)"/>
      <use xlink:href="#DejaVuSans-2e" transform="translate(82.763672 0)"/>
      <use xlink:href="#DejaVuSans-20" transform="translate(114.550781 0)"/>
      <use xlink:href="#DejaVuSans-34" transform="translate(146.337891 0)"/>
      <use xlink:href="#DejaVuSans-20" transform="translate(209.960938 0)"/>
      <use xlink:href="#DejaVuSans-28" transform="translate(241.748047 0)"/>
      <use xlink:href="#DejaVuSans-31" transform="translate(280.761719 0)"/>
      <use xlink:href="#DejaVuSans-32" transform="translate(344.384766 0)"/>
      <use xlink:href="#DejaVuSans-32" transform="translate(408.007812 0)"/>
      <use xlink:href="#DejaVuSans-20" transform="translate(471.630859 0)"/>
      <use xlink:href="#DejaVuSans-65" transform="translate(503.417969 0)"/>
      <use xlink:href="#DejaVuSans-6c" transform="translate(564.941406 0)"/>
      <use xlink:href="#DejaVuSans-2e" transform="translate(592.724609 0)"/>
      <use xlink:href="#DejaVuSans-29" transform="translate(624.511719 0)"/>
     </g>
    </g>
    <g id="line2d_77">
     <path d="M 104.4 489.3125 
L 120.4 489.3125 
L 136.4 489.3125 
" style="fill: none; stroke: #8c564b; stroke-opacity: 0.5; stroke-width: 1.5; stroke-linecap: square"/>
    </g>
    <g id="text_23">
     <!-- cl. 5 (280 el.) -->
     <g transform="translate(149.2 494.9125) scale(0.16 -0.16)">
      <use xlink:href="#DejaVuSans-63"/>
      <use xlink:href="#DejaVuSans-6c" transform="translate(54.980469 0)"/>
      <use xlink:href="#DejaVuSans-2e" transform="translate(82.763672 0)"/>
      <use xlink:href="#DejaVuSans-20" transform="translate(114.550781 0)"/>
      <use xlink:href="#DejaVuSans-35" transform="translate(146.337891 0)"/>
      <use xlink:href="#DejaVuSans-20" transform="translate(209.960938 0)"/>
      <use xlink:href="#DejaVuSans-28" transform="translate(241.748047 0)"/>
      <use xlink:href="#DejaVuSans-32" transform="translate(280.761719 0)"/>
      <use xlink:href="#DejaVuSans-38" transform="translate(344.384766 0)"/>
      <use xlink:href="#DejaVuSans-30" transform="translate(408.007812 0)"/>
      <use xlink:href="#DejaVuSans-20" transform="translate(471.630859 0)"/>
      <use xlink:href="#DejaVuSans-65" transform="translate(503.417969 0)"/>
      <use xlink:href="#DejaVuSans-6c" transform="translate(564.941406 0)"/>
      <use xlink:href="#DejaVuSans-2e" transform="translate(592.724609 0)"/>
      <use xlink:href="#DejaVuSans-29" transform="translate(624.511719 0)"/>
     </g>
    </g>
   </g>
  </g>
 </g>
 <defs>
  <clipPath id="p6f8d885cbe">
   <rect x="90" y="69.12" width="558" height="443.52"/>
  </clipPath>
 </defs>
</svg>
