<?xml version="1.0" encoding="utf-8" standalone="no"?>
<!DOCTYPE svg PUBLIC "-//W3C//DTD SVG 1.1//EN"
  "http://www.w3.org/Graphics/SVG/1.1/DTD/svg11.dtd">
<svg xmlns:xlink="http://www.w3.org/1999/xlink" width="720pt" height="576pt" viewBox="0 0 720 576" xmlns="http://www.w3.org/2000/svg" version="1.1">
 <metadata>
  <rdf:RDF xmlns:dc="http://purl.org/dc/elements/1.1/" xmlns:cc="http://creativecommons.org/ns#" xmlns:rdf="http://www.w3.org/1999/02/22-rdf-syntax-ns#">
   <cc:Work>
    <dc:type rdf:resource="http://purl.org/dc/dcmitype/StillImage"/>
    <dc:date>2026-05-02T19:29:10.784684</dc:date>
    <dc:format>image/svg+xml</dc:format>
    <dc:creator>
     <cc:Agent>
      <dc:title>Matplotlib v3.10.9, https://matplotlib.org/</dc:title>
     </cc:Agent>
    </dc:creator>
   </cc:Work>
  </rdf:RDF>
 </metadata>
 <defs>
  <style type="text/css">*{stroke-linejoin: round; stroke-linecap: butt}</style>
 </defs>
 <g id="figure_1">
  <g id="patch_1">
   <path d="M 0 576 
L 720 576 
L 720 0 
L 0 0 
z
" style="fill: #ffffff"/>
  </g>
  <g id="axes_1">
   <g id="patch_2">
    <path d="M 90 512.64 
L 648 512.64 
L 648 69.12 
L 90 69.12 
z
" style="fill: #ffffff"/>
   </g>
   <g id="matplotlib.axis_1">
    <g id="xtick_1">
     <g id="line2d_1">
      <path d="M 90 512.64 
L 90 69.12 
" clip-path="url(#pded2a462e3)" style="fill: none; stroke: #b0b0b0; stroke-width: 0.8; stroke-linecap: square"/>
     </g>
     <g id="line2d_2">
      <defs>
       <path id="me734fd7747" d="M 0 0 
L 0 3.5 
" style="stroke: #000000; stroke-width: 0.8"/>
      </defs>
      <g>
       <use xlink:href="#me734fd7747" x="90" y="512.64" style="stroke: #000000; stroke-width: 0.8"/>
      </g>
     </g>
     <g id="text_1">
      <!-- 0.5 -->
      <g transform="translate(77.2775 531.7975) scale(0.16 -0.16)">
       <defs>
        <path id="DejaVuSans-30" d="M 2034 4250 
Q 1547 4250 1301 3770 
Q 1056 3291 1056 2328 
Q 1056 1369 1301 889 
Q 1547 409 2034 409 
Q 2525 409 2770 889 
Q 3016 1369 3016 2328 
Q 3016 3291 2770 3770 
Q 2525 4250 2034 4250 
z
M 2034 4750 
Q 2819 4750 3233 4129 
Q 3647 3509 3647 2328 
Q 3647 1150 3233 529 
Q 2819 -91 2034 -91 
Q 1250 -91 836 529 
Q 422 1150 422 2328 
Q 422 3509 836 4129 
Q 1250 4750 2034 4750 
z
" transform="scale(0.015625)"/>
        <path id="DejaVuSans-2e" d="M 684 794 
L 1344 794 
L 1344 0 
L 684 0 
L 684 794 
z
" transform="scale(0.015625)"/>
        <path id="DejaVuSans-35" d="M 691 4666 
L 3169 4666 
L 3169 4134 
L 1269 4134 
L 1269 2991 
Q 1406 3038 1543 3061 
Q 1681 3084 1819 3084 
Q 2600 3084 3056 2656 
Q 3513 2228 3513 1497 
Q 3513 744 3044 326 
Q 2575 -91 1722 -91 
Q 1428 -91 1123 -41 
Q 819 9 494 109 
L 494 744 
Q 775 591 1075 516 
Q 1375 441 1709 441 
Q 2250 441 2565 725 
Q 2881 1009 2881 1497 
Q 2881 1984 2565 2268 
Q 2250 2553 1709 2553 
Q 1456 2553 1204 2497 
Q 953 2441 691 2322 
L 691 4666 
z
" transform="scale(0.015625)"/>
       </defs>
       <use xlink:href="#DejaVuSans-30"/>
       <use xlink:href="#DejaVuSans-2e" transform="translate(63.623047 0)"/>
       <use xlink:href="#DejaVuSans-35" transform="translate(95.410156 0)"/>
      </g>
     </g>
    </g>
    <g id="xtick_2">
     <g id="line2d_3">
      <path d="M 309.166618 512.64 
L 309.166618 69.12 
" clip-path="url(#pded2a462e3)" style="fill: none; stroke: #b0b0b0; stroke-width: 0.8; stroke-linecap: square"/>
     </g>
     <g id="line2d_4">
      <g>
       <use xlink:href="#me734fd7747" x="309.166618" y="512.64" style="stroke: #000000; stroke-width: 0.8"/>
      </g>
     </g>
     <g id="text_2">
      <!-- 4.0 -->
      <g transform="translate(296.444118 531.7975) scale(0.16 -0.16)">
       <defs>
        <path id="DejaVuSans-34" d="M 2419 4116 
L 825 1625 
L 2419 1625 
L 2419 4116 
z
M 2253 4666 
L 3047 4666 
L 3047 1625 
L 3713 1625 
L 3713 1100 
L 3047 1100 
L 3047 0 
L 2419 0 
L 2419 1100 
L 313 1100 
L 313 1709 
L 2253 4666 
z
" transform="scale(0.015625)"/>
       </defs>
       <use xlink:href="#DejaVuSans-34"/>
       <use xlink:href="#DejaVuSans-2e" transform="translate(63.623047 0)"/>
       <use xlink:href="#DejaVuSans-30" transform="translate(95.410156 0)"/>
      </g>
     </g>
    </g>
    <g id="xtick_3">
     <g id="line2d_5">
      <path d="M 382.222158 512.64 
L 382.222158 69.12 
" clip-path="url(#pded2a462e3)" style="fill: none; stroke: #b0b0b0; stroke-width: 0.8; stroke-linecap: square"/>
     </g>
     <g id="line2d_6">
      <g>
       <use xlink:href="#me734fd7747" x="382.222158" y="512.64" style="stroke: #000000; stroke-width: 0.8"/>
      </g>
     </g>
     <g id="text_3">
      <!-- 8.0 -->
      <g transform="translate(369.499658 531.7975) scale(0.16 -0.16)">
       <defs>
        <path id="DejaVuSans-38" d="M 2034 2216 
Q 1584 2216 1326 1975 
Q 1069 1734 1069 1313 
Q 1069 891 1326 650 
Q 1584 409 2034 409 
Q 2484 409 2743 651 
Q 3003 894 3003 1313 
Q 3003 1734 2745 1975 
Q 2488 2216 2034 2216 
z
M 1403 2484 
Q 997 2584 770 2862 
Q 544 3141 544 3541 
Q 544 4100 942 4425 
Q 1341 4750 2034 4750 
Q 2731 4750 3128 4425 
Q 3525 4100 3525 3541 
Q 3525 3141 3298 2862 
Q 3072 2584 2669 2484 
Q 3125 2378 3379 2068 
Q 3634 1759 3634 1313 
Q 3634 634 3220 271 
Q 2806 -91 2034 -91 
Q 1263 -91 848 271 
Q 434 634 434 1313 
Q 434 1759 690 2068 
Q 947 2378 1403 2484 
z
M 1172 3481 
Q 1172 3119 1398 2916 
Q 1625 2713 2034 2713 
Q 2441 2713 2670 2916 
Q 2900 3119 2900 3481 
Q 2900 3844 2670 4047 
Q 2441 4250 2034 4250 
Q 1625 4250 1398 4047 
Q 1172 3844 1172 3481 
z
" transform="scale(0.015625)"/>
       </defs>
       <use xlink:href="#DejaVuSans-38"/>
       <use xlink:href="#DejaVuSans-2e" transform="translate(63.623047 0)"/>
       <use xlink:href="#DejaVuSans-30" transform="translate(95.410156 0)"/>
      </g>
     </g>
    </g>
    <g id="xtick_4">
     <g id="line2d_7">
      <path d="M 433.393159 512.64 
L 433.393159 69.12 
" clip-path="url(#pded2a462e3)" style="fill: none; stroke: #b0b0b0; stroke-width: 0.8; stroke-linecap: square"/>
     </g>
     <g id="line2d_8">
      <g>
       <use xlink:href="#me734fd7747" x="433.393159" y="512.64" style="stroke: #000000; stroke-width: 0.8"/>
      </g>
     </g>
     <g id="text_4">
      <!-- 13.0 -->
      <g transform="translate(415.580659 531.7975) scale(0.16 -0.16)">
       <defs>
        <path id="DejaVuSans-31" d="M 794 531 
L 1825 531 
L 1825 4091 
L 703 3866 
L 703 4441 
L 1819 4666 
L 2450 4666 
L 2450 531 
L 3481 531 
L 3481 0 
L 794 0 
L 794 531 
z
" transform="scale(0.015625)"/>
        <path id="DejaVuSans-33" d="M 2597 2516 
Q 3050 2419 3304 2112 
Q 3559 1806 3559 1356 
Q 3559 666 3084 287 
Q 2609 -91 1734 -91 
Q 1441 -91 1130 -33 
Q 819 25 488 141 
L 488 750 
Q 750 597 1062 519 
Q 1375 441 1716 441 
Q 2309 441 2620 675 
Q 2931 909 2931 1356 
Q 2931 1769 2642 2001 
Q 2353 2234 1838 2234 
L 1294 2234 
L 1294 2753 
L 1863 2753 
Q 2328 2753 2575 2939 
Q 2822 3125 2822 3475 
Q 2822 3834 2567 4026 
Q 2313 4219 1838 4219 
Q 1578 4219 1281 4162 
Q 984 4106 628 3988 
L 628 4550 
Q 988 4650 1302 4700 
Q 1616 4750 1894 4750 
Q 2613 4750 3031 4423 
Q 3450 4097 3450 3541 
Q 3450 3153 3228 2886 
Q 3006 2619 2597 2516 
z
" transform="scale(0.015625)"/>
       </defs>
       <use xlink:href="#DejaVuSans-31"/>
       <use xlink:href="#DejaVuSans-33" transform="translate(63.623047 0)"/>
       <use xlink:href="#DejaVuSans-2e" transform="translate(127.246094 0)"/>
       <use xlink:href="#DejaVuSans-30" transform="translate(159.033203 0)"/>
      </g>
     </g>
    </g>
    <g id="xtick_5">
     <g id="line2d_9">
      <path d="M 521.531079 512.64 
L 521.531079 69.12 
" clip-path="url(#pded2a462e3)" style="fill: none; stroke: #b0b0b0; stroke-width: 0.8; stroke-linecap: square"/>
     </g>
     <g id="line2d_10">
      <g>
       <use xlink:href="#me734fd7747" x="521.531079" y="512.64" style="stroke: #000000; stroke-width: 0.8"/>
      </g>
     </g>
     <g id="text_5">
      <!-- 30.0 -->
      <g transform="translate(503.718579 531.7975) scale(0.16 -0.16)">
       <use xlink:href="#DejaVuSans-33"/>
       <use xlink:href="#DejaVuSans-30" transform="translate(63.623047 0)"/>
       <use xlink:href="#DejaVuSans-2e" transform="translate(127.246094 0)"/>
       <use xlink:href="#DejaVuSans-30" transform="translate(159.033203 0)"/>
      </g>
     </g>
    </g>
    <g id="xtick_6">
     <g id="line2d_11">
      <path d="M 624.907407 512.64 
L 624.907407 69.12 
" clip-path="url(#pded2a462e3)" style="fill: none; stroke: #b0b0b0; stroke-width: 0.8; stroke-linecap: square"/>
     </g>
     <g id="line2d_12">
      <g>
       <use xlink:href="#me734fd7747" x="624.907407" y="512.64" style="stroke: #000000; stroke-width: 0.8"/>
      </g>
     </g>
     <g id="text_6">
      <!-- 80.0 -->
      <g transform="translate(607.094907 531.7975) scale(0.16 -0.16)">
       <use xlink:href="#DejaVuSans-38"/>
       <use xlink:href="#DejaVuSans-30" transform="translate(63.623047 0)"/>
       <use xlink:href="#DejaVuSans-2e" transform="translate(127.246094 0)"/>
       <use xlink:href="#DejaVuSans-30" transform="translate(159.033203 0)"/>
      </g>
     </g>
    </g>
    <g id="xtick_7">
     <g id="line2d_13">
      <defs>
       <path id="m7010e89be6" d="M 0 0 
L 0 2 
" style="stroke: #000000; stroke-width: 0.6"/>
      </defs>
      <g>
       <use xlink:href="#m7010e89be6" x="109.21612" y="512.64" style="stroke: #000000; stroke-width: 0.6"/>
      </g>
     </g>
    </g>
    <g id="xtick_8">
     <g id="line2d_14">
      <g>
       <use xlink:href="#m7010e89be6" x="125.463119" y="512.64" style="stroke: #000000; stroke-width: 0.6"/>
      </g>
     </g>
    </g>
    <g id="xtick_9">
     <g id="line2d_15">
      <g>
       <use xlink:href="#m7010e89be6" x="139.536909" y="512.64" style="stroke: #000000; stroke-width: 0.6"/>
      </g>
     </g>
    </g>
    <g id="xtick_10">
     <g id="line2d_16">
      <g>
       <use xlink:href="#m7010e89be6" x="151.950871" y="512.64" style="stroke: #000000; stroke-width: 0.6"/>
      </g>
     </g>
    </g>
    <g id="xtick_11">
     <g id="line2d_17">
      <g>
       <use xlink:href="#m7010e89be6" x="236.111079" y="512.64" style="stroke: #000000; stroke-width: 0.6"/>
      </g>
     </g>
    </g>
    <g id="xtick_12">
     <g id="line2d_18">
      <g>
       <use xlink:href="#m7010e89be6" x="278.84583" y="512.64" style="stroke: #000000; stroke-width: 0.6"/>
      </g>
     </g>
    </g>
    <g id="xtick_13">
     <g id="line2d_19">
      <g>
       <use xlink:href="#m7010e89be6" x="332.685249" y="512.64" style="stroke: #000000; stroke-width: 0.6"/>
      </g>
     </g>
    </g>
    <g id="xtick_14">
     <g id="line2d_20">
      <g>
       <use xlink:href="#m7010e89be6" x="351.901369" y="512.64" style="stroke: #000000; stroke-width: 0.6"/>
      </g>
     </g>
    </g>
    <g id="xtick_15">
     <g id="line2d_21">
      <g>
       <use xlink:href="#m7010e89be6" x="368.148368" y="512.64" style="stroke: #000000; stroke-width: 0.6"/>
      </g>
     </g>
    </g>
    <g id="xtick_16">
     <g id="line2d_22">
      <g>
       <use xlink:href="#m7010e89be6" x="394.63612" y="512.64" style="stroke: #000000; stroke-width: 0.6"/>
      </g>
     </g>
    </g>
    <g id="xtick_17">
     <g id="line2d_23">
      <g>
       <use xlink:href="#m7010e89be6" x="478.796328" y="512.64" style="stroke: #000000; stroke-width: 0.6"/>
      </g>
     </g>
    </g>
    <g id="xtick_18">
     <g id="line2d_24">
      <g>
       <use xlink:href="#m7010e89be6" x="551.851867" y="512.64" style="stroke: #000000; stroke-width: 0.6"/>
      </g>
     </g>
    </g>
    <g id="xtick_19">
     <g id="line2d_25">
      <g>
       <use xlink:href="#m7010e89be6" x="575.370498" y="512.64" style="stroke: #000000; stroke-width: 0.6"/>
      </g>
     </g>
    </g>
    <g id="xtick_20">
     <g id="line2d_26">
      <g>
       <use xlink:href="#m7010e89be6" x="594.586618" y="512.64" style="stroke: #000000; stroke-width: 0.6"/>
      </g>
     </g>
    </g>
    <g id="xtick_21">
     <g id="line2d_27">
      <g>
       <use xlink:href="#m7010e89be6" x="610.833617" y="512.64" style="stroke: #000000; stroke-width: 0.6"/>
      </g>
     </g>
    </g>
    <g id="xtick_22">
     <g id="line2d_28">
      <g>
       <use xlink:href="#m7010e89be6" x="637.321369" y="512.64" style="stroke: #000000; stroke-width: 0.6"/>
      </g>
     </g>
    </g>
    <g id="text_7">
     <!-- Frequency -->
     <g transform="translate(327.6725 551.2825) scale(0.16 -0.16)">
      <defs>
       <path id="DejaVuSans-46" d="M 628 4666 
L 3309 4666 
L 3309 4134 
L 1259 4134 
L 1259 2759 
L 3109 2759 
L 3109 2228 
L 1259 2228 
L 1259 0 
L 628 0 
L 628 4666 
z
" transform="scale(0.015625)"/>
       <path id="DejaVuSans-72" d="M 2631 2963 
Q 2534 3019 2420 3045 
Q 2306 3072 2169 3072 
Q 1681 3072 1420 2755 
Q 1159 2438 1159 1844 
L 1159 0 
L 581 0 
L 581 3500 
L 1159 3500 
L 1159 2956 
Q 1341 3275 1631 3429 
Q 1922 3584 2338 3584 
Q 2397 3584 2469 3576 
Q 2541 3569 2628 3553 
L 2631 2963 
z
" transform="scale(0.015625)"/>
       <path id="DejaVuSans-65" d="M 3597 1894 
L 3597 1613 
L 953 1613 
Q 991 1019 1311 708 
Q 1631 397 2203 397 
Q 2534 397 2845 478 
Q 3156 559 3463 722 
L 3463 178 
Q 3153 47 2828 -22 
Q 2503 -91 2169 -91 
Q 1331 -91 842 396 
Q 353 884 353 1716 
Q 353 2575 817 3079 
Q 1281 3584 2069 3584 
Q 2775 3584 3186 3129 
Q 3597 2675 3597 1894 
z
M 3022 2063 
Q 3016 2534 2758 2815 
Q 2500 3097 2075 3097 
Q 1594 3097 1305 2825 
Q 1016 2553 972 2059 
L 3022 2063 
z
" transform="scale(0.015625)"/>
       <path id="DejaVuSans-71" d="M 947 1747 
Q 947 1113 1208 752 
Q 1469 391 1925 391 
Q 2381 391 2643 752 
Q 2906 1113 2906 1747 
Q 2906 2381 2643 2742 
Q 2381 3103 1925 3103 
Q 1469 3103 1208 2742 
Q 947 2381 947 1747 
z
M 2906 525 
Q 2725 213 2448 61 
Q 2172 -91 1784 -91 
Q 1150 -91 751 415 
Q 353 922 353 1747 
Q 353 2572 751 3078 
Q 1150 3584 1784 3584 
Q 2172 3584 2448 3432 
Q 2725 3281 2906 2969 
L 2906 3500 
L 3481 3500 
L 3481 -1331 
L 2906 -1331 
L 2906 525 
z
" transform="scale(0.015625)"/>
       <path id="DejaVuSans-75" d="M 544 1381 
L 544 3500 
L 1119 3500 
L 1119 1403 
Q 1119 906 1312 657 
Q 1506 409 1894 409 
Q 2359 409 2629 706 
Q 2900 1003 2900 1516 
L 2900 3500 
L 3475 3500 
L 3475 0 
L 2900 0 
L 2900 538 
Q 2691 219 2414 64 
Q 2138 -91 1772 -91 
Q 1169 -91 856 284 
Q 544 659 544 1381 
z
M 1991 3584 
L 1991 3584 
z
" transform="scale(0.015625)"/>
       <path id="DejaVuSans-6e" d="M 3513 2113 
L 3513 0 
L 2938 0 
L 2938 2094 
Q 2938 2591 2744 2837 
Q 2550 3084 2163 3084 
Q 1697 3084 1428 2787 
Q 1159 2491 1159 1978 
L 1159 0 
L 581 0 
L 581 3500 
L 1159 3500 
L 1159 2956 
Q 1366 3272 1645 3428 
Q 1925 3584 2291 3584 
Q 2894 3584 3203 3211 
Q 3513 2838 3513 2113 
z
" transform="scale(0.015625)"/>
       <path id="DejaVuSans-63" d="M 3122 3366 
L 3122 2828 
Q 2878 2963 2633 3030 
Q 2388 3097 2138 3097 
Q 1578 3097 1268 2742 
Q 959 2388 959 1747 
Q 959 1106 1268 751 
Q 1578 397 2138 397 
Q 2388 397 2633 464 
Q 2878 531 3122 666 
L 3122 134 
Q 2881 22 2623 -34 
Q 2366 -91 2075 -91 
Q 1284 -91 818 406 
Q 353 903 353 1747 
Q 353 2603 823 3093 
Q 1294 3584 2113 3584 
Q 2378 3584 2631 3529 
Q 2884 3475 3122 3366 
z
" transform="scale(0.015625)"/>
       <path id="DejaVuSans-79" d="M 2059 -325 
Q 1816 -950 1584 -1140 
Q 1353 -1331 966 -1331 
L 506 -1331 
L 506 -850 
L 844 -850 
Q 1081 -850 1212 -737 
Q 1344 -625 1503 -206 
L 1606 56 
L 191 3500 
L 800 3500 
L 1894 763 
L 2988 3500 
L 3597 3500 
L 2059 -325 
z
" transform="scale(0.015625)"/>
      </defs>
      <use xlink:href="#DejaVuSans-46"/>
      <use xlink:href="#DejaVuSans-72" transform="translate(50.269531 0)"/>
      <use xlink:href="#DejaVuSans-65" transform="translate(89.132812 0)"/>
      <use xlink:href="#DejaVuSans-71" transform="translate(150.65625 0)"/>
      <use xlink:href="#DejaVuSans-75" transform="translate(214.132812 0)"/>
      <use xlink:href="#DejaVuSans-65" transform="translate(277.511719 0)"/>
      <use xlink:href="#DejaVuSans-6e" transform="translate(339.035156 0)"/>
      <use xlink:href="#DejaVuSans-63" transform="translate(402.414062 0)"/>
      <use xlink:href="#DejaVuSans-79" transform="translate(457.394531 0)"/>
     </g>
    </g>
   </g>
   <g id="matplotlib.axis_2">
    <g id="ytick_1">
     <g id="line2d_29">
      <path d="M 90 413.638966 
L 648 413.638966 
" clip-path="url(#pded2a462e3)" style="fill: none; stroke: #b0b0b0; stroke-width: 0.8; stroke-linecap: square"/>
     </g>
     <g id="line2d_30">
      <defs>
       <path id="mf7b3966644" d="M 0 0 
L -3.5 0 
" style="stroke: #000000; stroke-width: 0.8"/>
      </defs>
      <g>
       <use xlink:href="#mf7b3966644" x="90" y="413.638966" style="stroke: #000000; stroke-width: 0.8"/>
      </g>
     </g>
     <g id="text_8">
      <!-- $\mathdefault{10^{-3}}$ -->
      <g transform="translate(45.4 419.717716) scale(0.16 -0.16)">
       <defs>
        <path id="DejaVuSans-2212" d="M 678 2272 
L 4684 2272 
L 4684 1741 
L 678 1741 
L 678 2272 
z
" transform="scale(0.015625)"/>
       </defs>
       <use xlink:href="#DejaVuSans-31" transform="translate(0 0.765625)"/>
       <use xlink:href="#DejaVuSans-30" transform="translate(63.623047 0.765625)"/>
       <use xlink:href="#DejaVuSans-2212" transform="translate(128.203125 39.046875) scale(0.7)"/>
       <use xlink:href="#DejaVuSans-33" transform="translate(186.855469 39.046875) scale(0.7)"/>
      </g>
     </g>
    </g>
    <g id="ytick_2">
     <g id="line2d_31">
      <path d="M 90 297.637587 
L 648 297.637587 
" clip-path="url(#pded2a462e3)" style="fill: none; stroke: #b0b0b0; stroke-width: 0.8; stroke-linecap: square"/>
     </g>
     <g id="line2d_32">
      <g>
       <use xlink:href="#mf7b3966644" x="90" y="297.637587" style="stroke: #000000; stroke-width: 0.8"/>
      </g>
     </g>
     <g id="text_9">
      <!-- $\mathdefault{10^{-2}}$ -->
      <g transform="translate(45.4 303.716337) scale(0.16 -0.16)">
       <defs>
        <path id="DejaVuSans-32" d="M 1228 531 
L 3431 531 
L 3431 0 
L 469 0 
L 469 531 
Q 828 903 1448 1529 
Q 2069 2156 2228 2338 
Q 2531 2678 2651 2914 
Q 2772 3150 2772 3378 
Q 2772 3750 2511 3984 
Q 2250 4219 1831 4219 
Q 1534 4219 1204 4116 
Q 875 4013 500 3803 
L 500 4441 
Q 881 4594 1212 4672 
Q 1544 4750 1819 4750 
Q 2544 4750 2975 4387 
Q 3406 4025 3406 3419 
Q 3406 3131 3298 2873 
Q 3191 2616 2906 2266 
Q 2828 2175 2409 1742 
Q 1991 1309 1228 531 
z
" transform="scale(0.015625)"/>
       </defs>
       <use xlink:href="#DejaVuSans-31" transform="translate(0 0.765625)"/>
       <use xlink:href="#DejaVuSans-30" transform="translate(63.623047 0.765625)"/>
       <use xlink:href="#DejaVuSans-2212" transform="translate(128.203125 39.046875) scale(0.7)"/>
       <use xlink:href="#DejaVuSans-32" transform="translate(186.855469 39.046875) scale(0.7)"/>
      </g>
     </g>
    </g>
    <g id="ytick_3">
     <g id="line2d_33">
      <path d="M 90 181.636208 
L 648 181.636208 
" clip-path="url(#pded2a462e3)" style="fill: none; stroke: #b0b0b0; stroke-width: 0.8; stroke-linecap: square"/>
     </g>
     <g id="line2d_34">
      <g>
       <use xlink:href="#mf7b3966644" x="90" y="181.636208" style="stroke: #000000; stroke-width: 0.8"/>
      </g>
     </g>
     <g id="text_10">
      <!-- $\mathdefault{10^{-1}}$ -->
      <g transform="translate(45.4 187.714958) scale(0.16 -0.16)">
       <use xlink:href="#DejaVuSans-31" transform="translate(0 0.684375)"/>
       <use xlink:href="#DejaVuSans-30" transform="translate(63.623047 0.684375)"/>
       <use xlink:href="#DejaVuSans-2212" transform="translate(128.203125 38.965625) scale(0.7)"/>
       <use xlink:href="#DejaVuSans-31" transform="translate(186.855469 38.965625) scale(0.7)"/>
      </g>
     </g>
    </g>
    <g id="ytick_4">
     <g id="line2d_35">
      <defs>
       <path id="md2d0308536" d="M 0 0 
L -2 0 
" style="stroke: #000000; stroke-width: 0.6"/>
      </defs>
      <g>
       <use xlink:href="#md2d0308536" x="90" y="494.72045" style="stroke: #000000; stroke-width: 0.6"/>
      </g>
     </g>
    </g>
    <g id="ytick_5">
     <g id="line2d_36">
      <g>
       <use xlink:href="#md2d0308536" x="90" y="474.293621" style="stroke: #000000; stroke-width: 0.6"/>
      </g>
     </g>
    </g>
    <g id="ytick_6">
     <g id="line2d_37">
      <g>
       <use xlink:href="#md2d0308536" x="90" y="459.800556" style="stroke: #000000; stroke-width: 0.6"/>
      </g>
     </g>
    </g>
    <g id="ytick_7">
     <g id="line2d_38">
      <g>
       <use xlink:href="#md2d0308536" x="90" y="448.558861" style="stroke: #000000; stroke-width: 0.6"/>
      </g>
     </g>
    </g>
    <g id="ytick_8">
     <g id="line2d_39">
      <g>
       <use xlink:href="#md2d0308536" x="90" y="439.373727" style="stroke: #000000; stroke-width: 0.6"/>
      </g>
     </g>
    </g>
    <g id="ytick_9">
     <g id="line2d_40">
      <g>
       <use xlink:href="#md2d0308536" x="90" y="431.607807" style="stroke: #000000; stroke-width: 0.6"/>
      </g>
     </g>
    </g>
    <g id="ytick_10">
     <g id="line2d_41">
      <g>
       <use xlink:href="#md2d0308536" x="90" y="424.880661" style="stroke: #000000; stroke-width: 0.6"/>
      </g>
     </g>
    </g>
    <g id="ytick_11">
     <g id="line2d_42">
      <g>
       <use xlink:href="#md2d0308536" x="90" y="418.946898" style="stroke: #000000; stroke-width: 0.6"/>
      </g>
     </g>
    </g>
    <g id="ytick_12">
     <g id="line2d_43">
      <g>
       <use xlink:href="#md2d0308536" x="90" y="378.719071" style="stroke: #000000; stroke-width: 0.6"/>
      </g>
     </g>
    </g>
    <g id="ytick_13">
     <g id="line2d_44">
      <g>
       <use xlink:href="#md2d0308536" x="90" y="358.292243" style="stroke: #000000; stroke-width: 0.6"/>
      </g>
     </g>
    </g>
    <g id="ytick_14">
     <g id="line2d_45">
      <g>
       <use xlink:href="#md2d0308536" x="90" y="343.799177" style="stroke: #000000; stroke-width: 0.6"/>
      </g>
     </g>
    </g>
    <g id="ytick_15">
     <g id="line2d_46">
      <g>
       <use xlink:href="#md2d0308536" x="90" y="332.557482" style="stroke: #000000; stroke-width: 0.6"/>
      </g>
     </g>
    </g>
    <g id="ytick_16">
     <g id="line2d_47">
      <g>
       <use xlink:href="#md2d0308536" x="90" y="323.372348" style="stroke: #000000; stroke-width: 0.6"/>
      </g>
     </g>
    </g>
    <g id="ytick_17">
     <g id="line2d_48">
      <g>
       <use xlink:href="#md2d0308536" x="90" y="315.606428" style="stroke: #000000; stroke-width: 0.6"/>
      </g>
     </g>
    </g>
    <g id="ytick_18">
     <g id="line2d_49">
      <g>
       <use xlink:href="#md2d0308536" x="90" y="308.879282" style="stroke: #000000; stroke-width: 0.6"/>
      </g>
     </g>
    </g>
    <g id="ytick_19">
     <g id="line2d_50">
      <g>
       <use xlink:href="#md2d0308536" x="90" y="302.945519" style="stroke: #000000; stroke-width: 0.6"/>
      </g>
     </g>
    </g>
    <g id="ytick_20">
     <g id="line2d_51">
      <g>
       <use xlink:href="#md2d0308536" x="90" y="262.717693" style="stroke: #000000; stroke-width: 0.6"/>
      </g>
     </g>
    </g>
    <g id="ytick_21">
     <g id="line2d_52">
      <g>
       <use xlink:href="#md2d0308536" x="90" y="242.290864" style="stroke: #000000; stroke-width: 0.6"/>
      </g>
     </g>
    </g>
    <g id="ytick_22">
     <g id="line2d_53">
      <g>
       <use xlink:href="#md2d0308536" x="90" y="227.797798" style="stroke: #000000; stroke-width: 0.6"/>
      </g>
     </g>
    </g>
    <g id="ytick_23">
     <g id="line2d_54">
      <g>
       <use xlink:href="#md2d0308536" x="90" y="216.556103" style="stroke: #000000; stroke-width: 0.6"/>
      </g>
     </g>
    </g>
    <g id="ytick_24">
     <g id="line2d_55">
      <g>
       <use xlink:href="#md2d0308536" x="90" y="207.370969" style="stroke: #000000; stroke-width: 0.6"/>
      </g>
     </g>
    </g>
    <g id="ytick_25">
     <g id="line2d_56">
      <g>
       <use xlink:href="#md2d0308536" x="90" y="199.605049" style="stroke: #000000; stroke-width: 0.6"/>
      </g>
     </g>
    </g>
    <g id="ytick_26">
     <g id="line2d_57">
      <g>
       <use xlink:href="#md2d0308536" x="90" y="192.877904" style="stroke: #000000; stroke-width: 0.6"/>
      </g>
     </g>
    </g>
    <g id="ytick_27">
     <g id="line2d_58">
      <g>
       <use xlink:href="#md2d0308536" x="90" y="186.94414" style="stroke: #000000; stroke-width: 0.6"/>
      </g>
     </g>
    </g>
    <g id="ytick_28">
     <g id="line2d_59">
      <g>
       <use xlink:href="#md2d0308536" x="90" y="146.716314" style="stroke: #000000; stroke-width: 0.6"/>
      </g>
     </g>
    </g>
    <g id="ytick_29">
     <g id="line2d_60">
      <g>
       <use xlink:href="#md2d0308536" x="90" y="126.289485" style="stroke: #000000; stroke-width: 0.6"/>
      </g>
     </g>
    </g>
    <g id="ytick_30">
     <g id="line2d_61">
      <g>
       <use xlink:href="#md2d0308536" x="90" y="111.796419" style="stroke: #000000; stroke-width: 0.6"/>
      </g>
     </g>
    </g>
    <g id="ytick_31">
     <g id="line2d_62">
      <g>
       <use xlink:href="#md2d0308536" x="90" y="100.554724" style="stroke: #000000; stroke-width: 0.6"/>
      </g>
     </g>
    </g>
    <g id="ytick_32">
     <g id="line2d_63">
      <g>
       <use xlink:href="#md2d0308536" x="90" y="91.369591" style="stroke: #000000; stroke-width: 0.6"/>
      </g>
     </g>
    </g>
    <g id="ytick_33">
     <g id="line2d_64">
      <g>
       <use xlink:href="#md2d0308536" x="90" y="83.603671" style="stroke: #000000; stroke-width: 0.6"/>
      </g>
     </g>
    </g>
    <g id="ytick_34">
     <g id="line2d_65">
      <g>
       <use xlink:href="#md2d0308536" x="90" y="76.876525" style="stroke: #000000; stroke-width: 0.6"/>
      </g>
     </g>
    </g>
    <g id="ytick_35">
     <g id="line2d_66">
      <g>
       <use xlink:href="#md2d0308536" x="90" y="70.942762" style="stroke: #000000; stroke-width: 0.6"/>
      </g>
     </g>
    </g>
    <g id="text_11">
     <!-- Normalized spectral density -->
     <g transform="translate(38.0725 402.78375) rotate(-90) scale(0.16 -0.16)">
      <defs>
       <path id="DejaVuSans-4e" d="M 628 4666 
L 1478 4666 
L 3547 763 
L 3547 4666 
L 4159 4666 
L 4159 0 
L 3309 0 
L 1241 3903 
L 1241 0 
L 628 0 
L 628 4666 
z
" transform="scale(0.015625)"/>
       <path id="DejaVuSans-6f" d="M 1959 3097 
Q 1497 3097 1228 2736 
Q 959 2375 959 1747 
Q 959 1119 1226 758 
Q 1494 397 1959 397 
Q 2419 397 2687 759 
Q 2956 1122 2956 1747 
Q 2956 2369 2687 2733 
Q 2419 3097 1959 3097 
z
M 1959 3584 
Q 2709 3584 3137 3096 
Q 3566 2609 3566 1747 
Q 3566 888 3137 398 
Q 2709 -91 1959 -91 
Q 1206 -91 779 398 
Q 353 888 353 1747 
Q 353 2609 779 3096 
Q 1206 3584 1959 3584 
z
" transform="scale(0.015625)"/>
       <path id="DejaVuSans-6d" d="M 3328 2828 
Q 3544 3216 3844 3400 
Q 4144 3584 4550 3584 
Q 5097 3584 5394 3201 
Q 5691 2819 5691 2113 
L 5691 0 
L 5113 0 
L 5113 2094 
Q 5113 2597 4934 2840 
Q 4756 3084 4391 3084 
Q 3944 3084 3684 2787 
Q 3425 2491 3425 1978 
L 3425 0 
L 2847 0 
L 2847 2094 
Q 2847 2600 2669 2842 
Q 2491 3084 2119 3084 
Q 1678 3084 1418 2786 
Q 1159 2488 1159 1978 
L 1159 0 
L 581 0 
L 581 3500 
L 1159 3500 
L 1159 2956 
Q 1356 3278 1631 3431 
Q 1906 3584 2284 3584 
Q 2666 3584 2933 3390 
Q 3200 3197 3328 2828 
z
" transform="scale(0.015625)"/>
       <path id="DejaVuSans-61" d="M 2194 1759 
Q 1497 1759 1228 1600 
Q 959 1441 959 1056 
Q 959 750 1161 570 
Q 1363 391 1709 391 
Q 2188 391 2477 730 
Q 2766 1069 2766 1631 
L 2766 1759 
L 2194 1759 
z
M 3341 1997 
L 3341 0 
L 2766 0 
L 2766 531 
Q 2569 213 2275 61 
Q 1981 -91 1556 -91 
Q 1019 -91 701 211 
Q 384 513 384 1019 
Q 384 1609 779 1909 
Q 1175 2209 1959 2209 
L 2766 2209 
L 2766 2266 
Q 2766 2663 2505 2880 
Q 2244 3097 1772 3097 
Q 1472 3097 1187 3025 
Q 903 2953 641 2809 
L 641 3341 
Q 956 3463 1253 3523 
Q 1550 3584 1831 3584 
Q 2591 3584 2966 3190 
Q 3341 2797 3341 1997 
z
" transform="scale(0.015625)"/>
       <path id="DejaVuSans-6c" d="M 603 4863 
L 1178 4863 
L 1178 0 
L 603 0 
L 603 4863 
z
" transform="scale(0.015625)"/>
       <path id="DejaVuSans-69" d="M 603 3500 
L 1178 3500 
L 1178 0 
L 603 0 
L 603 3500 
z
M 603 4863 
L 1178 4863 
L 1178 4134 
L 603 4134 
L 603 4863 
z
" transform="scale(0.015625)"/>
       <path id="DejaVuSans-7a" d="M 353 3500 
L 3084 3500 
L 3084 2975 
L 922 459 
L 3084 459 
L 3084 0 
L 275 0 
L 275 525 
L 2438 3041 
L 353 3041 
L 353 3500 
z
" transform="scale(0.015625)"/>
       <path id="DejaVuSans-64" d="M 2906 2969 
L 2906 4863 
L 3481 4863 
L 3481 0 
L 2906 0 
L 2906 525 
Q 2725 213 2448 61 
Q 2172 -91 1784 -91 
Q 1150 -91 751 415 
Q 353 922 353 1747 
Q 353 2572 751 3078 
Q 1150 3584 1784 3584 
Q 2172 3584 2448 3432 
Q 2725 3281 2906 2969 
z
M 947 1747 
Q 947 1113 1208 752 
Q 1469 391 1925 391 
Q 2381 391 2643 752 
Q 2906 1113 2906 1747 
Q 2906 2381 2643 2742 
Q 2381 3103 1925 3103 
Q 1469 3103 1208 2742 
Q 947 2381 947 1747 
z
" transform="scale(0.015625)"/>
       <path id="DejaVuSans-20" transform="scale(0.015625)"/>
       <path id="DejaVuSans-73" d="M 2834 3397 
L 2834 2853 
Q 2591 2978 2328 3040 
Q 2066 3103 1784 3103 
Q 1356 3103 1142 2972 
Q 928 2841 928 2578 
Q 928 2378 1081 2264 
Q 1234 2150 1697 2047 
L 1894 2003 
Q 2506 1872 2764 1633 
Q 3022 1394 3022 966 
Q 3022 478 2636 193 
Q 2250 -91 1575 -91 
Q 1294 -91 989 -36 
Q 684 19 347 128 
L 347 722 
Q 666 556 975 473 
Q 1284 391 1588 391 
Q 1994 391 2212 530 
Q 2431 669 2431 922 
Q 2431 1156 2273 1281 
Q 2116 1406 1581 1522 
L 1381 1569 
Q 847 1681 609 1914 
Q 372 2147 372 2553 
Q 372 3047 722 3315 
Q 1072 3584 1716 3584 
Q 2034 3584 2315 3537 
Q 2597 3491 2834 3397 
z
" transform="scale(0.015625)"/>
       <path id="DejaVuSans-70" d="M 1159 525 
L 1159 -1331 
L 581 -1331 
L 581 3500 
L 1159 3500 
L 1159 2969 
Q 1341 3281 1617 3432 
Q 1894 3584 2278 3584 
Q 2916 3584 3314 3078 
Q 3713 2572 3713 1747 
Q 3713 922 3314 415 
Q 2916 -91 2278 -91 
Q 1894 -91 1617 61 
Q 1341 213 1159 525 
z
M 3116 1747 
Q 3116 2381 2855 2742 
Q 2594 3103 2138 3103 
Q 1681 3103 1420 2742 
Q 1159 2381 1159 1747 
Q 1159 1113 1420 752 
Q 1681 391 2138 391 
Q 2594 391 2855 752 
Q 3116 1113 3116 1747 
z
" transform="scale(0.015625)"/>
       <path id="DejaVuSans-74" d="M 1172 4494 
L 1172 3500 
L 2356 3500 
L 2356 3053 
L 1172 3053 
L 1172 1153 
Q 1172 725 1289 603 
Q 1406 481 1766 481 
L 2356 481 
L 2356 0 
L 1766 0 
Q 1100 0 847 248 
Q 594 497 594 1153 
L 594 3053 
L 172 3053 
L 172 3500 
L 594 3500 
L 594 4494 
L 1172 4494 
z
" transform="scale(0.015625)"/>
      </defs>
      <use xlink:href="#DejaVuSans-4e"/>
      <use xlink:href="#DejaVuSans-6f" transform="translate(74.804688 0)"/>
      <use xlink:href="#DejaVuSans-72" transform="translate(135.986328 0)"/>
      <use xlink:href="#DejaVuSans-6d" transform="translate(175.349609 0)"/>
      <use xlink:href="#DejaVuSans-61" transform="translate(272.761719 0)"/>
      <use xlink:href="#DejaVuSans-6c" transform="translate(334.041016 0)"/>
      <use xlink:href="#DejaVuSans-69" transform="translate(361.824219 0)"/>
      <use xlink:href="#DejaVuSans-7a" transform="translate(389.607422 0)"/>
      <use xlink:href="#DejaVuSans-65" transform="translate(442.097656 0)"/>
      <use xlink:href="#DejaVuSans-64" transform="translate(503.621094 0)"/>
      <use xlink:href="#DejaVuSans-20" transform="translate(567.097656 0)"/>
      <use xlink:href="#DejaVuSans-73" transform="translate(598.884766 0)"/>
      <use xlink:href="#DejaVuSans-70" transform="translate(650.984375 0)"/>
      <use xlink:href="#DejaVuSans-65" transform="translate(714.460938 0)"/>
      <use xlink:href="#DejaVuSans-63" transform="translate(775.984375 0)"/>
      <use xlink:href="#DejaVuSans-74" transform="translate(830.964844 0)"/>
      <use xlink:href="#DejaVuSans-72" transform="translate(870.173828 0)"/>
      <use xlink:href="#DejaVuSans-61" transform="translate(911.287109 0)"/>
      <use xlink:href="#DejaVuSans-6c" transform="translate(972.566406 0)"/>
      <use xlink:href="#DejaVuSans-20" transform="translate(1000.349609 0)"/>
      <use xlink:href="#DejaVuSans-64" transform="translate(1032.136719 0)"/>
      <use xlink:href="#DejaVuSans-65" transform="translate(1095.613281 0)"/>
      <use xlink:href="#DejaVuSans-6e" transform="translate(1157.136719 0)"/>
      <use xlink:href="#DejaVuSans-73" transform="translate(1220.515625 0)"/>
      <use xlink:href="#DejaVuSans-69" transform="translate(1272.615234 0)"/>
      <use xlink:href="#DejaVuSans-74" transform="translate(1300.398438 0)"/>
      <use xlink:href="#DejaVuSans-79" transform="translate(1339.607422 0)"/>
     </g>
    </g>
   </g>
   <g id="line2d_67">
    <path d="M 163.055539 127.814763 
L 205.79029 138.076597 
L 236.111079 170.483809 
L 259.629709 187.218077 
L 278.84583 199.143471 
L 295.092828 212.428461 
L 309.166618 224.494543 
L 321.580581 232.176444 
L 332.685249 237.434295 
L 342.730643 242.538524 
L 351.901369 246.569593 
L 360.33762 247.109615 
L 368.148368 247.018024 
L 375.42 243.330685 
L 382.222158 247.890525 
L 388.611803 252.760688 
L 394.63612 255.729833 
L 400.334636 259.53374 
L 405.740788 260.804547 
L 410.883119 263.829062 
L 415.786182 265.761703 
L 420.471259 269.930687 
L 424.956909 277.783417 
L 429.259419 282.450545 
L 433.393159 287.49867 
L 437.370871 294.943364 
L 441.203907 295.197458 
L 448.475539 296.151294 
L 451.931484 293.630989 
L 455.277697 296.955121 
L 458.520933 296.960053 
L 461.667342 299.386135 
L 464.722538 301.223285 
L 467.69166 301.908065 
L 470.579426 303.339131 
L 473.390175 304.516249 
L 476.12791 305.212267 
L 478.796328 306.187073 
L 481.398852 306.16858 
L 483.938658 306.273957 
L 486.418699 309.689712 
L 488.841722 308.491222 
L 491.21029 310.146713 
L 493.526798 313.403639 
L 495.793485 315.475425 
L 500.185656 314.231783 
L 502.314958 315.825584 
L 504.402093 317.790842 
L 506.448699 317.635178 
L 510.426411 322.706952 
L 512.360353 323.702235 
L 514.259446 327.286842 
L 516.124926 325.607096 
L 517.957962 329.314424 
L 519.759661 332.182274 
L 521.531079 333.726675 
L 523.273215 334.905051 
L 524.987023 337.168136 
L 526.673409 336.839333 
L 528.333237 337.793497 
L 529.967329 339.134765 
L 531.576473 339.537693 
L 533.161418 342.919037 
L 534.722882 341.873051 
L 536.261549 343.469331 
L 537.778077 347.628471 
L 539.273093 346.420788 
L 540.747199 346.189222 
L 542.200972 348.031363 
L 543.634965 348.589599 
L 545.049709 347.694604 
L 547.823471 350.903618 
L 549.18345 352.473938 
L 550.526103 353.619017 
L 551.851867 351.709753 
L 553.161162 355.058769 
L 554.454391 353.985851 
L 555.731945 353.627301 
L 556.994198 353.093699 
L 558.241512 354.376887 
L 559.474238 355.069862 
L 560.692713 352.268812 
L 561.897261 353.828576 
L 563.088199 355.013972 
L 564.26583 356.523319 
L 565.430448 353.034268 
L 566.582338 354.667653 
L 567.721774 358.056938 
L 568.849024 356.806372 
L 569.964345 356.421888 
L 571.067988 357.420617 
L 572.160193 361.726797 
L 573.241196 368.114585 
L 574.311224 390.856205 
L 575.370498 451.747635 
L 576.419232 388.419576 
L 577.457633 364.395103 
L 578.485903 360.119935 
L 579.504238 360.26866 
L 580.512828 359.596542 
L 581.511858 358.734035 
L 582.501507 358.802563 
L 583.48195 355.847118 
L 584.453357 355.584982 
L 585.415892 360.323077 
L 586.369716 361.639703 
L 587.314986 361.941131 
L 588.251853 361.29391 
L 589.180466 362.574726 
L 591.013501 360.814797 
L 591.918201 359.154465 
L 592.815201 360.131563 
L 593.704631 358.513905 
L 594.586618 361.740447 
L 595.461286 360.801431 
L 596.328755 361.13008 
L 597.189142 363.250059 
L 598.042563 361.646379 
L 598.889128 363.340565 
L 599.728949 361.647249 
L 600.56213 363.190551 
L 601.388776 366.765056 
L 602.208989 363.28756 
L 603.022869 363.365802 
L 603.830511 366.525447 
L 604.632012 366.691745 
L 605.427464 364.089272 
L 606.216957 365.13875 
L 607.000581 365.157193 
L 607.778421 364.637494 
L 608.550563 365.130231 
L 609.317089 367.066039 
L 610.07808 367.838728 
L 610.833617 366.376468 
L 611.583775 366.440248 
L 612.328633 368.152593 
L 613.068263 369.096588 
L 614.532132 364.797279 
L 615.256512 367.993402 
L 615.975947 368.092879 
L 616.690505 368.391993 
L 617.40025 368.567867 
L 618.105249 368.866445 
L 618.805563 365.870527 
L 619.501254 368.851611 
L 620.192384 368.055771 
L 620.879011 370.493449 
L 621.561193 371.812573 
L 622.238989 366.295372 
L 622.912454 368.045217 
L 623.581642 369.403216 
L 624.246609 371.218118 
L 624.907407 385.958333 
L 624.907407 385.958333 
" clip-path="url(#pded2a462e3)" style="fill: none; stroke: #1f77b4; stroke-opacity: 0.5; stroke-width: 1.5; stroke-linecap: square"/>
   </g>
   <g id="line2d_68">
    <path d="M 163.055539 176.802471 
L 205.79029 182.059835 
L 236.111079 202.812127 
L 259.629709 217.009017 
L 278.84583 229.281143 
L 295.092828 241.469543 
L 309.166618 250.014747 
L 321.580581 255.50052 
L 332.685249 263.572762 
L 342.730643 267.287916 
L 351.901369 267.697134 
L 360.33762 270.251644 
L 368.148368 268.461636 
L 375.42 266.614836 
L 382.222158 268.583705 
L 388.611803 268.930417 
L 394.63612 270.079765 
L 400.334636 271.759902 
L 405.740788 270.22405 
L 410.883119 267.523119 
L 415.786182 265.249506 
L 420.471259 270.176733 
L 424.956909 274.391477 
L 429.259419 275.061601 
L 433.393159 276.324983 
L 437.370871 279.689612 
L 441.203907 281.35783 
L 444.902422 283.21918 
L 448.475539 288.229986 
L 451.931484 287.475862 
L 455.277697 284.13622 
L 464.722538 287.062076 
L 467.69166 287.383576 
L 470.579426 284.908565 
L 473.390175 284.487212 
L 476.12791 284.228507 
L 478.796328 281.164823 
L 481.398852 282.324828 
L 483.938658 283.227592 
L 486.418699 281.416768 
L 488.841722 284.365648 
L 491.21029 285.059539 
L 493.526798 285.925487 
L 495.793485 284.02632 
L 498.012448 286.593938 
L 500.185656 286.559201 
L 502.314958 289.149715 
L 504.402093 289.314797 
L 506.448699 289.032797 
L 508.456319 293.079914 
L 510.426411 293.812321 
L 512.360353 296.922513 
L 514.259446 299.33919 
L 516.124926 297.29765 
L 517.957962 298.016884 
L 521.531079 298.773176 
L 523.273215 297.426389 
L 524.987023 298.868019 
L 526.673409 299.14925 
L 528.333237 300.835737 
L 529.967329 302.066369 
L 533.161418 300.042208 
L 534.722882 299.940712 
L 536.261549 303.389213 
L 537.778077 302.925119 
L 539.273093 303.518291 
L 540.747199 305.343019 
L 542.200972 305.13646 
L 545.049709 303.481101 
L 546.445715 304.423601 
L 549.18345 305.276198 
L 550.526103 304.382211 
L 551.851867 302.777223 
L 553.161162 302.241485 
L 554.454391 307.212273 
L 555.731945 306.046587 
L 556.994198 303.925856 
L 558.241512 303.099987 
L 559.474238 304.275491 
L 560.692713 307.282852 
L 561.897261 307.773607 
L 563.088199 307.382239 
L 564.26583 305.332263 
L 565.430448 307.731084 
L 566.582338 305.313411 
L 567.721774 303.327382 
L 568.849024 302.504454 
L 569.964345 307.284027 
L 571.067988 309.547221 
L 572.160193 309.118682 
L 573.241196 314.450544 
L 574.311224 336.635372 
L 575.370498 397.34915 
L 576.419232 340.334595 
L 577.457633 317.079041 
L 578.485903 309.603862 
L 579.504238 312.268498 
L 580.512828 312.394253 
L 581.511858 311.719588 
L 582.501507 309.010374 
L 583.48195 307.31331 
L 584.453357 306.620742 
L 585.415892 311.252937 
L 586.369716 313.090561 
L 587.314986 312.058729 
L 588.251853 311.483523 
L 589.180466 313.645749 
L 590.100968 313.287872 
L 591.013501 313.33348 
L 591.918201 314.899516 
L 592.815201 312.143351 
L 593.704631 311.912217 
L 594.586618 311.204709 
L 595.461286 310.21763 
L 596.328755 311.735802 
L 597.189142 315.602352 
L 598.042563 316.449588 
L 598.889128 315.015734 
L 600.56213 313.884828 
L 601.388776 314.22823 
L 602.208989 314.035136 
L 603.022869 313.706284 
L 603.830511 313.054217 
L 604.632012 316.269573 
L 605.427464 316.238146 
L 606.216957 317.852177 
L 607.000581 318.519033 
L 607.778421 318.666446 
L 608.550563 316.325577 
L 609.317089 314.79214 
L 610.833617 320.845192 
L 611.583775 318.49995 
L 612.328633 320.949385 
L 613.068263 322.153133 
L 613.802739 321.080243 
L 614.532132 322.573083 
L 615.256512 322.983085 
L 617.40025 327.971806 
L 618.105249 327.897559 
L 618.805563 326.085059 
L 619.501254 326.27365 
L 620.192384 325.800715 
L 620.879011 330.143238 
L 621.561193 329.262595 
L 622.238989 327.225479 
L 622.912454 327.229053 
L 623.581642 330.116322 
L 624.246609 333.551373 
L 624.907407 347.61875 
L 624.907407 347.61875 
" clip-path="url(#pded2a462e3)" style="fill: none; stroke: #ff7f0e; stroke-opacity: 0.5; stroke-width: 1.5; stroke-linecap: square"/>
   </g>
   <g id="line2d_69">
    <path d="M 163.055539 192.930666 
L 205.79029 196.262176 
L 236.111079 217.700255 
L 259.629709 230.658485 
L 278.84583 239.946709 
L 295.092828 245.924988 
L 321.580581 260.339222 
L 332.685249 260.344618 
L 342.730643 267.672817 
L 351.901369 269.917811 
L 360.33762 267.640636 
L 368.148368 265.140942 
L 375.42 256.387131 
L 382.222158 250.425953 
L 388.611803 242.063324 
L 394.63612 227.255243 
L 400.334636 206.41946 
L 405.740788 183.739451 
L 410.883119 151.456374 
L 415.786182 138.933894 
L 420.471259 165.328837 
L 424.956909 207.486434 
L 429.259419 233.07016 
L 433.393159 263.182385 
L 437.370871 274.245132 
L 441.203907 285.302852 
L 444.902422 290.519074 
L 448.475539 297.404488 
L 451.931484 300.104271 
L 455.277697 303.697094 
L 458.520933 301.50051 
L 461.667342 301.369039 
L 464.722538 305.621083 
L 467.69166 304.685413 
L 470.579426 301.244101 
L 473.390175 299.27008 
L 476.12791 298.01514 
L 478.796328 296.539434 
L 481.398852 291.91696 
L 483.938658 290.006223 
L 486.418699 287.17224 
L 488.841722 289.162882 
L 491.21029 299.375912 
L 493.526798 308.350682 
L 495.793485 314.574428 
L 498.012448 326.71247 
L 500.185656 332.258718 
L 502.314958 336.790364 
L 504.402093 344.388705 
L 506.448699 346.851262 
L 508.456319 347.950124 
L 510.426411 351.091862 
L 512.360353 348.922816 
L 514.259446 350.663271 
L 516.124926 357.341186 
L 517.957962 356.417442 
L 519.759661 356.570369 
L 521.531079 360.293288 
L 523.273215 354.608475 
L 524.987023 356.341263 
L 526.673409 360.32224 
L 528.333237 357.972757 
L 531.576473 362.288716 
L 533.161418 363.763388 
L 534.722882 366.320448 
L 536.261549 366.853065 
L 537.778077 368.462421 
L 539.273093 371.121961 
L 540.747199 375.51374 
L 542.200972 377.145766 
L 543.634965 376.06726 
L 545.049709 374.379383 
L 546.445715 379.494959 
L 547.823471 380.91391 
L 549.18345 379.921971 
L 550.526103 379.628156 
L 551.851867 381.010957 
L 553.161162 381.056382 
L 554.454391 387.930655 
L 555.731945 386.58051 
L 556.994198 382.494917 
L 558.241512 383.97355 
L 559.474238 382.387781 
L 560.692713 386.496193 
L 561.897261 385.080676 
L 563.088199 385.935252 
L 564.26583 387.191015 
L 565.430448 388.130767 
L 566.582338 387.162172 
L 567.721774 385.467842 
L 568.849024 387.766018 
L 569.964345 388.101657 
L 571.067988 389.13788 
L 572.160193 388.70049 
L 573.241196 397.938242 
L 574.311224 422.864007 
L 575.370498 479.245302 
L 576.419232 423.142749 
L 577.457633 401.923621 
L 578.485903 399.938154 
L 579.504238 395.095792 
L 580.512828 393.103128 
L 581.511858 392.843084 
L 582.501507 394.635921 
L 583.48195 393.626092 
L 584.453357 388.530407 
L 585.415892 393.167897 
L 586.369716 394.773969 
L 587.314986 389.636861 
L 588.251853 393.403586 
L 589.180466 397.685614 
L 590.100968 397.009849 
L 591.013501 394.835441 
L 591.918201 401.735795 
L 592.815201 401.620316 
L 593.704631 399.063043 
L 594.586618 400.707421 
L 595.461286 395.893765 
L 596.328755 395.882953 
L 597.189142 399.136869 
L 598.042563 398.707063 
L 598.889128 399.703188 
L 599.728949 397.773939 
L 600.56213 397.799715 
L 601.388776 398.949307 
L 602.208989 401.395645 
L 603.022869 399.773465 
L 603.830511 399.704398 
L 604.632012 398.997951 
L 605.427464 403.025354 
L 606.216957 397.864462 
L 607.000581 400.198956 
L 607.778421 402.067918 
L 608.550563 402.777952 
L 609.317089 401.440454 
L 610.07808 410.014303 
L 610.833617 402.55176 
L 611.583775 404.216961 
L 612.328633 405.510728 
L 613.068263 401.714294 
L 613.802739 406.27783 
L 614.532132 408.021854 
L 615.256512 404.073747 
L 615.975947 405.578927 
L 616.690505 410.109793 
L 617.40025 406.515009 
L 618.105249 405.365057 
L 618.805563 409.765499 
L 619.501254 403.659082 
L 620.192384 404.948418 
L 620.879011 406.56072 
L 621.561193 405.727833 
L 622.238989 406.208211 
L 622.912454 405.877711 
L 623.581642 409.528904 
L 624.246609 410.343995 
L 624.907407 423.188253 
L 624.907407 423.188253 
" clip-path="url(#pded2a462e3)" style="fill: none; stroke: #2ca02c; stroke-opacity: 0.5; stroke-width: 1.5; stroke-linecap: square"/>
   </g>
   <g id="line2d_70">
    <path d="M 163.055539 191.977043 
L 205.79029 198.53129 
L 236.111079 221.424859 
L 259.629709 235.072029 
L 278.84583 245.707262 
L 295.092828 261.038325 
L 309.166618 263.342219 
L 321.580581 265.645528 
L 332.685249 267.842857 
L 342.730643 262.723722 
L 351.901369 261.372414 
L 360.33762 251.14383 
L 368.148368 244.865418 
L 375.42 231.800284 
L 382.222158 193.293279 
L 388.611803 163.772469 
L 394.63612 147.428221 
L 400.334636 138.321628 
L 405.740788 163.820288 
L 410.883119 197.278103 
L 415.786182 227.620057 
L 420.471259 252.460405 
L 424.956909 267.606524 
L 429.259419 278.604961 
L 433.393159 287.431337 
L 437.370871 295.365936 
L 441.203907 299.578356 
L 444.902422 300.951224 
L 448.475539 296.732782 
L 451.931484 298.160285 
L 455.277697 297.942625 
L 458.520933 299.677423 
L 461.667342 294.194708 
L 464.722538 292.913651 
L 467.69166 288.706174 
L 470.579426 288.245497 
L 473.390175 292.347921 
L 478.796328 310.216798 
L 481.398852 316.558956 
L 483.938658 322.363525 
L 486.418699 322.718992 
L 488.841722 323.731248 
L 491.21029 330.029822 
L 493.526798 330.452743 
L 495.793485 330.99371 
L 498.012448 334.247148 
L 500.185656 335.39884 
L 502.314958 339.19219 
L 504.402093 338.999965 
L 506.448699 339.921255 
L 510.426411 348.554111 
L 512.360353 347.467454 
L 514.259446 346.226047 
L 516.124926 350.376364 
L 517.957962 356.556237 
L 519.759661 357.738751 
L 521.531079 356.980998 
L 523.273215 360.695998 
L 524.987023 362.830674 
L 526.673409 366.570607 
L 528.333237 367.585741 
L 529.967329 371.248829 
L 531.576473 369.57785 
L 533.161418 370.118109 
L 536.261549 372.991792 
L 537.778077 378.543117 
L 539.273093 378.580325 
L 540.747199 378.126951 
L 542.200972 378.800681 
L 543.634965 376.603735 
L 545.049709 379.538186 
L 546.445715 377.935719 
L 547.823471 383.130285 
L 550.526103 379.030722 
L 551.851867 380.824656 
L 553.161162 381.521122 
L 554.454391 383.266606 
L 555.731945 383.34228 
L 556.994198 381.451895 
L 558.241512 381.150664 
L 559.474238 385.524521 
L 560.692713 385.970824 
L 561.897261 386.818994 
L 563.088199 384.669561 
L 564.26583 383.093936 
L 565.430448 386.226879 
L 566.582338 385.62461 
L 567.721774 388.690138 
L 568.849024 390.161127 
L 569.964345 390.732887 
L 571.067988 388.851501 
L 572.160193 391.746723 
L 573.241196 392.878325 
L 574.311224 415.579717 
L 575.370498 474.134162 
L 576.419232 416.309334 
L 577.457633 391.177626 
L 578.485903 390.048803 
L 579.504238 389.110417 
L 580.512828 388.457959 
L 581.511858 390.22892 
L 582.501507 391.658341 
L 583.48195 384.826153 
L 584.453357 387.458058 
L 585.415892 396.573793 
L 586.369716 390.666328 
L 587.314986 390.690826 
L 588.251853 394.17051 
L 589.180466 398.627406 
L 590.100968 399.048333 
L 591.013501 394.711515 
L 591.918201 394.578622 
L 592.815201 393.490216 
L 593.704631 398.747517 
L 594.586618 393.711206 
L 595.461286 393.64831 
L 596.328755 391.61409 
L 597.189142 392.097623 
L 598.042563 399.415255 
L 598.889128 399.014709 
L 600.56213 397.435761 
L 601.388776 394.504907 
L 602.208989 395.19847 
L 603.022869 394.624061 
L 603.830511 395.258191 
L 604.632012 394.987615 
L 605.427464 394.108526 
L 606.216957 394.231938 
L 607.000581 395.23481 
L 607.778421 392.646281 
L 608.550563 393.254164 
L 609.317089 397.859625 
L 610.07808 397.985 
L 610.833617 401.07014 
L 611.583775 399.691257 
L 612.328633 399.36297 
L 613.068263 401.381124 
L 613.802739 396.699359 
L 614.532132 396.951716 
L 615.975947 399.082728 
L 616.690505 397.342481 
L 617.40025 400.831772 
L 618.105249 400.393399 
L 618.805563 401.533068 
L 619.501254 404.783508 
L 620.192384 410.49864 
L 620.879011 405.190379 
L 621.561193 402.181275 
L 622.238989 403.743506 
L 622.912454 403.649499 
L 623.581642 403.246323 
L 624.246609 400.00435 
L 624.907407 422.838903 
L 624.907407 422.838903 
" clip-path="url(#pded2a462e3)" style="fill: none; stroke: #d62728; stroke-opacity: 0.5; stroke-width: 1.5; stroke-linecap: square"/>
   </g>
   <g id="line2d_71">
    <path d="M 163.055539 150.862934 
L 205.79029 158.484763 
L 236.111079 179.354537 
L 259.629709 191.876389 
L 278.84583 201.160947 
L 295.092828 209.407641 
L 309.166618 219.135964 
L 321.580581 227.091367 
L 332.685249 231.857788 
L 342.730643 235.387857 
L 351.901369 235.22224 
L 360.33762 232.136727 
L 368.148368 231.076228 
L 375.42 229.966171 
L 382.222158 234.657957 
L 388.611803 239.722971 
L 394.63612 237.837624 
L 400.334636 238.629165 
L 405.740788 236.969571 
L 410.883119 241.584304 
L 415.786182 243.968289 
L 420.471259 251.722462 
L 424.956909 264.185799 
L 429.259419 275.208002 
L 433.393159 279.877197 
L 437.370871 285.927132 
L 441.203907 288.030248 
L 444.902422 288.81596 
L 448.475539 290.04245 
L 451.931484 290.593047 
L 455.277697 290.898747 
L 458.520933 292.63113 
L 461.667342 293.314092 
L 464.722538 292.564099 
L 467.69166 293.2714 
L 470.579426 293.015691 
L 473.390175 294.159788 
L 476.12791 295.698204 
L 478.796328 295.39469 
L 481.398852 298.528617 
L 483.938658 300.723663 
L 486.418699 300.952287 
L 488.841722 302.195515 
L 491.21029 303.804878 
L 493.526798 305.597608 
L 495.793485 309.618569 
L 498.012448 312.943115 
L 500.185656 313.196928 
L 502.314958 314.29612 
L 504.402093 316.405131 
L 506.448699 317.980156 
L 508.456319 318.931301 
L 510.426411 319.380219 
L 512.360353 321.33747 
L 514.259446 324.255822 
L 516.124926 323.093211 
L 517.957962 325.7381 
L 521.531079 328.287876 
L 523.273215 330.003272 
L 524.987023 332.973946 
L 526.673409 331.562672 
L 528.333237 331.94208 
L 529.967329 334.957087 
L 531.576473 337.349526 
L 533.161418 339.24835 
L 534.722882 339.26248 
L 536.261549 340.622707 
L 537.778077 341.356147 
L 539.273093 342.352278 
L 540.747199 343.062846 
L 542.200972 345.205088 
L 543.634965 347.780098 
L 545.049709 346.095906 
L 546.445715 347.341372 
L 547.823471 349.598438 
L 549.18345 350.295078 
L 550.526103 349.329331 
L 551.851867 349.079017 
L 553.161162 349.311921 
L 554.454391 350.286734 
L 555.731945 350.683791 
L 556.994198 349.6257 
L 558.241512 350.903808 
L 559.474238 352.521715 
L 560.692713 352.642341 
L 561.897261 352.28533 
L 563.088199 352.424827 
L 564.26583 352.91343 
L 565.430448 352.867572 
L 566.582338 352.048905 
L 567.721774 354.740839 
L 568.849024 354.386919 
L 569.964345 354.664841 
L 571.067988 353.824815 
L 573.241196 360.073766 
L 574.311224 386.65401 
L 575.370498 447.301177 
L 576.419232 387.540987 
L 577.457633 362.916129 
L 578.485903 357.972202 
L 579.504238 357.135195 
L 580.512828 360.056747 
L 581.511858 357.959316 
L 582.501507 355.419205 
L 583.48195 356.121603 
L 584.453357 355.781321 
L 585.415892 357.962323 
L 586.369716 358.026432 
L 587.314986 356.43976 
L 588.251853 357.348235 
L 589.180466 357.716486 
L 590.100968 357.067914 
L 591.013501 357.745842 
L 591.918201 357.947441 
L 592.815201 359.74189 
L 593.704631 358.859552 
L 594.586618 360.261647 
L 595.461286 360.101452 
L 596.328755 358.412635 
L 597.189142 358.806397 
L 598.042563 359.433981 
L 598.889128 361.25842 
L 599.728949 359.446671 
L 600.56213 359.796738 
L 602.208989 360.143339 
L 603.022869 360.206262 
L 603.830511 361.845271 
L 604.632012 362.044747 
L 605.427464 362.459401 
L 606.216957 363.370782 
L 607.000581 360.694209 
L 607.778421 363.676204 
L 609.317089 363.784614 
L 610.07808 362.221401 
L 610.833617 362.13273 
L 611.583775 362.449264 
L 612.328633 364.482608 
L 613.068263 363.437177 
L 613.802739 363.045726 
L 614.532132 364.411734 
L 615.256512 364.213511 
L 615.975947 366.752699 
L 616.690505 366.202259 
L 617.40025 364.947534 
L 618.105249 365.345003 
L 618.805563 362.811649 
L 619.501254 364.316856 
L 620.192384 366.176304 
L 622.238989 368.20864 
L 624.246609 367.061616 
L 624.907407 381.706734 
L 624.907407 381.706734 
" clip-path="url(#pded2a462e3)" style="fill: none; stroke: #9467bd; stroke-opacity: 0.5; stroke-width: 1.5; stroke-linecap: square"/>
   </g>
   <g id="line2d_72">
    <path d="M 163.055539 249.160978 
L 205.79029 253.237932 
L 236.111079 267.566528 
L 259.629709 271.397446 
L 278.84583 285.592409 
L 295.092828 289.678255 
L 309.166618 285.082341 
L 321.580581 297.205721 
L 332.685249 292.958795 
L 342.730643 295.694169 
L 351.901369 298.759833 
L 360.33762 286.37612 
L 368.148368 260.443269 
L 375.42 253.720424 
L 382.222158 212.440498 
L 388.611803 179.652687 
L 394.63612 130.916763 
L 400.334636 89.28 
L 405.740788 148.884718 
L 410.883119 229.445546 
L 415.786182 267.116858 
L 420.471259 298.111515 
L 424.956909 309.310265 
L 429.259419 305.860289 
L 433.393159 307.533763 
L 437.370871 312.124073 
L 441.203907 314.060542 
L 444.902422 313.54426 
L 448.475539 318.823327 
L 451.931484 321.000035 
L 455.277697 321.218993 
L 458.520933 325.801707 
L 461.667342 326.065849 
L 464.722538 317.177023 
L 467.69166 300.504919 
L 470.579426 281.535516 
L 473.390175 267.442226 
L 476.12791 293.228939 
L 478.796328 325.838112 
L 481.398852 335.286305 
L 483.938658 340.857909 
L 486.418699 345.686896 
L 488.841722 345.578463 
L 491.21029 347.183196 
L 493.526798 355.866034 
L 495.793485 353.073302 
L 498.012448 356.495763 
L 500.185656 361.41441 
L 502.314958 358.222906 
L 504.402093 358.639255 
L 506.448699 365.030058 
L 510.426411 365.461146 
L 512.360353 358.738254 
L 514.259446 361.161652 
L 516.124926 373.40213 
L 517.957962 370.418017 
L 519.759661 375.452873 
L 521.531079 377.847873 
L 523.273215 374.700698 
L 524.987023 376.284344 
L 526.673409 379.816262 
L 528.333237 380.093714 
L 529.967329 375.243823 
L 531.576473 381.665334 
L 533.161418 381.782652 
L 534.722882 378.813803 
L 536.261549 380.482718 
L 537.778077 383.034339 
L 539.273093 393.117326 
L 540.747199 399.163421 
L 542.200972 383.618676 
L 543.634965 379.58156 
L 545.049709 386.479046 
L 546.445715 387.72043 
L 547.823471 383.312573 
L 549.18345 380.599093 
L 550.526103 388.000447 
L 551.851867 386.930564 
L 553.161162 390.137399 
L 554.454391 384.085103 
L 555.731945 388.266161 
L 556.994198 394.320613 
L 558.241512 386.485866 
L 559.474238 388.811807 
L 560.692713 393.281147 
L 561.897261 398.629684 
L 563.088199 397.773259 
L 564.26583 390.724221 
L 565.430448 388.132599 
L 566.582338 398.84423 
L 567.721774 404.129903 
L 568.849024 401.381544 
L 569.964345 399.617212 
L 571.067988 390.962072 
L 572.160193 395.130353 
L 573.241196 395.654221 
L 574.311224 429.709025 
L 575.370498 492.48 
L 576.419232 433.000371 
L 577.457633 405.309336 
L 578.485903 398.421949 
L 579.504238 401.070673 
L 580.512828 398.426352 
L 581.511858 398.057345 
L 582.501507 402.640006 
L 583.48195 398.078423 
L 584.453357 396.944922 
L 585.415892 398.038972 
L 586.369716 401.139914 
L 587.314986 401.062043 
L 588.251853 405.526374 
L 589.180466 402.189633 
L 590.100968 403.90827 
L 591.013501 404.591744 
L 591.918201 407.284037 
L 592.815201 408.099726 
L 593.704631 412.849748 
L 594.586618 412.5643 
L 596.328755 406.544824 
L 597.189142 410.140564 
L 598.042563 412.647136 
L 598.889128 406.109988 
L 599.728949 401.341532 
L 600.56213 404.037887 
L 601.388776 401.29601 
L 602.208989 411.434145 
L 604.632012 411.211551 
L 605.427464 411.582872 
L 607.000581 416.814077 
L 607.778421 412.633791 
L 608.550563 415.616083 
L 609.317089 415.958856 
L 610.07808 409.059849 
L 610.833617 416.988116 
L 611.583775 415.805684 
L 612.328633 416.590692 
L 613.068263 413.057648 
L 613.802739 414.046553 
L 614.532132 417.61288 
L 615.256512 418.941023 
L 615.975947 419.935634 
L 616.690505 417.430999 
L 617.40025 416.633019 
L 618.105249 420.348993 
L 618.805563 415.104875 
L 619.501254 426.160622 
L 620.879011 417.189025 
L 621.561193 422.891879 
L 622.238989 421.01839 
L 622.912454 415.758063 
L 623.581642 424.552221 
L 624.246609 428.51316 
L 624.907407 439.286014 
L 624.907407 439.286014 
" clip-path="url(#pded2a462e3)" style="fill: none; stroke: #8c564b; stroke-opacity: 0.5; stroke-width: 1.5; stroke-linecap: square"/>
   </g>
   <g id="line2d_73">
    <path d="M 163.055539 168.744311 
L 205.79029 174.268296 
L 236.111079 195.885997 
L 259.629709 206.824926 
L 278.84583 219.427388 
L 295.092828 225.89047 
L 309.166618 232.329252 
L 321.580581 242.746426 
L 332.685249 247.029752 
L 342.730643 247.747171 
L 351.901369 246.425248 
L 360.33762 244.572854 
L 368.148368 239.792653 
L 375.42 236.431472 
L 382.222158 235.940022 
L 388.611803 228.931757 
L 394.63612 214.382467 
L 400.334636 204.402919 
L 405.740788 202.371682 
L 410.883119 199.612298 
L 415.786182 200.52346 
L 420.471259 216.632533 
L 424.956909 236.395895 
L 429.259419 253.439107 
L 433.393159 268.236779 
L 437.370871 276.584366 
L 441.203907 279.752364 
L 444.902422 286.368177 
L 448.475539 290.534697 
L 451.931484 286.297816 
L 455.277697 290.263133 
L 458.520933 290.055381 
L 461.667342 288.024572 
L 464.722538 288.543505 
L 467.69166 286.500185 
L 470.579426 286.536344 
L 473.390175 288.236455 
L 476.12791 288.862194 
L 478.796328 289.880756 
L 481.398852 291.170812 
L 483.938658 292.046447 
L 486.418699 294.465355 
L 488.841722 295.822689 
L 491.21029 298.493869 
L 493.526798 298.006003 
L 495.793485 304.842148 
L 498.012448 310.480882 
L 500.185656 313.29404 
L 502.314958 313.737034 
L 504.402093 315.637596 
L 506.448699 319.343552 
L 508.456319 319.635966 
L 510.426411 320.516266 
L 512.360353 321.839268 
L 514.259446 325.236097 
L 516.124926 324.518116 
L 517.957962 326.545208 
L 521.531079 331.267078 
L 523.273215 332.071267 
L 526.673409 336.934769 
L 528.333237 337.880152 
L 529.967329 340.166947 
L 531.576473 343.451971 
L 533.161418 344.222549 
L 534.722882 346.288457 
L 536.261549 346.503666 
L 537.778077 350.398456 
L 539.273093 350.854501 
L 540.747199 350.34295 
L 543.634965 351.579301 
L 545.049709 353.00442 
L 546.445715 354.046211 
L 547.823471 355.397221 
L 549.18345 355.291834 
L 551.851867 358.729406 
L 553.161162 357.723005 
L 554.454391 359.603247 
L 555.731945 358.787021 
L 556.994198 358.845766 
L 558.241512 357.783994 
L 559.474238 357.739319 
L 560.692713 358.772828 
L 561.897261 359.309252 
L 563.088199 358.99636 
L 564.26583 360.905828 
L 565.430448 361.042761 
L 566.582338 362.423506 
L 567.721774 361.206283 
L 568.849024 361.257319 
L 569.964345 361.836606 
L 571.067988 363.251289 
L 572.160193 365.880909 
L 573.241196 371.331408 
L 574.311224 392.810263 
L 575.370498 454.112066 
L 576.419232 396.20804 
L 577.457633 370.973191 
L 578.485903 364.737855 
L 579.504238 365.651137 
L 580.512828 368.693587 
L 581.511858 366.840068 
L 582.501507 364.656258 
L 583.48195 363.509332 
L 584.453357 365.078826 
L 585.415892 369.167726 
L 586.369716 368.58883 
L 587.314986 366.600648 
L 588.251853 368.43591 
L 589.180466 369.943593 
L 590.100968 370.935632 
L 591.013501 368.028433 
L 591.918201 368.106194 
L 592.815201 370.254257 
L 593.704631 369.238711 
L 594.586618 371.121174 
L 595.461286 372.006937 
L 596.328755 369.936237 
L 597.189142 372.009807 
L 598.042563 372.505681 
L 598.889128 370.04952 
L 599.728949 369.677325 
L 600.56213 371.139968 
L 601.388776 375.109231 
L 602.208989 371.969346 
L 603.022869 371.904705 
L 603.830511 372.962593 
L 604.632012 370.964187 
L 605.427464 370.720274 
L 606.216957 372.08112 
L 607.000581 373.653811 
L 607.778421 374.84159 
L 608.550563 374.359555 
L 609.317089 375.276289 
L 610.07808 373.267553 
L 610.833617 375.861642 
L 611.583775 376.295518 
L 612.328633 374.484639 
L 613.068263 375.373715 
L 613.802739 378.518639 
L 614.532132 376.571225 
L 615.256512 373.647034 
L 615.975947 377.584882 
L 616.690505 377.84002 
L 617.40025 376.194673 
L 618.105249 377.888841 
L 618.805563 377.286052 
L 619.501254 378.094707 
L 620.192384 378.640961 
L 620.879011 378.563475 
L 621.561193 376.715959 
L 622.912454 383.473998 
L 623.581642 381.429806 
L 624.246609 377.424279 
L 624.907407 393.049102 
L 624.907407 393.049102 
" clip-path="url(#pded2a462e3)" style="fill: none; stroke: #e377c2; stroke-opacity: 0.5; stroke-width: 1.5; stroke-linecap: square"/>
   </g>
   <g id="patch_3">
    <path d="M 90 512.64 
L 90 69.12 
" style="fill: none; stroke: #000000; stroke-width: 0.8; stroke-linejoin: miter; stroke-linecap: square"/>
   </g>
   <g id="patch_4">
    <path d="M 648 512.64 
L 648 69.12 
" style="fill: none; stroke: #000000; stroke-width: 0.8; stroke-linejoin: miter; stroke-linecap: square"/>
   </g>
   <g id="patch_5">
    <path d="M 90 512.64 
L 648 512.64 
" style="fill: none; stroke: #000000; stroke-width: 0.8; stroke-linejoin: miter; stroke-linecap: square"/>
   </g>
   <g id="patch_6">
    <path d="M 90 69.12 
L 648 69.12 
" style="fill: none; stroke: #000000; stroke-width: 0.8; stroke-linejoin: miter; stroke-linecap: square"/>
   </g>
   <g id="text_12">
    <!-- $\delta$ -->
    <g transform="translate(231.771079 93.063413) scale(0.14 -0.14)">
     <defs>
      <path id="DejaVuSans-Oblique-3b4" d="M 3472 4053 
Q 3197 4272 2450 4272 
Q 1659 4272 1588 3906 
Q 1531 3619 2328 3469 
Q 2953 3353 3253 3003 
Q 3616 2581 3447 1716 
Q 3284 888 2763 400 
Q 2238 -91 1488 -91 
Q 741 -91 406 400 
Q 72 888 241 1747 
Q 363 2384 891 2900 
Q 1097 3100 1353 3213 
Q 913 3459 1000 3900 
Q 1166 4750 2544 4750 
Q 3234 4750 3566 4531 
L 3472 4053 
z
M 1753 3056 
Q 1525 2966 1306 2738 
Q 969 2384 847 1747 
Q 722 1113 919 756 
Q 1119 397 1584 397 
Q 2044 397 2381 759 
Q 2722 1122 2838 1716 
Q 2956 2338 2731 2638 
Q 2491 2959 2103 2994 
Q 1906 3013 1753 3056 
z
" transform="scale(0.015625)"/>
     </defs>
     <use xlink:href="#DejaVuSans-Oblique-3b4" transform="translate(0 0.78125)"/>
    </g>
   </g>
   <g id="text_13">
    <!-- $\theta$ -->
    <g transform="translate(347.561369 93.063413) scale(0.14 -0.14)">
     <defs>
      <path id="DejaVuSans-Oblique-3b8" d="M 2913 2219 
L 925 2219 
Q 791 1284 928 888 
Q 1100 400 1566 400 
Q 2034 400 2391 891 
Q 2703 1322 2913 2219 
z
M 3009 2750 
Q 3094 3638 2984 3950 
Q 2813 4444 2353 4444 
Q 1875 4444 1525 3956 
Q 1250 3563 1034 2750 
L 3009 2750 
z
M 2444 4913 
Q 3194 4913 3494 4250 
Q 3794 3591 3566 2422 
Q 3341 1256 2781 594 
Q 2225 -72 1475 -72 
Q 722 -72 425 594 
Q 128 1256 353 2422 
Q 581 3591 1134 4250 
Q 1691 4913 2444 4913 
z
" transform="scale(0.015625)"/>
     </defs>
     <use xlink:href="#DejaVuSans-Oblique-3b8" transform="translate(0 0.234375)"/>
    </g>
   </g>
   <g id="text_14">
    <!-- $\alpha$ -->
    <g transform="translate(401.120788 93.063413) scale(0.14 -0.14)">
     <defs>
      <path id="DejaVuSans-Oblique-3b1" d="M 2619 1628 
L 2622 2350 
Q 2625 3088 2069 3091 
Q 1653 3094 1394 2747 
Q 1069 2319 959 1747 
Q 825 1059 994 731 
Q 1169 397 1547 397 
Q 1966 397 2319 1063 
L 2619 1628 
z
M 2166 3578 
Q 3141 3594 3128 2584 
Q 3128 2584 3616 3500 
L 4128 3500 
L 3119 1603 
L 3109 919 
Q 3109 766 3194 638 
Q 3291 488 3391 488 
L 3669 488 
L 3575 0 
L 3228 0 
Q 2934 0 2722 263 
Q 2622 394 2619 669 
Q 2416 334 2066 50 
Q 1900 -81 1453 -78 
Q 722 -72 456 397 
Q 184 884 353 1747 
Q 534 2675 1009 3097 
Q 1544 3569 2166 3578 
z
" transform="scale(0.015625)"/>
     </defs>
     <use xlink:href="#DejaVuSans-Oblique-3b1" transform="translate(0 0.84375)"/>
    </g>
   </g>
   <g id="text_15">
    <!-- $\beta$ -->
    <g transform="translate(450.797697 93.2056) scale(0.14 -0.14)">
     <defs>
      <path id="DejaVuSans-Oblique-3b2" d="M 872 216 
L 572 -1331 
L -6 -1331 
L 928 3478 
Q 1206 4903 2538 4903 
Q 3888 4903 3659 3700 
Q 3503 2844 2894 2531 
Q 3713 2250 3553 1416 
Q 3272 -69 1759 -66 
Q 1097 -63 872 216 
z
M 1019 966 
Q 1259 422 1875 425 
Q 2775 425 2966 1406 
Q 3138 2288 1675 2219 
L 1778 2750 
Q 2909 2731 3106 3750 
Q 3241 4438 2509 4434 
Q 1691 4434 1503 3459 
L 1019 966 
z
" transform="scale(0.015625)"/>
     </defs>
     <use xlink:href="#DejaVuSans-Oblique-3b2" transform="translate(0 0.390625)"/>
    </g>
   </g>
   <g id="text_16">
    <!-- $\gamma$ -->
    <g transform="translate(536.547199 93.034975) scale(0.14 -0.14)">
     <defs>
      <path id="DejaVuSans-Oblique-3b3" d="M 1491 2950 
L 1838 788 
L 3456 3500 
L 4066 3500 
L 1972 0 
L 1713 -1331 
L 1138 -1331 
L 1397 0 
L 988 2613 
Q 925 3006 628 3006 
L 475 3006 
L 569 3500 
L 788 3500 
Q 1403 3500 1491 2950 
z
" transform="scale(0.015625)"/>
     </defs>
     <use xlink:href="#DejaVuSans-Oblique-3b3" transform="translate(0 0.3125)"/>
    </g>
   </g>
   <g id="text_17">
    <!-- Median power of different PSDs clusters of reconstructed sources -->
    <g transform="translate(55.068 63.12) scale(0.192 -0.192)">
     <defs>
      <path id="DejaVuSans-4d" d="M 628 4666 
L 1569 4666 
L 2759 1491 
L 3956 4666 
L 4897 4666 
L 4897 0 
L 4281 0 
L 4281 4097 
L 3078 897 
L 2444 897 
L 1241 4097 
L 1241 0 
L 628 0 
L 628 4666 
z
" transform="scale(0.015625)"/>
      <path id="DejaVuSans-77" d="M 269 3500 
L 844 3500 
L 1563 769 
L 2278 3500 
L 2956 3500 
L 3675 769 
L 4391 3500 
L 4966 3500 
L 4050 0 
L 3372 0 
L 2619 2869 
L 1863 0 
L 1184 0 
L 269 3500 
z
" transform="scale(0.015625)"/>
      <path id="DejaVuSans-66" d="M 2375 4863 
L 2375 4384 
L 1825 4384 
Q 1516 4384 1395 4259 
Q 1275 4134 1275 3809 
L 1275 3500 
L 2222 3500 
L 2222 3053 
L 1275 3053 
L 1275 0 
L 697 0 
L 697 3053 
L 147 3053 
L 147 3500 
L 697 3500 
L 697 3744 
Q 697 4328 969 4595 
Q 1241 4863 1831 4863 
L 2375 4863 
z
" transform="scale(0.015625)"/>
      <path id="DejaVuSans-50" d="M 1259 4147 
L 1259 2394 
L 2053 2394 
Q 2494 2394 2734 2622 
Q 2975 2850 2975 3272 
Q 2975 3691 2734 3919 
Q 2494 4147 2053 4147 
L 1259 4147 
z
M 628 4666 
L 2053 4666 
Q 2838 4666 3239 4311 
Q 3641 3956 3641 3272 
Q 3641 2581 3239 2228 
Q 2838 1875 2053 1875 
L 1259 1875 
L 1259 0 
L 628 0 
L 628 4666 
z
" transform="scale(0.015625)"/>
      <path id="DejaVuSans-53" d="M 3425 4513 
L 3425 3897 
Q 3066 4069 2747 4153 
Q 2428 4238 2131 4238 
Q 1616 4238 1336 4038 
Q 1056 3838 1056 3469 
Q 1056 3159 1242 3001 
Q 1428 2844 1947 2747 
L 2328 2669 
Q 3034 2534 3370 2195 
Q 3706 1856 3706 1288 
Q 3706 609 3251 259 
Q 2797 -91 1919 -91 
Q 1588 -91 1214 -16 
Q 841 59 441 206 
L 441 856 
Q 825 641 1194 531 
Q 1563 422 1919 422 
Q 2459 422 2753 634 
Q 3047 847 3047 1241 
Q 3047 1584 2836 1778 
Q 2625 1972 2144 2069 
L 1759 2144 
Q 1053 2284 737 2584 
Q 422 2884 422 3419 
Q 422 4038 858 4394 
Q 1294 4750 2059 4750 
Q 2388 4750 2728 4690 
Q 3069 4631 3425 4513 
z
" transform="scale(0.015625)"/>
      <path id="DejaVuSans-44" d="M 1259 4147 
L 1259 519 
L 2022 519 
Q 2988 519 3436 956 
Q 3884 1394 3884 2338 
Q 3884 3275 3436 3711 
Q 2988 4147 2022 4147 
L 1259 4147 
z
M 628 4666 
L 1925 4666 
Q 3281 4666 3915 4102 
Q 4550 3538 4550 2338 
Q 4550 1131 3912 565 
Q 3275 0 1925 0 
L 628 0 
L 628 4666 
z
" transform="scale(0.015625)"/>
     </defs>
     <use xlink:href="#DejaVuSans-4d"/>
     <use xlink:href="#DejaVuSans-65" transform="translate(86.279297 0)"/>
     <use xlink:href="#DejaVuSans-64" transform="translate(147.802734 0)"/>
     <use xlink:href="#DejaVuSans-69" transform="translate(211.279297 0)"/>
     <use xlink:href="#DejaVuSans-61" transform="translate(239.0625 0)"/>
     <use xlink:href="#DejaVuSans-6e" transform="translate(300.341797 0)"/>
     <use xlink:href="#DejaVuSans-20" transform="translate(363.720703 0)"/>
     <use xlink:href="#DejaVuSans-70" transform="translate(395.507812 0)"/>
     <use xlink:href="#DejaVuSans-6f" transform="translate(458.984375 0)"/>
     <use xlink:href="#DejaVuSans-77" transform="translate(520.166016 0)"/>
     <use xlink:href="#DejaVuSans-65" transform="translate(601.953125 0)"/>
     <use xlink:href="#DejaVuSans-72" transform="translate(663.476562 0)"/>
     <use xlink:href="#DejaVuSans-20" transform="translate(704.589844 0)"/>
     <use xlink:href="#DejaVuSans-6f" transform="translate(736.376953 0)"/>
     <use xlink:href="#DejaVuSans-66" transform="translate(797.558594 0)"/>
     <use xlink:href="#DejaVuSans-20" transform="translate(832.763672 0)"/>
     <use xlink:href="#DejaVuSans-64" transform="translate(864.550781 0)"/>
     <use xlink:href="#DejaVuSans-69" transform="translate(928.027344 0)"/>
     <use xlink:href="#DejaVuSans-66" transform="translate(955.810547 0)"/>
     <use xlink:href="#DejaVuSans-66" transform="translate(991.015625 0)"/>
     <use xlink:href="#DejaVuSans-65" transform="translate(1026.220703 0)"/>
     <use xlink:href="#DejaVuSans-72" transform="translate(1087.744141 0)"/>
     <use xlink:href="#DejaVuSans-65" transform="translate(1126.607422 0)"/>
     <use xlink:href="#DejaVuSans-6e" transform="translate(1188.130859 0)"/>
     <use xlink:href="#DejaVuSans-74" transform="translate(1251.509766 0)"/>
     <use xlink:href="#DejaVuSans-20" transform="translate(1290.71875 0)"/>
     <use xlink:href="#DejaVuSans-50" transform="translate(1322.505859 0)"/>
     <use xlink:href="#DejaVuSans-53" transform="translate(1382.808594 0)"/>
     <use xlink:href="#DejaVuSans-44" transform="translate(1446.285156 0)"/>
     <use xlink:href="#DejaVuSans-73" transform="translate(1523.287109 0)"/>
     <use xlink:href="#DejaVuSans-20" transform="translate(1575.386719 0)"/>
     <use xlink:href="#DejaVuSans-63" transform="translate(1607.173828 0)"/>
     <use xlink:href="#DejaVuSans-6c" transform="translate(1662.154297 0)"/>
     <use xlink:href="#DejaVuSans-75" transform="translate(1689.9375 0)"/>
     <use xlink:href="#DejaVuSans-73" transform="translate(1753.316406 0)"/>
     <use xlink:href="#DejaVuSans-74" transform="translate(1805.416016 0)"/>
     <use xlink:href="#DejaVuSans-65" transform="translate(1844.625 0)"/>
     <use xlink:href="#DejaVuSans-72" transform="translate(1906.148438 0)"/>
     <use xlink:href="#DejaVuSans-73" transform="translate(1947.261719 0)"/>
     <use xlink:href="#DejaVuSans-20" transform="translate(1999.361328 0)"/>
     <use xlink:href="#DejaVuSans-6f" transform="translate(2031.148438 0)"/>
     <use xlink:href="#DejaVuSans-66" transform="translate(2092.330078 0)"/>
     <use xlink:href="#DejaVuSans-20" transform="translate(2127.535156 0)"/>
     <use xlink:href="#DejaVuSans-72" transform="translate(2159.322266 0)"/>
     <use xlink:href="#DejaVuSans-65" transform="translate(2198.185547 0)"/>
     <use xlink:href="#DejaVuSans-63" transform="translate(2259.708984 0)"/>
     <use xlink:href="#DejaVuSans-6f" transform="translate(2314.689453 0)"/>
     <use xlink:href="#DejaVuSans-6e" transform="translate(2375.871094 0)"/>
     <use xlink:href="#DejaVuSans-73" transform="translate(2439.25 0)"/>
     <use xlink:href="#DejaVuSans-74" transform="translate(2491.349609 0)"/>
     <use xlink:href="#DejaVuSans-72" transform="translate(2530.558594 0)"/>
     <use xlink:href="#DejaVuSans-75" transform="translate(2571.671875 0)"/>
     <use xlink:href="#DejaVuSans-63" transform="translate(2635.050781 0)"/>
     <use xlink:href="#DejaVuSans-74" transform="translate(2690.03125 0)"/>
     <use xlink:href="#DejaVuSans-65" transform="translate(2729.240234 0)"/>
     <use xlink:href="#DejaVuSans-64" transform="translate(2790.763672 0)"/>
     <use xlink:href="#DejaVuSans-20" transform="translate(2854.240234 0)"/>
     <use xlink:href="#DejaVuSans-73" transform="translate(2886.027344 0)"/>
     <use xlink:href="#DejaVuSans-6f" transform="translate(2938.126953 0)"/>
     <use xlink:href="#DejaVuSans-75" transform="translate(2999.308594 0)"/>
     <use xlink:href="#DejaVuSans-72" transform="translate(3062.6875 0)"/>
     <use xlink:href="#DejaVuSans-63" transform="translate(3101.550781 0)"/>
     <use xlink:href="#DejaVuSans-65" transform="translate(3156.53125 0)"/>
     <use xlink:href="#DejaVuSans-73" transform="translate(3218.054688 0)"/>
    </g>
   </g>
   <g id="legend_1">
    <g id="patch_7">
     <path d="M 101.2 504.64 
L 258.5625 504.64 
Q 261.7625 504.64 261.7625 501.44 
L 261.7625 338.645 
Q 261.7625 335.445 258.5625 335.445 
L 101.2 335.445 
Q 98 335.445 98 338.645 
L 98 501.44 
Q 98 504.64 101.2 504.64 
z
" style="fill: #ffffff; opacity: 0.8; stroke: #cccccc; stroke-linejoin: miter"/>
    </g>
    <g id="line2d_74">
     <path d="M 104.4 348.4025 
L 120.4 348.4025 
L 136.4 348.4025 
" style="fill: none; stroke: #1f77b4; stroke-opacity: 0.5; stroke-width: 1.5; stroke-linecap: square"/>
    </g>
    <g id="text_18">
     <!-- cl. 0 (191 el.) -->
     <g transform="translate(149.2 354.0025) scale(0.16 -0.16)">
      <defs>
       <path id="DejaVuSans-28" d="M 1984 4856 
Q 1566 4138 1362 3434 
Q 1159 2731 1159 2009 
Q 1159 1288 1364 580 
Q 1569 -128 1984 -844 
L 1484 -844 
Q 1016 -109 783 600 
Q 550 1309 550 2009 
Q 550 2706 781 3412 
Q 1013 4119 1484 4856 
L 1984 4856 
z
" transform="scale(0.015625)"/>
       <path id="DejaVuSans-39" d="M 703 97 
L 703 672 
Q 941 559 1184 500 
Q 1428 441 1663 441 
Q 2288 441 2617 861 
Q 2947 1281 2994 2138 
Q 2813 1869 2534 1725 
Q 2256 1581 1919 1581 
Q 1219 1581 811 2004 
Q 403 2428 403 3163 
Q 403 3881 828 4315 
Q 1253 4750 1959 4750 
Q 2769 4750 3195 4129 
Q 3622 3509 3622 2328 
Q 3622 1225 3098 567 
Q 2575 -91 1691 -91 
Q 1453 -91 1209 -44 
Q 966 3 703 97 
z
M 1959 2075 
Q 2384 2075 2632 2365 
Q 2881 2656 2881 3163 
Q 2881 3666 2632 3958 
Q 2384 4250 1959 4250 
Q 1534 4250 1286 3958 
Q 1038 3666 1038 3163 
Q 1038 2656 1286 2365 
Q 1534 2075 1959 2075 
z
" transform="scale(0.015625)"/>
       <path id="DejaVuSans-29" d="M 513 4856 
L 1013 4856 
Q 1481 4119 1714 3412 
Q 1947 2706 1947 2009 
Q 1947 1309 1714 600 
Q 1481 -109 1013 -844 
L 513 -844 
Q 928 -128 1133 580 
Q 1338 1288 1338 2009 
Q 1338 2731 1133 3434 
Q 928 4138 513 4856 
z
" transform="scale(0.015625)"/>
      </defs>
      <use xlink:href="#DejaVuSans-63"/>
      <use xlink:href="#DejaVuSans-6c" transform="translate(54.980469 0)"/>
      <use xlink:href="#DejaVuSans-2e" transform="translate(82.763672 0)"/>
      <use xlink:href="#DejaVuSans-20" transform="translate(114.550781 0)"/>
      <use xlink:href="#DejaVuSans-30" transform="translate(146.337891 0)"/>
      <use xlink:href="#DejaVuSans-20" transform="translate(209.960938 0)"/>
      <use xlink:href="#DejaVuSans-28" transform="translate(241.748047 0)"/>
      <use xlink:href="#DejaVuSans-31" transform="translate(280.761719 0)"/>
      <use xlink:href="#DejaVuSans-39" transform="translate(344.384766 0)"/>
      <use xlink:href="#DejaVuSans-31" transform="translate(408.007812 0)"/>
      <use xlink:href="#DejaVuSans-20" transform="translate(471.630859 0)"/>
      <use xlink:href="#DejaVuSans-65" transform="translate(503.417969 0)"/>
      <use xlink:href="#DejaVuSans-6c" transform="translate(564.941406 0)"/>
      <use xlink:href="#DejaVuSans-2e" transform="translate(592.724609 0)"/>
      <use xlink:href="#DejaVuSans-29" transform="translate(624.511719 0)"/>
     </g>
    </g>
    <g id="line2d_75">
     <path d="M 104.4 371.8875 
L 120.4 371.8875 
L 136.4 371.8875 
" style="fill: none; stroke: #ff7f0e; stroke-opacity: 0.5; stroke-width: 1.5; stroke-linecap: square"/>
    </g>
    <g id="text_19">
     <!-- cl. 1 (214 el.) -->
     <g transform="translate(149.2 377.4875) scale(0.16 -0.16)">
      <use xlink:href="#DejaVuSans-63"/>
      <use xlink:href="#DejaVuSans-6c" transform="translate(54.980469 0)"/>
      <use xlink:href="#DejaVuSans-2e" transform="translate(82.763672 0)"/>
      <use xlink:href="#DejaVuSans-20" transform="translate(114.550781 0)"/>
      <use xlink:href="#DejaVuSans-31" transform="translate(146.337891 0)"/>
      <use xlink:href="#DejaVuSans-20" transform="translate(209.960938 0)"/>
      <use xlink:href="#DejaVuSans-28" transform="translate(241.748047 0)"/>
      <use xlink:href="#DejaVuSans-32" transform="translate(280.761719 0)"/>
      <use xlink:href="#DejaVuSans-31" transform="translate(344.384766 0)"/>
      <use xlink:href="#DejaVuSans-34" transform="translate(408.007812 0)"/>
      <use xlink:href="#DejaVuSans-20" transform="translate(471.630859 0)"/>
      <use xlink:href="#DejaVuSans-65" transform="translate(503.417969 0)"/>
      <use xlink:href="#DejaVuSans-6c" transform="translate(564.941406 0)"/>
      <use xlink:href="#DejaVuSans-2e" transform="translate(592.724609 0)"/>
      <use xlink:href="#DejaVuSans-29" transform="translate(624.511719 0)"/>
     </g>
    </g>
    <g id="line2d_76">
     <path d="M 104.4 395.3725 
L 120.4 395.3725 
L 136.4 395.3725 
" style="fill: none; stroke: #2ca02c; stroke-opacity: 0.5; stroke-width: 1.5; stroke-linecap: square"/>
    </g>
    <g id="text_20">
     <!-- cl. 2 (87 el.) -->
     <g transform="translate(149.2 400.9725) scale(0.16 -0.16)">
      <defs>
       <path id="DejaVuSans-37" d="M 525 4666 
L 3525 4666 
L 3525 4397 
L 1831 0 
L 1172 0 
L 2766 4134 
L 525 4134 
L 525 4666 
z
" transform="scale(0.015625)"/>
      </defs>
      <use xlink:href="#DejaVuSans-63"/>
      <use xlink:href="#DejaVuSans-6c" transform="translate(54.980469 0)"/>
      <use xlink:href="#DejaVuSans-2e" transform="translate(82.763672 0)"/>
      <use xlink:href="#DejaVuSans-20" transform="translate(114.550781 0)"/>
      <use xlink:href="#DejaVuSans-32" transform="translate(146.337891 0)"/>
      <use xlink:href="#DejaVuSans-20" transform="translate(209.960938 0)"/>
      <use xlink:href="#DejaVuSans-28" transform="translate(241.748047 0)"/>
      <use xlink:href="#DejaVuSans-38" transform="translate(280.761719 0)"/>
      <use xlink:href="#DejaVuSans-37" transform="translate(344.384766 0)"/>
      <use xlink:href="#DejaVuSans-20" transform="translate(408.007812 0)"/>
      <use xlink:href="#DejaVuSans-65" transform="translate(439.794922 0)"/>
      <use xlink:href="#DejaVuSans-6c" transform="translate(501.318359 0)"/>
      <use xlink:href="#DejaVuSans-2e" transform="translate(529.101562 0)"/>
      <use xlink:href="#DejaVuSans-29" transform="translate(560.888672 0)"/>
     </g>
    </g>
    <g id="line2d_77">
     <path d="M 104.4 418.8575 
L 120.4 418.8575 
L 136.4 418.8575 
" style="fill: none; stroke: #d62728; stroke-opacity: 0.5; stroke-width: 1.5; stroke-linecap: square"/>
    </g>
    <g id="text_21">
     <!-- cl. 3 (99 el.) -->
     <g transform="translate(149.2 424.4575) scale(0.16 -0.16)">
      <use xlink:href="#DejaVuSans-63"/>
      <use xlink:href="#DejaVuSans-6c" transform="translate(54.980469 0)"/>
      <use xlink:href="#DejaVuSans-2e" transform="translate(82.763672 0)"/>
      <use xlink:href="#DejaVuSans-20" transform="translate(114.550781 0)"/>
      <use xlink:href="#DejaVuSans-33" transform="translate(146.337891 0)"/>
      <use xlink:href="#DejaVuSans-20" transform="translate(209.960938 0)"/>
      <use xlink:href="#DejaVuSans-28" transform="translate(241.748047 0)"/>
      <use xlink:href="#DejaVuSans-39" transform="translate(280.761719 0)"/>
      <use xlink:href="#DejaVuSans-39" transform="translate(344.384766 0)"/>
      <use xlink:href="#DejaVuSans-20" transform="translate(408.007812 0)"/>
      <use xlink:href="#DejaVuSans-65" transform="translate(439.794922 0)"/>
      <use xlink:href="#DejaVuSans-6c" transform="translate(501.318359 0)"/>
      <use xlink:href="#DejaVuSans-2e" transform="translate(529.101562 0)"/>
      <use xlink:href="#DejaVuSans-29" transform="translate(560.888672 0)"/>
     </g>
    </g>
    <g id="line2d_78">
     <path d="M 104.4 442.3425 
L 120.4 442.3425 
L 136.4 442.3425 
" style="fill: none; stroke: #9467bd; stroke-opacity: 0.5; stroke-width: 1.5; stroke-linecap: square"/>
    </g>
    <g id="text_22">
     <!-- cl. 4 (568 el.) -->
     <g transform="translate(149.2 447.9425) scale(0.16 -0.16)">
      <defs>
       <path id="DejaVuSans-36" d="M 2113 2584 
Q 1688 2584 1439 2293 
Q 1191 2003 1191 1497 
Q 1191 994 1439 701 
Q 1688 409 2113 409 
Q 2538 409 2786 701 
Q 3034 994 3034 1497 
Q 3034 2003 2786 2293 
Q 2538 2584 2113 2584 
z
M 3366 4563 
L 3366 3988 
Q 3128 4100 2886 4159 
Q 2644 4219 2406 4219 
Q 1781 4219 1451 3797 
Q 1122 3375 1075 2522 
Q 1259 2794 1537 2939 
Q 1816 3084 2150 3084 
Q 2853 3084 3261 2657 
Q 3669 2231 3669 1497 
Q 3669 778 3244 343 
Q 2819 -91 2113 -91 
Q 1303 -91 875 529 
Q 447 1150 447 2328 
Q 447 3434 972 4092 
Q 1497 4750 2381 4750 
Q 2619 4750 2861 4703 
Q 3103 4656 3366 4563 
z
" transform="scale(0.015625)"/>
      </defs>
      <use xlink:href="#DejaVuSans-63"/>
      <use xlink:href="#DejaVuSans-6c" transform="translate(54.980469 0)"/>
      <use xlink:href="#DejaVuSans-2e" transform="translate(82.763672 0)"/>
      <use xlink:href="#DejaVuSans-20" transform="translate(114.550781 0)"/>
      <use xlink:href="#DejaVuSans-34" transform="translate(146.337891 0)"/>
      <use xlink:href="#DejaVuSans-20" transform="translate(209.960938 0)"/>
      <use xlink:href="#DejaVuSans-28" transform="translate(241.748047 0)"/>
      <use xlink:href="#DejaVuSans-35" transform="translate(280.761719 0)"/>
      <use xlink:href="#DejaVuSans-36" transform="translate(344.384766 0)"/>
      <use xlink:href="#DejaVuSans-38" transform="translate(408.007812 0)"/>
      <use xlink:href="#DejaVuSans-20" transform="translate(471.630859 0)"/>
      <use xlink:href="#DejaVuSans-65" transform="translate(503.417969 0)"/>
      <use xlink:href="#DejaVuSans-6c" transform="translate(564.941406 0)"/>
      <use xlink:href="#DejaVuSans-2e" transform="translate(592.724609 0)"/>
      <use xlink:href="#DejaVuSans-29" transform="translate(624.511719 0)"/>
     </g>
    </g>
    <g id="line2d_79">
     <path d="M 104.4 465.8275 
L 120.4 465.8275 
L 136.4 465.8275 
" style="fill: none; stroke: #8c564b; stroke-opacity: 0.5; stroke-width: 1.5; stroke-linecap: square"/>
    </g>
    <g id="text_23">
     <!-- cl. 5 (21 el.) -->
     <g transform="translate(149.2 471.4275) scale(0.16 -0.16)">
      <use xlink:href="#DejaVuSans-63"/>
      <use xlink:href="#DejaVuSans-6c" transform="translate(54.980469 0)"/>
      <use xlink:href="#DejaVuSans-2e" transform="translate(82.763672 0)"/>
      <use xlink:href="#DejaVuSans-20" transform="translate(114.550781 0)"/>
      <use xlink:href="#DejaVuSans-35" transform="translate(146.337891 0)"/>
      <use xlink:href="#DejaVuSans-20" transform="translate(209.960938 0)"/>
      <use xlink:href="#DejaVuSans-28" transform="translate(241.748047 0)"/>
      <use xlink:href="#DejaVuSans-32" transform="translate(280.761719 0)"/>
      <use xlink:href="#DejaVuSans-31" transform="translate(344.384766 0)"/>
      <use xlink:href="#DejaVuSans-20" transform="translate(408.007812 0)"/>
      <use xlink:href="#DejaVuSans-65" transform="translate(439.794922 0)"/>
      <use xlink:href="#DejaVuSans-6c" transform="translate(501.318359 0)"/>
      <use xlink:href="#DejaVuSans-2e" transform="translate(529.101562 0)"/>
      <use xlink:href="#DejaVuSans-29" transform="translate(560.888672 0)"/>
     </g>
    </g>
    <g id="line2d_80">
     <path d="M 104.4 489.3125 
L 120.4 489.3125 
L 136.4 489.3125 
" style="fill: none; stroke: #e377c2; stroke-opacity: 0.5; stroke-width: 1.5; stroke-linecap: square"/>
    </g>
    <g id="text_24">
     <!-- cl. 6 (264 el.) -->
     <g transform="translate(149.2 494.9125) scale(0.16 -0.16)">
      <use xlink:href="#DejaVuSans-63"/>
      <use xlink:href="#DejaVuSans-6c" transform="translate(54.980469 0)"/>
      <use xlink:href="#DejaVuSans-2e" transform="translate(82.763672 0)"/>
      <use xlink:href="#DejaVuSans-20" transform="translate(114.550781 0)"/>
      <use xlink:href="#DejaVuSans-36" transform="translate(146.337891 0)"/>
      <use xlink:href="#DejaVuSans-20" transform="translate(209.960938 0)"/>
      <use xlink:href="#DejaVuSans-28" transform="translate(241.748047 0)"/>
      <use xlink:href="#DejaVuSans-32" transform="translate(280.761719 0)"/>
      <use xlink:href="#DejaVuSans-36" transform="translate(344.384766 0)"/>
      <use xlink:href="#DejaVuSans-34" transform="translate(408.007812 0)"/>
      <use xlink:href="#DejaVuSans-20" transform="translate(471.630859 0)"/>
      <use xlink:href="#DejaVuSans-65" transform="translate(503.417969 0)"/>
      <use xlink:href="#DejaVuSans-6c" transform="translate(564.941406 0)"/>
      <use xlink:href="#DejaVuSans-2e" transform="translate(592.724609 0)"/>
      <use xlink:href="#DejaVuSans-29" transform="translate(624.511719 0)"/>
     </g>
    </g>
   </g>
  </g>
 </g>
 <defs>
  <clipPath id="pded2a462e3">
   <rect x="90" y="69.12" width="558" height="443.52"/>
  </clipPath>
 </defs>
</svg>
