<?xml version="1.0" encoding="utf-8" standalone="no"?>
<!DOCTYPE svg PUBLIC "-//W3C//DTD SVG 1.1//EN"
  "http://www.w3.org/Graphics/SVG/1.1/DTD/svg11.dtd">
<!-- Created with matplotlib (https://matplotlib.org/) -->
<svg height="345.6pt" version="1.1" viewBox="0 0 460.8 345.6" width="460.8pt" xmlns="http://www.w3.org/2000/svg" xmlns:xlink="http://www.w3.org/1999/xlink">
 <defs>
  <style type="text/css">
*{stroke-linecap:butt;stroke-linejoin:round;}
  </style>
 </defs>
 <g id="figure_1">
  <g id="patch_1">
   <path d="M 0 345.6 
L 460.8 345.6 
L 460.8 0 
L 0 0 
z
" style="fill:#ffffff;"/>
  </g>
  <g id="axes_1">
   <g id="patch_2">
    <path d="M 57.6 307.584 
L 414.72 307.584 
L 414.72 41.472 
L 57.6 41.472 
z
" style="fill:#ffffff;"/>
   </g>
   <g id="matplotlib.axis_1">
    <g id="xtick_1">
     <g id="line2d_1">
      <defs>
       <path d="M 0 0 
L 0 3.5 
" id="m7d670a1098" style="stroke:#000000;stroke-width:0.8;"/>
      </defs>
      <g>
       <use style="stroke:#000000;stroke-width:0.8;" x="83.256451" xlink:href="#m7d670a1098" y="307.584"/>
      </g>
     </g>
     <g id="text_1">
      <!-- 0.01 -->
      <defs>
       <path d="M 31.78125 66.40625 
Q 24.171875 66.40625 20.328125 58.90625 
Q 16.5 51.421875 16.5 36.375 
Q 16.5 21.390625 20.328125 13.890625 
Q 24.171875 6.390625 31.78125 6.390625 
Q 39.453125 6.390625 43.28125 13.890625 
Q 47.125 21.390625 47.125 36.375 
Q 47.125 51.421875 43.28125 58.90625 
Q 39.453125 66.40625 31.78125 66.40625 
z
M 31.78125 74.21875 
Q 44.046875 74.21875 50.515625 64.515625 
Q 56.984375 54.828125 56.984375 36.375 
Q 56.984375 17.96875 50.515625 8.265625 
Q 44.046875 -1.421875 31.78125 -1.421875 
Q 19.53125 -1.421875 13.0625 8.265625 
Q 6.59375 17.96875 6.59375 36.375 
Q 6.59375 54.828125 13.0625 64.515625 
Q 19.53125 74.21875 31.78125 74.21875 
z
" id="DejaVuSans-48"/>
       <path d="M 10.6875 12.40625 
L 21 12.40625 
L 21 0 
L 10.6875 0 
z
" id="DejaVuSans-46"/>
       <path d="M 12.40625 8.296875 
L 28.515625 8.296875 
L 28.515625 63.921875 
L 10.984375 60.40625 
L 10.984375 69.390625 
L 28.421875 72.90625 
L 38.28125 72.90625 
L 38.28125 8.296875 
L 54.390625 8.296875 
L 54.390625 0 
L 12.40625 0 
z
" id="DejaVuSans-49"/>
      </defs>
      <g transform="translate(58.764264 331.300562)scale(0.22 -0.22)">
       <use xlink:href="#DejaVuSans-48"/>
       <use x="63.623047" xlink:href="#DejaVuSans-46"/>
       <use x="95.410156" xlink:href="#DejaVuSans-48"/>
       <use x="159.033203" xlink:href="#DejaVuSans-49"/>
      </g>
     </g>
    </g>
    <g id="xtick_2">
     <g id="line2d_2">
      <g>
       <use style="stroke:#000000;stroke-width:0.8;" x="202.259408" xlink:href="#m7d670a1098" y="307.584"/>
      </g>
     </g>
     <g id="text_2">
      <!-- 0.02 -->
      <defs>
       <path d="M 19.1875 8.296875 
L 53.609375 8.296875 
L 53.609375 0 
L 7.328125 0 
L 7.328125 8.296875 
Q 12.9375 14.109375 22.625 23.890625 
Q 32.328125 33.6875 34.8125 36.53125 
Q 39.546875 41.84375 41.421875 45.53125 
Q 43.3125 49.21875 43.3125 52.78125 
Q 43.3125 58.59375 39.234375 62.25 
Q 35.15625 65.921875 28.609375 65.921875 
Q 23.96875 65.921875 18.8125 64.3125 
Q 13.671875 62.703125 7.8125 59.421875 
L 7.8125 69.390625 
Q 13.765625 71.78125 18.9375 73 
Q 24.125 74.21875 28.421875 74.21875 
Q 39.75 74.21875 46.484375 68.546875 
Q 53.21875 62.890625 53.21875 53.421875 
Q 53.21875 48.921875 51.53125 44.890625 
Q 49.859375 40.875 45.40625 35.40625 
Q 44.1875 33.984375 37.640625 27.21875 
Q 31.109375 20.453125 19.1875 8.296875 
z
" id="DejaVuSans-50"/>
      </defs>
      <g transform="translate(177.76722 331.300562)scale(0.22 -0.22)">
       <use xlink:href="#DejaVuSans-48"/>
       <use x="63.623047" xlink:href="#DejaVuSans-46"/>
       <use x="95.410156" xlink:href="#DejaVuSans-48"/>
       <use x="159.033203" xlink:href="#DejaVuSans-50"/>
      </g>
     </g>
    </g>
    <g id="xtick_3">
     <g id="line2d_3">
      <g>
       <use style="stroke:#000000;stroke-width:0.8;" x="321.262364" xlink:href="#m7d670a1098" y="307.584"/>
      </g>
     </g>
     <g id="text_3">
      <!-- 0.03 -->
      <defs>
       <path d="M 40.578125 39.3125 
Q 47.65625 37.796875 51.625 33 
Q 55.609375 28.21875 55.609375 21.1875 
Q 55.609375 10.40625 48.1875 4.484375 
Q 40.765625 -1.421875 27.09375 -1.421875 
Q 22.515625 -1.421875 17.65625 -0.515625 
Q 12.796875 0.390625 7.625 2.203125 
L 7.625 11.71875 
Q 11.71875 9.328125 16.59375 8.109375 
Q 21.484375 6.890625 26.8125 6.890625 
Q 36.078125 6.890625 40.9375 10.546875 
Q 45.796875 14.203125 45.796875 21.1875 
Q 45.796875 27.640625 41.28125 31.265625 
Q 36.765625 34.90625 28.71875 34.90625 
L 20.21875 34.90625 
L 20.21875 43.015625 
L 29.109375 43.015625 
Q 36.375 43.015625 40.234375 45.921875 
Q 44.09375 48.828125 44.09375 54.296875 
Q 44.09375 59.90625 40.109375 62.90625 
Q 36.140625 65.921875 28.71875 65.921875 
Q 24.65625 65.921875 20.015625 65.03125 
Q 15.375 64.15625 9.8125 62.3125 
L 9.8125 71.09375 
Q 15.4375 72.65625 20.34375 73.4375 
Q 25.25 74.21875 29.59375 74.21875 
Q 40.828125 74.21875 47.359375 69.109375 
Q 53.90625 64.015625 53.90625 55.328125 
Q 53.90625 49.265625 50.4375 45.09375 
Q 46.96875 40.921875 40.578125 39.3125 
z
" id="DejaVuSans-51"/>
      </defs>
      <g transform="translate(296.770177 331.300562)scale(0.22 -0.22)">
       <use xlink:href="#DejaVuSans-48"/>
       <use x="63.623047" xlink:href="#DejaVuSans-46"/>
       <use x="95.410156" xlink:href="#DejaVuSans-48"/>
       <use x="159.033203" xlink:href="#DejaVuSans-51"/>
      </g>
     </g>
    </g>
    <g id="text_4">
     <!-- Normalized spectral density in bin -->
     <defs>
      <path d="M 9.8125 72.90625 
L 23.09375 72.90625 
L 55.421875 11.921875 
L 55.421875 72.90625 
L 64.984375 72.90625 
L 64.984375 0 
L 51.703125 0 
L 19.390625 60.984375 
L 19.390625 0 
L 9.8125 0 
z
" id="DejaVuSans-78"/>
      <path d="M 30.609375 48.390625 
Q 23.390625 48.390625 19.1875 42.75 
Q 14.984375 37.109375 14.984375 27.296875 
Q 14.984375 17.484375 19.15625 11.84375 
Q 23.34375 6.203125 30.609375 6.203125 
Q 37.796875 6.203125 41.984375 11.859375 
Q 46.1875 17.53125 46.1875 27.296875 
Q 46.1875 37.015625 41.984375 42.703125 
Q 37.796875 48.390625 30.609375 48.390625 
z
M 30.609375 56 
Q 42.328125 56 49.015625 48.375 
Q 55.71875 40.765625 55.71875 27.296875 
Q 55.71875 13.875 49.015625 6.21875 
Q 42.328125 -1.421875 30.609375 -1.421875 
Q 18.84375 -1.421875 12.171875 6.21875 
Q 5.515625 13.875 5.515625 27.296875 
Q 5.515625 40.765625 12.171875 48.375 
Q 18.84375 56 30.609375 56 
z
" id="DejaVuSans-111"/>
      <path d="M 41.109375 46.296875 
Q 39.59375 47.171875 37.8125 47.578125 
Q 36.03125 48 33.890625 48 
Q 26.265625 48 22.1875 43.046875 
Q 18.109375 38.09375 18.109375 28.8125 
L 18.109375 0 
L 9.078125 0 
L 9.078125 54.6875 
L 18.109375 54.6875 
L 18.109375 46.1875 
Q 20.953125 51.171875 25.484375 53.578125 
Q 30.03125 56 36.53125 56 
Q 37.453125 56 38.578125 55.875 
Q 39.703125 55.765625 41.0625 55.515625 
z
" id="DejaVuSans-114"/>
      <path d="M 52 44.1875 
Q 55.375 50.25 60.0625 53.125 
Q 64.75 56 71.09375 56 
Q 79.640625 56 84.28125 50.015625 
Q 88.921875 44.046875 88.921875 33.015625 
L 88.921875 0 
L 79.890625 0 
L 79.890625 32.71875 
Q 79.890625 40.578125 77.09375 44.375 
Q 74.3125 48.1875 68.609375 48.1875 
Q 61.625 48.1875 57.5625 43.546875 
Q 53.515625 38.921875 53.515625 30.90625 
L 53.515625 0 
L 44.484375 0 
L 44.484375 32.71875 
Q 44.484375 40.625 41.703125 44.40625 
Q 38.921875 48.1875 33.109375 48.1875 
Q 26.21875 48.1875 22.15625 43.53125 
Q 18.109375 38.875 18.109375 30.90625 
L 18.109375 0 
L 9.078125 0 
L 9.078125 54.6875 
L 18.109375 54.6875 
L 18.109375 46.1875 
Q 21.1875 51.21875 25.484375 53.609375 
Q 29.78125 56 35.6875 56 
Q 41.65625 56 45.828125 52.96875 
Q 50 49.953125 52 44.1875 
z
" id="DejaVuSans-109"/>
      <path d="M 34.28125 27.484375 
Q 23.390625 27.484375 19.1875 25 
Q 14.984375 22.515625 14.984375 16.5 
Q 14.984375 11.71875 18.140625 8.90625 
Q 21.296875 6.109375 26.703125 6.109375 
Q 34.1875 6.109375 38.703125 11.40625 
Q 43.21875 16.703125 43.21875 25.484375 
L 43.21875 27.484375 
z
M 52.203125 31.203125 
L 52.203125 0 
L 43.21875 0 
L 43.21875 8.296875 
Q 40.140625 3.328125 35.546875 0.953125 
Q 30.953125 -1.421875 24.3125 -1.421875 
Q 15.921875 -1.421875 10.953125 3.296875 
Q 6 8.015625 6 15.921875 
Q 6 25.140625 12.171875 29.828125 
Q 18.359375 34.515625 30.609375 34.515625 
L 43.21875 34.515625 
L 43.21875 35.40625 
Q 43.21875 41.609375 39.140625 45 
Q 35.0625 48.390625 27.6875 48.390625 
Q 23 48.390625 18.546875 47.265625 
Q 14.109375 46.140625 10.015625 43.890625 
L 10.015625 52.203125 
Q 14.9375 54.109375 19.578125 55.046875 
Q 24.21875 56 28.609375 56 
Q 40.484375 56 46.34375 49.84375 
Q 52.203125 43.703125 52.203125 31.203125 
z
" id="DejaVuSans-97"/>
      <path d="M 9.421875 75.984375 
L 18.40625 75.984375 
L 18.40625 0 
L 9.421875 0 
z
" id="DejaVuSans-108"/>
      <path d="M 9.421875 54.6875 
L 18.40625 54.6875 
L 18.40625 0 
L 9.421875 0 
z
M 9.421875 75.984375 
L 18.40625 75.984375 
L 18.40625 64.59375 
L 9.421875 64.59375 
z
" id="DejaVuSans-105"/>
      <path d="M 5.515625 54.6875 
L 48.1875 54.6875 
L 48.1875 46.484375 
L 14.40625 7.171875 
L 48.1875 7.171875 
L 48.1875 0 
L 4.296875 0 
L 4.296875 8.203125 
L 38.09375 47.515625 
L 5.515625 47.515625 
z
" id="DejaVuSans-122"/>
      <path d="M 56.203125 29.59375 
L 56.203125 25.203125 
L 14.890625 25.203125 
Q 15.484375 15.921875 20.484375 11.0625 
Q 25.484375 6.203125 34.421875 6.203125 
Q 39.59375 6.203125 44.453125 7.46875 
Q 49.3125 8.734375 54.109375 11.28125 
L 54.109375 2.78125 
Q 49.265625 0.734375 44.1875 -0.34375 
Q 39.109375 -1.421875 33.890625 -1.421875 
Q 20.796875 -1.421875 13.15625 6.1875 
Q 5.515625 13.8125 5.515625 26.8125 
Q 5.515625 40.234375 12.765625 48.109375 
Q 20.015625 56 32.328125 56 
Q 43.359375 56 49.78125 48.890625 
Q 56.203125 41.796875 56.203125 29.59375 
z
M 47.21875 32.234375 
Q 47.125 39.59375 43.09375 43.984375 
Q 39.0625 48.390625 32.421875 48.390625 
Q 24.90625 48.390625 20.390625 44.140625 
Q 15.875 39.890625 15.1875 32.171875 
z
" id="DejaVuSans-101"/>
      <path d="M 45.40625 46.390625 
L 45.40625 75.984375 
L 54.390625 75.984375 
L 54.390625 0 
L 45.40625 0 
L 45.40625 8.203125 
Q 42.578125 3.328125 38.25 0.953125 
Q 33.9375 -1.421875 27.875 -1.421875 
Q 17.96875 -1.421875 11.734375 6.484375 
Q 5.515625 14.40625 5.515625 27.296875 
Q 5.515625 40.1875 11.734375 48.09375 
Q 17.96875 56 27.875 56 
Q 33.9375 56 38.25 53.625 
Q 42.578125 51.265625 45.40625 46.390625 
z
M 14.796875 27.296875 
Q 14.796875 17.390625 18.875 11.75 
Q 22.953125 6.109375 30.078125 6.109375 
Q 37.203125 6.109375 41.296875 11.75 
Q 45.40625 17.390625 45.40625 27.296875 
Q 45.40625 37.203125 41.296875 42.84375 
Q 37.203125 48.484375 30.078125 48.484375 
Q 22.953125 48.484375 18.875 42.84375 
Q 14.796875 37.203125 14.796875 27.296875 
z
" id="DejaVuSans-100"/>
      <path id="DejaVuSans-32"/>
      <path d="M 44.28125 53.078125 
L 44.28125 44.578125 
Q 40.484375 46.53125 36.375 47.5 
Q 32.28125 48.484375 27.875 48.484375 
Q 21.1875 48.484375 17.84375 46.4375 
Q 14.5 44.390625 14.5 40.28125 
Q 14.5 37.15625 16.890625 35.375 
Q 19.28125 33.59375 26.515625 31.984375 
L 29.59375 31.296875 
Q 39.15625 29.25 43.1875 25.515625 
Q 47.21875 21.78125 47.21875 15.09375 
Q 47.21875 7.46875 41.1875 3.015625 
Q 35.15625 -1.421875 24.609375 -1.421875 
Q 20.21875 -1.421875 15.453125 -0.5625 
Q 10.6875 0.296875 5.421875 2 
L 5.421875 11.28125 
Q 10.40625 8.6875 15.234375 7.390625 
Q 20.0625 6.109375 24.8125 6.109375 
Q 31.15625 6.109375 34.5625 8.28125 
Q 37.984375 10.453125 37.984375 14.40625 
Q 37.984375 18.0625 35.515625 20.015625 
Q 33.0625 21.96875 24.703125 23.78125 
L 21.578125 24.515625 
Q 13.234375 26.265625 9.515625 29.90625 
Q 5.8125 33.546875 5.8125 39.890625 
Q 5.8125 47.609375 11.28125 51.796875 
Q 16.75 56 26.8125 56 
Q 31.78125 56 36.171875 55.265625 
Q 40.578125 54.546875 44.28125 53.078125 
z
" id="DejaVuSans-115"/>
      <path d="M 18.109375 8.203125 
L 18.109375 -20.796875 
L 9.078125 -20.796875 
L 9.078125 54.6875 
L 18.109375 54.6875 
L 18.109375 46.390625 
Q 20.953125 51.265625 25.265625 53.625 
Q 29.59375 56 35.59375 56 
Q 45.5625 56 51.78125 48.09375 
Q 58.015625 40.1875 58.015625 27.296875 
Q 58.015625 14.40625 51.78125 6.484375 
Q 45.5625 -1.421875 35.59375 -1.421875 
Q 29.59375 -1.421875 25.265625 0.953125 
Q 20.953125 3.328125 18.109375 8.203125 
z
M 48.6875 27.296875 
Q 48.6875 37.203125 44.609375 42.84375 
Q 40.53125 48.484375 33.40625 48.484375 
Q 26.265625 48.484375 22.1875 42.84375 
Q 18.109375 37.203125 18.109375 27.296875 
Q 18.109375 17.390625 22.1875 11.75 
Q 26.265625 6.109375 33.40625 6.109375 
Q 40.53125 6.109375 44.609375 11.75 
Q 48.6875 17.390625 48.6875 27.296875 
z
" id="DejaVuSans-112"/>
      <path d="M 48.78125 52.59375 
L 48.78125 44.1875 
Q 44.96875 46.296875 41.140625 47.34375 
Q 37.3125 48.390625 33.40625 48.390625 
Q 24.65625 48.390625 19.8125 42.84375 
Q 14.984375 37.3125 14.984375 27.296875 
Q 14.984375 17.28125 19.8125 11.734375 
Q 24.65625 6.203125 33.40625 6.203125 
Q 37.3125 6.203125 41.140625 7.25 
Q 44.96875 8.296875 48.78125 10.40625 
L 48.78125 2.09375 
Q 45.015625 0.34375 40.984375 -0.53125 
Q 36.96875 -1.421875 32.421875 -1.421875 
Q 20.0625 -1.421875 12.78125 6.34375 
Q 5.515625 14.109375 5.515625 27.296875 
Q 5.515625 40.671875 12.859375 48.328125 
Q 20.21875 56 33.015625 56 
Q 37.15625 56 41.109375 55.140625 
Q 45.0625 54.296875 48.78125 52.59375 
z
" id="DejaVuSans-99"/>
      <path d="M 18.3125 70.21875 
L 18.3125 54.6875 
L 36.8125 54.6875 
L 36.8125 47.703125 
L 18.3125 47.703125 
L 18.3125 18.015625 
Q 18.3125 11.328125 20.140625 9.421875 
Q 21.96875 7.515625 27.59375 7.515625 
L 36.8125 7.515625 
L 36.8125 0 
L 27.59375 0 
Q 17.1875 0 13.234375 3.875 
Q 9.28125 7.765625 9.28125 18.015625 
L 9.28125 47.703125 
L 2.6875 47.703125 
L 2.6875 54.6875 
L 9.28125 54.6875 
L 9.28125 70.21875 
z
" id="DejaVuSans-116"/>
      <path d="M 54.890625 33.015625 
L 54.890625 0 
L 45.90625 0 
L 45.90625 32.71875 
Q 45.90625 40.484375 42.875 44.328125 
Q 39.84375 48.1875 33.796875 48.1875 
Q 26.515625 48.1875 22.3125 43.546875 
Q 18.109375 38.921875 18.109375 30.90625 
L 18.109375 0 
L 9.078125 0 
L 9.078125 54.6875 
L 18.109375 54.6875 
L 18.109375 46.1875 
Q 21.34375 51.125 25.703125 53.5625 
Q 30.078125 56 35.796875 56 
Q 45.21875 56 50.046875 50.171875 
Q 54.890625 44.34375 54.890625 33.015625 
z
" id="DejaVuSans-110"/>
      <path d="M 32.171875 -5.078125 
Q 28.375 -14.84375 24.75 -17.8125 
Q 21.140625 -20.796875 15.09375 -20.796875 
L 7.90625 -20.796875 
L 7.90625 -13.28125 
L 13.1875 -13.28125 
Q 16.890625 -13.28125 18.9375 -11.515625 
Q 21 -9.765625 23.484375 -3.21875 
L 25.09375 0.875 
L 2.984375 54.6875 
L 12.5 54.6875 
L 29.59375 11.921875 
L 46.6875 54.6875 
L 56.203125 54.6875 
z
" id="DejaVuSans-121"/>
      <path d="M 48.6875 27.296875 
Q 48.6875 37.203125 44.609375 42.84375 
Q 40.53125 48.484375 33.40625 48.484375 
Q 26.265625 48.484375 22.1875 42.84375 
Q 18.109375 37.203125 18.109375 27.296875 
Q 18.109375 17.390625 22.1875 11.75 
Q 26.265625 6.109375 33.40625 6.109375 
Q 40.53125 6.109375 44.609375 11.75 
Q 48.6875 17.390625 48.6875 27.296875 
z
M 18.109375 46.390625 
Q 20.953125 51.265625 25.265625 53.625 
Q 29.59375 56 35.59375 56 
Q 45.5625 56 51.78125 48.09375 
Q 58.015625 40.1875 58.015625 27.296875 
Q 58.015625 14.40625 51.78125 6.484375 
Q 45.5625 -1.421875 35.59375 -1.421875 
Q 29.59375 -1.421875 25.265625 0.953125 
Q 20.953125 3.328125 18.109375 8.203125 
L 18.109375 0 
L 9.078125 0 
L 9.078125 75.984375 
L 18.109375 75.984375 
z
" id="DejaVuSans-98"/>
     </defs>
     <g transform="translate(48.072031 356.592437)scale(0.22 -0.22)">
      <use xlink:href="#DejaVuSans-78"/>
      <use x="74.804688" xlink:href="#DejaVuSans-111"/>
      <use x="135.986328" xlink:href="#DejaVuSans-114"/>
      <use x="177.083984" xlink:href="#DejaVuSans-109"/>
      <use x="274.496094" xlink:href="#DejaVuSans-97"/>
      <use x="335.775391" xlink:href="#DejaVuSans-108"/>
      <use x="363.558594" xlink:href="#DejaVuSans-105"/>
      <use x="391.341797" xlink:href="#DejaVuSans-122"/>
      <use x="443.832031" xlink:href="#DejaVuSans-101"/>
      <use x="505.355469" xlink:href="#DejaVuSans-100"/>
      <use x="568.832031" xlink:href="#DejaVuSans-32"/>
      <use x="600.619141" xlink:href="#DejaVuSans-115"/>
      <use x="652.71875" xlink:href="#DejaVuSans-112"/>
      <use x="716.195312" xlink:href="#DejaVuSans-101"/>
      <use x="777.71875" xlink:href="#DejaVuSans-99"/>
      <use x="832.699219" xlink:href="#DejaVuSans-116"/>
      <use x="871.908203" xlink:href="#DejaVuSans-114"/>
      <use x="913.021484" xlink:href="#DejaVuSans-97"/>
      <use x="974.300781" xlink:href="#DejaVuSans-108"/>
      <use x="1002.083984" xlink:href="#DejaVuSans-32"/>
      <use x="1033.871094" xlink:href="#DejaVuSans-100"/>
      <use x="1097.347656" xlink:href="#DejaVuSans-101"/>
      <use x="1158.871094" xlink:href="#DejaVuSans-110"/>
      <use x="1222.25" xlink:href="#DejaVuSans-115"/>
      <use x="1274.349609" xlink:href="#DejaVuSans-105"/>
      <use x="1302.132812" xlink:href="#DejaVuSans-116"/>
      <use x="1341.341797" xlink:href="#DejaVuSans-121"/>
      <use x="1400.521484" xlink:href="#DejaVuSans-32"/>
      <use x="1432.308594" xlink:href="#DejaVuSans-105"/>
      <use x="1460.091797" xlink:href="#DejaVuSans-110"/>
      <use x="1523.470703" xlink:href="#DejaVuSans-32"/>
      <use x="1555.257812" xlink:href="#DejaVuSans-98"/>
      <use x="1618.734375" xlink:href="#DejaVuSans-105"/>
      <use x="1646.517578" xlink:href="#DejaVuSans-110"/>
     </g>
    </g>
   </g>
   <g id="matplotlib.axis_2">
    <g id="ytick_1">
     <g id="line2d_4">
      <defs>
       <path d="M 0 0 
L -3.5 0 
" id="me7f9e1b125" style="stroke:#000000;stroke-width:0.8;"/>
      </defs>
      <g>
       <use style="stroke:#000000;stroke-width:0.8;" x="57.6" xlink:href="#me7f9e1b125" y="296.6976"/>
      </g>
     </g>
     <g id="text_5">
      <!-- 0.0 -->
      <g transform="translate(15.613125 305.055881)scale(0.22 -0.22)">
       <use xlink:href="#DejaVuSans-48"/>
       <use x="63.623047" xlink:href="#DejaVuSans-46"/>
       <use x="95.410156" xlink:href="#DejaVuSans-48"/>
      </g>
     </g>
    </g>
    <g id="ytick_2">
     <g id="line2d_5">
      <g>
       <use style="stroke:#000000;stroke-width:0.8;" x="57.6" xlink:href="#me7f9e1b125" y="248.07168"/>
      </g>
     </g>
     <g id="text_6">
      <!-- 0.2 -->
      <g transform="translate(15.613125 256.429961)scale(0.22 -0.22)">
       <use xlink:href="#DejaVuSans-48"/>
       <use x="63.623047" xlink:href="#DejaVuSans-46"/>
       <use x="95.410156" xlink:href="#DejaVuSans-50"/>
      </g>
     </g>
    </g>
    <g id="ytick_3">
     <g id="line2d_6">
      <g>
       <use style="stroke:#000000;stroke-width:0.8;" x="57.6" xlink:href="#me7f9e1b125" y="199.44576"/>
      </g>
     </g>
     <g id="text_7">
      <!-- 0.4 -->
      <defs>
       <path d="M 37.796875 64.3125 
L 12.890625 25.390625 
L 37.796875 25.390625 
z
M 35.203125 72.90625 
L 47.609375 72.90625 
L 47.609375 25.390625 
L 58.015625 25.390625 
L 58.015625 17.1875 
L 47.609375 17.1875 
L 47.609375 0 
L 37.796875 0 
L 37.796875 17.1875 
L 4.890625 17.1875 
L 4.890625 26.703125 
z
" id="DejaVuSans-52"/>
      </defs>
      <g transform="translate(15.613125 207.804041)scale(0.22 -0.22)">
       <use xlink:href="#DejaVuSans-48"/>
       <use x="63.623047" xlink:href="#DejaVuSans-46"/>
       <use x="95.410156" xlink:href="#DejaVuSans-52"/>
      </g>
     </g>
    </g>
    <g id="ytick_4">
     <g id="line2d_7">
      <g>
       <use style="stroke:#000000;stroke-width:0.8;" x="57.6" xlink:href="#me7f9e1b125" y="150.81984"/>
      </g>
     </g>
     <g id="text_8">
      <!-- 0.6 -->
      <defs>
       <path d="M 33.015625 40.375 
Q 26.375 40.375 22.484375 35.828125 
Q 18.609375 31.296875 18.609375 23.390625 
Q 18.609375 15.53125 22.484375 10.953125 
Q 26.375 6.390625 33.015625 6.390625 
Q 39.65625 6.390625 43.53125 10.953125 
Q 47.40625 15.53125 47.40625 23.390625 
Q 47.40625 31.296875 43.53125 35.828125 
Q 39.65625 40.375 33.015625 40.375 
z
M 52.59375 71.296875 
L 52.59375 62.3125 
Q 48.875 64.0625 45.09375 64.984375 
Q 41.3125 65.921875 37.59375 65.921875 
Q 27.828125 65.921875 22.671875 59.328125 
Q 17.53125 52.734375 16.796875 39.40625 
Q 19.671875 43.65625 24.015625 45.921875 
Q 28.375 48.1875 33.59375 48.1875 
Q 44.578125 48.1875 50.953125 41.515625 
Q 57.328125 34.859375 57.328125 23.390625 
Q 57.328125 12.15625 50.6875 5.359375 
Q 44.046875 -1.421875 33.015625 -1.421875 
Q 20.359375 -1.421875 13.671875 8.265625 
Q 6.984375 17.96875 6.984375 36.375 
Q 6.984375 53.65625 15.1875 63.9375 
Q 23.390625 74.21875 37.203125 74.21875 
Q 40.921875 74.21875 44.703125 73.484375 
Q 48.484375 72.75 52.59375 71.296875 
z
" id="DejaVuSans-54"/>
      </defs>
      <g transform="translate(15.613125 159.178121)scale(0.22 -0.22)">
       <use xlink:href="#DejaVuSans-48"/>
       <use x="63.623047" xlink:href="#DejaVuSans-46"/>
       <use x="95.410156" xlink:href="#DejaVuSans-54"/>
      </g>
     </g>
    </g>
    <g id="ytick_5">
     <g id="line2d_8">
      <g>
       <use style="stroke:#000000;stroke-width:0.8;" x="57.6" xlink:href="#me7f9e1b125" y="102.19392"/>
      </g>
     </g>
     <g id="text_9">
      <!-- 0.8 -->
      <defs>
       <path d="M 31.78125 34.625 
Q 24.75 34.625 20.71875 30.859375 
Q 16.703125 27.09375 16.703125 20.515625 
Q 16.703125 13.921875 20.71875 10.15625 
Q 24.75 6.390625 31.78125 6.390625 
Q 38.8125 6.390625 42.859375 10.171875 
Q 46.921875 13.96875 46.921875 20.515625 
Q 46.921875 27.09375 42.890625 30.859375 
Q 38.875 34.625 31.78125 34.625 
z
M 21.921875 38.8125 
Q 15.578125 40.375 12.03125 44.71875 
Q 8.5 49.078125 8.5 55.328125 
Q 8.5 64.0625 14.71875 69.140625 
Q 20.953125 74.21875 31.78125 74.21875 
Q 42.671875 74.21875 48.875 69.140625 
Q 55.078125 64.0625 55.078125 55.328125 
Q 55.078125 49.078125 51.53125 44.71875 
Q 48 40.375 41.703125 38.8125 
Q 48.828125 37.15625 52.796875 32.3125 
Q 56.78125 27.484375 56.78125 20.515625 
Q 56.78125 9.90625 50.3125 4.234375 
Q 43.84375 -1.421875 31.78125 -1.421875 
Q 19.734375 -1.421875 13.25 4.234375 
Q 6.78125 9.90625 6.78125 20.515625 
Q 6.78125 27.484375 10.78125 32.3125 
Q 14.796875 37.15625 21.921875 38.8125 
z
M 18.3125 54.390625 
Q 18.3125 48.734375 21.84375 45.5625 
Q 25.390625 42.390625 31.78125 42.390625 
Q 38.140625 42.390625 41.71875 45.5625 
Q 45.3125 48.734375 45.3125 54.390625 
Q 45.3125 60.0625 41.71875 63.234375 
Q 38.140625 66.40625 31.78125 66.40625 
Q 25.390625 66.40625 21.84375 63.234375 
Q 18.3125 60.0625 18.3125 54.390625 
z
" id="DejaVuSans-56"/>
      </defs>
      <g transform="translate(15.613125 110.552201)scale(0.22 -0.22)">
       <use xlink:href="#DejaVuSans-48"/>
       <use x="63.623047" xlink:href="#DejaVuSans-46"/>
       <use x="95.410156" xlink:href="#DejaVuSans-56"/>
      </g>
     </g>
    </g>
    <g id="ytick_6">
     <g id="line2d_9">
      <g>
       <use style="stroke:#000000;stroke-width:0.8;" x="57.6" xlink:href="#me7f9e1b125" y="53.568"/>
      </g>
     </g>
     <g id="text_10">
      <!-- 1.0 -->
      <g transform="translate(15.613125 61.926281)scale(0.22 -0.22)">
       <use xlink:href="#DejaVuSans-49"/>
       <use x="63.623047" xlink:href="#DejaVuSans-46"/>
       <use x="95.410156" xlink:href="#DejaVuSans-48"/>
      </g>
     </g>
    </g>
    <g id="text_11">
     <!-- ECDF -->
     <defs>
      <path d="M 9.8125 72.90625 
L 55.90625 72.90625 
L 55.90625 64.59375 
L 19.671875 64.59375 
L 19.671875 43.015625 
L 54.390625 43.015625 
L 54.390625 34.71875 
L 19.671875 34.71875 
L 19.671875 8.296875 
L 56.78125 8.296875 
L 56.78125 0 
L 9.8125 0 
z
" id="DejaVuSans-69"/>
      <path d="M 64.40625 67.28125 
L 64.40625 56.890625 
Q 59.421875 61.53125 53.78125 63.8125 
Q 48.140625 66.109375 41.796875 66.109375 
Q 29.296875 66.109375 22.65625 58.46875 
Q 16.015625 50.828125 16.015625 36.375 
Q 16.015625 21.96875 22.65625 14.328125 
Q 29.296875 6.6875 41.796875 6.6875 
Q 48.140625 6.6875 53.78125 8.984375 
Q 59.421875 11.28125 64.40625 15.921875 
L 64.40625 5.609375 
Q 59.234375 2.09375 53.4375 0.328125 
Q 47.65625 -1.421875 41.21875 -1.421875 
Q 24.65625 -1.421875 15.125 8.703125 
Q 5.609375 18.84375 5.609375 36.375 
Q 5.609375 53.953125 15.125 64.078125 
Q 24.65625 74.21875 41.21875 74.21875 
Q 47.75 74.21875 53.53125 72.484375 
Q 59.328125 70.75 64.40625 67.28125 
z
" id="DejaVuSans-67"/>
      <path d="M 19.671875 64.796875 
L 19.671875 8.109375 
L 31.59375 8.109375 
Q 46.6875 8.109375 53.6875 14.9375 
Q 60.6875 21.78125 60.6875 36.53125 
Q 60.6875 51.171875 53.6875 57.984375 
Q 46.6875 64.796875 31.59375 64.796875 
z
M 9.8125 72.90625 
L 30.078125 72.90625 
Q 51.265625 72.90625 61.171875 64.09375 
Q 71.09375 55.28125 71.09375 36.53125 
Q 71.09375 17.671875 61.125 8.828125 
Q 51.171875 0 30.078125 0 
L 9.8125 0 
z
" id="DejaVuSans-68"/>
      <path d="M 9.8125 72.90625 
L 51.703125 72.90625 
L 51.703125 64.59375 
L 19.671875 64.59375 
L 19.671875 43.109375 
L 48.578125 43.109375 
L 48.578125 34.8125 
L 19.671875 34.8125 
L 19.671875 0 
L 9.8125 0 
z
" id="DejaVuSans-70"/>
     </defs>
     <g transform="translate(7.037813 203.956437)rotate(-90)scale(0.22 -0.22)">
      <use xlink:href="#DejaVuSans-69"/>
      <use x="63.183594" xlink:href="#DejaVuSans-67"/>
      <use x="133.007812" xlink:href="#DejaVuSans-68"/>
      <use x="210.009766" xlink:href="#DejaVuSans-70"/>
     </g>
    </g>
   </g>
   <g id="line2d_10">
    <defs>
     <path d="M 0 3 
C 0.795609 3 1.55874 2.683901 2.12132 2.12132 
C 2.683901 1.55874 3 0.795609 3 0 
C 3 -0.795609 2.683901 -1.55874 2.12132 -2.12132 
C 1.55874 -2.683901 0.795609 -3 0 -3 
C -0.795609 -3 -1.55874 -2.683901 -2.12132 -2.12132 
C -2.683901 -1.55874 -3 -0.795609 -3 0 
C -3 0.795609 -2.683901 1.55874 -2.12132 2.12132 
C -1.55874 2.683901 -0.795609 3 0 3 
z
" id="mc027408491" style="stroke:#1f77b4;"/>
    </defs>
    <g clip-path="url(#p951bffe16a)">
     <use style="fill:#1f77b4;stroke:#1f77b4;" x="73.832727" xlink:href="#mc027408491" y="294.359815"/>
     <use style="fill:#1f77b4;stroke:#1f77b4;" x="78.439762" xlink:href="#mc027408491" y="292.022031"/>
     <use style="fill:#1f77b4;stroke:#1f77b4;" x="98.487586" xlink:href="#mc027408491" y="289.684246"/>
     <use style="fill:#1f77b4;stroke:#1f77b4;" x="99.299684" xlink:href="#mc027408491" y="287.346462"/>
     <use style="fill:#1f77b4;stroke:#1f77b4;" x="102.968575" xlink:href="#mc027408491" y="285.008677"/>
     <use style="fill:#1f77b4;stroke:#1f77b4;" x="104.914981" xlink:href="#mc027408491" y="282.670892"/>
     <use style="fill:#1f77b4;stroke:#1f77b4;" x="106.594668" xlink:href="#mc027408491" y="280.333108"/>
     <use style="fill:#1f77b4;stroke:#1f77b4;" x="108.771954" xlink:href="#mc027408491" y="277.995323"/>
     <use style="fill:#1f77b4;stroke:#1f77b4;" x="111.083203" xlink:href="#mc027408491" y="275.657538"/>
     <use style="fill:#1f77b4;stroke:#1f77b4;" x="112.010489" xlink:href="#mc027408491" y="273.319754"/>
     <use style="fill:#1f77b4;stroke:#1f77b4;" x="114.161218" xlink:href="#mc027408491" y="270.981969"/>
     <use style="fill:#1f77b4;stroke:#1f77b4;" x="117.561782" xlink:href="#mc027408491" y="268.644185"/>
     <use style="fill:#1f77b4;stroke:#1f77b4;" x="126.97683" xlink:href="#mc027408491" y="266.3064"/>
     <use style="fill:#1f77b4;stroke:#1f77b4;" x="129.212599" xlink:href="#mc027408491" y="263.968615"/>
     <use style="fill:#1f77b4;stroke:#1f77b4;" x="131.378997" xlink:href="#mc027408491" y="261.630831"/>
     <use style="fill:#1f77b4;stroke:#1f77b4;" x="133.773189" xlink:href="#mc027408491" y="259.293046"/>
     <use style="fill:#1f77b4;stroke:#1f77b4;" x="134.663958" xlink:href="#mc027408491" y="256.955262"/>
     <use style="fill:#1f77b4;stroke:#1f77b4;" x="134.778499" xlink:href="#mc027408491" y="254.617477"/>
     <use style="fill:#1f77b4;stroke:#1f77b4;" x="142.292708" xlink:href="#mc027408491" y="252.279692"/>
     <use style="fill:#1f77b4;stroke:#1f77b4;" x="145.684259" xlink:href="#mc027408491" y="249.941908"/>
     <use style="fill:#1f77b4;stroke:#1f77b4;" x="146.243303" xlink:href="#mc027408491" y="247.604123"/>
     <use style="fill:#1f77b4;stroke:#1f77b4;" x="149.363126" xlink:href="#mc027408491" y="245.266338"/>
     <use style="fill:#1f77b4;stroke:#1f77b4;" x="154.611788" xlink:href="#mc027408491" y="242.928554"/>
     <use style="fill:#1f77b4;stroke:#1f77b4;" x="158.887335" xlink:href="#mc027408491" y="240.590769"/>
     <use style="fill:#1f77b4;stroke:#1f77b4;" x="159.028741" xlink:href="#mc027408491" y="238.252985"/>
     <use style="fill:#1f77b4;stroke:#1f77b4;" x="159.761456" xlink:href="#mc027408491" y="235.9152"/>
     <use style="fill:#1f77b4;stroke:#1f77b4;" x="164.27137" xlink:href="#mc027408491" y="233.577415"/>
     <use style="fill:#1f77b4;stroke:#1f77b4;" x="164.30136" xlink:href="#mc027408491" y="231.239631"/>
     <use style="fill:#1f77b4;stroke:#1f77b4;" x="165.420055" xlink:href="#mc027408491" y="228.901846"/>
     <use style="fill:#1f77b4;stroke:#1f77b4;" x="166.251049" xlink:href="#mc027408491" y="226.564062"/>
     <use style="fill:#1f77b4;stroke:#1f77b4;" x="166.544535" xlink:href="#mc027408491" y="224.226277"/>
     <use style="fill:#1f77b4;stroke:#1f77b4;" x="169.148123" xlink:href="#mc027408491" y="221.888492"/>
     <use style="fill:#1f77b4;stroke:#1f77b4;" x="172.256136" xlink:href="#mc027408491" y="219.550708"/>
     <use style="fill:#1f77b4;stroke:#1f77b4;" x="175.080732" xlink:href="#mc027408491" y="217.212923"/>
     <use style="fill:#1f77b4;stroke:#1f77b4;" x="184.162626" xlink:href="#mc027408491" y="214.875138"/>
     <use style="fill:#1f77b4;stroke:#1f77b4;" x="187.393798" xlink:href="#mc027408491" y="212.537354"/>
     <use style="fill:#1f77b4;stroke:#1f77b4;" x="190.523087" xlink:href="#mc027408491" y="210.199569"/>
     <use style="fill:#1f77b4;stroke:#1f77b4;" x="195.973165" xlink:href="#mc027408491" y="207.861785"/>
     <use style="fill:#1f77b4;stroke:#1f77b4;" x="198.163681" xlink:href="#mc027408491" y="205.524"/>
     <use style="fill:#1f77b4;stroke:#1f77b4;" x="198.169886" xlink:href="#mc027408491" y="203.186215"/>
     <use style="fill:#1f77b4;stroke:#1f77b4;" x="202.256072" xlink:href="#mc027408491" y="200.848431"/>
     <use style="fill:#1f77b4;stroke:#1f77b4;" x="202.490346" xlink:href="#mc027408491" y="198.510646"/>
     <use style="fill:#1f77b4;stroke:#1f77b4;" x="205.641839" xlink:href="#mc027408491" y="196.172862"/>
     <use style="fill:#1f77b4;stroke:#1f77b4;" x="206.876064" xlink:href="#mc027408491" y="193.835077"/>
     <use style="fill:#1f77b4;stroke:#1f77b4;" x="208.38706" xlink:href="#mc027408491" y="191.497292"/>
     <use style="fill:#1f77b4;stroke:#1f77b4;" x="210.378389" xlink:href="#mc027408491" y="189.159508"/>
     <use style="fill:#1f77b4;stroke:#1f77b4;" x="221.592718" xlink:href="#mc027408491" y="186.821723"/>
     <use style="fill:#1f77b4;stroke:#1f77b4;" x="221.953405" xlink:href="#mc027408491" y="184.483938"/>
     <use style="fill:#1f77b4;stroke:#1f77b4;" x="225.386899" xlink:href="#mc027408491" y="182.146154"/>
     <use style="fill:#1f77b4;stroke:#1f77b4;" x="226.681626" xlink:href="#mc027408491" y="179.808369"/>
     <use style="fill:#1f77b4;stroke:#1f77b4;" x="227.024284" xlink:href="#mc027408491" y="177.470585"/>
     <use style="fill:#1f77b4;stroke:#1f77b4;" x="227.381702" xlink:href="#mc027408491" y="175.1328"/>
     <use style="fill:#1f77b4;stroke:#1f77b4;" x="230.661165" xlink:href="#mc027408491" y="172.795015"/>
     <use style="fill:#1f77b4;stroke:#1f77b4;" x="230.738304" xlink:href="#mc027408491" y="170.457231"/>
     <use style="fill:#1f77b4;stroke:#1f77b4;" x="231.847955" xlink:href="#mc027408491" y="168.119446"/>
     <use style="fill:#1f77b4;stroke:#1f77b4;" x="233.506224" xlink:href="#mc027408491" y="165.781662"/>
     <use style="fill:#1f77b4;stroke:#1f77b4;" x="233.56628" xlink:href="#mc027408491" y="163.443877"/>
     <use style="fill:#1f77b4;stroke:#1f77b4;" x="238.946318" xlink:href="#mc027408491" y="161.106092"/>
     <use style="fill:#1f77b4;stroke:#1f77b4;" x="240.781416" xlink:href="#mc027408491" y="158.768308"/>
     <use style="fill:#1f77b4;stroke:#1f77b4;" x="241.440835" xlink:href="#mc027408491" y="156.430523"/>
     <use style="fill:#1f77b4;stroke:#1f77b4;" x="245.5451" xlink:href="#mc027408491" y="154.092738"/>
     <use style="fill:#1f77b4;stroke:#1f77b4;" x="246.74466" xlink:href="#mc027408491" y="151.754954"/>
     <use style="fill:#1f77b4;stroke:#1f77b4;" x="250.484456" xlink:href="#mc027408491" y="149.417169"/>
     <use style="fill:#1f77b4;stroke:#1f77b4;" x="252.845524" xlink:href="#mc027408491" y="147.079385"/>
     <use style="fill:#1f77b4;stroke:#1f77b4;" x="253.438202" xlink:href="#mc027408491" y="144.7416"/>
     <use style="fill:#1f77b4;stroke:#1f77b4;" x="256.436123" xlink:href="#mc027408491" y="142.403815"/>
     <use style="fill:#1f77b4;stroke:#1f77b4;" x="256.757644" xlink:href="#mc027408491" y="140.066031"/>
     <use style="fill:#1f77b4;stroke:#1f77b4;" x="260.494865" xlink:href="#mc027408491" y="137.728246"/>
     <use style="fill:#1f77b4;stroke:#1f77b4;" x="262.132201" xlink:href="#mc027408491" y="135.390462"/>
     <use style="fill:#1f77b4;stroke:#1f77b4;" x="262.609539" xlink:href="#mc027408491" y="133.052677"/>
     <use style="fill:#1f77b4;stroke:#1f77b4;" x="264.180904" xlink:href="#mc027408491" y="130.714892"/>
     <use style="fill:#1f77b4;stroke:#1f77b4;" x="264.881647" xlink:href="#mc027408491" y="128.377108"/>
     <use style="fill:#1f77b4;stroke:#1f77b4;" x="266.558535" xlink:href="#mc027408491" y="126.039323"/>
     <use style="fill:#1f77b4;stroke:#1f77b4;" x="271.803009" xlink:href="#mc027408491" y="123.701538"/>
     <use style="fill:#1f77b4;stroke:#1f77b4;" x="274.039466" xlink:href="#mc027408491" y="121.363754"/>
     <use style="fill:#1f77b4;stroke:#1f77b4;" x="276.585259" xlink:href="#mc027408491" y="119.025969"/>
     <use style="fill:#1f77b4;stroke:#1f77b4;" x="277.149866" xlink:href="#mc027408491" y="116.688185"/>
     <use style="fill:#1f77b4;stroke:#1f77b4;" x="279.337014" xlink:href="#mc027408491" y="114.3504"/>
     <use style="fill:#1f77b4;stroke:#1f77b4;" x="282.781961" xlink:href="#mc027408491" y="112.012615"/>
     <use style="fill:#1f77b4;stroke:#1f77b4;" x="283.591884" xlink:href="#mc027408491" y="109.674831"/>
     <use style="fill:#1f77b4;stroke:#1f77b4;" x="284.23512" xlink:href="#mc027408491" y="107.337046"/>
     <use style="fill:#1f77b4;stroke:#1f77b4;" x="285.48498" xlink:href="#mc027408491" y="104.999262"/>
     <use style="fill:#1f77b4;stroke:#1f77b4;" x="291.755424" xlink:href="#mc027408491" y="102.661477"/>
     <use style="fill:#1f77b4;stroke:#1f77b4;" x="294.832241" xlink:href="#mc027408491" y="100.323692"/>
     <use style="fill:#1f77b4;stroke:#1f77b4;" x="301.632944" xlink:href="#mc027408491" y="97.985908"/>
     <use style="fill:#1f77b4;stroke:#1f77b4;" x="302.032938" xlink:href="#mc027408491" y="95.648123"/>
     <use style="fill:#1f77b4;stroke:#1f77b4;" x="303.40887" xlink:href="#mc027408491" y="93.310338"/>
     <use style="fill:#1f77b4;stroke:#1f77b4;" x="303.760175" xlink:href="#mc027408491" y="90.972554"/>
     <use style="fill:#1f77b4;stroke:#1f77b4;" x="310.466201" xlink:href="#mc027408491" y="88.634769"/>
     <use style="fill:#1f77b4;stroke:#1f77b4;" x="313.264586" xlink:href="#mc027408491" y="86.296985"/>
     <use style="fill:#1f77b4;stroke:#1f77b4;" x="313.317439" xlink:href="#mc027408491" y="83.9592"/>
     <use style="fill:#1f77b4;stroke:#1f77b4;" x="315.154605" xlink:href="#mc027408491" y="81.621415"/>
     <use style="fill:#1f77b4;stroke:#1f77b4;" x="317.055136" xlink:href="#mc027408491" y="79.283631"/>
     <use style="fill:#1f77b4;stroke:#1f77b4;" x="319.730082" xlink:href="#mc027408491" y="76.945846"/>
     <use style="fill:#1f77b4;stroke:#1f77b4;" x="333.188821" xlink:href="#mc027408491" y="74.608062"/>
     <use style="fill:#1f77b4;stroke:#1f77b4;" x="334.46685" xlink:href="#mc027408491" y="72.270277"/>
     <use style="fill:#1f77b4;stroke:#1f77b4;" x="340.679382" xlink:href="#mc027408491" y="69.932492"/>
     <use style="fill:#1f77b4;stroke:#1f77b4;" x="341.303855" xlink:href="#mc027408491" y="67.594708"/>
     <use style="fill:#1f77b4;stroke:#1f77b4;" x="343.122353" xlink:href="#mc027408491" y="65.256923"/>
     <use style="fill:#1f77b4;stroke:#1f77b4;" x="364.934408" xlink:href="#mc027408491" y="62.919138"/>
     <use style="fill:#1f77b4;stroke:#1f77b4;" x="372.603771" xlink:href="#mc027408491" y="60.581354"/>
     <use style="fill:#1f77b4;stroke:#1f77b4;" x="390.289961" xlink:href="#mc027408491" y="58.243569"/>
     <use style="fill:#1f77b4;stroke:#1f77b4;" x="394.267258" xlink:href="#mc027408491" y="55.905785"/>
     <use style="fill:#1f77b4;stroke:#1f77b4;" x="398.487273" xlink:href="#mc027408491" y="53.568"/>
    </g>
   </g>
   <g id="line2d_11">
    <defs>
     <path d="M 0 3 
C 0.795609 3 1.55874 2.683901 2.12132 2.12132 
C 2.683901 1.55874 3 0.795609 3 0 
C 3 -0.795609 2.683901 -1.55874 2.12132 -2.12132 
C 1.55874 -2.683901 0.795609 -3 0 -3 
C -0.795609 -3 -1.55874 -2.683901 -2.12132 -2.12132 
C -2.683901 -1.55874 -3 -0.795609 -3 0 
C -3 0.795609 -2.683901 1.55874 -2.12132 2.12132 
C -1.55874 2.683901 -0.795609 3 0 3 
z
" id="mef962438c8" style="stroke:#ff7f0e;"/>
    </defs>
    <g clip-path="url(#p951bffe16a)">
     <use style="fill:#ff7f0e;stroke:#ff7f0e;" x="86.332977" xlink:href="#mef962438c8" y="295.488"/>
     <use style="fill:#ff7f0e;stroke:#ff7f0e;" x="89.058771" xlink:href="#mef962438c8" y="294.2784"/>
     <use style="fill:#ff7f0e;stroke:#ff7f0e;" x="89.323591" xlink:href="#mef962438c8" y="293.0688"/>
     <use style="fill:#ff7f0e;stroke:#ff7f0e;" x="90.399237" xlink:href="#mef962438c8" y="291.8592"/>
     <use style="fill:#ff7f0e;stroke:#ff7f0e;" x="90.630112" xlink:href="#mef962438c8" y="290.6496"/>
     <use style="fill:#ff7f0e;stroke:#ff7f0e;" x="90.698555" xlink:href="#mef962438c8" y="289.44"/>
     <use style="fill:#ff7f0e;stroke:#ff7f0e;" x="91.663046" xlink:href="#mef962438c8" y="288.2304"/>
     <use style="fill:#ff7f0e;stroke:#ff7f0e;" x="92.210722" xlink:href="#mef962438c8" y="287.0208"/>
     <use style="fill:#ff7f0e;stroke:#ff7f0e;" x="92.236614" xlink:href="#mef962438c8" y="285.8112"/>
     <use style="fill:#ff7f0e;stroke:#ff7f0e;" x="92.893818" xlink:href="#mef962438c8" y="284.6016"/>
     <use style="fill:#ff7f0e;stroke:#ff7f0e;" x="93.216002" xlink:href="#mef962438c8" y="283.392"/>
     <use style="fill:#ff7f0e;stroke:#ff7f0e;" x="93.297216" xlink:href="#mef962438c8" y="282.1824"/>
     <use style="fill:#ff7f0e;stroke:#ff7f0e;" x="93.643413" xlink:href="#mef962438c8" y="280.9728"/>
     <use style="fill:#ff7f0e;stroke:#ff7f0e;" x="94.33477" xlink:href="#mef962438c8" y="279.7632"/>
     <use style="fill:#ff7f0e;stroke:#ff7f0e;" x="94.421509" xlink:href="#mef962438c8" y="278.5536"/>
     <use style="fill:#ff7f0e;stroke:#ff7f0e;" x="94.661512" xlink:href="#mef962438c8" y="277.344"/>
     <use style="fill:#ff7f0e;stroke:#ff7f0e;" x="94.812439" xlink:href="#mef962438c8" y="276.1344"/>
     <use style="fill:#ff7f0e;stroke:#ff7f0e;" x="95.114117" xlink:href="#mef962438c8" y="274.9248"/>
     <use style="fill:#ff7f0e;stroke:#ff7f0e;" x="95.898467" xlink:href="#mef962438c8" y="273.7152"/>
     <use style="fill:#ff7f0e;stroke:#ff7f0e;" x="96.708133" xlink:href="#mef962438c8" y="272.5056"/>
     <use style="fill:#ff7f0e;stroke:#ff7f0e;" x="97.06611" xlink:href="#mef962438c8" y="271.296"/>
     <use style="fill:#ff7f0e;stroke:#ff7f0e;" x="97.181299" xlink:href="#mef962438c8" y="270.0864"/>
     <use style="fill:#ff7f0e;stroke:#ff7f0e;" x="97.276781" xlink:href="#mef962438c8" y="268.8768"/>
     <use style="fill:#ff7f0e;stroke:#ff7f0e;" x="97.585814" xlink:href="#mef962438c8" y="267.6672"/>
     <use style="fill:#ff7f0e;stroke:#ff7f0e;" x="97.71539" xlink:href="#mef962438c8" y="266.4576"/>
     <use style="fill:#ff7f0e;stroke:#ff7f0e;" x="97.865571" xlink:href="#mef962438c8" y="265.248"/>
     <use style="fill:#ff7f0e;stroke:#ff7f0e;" x="99.425756" xlink:href="#mef962438c8" y="264.0384"/>
     <use style="fill:#ff7f0e;stroke:#ff7f0e;" x="99.514678" xlink:href="#mef962438c8" y="262.8288"/>
     <use style="fill:#ff7f0e;stroke:#ff7f0e;" x="100.577984" xlink:href="#mef962438c8" y="261.6192"/>
     <use style="fill:#ff7f0e;stroke:#ff7f0e;" x="100.64293" xlink:href="#mef962438c8" y="260.4096"/>
     <use style="fill:#ff7f0e;stroke:#ff7f0e;" x="100.991497" xlink:href="#mef962438c8" y="259.2"/>
     <use style="fill:#ff7f0e;stroke:#ff7f0e;" x="101.228053" xlink:href="#mef962438c8" y="257.9904"/>
     <use style="fill:#ff7f0e;stroke:#ff7f0e;" x="101.688202" xlink:href="#mef962438c8" y="256.7808"/>
     <use style="fill:#ff7f0e;stroke:#ff7f0e;" x="102.061748" xlink:href="#mef962438c8" y="255.5712"/>
     <use style="fill:#ff7f0e;stroke:#ff7f0e;" x="103.06558" xlink:href="#mef962438c8" y="254.3616"/>
     <use style="fill:#ff7f0e;stroke:#ff7f0e;" x="103.2935" xlink:href="#mef962438c8" y="253.152"/>
     <use style="fill:#ff7f0e;stroke:#ff7f0e;" x="103.631314" xlink:href="#mef962438c8" y="251.9424"/>
     <use style="fill:#ff7f0e;stroke:#ff7f0e;" x="104.014153" xlink:href="#mef962438c8" y="250.7328"/>
     <use style="fill:#ff7f0e;stroke:#ff7f0e;" x="104.03188" xlink:href="#mef962438c8" y="249.5232"/>
     <use style="fill:#ff7f0e;stroke:#ff7f0e;" x="104.511672" xlink:href="#mef962438c8" y="248.3136"/>
     <use style="fill:#ff7f0e;stroke:#ff7f0e;" x="105.218319" xlink:href="#mef962438c8" y="247.104"/>
     <use style="fill:#ff7f0e;stroke:#ff7f0e;" x="105.235893" xlink:href="#mef962438c8" y="245.8944"/>
     <use style="fill:#ff7f0e;stroke:#ff7f0e;" x="105.40707" xlink:href="#mef962438c8" y="244.6848"/>
     <use style="fill:#ff7f0e;stroke:#ff7f0e;" x="105.640058" xlink:href="#mef962438c8" y="243.4752"/>
     <use style="fill:#ff7f0e;stroke:#ff7f0e;" x="105.761789" xlink:href="#mef962438c8" y="242.2656"/>
     <use style="fill:#ff7f0e;stroke:#ff7f0e;" x="105.937575" xlink:href="#mef962438c8" y="241.056"/>
     <use style="fill:#ff7f0e;stroke:#ff7f0e;" x="106.309841" xlink:href="#mef962438c8" y="239.8464"/>
     <use style="fill:#ff7f0e;stroke:#ff7f0e;" x="106.48147" xlink:href="#mef962438c8" y="238.6368"/>
     <use style="fill:#ff7f0e;stroke:#ff7f0e;" x="106.590957" xlink:href="#mef962438c8" y="237.4272"/>
     <use style="fill:#ff7f0e;stroke:#ff7f0e;" x="106.871504" xlink:href="#mef962438c8" y="236.2176"/>
     <use style="fill:#ff7f0e;stroke:#ff7f0e;" x="106.929261" xlink:href="#mef962438c8" y="235.008"/>
     <use style="fill:#ff7f0e;stroke:#ff7f0e;" x="107.313416" xlink:href="#mef962438c8" y="233.7984"/>
     <use style="fill:#ff7f0e;stroke:#ff7f0e;" x="107.505417" xlink:href="#mef962438c8" y="232.5888"/>
     <use style="fill:#ff7f0e;stroke:#ff7f0e;" x="107.545412" xlink:href="#mef962438c8" y="231.3792"/>
     <use style="fill:#ff7f0e;stroke:#ff7f0e;" x="107.567876" xlink:href="#mef962438c8" y="230.1696"/>
     <use style="fill:#ff7f0e;stroke:#ff7f0e;" x="107.850164" xlink:href="#mef962438c8" y="228.96"/>
     <use style="fill:#ff7f0e;stroke:#ff7f0e;" x="107.952169" xlink:href="#mef962438c8" y="227.7504"/>
     <use style="fill:#ff7f0e;stroke:#ff7f0e;" x="108.014142" xlink:href="#mef962438c8" y="226.5408"/>
     <use style="fill:#ff7f0e;stroke:#ff7f0e;" x="108.446916" xlink:href="#mef962438c8" y="225.3312"/>
     <use style="fill:#ff7f0e;stroke:#ff7f0e;" x="108.966918" xlink:href="#mef962438c8" y="224.1216"/>
     <use style="fill:#ff7f0e;stroke:#ff7f0e;" x="109.974315" xlink:href="#mef962438c8" y="222.912"/>
     <use style="fill:#ff7f0e;stroke:#ff7f0e;" x="110.255434" xlink:href="#mef962438c8" y="221.7024"/>
     <use style="fill:#ff7f0e;stroke:#ff7f0e;" x="110.257914" xlink:href="#mef962438c8" y="220.4928"/>
     <use style="fill:#ff7f0e;stroke:#ff7f0e;" x="110.383585" xlink:href="#mef962438c8" y="219.2832"/>
     <use style="fill:#ff7f0e;stroke:#ff7f0e;" x="110.533582" xlink:href="#mef962438c8" y="218.0736"/>
     <use style="fill:#ff7f0e;stroke:#ff7f0e;" x="110.731541" xlink:href="#mef962438c8" y="216.864"/>
     <use style="fill:#ff7f0e;stroke:#ff7f0e;" x="110.869262" xlink:href="#mef962438c8" y="215.6544"/>
     <use style="fill:#ff7f0e;stroke:#ff7f0e;" x="110.911708" xlink:href="#mef962438c8" y="214.4448"/>
     <use style="fill:#ff7f0e;stroke:#ff7f0e;" x="111.108871" xlink:href="#mef962438c8" y="213.2352"/>
     <use style="fill:#ff7f0e;stroke:#ff7f0e;" x="111.294824" xlink:href="#mef962438c8" y="212.0256"/>
     <use style="fill:#ff7f0e;stroke:#ff7f0e;" x="111.79603" xlink:href="#mef962438c8" y="210.816"/>
     <use style="fill:#ff7f0e;stroke:#ff7f0e;" x="111.920311" xlink:href="#mef962438c8" y="209.6064"/>
     <use style="fill:#ff7f0e;stroke:#ff7f0e;" x="112.117194" xlink:href="#mef962438c8" y="208.3968"/>
     <use style="fill:#ff7f0e;stroke:#ff7f0e;" x="112.258036" xlink:href="#mef962438c8" y="207.1872"/>
     <use style="fill:#ff7f0e;stroke:#ff7f0e;" x="112.494817" xlink:href="#mef962438c8" y="205.9776"/>
     <use style="fill:#ff7f0e;stroke:#ff7f0e;" x="112.543457" xlink:href="#mef962438c8" y="204.768"/>
     <use style="fill:#ff7f0e;stroke:#ff7f0e;" x="112.562346" xlink:href="#mef962438c8" y="203.5584"/>
     <use style="fill:#ff7f0e;stroke:#ff7f0e;" x="112.597997" xlink:href="#mef962438c8" y="202.3488"/>
     <use style="fill:#ff7f0e;stroke:#ff7f0e;" x="112.628515" xlink:href="#mef962438c8" y="201.1392"/>
     <use style="fill:#ff7f0e;stroke:#ff7f0e;" x="112.709779" xlink:href="#mef962438c8" y="199.9296"/>
     <use style="fill:#ff7f0e;stroke:#ff7f0e;" x="112.753101" xlink:href="#mef962438c8" y="198.72"/>
     <use style="fill:#ff7f0e;stroke:#ff7f0e;" x="112.913337" xlink:href="#mef962438c8" y="197.5104"/>
     <use style="fill:#ff7f0e;stroke:#ff7f0e;" x="113.324111" xlink:href="#mef962438c8" y="196.3008"/>
     <use style="fill:#ff7f0e;stroke:#ff7f0e;" x="113.358298" xlink:href="#mef962438c8" y="195.0912"/>
     <use style="fill:#ff7f0e;stroke:#ff7f0e;" x="113.396929" xlink:href="#mef962438c8" y="193.8816"/>
     <use style="fill:#ff7f0e;stroke:#ff7f0e;" x="113.404067" xlink:href="#mef962438c8" y="192.672"/>
     <use style="fill:#ff7f0e;stroke:#ff7f0e;" x="113.534757" xlink:href="#mef962438c8" y="191.4624"/>
     <use style="fill:#ff7f0e;stroke:#ff7f0e;" x="113.718266" xlink:href="#mef962438c8" y="190.2528"/>
     <use style="fill:#ff7f0e;stroke:#ff7f0e;" x="113.853199" xlink:href="#mef962438c8" y="189.0432"/>
     <use style="fill:#ff7f0e;stroke:#ff7f0e;" x="113.916607" xlink:href="#mef962438c8" y="187.8336"/>
     <use style="fill:#ff7f0e;stroke:#ff7f0e;" x="113.961254" xlink:href="#mef962438c8" y="186.624"/>
     <use style="fill:#ff7f0e;stroke:#ff7f0e;" x="114.104584" xlink:href="#mef962438c8" y="185.4144"/>
     <use style="fill:#ff7f0e;stroke:#ff7f0e;" x="114.805502" xlink:href="#mef962438c8" y="184.2048"/>
     <use style="fill:#ff7f0e;stroke:#ff7f0e;" x="115.491477" xlink:href="#mef962438c8" y="182.9952"/>
     <use style="fill:#ff7f0e;stroke:#ff7f0e;" x="115.722411" xlink:href="#mef962438c8" y="181.7856"/>
     <use style="fill:#ff7f0e;stroke:#ff7f0e;" x="116.417164" xlink:href="#mef962438c8" y="180.576"/>
     <use style="fill:#ff7f0e;stroke:#ff7f0e;" x="116.705799" xlink:href="#mef962438c8" y="179.3664"/>
     <use style="fill:#ff7f0e;stroke:#ff7f0e;" x="116.920093" xlink:href="#mef962438c8" y="178.1568"/>
     <use style="fill:#ff7f0e;stroke:#ff7f0e;" x="116.95516" xlink:href="#mef962438c8" y="176.9472"/>
     <use style="fill:#ff7f0e;stroke:#ff7f0e;" x="117.100217" xlink:href="#mef962438c8" y="175.7376"/>
     <use style="fill:#ff7f0e;stroke:#ff7f0e;" x="117.354576" xlink:href="#mef962438c8" y="174.528"/>
     <use style="fill:#ff7f0e;stroke:#ff7f0e;" x="117.367524" xlink:href="#mef962438c8" y="173.3184"/>
     <use style="fill:#ff7f0e;stroke:#ff7f0e;" x="117.607907" xlink:href="#mef962438c8" y="172.1088"/>
     <use style="fill:#ff7f0e;stroke:#ff7f0e;" x="117.685028" xlink:href="#mef962438c8" y="170.8992"/>
     <use style="fill:#ff7f0e;stroke:#ff7f0e;" x="117.771375" xlink:href="#mef962438c8" y="169.6896"/>
     <use style="fill:#ff7f0e;stroke:#ff7f0e;" x="117.820371" xlink:href="#mef962438c8" y="168.48"/>
     <use style="fill:#ff7f0e;stroke:#ff7f0e;" x="118.081747" xlink:href="#mef962438c8" y="167.2704"/>
     <use style="fill:#ff7f0e;stroke:#ff7f0e;" x="118.711043" xlink:href="#mef962438c8" y="166.0608"/>
     <use style="fill:#ff7f0e;stroke:#ff7f0e;" x="118.946855" xlink:href="#mef962438c8" y="164.8512"/>
     <use style="fill:#ff7f0e;stroke:#ff7f0e;" x="119.152894" xlink:href="#mef962438c8" y="163.6416"/>
     <use style="fill:#ff7f0e;stroke:#ff7f0e;" x="119.519333" xlink:href="#mef962438c8" y="162.432"/>
     <use style="fill:#ff7f0e;stroke:#ff7f0e;" x="120.554684" xlink:href="#mef962438c8" y="161.2224"/>
     <use style="fill:#ff7f0e;stroke:#ff7f0e;" x="120.681411" xlink:href="#mef962438c8" y="160.0128"/>
     <use style="fill:#ff7f0e;stroke:#ff7f0e;" x="120.746638" xlink:href="#mef962438c8" y="158.8032"/>
     <use style="fill:#ff7f0e;stroke:#ff7f0e;" x="120.877893" xlink:href="#mef962438c8" y="157.5936"/>
     <use style="fill:#ff7f0e;stroke:#ff7f0e;" x="120.925862" xlink:href="#mef962438c8" y="156.384"/>
     <use style="fill:#ff7f0e;stroke:#ff7f0e;" x="121.226287" xlink:href="#mef962438c8" y="155.1744"/>
     <use style="fill:#ff7f0e;stroke:#ff7f0e;" x="121.433373" xlink:href="#mef962438c8" y="153.9648"/>
     <use style="fill:#ff7f0e;stroke:#ff7f0e;" x="121.518778" xlink:href="#mef962438c8" y="152.7552"/>
     <use style="fill:#ff7f0e;stroke:#ff7f0e;" x="121.544668" xlink:href="#mef962438c8" y="151.5456"/>
     <use style="fill:#ff7f0e;stroke:#ff7f0e;" x="121.944011" xlink:href="#mef962438c8" y="150.336"/>
     <use style="fill:#ff7f0e;stroke:#ff7f0e;" x="121.981313" xlink:href="#mef962438c8" y="149.1264"/>
     <use style="fill:#ff7f0e;stroke:#ff7f0e;" x="122.13682" xlink:href="#mef962438c8" y="147.9168"/>
     <use style="fill:#ff7f0e;stroke:#ff7f0e;" x="122.197431" xlink:href="#mef962438c8" y="146.7072"/>
     <use style="fill:#ff7f0e;stroke:#ff7f0e;" x="122.237879" xlink:href="#mef962438c8" y="145.4976"/>
     <use style="fill:#ff7f0e;stroke:#ff7f0e;" x="122.525377" xlink:href="#mef962438c8" y="144.288"/>
     <use style="fill:#ff7f0e;stroke:#ff7f0e;" x="123.247318" xlink:href="#mef962438c8" y="143.0784"/>
     <use style="fill:#ff7f0e;stroke:#ff7f0e;" x="123.266303" xlink:href="#mef962438c8" y="141.8688"/>
     <use style="fill:#ff7f0e;stroke:#ff7f0e;" x="124.702238" xlink:href="#mef962438c8" y="140.6592"/>
     <use style="fill:#ff7f0e;stroke:#ff7f0e;" x="124.838091" xlink:href="#mef962438c8" y="139.4496"/>
     <use style="fill:#ff7f0e;stroke:#ff7f0e;" x="124.857146" xlink:href="#mef962438c8" y="138.24"/>
     <use style="fill:#ff7f0e;stroke:#ff7f0e;" x="124.86365" xlink:href="#mef962438c8" y="137.0304"/>
     <use style="fill:#ff7f0e;stroke:#ff7f0e;" x="125.00566" xlink:href="#mef962438c8" y="135.8208"/>
     <use style="fill:#ff7f0e;stroke:#ff7f0e;" x="125.190895" xlink:href="#mef962438c8" y="134.6112"/>
     <use style="fill:#ff7f0e;stroke:#ff7f0e;" x="126.503179" xlink:href="#mef962438c8" y="133.4016"/>
     <use style="fill:#ff7f0e;stroke:#ff7f0e;" x="127.098962" xlink:href="#mef962438c8" y="132.192"/>
     <use style="fill:#ff7f0e;stroke:#ff7f0e;" x="127.243679" xlink:href="#mef962438c8" y="130.9824"/>
     <use style="fill:#ff7f0e;stroke:#ff7f0e;" x="127.778441" xlink:href="#mef962438c8" y="129.7728"/>
     <use style="fill:#ff7f0e;stroke:#ff7f0e;" x="127.824039" xlink:href="#mef962438c8" y="128.5632"/>
     <use style="fill:#ff7f0e;stroke:#ff7f0e;" x="127.924356" xlink:href="#mef962438c8" y="127.3536"/>
     <use style="fill:#ff7f0e;stroke:#ff7f0e;" x="127.998842" xlink:href="#mef962438c8" y="126.144"/>
     <use style="fill:#ff7f0e;stroke:#ff7f0e;" x="128.733081" xlink:href="#mef962438c8" y="124.9344"/>
     <use style="fill:#ff7f0e;stroke:#ff7f0e;" x="128.793489" xlink:href="#mef962438c8" y="123.7248"/>
     <use style="fill:#ff7f0e;stroke:#ff7f0e;" x="128.943383" xlink:href="#mef962438c8" y="122.5152"/>
     <use style="fill:#ff7f0e;stroke:#ff7f0e;" x="129.089537" xlink:href="#mef962438c8" y="121.3056"/>
     <use style="fill:#ff7f0e;stroke:#ff7f0e;" x="129.36747" xlink:href="#mef962438c8" y="120.096"/>
     <use style="fill:#ff7f0e;stroke:#ff7f0e;" x="129.373481" xlink:href="#mef962438c8" y="118.8864"/>
     <use style="fill:#ff7f0e;stroke:#ff7f0e;" x="129.402846" xlink:href="#mef962438c8" y="117.6768"/>
     <use style="fill:#ff7f0e;stroke:#ff7f0e;" x="129.72122" xlink:href="#mef962438c8" y="116.4672"/>
     <use style="fill:#ff7f0e;stroke:#ff7f0e;" x="129.766331" xlink:href="#mef962438c8" y="115.2576"/>
     <use style="fill:#ff7f0e;stroke:#ff7f0e;" x="129.881924" xlink:href="#mef962438c8" y="114.048"/>
     <use style="fill:#ff7f0e;stroke:#ff7f0e;" x="129.964178" xlink:href="#mef962438c8" y="112.8384"/>
     <use style="fill:#ff7f0e;stroke:#ff7f0e;" x="130.096874" xlink:href="#mef962438c8" y="111.6288"/>
     <use style="fill:#ff7f0e;stroke:#ff7f0e;" x="130.135665" xlink:href="#mef962438c8" y="110.4192"/>
     <use style="fill:#ff7f0e;stroke:#ff7f0e;" x="130.309543" xlink:href="#mef962438c8" y="109.2096"/>
     <use style="fill:#ff7f0e;stroke:#ff7f0e;" x="130.321259" xlink:href="#mef962438c8" y="108"/>
     <use style="fill:#ff7f0e;stroke:#ff7f0e;" x="130.829905" xlink:href="#mef962438c8" y="106.7904"/>
     <use style="fill:#ff7f0e;stroke:#ff7f0e;" x="130.92189" xlink:href="#mef962438c8" y="105.5808"/>
     <use style="fill:#ff7f0e;stroke:#ff7f0e;" x="131.026591" xlink:href="#mef962438c8" y="104.3712"/>
     <use style="fill:#ff7f0e;stroke:#ff7f0e;" x="131.142987" xlink:href="#mef962438c8" y="103.1616"/>
     <use style="fill:#ff7f0e;stroke:#ff7f0e;" x="132.156258" xlink:href="#mef962438c8" y="101.952"/>
     <use style="fill:#ff7f0e;stroke:#ff7f0e;" x="132.338597" xlink:href="#mef962438c8" y="100.7424"/>
     <use style="fill:#ff7f0e;stroke:#ff7f0e;" x="132.578929" xlink:href="#mef962438c8" y="99.5328"/>
     <use style="fill:#ff7f0e;stroke:#ff7f0e;" x="132.832883" xlink:href="#mef962438c8" y="98.3232"/>
     <use style="fill:#ff7f0e;stroke:#ff7f0e;" x="133.212975" xlink:href="#mef962438c8" y="97.1136"/>
     <use style="fill:#ff7f0e;stroke:#ff7f0e;" x="133.521513" xlink:href="#mef962438c8" y="95.904"/>
     <use style="fill:#ff7f0e;stroke:#ff7f0e;" x="133.616614" xlink:href="#mef962438c8" y="94.6944"/>
     <use style="fill:#ff7f0e;stroke:#ff7f0e;" x="133.727537" xlink:href="#mef962438c8" y="93.4848"/>
     <use style="fill:#ff7f0e;stroke:#ff7f0e;" x="133.816463" xlink:href="#mef962438c8" y="92.2752"/>
     <use style="fill:#ff7f0e;stroke:#ff7f0e;" x="134.075573" xlink:href="#mef962438c8" y="91.0656"/>
     <use style="fill:#ff7f0e;stroke:#ff7f0e;" x="134.145719" xlink:href="#mef962438c8" y="89.856"/>
     <use style="fill:#ff7f0e;stroke:#ff7f0e;" x="134.433875" xlink:href="#mef962438c8" y="88.6464"/>
     <use style="fill:#ff7f0e;stroke:#ff7f0e;" x="134.534149" xlink:href="#mef962438c8" y="87.4368"/>
     <use style="fill:#ff7f0e;stroke:#ff7f0e;" x="135.011797" xlink:href="#mef962438c8" y="86.2272"/>
     <use style="fill:#ff7f0e;stroke:#ff7f0e;" x="135.422376" xlink:href="#mef962438c8" y="85.0176"/>
     <use style="fill:#ff7f0e;stroke:#ff7f0e;" x="135.465932" xlink:href="#mef962438c8" y="83.808"/>
     <use style="fill:#ff7f0e;stroke:#ff7f0e;" x="136.614738" xlink:href="#mef962438c8" y="82.5984"/>
     <use style="fill:#ff7f0e;stroke:#ff7f0e;" x="136.88929" xlink:href="#mef962438c8" y="81.3888"/>
     <use style="fill:#ff7f0e;stroke:#ff7f0e;" x="137.260554" xlink:href="#mef962438c8" y="80.1792"/>
     <use style="fill:#ff7f0e;stroke:#ff7f0e;" x="138.676575" xlink:href="#mef962438c8" y="78.9696"/>
     <use style="fill:#ff7f0e;stroke:#ff7f0e;" x="140.052047" xlink:href="#mef962438c8" y="77.76"/>
     <use style="fill:#ff7f0e;stroke:#ff7f0e;" x="140.27049" xlink:href="#mef962438c8" y="76.5504"/>
     <use style="fill:#ff7f0e;stroke:#ff7f0e;" x="140.861056" xlink:href="#mef962438c8" y="75.3408"/>
     <use style="fill:#ff7f0e;stroke:#ff7f0e;" x="141.07279" xlink:href="#mef962438c8" y="74.1312"/>
     <use style="fill:#ff7f0e;stroke:#ff7f0e;" x="141.886389" xlink:href="#mef962438c8" y="72.9216"/>
     <use style="fill:#ff7f0e;stroke:#ff7f0e;" x="141.925248" xlink:href="#mef962438c8" y="71.712"/>
     <use style="fill:#ff7f0e;stroke:#ff7f0e;" x="143.920785" xlink:href="#mef962438c8" y="70.5024"/>
     <use style="fill:#ff7f0e;stroke:#ff7f0e;" x="146.177553" xlink:href="#mef962438c8" y="69.2928"/>
     <use style="fill:#ff7f0e;stroke:#ff7f0e;" x="146.558085" xlink:href="#mef962438c8" y="68.0832"/>
     <use style="fill:#ff7f0e;stroke:#ff7f0e;" x="146.859002" xlink:href="#mef962438c8" y="66.8736"/>
     <use style="fill:#ff7f0e;stroke:#ff7f0e;" x="147.313392" xlink:href="#mef962438c8" y="65.664"/>
     <use style="fill:#ff7f0e;stroke:#ff7f0e;" x="150.015804" xlink:href="#mef962438c8" y="64.4544"/>
     <use style="fill:#ff7f0e;stroke:#ff7f0e;" x="151.919189" xlink:href="#mef962438c8" y="63.2448"/>
     <use style="fill:#ff7f0e;stroke:#ff7f0e;" x="154.108404" xlink:href="#mef962438c8" y="62.0352"/>
     <use style="fill:#ff7f0e;stroke:#ff7f0e;" x="154.670279" xlink:href="#mef962438c8" y="60.8256"/>
     <use style="fill:#ff7f0e;stroke:#ff7f0e;" x="155.630433" xlink:href="#mef962438c8" y="59.616"/>
     <use style="fill:#ff7f0e;stroke:#ff7f0e;" x="156.731122" xlink:href="#mef962438c8" y="58.4064"/>
     <use style="fill:#ff7f0e;stroke:#ff7f0e;" x="159.263599" xlink:href="#mef962438c8" y="57.1968"/>
     <use style="fill:#ff7f0e;stroke:#ff7f0e;" x="160.691121" xlink:href="#mef962438c8" y="55.9872"/>
     <use style="fill:#ff7f0e;stroke:#ff7f0e;" x="163.700047" xlink:href="#mef962438c8" y="54.7776"/>
     <use style="fill:#ff7f0e;stroke:#ff7f0e;" x="175.402928" xlink:href="#mef962438c8" y="53.568"/>
    </g>
   </g>
   <g id="patch_3">
    <path d="M 57.6 307.584 
L 57.6 41.472 
" style="fill:none;stroke:#000000;stroke-linecap:square;stroke-linejoin:miter;stroke-width:0.8;"/>
   </g>
   <g id="patch_4">
    <path d="M 414.72 307.584 
L 414.72 41.472 
" style="fill:none;stroke:#000000;stroke-linecap:square;stroke-linejoin:miter;stroke-width:0.8;"/>
   </g>
   <g id="patch_5">
    <path d="M 57.6 307.584 
L 414.72 307.584 
" style="fill:none;stroke:#000000;stroke-linecap:square;stroke-linejoin:miter;stroke-width:0.8;"/>
   </g>
   <g id="patch_6">
    <path d="M 57.6 41.472 
L 414.72 41.472 
" style="fill:none;stroke:#000000;stroke-linecap:square;stroke-linejoin:miter;stroke-width:0.8;"/>
   </g>
   <g id="text_12">
    <!-- Occipital(3.75, 4.25] -->
    <defs>
     <path d="M 39.40625 66.21875 
Q 28.65625 66.21875 22.328125 58.203125 
Q 16.015625 50.203125 16.015625 36.375 
Q 16.015625 22.609375 22.328125 14.59375 
Q 28.65625 6.59375 39.40625 6.59375 
Q 50.140625 6.59375 56.421875 14.59375 
Q 62.703125 22.609375 62.703125 36.375 
Q 62.703125 50.203125 56.421875 58.203125 
Q 50.140625 66.21875 39.40625 66.21875 
z
M 39.40625 74.21875 
Q 54.734375 74.21875 63.90625 63.9375 
Q 73.09375 53.65625 73.09375 36.375 
Q 73.09375 19.140625 63.90625 8.859375 
Q 54.734375 -1.421875 39.40625 -1.421875 
Q 24.03125 -1.421875 14.8125 8.828125 
Q 5.609375 19.09375 5.609375 36.375 
Q 5.609375 53.65625 14.8125 63.9375 
Q 24.03125 74.21875 39.40625 74.21875 
z
" id="DejaVuSans-79"/>
     <path d="M 31 75.875 
Q 24.46875 64.65625 21.28125 53.65625 
Q 18.109375 42.671875 18.109375 31.390625 
Q 18.109375 20.125 21.3125 9.0625 
Q 24.515625 -2 31 -13.1875 
L 23.1875 -13.1875 
Q 15.875 -1.703125 12.234375 9.375 
Q 8.59375 20.453125 8.59375 31.390625 
Q 8.59375 42.28125 12.203125 53.3125 
Q 15.828125 64.359375 23.1875 75.875 
z
" id="DejaVuSans-40"/>
     <path d="M 8.203125 72.90625 
L 55.078125 72.90625 
L 55.078125 68.703125 
L 28.609375 0 
L 18.3125 0 
L 43.21875 64.59375 
L 8.203125 64.59375 
z
" id="DejaVuSans-55"/>
     <path d="M 10.796875 72.90625 
L 49.515625 72.90625 
L 49.515625 64.59375 
L 19.828125 64.59375 
L 19.828125 46.734375 
Q 21.96875 47.46875 24.109375 47.828125 
Q 26.265625 48.1875 28.421875 48.1875 
Q 40.625 48.1875 47.75 41.5 
Q 54.890625 34.8125 54.890625 23.390625 
Q 54.890625 11.625 47.5625 5.09375 
Q 40.234375 -1.421875 26.90625 -1.421875 
Q 22.3125 -1.421875 17.546875 -0.640625 
Q 12.796875 0.140625 7.71875 1.703125 
L 7.71875 11.625 
Q 12.109375 9.234375 16.796875 8.0625 
Q 21.484375 6.890625 26.703125 6.890625 
Q 35.15625 6.890625 40.078125 11.328125 
Q 45.015625 15.765625 45.015625 23.390625 
Q 45.015625 31 40.078125 35.4375 
Q 35.15625 39.890625 26.703125 39.890625 
Q 22.75 39.890625 18.8125 39.015625 
Q 14.890625 38.140625 10.796875 36.28125 
z
" id="DejaVuSans-53"/>
     <path d="M 11.71875 12.40625 
L 22.015625 12.40625 
L 22.015625 4 
L 14.015625 -11.625 
L 7.71875 -11.625 
L 11.71875 4 
z
" id="DejaVuSans-44"/>
     <path d="M 30.421875 75.984375 
L 30.421875 -13.1875 
L 9.71875 -13.1875 
L 9.71875 -6.203125 
L 21.390625 -6.203125 
L 21.390625 69 
L 9.71875 69 
L 9.71875 75.984375 
z
" id="DejaVuSans-93"/>
    </defs>
    <g transform="translate(101.136375 35.472)scale(0.264 -0.264)">
     <use xlink:href="#DejaVuSans-79"/>
     <use x="78.710938" xlink:href="#DejaVuSans-99"/>
     <use x="133.691406" xlink:href="#DejaVuSans-99"/>
     <use x="188.671875" xlink:href="#DejaVuSans-105"/>
     <use x="216.455078" xlink:href="#DejaVuSans-112"/>
     <use x="279.931641" xlink:href="#DejaVuSans-105"/>
     <use x="307.714844" xlink:href="#DejaVuSans-116"/>
     <use x="346.923828" xlink:href="#DejaVuSans-97"/>
     <use x="408.203125" xlink:href="#DejaVuSans-108"/>
     <use x="435.986328" xlink:href="#DejaVuSans-40"/>
     <use x="475" xlink:href="#DejaVuSans-51"/>
     <use x="538.623047" xlink:href="#DejaVuSans-46"/>
     <use x="570.410156" xlink:href="#DejaVuSans-55"/>
     <use x="634.033203" xlink:href="#DejaVuSans-53"/>
     <use x="697.65625" xlink:href="#DejaVuSans-44"/>
     <use x="729.443359" xlink:href="#DejaVuSans-32"/>
     <use x="761.230469" xlink:href="#DejaVuSans-52"/>
     <use x="824.853516" xlink:href="#DejaVuSans-46"/>
     <use x="856.640625" xlink:href="#DejaVuSans-50"/>
     <use x="920.263672" xlink:href="#DejaVuSans-53"/>
     <use x="983.886719" xlink:href="#DejaVuSans-93"/>
    </g>
   </g>
   <g id="legend_1">
    <g id="patch_7">
     <path d="M 73 123.65575 
L 231.520312 123.65575 
Q 235.920312 123.65575 235.920312 119.25575 
L 235.920312 56.872 
Q 235.920312 52.472 231.520312 52.472 
L 73 52.472 
Q 68.6 52.472 68.6 56.872 
L 68.6 119.25575 
Q 68.6 123.65575 73 123.65575 
z
" style="fill:#ffffff;opacity:0.8;stroke:#cccccc;stroke-linejoin:miter;"/>
    </g>
    <g id="line2d_12"/>
    <g id="line2d_13">
     <g>
      <use style="fill:#1f77b4;stroke:#1f77b4;" x="99.4" xlink:href="#mc027408491" y="70.288562"/>
     </g>
    </g>
    <g id="text_13">
     <!-- lobe -->
     <g transform="translate(139 77.988563)scale(0.22 -0.22)">
      <use xlink:href="#DejaVuSans-108"/>
      <use x="27.783203" xlink:href="#DejaVuSans-111"/>
      <use x="88.964844" xlink:href="#DejaVuSans-98"/>
      <use x="152.441406" xlink:href="#DejaVuSans-101"/>
     </g>
    </g>
    <g id="line2d_14"/>
    <g id="line2d_15">
     <g>
      <use style="fill:#ff7f0e;stroke:#ff7f0e;" x="99.4" xlink:href="#mef962438c8" y="102.580438"/>
     </g>
    </g>
    <g id="text_14">
     <!-- no peak -->
     <defs>
      <path d="M 9.078125 75.984375 
L 18.109375 75.984375 
L 18.109375 31.109375 
L 44.921875 54.6875 
L 56.390625 54.6875 
L 27.390625 29.109375 
L 57.625 0 
L 45.90625 0 
L 18.109375 26.703125 
L 18.109375 0 
L 9.078125 0 
z
" id="DejaVuSans-107"/>
     </defs>
     <g transform="translate(139 110.280438)scale(0.22 -0.22)">
      <use xlink:href="#DejaVuSans-110"/>
      <use x="63.378906" xlink:href="#DejaVuSans-111"/>
      <use x="124.560547" xlink:href="#DejaVuSans-32"/>
      <use x="156.347656" xlink:href="#DejaVuSans-112"/>
      <use x="219.824219" xlink:href="#DejaVuSans-101"/>
      <use x="281.347656" xlink:href="#DejaVuSans-97"/>
      <use x="342.626953" xlink:href="#DejaVuSans-107"/>
     </g>
    </g>
   </g>
  </g>
 </g>
 <defs>
  <clipPath id="p951bffe16a">
   <rect height="266.112" width="357.12" x="57.6" y="41.472"/>
  </clipPath>
 </defs>
</svg>
