<?xml version="1.0" encoding="utf-8" standalone="no"?>
<!DOCTYPE svg PUBLIC "-//W3C//DTD SVG 1.1//EN"
  "http://www.w3.org/Graphics/SVG/1.1/DTD/svg11.dtd">
<!-- Created with matplotlib (https://matplotlib.org/) -->
<svg height="345.6pt" version="1.1" viewBox="0 0 460.8 345.6" width="460.8pt" xmlns="http://www.w3.org/2000/svg" xmlns:xlink="http://www.w3.org/1999/xlink">
 <defs>
  <style type="text/css">
*{stroke-linecap:butt;stroke-linejoin:round;}
  </style>
 </defs>
 <g id="figure_1">
  <g id="patch_1">
   <path d="M 0 345.6 
L 460.8 345.6 
L 460.8 0 
L 0 0 
z
" style="fill:#ffffff;"/>
  </g>
  <g id="axes_1">
   <g id="patch_2">
    <path d="M 57.6 307.584 
L 414.72 307.584 
L 414.72 41.472 
L 57.6 41.472 
z
" style="fill:#ffffff;"/>
   </g>
   <g id="matplotlib.axis_1">
    <g id="xtick_1">
     <g id="line2d_1">
      <defs>
       <path d="M 0 0 
L 0 3.5 
" id="mb3233db7d5" style="stroke:#000000;stroke-width:0.8;"/>
      </defs>
      <g>
       <use style="stroke:#000000;stroke-width:0.8;" x="138.422974" xlink:href="#mb3233db7d5" y="307.584"/>
      </g>
     </g>
     <g id="text_1">
      <!-- 0.02 -->
      <defs>
       <path d="M 31.78125 66.40625 
Q 24.171875 66.40625 20.328125 58.90625 
Q 16.5 51.421875 16.5 36.375 
Q 16.5 21.390625 20.328125 13.890625 
Q 24.171875 6.390625 31.78125 6.390625 
Q 39.453125 6.390625 43.28125 13.890625 
Q 47.125 21.390625 47.125 36.375 
Q 47.125 51.421875 43.28125 58.90625 
Q 39.453125 66.40625 31.78125 66.40625 
z
M 31.78125 74.21875 
Q 44.046875 74.21875 50.515625 64.515625 
Q 56.984375 54.828125 56.984375 36.375 
Q 56.984375 17.96875 50.515625 8.265625 
Q 44.046875 -1.421875 31.78125 -1.421875 
Q 19.53125 -1.421875 13.0625 8.265625 
Q 6.59375 17.96875 6.59375 36.375 
Q 6.59375 54.828125 13.0625 64.515625 
Q 19.53125 74.21875 31.78125 74.21875 
z
" id="DejaVuSans-48"/>
       <path d="M 10.6875 12.40625 
L 21 12.40625 
L 21 0 
L 10.6875 0 
z
" id="DejaVuSans-46"/>
       <path d="M 19.1875 8.296875 
L 53.609375 8.296875 
L 53.609375 0 
L 7.328125 0 
L 7.328125 8.296875 
Q 12.9375 14.109375 22.625 23.890625 
Q 32.328125 33.6875 34.8125 36.53125 
Q 39.546875 41.84375 41.421875 45.53125 
Q 43.3125 49.21875 43.3125 52.78125 
Q 43.3125 58.59375 39.234375 62.25 
Q 35.15625 65.921875 28.609375 65.921875 
Q 23.96875 65.921875 18.8125 64.3125 
Q 13.671875 62.703125 7.8125 59.421875 
L 7.8125 69.390625 
Q 13.765625 71.78125 18.9375 73 
Q 24.125 74.21875 28.421875 74.21875 
Q 39.75 74.21875 46.484375 68.546875 
Q 53.21875 62.890625 53.21875 53.421875 
Q 53.21875 48.921875 51.53125 44.890625 
Q 49.859375 40.875 45.40625 35.40625 
Q 44.1875 33.984375 37.640625 27.21875 
Q 31.109375 20.453125 19.1875 8.296875 
z
" id="DejaVuSans-50"/>
      </defs>
      <g transform="translate(113.930787 331.300562)scale(0.22 -0.22)">
       <use xlink:href="#DejaVuSans-48"/>
       <use x="63.623047" xlink:href="#DejaVuSans-46"/>
       <use x="95.410156" xlink:href="#DejaVuSans-48"/>
       <use x="159.033203" xlink:href="#DejaVuSans-50"/>
      </g>
     </g>
    </g>
    <g id="xtick_2">
     <g id="line2d_2">
      <g>
       <use style="stroke:#000000;stroke-width:0.8;" x="247.527149" xlink:href="#mb3233db7d5" y="307.584"/>
      </g>
     </g>
     <g id="text_2">
      <!-- 0.04 -->
      <defs>
       <path d="M 37.796875 64.3125 
L 12.890625 25.390625 
L 37.796875 25.390625 
z
M 35.203125 72.90625 
L 47.609375 72.90625 
L 47.609375 25.390625 
L 58.015625 25.390625 
L 58.015625 17.1875 
L 47.609375 17.1875 
L 47.609375 0 
L 37.796875 0 
L 37.796875 17.1875 
L 4.890625 17.1875 
L 4.890625 26.703125 
z
" id="DejaVuSans-52"/>
      </defs>
      <g transform="translate(223.034962 331.300562)scale(0.22 -0.22)">
       <use xlink:href="#DejaVuSans-48"/>
       <use x="63.623047" xlink:href="#DejaVuSans-46"/>
       <use x="95.410156" xlink:href="#DejaVuSans-48"/>
       <use x="159.033203" xlink:href="#DejaVuSans-52"/>
      </g>
     </g>
    </g>
    <g id="xtick_3">
     <g id="line2d_3">
      <g>
       <use style="stroke:#000000;stroke-width:0.8;" x="356.631324" xlink:href="#mb3233db7d5" y="307.584"/>
      </g>
     </g>
     <g id="text_3">
      <!-- 0.06 -->
      <defs>
       <path d="M 33.015625 40.375 
Q 26.375 40.375 22.484375 35.828125 
Q 18.609375 31.296875 18.609375 23.390625 
Q 18.609375 15.53125 22.484375 10.953125 
Q 26.375 6.390625 33.015625 6.390625 
Q 39.65625 6.390625 43.53125 10.953125 
Q 47.40625 15.53125 47.40625 23.390625 
Q 47.40625 31.296875 43.53125 35.828125 
Q 39.65625 40.375 33.015625 40.375 
z
M 52.59375 71.296875 
L 52.59375 62.3125 
Q 48.875 64.0625 45.09375 64.984375 
Q 41.3125 65.921875 37.59375 65.921875 
Q 27.828125 65.921875 22.671875 59.328125 
Q 17.53125 52.734375 16.796875 39.40625 
Q 19.671875 43.65625 24.015625 45.921875 
Q 28.375 48.1875 33.59375 48.1875 
Q 44.578125 48.1875 50.953125 41.515625 
Q 57.328125 34.859375 57.328125 23.390625 
Q 57.328125 12.15625 50.6875 5.359375 
Q 44.046875 -1.421875 33.015625 -1.421875 
Q 20.359375 -1.421875 13.671875 8.265625 
Q 6.984375 17.96875 6.984375 36.375 
Q 6.984375 53.65625 15.1875 63.9375 
Q 23.390625 74.21875 37.203125 74.21875 
Q 40.921875 74.21875 44.703125 73.484375 
Q 48.484375 72.75 52.59375 71.296875 
z
" id="DejaVuSans-54"/>
      </defs>
      <g transform="translate(332.139136 331.300562)scale(0.22 -0.22)">
       <use xlink:href="#DejaVuSans-48"/>
       <use x="63.623047" xlink:href="#DejaVuSans-46"/>
       <use x="95.410156" xlink:href="#DejaVuSans-48"/>
       <use x="159.033203" xlink:href="#DejaVuSans-54"/>
      </g>
     </g>
    </g>
    <g id="text_4">
     <!-- Normalized spectral density in bin -->
     <defs>
      <path d="M 9.8125 72.90625 
L 23.09375 72.90625 
L 55.421875 11.921875 
L 55.421875 72.90625 
L 64.984375 72.90625 
L 64.984375 0 
L 51.703125 0 
L 19.390625 60.984375 
L 19.390625 0 
L 9.8125 0 
z
" id="DejaVuSans-78"/>
      <path d="M 30.609375 48.390625 
Q 23.390625 48.390625 19.1875 42.75 
Q 14.984375 37.109375 14.984375 27.296875 
Q 14.984375 17.484375 19.15625 11.84375 
Q 23.34375 6.203125 30.609375 6.203125 
Q 37.796875 6.203125 41.984375 11.859375 
Q 46.1875 17.53125 46.1875 27.296875 
Q 46.1875 37.015625 41.984375 42.703125 
Q 37.796875 48.390625 30.609375 48.390625 
z
M 30.609375 56 
Q 42.328125 56 49.015625 48.375 
Q 55.71875 40.765625 55.71875 27.296875 
Q 55.71875 13.875 49.015625 6.21875 
Q 42.328125 -1.421875 30.609375 -1.421875 
Q 18.84375 -1.421875 12.171875 6.21875 
Q 5.515625 13.875 5.515625 27.296875 
Q 5.515625 40.765625 12.171875 48.375 
Q 18.84375 56 30.609375 56 
z
" id="DejaVuSans-111"/>
      <path d="M 41.109375 46.296875 
Q 39.59375 47.171875 37.8125 47.578125 
Q 36.03125 48 33.890625 48 
Q 26.265625 48 22.1875 43.046875 
Q 18.109375 38.09375 18.109375 28.8125 
L 18.109375 0 
L 9.078125 0 
L 9.078125 54.6875 
L 18.109375 54.6875 
L 18.109375 46.1875 
Q 20.953125 51.171875 25.484375 53.578125 
Q 30.03125 56 36.53125 56 
Q 37.453125 56 38.578125 55.875 
Q 39.703125 55.765625 41.0625 55.515625 
z
" id="DejaVuSans-114"/>
      <path d="M 52 44.1875 
Q 55.375 50.25 60.0625 53.125 
Q 64.75 56 71.09375 56 
Q 79.640625 56 84.28125 50.015625 
Q 88.921875 44.046875 88.921875 33.015625 
L 88.921875 0 
L 79.890625 0 
L 79.890625 32.71875 
Q 79.890625 40.578125 77.09375 44.375 
Q 74.3125 48.1875 68.609375 48.1875 
Q 61.625 48.1875 57.5625 43.546875 
Q 53.515625 38.921875 53.515625 30.90625 
L 53.515625 0 
L 44.484375 0 
L 44.484375 32.71875 
Q 44.484375 40.625 41.703125 44.40625 
Q 38.921875 48.1875 33.109375 48.1875 
Q 26.21875 48.1875 22.15625 43.53125 
Q 18.109375 38.875 18.109375 30.90625 
L 18.109375 0 
L 9.078125 0 
L 9.078125 54.6875 
L 18.109375 54.6875 
L 18.109375 46.1875 
Q 21.1875 51.21875 25.484375 53.609375 
Q 29.78125 56 35.6875 56 
Q 41.65625 56 45.828125 52.96875 
Q 50 49.953125 52 44.1875 
z
" id="DejaVuSans-109"/>
      <path d="M 34.28125 27.484375 
Q 23.390625 27.484375 19.1875 25 
Q 14.984375 22.515625 14.984375 16.5 
Q 14.984375 11.71875 18.140625 8.90625 
Q 21.296875 6.109375 26.703125 6.109375 
Q 34.1875 6.109375 38.703125 11.40625 
Q 43.21875 16.703125 43.21875 25.484375 
L 43.21875 27.484375 
z
M 52.203125 31.203125 
L 52.203125 0 
L 43.21875 0 
L 43.21875 8.296875 
Q 40.140625 3.328125 35.546875 0.953125 
Q 30.953125 -1.421875 24.3125 -1.421875 
Q 15.921875 -1.421875 10.953125 3.296875 
Q 6 8.015625 6 15.921875 
Q 6 25.140625 12.171875 29.828125 
Q 18.359375 34.515625 30.609375 34.515625 
L 43.21875 34.515625 
L 43.21875 35.40625 
Q 43.21875 41.609375 39.140625 45 
Q 35.0625 48.390625 27.6875 48.390625 
Q 23 48.390625 18.546875 47.265625 
Q 14.109375 46.140625 10.015625 43.890625 
L 10.015625 52.203125 
Q 14.9375 54.109375 19.578125 55.046875 
Q 24.21875 56 28.609375 56 
Q 40.484375 56 46.34375 49.84375 
Q 52.203125 43.703125 52.203125 31.203125 
z
" id="DejaVuSans-97"/>
      <path d="M 9.421875 75.984375 
L 18.40625 75.984375 
L 18.40625 0 
L 9.421875 0 
z
" id="DejaVuSans-108"/>
      <path d="M 9.421875 54.6875 
L 18.40625 54.6875 
L 18.40625 0 
L 9.421875 0 
z
M 9.421875 75.984375 
L 18.40625 75.984375 
L 18.40625 64.59375 
L 9.421875 64.59375 
z
" id="DejaVuSans-105"/>
      <path d="M 5.515625 54.6875 
L 48.1875 54.6875 
L 48.1875 46.484375 
L 14.40625 7.171875 
L 48.1875 7.171875 
L 48.1875 0 
L 4.296875 0 
L 4.296875 8.203125 
L 38.09375 47.515625 
L 5.515625 47.515625 
z
" id="DejaVuSans-122"/>
      <path d="M 56.203125 29.59375 
L 56.203125 25.203125 
L 14.890625 25.203125 
Q 15.484375 15.921875 20.484375 11.0625 
Q 25.484375 6.203125 34.421875 6.203125 
Q 39.59375 6.203125 44.453125 7.46875 
Q 49.3125 8.734375 54.109375 11.28125 
L 54.109375 2.78125 
Q 49.265625 0.734375 44.1875 -0.34375 
Q 39.109375 -1.421875 33.890625 -1.421875 
Q 20.796875 -1.421875 13.15625 6.1875 
Q 5.515625 13.8125 5.515625 26.8125 
Q 5.515625 40.234375 12.765625 48.109375 
Q 20.015625 56 32.328125 56 
Q 43.359375 56 49.78125 48.890625 
Q 56.203125 41.796875 56.203125 29.59375 
z
M 47.21875 32.234375 
Q 47.125 39.59375 43.09375 43.984375 
Q 39.0625 48.390625 32.421875 48.390625 
Q 24.90625 48.390625 20.390625 44.140625 
Q 15.875 39.890625 15.1875 32.171875 
z
" id="DejaVuSans-101"/>
      <path d="M 45.40625 46.390625 
L 45.40625 75.984375 
L 54.390625 75.984375 
L 54.390625 0 
L 45.40625 0 
L 45.40625 8.203125 
Q 42.578125 3.328125 38.25 0.953125 
Q 33.9375 -1.421875 27.875 -1.421875 
Q 17.96875 -1.421875 11.734375 6.484375 
Q 5.515625 14.40625 5.515625 27.296875 
Q 5.515625 40.1875 11.734375 48.09375 
Q 17.96875 56 27.875 56 
Q 33.9375 56 38.25 53.625 
Q 42.578125 51.265625 45.40625 46.390625 
z
M 14.796875 27.296875 
Q 14.796875 17.390625 18.875 11.75 
Q 22.953125 6.109375 30.078125 6.109375 
Q 37.203125 6.109375 41.296875 11.75 
Q 45.40625 17.390625 45.40625 27.296875 
Q 45.40625 37.203125 41.296875 42.84375 
Q 37.203125 48.484375 30.078125 48.484375 
Q 22.953125 48.484375 18.875 42.84375 
Q 14.796875 37.203125 14.796875 27.296875 
z
" id="DejaVuSans-100"/>
      <path id="DejaVuSans-32"/>
      <path d="M 44.28125 53.078125 
L 44.28125 44.578125 
Q 40.484375 46.53125 36.375 47.5 
Q 32.28125 48.484375 27.875 48.484375 
Q 21.1875 48.484375 17.84375 46.4375 
Q 14.5 44.390625 14.5 40.28125 
Q 14.5 37.15625 16.890625 35.375 
Q 19.28125 33.59375 26.515625 31.984375 
L 29.59375 31.296875 
Q 39.15625 29.25 43.1875 25.515625 
Q 47.21875 21.78125 47.21875 15.09375 
Q 47.21875 7.46875 41.1875 3.015625 
Q 35.15625 -1.421875 24.609375 -1.421875 
Q 20.21875 -1.421875 15.453125 -0.5625 
Q 10.6875 0.296875 5.421875 2 
L 5.421875 11.28125 
Q 10.40625 8.6875 15.234375 7.390625 
Q 20.0625 6.109375 24.8125 6.109375 
Q 31.15625 6.109375 34.5625 8.28125 
Q 37.984375 10.453125 37.984375 14.40625 
Q 37.984375 18.0625 35.515625 20.015625 
Q 33.0625 21.96875 24.703125 23.78125 
L 21.578125 24.515625 
Q 13.234375 26.265625 9.515625 29.90625 
Q 5.8125 33.546875 5.8125 39.890625 
Q 5.8125 47.609375 11.28125 51.796875 
Q 16.75 56 26.8125 56 
Q 31.78125 56 36.171875 55.265625 
Q 40.578125 54.546875 44.28125 53.078125 
z
" id="DejaVuSans-115"/>
      <path d="M 18.109375 8.203125 
L 18.109375 -20.796875 
L 9.078125 -20.796875 
L 9.078125 54.6875 
L 18.109375 54.6875 
L 18.109375 46.390625 
Q 20.953125 51.265625 25.265625 53.625 
Q 29.59375 56 35.59375 56 
Q 45.5625 56 51.78125 48.09375 
Q 58.015625 40.1875 58.015625 27.296875 
Q 58.015625 14.40625 51.78125 6.484375 
Q 45.5625 -1.421875 35.59375 -1.421875 
Q 29.59375 -1.421875 25.265625 0.953125 
Q 20.953125 3.328125 18.109375 8.203125 
z
M 48.6875 27.296875 
Q 48.6875 37.203125 44.609375 42.84375 
Q 40.53125 48.484375 33.40625 48.484375 
Q 26.265625 48.484375 22.1875 42.84375 
Q 18.109375 37.203125 18.109375 27.296875 
Q 18.109375 17.390625 22.1875 11.75 
Q 26.265625 6.109375 33.40625 6.109375 
Q 40.53125 6.109375 44.609375 11.75 
Q 48.6875 17.390625 48.6875 27.296875 
z
" id="DejaVuSans-112"/>
      <path d="M 48.78125 52.59375 
L 48.78125 44.1875 
Q 44.96875 46.296875 41.140625 47.34375 
Q 37.3125 48.390625 33.40625 48.390625 
Q 24.65625 48.390625 19.8125 42.84375 
Q 14.984375 37.3125 14.984375 27.296875 
Q 14.984375 17.28125 19.8125 11.734375 
Q 24.65625 6.203125 33.40625 6.203125 
Q 37.3125 6.203125 41.140625 7.25 
Q 44.96875 8.296875 48.78125 10.40625 
L 48.78125 2.09375 
Q 45.015625 0.34375 40.984375 -0.53125 
Q 36.96875 -1.421875 32.421875 -1.421875 
Q 20.0625 -1.421875 12.78125 6.34375 
Q 5.515625 14.109375 5.515625 27.296875 
Q 5.515625 40.671875 12.859375 48.328125 
Q 20.21875 56 33.015625 56 
Q 37.15625 56 41.109375 55.140625 
Q 45.0625 54.296875 48.78125 52.59375 
z
" id="DejaVuSans-99"/>
      <path d="M 18.3125 70.21875 
L 18.3125 54.6875 
L 36.8125 54.6875 
L 36.8125 47.703125 
L 18.3125 47.703125 
L 18.3125 18.015625 
Q 18.3125 11.328125 20.140625 9.421875 
Q 21.96875 7.515625 27.59375 7.515625 
L 36.8125 7.515625 
L 36.8125 0 
L 27.59375 0 
Q 17.1875 0 13.234375 3.875 
Q 9.28125 7.765625 9.28125 18.015625 
L 9.28125 47.703125 
L 2.6875 47.703125 
L 2.6875 54.6875 
L 9.28125 54.6875 
L 9.28125 70.21875 
z
" id="DejaVuSans-116"/>
      <path d="M 54.890625 33.015625 
L 54.890625 0 
L 45.90625 0 
L 45.90625 32.71875 
Q 45.90625 40.484375 42.875 44.328125 
Q 39.84375 48.1875 33.796875 48.1875 
Q 26.515625 48.1875 22.3125 43.546875 
Q 18.109375 38.921875 18.109375 30.90625 
L 18.109375 0 
L 9.078125 0 
L 9.078125 54.6875 
L 18.109375 54.6875 
L 18.109375 46.1875 
Q 21.34375 51.125 25.703125 53.5625 
Q 30.078125 56 35.796875 56 
Q 45.21875 56 50.046875 50.171875 
Q 54.890625 44.34375 54.890625 33.015625 
z
" id="DejaVuSans-110"/>
      <path d="M 32.171875 -5.078125 
Q 28.375 -14.84375 24.75 -17.8125 
Q 21.140625 -20.796875 15.09375 -20.796875 
L 7.90625 -20.796875 
L 7.90625 -13.28125 
L 13.1875 -13.28125 
Q 16.890625 -13.28125 18.9375 -11.515625 
Q 21 -9.765625 23.484375 -3.21875 
L 25.09375 0.875 
L 2.984375 54.6875 
L 12.5 54.6875 
L 29.59375 11.921875 
L 46.6875 54.6875 
L 56.203125 54.6875 
z
" id="DejaVuSans-121"/>
      <path d="M 48.6875 27.296875 
Q 48.6875 37.203125 44.609375 42.84375 
Q 40.53125 48.484375 33.40625 48.484375 
Q 26.265625 48.484375 22.1875 42.84375 
Q 18.109375 37.203125 18.109375 27.296875 
Q 18.109375 17.390625 22.1875 11.75 
Q 26.265625 6.109375 33.40625 6.109375 
Q 40.53125 6.109375 44.609375 11.75 
Q 48.6875 17.390625 48.6875 27.296875 
z
M 18.109375 46.390625 
Q 20.953125 51.265625 25.265625 53.625 
Q 29.59375 56 35.59375 56 
Q 45.5625 56 51.78125 48.09375 
Q 58.015625 40.1875 58.015625 27.296875 
Q 58.015625 14.40625 51.78125 6.484375 
Q 45.5625 -1.421875 35.59375 -1.421875 
Q 29.59375 -1.421875 25.265625 0.953125 
Q 20.953125 3.328125 18.109375 8.203125 
L 18.109375 0 
L 9.078125 0 
L 9.078125 75.984375 
L 18.109375 75.984375 
z
" id="DejaVuSans-98"/>
     </defs>
     <g transform="translate(48.072031 356.592437)scale(0.22 -0.22)">
      <use xlink:href="#DejaVuSans-78"/>
      <use x="74.804688" xlink:href="#DejaVuSans-111"/>
      <use x="135.986328" xlink:href="#DejaVuSans-114"/>
      <use x="177.083984" xlink:href="#DejaVuSans-109"/>
      <use x="274.496094" xlink:href="#DejaVuSans-97"/>
      <use x="335.775391" xlink:href="#DejaVuSans-108"/>
      <use x="363.558594" xlink:href="#DejaVuSans-105"/>
      <use x="391.341797" xlink:href="#DejaVuSans-122"/>
      <use x="443.832031" xlink:href="#DejaVuSans-101"/>
      <use x="505.355469" xlink:href="#DejaVuSans-100"/>
      <use x="568.832031" xlink:href="#DejaVuSans-32"/>
      <use x="600.619141" xlink:href="#DejaVuSans-115"/>
      <use x="652.71875" xlink:href="#DejaVuSans-112"/>
      <use x="716.195312" xlink:href="#DejaVuSans-101"/>
      <use x="777.71875" xlink:href="#DejaVuSans-99"/>
      <use x="832.699219" xlink:href="#DejaVuSans-116"/>
      <use x="871.908203" xlink:href="#DejaVuSans-114"/>
      <use x="913.021484" xlink:href="#DejaVuSans-97"/>
      <use x="974.300781" xlink:href="#DejaVuSans-108"/>
      <use x="1002.083984" xlink:href="#DejaVuSans-32"/>
      <use x="1033.871094" xlink:href="#DejaVuSans-100"/>
      <use x="1097.347656" xlink:href="#DejaVuSans-101"/>
      <use x="1158.871094" xlink:href="#DejaVuSans-110"/>
      <use x="1222.25" xlink:href="#DejaVuSans-115"/>
      <use x="1274.349609" xlink:href="#DejaVuSans-105"/>
      <use x="1302.132812" xlink:href="#DejaVuSans-116"/>
      <use x="1341.341797" xlink:href="#DejaVuSans-121"/>
      <use x="1400.521484" xlink:href="#DejaVuSans-32"/>
      <use x="1432.308594" xlink:href="#DejaVuSans-105"/>
      <use x="1460.091797" xlink:href="#DejaVuSans-110"/>
      <use x="1523.470703" xlink:href="#DejaVuSans-32"/>
      <use x="1555.257812" xlink:href="#DejaVuSans-98"/>
      <use x="1618.734375" xlink:href="#DejaVuSans-105"/>
      <use x="1646.517578" xlink:href="#DejaVuSans-110"/>
     </g>
    </g>
   </g>
   <g id="matplotlib.axis_2">
    <g id="ytick_1">
     <g id="line2d_4">
      <defs>
       <path d="M 0 0 
L -3.5 0 
" id="m8375730267" style="stroke:#000000;stroke-width:0.8;"/>
      </defs>
      <g>
       <use style="stroke:#000000;stroke-width:0.8;" x="57.6" xlink:href="#m8375730267" y="296.6976"/>
      </g>
     </g>
     <g id="text_5">
      <!-- 0.0 -->
      <g transform="translate(15.613125 305.055881)scale(0.22 -0.22)">
       <use xlink:href="#DejaVuSans-48"/>
       <use x="63.623047" xlink:href="#DejaVuSans-46"/>
       <use x="95.410156" xlink:href="#DejaVuSans-48"/>
      </g>
     </g>
    </g>
    <g id="ytick_2">
     <g id="line2d_5">
      <g>
       <use style="stroke:#000000;stroke-width:0.8;" x="57.6" xlink:href="#m8375730267" y="248.07168"/>
      </g>
     </g>
     <g id="text_6">
      <!-- 0.2 -->
      <g transform="translate(15.613125 256.429961)scale(0.22 -0.22)">
       <use xlink:href="#DejaVuSans-48"/>
       <use x="63.623047" xlink:href="#DejaVuSans-46"/>
       <use x="95.410156" xlink:href="#DejaVuSans-50"/>
      </g>
     </g>
    </g>
    <g id="ytick_3">
     <g id="line2d_6">
      <g>
       <use style="stroke:#000000;stroke-width:0.8;" x="57.6" xlink:href="#m8375730267" y="199.44576"/>
      </g>
     </g>
     <g id="text_7">
      <!-- 0.4 -->
      <g transform="translate(15.613125 207.804041)scale(0.22 -0.22)">
       <use xlink:href="#DejaVuSans-48"/>
       <use x="63.623047" xlink:href="#DejaVuSans-46"/>
       <use x="95.410156" xlink:href="#DejaVuSans-52"/>
      </g>
     </g>
    </g>
    <g id="ytick_4">
     <g id="line2d_7">
      <g>
       <use style="stroke:#000000;stroke-width:0.8;" x="57.6" xlink:href="#m8375730267" y="150.81984"/>
      </g>
     </g>
     <g id="text_8">
      <!-- 0.6 -->
      <g transform="translate(15.613125 159.178121)scale(0.22 -0.22)">
       <use xlink:href="#DejaVuSans-48"/>
       <use x="63.623047" xlink:href="#DejaVuSans-46"/>
       <use x="95.410156" xlink:href="#DejaVuSans-54"/>
      </g>
     </g>
    </g>
    <g id="ytick_5">
     <g id="line2d_8">
      <g>
       <use style="stroke:#000000;stroke-width:0.8;" x="57.6" xlink:href="#m8375730267" y="102.19392"/>
      </g>
     </g>
     <g id="text_9">
      <!-- 0.8 -->
      <defs>
       <path d="M 31.78125 34.625 
Q 24.75 34.625 20.71875 30.859375 
Q 16.703125 27.09375 16.703125 20.515625 
Q 16.703125 13.921875 20.71875 10.15625 
Q 24.75 6.390625 31.78125 6.390625 
Q 38.8125 6.390625 42.859375 10.171875 
Q 46.921875 13.96875 46.921875 20.515625 
Q 46.921875 27.09375 42.890625 30.859375 
Q 38.875 34.625 31.78125 34.625 
z
M 21.921875 38.8125 
Q 15.578125 40.375 12.03125 44.71875 
Q 8.5 49.078125 8.5 55.328125 
Q 8.5 64.0625 14.71875 69.140625 
Q 20.953125 74.21875 31.78125 74.21875 
Q 42.671875 74.21875 48.875 69.140625 
Q 55.078125 64.0625 55.078125 55.328125 
Q 55.078125 49.078125 51.53125 44.71875 
Q 48 40.375 41.703125 38.8125 
Q 48.828125 37.15625 52.796875 32.3125 
Q 56.78125 27.484375 56.78125 20.515625 
Q 56.78125 9.90625 50.3125 4.234375 
Q 43.84375 -1.421875 31.78125 -1.421875 
Q 19.734375 -1.421875 13.25 4.234375 
Q 6.78125 9.90625 6.78125 20.515625 
Q 6.78125 27.484375 10.78125 32.3125 
Q 14.796875 37.15625 21.921875 38.8125 
z
M 18.3125 54.390625 
Q 18.3125 48.734375 21.84375 45.5625 
Q 25.390625 42.390625 31.78125 42.390625 
Q 38.140625 42.390625 41.71875 45.5625 
Q 45.3125 48.734375 45.3125 54.390625 
Q 45.3125 60.0625 41.71875 63.234375 
Q 38.140625 66.40625 31.78125 66.40625 
Q 25.390625 66.40625 21.84375 63.234375 
Q 18.3125 60.0625 18.3125 54.390625 
z
" id="DejaVuSans-56"/>
      </defs>
      <g transform="translate(15.613125 110.552201)scale(0.22 -0.22)">
       <use xlink:href="#DejaVuSans-48"/>
       <use x="63.623047" xlink:href="#DejaVuSans-46"/>
       <use x="95.410156" xlink:href="#DejaVuSans-56"/>
      </g>
     </g>
    </g>
    <g id="ytick_6">
     <g id="line2d_9">
      <g>
       <use style="stroke:#000000;stroke-width:0.8;" x="57.6" xlink:href="#m8375730267" y="53.568"/>
      </g>
     </g>
     <g id="text_10">
      <!-- 1.0 -->
      <defs>
       <path d="M 12.40625 8.296875 
L 28.515625 8.296875 
L 28.515625 63.921875 
L 10.984375 60.40625 
L 10.984375 69.390625 
L 28.421875 72.90625 
L 38.28125 72.90625 
L 38.28125 8.296875 
L 54.390625 8.296875 
L 54.390625 0 
L 12.40625 0 
z
" id="DejaVuSans-49"/>
      </defs>
      <g transform="translate(15.613125 61.926281)scale(0.22 -0.22)">
       <use xlink:href="#DejaVuSans-49"/>
       <use x="63.623047" xlink:href="#DejaVuSans-46"/>
       <use x="95.410156" xlink:href="#DejaVuSans-48"/>
      </g>
     </g>
    </g>
    <g id="text_11">
     <!-- ECDF -->
     <defs>
      <path d="M 9.8125 72.90625 
L 55.90625 72.90625 
L 55.90625 64.59375 
L 19.671875 64.59375 
L 19.671875 43.015625 
L 54.390625 43.015625 
L 54.390625 34.71875 
L 19.671875 34.71875 
L 19.671875 8.296875 
L 56.78125 8.296875 
L 56.78125 0 
L 9.8125 0 
z
" id="DejaVuSans-69"/>
      <path d="M 64.40625 67.28125 
L 64.40625 56.890625 
Q 59.421875 61.53125 53.78125 63.8125 
Q 48.140625 66.109375 41.796875 66.109375 
Q 29.296875 66.109375 22.65625 58.46875 
Q 16.015625 50.828125 16.015625 36.375 
Q 16.015625 21.96875 22.65625 14.328125 
Q 29.296875 6.6875 41.796875 6.6875 
Q 48.140625 6.6875 53.78125 8.984375 
Q 59.421875 11.28125 64.40625 15.921875 
L 64.40625 5.609375 
Q 59.234375 2.09375 53.4375 0.328125 
Q 47.65625 -1.421875 41.21875 -1.421875 
Q 24.65625 -1.421875 15.125 8.703125 
Q 5.609375 18.84375 5.609375 36.375 
Q 5.609375 53.953125 15.125 64.078125 
Q 24.65625 74.21875 41.21875 74.21875 
Q 47.75 74.21875 53.53125 72.484375 
Q 59.328125 70.75 64.40625 67.28125 
z
" id="DejaVuSans-67"/>
      <path d="M 19.671875 64.796875 
L 19.671875 8.109375 
L 31.59375 8.109375 
Q 46.6875 8.109375 53.6875 14.9375 
Q 60.6875 21.78125 60.6875 36.53125 
Q 60.6875 51.171875 53.6875 57.984375 
Q 46.6875 64.796875 31.59375 64.796875 
z
M 9.8125 72.90625 
L 30.078125 72.90625 
Q 51.265625 72.90625 61.171875 64.09375 
Q 71.09375 55.28125 71.09375 36.53125 
Q 71.09375 17.671875 61.125 8.828125 
Q 51.171875 0 30.078125 0 
L 9.8125 0 
z
" id="DejaVuSans-68"/>
      <path d="M 9.8125 72.90625 
L 51.703125 72.90625 
L 51.703125 64.59375 
L 19.671875 64.59375 
L 19.671875 43.109375 
L 48.578125 43.109375 
L 48.578125 34.8125 
L 19.671875 34.8125 
L 19.671875 0 
L 9.8125 0 
z
" id="DejaVuSans-70"/>
     </defs>
     <g transform="translate(7.037813 203.956437)rotate(-90)scale(0.22 -0.22)">
      <use xlink:href="#DejaVuSans-69"/>
      <use x="63.183594" xlink:href="#DejaVuSans-67"/>
      <use x="133.007812" xlink:href="#DejaVuSans-68"/>
      <use x="210.009766" xlink:href="#DejaVuSans-70"/>
     </g>
    </g>
   </g>
   <g id="line2d_10">
    <defs>
     <path d="M 0 3 
C 0.795609 3 1.55874 2.683901 2.12132 2.12132 
C 2.683901 1.55874 3 0.795609 3 0 
C 3 -0.795609 2.683901 -1.55874 2.12132 -2.12132 
C 1.55874 -2.683901 0.795609 -3 0 -3 
C -0.795609 -3 -1.55874 -2.683901 -2.12132 -2.12132 
C -2.683901 -1.55874 -3 -0.795609 -3 0 
C -3 0.795609 -2.683901 1.55874 -2.12132 2.12132 
C -1.55874 2.683901 -0.795609 3 0 3 
z
" id="m45e8d7f5ce" style="stroke:#1f77b4;"/>
    </defs>
    <g clip-path="url(#p36faff0e04)">
     <use style="fill:#1f77b4;stroke:#1f77b4;" x="82.58975" xlink:href="#m45e8d7f5ce" y="294.359815"/>
     <use style="fill:#1f77b4;stroke:#1f77b4;" x="103.492348" xlink:href="#m45e8d7f5ce" y="292.022031"/>
     <use style="fill:#1f77b4;stroke:#1f77b4;" x="103.696025" xlink:href="#m45e8d7f5ce" y="289.684246"/>
     <use style="fill:#1f77b4;stroke:#1f77b4;" x="106.45336" xlink:href="#m45e8d7f5ce" y="287.346462"/>
     <use style="fill:#1f77b4;stroke:#1f77b4;" x="113.767677" xlink:href="#m45e8d7f5ce" y="285.008677"/>
     <use style="fill:#1f77b4;stroke:#1f77b4;" x="115.546383" xlink:href="#m45e8d7f5ce" y="282.670892"/>
     <use style="fill:#1f77b4;stroke:#1f77b4;" x="121.851433" xlink:href="#m45e8d7f5ce" y="280.333108"/>
     <use style="fill:#1f77b4;stroke:#1f77b4;" x="122.667965" xlink:href="#m45e8d7f5ce" y="277.995323"/>
     <use style="fill:#1f77b4;stroke:#1f77b4;" x="125.374176" xlink:href="#m45e8d7f5ce" y="275.657538"/>
     <use style="fill:#1f77b4;stroke:#1f77b4;" x="125.852202" xlink:href="#m45e8d7f5ce" y="273.319754"/>
     <use style="fill:#1f77b4;stroke:#1f77b4;" x="129.994694" xlink:href="#m45e8d7f5ce" y="270.981969"/>
     <use style="fill:#1f77b4;stroke:#1f77b4;" x="131.784612" xlink:href="#m45e8d7f5ce" y="268.644185"/>
     <use style="fill:#1f77b4;stroke:#1f77b4;" x="135.385705" xlink:href="#m45e8d7f5ce" y="266.3064"/>
     <use style="fill:#1f77b4;stroke:#1f77b4;" x="136.981634" xlink:href="#m45e8d7f5ce" y="263.968615"/>
     <use style="fill:#1f77b4;stroke:#1f77b4;" x="137.001044" xlink:href="#m45e8d7f5ce" y="261.630831"/>
     <use style="fill:#1f77b4;stroke:#1f77b4;" x="138.150748" xlink:href="#m45e8d7f5ce" y="259.293046"/>
     <use style="fill:#1f77b4;stroke:#1f77b4;" x="138.982755" xlink:href="#m45e8d7f5ce" y="256.955262"/>
     <use style="fill:#1f77b4;stroke:#1f77b4;" x="139.128762" xlink:href="#m45e8d7f5ce" y="254.617477"/>
     <use style="fill:#1f77b4;stroke:#1f77b4;" x="141.711844" xlink:href="#m45e8d7f5ce" y="252.279692"/>
     <use style="fill:#1f77b4;stroke:#1f77b4;" x="144.436656" xlink:href="#m45e8d7f5ce" y="249.941908"/>
     <use style="fill:#1f77b4;stroke:#1f77b4;" x="144.489369" xlink:href="#m45e8d7f5ce" y="247.604123"/>
     <use style="fill:#1f77b4;stroke:#1f77b4;" x="144.708508" xlink:href="#m45e8d7f5ce" y="245.266338"/>
     <use style="fill:#1f77b4;stroke:#1f77b4;" x="146.014259" xlink:href="#m45e8d7f5ce" y="242.928554"/>
     <use style="fill:#1f77b4;stroke:#1f77b4;" x="147.326946" xlink:href="#m45e8d7f5ce" y="240.590769"/>
     <use style="fill:#1f77b4;stroke:#1f77b4;" x="148.490033" xlink:href="#m45e8d7f5ce" y="238.252985"/>
     <use style="fill:#1f77b4;stroke:#1f77b4;" x="149.872129" xlink:href="#m45e8d7f5ce" y="235.9152"/>
     <use style="fill:#1f77b4;stroke:#1f77b4;" x="150.565688" xlink:href="#m45e8d7f5ce" y="233.577415"/>
     <use style="fill:#1f77b4;stroke:#1f77b4;" x="154.896587" xlink:href="#m45e8d7f5ce" y="231.239631"/>
     <use style="fill:#1f77b4;stroke:#1f77b4;" x="156.635676" xlink:href="#m45e8d7f5ce" y="228.901846"/>
     <use style="fill:#1f77b4;stroke:#1f77b4;" x="159.004377" xlink:href="#m45e8d7f5ce" y="226.564062"/>
     <use style="fill:#1f77b4;stroke:#1f77b4;" x="161.831726" xlink:href="#m45e8d7f5ce" y="224.226277"/>
     <use style="fill:#1f77b4;stroke:#1f77b4;" x="162.23833" xlink:href="#m45e8d7f5ce" y="221.888492"/>
     <use style="fill:#1f77b4;stroke:#1f77b4;" x="162.664344" xlink:href="#m45e8d7f5ce" y="219.550708"/>
     <use style="fill:#1f77b4;stroke:#1f77b4;" x="162.807457" xlink:href="#m45e8d7f5ce" y="217.212923"/>
     <use style="fill:#1f77b4;stroke:#1f77b4;" x="163.149265" xlink:href="#m45e8d7f5ce" y="214.875138"/>
     <use style="fill:#1f77b4;stroke:#1f77b4;" x="163.432944" xlink:href="#m45e8d7f5ce" y="212.537354"/>
     <use style="fill:#1f77b4;stroke:#1f77b4;" x="168.809753" xlink:href="#m45e8d7f5ce" y="210.199569"/>
     <use style="fill:#1f77b4;stroke:#1f77b4;" x="169.071591" xlink:href="#m45e8d7f5ce" y="207.861785"/>
     <use style="fill:#1f77b4;stroke:#1f77b4;" x="170.436155" xlink:href="#m45e8d7f5ce" y="205.524"/>
     <use style="fill:#1f77b4;stroke:#1f77b4;" x="170.841131" xlink:href="#m45e8d7f5ce" y="203.186215"/>
     <use style="fill:#1f77b4;stroke:#1f77b4;" x="175.031479" xlink:href="#m45e8d7f5ce" y="200.848431"/>
     <use style="fill:#1f77b4;stroke:#1f77b4;" x="177.439922" xlink:href="#m45e8d7f5ce" y="198.510646"/>
     <use style="fill:#1f77b4;stroke:#1f77b4;" x="180.770729" xlink:href="#m45e8d7f5ce" y="196.172862"/>
     <use style="fill:#1f77b4;stroke:#1f77b4;" x="183.614396" xlink:href="#m45e8d7f5ce" y="193.835077"/>
     <use style="fill:#1f77b4;stroke:#1f77b4;" x="185.479881" xlink:href="#m45e8d7f5ce" y="191.497292"/>
     <use style="fill:#1f77b4;stroke:#1f77b4;" x="189.325412" xlink:href="#m45e8d7f5ce" y="189.159508"/>
     <use style="fill:#1f77b4;stroke:#1f77b4;" x="190.456143" xlink:href="#m45e8d7f5ce" y="186.821723"/>
     <use style="fill:#1f77b4;stroke:#1f77b4;" x="191.028664" xlink:href="#m45e8d7f5ce" y="184.483938"/>
     <use style="fill:#1f77b4;stroke:#1f77b4;" x="192.523718" xlink:href="#m45e8d7f5ce" y="182.146154"/>
     <use style="fill:#1f77b4;stroke:#1f77b4;" x="192.828751" xlink:href="#m45e8d7f5ce" y="179.808369"/>
     <use style="fill:#1f77b4;stroke:#1f77b4;" x="196.81205" xlink:href="#m45e8d7f5ce" y="177.470585"/>
     <use style="fill:#1f77b4;stroke:#1f77b4;" x="197.1182" xlink:href="#m45e8d7f5ce" y="175.1328"/>
     <use style="fill:#1f77b4;stroke:#1f77b4;" x="198.733425" xlink:href="#m45e8d7f5ce" y="172.795015"/>
     <use style="fill:#1f77b4;stroke:#1f77b4;" x="199.202884" xlink:href="#m45e8d7f5ce" y="170.457231"/>
     <use style="fill:#1f77b4;stroke:#1f77b4;" x="199.434227" xlink:href="#m45e8d7f5ce" y="168.119446"/>
     <use style="fill:#1f77b4;stroke:#1f77b4;" x="200.03665" xlink:href="#m45e8d7f5ce" y="165.781662"/>
     <use style="fill:#1f77b4;stroke:#1f77b4;" x="203.952668" xlink:href="#m45e8d7f5ce" y="163.443877"/>
     <use style="fill:#1f77b4;stroke:#1f77b4;" x="206.261439" xlink:href="#m45e8d7f5ce" y="161.106092"/>
     <use style="fill:#1f77b4;stroke:#1f77b4;" x="208.252367" xlink:href="#m45e8d7f5ce" y="158.768308"/>
     <use style="fill:#1f77b4;stroke:#1f77b4;" x="210.300989" xlink:href="#m45e8d7f5ce" y="156.430523"/>
     <use style="fill:#1f77b4;stroke:#1f77b4;" x="210.62817" xlink:href="#m45e8d7f5ce" y="154.092738"/>
     <use style="fill:#1f77b4;stroke:#1f77b4;" x="214.285683" xlink:href="#m45e8d7f5ce" y="151.754954"/>
     <use style="fill:#1f77b4;stroke:#1f77b4;" x="215.19374" xlink:href="#m45e8d7f5ce" y="149.417169"/>
     <use style="fill:#1f77b4;stroke:#1f77b4;" x="218.331783" xlink:href="#m45e8d7f5ce" y="147.079385"/>
     <use style="fill:#1f77b4;stroke:#1f77b4;" x="220.372133" xlink:href="#m45e8d7f5ce" y="144.7416"/>
     <use style="fill:#1f77b4;stroke:#1f77b4;" x="221.283442" xlink:href="#m45e8d7f5ce" y="142.403815"/>
     <use style="fill:#1f77b4;stroke:#1f77b4;" x="222.295653" xlink:href="#m45e8d7f5ce" y="140.066031"/>
     <use style="fill:#1f77b4;stroke:#1f77b4;" x="229.450986" xlink:href="#m45e8d7f5ce" y="137.728246"/>
     <use style="fill:#1f77b4;stroke:#1f77b4;" x="229.706614" xlink:href="#m45e8d7f5ce" y="135.390462"/>
     <use style="fill:#1f77b4;stroke:#1f77b4;" x="232.364987" xlink:href="#m45e8d7f5ce" y="133.052677"/>
     <use style="fill:#1f77b4;stroke:#1f77b4;" x="232.71366" xlink:href="#m45e8d7f5ce" y="130.714892"/>
     <use style="fill:#1f77b4;stroke:#1f77b4;" x="234.000019" xlink:href="#m45e8d7f5ce" y="128.377108"/>
     <use style="fill:#1f77b4;stroke:#1f77b4;" x="241.90692" xlink:href="#m45e8d7f5ce" y="126.039323"/>
     <use style="fill:#1f77b4;stroke:#1f77b4;" x="242.061559" xlink:href="#m45e8d7f5ce" y="123.701538"/>
     <use style="fill:#1f77b4;stroke:#1f77b4;" x="242.884774" xlink:href="#m45e8d7f5ce" y="121.363754"/>
     <use style="fill:#1f77b4;stroke:#1f77b4;" x="246.868511" xlink:href="#m45e8d7f5ce" y="119.025969"/>
     <use style="fill:#1f77b4;stroke:#1f77b4;" x="254.688116" xlink:href="#m45e8d7f5ce" y="116.688185"/>
     <use style="fill:#1f77b4;stroke:#1f77b4;" x="255.06637" xlink:href="#m45e8d7f5ce" y="114.3504"/>
     <use style="fill:#1f77b4;stroke:#1f77b4;" x="258.337321" xlink:href="#m45e8d7f5ce" y="112.012615"/>
     <use style="fill:#1f77b4;stroke:#1f77b4;" x="262.646332" xlink:href="#m45e8d7f5ce" y="109.674831"/>
     <use style="fill:#1f77b4;stroke:#1f77b4;" x="266.904899" xlink:href="#m45e8d7f5ce" y="107.337046"/>
     <use style="fill:#1f77b4;stroke:#1f77b4;" x="267.202072" xlink:href="#m45e8d7f5ce" y="104.999262"/>
     <use style="fill:#1f77b4;stroke:#1f77b4;" x="275.728597" xlink:href="#m45e8d7f5ce" y="102.661477"/>
     <use style="fill:#1f77b4;stroke:#1f77b4;" x="279.895664" xlink:href="#m45e8d7f5ce" y="100.323692"/>
     <use style="fill:#1f77b4;stroke:#1f77b4;" x="282.256532" xlink:href="#m45e8d7f5ce" y="97.985908"/>
     <use style="fill:#1f77b4;stroke:#1f77b4;" x="284.06852" xlink:href="#m45e8d7f5ce" y="95.648123"/>
     <use style="fill:#1f77b4;stroke:#1f77b4;" x="286.860762" xlink:href="#m45e8d7f5ce" y="93.310338"/>
     <use style="fill:#1f77b4;stroke:#1f77b4;" x="291.961939" xlink:href="#m45e8d7f5ce" y="90.972554"/>
     <use style="fill:#1f77b4;stroke:#1f77b4;" x="305.620827" xlink:href="#m45e8d7f5ce" y="88.634769"/>
     <use style="fill:#1f77b4;stroke:#1f77b4;" x="306.208913" xlink:href="#m45e8d7f5ce" y="86.296985"/>
     <use style="fill:#1f77b4;stroke:#1f77b4;" x="308.709345" xlink:href="#m45e8d7f5ce" y="83.9592"/>
     <use style="fill:#1f77b4;stroke:#1f77b4;" x="309.410931" xlink:href="#m45e8d7f5ce" y="81.621415"/>
     <use style="fill:#1f77b4;stroke:#1f77b4;" x="310.98626" xlink:href="#m45e8d7f5ce" y="79.283631"/>
     <use style="fill:#1f77b4;stroke:#1f77b4;" x="325.244482" xlink:href="#m45e8d7f5ce" y="76.945846"/>
     <use style="fill:#1f77b4;stroke:#1f77b4;" x="326.603303" xlink:href="#m45e8d7f5ce" y="74.608062"/>
     <use style="fill:#1f77b4;stroke:#1f77b4;" x="326.723681" xlink:href="#m45e8d7f5ce" y="72.270277"/>
     <use style="fill:#1f77b4;stroke:#1f77b4;" x="337.211975" xlink:href="#m45e8d7f5ce" y="69.932492"/>
     <use style="fill:#1f77b4;stroke:#1f77b4;" x="338.394445" xlink:href="#m45e8d7f5ce" y="67.594708"/>
     <use style="fill:#1f77b4;stroke:#1f77b4;" x="338.433293" xlink:href="#m45e8d7f5ce" y="65.256923"/>
     <use style="fill:#1f77b4;stroke:#1f77b4;" x="344.25785" xlink:href="#m45e8d7f5ce" y="62.919138"/>
     <use style="fill:#1f77b4;stroke:#1f77b4;" x="364.933539" xlink:href="#m45e8d7f5ce" y="60.581354"/>
     <use style="fill:#1f77b4;stroke:#1f77b4;" x="372.74174" xlink:href="#m45e8d7f5ce" y="58.243569"/>
     <use style="fill:#1f77b4;stroke:#1f77b4;" x="373.535984" xlink:href="#m45e8d7f5ce" y="55.905785"/>
     <use style="fill:#1f77b4;stroke:#1f77b4;" x="398.487273" xlink:href="#m45e8d7f5ce" y="53.568"/>
    </g>
   </g>
   <g id="line2d_11">
    <defs>
     <path d="M 0 3 
C 0.795609 3 1.55874 2.683901 2.12132 2.12132 
C 2.683901 1.55874 3 0.795609 3 0 
C 3 -0.795609 2.683901 -1.55874 2.12132 -2.12132 
C 1.55874 -2.683901 0.795609 -3 0 -3 
C -0.795609 -3 -1.55874 -2.683901 -2.12132 -2.12132 
C -2.683901 -1.55874 -3 -0.795609 -3 0 
C -3 0.795609 -2.683901 1.55874 -2.12132 2.12132 
C -1.55874 2.683901 -0.795609 3 0 3 
z
" id="md0faeac302" style="stroke:#ff7f0e;"/>
    </defs>
    <g clip-path="url(#p36faff0e04)">
     <use style="fill:#ff7f0e;stroke:#ff7f0e;" x="73.832727" xlink:href="#md0faeac302" y="295.488"/>
     <use style="fill:#ff7f0e;stroke:#ff7f0e;" x="76.042543" xlink:href="#md0faeac302" y="294.2784"/>
     <use style="fill:#ff7f0e;stroke:#ff7f0e;" x="76.179732" xlink:href="#md0faeac302" y="293.0688"/>
     <use style="fill:#ff7f0e;stroke:#ff7f0e;" x="80.931528" xlink:href="#md0faeac302" y="291.8592"/>
     <use style="fill:#ff7f0e;stroke:#ff7f0e;" x="83.925216" xlink:href="#md0faeac302" y="290.6496"/>
     <use style="fill:#ff7f0e;stroke:#ff7f0e;" x="83.96037" xlink:href="#md0faeac302" y="289.44"/>
     <use style="fill:#ff7f0e;stroke:#ff7f0e;" x="85.710666" xlink:href="#md0faeac302" y="288.2304"/>
     <use style="fill:#ff7f0e;stroke:#ff7f0e;" x="86.845779" xlink:href="#md0faeac302" y="287.0208"/>
     <use style="fill:#ff7f0e;stroke:#ff7f0e;" x="87.128483" xlink:href="#md0faeac302" y="285.8112"/>
     <use style="fill:#ff7f0e;stroke:#ff7f0e;" x="87.624921" xlink:href="#md0faeac302" y="284.6016"/>
     <use style="fill:#ff7f0e;stroke:#ff7f0e;" x="88.817844" xlink:href="#md0faeac302" y="283.392"/>
     <use style="fill:#ff7f0e;stroke:#ff7f0e;" x="90.081292" xlink:href="#md0faeac302" y="282.1824"/>
     <use style="fill:#ff7f0e;stroke:#ff7f0e;" x="90.335243" xlink:href="#md0faeac302" y="280.9728"/>
     <use style="fill:#ff7f0e;stroke:#ff7f0e;" x="90.777693" xlink:href="#md0faeac302" y="279.7632"/>
     <use style="fill:#ff7f0e;stroke:#ff7f0e;" x="90.903568" xlink:href="#md0faeac302" y="278.5536"/>
     <use style="fill:#ff7f0e;stroke:#ff7f0e;" x="90.911058" xlink:href="#md0faeac302" y="277.344"/>
     <use style="fill:#ff7f0e;stroke:#ff7f0e;" x="90.988006" xlink:href="#md0faeac302" y="276.1344"/>
     <use style="fill:#ff7f0e;stroke:#ff7f0e;" x="91.350087" xlink:href="#md0faeac302" y="274.9248"/>
     <use style="fill:#ff7f0e;stroke:#ff7f0e;" x="91.448483" xlink:href="#md0faeac302" y="273.7152"/>
     <use style="fill:#ff7f0e;stroke:#ff7f0e;" x="91.555473" xlink:href="#md0faeac302" y="272.5056"/>
     <use style="fill:#ff7f0e;stroke:#ff7f0e;" x="91.6738" xlink:href="#md0faeac302" y="271.296"/>
     <use style="fill:#ff7f0e;stroke:#ff7f0e;" x="92.679836" xlink:href="#md0faeac302" y="270.0864"/>
     <use style="fill:#ff7f0e;stroke:#ff7f0e;" x="92.850289" xlink:href="#md0faeac302" y="268.8768"/>
     <use style="fill:#ff7f0e;stroke:#ff7f0e;" x="92.853319" xlink:href="#md0faeac302" y="267.6672"/>
     <use style="fill:#ff7f0e;stroke:#ff7f0e;" x="93.173226" xlink:href="#md0faeac302" y="266.4576"/>
     <use style="fill:#ff7f0e;stroke:#ff7f0e;" x="93.17624" xlink:href="#md0faeac302" y="265.248"/>
     <use style="fill:#ff7f0e;stroke:#ff7f0e;" x="93.415416" xlink:href="#md0faeac302" y="264.0384"/>
     <use style="fill:#ff7f0e;stroke:#ff7f0e;" x="93.506417" xlink:href="#md0faeac302" y="262.8288"/>
     <use style="fill:#ff7f0e;stroke:#ff7f0e;" x="93.75282" xlink:href="#md0faeac302" y="261.6192"/>
     <use style="fill:#ff7f0e;stroke:#ff7f0e;" x="93.753608" xlink:href="#md0faeac302" y="260.4096"/>
     <use style="fill:#ff7f0e;stroke:#ff7f0e;" x="93.835606" xlink:href="#md0faeac302" y="259.2"/>
     <use style="fill:#ff7f0e;stroke:#ff7f0e;" x="93.926658" xlink:href="#md0faeac302" y="257.9904"/>
     <use style="fill:#ff7f0e;stroke:#ff7f0e;" x="94.035206" xlink:href="#md0faeac302" y="256.7808"/>
     <use style="fill:#ff7f0e;stroke:#ff7f0e;" x="94.371629" xlink:href="#md0faeac302" y="255.5712"/>
     <use style="fill:#ff7f0e;stroke:#ff7f0e;" x="94.490328" xlink:href="#md0faeac302" y="254.3616"/>
     <use style="fill:#ff7f0e;stroke:#ff7f0e;" x="94.501271" xlink:href="#md0faeac302" y="253.152"/>
     <use style="fill:#ff7f0e;stroke:#ff7f0e;" x="94.857251" xlink:href="#md0faeac302" y="251.9424"/>
     <use style="fill:#ff7f0e;stroke:#ff7f0e;" x="95.325876" xlink:href="#md0faeac302" y="250.7328"/>
     <use style="fill:#ff7f0e;stroke:#ff7f0e;" x="95.520359" xlink:href="#md0faeac302" y="249.5232"/>
     <use style="fill:#ff7f0e;stroke:#ff7f0e;" x="95.636776" xlink:href="#md0faeac302" y="248.3136"/>
     <use style="fill:#ff7f0e;stroke:#ff7f0e;" x="95.970929" xlink:href="#md0faeac302" y="247.104"/>
     <use style="fill:#ff7f0e;stroke:#ff7f0e;" x="96.181375" xlink:href="#md0faeac302" y="245.8944"/>
     <use style="fill:#ff7f0e;stroke:#ff7f0e;" x="96.318881" xlink:href="#md0faeac302" y="244.6848"/>
     <use style="fill:#ff7f0e;stroke:#ff7f0e;" x="96.568635" xlink:href="#md0faeac302" y="243.4752"/>
     <use style="fill:#ff7f0e;stroke:#ff7f0e;" x="96.603612" xlink:href="#md0faeac302" y="242.2656"/>
     <use style="fill:#ff7f0e;stroke:#ff7f0e;" x="96.616517" xlink:href="#md0faeac302" y="241.056"/>
     <use style="fill:#ff7f0e;stroke:#ff7f0e;" x="96.68339" xlink:href="#md0faeac302" y="239.8464"/>
     <use style="fill:#ff7f0e;stroke:#ff7f0e;" x="97.094012" xlink:href="#md0faeac302" y="238.6368"/>
     <use style="fill:#ff7f0e;stroke:#ff7f0e;" x="97.61594" xlink:href="#md0faeac302" y="237.4272"/>
     <use style="fill:#ff7f0e;stroke:#ff7f0e;" x="97.878775" xlink:href="#md0faeac302" y="236.2176"/>
     <use style="fill:#ff7f0e;stroke:#ff7f0e;" x="97.947516" xlink:href="#md0faeac302" y="235.008"/>
     <use style="fill:#ff7f0e;stroke:#ff7f0e;" x="98.166461" xlink:href="#md0faeac302" y="233.7984"/>
     <use style="fill:#ff7f0e;stroke:#ff7f0e;" x="98.25623" xlink:href="#md0faeac302" y="232.5888"/>
     <use style="fill:#ff7f0e;stroke:#ff7f0e;" x="98.373502" xlink:href="#md0faeac302" y="231.3792"/>
     <use style="fill:#ff7f0e;stroke:#ff7f0e;" x="98.399297" xlink:href="#md0faeac302" y="230.1696"/>
     <use style="fill:#ff7f0e;stroke:#ff7f0e;" x="98.435914" xlink:href="#md0faeac302" y="228.96"/>
     <use style="fill:#ff7f0e;stroke:#ff7f0e;" x="98.517162" xlink:href="#md0faeac302" y="227.7504"/>
     <use style="fill:#ff7f0e;stroke:#ff7f0e;" x="98.80774" xlink:href="#md0faeac302" y="226.5408"/>
     <use style="fill:#ff7f0e;stroke:#ff7f0e;" x="99.16904" xlink:href="#md0faeac302" y="225.3312"/>
     <use style="fill:#ff7f0e;stroke:#ff7f0e;" x="99.271272" xlink:href="#md0faeac302" y="224.1216"/>
     <use style="fill:#ff7f0e;stroke:#ff7f0e;" x="99.772862" xlink:href="#md0faeac302" y="222.912"/>
     <use style="fill:#ff7f0e;stroke:#ff7f0e;" x="99.786722" xlink:href="#md0faeac302" y="221.7024"/>
     <use style="fill:#ff7f0e;stroke:#ff7f0e;" x="99.865061" xlink:href="#md0faeac302" y="220.4928"/>
     <use style="fill:#ff7f0e;stroke:#ff7f0e;" x="99.869037" xlink:href="#md0faeac302" y="219.2832"/>
     <use style="fill:#ff7f0e;stroke:#ff7f0e;" x="100.189711" xlink:href="#md0faeac302" y="218.0736"/>
     <use style="fill:#ff7f0e;stroke:#ff7f0e;" x="100.493068" xlink:href="#md0faeac302" y="216.864"/>
     <use style="fill:#ff7f0e;stroke:#ff7f0e;" x="100.894342" xlink:href="#md0faeac302" y="215.6544"/>
     <use style="fill:#ff7f0e;stroke:#ff7f0e;" x="101.170877" xlink:href="#md0faeac302" y="214.4448"/>
     <use style="fill:#ff7f0e;stroke:#ff7f0e;" x="101.369302" xlink:href="#md0faeac302" y="213.2352"/>
     <use style="fill:#ff7f0e;stroke:#ff7f0e;" x="101.425891" xlink:href="#md0faeac302" y="212.0256"/>
     <use style="fill:#ff7f0e;stroke:#ff7f0e;" x="101.464943" xlink:href="#md0faeac302" y="210.816"/>
     <use style="fill:#ff7f0e;stroke:#ff7f0e;" x="101.511743" xlink:href="#md0faeac302" y="209.6064"/>
     <use style="fill:#ff7f0e;stroke:#ff7f0e;" x="101.538472" xlink:href="#md0faeac302" y="208.3968"/>
     <use style="fill:#ff7f0e;stroke:#ff7f0e;" x="101.582133" xlink:href="#md0faeac302" y="207.1872"/>
     <use style="fill:#ff7f0e;stroke:#ff7f0e;" x="101.69683" xlink:href="#md0faeac302" y="205.9776"/>
     <use style="fill:#ff7f0e;stroke:#ff7f0e;" x="101.735072" xlink:href="#md0faeac302" y="204.768"/>
     <use style="fill:#ff7f0e;stroke:#ff7f0e;" x="101.744668" xlink:href="#md0faeac302" y="203.5584"/>
     <use style="fill:#ff7f0e;stroke:#ff7f0e;" x="101.791259" xlink:href="#md0faeac302" y="202.3488"/>
     <use style="fill:#ff7f0e;stroke:#ff7f0e;" x="101.818645" xlink:href="#md0faeac302" y="201.1392"/>
     <use style="fill:#ff7f0e;stroke:#ff7f0e;" x="101.98069" xlink:href="#md0faeac302" y="199.9296"/>
     <use style="fill:#ff7f0e;stroke:#ff7f0e;" x="102.203482" xlink:href="#md0faeac302" y="198.72"/>
     <use style="fill:#ff7f0e;stroke:#ff7f0e;" x="102.404288" xlink:href="#md0faeac302" y="197.5104"/>
     <use style="fill:#ff7f0e;stroke:#ff7f0e;" x="102.473864" xlink:href="#md0faeac302" y="196.3008"/>
     <use style="fill:#ff7f0e;stroke:#ff7f0e;" x="102.485248" xlink:href="#md0faeac302" y="195.0912"/>
     <use style="fill:#ff7f0e;stroke:#ff7f0e;" x="102.677913" xlink:href="#md0faeac302" y="193.8816"/>
     <use style="fill:#ff7f0e;stroke:#ff7f0e;" x="102.698162" xlink:href="#md0faeac302" y="192.672"/>
     <use style="fill:#ff7f0e;stroke:#ff7f0e;" x="102.720717" xlink:href="#md0faeac302" y="191.4624"/>
     <use style="fill:#ff7f0e;stroke:#ff7f0e;" x="102.778415" xlink:href="#md0faeac302" y="190.2528"/>
     <use style="fill:#ff7f0e;stroke:#ff7f0e;" x="102.888217" xlink:href="#md0faeac302" y="189.0432"/>
     <use style="fill:#ff7f0e;stroke:#ff7f0e;" x="102.950058" xlink:href="#md0faeac302" y="187.8336"/>
     <use style="fill:#ff7f0e;stroke:#ff7f0e;" x="103.313589" xlink:href="#md0faeac302" y="186.624"/>
     <use style="fill:#ff7f0e;stroke:#ff7f0e;" x="103.336007" xlink:href="#md0faeac302" y="185.4144"/>
     <use style="fill:#ff7f0e;stroke:#ff7f0e;" x="103.356425" xlink:href="#md0faeac302" y="184.2048"/>
     <use style="fill:#ff7f0e;stroke:#ff7f0e;" x="103.357559" xlink:href="#md0faeac302" y="182.9952"/>
     <use style="fill:#ff7f0e;stroke:#ff7f0e;" x="103.543526" xlink:href="#md0faeac302" y="181.7856"/>
     <use style="fill:#ff7f0e;stroke:#ff7f0e;" x="103.546554" xlink:href="#md0faeac302" y="180.576"/>
     <use style="fill:#ff7f0e;stroke:#ff7f0e;" x="103.720815" xlink:href="#md0faeac302" y="179.3664"/>
     <use style="fill:#ff7f0e;stroke:#ff7f0e;" x="103.745086" xlink:href="#md0faeac302" y="178.1568"/>
     <use style="fill:#ff7f0e;stroke:#ff7f0e;" x="104.138907" xlink:href="#md0faeac302" y="176.9472"/>
     <use style="fill:#ff7f0e;stroke:#ff7f0e;" x="104.602675" xlink:href="#md0faeac302" y="175.7376"/>
     <use style="fill:#ff7f0e;stroke:#ff7f0e;" x="104.669383" xlink:href="#md0faeac302" y="174.528"/>
     <use style="fill:#ff7f0e;stroke:#ff7f0e;" x="104.670783" xlink:href="#md0faeac302" y="173.3184"/>
     <use style="fill:#ff7f0e;stroke:#ff7f0e;" x="104.723609" xlink:href="#md0faeac302" y="172.1088"/>
     <use style="fill:#ff7f0e;stroke:#ff7f0e;" x="104.727738" xlink:href="#md0faeac302" y="170.8992"/>
     <use style="fill:#ff7f0e;stroke:#ff7f0e;" x="105.032655" xlink:href="#md0faeac302" y="169.6896"/>
     <use style="fill:#ff7f0e;stroke:#ff7f0e;" x="105.233564" xlink:href="#md0faeac302" y="168.48"/>
     <use style="fill:#ff7f0e;stroke:#ff7f0e;" x="105.251039" xlink:href="#md0faeac302" y="167.2704"/>
     <use style="fill:#ff7f0e;stroke:#ff7f0e;" x="105.443836" xlink:href="#md0faeac302" y="166.0608"/>
     <use style="fill:#ff7f0e;stroke:#ff7f0e;" x="105.647221" xlink:href="#md0faeac302" y="164.8512"/>
     <use style="fill:#ff7f0e;stroke:#ff7f0e;" x="105.744448" xlink:href="#md0faeac302" y="163.6416"/>
     <use style="fill:#ff7f0e;stroke:#ff7f0e;" x="105.906812" xlink:href="#md0faeac302" y="162.432"/>
     <use style="fill:#ff7f0e;stroke:#ff7f0e;" x="105.976298" xlink:href="#md0faeac302" y="161.2224"/>
     <use style="fill:#ff7f0e;stroke:#ff7f0e;" x="106.04559" xlink:href="#md0faeac302" y="160.0128"/>
     <use style="fill:#ff7f0e;stroke:#ff7f0e;" x="106.130366" xlink:href="#md0faeac302" y="158.8032"/>
     <use style="fill:#ff7f0e;stroke:#ff7f0e;" x="106.70825" xlink:href="#md0faeac302" y="157.5936"/>
     <use style="fill:#ff7f0e;stroke:#ff7f0e;" x="107.02737" xlink:href="#md0faeac302" y="156.384"/>
     <use style="fill:#ff7f0e;stroke:#ff7f0e;" x="107.157018" xlink:href="#md0faeac302" y="155.1744"/>
     <use style="fill:#ff7f0e;stroke:#ff7f0e;" x="107.427923" xlink:href="#md0faeac302" y="153.9648"/>
     <use style="fill:#ff7f0e;stroke:#ff7f0e;" x="107.500627" xlink:href="#md0faeac302" y="152.7552"/>
     <use style="fill:#ff7f0e;stroke:#ff7f0e;" x="107.688798" xlink:href="#md0faeac302" y="151.5456"/>
     <use style="fill:#ff7f0e;stroke:#ff7f0e;" x="107.785088" xlink:href="#md0faeac302" y="150.336"/>
     <use style="fill:#ff7f0e;stroke:#ff7f0e;" x="108.351069" xlink:href="#md0faeac302" y="149.1264"/>
     <use style="fill:#ff7f0e;stroke:#ff7f0e;" x="108.405654" xlink:href="#md0faeac302" y="147.9168"/>
     <use style="fill:#ff7f0e;stroke:#ff7f0e;" x="108.463186" xlink:href="#md0faeac302" y="146.7072"/>
     <use style="fill:#ff7f0e;stroke:#ff7f0e;" x="108.506997" xlink:href="#md0faeac302" y="145.4976"/>
     <use style="fill:#ff7f0e;stroke:#ff7f0e;" x="108.692692" xlink:href="#md0faeac302" y="144.288"/>
     <use style="fill:#ff7f0e;stroke:#ff7f0e;" x="108.841819" xlink:href="#md0faeac302" y="143.0784"/>
     <use style="fill:#ff7f0e;stroke:#ff7f0e;" x="108.907932" xlink:href="#md0faeac302" y="141.8688"/>
     <use style="fill:#ff7f0e;stroke:#ff7f0e;" x="108.912901" xlink:href="#md0faeac302" y="140.6592"/>
     <use style="fill:#ff7f0e;stroke:#ff7f0e;" x="109.084166" xlink:href="#md0faeac302" y="139.4496"/>
     <use style="fill:#ff7f0e;stroke:#ff7f0e;" x="109.22845" xlink:href="#md0faeac302" y="138.24"/>
     <use style="fill:#ff7f0e;stroke:#ff7f0e;" x="109.337085" xlink:href="#md0faeac302" y="137.0304"/>
     <use style="fill:#ff7f0e;stroke:#ff7f0e;" x="109.38018" xlink:href="#md0faeac302" y="135.8208"/>
     <use style="fill:#ff7f0e;stroke:#ff7f0e;" x="109.748171" xlink:href="#md0faeac302" y="134.6112"/>
     <use style="fill:#ff7f0e;stroke:#ff7f0e;" x="109.812988" xlink:href="#md0faeac302" y="133.4016"/>
     <use style="fill:#ff7f0e;stroke:#ff7f0e;" x="109.830213" xlink:href="#md0faeac302" y="132.192"/>
     <use style="fill:#ff7f0e;stroke:#ff7f0e;" x="109.933833" xlink:href="#md0faeac302" y="130.9824"/>
     <use style="fill:#ff7f0e;stroke:#ff7f0e;" x="109.976907" xlink:href="#md0faeac302" y="129.7728"/>
     <use style="fill:#ff7f0e;stroke:#ff7f0e;" x="110.042652" xlink:href="#md0faeac302" y="128.5632"/>
     <use style="fill:#ff7f0e;stroke:#ff7f0e;" x="110.350968" xlink:href="#md0faeac302" y="127.3536"/>
     <use style="fill:#ff7f0e;stroke:#ff7f0e;" x="110.502931" xlink:href="#md0faeac302" y="126.144"/>
     <use style="fill:#ff7f0e;stroke:#ff7f0e;" x="110.563815" xlink:href="#md0faeac302" y="124.9344"/>
     <use style="fill:#ff7f0e;stroke:#ff7f0e;" x="110.5872" xlink:href="#md0faeac302" y="123.7248"/>
     <use style="fill:#ff7f0e;stroke:#ff7f0e;" x="111.069501" xlink:href="#md0faeac302" y="122.5152"/>
     <use style="fill:#ff7f0e;stroke:#ff7f0e;" x="111.156706" xlink:href="#md0faeac302" y="121.3056"/>
     <use style="fill:#ff7f0e;stroke:#ff7f0e;" x="111.225135" xlink:href="#md0faeac302" y="120.096"/>
     <use style="fill:#ff7f0e;stroke:#ff7f0e;" x="111.348058" xlink:href="#md0faeac302" y="118.8864"/>
     <use style="fill:#ff7f0e;stroke:#ff7f0e;" x="111.446487" xlink:href="#md0faeac302" y="117.6768"/>
     <use style="fill:#ff7f0e;stroke:#ff7f0e;" x="111.492136" xlink:href="#md0faeac302" y="116.4672"/>
     <use style="fill:#ff7f0e;stroke:#ff7f0e;" x="111.635323" xlink:href="#md0faeac302" y="115.2576"/>
     <use style="fill:#ff7f0e;stroke:#ff7f0e;" x="111.672253" xlink:href="#md0faeac302" y="114.048"/>
     <use style="fill:#ff7f0e;stroke:#ff7f0e;" x="111.970819" xlink:href="#md0faeac302" y="112.8384"/>
     <use style="fill:#ff7f0e;stroke:#ff7f0e;" x="112.949353" xlink:href="#md0faeac302" y="111.6288"/>
     <use style="fill:#ff7f0e;stroke:#ff7f0e;" x="112.959188" xlink:href="#md0faeac302" y="110.4192"/>
     <use style="fill:#ff7f0e;stroke:#ff7f0e;" x="113.104548" xlink:href="#md0faeac302" y="109.2096"/>
     <use style="fill:#ff7f0e;stroke:#ff7f0e;" x="113.605896" xlink:href="#md0faeac302" y="108"/>
     <use style="fill:#ff7f0e;stroke:#ff7f0e;" x="113.636167" xlink:href="#md0faeac302" y="106.7904"/>
     <use style="fill:#ff7f0e;stroke:#ff7f0e;" x="113.892957" xlink:href="#md0faeac302" y="105.5808"/>
     <use style="fill:#ff7f0e;stroke:#ff7f0e;" x="113.930338" xlink:href="#md0faeac302" y="104.3712"/>
     <use style="fill:#ff7f0e;stroke:#ff7f0e;" x="113.99923" xlink:href="#md0faeac302" y="103.1616"/>
     <use style="fill:#ff7f0e;stroke:#ff7f0e;" x="114.16139" xlink:href="#md0faeac302" y="101.952"/>
     <use style="fill:#ff7f0e;stroke:#ff7f0e;" x="114.237572" xlink:href="#md0faeac302" y="100.7424"/>
     <use style="fill:#ff7f0e;stroke:#ff7f0e;" x="114.273868" xlink:href="#md0faeac302" y="99.5328"/>
     <use style="fill:#ff7f0e;stroke:#ff7f0e;" x="114.36721" xlink:href="#md0faeac302" y="98.3232"/>
     <use style="fill:#ff7f0e;stroke:#ff7f0e;" x="114.452003" xlink:href="#md0faeac302" y="97.1136"/>
     <use style="fill:#ff7f0e;stroke:#ff7f0e;" x="114.558718" xlink:href="#md0faeac302" y="95.904"/>
     <use style="fill:#ff7f0e;stroke:#ff7f0e;" x="114.75835" xlink:href="#md0faeac302" y="94.6944"/>
     <use style="fill:#ff7f0e;stroke:#ff7f0e;" x="114.852526" xlink:href="#md0faeac302" y="93.4848"/>
     <use style="fill:#ff7f0e;stroke:#ff7f0e;" x="114.913696" xlink:href="#md0faeac302" y="92.2752"/>
     <use style="fill:#ff7f0e;stroke:#ff7f0e;" x="115.12954" xlink:href="#md0faeac302" y="91.0656"/>
     <use style="fill:#ff7f0e;stroke:#ff7f0e;" x="115.15574" xlink:href="#md0faeac302" y="89.856"/>
     <use style="fill:#ff7f0e;stroke:#ff7f0e;" x="115.22897" xlink:href="#md0faeac302" y="88.6464"/>
     <use style="fill:#ff7f0e;stroke:#ff7f0e;" x="115.38143" xlink:href="#md0faeac302" y="87.4368"/>
     <use style="fill:#ff7f0e;stroke:#ff7f0e;" x="116.022311" xlink:href="#md0faeac302" y="86.2272"/>
     <use style="fill:#ff7f0e;stroke:#ff7f0e;" x="116.497427" xlink:href="#md0faeac302" y="85.0176"/>
     <use style="fill:#ff7f0e;stroke:#ff7f0e;" x="116.699051" xlink:href="#md0faeac302" y="83.808"/>
     <use style="fill:#ff7f0e;stroke:#ff7f0e;" x="116.741597" xlink:href="#md0faeac302" y="82.5984"/>
     <use style="fill:#ff7f0e;stroke:#ff7f0e;" x="117.279623" xlink:href="#md0faeac302" y="81.3888"/>
     <use style="fill:#ff7f0e;stroke:#ff7f0e;" x="117.400991" xlink:href="#md0faeac302" y="80.1792"/>
     <use style="fill:#ff7f0e;stroke:#ff7f0e;" x="117.556047" xlink:href="#md0faeac302" y="78.9696"/>
     <use style="fill:#ff7f0e;stroke:#ff7f0e;" x="118.075727" xlink:href="#md0faeac302" y="77.76"/>
     <use style="fill:#ff7f0e;stroke:#ff7f0e;" x="118.88788" xlink:href="#md0faeac302" y="76.5504"/>
     <use style="fill:#ff7f0e;stroke:#ff7f0e;" x="118.920512" xlink:href="#md0faeac302" y="75.3408"/>
     <use style="fill:#ff7f0e;stroke:#ff7f0e;" x="118.962474" xlink:href="#md0faeac302" y="74.1312"/>
     <use style="fill:#ff7f0e;stroke:#ff7f0e;" x="118.99867" xlink:href="#md0faeac302" y="72.9216"/>
     <use style="fill:#ff7f0e;stroke:#ff7f0e;" x="119.571162" xlink:href="#md0faeac302" y="71.712"/>
     <use style="fill:#ff7f0e;stroke:#ff7f0e;" x="119.898797" xlink:href="#md0faeac302" y="70.5024"/>
     <use style="fill:#ff7f0e;stroke:#ff7f0e;" x="120.670923" xlink:href="#md0faeac302" y="69.2928"/>
     <use style="fill:#ff7f0e;stroke:#ff7f0e;" x="120.869897" xlink:href="#md0faeac302" y="68.0832"/>
     <use style="fill:#ff7f0e;stroke:#ff7f0e;" x="122.549898" xlink:href="#md0faeac302" y="66.8736"/>
     <use style="fill:#ff7f0e;stroke:#ff7f0e;" x="123.067153" xlink:href="#md0faeac302" y="65.664"/>
     <use style="fill:#ff7f0e;stroke:#ff7f0e;" x="123.216518" xlink:href="#md0faeac302" y="64.4544"/>
     <use style="fill:#ff7f0e;stroke:#ff7f0e;" x="123.999376" xlink:href="#md0faeac302" y="63.2448"/>
     <use style="fill:#ff7f0e;stroke:#ff7f0e;" x="124.335626" xlink:href="#md0faeac302" y="62.0352"/>
     <use style="fill:#ff7f0e;stroke:#ff7f0e;" x="124.371967" xlink:href="#md0faeac302" y="60.8256"/>
     <use style="fill:#ff7f0e;stroke:#ff7f0e;" x="125.64345" xlink:href="#md0faeac302" y="59.616"/>
     <use style="fill:#ff7f0e;stroke:#ff7f0e;" x="127.41028" xlink:href="#md0faeac302" y="58.4064"/>
     <use style="fill:#ff7f0e;stroke:#ff7f0e;" x="127.908058" xlink:href="#md0faeac302" y="57.1968"/>
     <use style="fill:#ff7f0e;stroke:#ff7f0e;" x="129.242488" xlink:href="#md0faeac302" y="55.9872"/>
     <use style="fill:#ff7f0e;stroke:#ff7f0e;" x="133.65856" xlink:href="#md0faeac302" y="54.7776"/>
     <use style="fill:#ff7f0e;stroke:#ff7f0e;" x="136.290589" xlink:href="#md0faeac302" y="53.568"/>
    </g>
   </g>
   <g id="patch_3">
    <path d="M 57.6 307.584 
L 57.6 41.472 
" style="fill:none;stroke:#000000;stroke-linecap:square;stroke-linejoin:miter;stroke-width:0.8;"/>
   </g>
   <g id="patch_4">
    <path d="M 414.72 307.584 
L 414.72 41.472 
" style="fill:none;stroke:#000000;stroke-linecap:square;stroke-linejoin:miter;stroke-width:0.8;"/>
   </g>
   <g id="patch_5">
    <path d="M 57.6 307.584 
L 414.72 307.584 
" style="fill:none;stroke:#000000;stroke-linecap:square;stroke-linejoin:miter;stroke-width:0.8;"/>
   </g>
   <g id="patch_6">
    <path d="M 57.6 41.472 
L 414.72 41.472 
" style="fill:none;stroke:#000000;stroke-linecap:square;stroke-linejoin:miter;stroke-width:0.8;"/>
   </g>
   <g id="text_12">
    <!-- Occipital(0.499, 0.75] -->
    <defs>
     <path d="M 39.40625 66.21875 
Q 28.65625 66.21875 22.328125 58.203125 
Q 16.015625 50.203125 16.015625 36.375 
Q 16.015625 22.609375 22.328125 14.59375 
Q 28.65625 6.59375 39.40625 6.59375 
Q 50.140625 6.59375 56.421875 14.59375 
Q 62.703125 22.609375 62.703125 36.375 
Q 62.703125 50.203125 56.421875 58.203125 
Q 50.140625 66.21875 39.40625 66.21875 
z
M 39.40625 74.21875 
Q 54.734375 74.21875 63.90625 63.9375 
Q 73.09375 53.65625 73.09375 36.375 
Q 73.09375 19.140625 63.90625 8.859375 
Q 54.734375 -1.421875 39.40625 -1.421875 
Q 24.03125 -1.421875 14.8125 8.828125 
Q 5.609375 19.09375 5.609375 36.375 
Q 5.609375 53.65625 14.8125 63.9375 
Q 24.03125 74.21875 39.40625 74.21875 
z
" id="DejaVuSans-79"/>
     <path d="M 31 75.875 
Q 24.46875 64.65625 21.28125 53.65625 
Q 18.109375 42.671875 18.109375 31.390625 
Q 18.109375 20.125 21.3125 9.0625 
Q 24.515625 -2 31 -13.1875 
L 23.1875 -13.1875 
Q 15.875 -1.703125 12.234375 9.375 
Q 8.59375 20.453125 8.59375 31.390625 
Q 8.59375 42.28125 12.203125 53.3125 
Q 15.828125 64.359375 23.1875 75.875 
z
" id="DejaVuSans-40"/>
     <path d="M 10.984375 1.515625 
L 10.984375 10.5 
Q 14.703125 8.734375 18.5 7.8125 
Q 22.3125 6.890625 25.984375 6.890625 
Q 35.75 6.890625 40.890625 13.453125 
Q 46.046875 20.015625 46.78125 33.40625 
Q 43.953125 29.203125 39.59375 26.953125 
Q 35.25 24.703125 29.984375 24.703125 
Q 19.046875 24.703125 12.671875 31.3125 
Q 6.296875 37.9375 6.296875 49.421875 
Q 6.296875 60.640625 12.9375 67.421875 
Q 19.578125 74.21875 30.609375 74.21875 
Q 43.265625 74.21875 49.921875 64.515625 
Q 56.59375 54.828125 56.59375 36.375 
Q 56.59375 19.140625 48.40625 8.859375 
Q 40.234375 -1.421875 26.421875 -1.421875 
Q 22.703125 -1.421875 18.890625 -0.6875 
Q 15.09375 0.046875 10.984375 1.515625 
z
M 30.609375 32.421875 
Q 37.25 32.421875 41.125 36.953125 
Q 45.015625 41.5 45.015625 49.421875 
Q 45.015625 57.28125 41.125 61.84375 
Q 37.25 66.40625 30.609375 66.40625 
Q 23.96875 66.40625 20.09375 61.84375 
Q 16.21875 57.28125 16.21875 49.421875 
Q 16.21875 41.5 20.09375 36.953125 
Q 23.96875 32.421875 30.609375 32.421875 
z
" id="DejaVuSans-57"/>
     <path d="M 11.71875 12.40625 
L 22.015625 12.40625 
L 22.015625 4 
L 14.015625 -11.625 
L 7.71875 -11.625 
L 11.71875 4 
z
" id="DejaVuSans-44"/>
     <path d="M 8.203125 72.90625 
L 55.078125 72.90625 
L 55.078125 68.703125 
L 28.609375 0 
L 18.3125 0 
L 43.21875 64.59375 
L 8.203125 64.59375 
z
" id="DejaVuSans-55"/>
     <path d="M 10.796875 72.90625 
L 49.515625 72.90625 
L 49.515625 64.59375 
L 19.828125 64.59375 
L 19.828125 46.734375 
Q 21.96875 47.46875 24.109375 47.828125 
Q 26.265625 48.1875 28.421875 48.1875 
Q 40.625 48.1875 47.75 41.5 
Q 54.890625 34.8125 54.890625 23.390625 
Q 54.890625 11.625 47.5625 5.09375 
Q 40.234375 -1.421875 26.90625 -1.421875 
Q 22.3125 -1.421875 17.546875 -0.640625 
Q 12.796875 0.140625 7.71875 1.703125 
L 7.71875 11.625 
Q 12.109375 9.234375 16.796875 8.0625 
Q 21.484375 6.890625 26.703125 6.890625 
Q 35.15625 6.890625 40.078125 11.328125 
Q 45.015625 15.765625 45.015625 23.390625 
Q 45.015625 31 40.078125 35.4375 
Q 35.15625 39.890625 26.703125 39.890625 
Q 22.75 39.890625 18.8125 39.015625 
Q 14.890625 38.140625 10.796875 36.28125 
z
" id="DejaVuSans-53"/>
     <path d="M 30.421875 75.984375 
L 30.421875 -13.1875 
L 9.71875 -13.1875 
L 9.71875 -6.203125 
L 21.390625 -6.203125 
L 21.390625 69 
L 9.71875 69 
L 9.71875 75.984375 
z
" id="DejaVuSans-93"/>
    </defs>
    <g transform="translate(92.737875 35.472)scale(0.264 -0.264)">
     <use xlink:href="#DejaVuSans-79"/>
     <use x="78.710938" xlink:href="#DejaVuSans-99"/>
     <use x="133.691406" xlink:href="#DejaVuSans-99"/>
     <use x="188.671875" xlink:href="#DejaVuSans-105"/>
     <use x="216.455078" xlink:href="#DejaVuSans-112"/>
     <use x="279.931641" xlink:href="#DejaVuSans-105"/>
     <use x="307.714844" xlink:href="#DejaVuSans-116"/>
     <use x="346.923828" xlink:href="#DejaVuSans-97"/>
     <use x="408.203125" xlink:href="#DejaVuSans-108"/>
     <use x="435.986328" xlink:href="#DejaVuSans-40"/>
     <use x="475" xlink:href="#DejaVuSans-48"/>
     <use x="538.623047" xlink:href="#DejaVuSans-46"/>
     <use x="570.410156" xlink:href="#DejaVuSans-52"/>
     <use x="634.033203" xlink:href="#DejaVuSans-57"/>
     <use x="697.65625" xlink:href="#DejaVuSans-57"/>
     <use x="761.279297" xlink:href="#DejaVuSans-44"/>
     <use x="793.066406" xlink:href="#DejaVuSans-32"/>
     <use x="824.853516" xlink:href="#DejaVuSans-48"/>
     <use x="888.476562" xlink:href="#DejaVuSans-46"/>
     <use x="920.263672" xlink:href="#DejaVuSans-55"/>
     <use x="983.886719" xlink:href="#DejaVuSans-53"/>
     <use x="1047.509766" xlink:href="#DejaVuSans-93"/>
    </g>
   </g>
   <g id="legend_1">
    <g id="patch_7">
     <path d="M 73 123.65575 
L 231.520312 123.65575 
Q 235.920312 123.65575 235.920312 119.25575 
L 235.920312 56.872 
Q 235.920312 52.472 231.520312 52.472 
L 73 52.472 
Q 68.6 52.472 68.6 56.872 
L 68.6 119.25575 
Q 68.6 123.65575 73 123.65575 
z
" style="fill:#ffffff;opacity:0.8;stroke:#cccccc;stroke-linejoin:miter;"/>
    </g>
    <g id="line2d_12"/>
    <g id="line2d_13">
     <g>
      <use style="fill:#1f77b4;stroke:#1f77b4;" x="99.4" xlink:href="#m45e8d7f5ce" y="70.288562"/>
     </g>
    </g>
    <g id="text_13">
     <!-- lobe -->
     <g transform="translate(139 77.988563)scale(0.22 -0.22)">
      <use xlink:href="#DejaVuSans-108"/>
      <use x="27.783203" xlink:href="#DejaVuSans-111"/>
      <use x="88.964844" xlink:href="#DejaVuSans-98"/>
      <use x="152.441406" xlink:href="#DejaVuSans-101"/>
     </g>
    </g>
    <g id="line2d_14"/>
    <g id="line2d_15">
     <g>
      <use style="fill:#ff7f0e;stroke:#ff7f0e;" x="99.4" xlink:href="#md0faeac302" y="102.580438"/>
     </g>
    </g>
    <g id="text_14">
     <!-- no peak -->
     <defs>
      <path d="M 9.078125 75.984375 
L 18.109375 75.984375 
L 18.109375 31.109375 
L 44.921875 54.6875 
L 56.390625 54.6875 
L 27.390625 29.109375 
L 57.625 0 
L 45.90625 0 
L 18.109375 26.703125 
L 18.109375 0 
L 9.078125 0 
z
" id="DejaVuSans-107"/>
     </defs>
     <g transform="translate(139 110.280438)scale(0.22 -0.22)">
      <use xlink:href="#DejaVuSans-110"/>
      <use x="63.378906" xlink:href="#DejaVuSans-111"/>
      <use x="124.560547" xlink:href="#DejaVuSans-32"/>
      <use x="156.347656" xlink:href="#DejaVuSans-112"/>
      <use x="219.824219" xlink:href="#DejaVuSans-101"/>
      <use x="281.347656" xlink:href="#DejaVuSans-97"/>
      <use x="342.626953" xlink:href="#DejaVuSans-107"/>
     </g>
    </g>
   </g>
  </g>
 </g>
 <defs>
  <clipPath id="p36faff0e04">
   <rect height="266.112" width="357.12" x="57.6" y="41.472"/>
  </clipPath>
 </defs>
</svg>
