<?xml version="1.0" encoding="utf-8" standalone="no"?>
<!DOCTYPE svg PUBLIC "-//W3C//DTD SVG 1.1//EN"
  "http://www.w3.org/Graphics/SVG/1.1/DTD/svg11.dtd">
<!-- Created with matplotlib (https://matplotlib.org/) -->
<svg height="345.6pt" version="1.1" viewBox="0 0 460.8 345.6" width="460.8pt" xmlns="http://www.w3.org/2000/svg" xmlns:xlink="http://www.w3.org/1999/xlink">
 <defs>
  <style type="text/css">
*{stroke-linecap:butt;stroke-linejoin:round;}
  </style>
 </defs>
 <g id="figure_1">
  <g id="patch_1">
   <path d="M 0 345.6 
L 460.8 345.6 
L 460.8 0 
L 0 0 
z
" style="fill:#ffffff;"/>
  </g>
  <g id="axes_1">
   <g id="patch_2">
    <path d="M 57.6 307.584 
L 414.72 307.584 
L 414.72 41.472 
L 57.6 41.472 
z
" style="fill:#ffffff;"/>
   </g>
   <g id="matplotlib.axis_1">
    <g id="xtick_1">
     <g id="line2d_1">
      <defs>
       <path d="M 0 0 
L 0 3.5 
" id="m4f78a42f66" style="stroke:#000000;stroke-width:0.8;"/>
      </defs>
      <g>
       <use style="stroke:#000000;stroke-width:0.8;" x="168.812996" xlink:href="#m4f78a42f66" y="307.584"/>
      </g>
     </g>
     <g id="text_1">
      <!-- 0.05 -->
      <defs>
       <path d="M 31.78125 66.40625 
Q 24.171875 66.40625 20.328125 58.90625 
Q 16.5 51.421875 16.5 36.375 
Q 16.5 21.390625 20.328125 13.890625 
Q 24.171875 6.390625 31.78125 6.390625 
Q 39.453125 6.390625 43.28125 13.890625 
Q 47.125 21.390625 47.125 36.375 
Q 47.125 51.421875 43.28125 58.90625 
Q 39.453125 66.40625 31.78125 66.40625 
z
M 31.78125 74.21875 
Q 44.046875 74.21875 50.515625 64.515625 
Q 56.984375 54.828125 56.984375 36.375 
Q 56.984375 17.96875 50.515625 8.265625 
Q 44.046875 -1.421875 31.78125 -1.421875 
Q 19.53125 -1.421875 13.0625 8.265625 
Q 6.59375 17.96875 6.59375 36.375 
Q 6.59375 54.828125 13.0625 64.515625 
Q 19.53125 74.21875 31.78125 74.21875 
z
" id="DejaVuSans-48"/>
       <path d="M 10.6875 12.40625 
L 21 12.40625 
L 21 0 
L 10.6875 0 
z
" id="DejaVuSans-46"/>
       <path d="M 10.796875 72.90625 
L 49.515625 72.90625 
L 49.515625 64.59375 
L 19.828125 64.59375 
L 19.828125 46.734375 
Q 21.96875 47.46875 24.109375 47.828125 
Q 26.265625 48.1875 28.421875 48.1875 
Q 40.625 48.1875 47.75 41.5 
Q 54.890625 34.8125 54.890625 23.390625 
Q 54.890625 11.625 47.5625 5.09375 
Q 40.234375 -1.421875 26.90625 -1.421875 
Q 22.3125 -1.421875 17.546875 -0.640625 
Q 12.796875 0.140625 7.71875 1.703125 
L 7.71875 11.625 
Q 12.109375 9.234375 16.796875 8.0625 
Q 21.484375 6.890625 26.703125 6.890625 
Q 35.15625 6.890625 40.078125 11.328125 
Q 45.015625 15.765625 45.015625 23.390625 
Q 45.015625 31 40.078125 35.4375 
Q 35.15625 39.890625 26.703125 39.890625 
Q 22.75 39.890625 18.8125 39.015625 
Q 14.890625 38.140625 10.796875 36.28125 
z
" id="DejaVuSans-53"/>
      </defs>
      <g transform="translate(144.320809 331.300562)scale(0.22 -0.22)">
       <use xlink:href="#DejaVuSans-48"/>
       <use x="63.623047" xlink:href="#DejaVuSans-46"/>
       <use x="95.410156" xlink:href="#DejaVuSans-48"/>
       <use x="159.033203" xlink:href="#DejaVuSans-53"/>
      </g>
     </g>
    </g>
    <g id="xtick_2">
     <g id="line2d_2">
      <g>
       <use style="stroke:#000000;stroke-width:0.8;" x="304.280582" xlink:href="#m4f78a42f66" y="307.584"/>
      </g>
     </g>
     <g id="text_2">
      <!-- 0.10 -->
      <defs>
       <path d="M 12.40625 8.296875 
L 28.515625 8.296875 
L 28.515625 63.921875 
L 10.984375 60.40625 
L 10.984375 69.390625 
L 28.421875 72.90625 
L 38.28125 72.90625 
L 38.28125 8.296875 
L 54.390625 8.296875 
L 54.390625 0 
L 12.40625 0 
z
" id="DejaVuSans-49"/>
      </defs>
      <g transform="translate(279.788394 331.300562)scale(0.22 -0.22)">
       <use xlink:href="#DejaVuSans-48"/>
       <use x="63.623047" xlink:href="#DejaVuSans-46"/>
       <use x="95.410156" xlink:href="#DejaVuSans-49"/>
       <use x="159.033203" xlink:href="#DejaVuSans-48"/>
      </g>
     </g>
    </g>
    <g id="text_3">
     <!-- Normalized spectral density in bin -->
     <defs>
      <path d="M 9.8125 72.90625 
L 23.09375 72.90625 
L 55.421875 11.921875 
L 55.421875 72.90625 
L 64.984375 72.90625 
L 64.984375 0 
L 51.703125 0 
L 19.390625 60.984375 
L 19.390625 0 
L 9.8125 0 
z
" id="DejaVuSans-78"/>
      <path d="M 30.609375 48.390625 
Q 23.390625 48.390625 19.1875 42.75 
Q 14.984375 37.109375 14.984375 27.296875 
Q 14.984375 17.484375 19.15625 11.84375 
Q 23.34375 6.203125 30.609375 6.203125 
Q 37.796875 6.203125 41.984375 11.859375 
Q 46.1875 17.53125 46.1875 27.296875 
Q 46.1875 37.015625 41.984375 42.703125 
Q 37.796875 48.390625 30.609375 48.390625 
z
M 30.609375 56 
Q 42.328125 56 49.015625 48.375 
Q 55.71875 40.765625 55.71875 27.296875 
Q 55.71875 13.875 49.015625 6.21875 
Q 42.328125 -1.421875 30.609375 -1.421875 
Q 18.84375 -1.421875 12.171875 6.21875 
Q 5.515625 13.875 5.515625 27.296875 
Q 5.515625 40.765625 12.171875 48.375 
Q 18.84375 56 30.609375 56 
z
" id="DejaVuSans-111"/>
      <path d="M 41.109375 46.296875 
Q 39.59375 47.171875 37.8125 47.578125 
Q 36.03125 48 33.890625 48 
Q 26.265625 48 22.1875 43.046875 
Q 18.109375 38.09375 18.109375 28.8125 
L 18.109375 0 
L 9.078125 0 
L 9.078125 54.6875 
L 18.109375 54.6875 
L 18.109375 46.1875 
Q 20.953125 51.171875 25.484375 53.578125 
Q 30.03125 56 36.53125 56 
Q 37.453125 56 38.578125 55.875 
Q 39.703125 55.765625 41.0625 55.515625 
z
" id="DejaVuSans-114"/>
      <path d="M 52 44.1875 
Q 55.375 50.25 60.0625 53.125 
Q 64.75 56 71.09375 56 
Q 79.640625 56 84.28125 50.015625 
Q 88.921875 44.046875 88.921875 33.015625 
L 88.921875 0 
L 79.890625 0 
L 79.890625 32.71875 
Q 79.890625 40.578125 77.09375 44.375 
Q 74.3125 48.1875 68.609375 48.1875 
Q 61.625 48.1875 57.5625 43.546875 
Q 53.515625 38.921875 53.515625 30.90625 
L 53.515625 0 
L 44.484375 0 
L 44.484375 32.71875 
Q 44.484375 40.625 41.703125 44.40625 
Q 38.921875 48.1875 33.109375 48.1875 
Q 26.21875 48.1875 22.15625 43.53125 
Q 18.109375 38.875 18.109375 30.90625 
L 18.109375 0 
L 9.078125 0 
L 9.078125 54.6875 
L 18.109375 54.6875 
L 18.109375 46.1875 
Q 21.1875 51.21875 25.484375 53.609375 
Q 29.78125 56 35.6875 56 
Q 41.65625 56 45.828125 52.96875 
Q 50 49.953125 52 44.1875 
z
" id="DejaVuSans-109"/>
      <path d="M 34.28125 27.484375 
Q 23.390625 27.484375 19.1875 25 
Q 14.984375 22.515625 14.984375 16.5 
Q 14.984375 11.71875 18.140625 8.90625 
Q 21.296875 6.109375 26.703125 6.109375 
Q 34.1875 6.109375 38.703125 11.40625 
Q 43.21875 16.703125 43.21875 25.484375 
L 43.21875 27.484375 
z
M 52.203125 31.203125 
L 52.203125 0 
L 43.21875 0 
L 43.21875 8.296875 
Q 40.140625 3.328125 35.546875 0.953125 
Q 30.953125 -1.421875 24.3125 -1.421875 
Q 15.921875 -1.421875 10.953125 3.296875 
Q 6 8.015625 6 15.921875 
Q 6 25.140625 12.171875 29.828125 
Q 18.359375 34.515625 30.609375 34.515625 
L 43.21875 34.515625 
L 43.21875 35.40625 
Q 43.21875 41.609375 39.140625 45 
Q 35.0625 48.390625 27.6875 48.390625 
Q 23 48.390625 18.546875 47.265625 
Q 14.109375 46.140625 10.015625 43.890625 
L 10.015625 52.203125 
Q 14.9375 54.109375 19.578125 55.046875 
Q 24.21875 56 28.609375 56 
Q 40.484375 56 46.34375 49.84375 
Q 52.203125 43.703125 52.203125 31.203125 
z
" id="DejaVuSans-97"/>
      <path d="M 9.421875 75.984375 
L 18.40625 75.984375 
L 18.40625 0 
L 9.421875 0 
z
" id="DejaVuSans-108"/>
      <path d="M 9.421875 54.6875 
L 18.40625 54.6875 
L 18.40625 0 
L 9.421875 0 
z
M 9.421875 75.984375 
L 18.40625 75.984375 
L 18.40625 64.59375 
L 9.421875 64.59375 
z
" id="DejaVuSans-105"/>
      <path d="M 5.515625 54.6875 
L 48.1875 54.6875 
L 48.1875 46.484375 
L 14.40625 7.171875 
L 48.1875 7.171875 
L 48.1875 0 
L 4.296875 0 
L 4.296875 8.203125 
L 38.09375 47.515625 
L 5.515625 47.515625 
z
" id="DejaVuSans-122"/>
      <path d="M 56.203125 29.59375 
L 56.203125 25.203125 
L 14.890625 25.203125 
Q 15.484375 15.921875 20.484375 11.0625 
Q 25.484375 6.203125 34.421875 6.203125 
Q 39.59375 6.203125 44.453125 7.46875 
Q 49.3125 8.734375 54.109375 11.28125 
L 54.109375 2.78125 
Q 49.265625 0.734375 44.1875 -0.34375 
Q 39.109375 -1.421875 33.890625 -1.421875 
Q 20.796875 -1.421875 13.15625 6.1875 
Q 5.515625 13.8125 5.515625 26.8125 
Q 5.515625 40.234375 12.765625 48.109375 
Q 20.015625 56 32.328125 56 
Q 43.359375 56 49.78125 48.890625 
Q 56.203125 41.796875 56.203125 29.59375 
z
M 47.21875 32.234375 
Q 47.125 39.59375 43.09375 43.984375 
Q 39.0625 48.390625 32.421875 48.390625 
Q 24.90625 48.390625 20.390625 44.140625 
Q 15.875 39.890625 15.1875 32.171875 
z
" id="DejaVuSans-101"/>
      <path d="M 45.40625 46.390625 
L 45.40625 75.984375 
L 54.390625 75.984375 
L 54.390625 0 
L 45.40625 0 
L 45.40625 8.203125 
Q 42.578125 3.328125 38.25 0.953125 
Q 33.9375 -1.421875 27.875 -1.421875 
Q 17.96875 -1.421875 11.734375 6.484375 
Q 5.515625 14.40625 5.515625 27.296875 
Q 5.515625 40.1875 11.734375 48.09375 
Q 17.96875 56 27.875 56 
Q 33.9375 56 38.25 53.625 
Q 42.578125 51.265625 45.40625 46.390625 
z
M 14.796875 27.296875 
Q 14.796875 17.390625 18.875 11.75 
Q 22.953125 6.109375 30.078125 6.109375 
Q 37.203125 6.109375 41.296875 11.75 
Q 45.40625 17.390625 45.40625 27.296875 
Q 45.40625 37.203125 41.296875 42.84375 
Q 37.203125 48.484375 30.078125 48.484375 
Q 22.953125 48.484375 18.875 42.84375 
Q 14.796875 37.203125 14.796875 27.296875 
z
" id="DejaVuSans-100"/>
      <path id="DejaVuSans-32"/>
      <path d="M 44.28125 53.078125 
L 44.28125 44.578125 
Q 40.484375 46.53125 36.375 47.5 
Q 32.28125 48.484375 27.875 48.484375 
Q 21.1875 48.484375 17.84375 46.4375 
Q 14.5 44.390625 14.5 40.28125 
Q 14.5 37.15625 16.890625 35.375 
Q 19.28125 33.59375 26.515625 31.984375 
L 29.59375 31.296875 
Q 39.15625 29.25 43.1875 25.515625 
Q 47.21875 21.78125 47.21875 15.09375 
Q 47.21875 7.46875 41.1875 3.015625 
Q 35.15625 -1.421875 24.609375 -1.421875 
Q 20.21875 -1.421875 15.453125 -0.5625 
Q 10.6875 0.296875 5.421875 2 
L 5.421875 11.28125 
Q 10.40625 8.6875 15.234375 7.390625 
Q 20.0625 6.109375 24.8125 6.109375 
Q 31.15625 6.109375 34.5625 8.28125 
Q 37.984375 10.453125 37.984375 14.40625 
Q 37.984375 18.0625 35.515625 20.015625 
Q 33.0625 21.96875 24.703125 23.78125 
L 21.578125 24.515625 
Q 13.234375 26.265625 9.515625 29.90625 
Q 5.8125 33.546875 5.8125 39.890625 
Q 5.8125 47.609375 11.28125 51.796875 
Q 16.75 56 26.8125 56 
Q 31.78125 56 36.171875 55.265625 
Q 40.578125 54.546875 44.28125 53.078125 
z
" id="DejaVuSans-115"/>
      <path d="M 18.109375 8.203125 
L 18.109375 -20.796875 
L 9.078125 -20.796875 
L 9.078125 54.6875 
L 18.109375 54.6875 
L 18.109375 46.390625 
Q 20.953125 51.265625 25.265625 53.625 
Q 29.59375 56 35.59375 56 
Q 45.5625 56 51.78125 48.09375 
Q 58.015625 40.1875 58.015625 27.296875 
Q 58.015625 14.40625 51.78125 6.484375 
Q 45.5625 -1.421875 35.59375 -1.421875 
Q 29.59375 -1.421875 25.265625 0.953125 
Q 20.953125 3.328125 18.109375 8.203125 
z
M 48.6875 27.296875 
Q 48.6875 37.203125 44.609375 42.84375 
Q 40.53125 48.484375 33.40625 48.484375 
Q 26.265625 48.484375 22.1875 42.84375 
Q 18.109375 37.203125 18.109375 27.296875 
Q 18.109375 17.390625 22.1875 11.75 
Q 26.265625 6.109375 33.40625 6.109375 
Q 40.53125 6.109375 44.609375 11.75 
Q 48.6875 17.390625 48.6875 27.296875 
z
" id="DejaVuSans-112"/>
      <path d="M 48.78125 52.59375 
L 48.78125 44.1875 
Q 44.96875 46.296875 41.140625 47.34375 
Q 37.3125 48.390625 33.40625 48.390625 
Q 24.65625 48.390625 19.8125 42.84375 
Q 14.984375 37.3125 14.984375 27.296875 
Q 14.984375 17.28125 19.8125 11.734375 
Q 24.65625 6.203125 33.40625 6.203125 
Q 37.3125 6.203125 41.140625 7.25 
Q 44.96875 8.296875 48.78125 10.40625 
L 48.78125 2.09375 
Q 45.015625 0.34375 40.984375 -0.53125 
Q 36.96875 -1.421875 32.421875 -1.421875 
Q 20.0625 -1.421875 12.78125 6.34375 
Q 5.515625 14.109375 5.515625 27.296875 
Q 5.515625 40.671875 12.859375 48.328125 
Q 20.21875 56 33.015625 56 
Q 37.15625 56 41.109375 55.140625 
Q 45.0625 54.296875 48.78125 52.59375 
z
" id="DejaVuSans-99"/>
      <path d="M 18.3125 70.21875 
L 18.3125 54.6875 
L 36.8125 54.6875 
L 36.8125 47.703125 
L 18.3125 47.703125 
L 18.3125 18.015625 
Q 18.3125 11.328125 20.140625 9.421875 
Q 21.96875 7.515625 27.59375 7.515625 
L 36.8125 7.515625 
L 36.8125 0 
L 27.59375 0 
Q 17.1875 0 13.234375 3.875 
Q 9.28125 7.765625 9.28125 18.015625 
L 9.28125 47.703125 
L 2.6875 47.703125 
L 2.6875 54.6875 
L 9.28125 54.6875 
L 9.28125 70.21875 
z
" id="DejaVuSans-116"/>
      <path d="M 54.890625 33.015625 
L 54.890625 0 
L 45.90625 0 
L 45.90625 32.71875 
Q 45.90625 40.484375 42.875 44.328125 
Q 39.84375 48.1875 33.796875 48.1875 
Q 26.515625 48.1875 22.3125 43.546875 
Q 18.109375 38.921875 18.109375 30.90625 
L 18.109375 0 
L 9.078125 0 
L 9.078125 54.6875 
L 18.109375 54.6875 
L 18.109375 46.1875 
Q 21.34375 51.125 25.703125 53.5625 
Q 30.078125 56 35.796875 56 
Q 45.21875 56 50.046875 50.171875 
Q 54.890625 44.34375 54.890625 33.015625 
z
" id="DejaVuSans-110"/>
      <path d="M 32.171875 -5.078125 
Q 28.375 -14.84375 24.75 -17.8125 
Q 21.140625 -20.796875 15.09375 -20.796875 
L 7.90625 -20.796875 
L 7.90625 -13.28125 
L 13.1875 -13.28125 
Q 16.890625 -13.28125 18.9375 -11.515625 
Q 21 -9.765625 23.484375 -3.21875 
L 25.09375 0.875 
L 2.984375 54.6875 
L 12.5 54.6875 
L 29.59375 11.921875 
L 46.6875 54.6875 
L 56.203125 54.6875 
z
" id="DejaVuSans-121"/>
      <path d="M 48.6875 27.296875 
Q 48.6875 37.203125 44.609375 42.84375 
Q 40.53125 48.484375 33.40625 48.484375 
Q 26.265625 48.484375 22.1875 42.84375 
Q 18.109375 37.203125 18.109375 27.296875 
Q 18.109375 17.390625 22.1875 11.75 
Q 26.265625 6.109375 33.40625 6.109375 
Q 40.53125 6.109375 44.609375 11.75 
Q 48.6875 17.390625 48.6875 27.296875 
z
M 18.109375 46.390625 
Q 20.953125 51.265625 25.265625 53.625 
Q 29.59375 56 35.59375 56 
Q 45.5625 56 51.78125 48.09375 
Q 58.015625 40.1875 58.015625 27.296875 
Q 58.015625 14.40625 51.78125 6.484375 
Q 45.5625 -1.421875 35.59375 -1.421875 
Q 29.59375 -1.421875 25.265625 0.953125 
Q 20.953125 3.328125 18.109375 8.203125 
L 18.109375 0 
L 9.078125 0 
L 9.078125 75.984375 
L 18.109375 75.984375 
z
" id="DejaVuSans-98"/>
     </defs>
     <g transform="translate(48.072031 356.592437)scale(0.22 -0.22)">
      <use xlink:href="#DejaVuSans-78"/>
      <use x="74.804688" xlink:href="#DejaVuSans-111"/>
      <use x="135.986328" xlink:href="#DejaVuSans-114"/>
      <use x="177.083984" xlink:href="#DejaVuSans-109"/>
      <use x="274.496094" xlink:href="#DejaVuSans-97"/>
      <use x="335.775391" xlink:href="#DejaVuSans-108"/>
      <use x="363.558594" xlink:href="#DejaVuSans-105"/>
      <use x="391.341797" xlink:href="#DejaVuSans-122"/>
      <use x="443.832031" xlink:href="#DejaVuSans-101"/>
      <use x="505.355469" xlink:href="#DejaVuSans-100"/>
      <use x="568.832031" xlink:href="#DejaVuSans-32"/>
      <use x="600.619141" xlink:href="#DejaVuSans-115"/>
      <use x="652.71875" xlink:href="#DejaVuSans-112"/>
      <use x="716.195312" xlink:href="#DejaVuSans-101"/>
      <use x="777.71875" xlink:href="#DejaVuSans-99"/>
      <use x="832.699219" xlink:href="#DejaVuSans-116"/>
      <use x="871.908203" xlink:href="#DejaVuSans-114"/>
      <use x="913.021484" xlink:href="#DejaVuSans-97"/>
      <use x="974.300781" xlink:href="#DejaVuSans-108"/>
      <use x="1002.083984" xlink:href="#DejaVuSans-32"/>
      <use x="1033.871094" xlink:href="#DejaVuSans-100"/>
      <use x="1097.347656" xlink:href="#DejaVuSans-101"/>
      <use x="1158.871094" xlink:href="#DejaVuSans-110"/>
      <use x="1222.25" xlink:href="#DejaVuSans-115"/>
      <use x="1274.349609" xlink:href="#DejaVuSans-105"/>
      <use x="1302.132812" xlink:href="#DejaVuSans-116"/>
      <use x="1341.341797" xlink:href="#DejaVuSans-121"/>
      <use x="1400.521484" xlink:href="#DejaVuSans-32"/>
      <use x="1432.308594" xlink:href="#DejaVuSans-105"/>
      <use x="1460.091797" xlink:href="#DejaVuSans-110"/>
      <use x="1523.470703" xlink:href="#DejaVuSans-32"/>
      <use x="1555.257812" xlink:href="#DejaVuSans-98"/>
      <use x="1618.734375" xlink:href="#DejaVuSans-105"/>
      <use x="1646.517578" xlink:href="#DejaVuSans-110"/>
     </g>
    </g>
   </g>
   <g id="matplotlib.axis_2">
    <g id="ytick_1">
     <g id="line2d_3">
      <defs>
       <path d="M 0 0 
L -3.5 0 
" id="m3c6ae86f0c" style="stroke:#000000;stroke-width:0.8;"/>
      </defs>
      <g>
       <use style="stroke:#000000;stroke-width:0.8;" x="57.6" xlink:href="#m3c6ae86f0c" y="296.6976"/>
      </g>
     </g>
     <g id="text_4">
      <!-- 0.0 -->
      <g transform="translate(15.613125 305.055881)scale(0.22 -0.22)">
       <use xlink:href="#DejaVuSans-48"/>
       <use x="63.623047" xlink:href="#DejaVuSans-46"/>
       <use x="95.410156" xlink:href="#DejaVuSans-48"/>
      </g>
     </g>
    </g>
    <g id="ytick_2">
     <g id="line2d_4">
      <g>
       <use style="stroke:#000000;stroke-width:0.8;" x="57.6" xlink:href="#m3c6ae86f0c" y="248.07168"/>
      </g>
     </g>
     <g id="text_5">
      <!-- 0.2 -->
      <defs>
       <path d="M 19.1875 8.296875 
L 53.609375 8.296875 
L 53.609375 0 
L 7.328125 0 
L 7.328125 8.296875 
Q 12.9375 14.109375 22.625 23.890625 
Q 32.328125 33.6875 34.8125 36.53125 
Q 39.546875 41.84375 41.421875 45.53125 
Q 43.3125 49.21875 43.3125 52.78125 
Q 43.3125 58.59375 39.234375 62.25 
Q 35.15625 65.921875 28.609375 65.921875 
Q 23.96875 65.921875 18.8125 64.3125 
Q 13.671875 62.703125 7.8125 59.421875 
L 7.8125 69.390625 
Q 13.765625 71.78125 18.9375 73 
Q 24.125 74.21875 28.421875 74.21875 
Q 39.75 74.21875 46.484375 68.546875 
Q 53.21875 62.890625 53.21875 53.421875 
Q 53.21875 48.921875 51.53125 44.890625 
Q 49.859375 40.875 45.40625 35.40625 
Q 44.1875 33.984375 37.640625 27.21875 
Q 31.109375 20.453125 19.1875 8.296875 
z
" id="DejaVuSans-50"/>
      </defs>
      <g transform="translate(15.613125 256.429961)scale(0.22 -0.22)">
       <use xlink:href="#DejaVuSans-48"/>
       <use x="63.623047" xlink:href="#DejaVuSans-46"/>
       <use x="95.410156" xlink:href="#DejaVuSans-50"/>
      </g>
     </g>
    </g>
    <g id="ytick_3">
     <g id="line2d_5">
      <g>
       <use style="stroke:#000000;stroke-width:0.8;" x="57.6" xlink:href="#m3c6ae86f0c" y="199.44576"/>
      </g>
     </g>
     <g id="text_6">
      <!-- 0.4 -->
      <defs>
       <path d="M 37.796875 64.3125 
L 12.890625 25.390625 
L 37.796875 25.390625 
z
M 35.203125 72.90625 
L 47.609375 72.90625 
L 47.609375 25.390625 
L 58.015625 25.390625 
L 58.015625 17.1875 
L 47.609375 17.1875 
L 47.609375 0 
L 37.796875 0 
L 37.796875 17.1875 
L 4.890625 17.1875 
L 4.890625 26.703125 
z
" id="DejaVuSans-52"/>
      </defs>
      <g transform="translate(15.613125 207.804041)scale(0.22 -0.22)">
       <use xlink:href="#DejaVuSans-48"/>
       <use x="63.623047" xlink:href="#DejaVuSans-46"/>
       <use x="95.410156" xlink:href="#DejaVuSans-52"/>
      </g>
     </g>
    </g>
    <g id="ytick_4">
     <g id="line2d_6">
      <g>
       <use style="stroke:#000000;stroke-width:0.8;" x="57.6" xlink:href="#m3c6ae86f0c" y="150.81984"/>
      </g>
     </g>
     <g id="text_7">
      <!-- 0.6 -->
      <defs>
       <path d="M 33.015625 40.375 
Q 26.375 40.375 22.484375 35.828125 
Q 18.609375 31.296875 18.609375 23.390625 
Q 18.609375 15.53125 22.484375 10.953125 
Q 26.375 6.390625 33.015625 6.390625 
Q 39.65625 6.390625 43.53125 10.953125 
Q 47.40625 15.53125 47.40625 23.390625 
Q 47.40625 31.296875 43.53125 35.828125 
Q 39.65625 40.375 33.015625 40.375 
z
M 52.59375 71.296875 
L 52.59375 62.3125 
Q 48.875 64.0625 45.09375 64.984375 
Q 41.3125 65.921875 37.59375 65.921875 
Q 27.828125 65.921875 22.671875 59.328125 
Q 17.53125 52.734375 16.796875 39.40625 
Q 19.671875 43.65625 24.015625 45.921875 
Q 28.375 48.1875 33.59375 48.1875 
Q 44.578125 48.1875 50.953125 41.515625 
Q 57.328125 34.859375 57.328125 23.390625 
Q 57.328125 12.15625 50.6875 5.359375 
Q 44.046875 -1.421875 33.015625 -1.421875 
Q 20.359375 -1.421875 13.671875 8.265625 
Q 6.984375 17.96875 6.984375 36.375 
Q 6.984375 53.65625 15.1875 63.9375 
Q 23.390625 74.21875 37.203125 74.21875 
Q 40.921875 74.21875 44.703125 73.484375 
Q 48.484375 72.75 52.59375 71.296875 
z
" id="DejaVuSans-54"/>
      </defs>
      <g transform="translate(15.613125 159.178121)scale(0.22 -0.22)">
       <use xlink:href="#DejaVuSans-48"/>
       <use x="63.623047" xlink:href="#DejaVuSans-46"/>
       <use x="95.410156" xlink:href="#DejaVuSans-54"/>
      </g>
     </g>
    </g>
    <g id="ytick_5">
     <g id="line2d_7">
      <g>
       <use style="stroke:#000000;stroke-width:0.8;" x="57.6" xlink:href="#m3c6ae86f0c" y="102.19392"/>
      </g>
     </g>
     <g id="text_8">
      <!-- 0.8 -->
      <defs>
       <path d="M 31.78125 34.625 
Q 24.75 34.625 20.71875 30.859375 
Q 16.703125 27.09375 16.703125 20.515625 
Q 16.703125 13.921875 20.71875 10.15625 
Q 24.75 6.390625 31.78125 6.390625 
Q 38.8125 6.390625 42.859375 10.171875 
Q 46.921875 13.96875 46.921875 20.515625 
Q 46.921875 27.09375 42.890625 30.859375 
Q 38.875 34.625 31.78125 34.625 
z
M 21.921875 38.8125 
Q 15.578125 40.375 12.03125 44.71875 
Q 8.5 49.078125 8.5 55.328125 
Q 8.5 64.0625 14.71875 69.140625 
Q 20.953125 74.21875 31.78125 74.21875 
Q 42.671875 74.21875 48.875 69.140625 
Q 55.078125 64.0625 55.078125 55.328125 
Q 55.078125 49.078125 51.53125 44.71875 
Q 48 40.375 41.703125 38.8125 
Q 48.828125 37.15625 52.796875 32.3125 
Q 56.78125 27.484375 56.78125 20.515625 
Q 56.78125 9.90625 50.3125 4.234375 
Q 43.84375 -1.421875 31.78125 -1.421875 
Q 19.734375 -1.421875 13.25 4.234375 
Q 6.78125 9.90625 6.78125 20.515625 
Q 6.78125 27.484375 10.78125 32.3125 
Q 14.796875 37.15625 21.921875 38.8125 
z
M 18.3125 54.390625 
Q 18.3125 48.734375 21.84375 45.5625 
Q 25.390625 42.390625 31.78125 42.390625 
Q 38.140625 42.390625 41.71875 45.5625 
Q 45.3125 48.734375 45.3125 54.390625 
Q 45.3125 60.0625 41.71875 63.234375 
Q 38.140625 66.40625 31.78125 66.40625 
Q 25.390625 66.40625 21.84375 63.234375 
Q 18.3125 60.0625 18.3125 54.390625 
z
" id="DejaVuSans-56"/>
      </defs>
      <g transform="translate(15.613125 110.552201)scale(0.22 -0.22)">
       <use xlink:href="#DejaVuSans-48"/>
       <use x="63.623047" xlink:href="#DejaVuSans-46"/>
       <use x="95.410156" xlink:href="#DejaVuSans-56"/>
      </g>
     </g>
    </g>
    <g id="ytick_6">
     <g id="line2d_8">
      <g>
       <use style="stroke:#000000;stroke-width:0.8;" x="57.6" xlink:href="#m3c6ae86f0c" y="53.568"/>
      </g>
     </g>
     <g id="text_9">
      <!-- 1.0 -->
      <g transform="translate(15.613125 61.926281)scale(0.22 -0.22)">
       <use xlink:href="#DejaVuSans-49"/>
       <use x="63.623047" xlink:href="#DejaVuSans-46"/>
       <use x="95.410156" xlink:href="#DejaVuSans-48"/>
      </g>
     </g>
    </g>
    <g id="text_10">
     <!-- ECDF -->
     <defs>
      <path d="M 9.8125 72.90625 
L 55.90625 72.90625 
L 55.90625 64.59375 
L 19.671875 64.59375 
L 19.671875 43.015625 
L 54.390625 43.015625 
L 54.390625 34.71875 
L 19.671875 34.71875 
L 19.671875 8.296875 
L 56.78125 8.296875 
L 56.78125 0 
L 9.8125 0 
z
" id="DejaVuSans-69"/>
      <path d="M 64.40625 67.28125 
L 64.40625 56.890625 
Q 59.421875 61.53125 53.78125 63.8125 
Q 48.140625 66.109375 41.796875 66.109375 
Q 29.296875 66.109375 22.65625 58.46875 
Q 16.015625 50.828125 16.015625 36.375 
Q 16.015625 21.96875 22.65625 14.328125 
Q 29.296875 6.6875 41.796875 6.6875 
Q 48.140625 6.6875 53.78125 8.984375 
Q 59.421875 11.28125 64.40625 15.921875 
L 64.40625 5.609375 
Q 59.234375 2.09375 53.4375 0.328125 
Q 47.65625 -1.421875 41.21875 -1.421875 
Q 24.65625 -1.421875 15.125 8.703125 
Q 5.609375 18.84375 5.609375 36.375 
Q 5.609375 53.953125 15.125 64.078125 
Q 24.65625 74.21875 41.21875 74.21875 
Q 47.75 74.21875 53.53125 72.484375 
Q 59.328125 70.75 64.40625 67.28125 
z
" id="DejaVuSans-67"/>
      <path d="M 19.671875 64.796875 
L 19.671875 8.109375 
L 31.59375 8.109375 
Q 46.6875 8.109375 53.6875 14.9375 
Q 60.6875 21.78125 60.6875 36.53125 
Q 60.6875 51.171875 53.6875 57.984375 
Q 46.6875 64.796875 31.59375 64.796875 
z
M 9.8125 72.90625 
L 30.078125 72.90625 
Q 51.265625 72.90625 61.171875 64.09375 
Q 71.09375 55.28125 71.09375 36.53125 
Q 71.09375 17.671875 61.125 8.828125 
Q 51.171875 0 30.078125 0 
L 9.8125 0 
z
" id="DejaVuSans-68"/>
      <path d="M 9.8125 72.90625 
L 51.703125 72.90625 
L 51.703125 64.59375 
L 19.671875 64.59375 
L 19.671875 43.109375 
L 48.578125 43.109375 
L 48.578125 34.8125 
L 19.671875 34.8125 
L 19.671875 0 
L 9.8125 0 
z
" id="DejaVuSans-70"/>
     </defs>
     <g transform="translate(7.037813 203.956437)rotate(-90)scale(0.22 -0.22)">
      <use xlink:href="#DejaVuSans-69"/>
      <use x="63.183594" xlink:href="#DejaVuSans-67"/>
      <use x="133.007812" xlink:href="#DejaVuSans-68"/>
      <use x="210.009766" xlink:href="#DejaVuSans-70"/>
     </g>
    </g>
   </g>
   <g id="line2d_9">
    <defs>
     <path d="M 0 3 
C 0.795609 3 1.55874 2.683901 2.12132 2.12132 
C 2.683901 1.55874 3 0.795609 3 0 
C 3 -0.795609 2.683901 -1.55874 2.12132 -2.12132 
C 1.55874 -2.683901 0.795609 -3 0 -3 
C -0.795609 -3 -1.55874 -2.683901 -2.12132 -2.12132 
C -2.683901 -1.55874 -3 -0.795609 -3 0 
C -3 0.795609 -2.683901 1.55874 -2.12132 2.12132 
C -1.55874 2.683901 -0.795609 3 0 3 
z
" id="m158ae47e57" style="stroke:#1f77b4;"/>
    </defs>
    <g clip-path="url(#p124e9e0eb3)">
     <use style="fill:#1f77b4;stroke:#1f77b4;" x="91.303167" xlink:href="#m158ae47e57" y="294.359815"/>
     <use style="fill:#1f77b4;stroke:#1f77b4;" x="96.159146" xlink:href="#m158ae47e57" y="292.022031"/>
     <use style="fill:#1f77b4;stroke:#1f77b4;" x="100.364529" xlink:href="#m158ae47e57" y="289.684246"/>
     <use style="fill:#1f77b4;stroke:#1f77b4;" x="105.916578" xlink:href="#m158ae47e57" y="287.346462"/>
     <use style="fill:#1f77b4;stroke:#1f77b4;" x="108.364259" xlink:href="#m158ae47e57" y="285.008677"/>
     <use style="fill:#1f77b4;stroke:#1f77b4;" x="111.831991" xlink:href="#m158ae47e57" y="282.670892"/>
     <use style="fill:#1f77b4;stroke:#1f77b4;" x="113.098596" xlink:href="#m158ae47e57" y="280.333108"/>
     <use style="fill:#1f77b4;stroke:#1f77b4;" x="113.479396" xlink:href="#m158ae47e57" y="277.995323"/>
     <use style="fill:#1f77b4;stroke:#1f77b4;" x="114.206549" xlink:href="#m158ae47e57" y="275.657538"/>
     <use style="fill:#1f77b4;stroke:#1f77b4;" x="115.010841" xlink:href="#m158ae47e57" y="273.319754"/>
     <use style="fill:#1f77b4;stroke:#1f77b4;" x="115.111697" xlink:href="#m158ae47e57" y="270.981969"/>
     <use style="fill:#1f77b4;stroke:#1f77b4;" x="115.417887" xlink:href="#m158ae47e57" y="268.644185"/>
     <use style="fill:#1f77b4;stroke:#1f77b4;" x="115.611989" xlink:href="#m158ae47e57" y="266.3064"/>
     <use style="fill:#1f77b4;stroke:#1f77b4;" x="115.666182" xlink:href="#m158ae47e57" y="263.968615"/>
     <use style="fill:#1f77b4;stroke:#1f77b4;" x="116.55082" xlink:href="#m158ae47e57" y="261.630831"/>
     <use style="fill:#1f77b4;stroke:#1f77b4;" x="118.642165" xlink:href="#m158ae47e57" y="259.293046"/>
     <use style="fill:#1f77b4;stroke:#1f77b4;" x="119.309002" xlink:href="#m158ae47e57" y="256.955262"/>
     <use style="fill:#1f77b4;stroke:#1f77b4;" x="119.355258" xlink:href="#m158ae47e57" y="254.617477"/>
     <use style="fill:#1f77b4;stroke:#1f77b4;" x="120.016732" xlink:href="#m158ae47e57" y="252.279692"/>
     <use style="fill:#1f77b4;stroke:#1f77b4;" x="120.715208" xlink:href="#m158ae47e57" y="249.941908"/>
     <use style="fill:#1f77b4;stroke:#1f77b4;" x="123.925673" xlink:href="#m158ae47e57" y="247.604123"/>
     <use style="fill:#1f77b4;stroke:#1f77b4;" x="125.323264" xlink:href="#m158ae47e57" y="245.266338"/>
     <use style="fill:#1f77b4;stroke:#1f77b4;" x="129.117009" xlink:href="#m158ae47e57" y="242.928554"/>
     <use style="fill:#1f77b4;stroke:#1f77b4;" x="130.807114" xlink:href="#m158ae47e57" y="240.590769"/>
     <use style="fill:#1f77b4;stroke:#1f77b4;" x="132.710854" xlink:href="#m158ae47e57" y="238.252985"/>
     <use style="fill:#1f77b4;stroke:#1f77b4;" x="132.836606" xlink:href="#m158ae47e57" y="235.9152"/>
     <use style="fill:#1f77b4;stroke:#1f77b4;" x="132.971586" xlink:href="#m158ae47e57" y="233.577415"/>
     <use style="fill:#1f77b4;stroke:#1f77b4;" x="133.151726" xlink:href="#m158ae47e57" y="231.239631"/>
     <use style="fill:#1f77b4;stroke:#1f77b4;" x="134.471124" xlink:href="#m158ae47e57" y="228.901846"/>
     <use style="fill:#1f77b4;stroke:#1f77b4;" x="136.127181" xlink:href="#m158ae47e57" y="226.564062"/>
     <use style="fill:#1f77b4;stroke:#1f77b4;" x="138.846981" xlink:href="#m158ae47e57" y="224.226277"/>
     <use style="fill:#1f77b4;stroke:#1f77b4;" x="139.643717" xlink:href="#m158ae47e57" y="221.888492"/>
     <use style="fill:#1f77b4;stroke:#1f77b4;" x="142.066503" xlink:href="#m158ae47e57" y="219.550708"/>
     <use style="fill:#1f77b4;stroke:#1f77b4;" x="142.977588" xlink:href="#m158ae47e57" y="217.212923"/>
     <use style="fill:#1f77b4;stroke:#1f77b4;" x="143.221326" xlink:href="#m158ae47e57" y="214.875138"/>
     <use style="fill:#1f77b4;stroke:#1f77b4;" x="143.996611" xlink:href="#m158ae47e57" y="212.537354"/>
     <use style="fill:#1f77b4;stroke:#1f77b4;" x="144.192797" xlink:href="#m158ae47e57" y="210.199569"/>
     <use style="fill:#1f77b4;stroke:#1f77b4;" x="146.618785" xlink:href="#m158ae47e57" y="207.861785"/>
     <use style="fill:#1f77b4;stroke:#1f77b4;" x="147.314345" xlink:href="#m158ae47e57" y="205.524"/>
     <use style="fill:#1f77b4;stroke:#1f77b4;" x="147.922557" xlink:href="#m158ae47e57" y="203.186215"/>
     <use style="fill:#1f77b4;stroke:#1f77b4;" x="148.420278" xlink:href="#m158ae47e57" y="200.848431"/>
     <use style="fill:#1f77b4;stroke:#1f77b4;" x="151.752211" xlink:href="#m158ae47e57" y="198.510646"/>
     <use style="fill:#1f77b4;stroke:#1f77b4;" x="156.750724" xlink:href="#m158ae47e57" y="196.172862"/>
     <use style="fill:#1f77b4;stroke:#1f77b4;" x="157.201103" xlink:href="#m158ae47e57" y="193.835077"/>
     <use style="fill:#1f77b4;stroke:#1f77b4;" x="157.719567" xlink:href="#m158ae47e57" y="191.497292"/>
     <use style="fill:#1f77b4;stroke:#1f77b4;" x="158.697512" xlink:href="#m158ae47e57" y="189.159508"/>
     <use style="fill:#1f77b4;stroke:#1f77b4;" x="158.887197" xlink:href="#m158ae47e57" y="186.821723"/>
     <use style="fill:#1f77b4;stroke:#1f77b4;" x="160.267341" xlink:href="#m158ae47e57" y="184.483938"/>
     <use style="fill:#1f77b4;stroke:#1f77b4;" x="161.725788" xlink:href="#m158ae47e57" y="182.146154"/>
     <use style="fill:#1f77b4;stroke:#1f77b4;" x="162.522332" xlink:href="#m158ae47e57" y="179.808369"/>
     <use style="fill:#1f77b4;stroke:#1f77b4;" x="162.557425" xlink:href="#m158ae47e57" y="177.470585"/>
     <use style="fill:#1f77b4;stroke:#1f77b4;" x="163.644647" xlink:href="#m158ae47e57" y="175.1328"/>
     <use style="fill:#1f77b4;stroke:#1f77b4;" x="165.771221" xlink:href="#m158ae47e57" y="172.795015"/>
     <use style="fill:#1f77b4;stroke:#1f77b4;" x="166.552946" xlink:href="#m158ae47e57" y="170.457231"/>
     <use style="fill:#1f77b4;stroke:#1f77b4;" x="168.519451" xlink:href="#m158ae47e57" y="168.119446"/>
     <use style="fill:#1f77b4;stroke:#1f77b4;" x="169.027087" xlink:href="#m158ae47e57" y="165.781662"/>
     <use style="fill:#1f77b4;stroke:#1f77b4;" x="169.336886" xlink:href="#m158ae47e57" y="163.443877"/>
     <use style="fill:#1f77b4;stroke:#1f77b4;" x="170.289323" xlink:href="#m158ae47e57" y="161.106092"/>
     <use style="fill:#1f77b4;stroke:#1f77b4;" x="170.508533" xlink:href="#m158ae47e57" y="158.768308"/>
     <use style="fill:#1f77b4;stroke:#1f77b4;" x="170.99831" xlink:href="#m158ae47e57" y="156.430523"/>
     <use style="fill:#1f77b4;stroke:#1f77b4;" x="172.232111" xlink:href="#m158ae47e57" y="154.092738"/>
     <use style="fill:#1f77b4;stroke:#1f77b4;" x="174.564815" xlink:href="#m158ae47e57" y="151.754954"/>
     <use style="fill:#1f77b4;stroke:#1f77b4;" x="174.898422" xlink:href="#m158ae47e57" y="149.417169"/>
     <use style="fill:#1f77b4;stroke:#1f77b4;" x="177.773478" xlink:href="#m158ae47e57" y="147.079385"/>
     <use style="fill:#1f77b4;stroke:#1f77b4;" x="179.511865" xlink:href="#m158ae47e57" y="144.7416"/>
     <use style="fill:#1f77b4;stroke:#1f77b4;" x="180.28741" xlink:href="#m158ae47e57" y="142.403815"/>
     <use style="fill:#1f77b4;stroke:#1f77b4;" x="182.32938" xlink:href="#m158ae47e57" y="140.066031"/>
     <use style="fill:#1f77b4;stroke:#1f77b4;" x="183.879939" xlink:href="#m158ae47e57" y="137.728246"/>
     <use style="fill:#1f77b4;stroke:#1f77b4;" x="186.492659" xlink:href="#m158ae47e57" y="135.390462"/>
     <use style="fill:#1f77b4;stroke:#1f77b4;" x="192.905869" xlink:href="#m158ae47e57" y="133.052677"/>
     <use style="fill:#1f77b4;stroke:#1f77b4;" x="195.62821" xlink:href="#m158ae47e57" y="130.714892"/>
     <use style="fill:#1f77b4;stroke:#1f77b4;" x="197.267499" xlink:href="#m158ae47e57" y="128.377108"/>
     <use style="fill:#1f77b4;stroke:#1f77b4;" x="198.368988" xlink:href="#m158ae47e57" y="126.039323"/>
     <use style="fill:#1f77b4;stroke:#1f77b4;" x="198.650489" xlink:href="#m158ae47e57" y="123.701538"/>
     <use style="fill:#1f77b4;stroke:#1f77b4;" x="199.835171" xlink:href="#m158ae47e57" y="121.363754"/>
     <use style="fill:#1f77b4;stroke:#1f77b4;" x="202.270875" xlink:href="#m158ae47e57" y="119.025969"/>
     <use style="fill:#1f77b4;stroke:#1f77b4;" x="206.362091" xlink:href="#m158ae47e57" y="116.688185"/>
     <use style="fill:#1f77b4;stroke:#1f77b4;" x="212.088317" xlink:href="#m158ae47e57" y="114.3504"/>
     <use style="fill:#1f77b4;stroke:#1f77b4;" x="212.721259" xlink:href="#m158ae47e57" y="112.012615"/>
     <use style="fill:#1f77b4;stroke:#1f77b4;" x="212.934998" xlink:href="#m158ae47e57" y="109.674831"/>
     <use style="fill:#1f77b4;stroke:#1f77b4;" x="215.166208" xlink:href="#m158ae47e57" y="107.337046"/>
     <use style="fill:#1f77b4;stroke:#1f77b4;" x="218.562031" xlink:href="#m158ae47e57" y="104.999262"/>
     <use style="fill:#1f77b4;stroke:#1f77b4;" x="219.542208" xlink:href="#m158ae47e57" y="102.661477"/>
     <use style="fill:#1f77b4;stroke:#1f77b4;" x="223.307795" xlink:href="#m158ae47e57" y="100.323692"/>
     <use style="fill:#1f77b4;stroke:#1f77b4;" x="232.159355" xlink:href="#m158ae47e57" y="97.985908"/>
     <use style="fill:#1f77b4;stroke:#1f77b4;" x="237.196169" xlink:href="#m158ae47e57" y="95.648123"/>
     <use style="fill:#1f77b4;stroke:#1f77b4;" x="244.371016" xlink:href="#m158ae47e57" y="93.310338"/>
     <use style="fill:#1f77b4;stroke:#1f77b4;" x="247.627195" xlink:href="#m158ae47e57" y="90.972554"/>
     <use style="fill:#1f77b4;stroke:#1f77b4;" x="247.67614" xlink:href="#m158ae47e57" y="88.634769"/>
     <use style="fill:#1f77b4;stroke:#1f77b4;" x="253.923789" xlink:href="#m158ae47e57" y="86.296985"/>
     <use style="fill:#1f77b4;stroke:#1f77b4;" x="259.366437" xlink:href="#m158ae47e57" y="83.9592"/>
     <use style="fill:#1f77b4;stroke:#1f77b4;" x="264.815866" xlink:href="#m158ae47e57" y="81.621415"/>
     <use style="fill:#1f77b4;stroke:#1f77b4;" x="278.163667" xlink:href="#m158ae47e57" y="79.283631"/>
     <use style="fill:#1f77b4;stroke:#1f77b4;" x="290.274117" xlink:href="#m158ae47e57" y="76.945846"/>
     <use style="fill:#1f77b4;stroke:#1f77b4;" x="295.65252" xlink:href="#m158ae47e57" y="74.608062"/>
     <use style="fill:#1f77b4;stroke:#1f77b4;" x="296.513609" xlink:href="#m158ae47e57" y="72.270277"/>
     <use style="fill:#1f77b4;stroke:#1f77b4;" x="301.342127" xlink:href="#m158ae47e57" y="69.932492"/>
     <use style="fill:#1f77b4;stroke:#1f77b4;" x="318.199602" xlink:href="#m158ae47e57" y="67.594708"/>
     <use style="fill:#1f77b4;stroke:#1f77b4;" x="322.608863" xlink:href="#m158ae47e57" y="65.256923"/>
     <use style="fill:#1f77b4;stroke:#1f77b4;" x="334.27967" xlink:href="#m158ae47e57" y="62.919138"/>
     <use style="fill:#1f77b4;stroke:#1f77b4;" x="363.408754" xlink:href="#m158ae47e57" y="60.581354"/>
     <use style="fill:#1f77b4;stroke:#1f77b4;" x="372.441693" xlink:href="#m158ae47e57" y="58.243569"/>
     <use style="fill:#1f77b4;stroke:#1f77b4;" x="392.293705" xlink:href="#m158ae47e57" y="55.905785"/>
     <use style="fill:#1f77b4;stroke:#1f77b4;" x="398.487273" xlink:href="#m158ae47e57" y="53.568"/>
    </g>
   </g>
   <g id="line2d_10">
    <defs>
     <path d="M 0 3 
C 0.795609 3 1.55874 2.683901 2.12132 2.12132 
C 2.683901 1.55874 3 0.795609 3 0 
C 3 -0.795609 2.683901 -1.55874 2.12132 -2.12132 
C 1.55874 -2.683901 0.795609 -3 0 -3 
C -0.795609 -3 -1.55874 -2.683901 -2.12132 -2.12132 
C -2.683901 -1.55874 -3 -0.795609 -3 0 
C -3 0.795609 -2.683901 1.55874 -2.12132 2.12132 
C -1.55874 2.683901 -0.795609 3 0 3 
z
" id="mfe150e9c6a" style="stroke:#ff7f0e;"/>
    </defs>
    <g clip-path="url(#p124e9e0eb3)">
     <use style="fill:#ff7f0e;stroke:#ff7f0e;" x="73.832727" xlink:href="#mfe150e9c6a" y="295.488"/>
     <use style="fill:#ff7f0e;stroke:#ff7f0e;" x="75.928835" xlink:href="#mfe150e9c6a" y="294.2784"/>
     <use style="fill:#ff7f0e;stroke:#ff7f0e;" x="76.900309" xlink:href="#mfe150e9c6a" y="293.0688"/>
     <use style="fill:#ff7f0e;stroke:#ff7f0e;" x="77.177371" xlink:href="#mfe150e9c6a" y="291.8592"/>
     <use style="fill:#ff7f0e;stroke:#ff7f0e;" x="78.842576" xlink:href="#mfe150e9c6a" y="290.6496"/>
     <use style="fill:#ff7f0e;stroke:#ff7f0e;" x="79.03348" xlink:href="#mfe150e9c6a" y="289.44"/>
     <use style="fill:#ff7f0e;stroke:#ff7f0e;" x="79.423703" xlink:href="#mfe150e9c6a" y="288.2304"/>
     <use style="fill:#ff7f0e;stroke:#ff7f0e;" x="79.616697" xlink:href="#mfe150e9c6a" y="287.0208"/>
     <use style="fill:#ff7f0e;stroke:#ff7f0e;" x="79.694712" xlink:href="#mfe150e9c6a" y="285.8112"/>
     <use style="fill:#ff7f0e;stroke:#ff7f0e;" x="79.804539" xlink:href="#mfe150e9c6a" y="284.6016"/>
     <use style="fill:#ff7f0e;stroke:#ff7f0e;" x="80.319218" xlink:href="#mfe150e9c6a" y="283.392"/>
     <use style="fill:#ff7f0e;stroke:#ff7f0e;" x="80.981759" xlink:href="#mfe150e9c6a" y="282.1824"/>
     <use style="fill:#ff7f0e;stroke:#ff7f0e;" x="81.36005" xlink:href="#mfe150e9c6a" y="280.9728"/>
     <use style="fill:#ff7f0e;stroke:#ff7f0e;" x="81.494578" xlink:href="#mfe150e9c6a" y="279.7632"/>
     <use style="fill:#ff7f0e;stroke:#ff7f0e;" x="81.831418" xlink:href="#mfe150e9c6a" y="278.5536"/>
     <use style="fill:#ff7f0e;stroke:#ff7f0e;" x="82.044942" xlink:href="#mfe150e9c6a" y="277.344"/>
     <use style="fill:#ff7f0e;stroke:#ff7f0e;" x="82.404514" xlink:href="#mfe150e9c6a" y="276.1344"/>
     <use style="fill:#ff7f0e;stroke:#ff7f0e;" x="82.852095" xlink:href="#mfe150e9c6a" y="274.9248"/>
     <use style="fill:#ff7f0e;stroke:#ff7f0e;" x="83.087765" xlink:href="#mfe150e9c6a" y="273.7152"/>
     <use style="fill:#ff7f0e;stroke:#ff7f0e;" x="83.100874" xlink:href="#mfe150e9c6a" y="272.5056"/>
     <use style="fill:#ff7f0e;stroke:#ff7f0e;" x="83.248194" xlink:href="#mfe150e9c6a" y="271.296"/>
     <use style="fill:#ff7f0e;stroke:#ff7f0e;" x="83.273394" xlink:href="#mfe150e9c6a" y="270.0864"/>
     <use style="fill:#ff7f0e;stroke:#ff7f0e;" x="83.402839" xlink:href="#mfe150e9c6a" y="268.8768"/>
     <use style="fill:#ff7f0e;stroke:#ff7f0e;" x="84.034676" xlink:href="#mfe150e9c6a" y="267.6672"/>
     <use style="fill:#ff7f0e;stroke:#ff7f0e;" x="84.245638" xlink:href="#mfe150e9c6a" y="266.4576"/>
     <use style="fill:#ff7f0e;stroke:#ff7f0e;" x="85.06775" xlink:href="#mfe150e9c6a" y="265.248"/>
     <use style="fill:#ff7f0e;stroke:#ff7f0e;" x="85.377478" xlink:href="#mfe150e9c6a" y="264.0384"/>
     <use style="fill:#ff7f0e;stroke:#ff7f0e;" x="85.414065" xlink:href="#mfe150e9c6a" y="262.8288"/>
     <use style="fill:#ff7f0e;stroke:#ff7f0e;" x="85.942926" xlink:href="#mfe150e9c6a" y="261.6192"/>
     <use style="fill:#ff7f0e;stroke:#ff7f0e;" x="86.011543" xlink:href="#mfe150e9c6a" y="260.4096"/>
     <use style="fill:#ff7f0e;stroke:#ff7f0e;" x="86.047693" xlink:href="#mfe150e9c6a" y="259.2"/>
     <use style="fill:#ff7f0e;stroke:#ff7f0e;" x="86.226958" xlink:href="#mfe150e9c6a" y="257.9904"/>
     <use style="fill:#ff7f0e;stroke:#ff7f0e;" x="86.24958" xlink:href="#mfe150e9c6a" y="256.7808"/>
     <use style="fill:#ff7f0e;stroke:#ff7f0e;" x="86.328373" xlink:href="#mfe150e9c6a" y="255.5712"/>
     <use style="fill:#ff7f0e;stroke:#ff7f0e;" x="86.744566" xlink:href="#mfe150e9c6a" y="254.3616"/>
     <use style="fill:#ff7f0e;stroke:#ff7f0e;" x="87.137934" xlink:href="#mfe150e9c6a" y="253.152"/>
     <use style="fill:#ff7f0e;stroke:#ff7f0e;" x="87.333948" xlink:href="#mfe150e9c6a" y="251.9424"/>
     <use style="fill:#ff7f0e;stroke:#ff7f0e;" x="87.369556" xlink:href="#mfe150e9c6a" y="250.7328"/>
     <use style="fill:#ff7f0e;stroke:#ff7f0e;" x="87.425114" xlink:href="#mfe150e9c6a" y="249.5232"/>
     <use style="fill:#ff7f0e;stroke:#ff7f0e;" x="87.496585" xlink:href="#mfe150e9c6a" y="248.3136"/>
     <use style="fill:#ff7f0e;stroke:#ff7f0e;" x="87.606218" xlink:href="#mfe150e9c6a" y="247.104"/>
     <use style="fill:#ff7f0e;stroke:#ff7f0e;" x="87.644652" xlink:href="#mfe150e9c6a" y="245.8944"/>
     <use style="fill:#ff7f0e;stroke:#ff7f0e;" x="87.658703" xlink:href="#mfe150e9c6a" y="244.6848"/>
     <use style="fill:#ff7f0e;stroke:#ff7f0e;" x="87.792943" xlink:href="#mfe150e9c6a" y="243.4752"/>
     <use style="fill:#ff7f0e;stroke:#ff7f0e;" x="88.019088" xlink:href="#mfe150e9c6a" y="242.2656"/>
     <use style="fill:#ff7f0e;stroke:#ff7f0e;" x="88.116092" xlink:href="#mfe150e9c6a" y="241.056"/>
     <use style="fill:#ff7f0e;stroke:#ff7f0e;" x="88.271865" xlink:href="#mfe150e9c6a" y="239.8464"/>
     <use style="fill:#ff7f0e;stroke:#ff7f0e;" x="88.292521" xlink:href="#mfe150e9c6a" y="238.6368"/>
     <use style="fill:#ff7f0e;stroke:#ff7f0e;" x="88.317393" xlink:href="#mfe150e9c6a" y="237.4272"/>
     <use style="fill:#ff7f0e;stroke:#ff7f0e;" x="88.355537" xlink:href="#mfe150e9c6a" y="236.2176"/>
     <use style="fill:#ff7f0e;stroke:#ff7f0e;" x="88.367797" xlink:href="#mfe150e9c6a" y="235.008"/>
     <use style="fill:#ff7f0e;stroke:#ff7f0e;" x="88.368232" xlink:href="#mfe150e9c6a" y="233.7984"/>
     <use style="fill:#ff7f0e;stroke:#ff7f0e;" x="88.458583" xlink:href="#mfe150e9c6a" y="232.5888"/>
     <use style="fill:#ff7f0e;stroke:#ff7f0e;" x="88.505385" xlink:href="#mfe150e9c6a" y="231.3792"/>
     <use style="fill:#ff7f0e;stroke:#ff7f0e;" x="88.676083" xlink:href="#mfe150e9c6a" y="230.1696"/>
     <use style="fill:#ff7f0e;stroke:#ff7f0e;" x="88.890106" xlink:href="#mfe150e9c6a" y="228.96"/>
     <use style="fill:#ff7f0e;stroke:#ff7f0e;" x="88.891286" xlink:href="#mfe150e9c6a" y="227.7504"/>
     <use style="fill:#ff7f0e;stroke:#ff7f0e;" x="88.975508" xlink:href="#mfe150e9c6a" y="226.5408"/>
     <use style="fill:#ff7f0e;stroke:#ff7f0e;" x="89.346008" xlink:href="#mfe150e9c6a" y="225.3312"/>
     <use style="fill:#ff7f0e;stroke:#ff7f0e;" x="89.476533" xlink:href="#mfe150e9c6a" y="224.1216"/>
     <use style="fill:#ff7f0e;stroke:#ff7f0e;" x="89.478443" xlink:href="#mfe150e9c6a" y="222.912"/>
     <use style="fill:#ff7f0e;stroke:#ff7f0e;" x="89.533974" xlink:href="#mfe150e9c6a" y="221.7024"/>
     <use style="fill:#ff7f0e;stroke:#ff7f0e;" x="89.881728" xlink:href="#mfe150e9c6a" y="220.4928"/>
     <use style="fill:#ff7f0e;stroke:#ff7f0e;" x="90.004146" xlink:href="#mfe150e9c6a" y="219.2832"/>
     <use style="fill:#ff7f0e;stroke:#ff7f0e;" x="90.013734" xlink:href="#mfe150e9c6a" y="218.0736"/>
     <use style="fill:#ff7f0e;stroke:#ff7f0e;" x="90.037486" xlink:href="#mfe150e9c6a" y="216.864"/>
     <use style="fill:#ff7f0e;stroke:#ff7f0e;" x="90.119252" xlink:href="#mfe150e9c6a" y="215.6544"/>
     <use style="fill:#ff7f0e;stroke:#ff7f0e;" x="90.154151" xlink:href="#mfe150e9c6a" y="214.4448"/>
     <use style="fill:#ff7f0e;stroke:#ff7f0e;" x="90.25695" xlink:href="#mfe150e9c6a" y="213.2352"/>
     <use style="fill:#ff7f0e;stroke:#ff7f0e;" x="90.480181" xlink:href="#mfe150e9c6a" y="212.0256"/>
     <use style="fill:#ff7f0e;stroke:#ff7f0e;" x="90.486191" xlink:href="#mfe150e9c6a" y="210.816"/>
     <use style="fill:#ff7f0e;stroke:#ff7f0e;" x="90.496187" xlink:href="#mfe150e9c6a" y="209.6064"/>
     <use style="fill:#ff7f0e;stroke:#ff7f0e;" x="90.704978" xlink:href="#mfe150e9c6a" y="208.3968"/>
     <use style="fill:#ff7f0e;stroke:#ff7f0e;" x="90.738723" xlink:href="#mfe150e9c6a" y="207.1872"/>
     <use style="fill:#ff7f0e;stroke:#ff7f0e;" x="90.752381" xlink:href="#mfe150e9c6a" y="205.9776"/>
     <use style="fill:#ff7f0e;stroke:#ff7f0e;" x="90.804326" xlink:href="#mfe150e9c6a" y="204.768"/>
     <use style="fill:#ff7f0e;stroke:#ff7f0e;" x="91.101508" xlink:href="#mfe150e9c6a" y="203.5584"/>
     <use style="fill:#ff7f0e;stroke:#ff7f0e;" x="91.193898" xlink:href="#mfe150e9c6a" y="202.3488"/>
     <use style="fill:#ff7f0e;stroke:#ff7f0e;" x="91.512206" xlink:href="#mfe150e9c6a" y="201.1392"/>
     <use style="fill:#ff7f0e;stroke:#ff7f0e;" x="91.562785" xlink:href="#mfe150e9c6a" y="199.9296"/>
     <use style="fill:#ff7f0e;stroke:#ff7f0e;" x="91.955282" xlink:href="#mfe150e9c6a" y="198.72"/>
     <use style="fill:#ff7f0e;stroke:#ff7f0e;" x="91.993579" xlink:href="#mfe150e9c6a" y="197.5104"/>
     <use style="fill:#ff7f0e;stroke:#ff7f0e;" x="92.06115" xlink:href="#mfe150e9c6a" y="196.3008"/>
     <use style="fill:#ff7f0e;stroke:#ff7f0e;" x="92.183735" xlink:href="#mfe150e9c6a" y="195.0912"/>
     <use style="fill:#ff7f0e;stroke:#ff7f0e;" x="92.371152" xlink:href="#mfe150e9c6a" y="193.8816"/>
     <use style="fill:#ff7f0e;stroke:#ff7f0e;" x="92.467044" xlink:href="#mfe150e9c6a" y="192.672"/>
     <use style="fill:#ff7f0e;stroke:#ff7f0e;" x="92.625495" xlink:href="#mfe150e9c6a" y="191.4624"/>
     <use style="fill:#ff7f0e;stroke:#ff7f0e;" x="92.72267" xlink:href="#mfe150e9c6a" y="190.2528"/>
     <use style="fill:#ff7f0e;stroke:#ff7f0e;" x="92.733638" xlink:href="#mfe150e9c6a" y="189.0432"/>
     <use style="fill:#ff7f0e;stroke:#ff7f0e;" x="92.766182" xlink:href="#mfe150e9c6a" y="187.8336"/>
     <use style="fill:#ff7f0e;stroke:#ff7f0e;" x="92.871562" xlink:href="#mfe150e9c6a" y="186.624"/>
     <use style="fill:#ff7f0e;stroke:#ff7f0e;" x="92.905795" xlink:href="#mfe150e9c6a" y="185.4144"/>
     <use style="fill:#ff7f0e;stroke:#ff7f0e;" x="93.297234" xlink:href="#mfe150e9c6a" y="184.2048"/>
     <use style="fill:#ff7f0e;stroke:#ff7f0e;" x="93.38154" xlink:href="#mfe150e9c6a" y="182.9952"/>
     <use style="fill:#ff7f0e;stroke:#ff7f0e;" x="93.416349" xlink:href="#mfe150e9c6a" y="181.7856"/>
     <use style="fill:#ff7f0e;stroke:#ff7f0e;" x="93.421407" xlink:href="#mfe150e9c6a" y="180.576"/>
     <use style="fill:#ff7f0e;stroke:#ff7f0e;" x="93.514978" xlink:href="#mfe150e9c6a" y="179.3664"/>
     <use style="fill:#ff7f0e;stroke:#ff7f0e;" x="93.645526" xlink:href="#mfe150e9c6a" y="178.1568"/>
     <use style="fill:#ff7f0e;stroke:#ff7f0e;" x="93.765045" xlink:href="#mfe150e9c6a" y="176.9472"/>
     <use style="fill:#ff7f0e;stroke:#ff7f0e;" x="93.862494" xlink:href="#mfe150e9c6a" y="175.7376"/>
     <use style="fill:#ff7f0e;stroke:#ff7f0e;" x="93.990411" xlink:href="#mfe150e9c6a" y="174.528"/>
     <use style="fill:#ff7f0e;stroke:#ff7f0e;" x="94.653695" xlink:href="#mfe150e9c6a" y="173.3184"/>
     <use style="fill:#ff7f0e;stroke:#ff7f0e;" x="95.439809" xlink:href="#mfe150e9c6a" y="172.1088"/>
     <use style="fill:#ff7f0e;stroke:#ff7f0e;" x="95.527918" xlink:href="#mfe150e9c6a" y="170.8992"/>
     <use style="fill:#ff7f0e;stroke:#ff7f0e;" x="95.686233" xlink:href="#mfe150e9c6a" y="169.6896"/>
     <use style="fill:#ff7f0e;stroke:#ff7f0e;" x="95.890396" xlink:href="#mfe150e9c6a" y="168.48"/>
     <use style="fill:#ff7f0e;stroke:#ff7f0e;" x="96.407991" xlink:href="#mfe150e9c6a" y="167.2704"/>
     <use style="fill:#ff7f0e;stroke:#ff7f0e;" x="96.434475" xlink:href="#mfe150e9c6a" y="166.0608"/>
     <use style="fill:#ff7f0e;stroke:#ff7f0e;" x="96.561025" xlink:href="#mfe150e9c6a" y="164.8512"/>
     <use style="fill:#ff7f0e;stroke:#ff7f0e;" x="96.830166" xlink:href="#mfe150e9c6a" y="163.6416"/>
     <use style="fill:#ff7f0e;stroke:#ff7f0e;" x="96.999221" xlink:href="#mfe150e9c6a" y="162.432"/>
     <use style="fill:#ff7f0e;stroke:#ff7f0e;" x="97.040375" xlink:href="#mfe150e9c6a" y="161.2224"/>
     <use style="fill:#ff7f0e;stroke:#ff7f0e;" x="97.059673" xlink:href="#mfe150e9c6a" y="160.0128"/>
     <use style="fill:#ff7f0e;stroke:#ff7f0e;" x="97.334939" xlink:href="#mfe150e9c6a" y="158.8032"/>
     <use style="fill:#ff7f0e;stroke:#ff7f0e;" x="97.379993" xlink:href="#mfe150e9c6a" y="157.5936"/>
     <use style="fill:#ff7f0e;stroke:#ff7f0e;" x="97.406612" xlink:href="#mfe150e9c6a" y="156.384"/>
     <use style="fill:#ff7f0e;stroke:#ff7f0e;" x="97.811306" xlink:href="#mfe150e9c6a" y="155.1744"/>
     <use style="fill:#ff7f0e;stroke:#ff7f0e;" x="97.850167" xlink:href="#mfe150e9c6a" y="153.9648"/>
     <use style="fill:#ff7f0e;stroke:#ff7f0e;" x="98.053092" xlink:href="#mfe150e9c6a" y="152.7552"/>
     <use style="fill:#ff7f0e;stroke:#ff7f0e;" x="98.111638" xlink:href="#mfe150e9c6a" y="151.5456"/>
     <use style="fill:#ff7f0e;stroke:#ff7f0e;" x="98.215534" xlink:href="#mfe150e9c6a" y="150.336"/>
     <use style="fill:#ff7f0e;stroke:#ff7f0e;" x="98.304675" xlink:href="#mfe150e9c6a" y="149.1264"/>
     <use style="fill:#ff7f0e;stroke:#ff7f0e;" x="98.309791" xlink:href="#mfe150e9c6a" y="147.9168"/>
     <use style="fill:#ff7f0e;stroke:#ff7f0e;" x="98.391351" xlink:href="#mfe150e9c6a" y="146.7072"/>
     <use style="fill:#ff7f0e;stroke:#ff7f0e;" x="98.843613" xlink:href="#mfe150e9c6a" y="145.4976"/>
     <use style="fill:#ff7f0e;stroke:#ff7f0e;" x="98.925835" xlink:href="#mfe150e9c6a" y="144.288"/>
     <use style="fill:#ff7f0e;stroke:#ff7f0e;" x="99.066894" xlink:href="#mfe150e9c6a" y="143.0784"/>
     <use style="fill:#ff7f0e;stroke:#ff7f0e;" x="99.079381" xlink:href="#mfe150e9c6a" y="141.8688"/>
     <use style="fill:#ff7f0e;stroke:#ff7f0e;" x="99.668241" xlink:href="#mfe150e9c6a" y="140.6592"/>
     <use style="fill:#ff7f0e;stroke:#ff7f0e;" x="99.734709" xlink:href="#mfe150e9c6a" y="139.4496"/>
     <use style="fill:#ff7f0e;stroke:#ff7f0e;" x="99.799677" xlink:href="#mfe150e9c6a" y="138.24"/>
     <use style="fill:#ff7f0e;stroke:#ff7f0e;" x="99.81953" xlink:href="#mfe150e9c6a" y="137.0304"/>
     <use style="fill:#ff7f0e;stroke:#ff7f0e;" x="99.859827" xlink:href="#mfe150e9c6a" y="135.8208"/>
     <use style="fill:#ff7f0e;stroke:#ff7f0e;" x="99.883063" xlink:href="#mfe150e9c6a" y="134.6112"/>
     <use style="fill:#ff7f0e;stroke:#ff7f0e;" x="99.971588" xlink:href="#mfe150e9c6a" y="133.4016"/>
     <use style="fill:#ff7f0e;stroke:#ff7f0e;" x="100.109916" xlink:href="#mfe150e9c6a" y="132.192"/>
     <use style="fill:#ff7f0e;stroke:#ff7f0e;" x="100.233877" xlink:href="#mfe150e9c6a" y="130.9824"/>
     <use style="fill:#ff7f0e;stroke:#ff7f0e;" x="100.241905" xlink:href="#mfe150e9c6a" y="129.7728"/>
     <use style="fill:#ff7f0e;stroke:#ff7f0e;" x="100.288827" xlink:href="#mfe150e9c6a" y="128.5632"/>
     <use style="fill:#ff7f0e;stroke:#ff7f0e;" x="100.613336" xlink:href="#mfe150e9c6a" y="127.3536"/>
     <use style="fill:#ff7f0e;stroke:#ff7f0e;" x="100.663107" xlink:href="#mfe150e9c6a" y="126.144"/>
     <use style="fill:#ff7f0e;stroke:#ff7f0e;" x="100.673087" xlink:href="#mfe150e9c6a" y="124.9344"/>
     <use style="fill:#ff7f0e;stroke:#ff7f0e;" x="100.894172" xlink:href="#mfe150e9c6a" y="123.7248"/>
     <use style="fill:#ff7f0e;stroke:#ff7f0e;" x="100.913129" xlink:href="#mfe150e9c6a" y="122.5152"/>
     <use style="fill:#ff7f0e;stroke:#ff7f0e;" x="101.293358" xlink:href="#mfe150e9c6a" y="121.3056"/>
     <use style="fill:#ff7f0e;stroke:#ff7f0e;" x="101.63043" xlink:href="#mfe150e9c6a" y="120.096"/>
     <use style="fill:#ff7f0e;stroke:#ff7f0e;" x="101.869438" xlink:href="#mfe150e9c6a" y="118.8864"/>
     <use style="fill:#ff7f0e;stroke:#ff7f0e;" x="101.930069" xlink:href="#mfe150e9c6a" y="117.6768"/>
     <use style="fill:#ff7f0e;stroke:#ff7f0e;" x="102.427989" xlink:href="#mfe150e9c6a" y="116.4672"/>
     <use style="fill:#ff7f0e;stroke:#ff7f0e;" x="102.485767" xlink:href="#mfe150e9c6a" y="115.2576"/>
     <use style="fill:#ff7f0e;stroke:#ff7f0e;" x="102.538755" xlink:href="#mfe150e9c6a" y="114.048"/>
     <use style="fill:#ff7f0e;stroke:#ff7f0e;" x="103.426034" xlink:href="#mfe150e9c6a" y="112.8384"/>
     <use style="fill:#ff7f0e;stroke:#ff7f0e;" x="103.553227" xlink:href="#mfe150e9c6a" y="111.6288"/>
     <use style="fill:#ff7f0e;stroke:#ff7f0e;" x="103.599423" xlink:href="#mfe150e9c6a" y="110.4192"/>
     <use style="fill:#ff7f0e;stroke:#ff7f0e;" x="103.949999" xlink:href="#mfe150e9c6a" y="109.2096"/>
     <use style="fill:#ff7f0e;stroke:#ff7f0e;" x="104.008153" xlink:href="#mfe150e9c6a" y="108"/>
     <use style="fill:#ff7f0e;stroke:#ff7f0e;" x="104.201975" xlink:href="#mfe150e9c6a" y="106.7904"/>
     <use style="fill:#ff7f0e;stroke:#ff7f0e;" x="104.470329" xlink:href="#mfe150e9c6a" y="105.5808"/>
     <use style="fill:#ff7f0e;stroke:#ff7f0e;" x="104.769662" xlink:href="#mfe150e9c6a" y="104.3712"/>
     <use style="fill:#ff7f0e;stroke:#ff7f0e;" x="104.939528" xlink:href="#mfe150e9c6a" y="103.1616"/>
     <use style="fill:#ff7f0e;stroke:#ff7f0e;" x="105.074068" xlink:href="#mfe150e9c6a" y="101.952"/>
     <use style="fill:#ff7f0e;stroke:#ff7f0e;" x="105.417069" xlink:href="#mfe150e9c6a" y="100.7424"/>
     <use style="fill:#ff7f0e;stroke:#ff7f0e;" x="105.474984" xlink:href="#mfe150e9c6a" y="99.5328"/>
     <use style="fill:#ff7f0e;stroke:#ff7f0e;" x="105.736796" xlink:href="#mfe150e9c6a" y="98.3232"/>
     <use style="fill:#ff7f0e;stroke:#ff7f0e;" x="105.800353" xlink:href="#mfe150e9c6a" y="97.1136"/>
     <use style="fill:#ff7f0e;stroke:#ff7f0e;" x="106.001019" xlink:href="#mfe150e9c6a" y="95.904"/>
     <use style="fill:#ff7f0e;stroke:#ff7f0e;" x="106.236551" xlink:href="#mfe150e9c6a" y="94.6944"/>
     <use style="fill:#ff7f0e;stroke:#ff7f0e;" x="106.335358" xlink:href="#mfe150e9c6a" y="93.4848"/>
     <use style="fill:#ff7f0e;stroke:#ff7f0e;" x="106.603267" xlink:href="#mfe150e9c6a" y="92.2752"/>
     <use style="fill:#ff7f0e;stroke:#ff7f0e;" x="107.289553" xlink:href="#mfe150e9c6a" y="91.0656"/>
     <use style="fill:#ff7f0e;stroke:#ff7f0e;" x="107.734429" xlink:href="#mfe150e9c6a" y="89.856"/>
     <use style="fill:#ff7f0e;stroke:#ff7f0e;" x="107.842666" xlink:href="#mfe150e9c6a" y="88.6464"/>
     <use style="fill:#ff7f0e;stroke:#ff7f0e;" x="107.883313" xlink:href="#mfe150e9c6a" y="87.4368"/>
     <use style="fill:#ff7f0e;stroke:#ff7f0e;" x="108.072075" xlink:href="#mfe150e9c6a" y="86.2272"/>
     <use style="fill:#ff7f0e;stroke:#ff7f0e;" x="108.304028" xlink:href="#mfe150e9c6a" y="85.0176"/>
     <use style="fill:#ff7f0e;stroke:#ff7f0e;" x="108.597709" xlink:href="#mfe150e9c6a" y="83.808"/>
     <use style="fill:#ff7f0e;stroke:#ff7f0e;" x="109.025866" xlink:href="#mfe150e9c6a" y="82.5984"/>
     <use style="fill:#ff7f0e;stroke:#ff7f0e;" x="109.479106" xlink:href="#mfe150e9c6a" y="81.3888"/>
     <use style="fill:#ff7f0e;stroke:#ff7f0e;" x="109.740232" xlink:href="#mfe150e9c6a" y="80.1792"/>
     <use style="fill:#ff7f0e;stroke:#ff7f0e;" x="109.755543" xlink:href="#mfe150e9c6a" y="78.9696"/>
     <use style="fill:#ff7f0e;stroke:#ff7f0e;" x="109.756293" xlink:href="#mfe150e9c6a" y="77.76"/>
     <use style="fill:#ff7f0e;stroke:#ff7f0e;" x="109.862288" xlink:href="#mfe150e9c6a" y="76.5504"/>
     <use style="fill:#ff7f0e;stroke:#ff7f0e;" x="109.923958" xlink:href="#mfe150e9c6a" y="75.3408"/>
     <use style="fill:#ff7f0e;stroke:#ff7f0e;" x="110.132508" xlink:href="#mfe150e9c6a" y="74.1312"/>
     <use style="fill:#ff7f0e;stroke:#ff7f0e;" x="110.578793" xlink:href="#mfe150e9c6a" y="72.9216"/>
     <use style="fill:#ff7f0e;stroke:#ff7f0e;" x="110.669196" xlink:href="#mfe150e9c6a" y="71.712"/>
     <use style="fill:#ff7f0e;stroke:#ff7f0e;" x="110.714177" xlink:href="#mfe150e9c6a" y="70.5024"/>
     <use style="fill:#ff7f0e;stroke:#ff7f0e;" x="111.450812" xlink:href="#mfe150e9c6a" y="69.2928"/>
     <use style="fill:#ff7f0e;stroke:#ff7f0e;" x="111.676453" xlink:href="#mfe150e9c6a" y="68.0832"/>
     <use style="fill:#ff7f0e;stroke:#ff7f0e;" x="113.379602" xlink:href="#mfe150e9c6a" y="66.8736"/>
     <use style="fill:#ff7f0e;stroke:#ff7f0e;" x="113.971877" xlink:href="#mfe150e9c6a" y="65.664"/>
     <use style="fill:#ff7f0e;stroke:#ff7f0e;" x="114.085866" xlink:href="#mfe150e9c6a" y="64.4544"/>
     <use style="fill:#ff7f0e;stroke:#ff7f0e;" x="114.327642" xlink:href="#mfe150e9c6a" y="63.2448"/>
     <use style="fill:#ff7f0e;stroke:#ff7f0e;" x="114.351262" xlink:href="#mfe150e9c6a" y="62.0352"/>
     <use style="fill:#ff7f0e;stroke:#ff7f0e;" x="114.488218" xlink:href="#mfe150e9c6a" y="60.8256"/>
     <use style="fill:#ff7f0e;stroke:#ff7f0e;" x="116.515535" xlink:href="#mfe150e9c6a" y="59.616"/>
     <use style="fill:#ff7f0e;stroke:#ff7f0e;" x="117.609367" xlink:href="#mfe150e9c6a" y="58.4064"/>
     <use style="fill:#ff7f0e;stroke:#ff7f0e;" x="120.891387" xlink:href="#mfe150e9c6a" y="57.1968"/>
     <use style="fill:#ff7f0e;stroke:#ff7f0e;" x="121.03921" xlink:href="#mfe150e9c6a" y="55.9872"/>
     <use style="fill:#ff7f0e;stroke:#ff7f0e;" x="122.234619" xlink:href="#mfe150e9c6a" y="54.7776"/>
     <use style="fill:#ff7f0e;stroke:#ff7f0e;" x="124.599348" xlink:href="#mfe150e9c6a" y="53.568"/>
    </g>
   </g>
   <g id="patch_3">
    <path d="M 57.6 307.584 
L 57.6 41.472 
" style="fill:none;stroke:#000000;stroke-linecap:square;stroke-linejoin:miter;stroke-width:0.8;"/>
   </g>
   <g id="patch_4">
    <path d="M 414.72 307.584 
L 414.72 41.472 
" style="fill:none;stroke:#000000;stroke-linecap:square;stroke-linejoin:miter;stroke-width:0.8;"/>
   </g>
   <g id="patch_5">
    <path d="M 57.6 307.584 
L 414.72 307.584 
" style="fill:none;stroke:#000000;stroke-linecap:square;stroke-linejoin:miter;stroke-width:0.8;"/>
   </g>
   <g id="patch_6">
    <path d="M 57.6 41.472 
L 414.72 41.472 
" style="fill:none;stroke:#000000;stroke-linecap:square;stroke-linejoin:miter;stroke-width:0.8;"/>
   </g>
   <g id="text_11">
    <!-- Occipital(8.25, 9.25] -->
    <defs>
     <path d="M 39.40625 66.21875 
Q 28.65625 66.21875 22.328125 58.203125 
Q 16.015625 50.203125 16.015625 36.375 
Q 16.015625 22.609375 22.328125 14.59375 
Q 28.65625 6.59375 39.40625 6.59375 
Q 50.140625 6.59375 56.421875 14.59375 
Q 62.703125 22.609375 62.703125 36.375 
Q 62.703125 50.203125 56.421875 58.203125 
Q 50.140625 66.21875 39.40625 66.21875 
z
M 39.40625 74.21875 
Q 54.734375 74.21875 63.90625 63.9375 
Q 73.09375 53.65625 73.09375 36.375 
Q 73.09375 19.140625 63.90625 8.859375 
Q 54.734375 -1.421875 39.40625 -1.421875 
Q 24.03125 -1.421875 14.8125 8.828125 
Q 5.609375 19.09375 5.609375 36.375 
Q 5.609375 53.65625 14.8125 63.9375 
Q 24.03125 74.21875 39.40625 74.21875 
z
" id="DejaVuSans-79"/>
     <path d="M 31 75.875 
Q 24.46875 64.65625 21.28125 53.65625 
Q 18.109375 42.671875 18.109375 31.390625 
Q 18.109375 20.125 21.3125 9.0625 
Q 24.515625 -2 31 -13.1875 
L 23.1875 -13.1875 
Q 15.875 -1.703125 12.234375 9.375 
Q 8.59375 20.453125 8.59375 31.390625 
Q 8.59375 42.28125 12.203125 53.3125 
Q 15.828125 64.359375 23.1875 75.875 
z
" id="DejaVuSans-40"/>
     <path d="M 11.71875 12.40625 
L 22.015625 12.40625 
L 22.015625 4 
L 14.015625 -11.625 
L 7.71875 -11.625 
L 11.71875 4 
z
" id="DejaVuSans-44"/>
     <path d="M 10.984375 1.515625 
L 10.984375 10.5 
Q 14.703125 8.734375 18.5 7.8125 
Q 22.3125 6.890625 25.984375 6.890625 
Q 35.75 6.890625 40.890625 13.453125 
Q 46.046875 20.015625 46.78125 33.40625 
Q 43.953125 29.203125 39.59375 26.953125 
Q 35.25 24.703125 29.984375 24.703125 
Q 19.046875 24.703125 12.671875 31.3125 
Q 6.296875 37.9375 6.296875 49.421875 
Q 6.296875 60.640625 12.9375 67.421875 
Q 19.578125 74.21875 30.609375 74.21875 
Q 43.265625 74.21875 49.921875 64.515625 
Q 56.59375 54.828125 56.59375 36.375 
Q 56.59375 19.140625 48.40625 8.859375 
Q 40.234375 -1.421875 26.421875 -1.421875 
Q 22.703125 -1.421875 18.890625 -0.6875 
Q 15.09375 0.046875 10.984375 1.515625 
z
M 30.609375 32.421875 
Q 37.25 32.421875 41.125 36.953125 
Q 45.015625 41.5 45.015625 49.421875 
Q 45.015625 57.28125 41.125 61.84375 
Q 37.25 66.40625 30.609375 66.40625 
Q 23.96875 66.40625 20.09375 61.84375 
Q 16.21875 57.28125 16.21875 49.421875 
Q 16.21875 41.5 20.09375 36.953125 
Q 23.96875 32.421875 30.609375 32.421875 
z
" id="DejaVuSans-57"/>
     <path d="M 30.421875 75.984375 
L 30.421875 -13.1875 
L 9.71875 -13.1875 
L 9.71875 -6.203125 
L 21.390625 -6.203125 
L 21.390625 69 
L 9.71875 69 
L 9.71875 75.984375 
z
" id="DejaVuSans-93"/>
    </defs>
    <g transform="translate(101.136375 35.472)scale(0.264 -0.264)">
     <use xlink:href="#DejaVuSans-79"/>
     <use x="78.710938" xlink:href="#DejaVuSans-99"/>
     <use x="133.691406" xlink:href="#DejaVuSans-99"/>
     <use x="188.671875" xlink:href="#DejaVuSans-105"/>
     <use x="216.455078" xlink:href="#DejaVuSans-112"/>
     <use x="279.931641" xlink:href="#DejaVuSans-105"/>
     <use x="307.714844" xlink:href="#DejaVuSans-116"/>
     <use x="346.923828" xlink:href="#DejaVuSans-97"/>
     <use x="408.203125" xlink:href="#DejaVuSans-108"/>
     <use x="435.986328" xlink:href="#DejaVuSans-40"/>
     <use x="475" xlink:href="#DejaVuSans-56"/>
     <use x="538.623047" xlink:href="#DejaVuSans-46"/>
     <use x="570.410156" xlink:href="#DejaVuSans-50"/>
     <use x="634.033203" xlink:href="#DejaVuSans-53"/>
     <use x="697.65625" xlink:href="#DejaVuSans-44"/>
     <use x="729.443359" xlink:href="#DejaVuSans-32"/>
     <use x="761.230469" xlink:href="#DejaVuSans-57"/>
     <use x="824.853516" xlink:href="#DejaVuSans-46"/>
     <use x="856.640625" xlink:href="#DejaVuSans-50"/>
     <use x="920.263672" xlink:href="#DejaVuSans-53"/>
     <use x="983.886719" xlink:href="#DejaVuSans-93"/>
    </g>
   </g>
   <g id="legend_1">
    <g id="patch_7">
     <path d="M 73 123.65575 
L 231.520312 123.65575 
Q 235.920312 123.65575 235.920312 119.25575 
L 235.920312 56.872 
Q 235.920312 52.472 231.520312 52.472 
L 73 52.472 
Q 68.6 52.472 68.6 56.872 
L 68.6 119.25575 
Q 68.6 123.65575 73 123.65575 
z
" style="fill:#ffffff;opacity:0.8;stroke:#cccccc;stroke-linejoin:miter;"/>
    </g>
    <g id="line2d_11"/>
    <g id="line2d_12">
     <g>
      <use style="fill:#1f77b4;stroke:#1f77b4;" x="99.4" xlink:href="#m158ae47e57" y="70.288562"/>
     </g>
    </g>
    <g id="text_12">
     <!-- lobe -->
     <g transform="translate(139 77.988563)scale(0.22 -0.22)">
      <use xlink:href="#DejaVuSans-108"/>
      <use x="27.783203" xlink:href="#DejaVuSans-111"/>
      <use x="88.964844" xlink:href="#DejaVuSans-98"/>
      <use x="152.441406" xlink:href="#DejaVuSans-101"/>
     </g>
    </g>
    <g id="line2d_13"/>
    <g id="line2d_14">
     <g>
      <use style="fill:#ff7f0e;stroke:#ff7f0e;" x="99.4" xlink:href="#mfe150e9c6a" y="102.580438"/>
     </g>
    </g>
    <g id="text_13">
     <!-- no peak -->
     <defs>
      <path d="M 9.078125 75.984375 
L 18.109375 75.984375 
L 18.109375 31.109375 
L 44.921875 54.6875 
L 56.390625 54.6875 
L 27.390625 29.109375 
L 57.625 0 
L 45.90625 0 
L 18.109375 26.703125 
L 18.109375 0 
L 9.078125 0 
z
" id="DejaVuSans-107"/>
     </defs>
     <g transform="translate(139 110.280438)scale(0.22 -0.22)">
      <use xlink:href="#DejaVuSans-110"/>
      <use x="63.378906" xlink:href="#DejaVuSans-111"/>
      <use x="124.560547" xlink:href="#DejaVuSans-32"/>
      <use x="156.347656" xlink:href="#DejaVuSans-112"/>
      <use x="219.824219" xlink:href="#DejaVuSans-101"/>
      <use x="281.347656" xlink:href="#DejaVuSans-97"/>
      <use x="342.626953" xlink:href="#DejaVuSans-107"/>
     </g>
    </g>
   </g>
  </g>
 </g>
 <defs>
  <clipPath id="p124e9e0eb3">
   <rect height="266.112" width="357.12" x="57.6" y="41.472"/>
  </clipPath>
 </defs>
</svg>
